999
"DXF R12 Output" (www.mydxf.blogspot.com)
 0 
SECTION
 2 
HEADER
 9 
$ACADVER
 1 
AC1009
 9 
$EXTMIN
 10 
 0 
 20 
 0 
 9 
$EXTMAX
 10 
 8.5 
 20 
 11 
 0 
ENDSEC
 0 
SECTION
 2 
ENTITIES
0
LINE
8
Layer 1
10
245.691000
20
677.254000
11
245.538759
21
678.019367
0
LINE
8
Layer 1
10
245.538759
20
678.019367
11
245.105214
21
678.668214
0
LINE
8
Layer 1
10
245.105214
20
678.668214
11
244.456367
21
679.101759
0
LINE
8
Layer 1
10
244.456367
20
679.101759
11
243.691000
21
679.254000
0
LINE
8
Layer 1
10
243.691000
20
679.254000
11
242.925633
21
679.101759
0
LINE
8
Layer 1
10
242.925633
20
679.101759
11
242.276786
21
678.668214
0
LINE
8
Layer 1
10
242.276786
20
678.668214
11
241.843241
21
678.019367
0
LINE
8
Layer 1
10
241.843241
20
678.019367
11
241.691000
21
677.254000
0
LINE
8
Layer 1
10
241.691000
20
677.254000
11
241.843241
21
676.488633
0
LINE
8
Layer 1
10
241.843241
20
676.488633
11
242.276786
21
675.839786
0
LINE
8
Layer 1
10
242.276786
20
675.839786
11
242.925633
21
675.406241
0
LINE
8
Layer 1
10
242.925633
20
675.406241
11
243.691000
21
675.254000
0
LINE
8
Layer 1
10
243.691000
20
675.254000
11
244.456367
21
675.406241
0
LINE
8
Layer 1
10
244.456367
20
675.406241
11
245.105214
21
675.839786
0
LINE
8
Layer 1
10
245.105214
20
675.839786
11
245.538759
21
676.488633
0
LINE
8
Layer 1
10
245.538759
20
676.488633
11
245.691000
21
677.254000
0
LINE
8
Layer 1
10
250.191000
20
677.254000
11
250.064950
21
678.528009
0
LINE
8
Layer 1
10
250.064950
20
678.528009
11
249.696217
21
679.741442
0
LINE
8
Layer 1
10
249.696217
20
679.741442
11
249.098924
21
680.860203
0
LINE
8
Layer 1
10
249.098924
20
680.860203
11
248.287194
21
681.850194
0
LINE
8
Layer 1
10
248.287194
20
681.850194
11
247.297203
21
682.661924
0
LINE
8
Layer 1
10
247.297203
20
682.661924
11
246.178442
21
683.259217
0
LINE
8
Layer 1
10
246.178442
20
683.259217
11
244.965009
21
683.627950
0
LINE
8
Layer 1
10
244.965009
20
683.627950
11
243.691000
21
683.754000
0
LINE
8
Layer 1
10
243.691000
20
683.754000
11
242.416991
21
683.627950
0
LINE
8
Layer 1
10
242.416991
20
683.627950
11
241.203558
21
683.259217
0
LINE
8
Layer 1
10
241.203558
20
683.259217
11
240.084797
21
682.661924
0
LINE
8
Layer 1
10
240.084797
20
682.661924
11
239.094806
21
681.850194
0
LINE
8
Layer 1
10
239.094806
20
681.850194
11
238.283076
21
680.860203
0
LINE
8
Layer 1
10
238.283076
20
680.860203
11
237.685783
21
679.741442
0
LINE
8
Layer 1
10
237.685783
20
679.741442
11
237.317050
21
678.528009
0
LINE
8
Layer 1
10
237.317050
20
678.528009
11
237.191000
21
677.254000
0
LINE
8
Layer 1
10
237.191000
20
677.254000
11
237.317050
21
675.979991
0
LINE
8
Layer 1
10
237.317050
20
675.979991
11
237.685783
21
674.766558
0
LINE
8
Layer 1
10
237.685783
20
674.766558
11
238.283076
21
673.647797
0
LINE
8
Layer 1
10
238.283076
20
673.647797
11
239.094806
21
672.657806
0
LINE
8
Layer 1
10
239.094806
20
672.657806
11
240.084797
21
671.846076
0
LINE
8
Layer 1
10
240.084797
20
671.846076
11
241.203558
21
671.248783
0
LINE
8
Layer 1
10
241.203558
20
671.248783
11
242.416991
21
670.880050
0
LINE
8
Layer 1
10
242.416991
20
670.880050
11
243.691000
21
670.754000
0
LINE
8
Layer 1
10
243.691000
20
670.754000
11
244.965009
21
670.880050
0
LINE
8
Layer 1
10
244.965009
20
670.880050
11
246.178442
21
671.248783
0
LINE
8
Layer 1
10
246.178442
20
671.248783
11
247.297203
21
671.846076
0
LINE
8
Layer 1
10
247.297203
20
671.846076
11
248.287194
21
672.657806
0
LINE
8
Layer 1
10
248.287194
20
672.657806
11
249.098924
21
673.647797
0
LINE
8
Layer 1
10
249.098924
20
673.647797
11
249.696217
21
674.766558
0
LINE
8
Layer 1
10
249.696217
20
674.766558
11
250.064950
21
675.979991
0
LINE
8
Layer 1
10
250.064950
20
675.979991
11
250.191000
21
677.254000
0
LINE
8
Layer 1
10
231.452900
20
576.243000
11
230.772515
21
576.381162
0
LINE
8
Layer 1
10
230.772515
20
576.381162
11
230.217031
21
576.756294
0
LINE
8
Layer 1
10
230.217031
20
576.756294
11
229.842556
21
577.312222
0
LINE
8
Layer 1
10
229.842556
20
577.312222
11
229.705200
21
577.992770
0
LINE
8
Layer 1
10
229.705200
20
577.992770
11
229.705200
21
584.242020
0
LINE
8
Layer 1
10
229.705200
20
584.242020
11
229.705200
21
590.289700
0
LINE
8
Layer 1
10
229.705200
20
590.289700
11
229.705200
21
603.293000
0
LINE
8
Layer 1
10
229.705200
20
603.293000
11
223.686960
21
603.293000
0
LINE
8
Layer 1
10
223.686960
20
603.293000
11
221.927900
21
603.293000
0
LINE
8
Layer 1
10
221.927900
20
603.293000
11
221.247522
21
603.431159
0
LINE
8
Layer 1
10
221.247522
20
603.431159
11
220.692042
21
603.806284
0
LINE
8
Layer 1
10
220.692042
20
603.806284
11
220.317565
21
604.362202
0
LINE
8
Layer 1
10
220.317565
20
604.362202
11
220.180200
21
605.042740
0
LINE
8
Layer 1
10
220.180200
20
605.042740
11
220.180200
21
620.597340
0
LINE
8
Layer 1
10
220.180200
20
620.597340
11
220.318361
21
621.277723
0
LINE
8
Layer 1
10
220.318361
20
621.277723
11
220.693491
21
621.833206
0
LINE
8
Layer 1
10
220.693491
20
621.833206
11
221.249415
21
622.207681
0
LINE
8
Layer 1
10
221.249415
20
622.207681
11
221.929960
21
622.345040
0
LINE
8
Layer 1
10
221.929960
20
622.345040
11
224.943220
21
622.345040
0
LINE
8
Layer 1
10
224.943220
20
622.345040
11
224.943220
21
639.647340
0
LINE
8
Layer 1
10
224.943220
20
639.647340
11
225.081381
21
640.327723
0
LINE
8
Layer 1
10
225.081381
20
640.327723
11
225.456511
21
640.883206
0
LINE
8
Layer 1
10
225.456511
20
640.883206
11
226.012435
21
641.257681
0
LINE
8
Layer 1
10
226.012435
20
641.257681
11
226.692980
21
641.395040
0
LINE
8
Layer 1
10
226.692980
20
641.395040
11
234.468220
21
641.395040
0
LINE
8
Layer 1
10
234.468220
20
641.395040
11
234.468220
21
660.442940
0
LINE
8
Layer 1
10
234.468220
20
660.442940
11
231.452900
21
660.442940
0
LINE
8
Layer 1
10
231.452900
20
660.442940
11
230.772522
21
660.581099
0
LINE
8
Layer 1
10
230.772522
20
660.581099
11
230.217042
21
660.956224
0
LINE
8
Layer 1
10
230.217042
20
660.956224
11
229.842565
21
661.512142
0
LINE
8
Layer 1
10
229.842565
20
661.512142
11
229.705200
21
662.192680
0
LINE
8
Layer 1
10
229.705200
20
662.192680
11
229.705200
21
674.693180
0
LINE
8
Layer 1
10
229.705200
20
674.693180
11
229.705200
21
679.493940
0
LINE
8
Layer 1
10
229.705200
20
679.493940
11
229.705200
21
690.508740
0
LINE
8
Layer 1
10
229.705200
20
690.508740
11
229.843361
21
691.189123
0
LINE
8
Layer 1
10
229.843361
20
691.189123
11
230.218491
21
691.744606
0
LINE
8
Layer 1
10
230.218491
20
691.744606
11
230.774415
21
692.119081
0
LINE
8
Layer 1
10
230.774415
20
692.119081
11
231.454960
21
692.256440
0
LINE
8
Layer 1
10
231.454960
20
692.256440
11
410.420960
21
692.256440
0
LINE
8
Layer 1
10
410.420960
20
692.256440
11
410.695890
21
692.245040
0
LINE
8
Layer 1
10
410.695890
20
692.245040
11
410.969260
21
692.213540
0
LINE
8
Layer 1
10
410.969260
20
692.213540
11
411.237970
21
692.158740
0
LINE
8
Layer 1
10
411.237970
20
692.158740
11
411.502550
21
692.084840
0
LINE
8
Layer 1
10
411.502550
20
692.084840
11
411.759910
21
691.989740
0
LINE
8
Layer 1
10
411.759910
20
691.989740
11
412.009490
21
691.875020
0
LINE
8
Layer 1
10
412.009490
20
691.875020
11
412.249790
21
691.740140
0
LINE
8
Layer 1
10
412.249790
20
691.740140
11
412.477700
21
691.588210
0
LINE
8
Layer 1
10
412.477700
20
691.588210
11
412.693700
21
691.417160
0
LINE
8
Layer 1
10
412.693700
20
691.417160
11
412.895770
21
691.231130
0
LINE
8
Layer 1
10
412.895770
20
691.231130
11
413.081790
21
691.029070
0
LINE
8
Layer 1
10
413.081790
20
691.029070
11
413.252850
21
690.813060
0
LINE
8
Layer 1
10
413.252850
20
690.813060
11
413.404770
21
690.585180
0
LINE
8
Layer 1
10
413.404770
20
690.585180
11
413.539630
21
690.344880
0
LINE
8
Layer 1
10
413.539630
20
690.344880
11
413.654880
21
690.094770
0
LINE
8
Layer 1
10
413.654880
20
690.094770
11
413.750480
21
689.837940
0
LINE
8
Layer 1
10
413.750480
20
689.837940
11
413.824380
21
689.572830
0
LINE
8
Layer 1
10
413.824380
20
689.572830
11
413.877580
21
689.304120
0
LINE
8
Layer 1
10
413.877580
20
689.304120
11
413.909580
21
689.030750
0
LINE
8
Layer 1
10
413.909580
20
689.030750
11
413.920980
21
688.755820
0
LINE
8
Layer 1
10
413.920980
20
688.755820
11
413.920980
21
579.743000
0
LINE
8
Layer 1
10
413.920980
20
579.743000
11
413.909580
21
579.468070
0
LINE
8
Layer 1
10
413.909580
20
579.468070
11
413.877580
21
579.195240
0
LINE
8
Layer 1
10
413.877580
20
579.195240
11
413.824380
21
578.924960
0
LINE
8
Layer 1
10
413.824380
20
578.924960
11
413.750480
21
578.660910
0
LINE
8
Layer 1
10
413.750480
20
578.660910
11
413.654880
21
578.403020
0
LINE
8
Layer 1
10
413.654880
20
578.403020
11
413.539630
21
578.153940
0
LINE
8
Layer 1
10
413.539630
20
578.153940
11
413.404770
21
577.914180
0
LINE
8
Layer 1
10
413.404770
20
577.914180
11
413.252850
21
577.685260
0
LINE
8
Layer 1
10
413.252850
20
577.685260
11
413.081790
21
577.469250
0
LINE
8
Layer 1
10
413.081790
20
577.469250
11
412.895770
21
577.268220
0
LINE
8
Layer 1
10
412.895770
20
577.268220
11
412.693700
21
577.081160
0
LINE
8
Layer 1
10
412.693700
20
577.081160
11
412.477700
21
576.911140
0
LINE
8
Layer 1
10
412.477700
20
576.911140
11
412.249790
21
576.758180
0
LINE
8
Layer 1
10
412.249790
20
576.758180
11
412.009490
21
576.624330
0
LINE
8
Layer 1
10
412.009490
20
576.624330
11
411.759910
21
576.509080
0
LINE
8
Layer 1
10
411.759910
20
576.509080
11
411.502550
21
576.413980
0
LINE
8
Layer 1
10
411.502550
20
576.413980
11
411.237970
21
576.339080
0
LINE
8
Layer 1
10
411.237970
20
576.339080
11
410.969260
21
576.286380
0
LINE
8
Layer 1
10
410.969260
20
576.286380
11
410.695890
21
576.253280
0
LINE
8
Layer 1
10
410.695890
20
576.253280
11
410.420960
21
576.242380
0
LINE
8
Layer 1
10
410.420960
20
576.242380
11
231.452900
21
576.243000
0
LINE
8
Layer 1
10
233.691000
20
579.242320
11
233.692000
21
579.242320
0
LINE
8
Layer 1
10
233.692000
20
579.242320
11
233.704900
21
579.242320
0
LINE
8
Layer 1
10
233.704900
20
579.242320
11
234.094111
21
579.320916
0
LINE
8
Layer 1
10
234.094111
20
579.320916
11
234.411947
21
579.535213
0
LINE
8
Layer 1
10
234.411947
20
579.535213
11
234.626244
21
579.853049
0
LINE
8
Layer 1
10
234.626244
20
579.853049
11
234.704840
21
580.242260
0
LINE
8
Layer 1
10
234.704840
20
580.242260
11
234.628852
21
580.625065
0
LINE
8
Layer 1
10
234.628852
20
580.625065
11
234.412124
21
580.949630
0
LINE
8
Layer 1
10
234.412124
20
580.949630
11
234.087667
21
581.166520
0
LINE
8
Layer 1
10
234.087667
20
581.166520
11
233.704900
21
581.242700
0
LINE
8
Layer 1
10
233.704900
20
581.242700
11
233.322133
21
581.166520
0
LINE
8
Layer 1
10
233.322133
20
581.166520
11
232.997676
21
580.949630
0
LINE
8
Layer 1
10
232.997676
20
580.949630
11
232.780948
21
580.625065
0
LINE
8
Layer 1
10
232.780948
20
580.625065
11
232.704960
21
580.242260
0
LINE
8
Layer 1
10
232.704960
20
580.242260
11
232.782121
21
579.856400
0
LINE
8
Layer 1
10
232.782121
20
579.856400
11
232.992904
21
579.540099
0
LINE
8
Layer 1
10
232.992904
20
579.540099
11
233.306212
21
579.324894
0
LINE
8
Layer 1
10
233.306212
20
579.324894
11
233.690950
21
579.242320
0
LINE
8
Layer 1
10
233.690950
20
579.242320
11
233.691000
21
579.242320
0
LINE
8
Layer 1
10
257.690100
20
579.242320
11
257.690630
21
579.242320
0
LINE
8
Layer 1
10
257.690630
20
579.242320
11
257.704030
21
579.242320
0
LINE
8
Layer 1
10
257.704030
20
579.242320
11
258.093241
21
579.320916
0
LINE
8
Layer 1
10
258.093241
20
579.320916
11
258.411077
21
579.535213
0
LINE
8
Layer 1
10
258.411077
20
579.535213
11
258.625374
21
579.853049
0
LINE
8
Layer 1
10
258.625374
20
579.853049
11
258.703970
21
580.242260
0
LINE
8
Layer 1
10
258.703970
20
580.242260
11
258.627982
21
580.625065
0
LINE
8
Layer 1
10
258.627982
20
580.625065
11
258.411254
21
580.949630
0
LINE
8
Layer 1
10
258.411254
20
580.949630
11
258.086797
21
581.166520
0
LINE
8
Layer 1
10
258.086797
20
581.166520
11
257.704030
21
581.242700
0
LINE
8
Layer 1
10
257.704030
20
581.242700
11
257.321263
21
581.166520
0
LINE
8
Layer 1
10
257.321263
20
581.166520
11
256.996806
21
580.949630
0
LINE
8
Layer 1
10
256.996806
20
580.949630
11
256.780078
21
580.625065
0
LINE
8
Layer 1
10
256.780078
20
580.625065
11
256.704090
21
580.242260
0
LINE
8
Layer 1
10
256.704090
20
580.242260
11
256.781251
21
579.856400
0
LINE
8
Layer 1
10
256.781251
20
579.856400
11
256.992034
21
579.540099
0
LINE
8
Layer 1
10
256.992034
20
579.540099
11
257.305342
21
579.324894
0
LINE
8
Layer 1
10
257.305342
20
579.324894
11
257.690080
21
579.242320
0
LINE
8
Layer 1
10
257.690080
20
579.242320
11
257.690100
21
579.242320
0
LINE
8
Layer 1
10
337.890400
20
579.242320
11
337.890400
21
579.242320
0
LINE
8
Layer 1
10
337.890400
20
579.242320
11
337.904400
21
579.242320
0
LINE
8
Layer 1
10
337.904400
20
579.242320
11
338.293611
21
579.320916
0
LINE
8
Layer 1
10
338.293611
20
579.320916
11
338.611447
21
579.535213
0
LINE
8
Layer 1
10
338.611447
20
579.535213
11
338.825744
21
579.853049
0
LINE
8
Layer 1
10
338.825744
20
579.853049
11
338.904340
21
580.242260
0
LINE
8
Layer 1
10
338.904340
20
580.242260
11
338.828352
21
580.625065
0
LINE
8
Layer 1
10
338.828352
20
580.625065
11
338.611624
21
580.949630
0
LINE
8
Layer 1
10
338.611624
20
580.949630
11
338.287167
21
581.166520
0
LINE
8
Layer 1
10
338.287167
20
581.166520
11
337.904400
21
581.242700
0
LINE
8
Layer 1
10
337.904400
20
581.242700
11
337.521633
21
581.166520
0
LINE
8
Layer 1
10
337.521633
20
581.166520
11
337.197176
21
580.949630
0
LINE
8
Layer 1
10
337.197176
20
580.949630
11
336.980448
21
580.625065
0
LINE
8
Layer 1
10
336.980448
20
580.625065
11
336.904460
21
580.242260
0
LINE
8
Layer 1
10
336.904460
20
580.242260
11
336.981567
21
579.856524
0
LINE
8
Layer 1
10
336.981567
20
579.856524
11
337.192219
21
579.540280
0
LINE
8
Layer 1
10
337.192219
20
579.540280
11
337.505359
21
579.325041
0
LINE
8
Layer 1
10
337.505359
20
579.325041
11
337.889930
21
579.242320
0
LINE
8
Layer 1
10
337.889930
20
579.242320
11
337.890400
21
579.242320
0
LINE
8
Layer 1
10
359.907700
20
579.242320
11
359.907700
21
579.242320
0
LINE
8
Layer 1
10
359.907700
20
579.242320
11
359.921200
21
579.242320
0
LINE
8
Layer 1
10
359.921200
20
579.242320
11
360.304014
21
579.318300
0
LINE
8
Layer 1
10
360.304014
20
579.318300
11
360.628589
21
579.535026
0
LINE
8
Layer 1
10
360.628589
20
579.535026
11
360.845487
21
579.859486
0
LINE
8
Layer 1
10
360.845487
20
579.859486
11
360.921670
21
580.242260
0
LINE
8
Layer 1
10
360.921670
20
580.242260
11
360.845487
21
580.625034
0
LINE
8
Layer 1
10
360.845487
20
580.625034
11
360.628589
21
580.949494
0
LINE
8
Layer 1
10
360.628589
20
580.949494
11
360.304014
21
581.166220
0
LINE
8
Layer 1
10
360.304014
20
581.166220
11
359.921200
21
581.242200
0
LINE
8
Layer 1
10
359.921200
20
581.242200
11
359.531989
21
581.163604
0
LINE
8
Layer 1
10
359.531989
20
581.163604
11
359.214153
21
580.949307
0
LINE
8
Layer 1
10
359.214153
20
580.949307
11
358.999856
21
580.631471
0
LINE
8
Layer 1
10
358.999856
20
580.631471
11
358.921260
21
580.242260
0
LINE
8
Layer 1
10
358.921260
20
580.242260
11
358.998422
21
579.856398
0
LINE
8
Layer 1
10
358.998422
20
579.856398
11
359.209207
21
579.540096
0
LINE
8
Layer 1
10
359.209207
20
579.540096
11
359.522519
21
579.324891
0
LINE
8
Layer 1
10
359.522519
20
579.324891
11
359.907260
21
579.242320
0
LINE
8
Layer 1
10
359.907260
20
579.242320
11
359.907700
21
579.242320
0
LINE
8
Layer 1
10
409.810600
20
579.242320
11
409.824100
21
579.242320
0
LINE
8
Layer 1
10
409.824100
20
579.242320
11
410.206905
21
579.318308
0
LINE
8
Layer 1
10
410.206905
20
579.318308
11
410.531470
21
579.535036
0
LINE
8
Layer 1
10
410.531470
20
579.535036
11
410.748360
21
579.859493
0
LINE
8
Layer 1
10
410.748360
20
579.859493
11
410.824540
21
580.242260
0
LINE
8
Layer 1
10
410.824540
20
580.242260
11
410.748504
21
580.625180
0
LINE
8
Layer 1
10
410.748504
20
580.625180
11
410.531647
21
580.949807
0
LINE
8
Layer 1
10
410.531647
20
580.949807
11
410.207020
21
581.166664
0
LINE
8
Layer 1
10
410.207020
20
581.166664
11
409.824100
21
581.242700
0
LINE
8
Layer 1
10
409.824100
20
581.242700
11
409.441333
21
581.166520
0
LINE
8
Layer 1
10
409.441333
20
581.166520
11
409.116876
21
580.949630
0
LINE
8
Layer 1
10
409.116876
20
580.949630
11
408.900148
21
580.625065
0
LINE
8
Layer 1
10
408.900148
20
580.625065
11
408.824160
21
580.242260
0
LINE
8
Layer 1
10
408.824160
20
580.242260
11
408.901319
21
579.856405
0
LINE
8
Layer 1
10
408.901319
20
579.856405
11
409.112097
21
579.540106
0
LINE
8
Layer 1
10
409.112097
20
579.540106
11
409.425399
21
579.324900
0
LINE
8
Layer 1
10
409.425399
20
579.324900
11
409.810130
21
579.242320
0
LINE
8
Layer 1
10
409.810130
20
579.242320
11
409.810600
21
579.242320
0
LINE
8
Layer 1
10
395.888500
20
595.468720
11
395.910200
21
595.468720
0
LINE
8
Layer 1
10
395.910200
20
595.468720
11
396.688623
21
595.625912
0
LINE
8
Layer 1
10
396.688623
20
595.625912
11
397.324294
21
596.054506
0
LINE
8
Layer 1
10
397.324294
20
596.054506
11
397.752888
21
596.690177
0
LINE
8
Layer 1
10
397.752888
20
596.690177
11
397.910080
21
597.468600
0
LINE
8
Layer 1
10
397.910080
20
597.468600
11
397.752888
21
598.247023
0
LINE
8
Layer 1
10
397.752888
20
598.247023
11
397.324294
21
598.882694
0
LINE
8
Layer 1
10
397.324294
20
598.882694
11
396.688623
21
599.311288
0
LINE
8
Layer 1
10
396.688623
20
599.311288
11
395.910200
21
599.468480
0
LINE
8
Layer 1
10
395.910200
20
599.468480
11
395.131777
21
599.311288
0
LINE
8
Layer 1
10
395.131777
20
599.311288
11
394.496106
21
598.882694
0
LINE
8
Layer 1
10
394.496106
20
598.882694
11
394.067512
21
598.247023
0
LINE
8
Layer 1
10
394.067512
20
598.247023
11
393.910320
21
597.468600
0
LINE
8
Layer 1
10
393.910320
20
597.468600
11
394.065288
21
596.695399
0
LINE
8
Layer 1
10
394.065288
20
596.695399
11
394.488417
21
596.062119
0
LINE
8
Layer 1
10
394.488417
20
596.062119
11
395.117045
21
595.632110
0
LINE
8
Layer 1
10
395.117045
20
595.632110
11
395.888510
21
595.468720
0
LINE
8
Layer 1
10
395.888510
20
595.468720
11
395.888500
21
595.468720
0
LINE
8
Layer 1
10
233.691500
20
687.254320
11
233.692500
21
687.254320
0
LINE
8
Layer 1
10
233.692500
20
687.254320
11
233.705400
21
687.254320
0
LINE
8
Layer 1
10
233.705400
20
687.254320
11
234.094611
21
687.332916
0
LINE
8
Layer 1
10
234.094611
20
687.332916
11
234.412447
21
687.547213
0
LINE
8
Layer 1
10
234.412447
20
687.547213
11
234.626744
21
687.865049
0
LINE
8
Layer 1
10
234.626744
20
687.865049
11
234.705340
21
688.254260
0
LINE
8
Layer 1
10
234.705340
20
688.254260
11
234.629360
21
688.637074
0
LINE
8
Layer 1
10
234.629360
20
688.637074
11
234.412634
21
688.961649
0
LINE
8
Layer 1
10
234.412634
20
688.961649
11
234.088174
21
689.178547
0
LINE
8
Layer 1
10
234.088174
20
689.178547
11
233.705400
21
689.254730
0
LINE
8
Layer 1
10
233.705400
20
689.254730
11
233.322626
21
689.178547
0
LINE
8
Layer 1
10
233.322626
20
689.178547
11
232.998166
21
688.961649
0
LINE
8
Layer 1
10
232.998166
20
688.961649
11
232.781440
21
688.637074
0
LINE
8
Layer 1
10
232.781440
20
688.637074
11
232.705460
21
688.254260
0
LINE
8
Layer 1
10
232.705460
20
688.254260
11
232.782621
21
687.868400
0
LINE
8
Layer 1
10
232.782621
20
687.868400
11
232.993404
21
687.552099
0
LINE
8
Layer 1
10
232.993404
20
687.552099
11
233.306712
21
687.336894
0
LINE
8
Layer 1
10
233.306712
20
687.336894
11
233.691450
21
687.254320
0
LINE
8
Layer 1
10
233.691450
20
687.254320
11
233.691500
21
687.254320
0
LINE
8
Layer 1
10
321.751200
20
687.254320
11
321.751200
21
687.254320
0
LINE
8
Layer 1
10
321.751200
20
687.254320
11
321.764700
21
687.254320
0
LINE
8
Layer 1
10
321.764700
20
687.254320
11
322.153911
21
687.332916
0
LINE
8
Layer 1
10
322.153911
20
687.332916
11
322.471747
21
687.547213
0
LINE
8
Layer 1
10
322.471747
20
687.547213
11
322.686044
21
687.865049
0
LINE
8
Layer 1
10
322.686044
20
687.865049
11
322.764640
21
688.254260
0
LINE
8
Layer 1
10
322.764640
20
688.254260
11
322.688660
21
688.637074
0
LINE
8
Layer 1
10
322.688660
20
688.637074
11
322.471934
21
688.961649
0
LINE
8
Layer 1
10
322.471934
20
688.961649
11
322.147474
21
689.178547
0
LINE
8
Layer 1
10
322.147474
20
689.178547
11
321.764700
21
689.254730
0
LINE
8
Layer 1
10
321.764700
20
689.254730
11
321.381926
21
689.178547
0
LINE
8
Layer 1
10
321.381926
20
689.178547
11
321.057466
21
688.961649
0
LINE
8
Layer 1
10
321.057466
20
688.961649
11
320.840740
21
688.637074
0
LINE
8
Layer 1
10
320.840740
20
688.637074
11
320.764760
21
688.254260
0
LINE
8
Layer 1
10
320.764760
20
688.254260
11
320.841919
21
687.868405
0
LINE
8
Layer 1
10
320.841919
20
687.868405
11
321.052697
21
687.552106
0
LINE
8
Layer 1
10
321.052697
20
687.552106
11
321.365999
21
687.336900
0
LINE
8
Layer 1
10
321.365999
20
687.336900
11
321.750730
21
687.254320
0
LINE
8
Layer 1
10
321.750730
20
687.254320
11
321.751200
21
687.254320
0
LINE
8
Layer 1
10
409.810900
20
687.254320
11
409.810900
21
687.254320
0
LINE
8
Layer 1
10
409.810900
20
687.254320
11
409.824400
21
687.254320
0
LINE
8
Layer 1
10
409.824400
20
687.254320
11
410.207205
21
687.330308
0
LINE
8
Layer 1
10
410.207205
20
687.330308
11
410.531770
21
687.547036
0
LINE
8
Layer 1
10
410.531770
20
687.547036
11
410.748660
21
687.871493
0
LINE
8
Layer 1
10
410.748660
20
687.871493
11
410.824840
21
688.254260
0
LINE
8
Layer 1
10
410.824840
20
688.254260
11
410.748812
21
688.637189
0
LINE
8
Layer 1
10
410.748812
20
688.637189
11
410.531957
21
688.961826
0
LINE
8
Layer 1
10
410.531957
20
688.961826
11
410.207327
21
689.178691
0
LINE
8
Layer 1
10
410.207327
20
689.178691
11
409.824400
21
689.254730
0
LINE
8
Layer 1
10
409.824400
20
689.254730
11
409.441626
21
689.178547
0
LINE
8
Layer 1
10
409.441626
20
689.178547
11
409.117166
21
688.961649
0
LINE
8
Layer 1
10
409.117166
20
688.961649
11
408.900440
21
688.637074
0
LINE
8
Layer 1
10
408.900440
20
688.637074
11
408.824460
21
688.254260
0
LINE
8
Layer 1
10
408.824460
20
688.254260
11
408.901619
21
687.868405
0
LINE
8
Layer 1
10
408.901619
20
687.868405
11
409.112397
21
687.552106
0
LINE
8
Layer 1
10
409.112397
20
687.552106
11
409.425699
21
687.336900
0
LINE
8
Layer 1
10
409.425699
20
687.336900
11
409.810430
21
687.254320
0
LINE
8
Layer 1
10
409.810430
20
687.254320
11
409.810900
21
687.254320
0
LINE
8
Layer 1
10
245.691000
20
677.254000
11
245.538759
21
678.019367
0
LINE
8
Layer 1
10
245.538759
20
678.019367
11
245.105214
21
678.668214
0
LINE
8
Layer 1
10
245.105214
20
678.668214
11
244.456367
21
679.101759
0
LINE
8
Layer 1
10
244.456367
20
679.101759
11
243.691000
21
679.254000
0
LINE
8
Layer 1
10
243.691000
20
679.254000
11
242.925633
21
679.101759
0
LINE
8
Layer 1
10
242.925633
20
679.101759
11
242.276786
21
678.668214
0
LINE
8
Layer 1
10
242.276786
20
678.668214
11
241.843241
21
678.019367
0
LINE
8
Layer 1
10
241.843241
20
678.019367
11
241.691000
21
677.254000
0
LINE
8
Layer 1
10
241.691000
20
677.254000
11
241.843241
21
676.488633
0
LINE
8
Layer 1
10
241.843241
20
676.488633
11
242.276786
21
675.839786
0
LINE
8
Layer 1
10
242.276786
20
675.839786
11
242.925633
21
675.406241
0
LINE
8
Layer 1
10
242.925633
20
675.406241
11
243.691000
21
675.254000
0
LINE
8
Layer 1
10
243.691000
20
675.254000
11
244.456367
21
675.406241
0
LINE
8
Layer 1
10
244.456367
20
675.406241
11
245.105214
21
675.839786
0
LINE
8
Layer 1
10
245.105214
20
675.839786
11
245.538759
21
676.488633
0
LINE
8
Layer 1
10
245.538759
20
676.488633
11
245.691000
21
677.254000
0
LINE
8
Layer 1
10
250.191000
20
677.254000
11
250.064950
21
678.528009
0
LINE
8
Layer 1
10
250.064950
20
678.528009
11
249.696217
21
679.741442
0
LINE
8
Layer 1
10
249.696217
20
679.741442
11
249.098924
21
680.860203
0
LINE
8
Layer 1
10
249.098924
20
680.860203
11
248.287194
21
681.850194
0
LINE
8
Layer 1
10
248.287194
20
681.850194
11
247.297203
21
682.661924
0
LINE
8
Layer 1
10
247.297203
20
682.661924
11
246.178442
21
683.259217
0
LINE
8
Layer 1
10
246.178442
20
683.259217
11
244.965009
21
683.627950
0
LINE
8
Layer 1
10
244.965009
20
683.627950
11
243.691000
21
683.754000
0
LINE
8
Layer 1
10
243.691000
20
683.754000
11
242.416991
21
683.627950
0
LINE
8
Layer 1
10
242.416991
20
683.627950
11
241.203558
21
683.259217
0
LINE
8
Layer 1
10
241.203558
20
683.259217
11
240.084797
21
682.661924
0
LINE
8
Layer 1
10
240.084797
20
682.661924
11
239.094806
21
681.850194
0
LINE
8
Layer 1
10
239.094806
20
681.850194
11
238.283076
21
680.860203
0
LINE
8
Layer 1
10
238.283076
20
680.860203
11
237.685783
21
679.741442
0
LINE
8
Layer 1
10
237.685783
20
679.741442
11
237.317050
21
678.528009
0
LINE
8
Layer 1
10
237.317050
20
678.528009
11
237.191000
21
677.254000
0
LINE
8
Layer 1
10
237.191000
20
677.254000
11
237.317050
21
675.979991
0
LINE
8
Layer 1
10
237.317050
20
675.979991
11
237.685783
21
674.766558
0
LINE
8
Layer 1
10
237.685783
20
674.766558
11
238.283076
21
673.647797
0
LINE
8
Layer 1
10
238.283076
20
673.647797
11
239.094806
21
672.657806
0
LINE
8
Layer 1
10
239.094806
20
672.657806
11
240.084797
21
671.846076
0
LINE
8
Layer 1
10
240.084797
20
671.846076
11
241.203558
21
671.248783
0
LINE
8
Layer 1
10
241.203558
20
671.248783
11
242.416991
21
670.880050
0
LINE
8
Layer 1
10
242.416991
20
670.880050
11
243.691000
21
670.754000
0
LINE
8
Layer 1
10
243.691000
20
670.754000
11
244.965009
21
670.880050
0
LINE
8
Layer 1
10
244.965009
20
670.880050
11
246.178442
21
671.248783
0
LINE
8
Layer 1
10
246.178442
20
671.248783
11
247.297203
21
671.846076
0
LINE
8
Layer 1
10
247.297203
20
671.846076
11
248.287194
21
672.657806
0
LINE
8
Layer 1
10
248.287194
20
672.657806
11
249.098924
21
673.647797
0
LINE
8
Layer 1
10
249.098924
20
673.647797
11
249.696217
21
674.766558
0
LINE
8
Layer 1
10
249.696217
20
674.766558
11
250.064950
21
675.979991
0
LINE
8
Layer 1
10
250.064950
20
675.979991
11
250.191000
21
677.254000
0
LINE
8
Layer 1
10
76.994200
20
576.241000
11
76.719281
21
576.252400
0
LINE
8
Layer 1
10
76.719281
20
576.252400
11
76.446430
21
576.285500
0
LINE
8
Layer 1
10
76.446430
20
576.285500
11
76.176678
21
576.338700
0
LINE
8
Layer 1
10
76.176678
20
576.338700
11
75.912612
21
576.413100
0
LINE
8
Layer 1
10
75.912612
20
576.413100
11
75.654230
21
576.508200
0
LINE
8
Layer 1
10
75.654230
20
576.508200
11
75.405666
21
576.622920
0
LINE
8
Layer 1
10
75.405666
20
576.622920
11
75.165371
21
576.757280
0
LINE
8
Layer 1
10
75.165371
20
576.757280
11
74.936444
21
576.910260
0
LINE
8
Layer 1
10
74.936444
20
576.910260
11
74.720437
21
577.080280
0
LINE
8
Layer 1
10
74.720437
20
577.080280
11
74.519415
21
577.266810
0
LINE
8
Layer 1
10
74.519415
20
577.266810
11
74.332347
21
577.467840
0
LINE
8
Layer 1
10
74.332347
20
577.467840
11
74.162331
21
577.684380
0
LINE
8
Layer 1
10
74.162331
20
577.684380
11
74.009369
21
577.913300
0
LINE
8
Layer 1
10
74.009369
20
577.913300
11
73.875527
21
578.153060
0
LINE
8
Layer 1
10
73.875527
20
578.153060
11
73.760289
21
578.402140
0
LINE
8
Layer 1
10
73.760289
20
578.402140
11
73.665199
21
578.660030
0
LINE
8
Layer 1
10
73.665199
20
578.660030
11
73.590269
21
578.924080
0
LINE
8
Layer 1
10
73.590269
20
578.924080
11
73.537559
21
579.193830
0
LINE
8
Layer 1
10
73.537559
20
579.193830
11
73.504489
21
579.467200
0
LINE
8
Layer 1
10
73.504489
20
579.467200
11
73.494689
21
579.742650
0
LINE
8
Layer 1
10
73.494689
20
579.742650
11
73.493689
21
688.754650
0
LINE
8
Layer 1
10
73.493689
20
688.754650
11
73.504539
21
689.029550
0
LINE
8
Layer 1
10
73.504539
20
689.029550
11
73.537609
21
689.302420
0
LINE
8
Layer 1
10
73.537609
20
689.302420
11
73.590319
21
689.571660
0
LINE
8
Layer 1
10
73.590319
20
689.571660
11
73.665249
21
689.836750
0
LINE
8
Layer 1
10
73.665249
20
689.836750
11
73.760329
21
690.093580
0
LINE
8
Layer 1
10
73.760329
20
690.093580
11
73.875568
21
690.343690
0
LINE
8
Layer 1
10
73.875568
20
690.343690
11
74.009410
21
690.583480
0
LINE
8
Layer 1
10
74.009410
20
690.583480
11
74.162372
21
690.811360
0
LINE
8
Layer 1
10
74.162372
20
690.811360
11
74.332387
21
691.027370
0
LINE
8
Layer 1
10
74.332387
20
691.027370
11
74.519456
21
691.229430
0
LINE
8
Layer 1
10
74.519456
20
691.229430
11
74.720477
21
691.415460
0
LINE
8
Layer 1
10
74.720477
20
691.415460
11
74.936485
21
691.586510
0
LINE
8
Layer 1
10
74.936485
20
691.586510
11
75.165411
21
691.738440
0
LINE
8
Layer 1
10
75.165411
20
691.738440
11
75.405707
21
691.873830
0
LINE
8
Layer 1
10
75.405707
20
691.873830
11
75.654270
21
691.988550
0
LINE
8
Layer 1
10
75.654270
20
691.988550
11
75.912652
21
692.084150
0
LINE
8
Layer 1
10
75.912652
20
692.084150
11
76.176719
21
692.158050
0
LINE
8
Layer 1
10
76.176719
20
692.158050
11
76.446470
21
692.211750
0
LINE
8
Layer 1
10
76.446470
20
692.211750
11
76.719322
21
692.243750
0
LINE
8
Layer 1
10
76.719322
20
692.243750
11
76.994240
21
692.254650
0
LINE
8
Layer 1
10
76.994240
20
692.254650
11
255.960000
21
692.254650
0
LINE
8
Layer 1
10
255.960000
20
692.254650
11
256.640342
21
692.116291
0
LINE
8
Layer 1
10
256.640342
20
692.116291
11
257.195716
21
691.740999
0
LINE
8
Layer 1
10
257.195716
20
691.740999
11
257.570029
21
691.184965
0
LINE
8
Layer 1
10
257.570029
20
691.184965
11
257.707190
21
690.504380
0
LINE
8
Layer 1
10
257.707190
20
690.504380
11
257.707190
21
679.491580
0
LINE
8
Layer 1
10
257.707190
20
679.491580
11
257.707190
21
660.442580
0
LINE
8
Layer 1
10
257.707190
20
660.442580
11
260.722500
21
660.442580
0
LINE
8
Layer 1
10
260.722500
20
660.442580
11
261.402842
21
660.304221
0
LINE
8
Layer 1
10
261.402842
20
660.304221
11
261.958216
21
659.928929
0
LINE
8
Layer 1
10
261.958216
20
659.928929
11
262.332529
21
659.372895
0
LINE
8
Layer 1
10
262.332529
20
659.372895
11
262.469690
21
658.692310
0
LINE
8
Layer 1
10
262.469690
20
658.692310
11
262.469690
21
643.139000
0
LINE
8
Layer 1
10
262.469690
20
643.139000
11
262.331326
21
642.458656
0
LINE
8
Layer 1
10
262.331326
20
642.458656
11
261.956028
21
641.903283
0
LINE
8
Layer 1
10
261.956028
20
641.903283
11
261.399989
21
641.528974
0
LINE
8
Layer 1
10
261.399989
20
641.528974
11
260.719400
21
641.391820
0
LINE
8
Layer 1
10
260.719400
20
641.391820
11
252.945000
21
641.391820
0
LINE
8
Layer 1
10
252.945000
20
641.391820
11
252.945000
21
624.088000
0
LINE
8
Layer 1
10
252.945000
20
624.088000
11
252.806636
21
623.407656
0
LINE
8
Layer 1
10
252.806636
20
623.407656
11
252.431338
21
622.852283
0
LINE
8
Layer 1
10
252.431338
20
622.852283
11
251.875299
21
622.477974
0
LINE
8
Layer 1
10
251.875299
20
622.477974
11
251.194710
21
622.340820
0
LINE
8
Layer 1
10
251.194710
20
622.340820
11
248.182500
21
622.340820
0
LINE
8
Layer 1
10
248.182500
20
622.340820
11
248.182500
21
603.292920
0
LINE
8
Layer 1
10
248.182500
20
603.292920
11
251.924900
21
603.292920
0
LINE
8
Layer 1
10
251.924900
20
603.292920
11
255.960310
21
603.292920
0
LINE
8
Layer 1
10
255.960310
20
603.292920
11
256.640655
21
603.154560
0
LINE
8
Layer 1
10
256.640655
20
603.154560
11
257.196030
21
602.779265
0
LINE
8
Layer 1
10
257.196030
20
602.779265
11
257.570342
21
602.223228
0
LINE
8
Layer 1
10
257.570342
20
602.223228
11
257.707500
21
601.542640
0
LINE
8
Layer 1
10
257.707500
20
601.542640
11
257.707500
21
584.239840
0
LINE
8
Layer 1
10
257.707500
20
584.239840
11
257.707500
21
577.989060
0
LINE
8
Layer 1
10
257.707500
20
577.989060
11
257.569136
21
577.308716
0
LINE
8
Layer 1
10
257.569136
20
577.308716
11
257.193838
21
576.753343
0
LINE
8
Layer 1
10
257.193838
20
576.753343
11
256.637799
21
576.379034
0
LINE
8
Layer 1
10
256.637799
20
576.379034
11
255.957210
21
576.241880
0
LINE
8
Layer 1
10
255.957210
20
576.241880
11
76.994200
21
576.241000
0
LINE
8
Layer 1
10
77.572459
20
579.238760
11
77.572988
21
579.238760
0
LINE
8
Layer 1
10
77.572988
20
579.238760
11
77.586938
21
579.238760
0
LINE
8
Layer 1
10
77.586938
20
579.238760
11
77.969864
21
579.314790
0
LINE
8
Layer 1
10
77.969864
20
579.314790
11
78.294498
21
579.531646
0
LINE
8
Layer 1
10
78.294498
20
579.531646
11
78.511360
21
579.856275
0
LINE
8
Layer 1
10
78.511360
20
579.856275
11
78.587398
21
580.239200
0
LINE
8
Layer 1
10
78.587398
20
580.239200
11
78.511216
21
580.621971
0
LINE
8
Layer 1
10
78.511216
20
580.621971
11
78.294321
21
580.946431
0
LINE
8
Layer 1
10
78.294321
20
580.946431
11
77.969749
21
581.163157
0
LINE
8
Layer 1
10
77.969749
20
581.163157
11
77.586938
21
581.239140
0
LINE
8
Layer 1
10
77.586938
20
581.239140
11
77.197727
21
581.160544
0
LINE
8
Layer 1
10
77.197727
20
581.160544
11
76.879892
21
580.946246
0
LINE
8
Layer 1
10
76.879892
20
580.946246
11
76.665595
21
580.628411
0
LINE
8
Layer 1
10
76.665595
20
580.628411
11
76.586999
21
580.239200
0
LINE
8
Layer 1
10
76.586999
20
580.239200
11
76.663963
21
579.853304
0
LINE
8
Layer 1
10
76.663963
20
579.853304
11
76.874582
21
579.536898
0
LINE
8
Layer 1
10
76.874582
20
579.536898
11
77.187777
21
579.321533
0
LINE
8
Layer 1
10
77.187777
20
579.321533
11
77.572468
21
579.238760
0
LINE
8
Layer 1
10
77.572468
20
579.238760
11
77.572459
21
579.238760
0
LINE
8
Layer 1
10
127.475859
20
579.238760
11
127.476389
21
579.238760
0
LINE
8
Layer 1
10
127.476389
20
579.238760
11
127.489789
21
579.238760
0
LINE
8
Layer 1
10
127.489789
20
579.238760
11
127.872600
21
579.314743
0
LINE
8
Layer 1
10
127.872600
20
579.314743
11
128.197172
21
579.531469
0
LINE
8
Layer 1
10
128.197172
20
579.531469
11
128.414067
21
579.855929
0
LINE
8
Layer 1
10
128.414067
20
579.855929
11
128.490249
21
580.238700
0
LINE
8
Layer 1
10
128.490249
20
580.238700
11
128.414211
21
580.621625
0
LINE
8
Layer 1
10
128.414211
20
580.621625
11
128.197349
21
580.946254
0
LINE
8
Layer 1
10
128.197349
20
580.946254
11
127.872715
21
581.163110
0
LINE
8
Layer 1
10
127.872715
20
581.163110
11
127.489789
21
581.239140
0
LINE
8
Layer 1
10
127.489789
20
581.239140
11
127.107022
21
581.162960
0
LINE
8
Layer 1
10
127.107022
20
581.162960
11
126.782565
21
580.946070
0
LINE
8
Layer 1
10
126.782565
20
580.946070
11
126.565837
21
580.621505
0
LINE
8
Layer 1
10
126.565837
20
580.621505
11
126.489849
21
580.238700
0
LINE
8
Layer 1
10
126.489849
20
580.238700
11
126.567010
21
579.852840
0
LINE
8
Layer 1
10
126.567010
20
579.852840
11
126.777793
21
579.536539
0
LINE
8
Layer 1
10
126.777793
20
579.536539
11
127.091101
21
579.321334
0
LINE
8
Layer 1
10
127.091101
20
579.321334
11
127.475839
21
579.238760
0
LINE
8
Layer 1
10
127.475839
20
579.238760
11
127.475859
21
579.238760
0
LINE
8
Layer 1
10
149.492559
20
579.238760
11
149.493089
21
579.238760
0
LINE
8
Layer 1
10
149.493089
20
579.238760
11
149.506989
21
579.238760
0
LINE
8
Layer 1
10
149.506989
20
579.238760
11
149.889753
21
579.314943
0
LINE
8
Layer 1
10
149.889753
20
579.314943
11
150.214206
21
579.531834
0
LINE
8
Layer 1
10
150.214206
20
579.531834
11
150.430932
21
579.856398
0
LINE
8
Layer 1
10
150.430932
20
579.856398
11
150.506919
21
580.239200
0
LINE
8
Layer 1
10
150.506919
20
580.239200
11
150.428324
21
580.628409
0
LINE
8
Layer 1
10
150.428324
20
580.628409
11
150.214029
21
580.946243
0
LINE
8
Layer 1
10
150.214029
20
580.946243
11
149.896197
21
581.160541
0
LINE
8
Layer 1
10
149.896197
20
581.160541
11
149.506989
21
581.239140
0
LINE
8
Layer 1
10
149.506989
20
581.239140
11
149.117778
21
581.160544
0
LINE
8
Layer 1
10
149.117778
20
581.160544
11
148.799942
21
580.946247
0
LINE
8
Layer 1
10
148.799942
20
580.946247
11
148.585645
21
580.628411
0
LINE
8
Layer 1
10
148.585645
20
580.628411
11
148.507049
21
580.239200
0
LINE
8
Layer 1
10
148.507049
20
580.239200
11
148.584013
21
579.853304
0
LINE
8
Layer 1
10
148.584013
20
579.853304
11
148.794632
21
579.536898
0
LINE
8
Layer 1
10
148.794632
20
579.536898
11
149.107827
21
579.321533
0
LINE
8
Layer 1
10
149.107827
20
579.321533
11
149.492519
21
579.238760
0
LINE
8
Layer 1
10
149.492519
20
579.238760
11
149.492559
21
579.238760
0
LINE
8
Layer 1
10
229.692359
20
579.238760
11
229.692889
21
579.238760
0
LINE
8
Layer 1
10
229.692889
20
579.238760
11
229.707389
21
579.238760
0
LINE
8
Layer 1
10
229.707389
20
579.238760
11
230.090156
21
579.314940
0
LINE
8
Layer 1
10
230.090156
20
579.314940
11
230.414613
21
579.531830
0
LINE
8
Layer 1
10
230.414613
20
579.531830
11
230.631341
21
579.856395
0
LINE
8
Layer 1
10
230.631341
20
579.856395
11
230.707329
21
580.239200
0
LINE
8
Layer 1
10
230.707329
20
580.239200
11
230.628733
21
580.628411
0
LINE
8
Layer 1
10
230.628733
20
580.628411
11
230.414436
21
580.946247
0
LINE
8
Layer 1
10
230.414436
20
580.946247
11
230.096600
21
581.160544
0
LINE
8
Layer 1
10
230.096600
20
581.160544
11
229.707389
21
581.239140
0
LINE
8
Layer 1
10
229.707389
20
581.239140
11
229.324581
21
581.163154
0
LINE
8
Layer 1
10
229.324581
20
581.163154
11
229.000013
21
580.946427
0
LINE
8
Layer 1
10
229.000013
20
580.946427
11
228.783120
21
580.621969
0
LINE
8
Layer 1
10
228.783120
20
580.621969
11
228.706939
21
580.239200
0
LINE
8
Layer 1
10
228.706939
20
580.239200
11
228.783903
21
579.853304
0
LINE
8
Layer 1
10
228.783903
20
579.853304
11
228.994522
21
579.536898
0
LINE
8
Layer 1
10
228.994522
20
579.536898
11
229.307717
21
579.321533
0
LINE
8
Layer 1
10
229.307717
20
579.321533
11
229.692409
21
579.238760
0
LINE
8
Layer 1
10
229.692409
20
579.238760
11
229.692359
21
579.238760
0
LINE
8
Layer 1
10
253.691459
20
579.238760
11
253.691989
21
579.238760
0
LINE
8
Layer 1
10
253.691989
20
579.238760
11
253.706489
21
579.238760
0
LINE
8
Layer 1
10
253.706489
20
579.238760
11
254.089256
21
579.314940
0
LINE
8
Layer 1
10
254.089256
20
579.314940
11
254.413713
21
579.531830
0
LINE
8
Layer 1
10
254.413713
20
579.531830
11
254.630441
21
579.856395
0
LINE
8
Layer 1
10
254.630441
20
579.856395
11
254.706429
21
580.239200
0
LINE
8
Layer 1
10
254.706429
20
580.239200
11
254.627833
21
580.628411
0
LINE
8
Layer 1
10
254.627833
20
580.628411
11
254.413536
21
580.946247
0
LINE
8
Layer 1
10
254.413536
20
580.946247
11
254.095700
21
581.160544
0
LINE
8
Layer 1
10
254.095700
20
581.160544
11
253.706489
21
581.239140
0
LINE
8
Layer 1
10
253.706489
20
581.239140
11
253.323681
21
581.163154
0
LINE
8
Layer 1
10
253.323681
20
581.163154
11
252.999113
21
580.946427
0
LINE
8
Layer 1
10
252.999113
20
580.946427
11
252.782220
21
580.621969
0
LINE
8
Layer 1
10
252.782220
20
580.621969
11
252.706039
21
580.239200
0
LINE
8
Layer 1
10
252.706039
20
580.239200
11
252.783003
21
579.853304
0
LINE
8
Layer 1
10
252.783003
20
579.853304
11
252.993622
21
579.536898
0
LINE
8
Layer 1
10
252.993622
20
579.536898
11
253.306817
21
579.321533
0
LINE
8
Layer 1
10
253.306817
20
579.321533
11
253.691509
21
579.238760
0
LINE
8
Layer 1
10
253.691509
20
579.238760
11
253.691459
21
579.238760
0
LINE
8
Layer 1
10
91.504400
20
595.467000
11
92.282823
21
595.624192
0
LINE
8
Layer 1
10
92.282823
20
595.624192
11
92.918494
21
596.052786
0
LINE
8
Layer 1
10
92.918494
20
596.052786
11
93.347088
21
596.688457
0
LINE
8
Layer 1
10
93.347088
20
596.688457
11
93.504280
21
597.466880
0
LINE
8
Layer 1
10
93.504280
20
597.466880
11
93.347088
21
598.245303
0
LINE
8
Layer 1
10
93.347088
20
598.245303
11
92.918494
21
598.880974
0
LINE
8
Layer 1
10
92.918494
20
598.880974
11
92.282823
21
599.309568
0
LINE
8
Layer 1
10
92.282823
20
599.309568
11
91.504400
21
599.466760
0
LINE
8
Layer 1
10
91.504400
20
599.466760
11
90.725977
21
599.309568
0
LINE
8
Layer 1
10
90.725977
20
599.309568
11
90.090306
21
598.880974
0
LINE
8
Layer 1
10
90.090306
20
598.880974
11
89.661712
21
598.245303
0
LINE
8
Layer 1
10
89.661712
20
598.245303
11
89.504520
21
597.466880
0
LINE
8
Layer 1
10
89.504520
20
597.466880
11
89.661712
21
596.688457
0
LINE
8
Layer 1
10
89.661712
20
596.688457
11
90.090306
21
596.052786
0
LINE
8
Layer 1
10
90.090306
20
596.052786
11
90.725977
21
595.624192
0
LINE
8
Layer 1
10
90.725977
20
595.624192
11
91.504400
21
595.467000
0
LINE
8
Layer 1
10
91.504400
20
595.467000
11
91.504400
21
595.467000
0
LINE
8
Layer 1
10
77.572400
20
687.253100
11
77.572929
21
687.253100
0
LINE
8
Layer 1
10
77.572929
20
687.253100
11
77.586879
21
687.253100
0
LINE
8
Layer 1
10
77.586879
20
687.253100
11
77.969808
21
687.329131
0
LINE
8
Layer 1
10
77.969808
20
687.329131
11
78.294442
21
687.545990
0
LINE
8
Layer 1
10
78.294442
20
687.545990
11
78.511304
21
687.870622
0
LINE
8
Layer 1
10
78.511304
20
687.870622
11
78.587339
21
688.253550
0
LINE
8
Layer 1
10
78.587339
20
688.253550
11
78.511157
21
688.636321
0
LINE
8
Layer 1
10
78.511157
20
688.636321
11
78.294262
21
688.960781
0
LINE
8
Layer 1
10
78.294262
20
688.960781
11
77.969690
21
689.177507
0
LINE
8
Layer 1
10
77.969690
20
689.177507
11
77.586879
21
689.253490
0
LINE
8
Layer 1
10
77.586879
20
689.253490
11
77.197668
21
689.174894
0
LINE
8
Layer 1
10
77.197668
20
689.174894
11
76.879833
21
688.960596
0
LINE
8
Layer 1
10
76.879833
20
688.960596
11
76.665536
21
688.642761
0
LINE
8
Layer 1
10
76.665536
20
688.642761
11
76.586940
21
688.253550
0
LINE
8
Layer 1
10
76.586940
20
688.253550
11
76.663901
21
687.867651
0
LINE
8
Layer 1
10
76.663901
20
687.867651
11
76.874519
21
687.551242
0
LINE
8
Layer 1
10
76.874519
20
687.551242
11
77.187715
21
687.335874
0
LINE
8
Layer 1
10
77.187715
20
687.335874
11
77.572409
21
687.253100
0
LINE
8
Layer 1
10
77.572409
20
687.253100
11
77.572400
21
687.253100
0
LINE
8
Layer 1
10
165.632700
20
687.253100
11
165.633230
21
687.253100
0
LINE
8
Layer 1
10
165.633230
20
687.253100
11
165.647130
21
687.253100
0
LINE
8
Layer 1
10
165.647130
20
687.253100
11
166.029899
21
687.329281
0
LINE
8
Layer 1
10
166.029899
20
687.329281
11
166.354357
21
687.546174
0
LINE
8
Layer 1
10
166.354357
20
687.546174
11
166.571084
21
687.870742
0
LINE
8
Layer 1
10
166.571084
20
687.870742
11
166.647070
21
688.253550
0
LINE
8
Layer 1
10
166.647070
20
688.253550
11
166.568474
21
688.642761
0
LINE
8
Layer 1
10
166.568474
20
688.642761
11
166.354177
21
688.960597
0
LINE
8
Layer 1
10
166.354177
20
688.960597
11
166.036341
21
689.174894
0
LINE
8
Layer 1
10
166.036341
20
689.174894
11
165.647130
21
689.253490
0
LINE
8
Layer 1
10
165.647130
20
689.253490
11
165.257919
21
689.174894
0
LINE
8
Layer 1
10
165.257919
20
689.174894
11
164.940083
21
688.960597
0
LINE
8
Layer 1
10
164.940083
20
688.960597
11
164.725786
21
688.642761
0
LINE
8
Layer 1
10
164.725786
20
688.642761
11
164.647190
21
688.253550
0
LINE
8
Layer 1
10
164.647190
20
688.253550
11
164.724151
21
687.867651
0
LINE
8
Layer 1
10
164.724151
20
687.867651
11
164.934770
21
687.551241
0
LINE
8
Layer 1
10
164.934770
20
687.551241
11
165.247966
21
687.335874
0
LINE
8
Layer 1
10
165.247966
20
687.335874
11
165.632660
21
687.253100
0
LINE
8
Layer 1
10
165.632660
20
687.253100
11
165.632700
21
687.253100
0
LINE
8
Layer 1
10
253.691400
20
687.253100
11
253.691930
21
687.253100
0
LINE
8
Layer 1
10
253.691930
20
687.253100
11
253.706430
21
687.253100
0
LINE
8
Layer 1
10
253.706430
20
687.253100
11
254.089199
21
687.329281
0
LINE
8
Layer 1
10
254.089199
20
687.329281
11
254.413657
21
687.546174
0
LINE
8
Layer 1
10
254.413657
20
687.546174
11
254.630384
21
687.870742
0
LINE
8
Layer 1
10
254.630384
20
687.870742
11
254.706370
21
688.253550
0
LINE
8
Layer 1
10
254.706370
20
688.253550
11
254.627774
21
688.642761
0
LINE
8
Layer 1
10
254.627774
20
688.642761
11
254.413477
21
688.960597
0
LINE
8
Layer 1
10
254.413477
20
688.960597
11
254.095641
21
689.174894
0
LINE
8
Layer 1
10
254.095641
20
689.174894
11
253.706430
21
689.253490
0
LINE
8
Layer 1
10
253.706430
20
689.253490
11
253.323622
21
689.177504
0
LINE
8
Layer 1
10
253.323622
20
689.177504
11
252.999054
21
688.960777
0
LINE
8
Layer 1
10
252.999054
20
688.960777
11
252.782161
21
688.636319
0
LINE
8
Layer 1
10
252.782161
20
688.636319
11
252.705980
21
688.253550
0
LINE
8
Layer 1
10
252.705980
20
688.253550
11
252.782941
21
687.867651
0
LINE
8
Layer 1
10
252.782941
20
687.867651
11
252.993560
21
687.551241
0
LINE
8
Layer 1
10
252.993560
20
687.551241
11
253.306756
21
687.335874
0
LINE
8
Layer 1
10
253.306756
20
687.335874
11
253.691450
21
687.253100
0
LINE
8
Layer 1
10
253.691450
20
687.253100
11
253.691400
21
687.253100
 0 
ENDSEC
 0 
EOF