<?xml version="1.0" encoding="UTF-8" standalone="no"?>
<svg
   xmlns:dc="http://purl.org/dc/elements/1.1/"
   xmlns:cc="http://creativecommons.org/ns#"
   xmlns:rdf="http://www.w3.org/1999/02/22-rdf-syntax-ns#"
   xmlns:svg="http://www.w3.org/2000/svg"
   xmlns="http://www.w3.org/2000/svg"
   xmlns:sodipodi="http://sodipodi.sourceforge.net/DTD/sodipodi-0.dtd"
   xmlns:inkscape="http://www.inkscape.org/namespaces/inkscape"
   sodipodi:docname="QSplit65_Sandwich_Case.svg"
   inkscape:version="1.0 (4035a4f, 2020-05-01)"
   id="svg8"
   version="1.1"
   viewBox="0 0 398.80801 765.89502"
   height="765.89502mm"
   width="398.80801mm">
  <defs
     id="defs2" />
  <sodipodi:namedview
     inkscape:window-maximized="1"
     inkscape:window-y="23"
     inkscape:window-x="0"
     inkscape:window-height="807"
     inkscape:window-width="1600"
     inkscape:guide-bbox="true"
     showguides="false"
     showgrid="false"
     inkscape:document-rotation="0"
     inkscape:current-layer="layer1"
     inkscape:document-units="mm"
     inkscape:cy="2234.0918"
     inkscape:cx="704.51423"
     inkscape:zoom="0.55164706"
     inkscape:pageshadow="2"
     inkscape:pageopacity="0.0"
     borderopacity="1.0"
     bordercolor="#666666"
     pagecolor="#ffffff"
     id="base">
    <sodipodi:guide
       inkscape:color="rgb(0,0,255)"
       inkscape:locked="false"
       inkscape:label=""
       id="guide7225"
       orientation="-1,0"
       position="388.80799,803.37181" />
    <sodipodi:guide
       inkscape:color="rgb(0,0,255)"
       inkscape:locked="false"
       inkscape:label=""
       id="guide7466"
       orientation="-1,0"
       position="9.9999995,615.49827" />
    <sodipodi:guide
       inkscape:color="rgb(0,0,255)"
       inkscape:locked="false"
       inkscape:label=""
       id="guide7468"
       orientation="0,1"
       position="194.307,872.00248" />
    <sodipodi:guide
       id="guide7470"
       orientation="1,0"
       position="204.68899,251.17695" />
    <sodipodi:guide
       id="guide9445"
       orientation="1,0"
       position="194.307,864.00453" />
    <sodipodi:guide
       id="guide9505"
       orientation="0,-1"
       position="204.60424,619.59752" />
    <sodipodi:guide
       id="guide9605"
       orientation="0,-1"
       position="204.68899,367.19153" />
    <sodipodi:guide
       id="guide9951"
       orientation="0,-1"
       position="204.60328,377.19152" />
  </sodipodi:namedview>
  <metadata
     id="metadata5">
    <rdf:RDF>
      <cc:Work
         rdf:about="">
        <dc:format>image/svg+xml</dc:format>
        <dc:type
           rdf:resource="http://purl.org/dc/dcmitype/StillImage" />
        <dc:title></dc:title>
      </cc:Work>
    </rdf:RDF>
  </metadata>
  <g
     id="layer1"
     inkscape:groupmode="layer"
     inkscape:label="Layer 1">
    <path
       id="polygon1294"
       d="m 204.60268,641.10949 v 7.99899 6.04769 13.00334 h -9.525 v 19.05207 h 4.76302 v 19.05 h 9.52499 v 19.04793 h -4.76301 v 14.2503 4.80074 12.76252 0 h 180.7161 l 0.27493,-0.0114 0.27284,-0.032 0.26924,-0.0537 0.26508,-0.0739 0.25683,-0.0951 0.25011,-0.11522 0.2398,-0.13489 0.22788,-0.15192 0.21601,-0.17106 0.20206,-0.18602 0.18603,-0.20207 0.17105,-0.216 0.15192,-0.22789 0.13542,-0.23979 0.1147,-0.25011 0.0951,-0.25683 0.0739,-0.26509 0.0543,-0.26924 0.032,-0.27286 0.0109,-0.2749 V 644.61004 l -0.0109,-0.27493 -0.032,-0.27337 -0.0543,-0.26974 -0.0739,-0.26406 -0.0951,-0.25789 -0.1147,-0.24907 -0.13542,-0.2403 -0.15192,-0.22892 -0.17105,-0.216 -0.18603,-0.20103 -0.20206,-0.18706 -0.21601,-0.17002 -0.22788,-0.15296 -0.2398,-0.13385 -0.25011,-0.11473 -0.25683,-0.0951 -0.26508,-0.0749 -0.26924,-0.0532 -0.27284,-0.0331 -0.27493,-0.01 z"
       style="fill:#ffffff;stroke:#000000;stroke-width:0.0499999mm" />
    <g
       transform="translate(-53.536066,156.95049)"
       id="g2061">
      <path
         id="polygon1319"
         style="fill:#ffffff;stroke:#000000;stroke-width:0.188976mm"
         d="m 975.64844,-78.058594 v 30.232422 H 1551.6602 V 168.18555 h -72.004 v 72 h -71.996 v 71.99609 H 975.64844 v 48.23633 0.002 H 1658.666 l 1.0391,-0.041 1.0312,-0.1211 1.0176,-0.20508 1.002,-0.27929 0.9707,-0.35938 0.9453,-0.43359 0.9062,-0.50977 0.8614,-0.57617 0.8164,-0.64453 0.7636,-0.70312 0.7032,-0.76368 0.6464,-0.8164 0.5743,-0.86328 0.5097,-0.90625 0.4356,-0.94532 0.3593,-0.9707 0.2793,-1.00195 0.2051,-1.01563 0.1192,-1.0332 0.043,-1.03906 V -64.826172 l -0.043,-1.039062 -0.1192,-1.03125 -0.2051,-1.021485 -0.2793,-0.998047 -0.3593,-0.974609 -0.4356,-0.941406 -0.5097,-0.90625 -0.5743,-0.865235 -0.6464,-0.816406 -0.7032,-0.759766 -0.7636,-0.707031 -0.8164,-0.642578 -0.8614,-0.578125 -0.9062,-0.505859 -0.9453,-0.435547 -0.9707,-0.359375 -1.002,-0.283203 -1.0176,-0.201172 -1.0312,-0.123047 -1.0391,-0.03906 z m 594.00196,30.232422 h 72.0078 V 168.18555 h -72.0078 z m -72,234.001952 h 72.0078 v 72 h 72 v 72.00781 h -216.0078 v -72.00781 h 72 z"
         transform="scale(0.26458333)" />
      <polygon
         points="202.43,117.965 202.739,118.014 203.048,117.965 203.327,117.823 203.548,117.602 203.69,117.323 203.739,117.014 203.69,116.705 203.548,116.426 203.327,116.205 203.048,116.063 202.739,116.014 202.43,116.063 202.151,116.205 201.93,116.426 201.788,116.705 201.739,117.014 201.788,117.323 201.93,117.602 202.151,117.823 "
         style="fill:none;stroke:#000000;stroke-width:0.05mm"
         id="polygon1323"
         transform="translate(235.61628,-25.652854)" />
      <polygon
         points="202.43,9.952 202.739,10.001 203.048,9.952 203.327,9.81 203.548,9.588 203.69,9.31 203.739,9.001 203.69,8.691 203.548,8.413 203.327,8.19 203.048,8.049 202.739,8.001 202.43,8.049 202.151,8.19 201.93,8.413 201.788,8.691 201.739,9.001 201.788,9.31 201.93,9.588 202.151,9.81 "
         style="fill:none;stroke:#000000;stroke-width:0.05mm"
         id="polygon1333"
         transform="translate(235.61628,-25.652854)" />
    </g>
    <path
       d="m 204.68899,514.90649 v 5.3e-4 7.999 0.002 19.04948 h -9.525 v 19.05206 h 4.76302 v 19.05 h 9.52501 v 19.04793 h -4.76303 v 23.81354 8.00004 h 1.911 178.8051 l 0.27493,-0.0108 0.27284,-0.0321 0.26924,-0.0542 0.26511,-0.0739 0.25683,-0.0951 0.25011,-0.11473 0.23977,-0.13488 0.22788,-0.15193 0.21604,-0.17105 0.20203,-0.18603 0.18606,-0.20206 0.17102,-0.21601 0.15195,-0.22788 0.13486,-0.2403 0.11526,-0.25011 0.0951,-0.25683 0.0739,-0.26511 0.0538,-0.26871 0.032,-0.27337 0.0114,-0.27493 V 518.40757 l -0.0114,-0.27492 -0.032,-0.27285 -0.0538,-0.27027 -0.0739,-0.26406 -0.0951,-0.25787 -0.11526,-0.24908 -0.13486,-0.23978 -0.15195,-0.22892 -0.17102,-0.21601 -0.18606,-0.20102 -0.20203,-0.18707 -0.21604,-0.17002 -0.22788,-0.15296 -0.23977,-0.13384 -0.25011,-0.11524 -0.25683,-0.0951 -0.26511,-0.0749 -0.26924,-0.0527 -0.27284,-0.0331 -0.27493,-0.0103 z m 1.911,8.00107 h 174.30512 v 100.013 H 206.59999 v -21.90252 h 4.76301 v -22.87045 h -9.52499 v -19.05 h -4.76302 v -15.22956 h 9.525 z"
       style="fill:none;stroke:#000000;stroke-width:0.0499999mm"
       id="path4042" />
    <path
       d="m 13.59564,514.90954 -0.274918,0.0109 -0.272851,0.0331 -0.27027,0.0532 -0.264067,0.0749 -0.257863,0.0951 -0.249081,0.11472 -0.239779,0.13436 -0.228928,0.15295 -0.216006,0.17003 -0.201022,0.18655 -0.187069,0.20101 -0.170016,0.216 -0.15296,0.22945 -0.133843,0.23979 -0.115239,0.24908 -0.09508,0.25786 -0.07493,0.26406 -0.05271,0.26977 -0.03307,0.27336 -0.01035,0.27491 -0.0011,109.01298 0.01138,0.27493 0.03307,0.27284 0.05271,0.26924 0.07493,0.26511 0.09508,0.25683 0.115239,0.25012 0.133842,0.23976 0.152961,0.22789 0.170016,0.21603 0.187068,0.20203 0.201023,0.18603 0.216006,0.17106 0.228928,0.15195 0.239778,0.13538 0.249082,0.11473 0.257863,0.0951 0.264067,0.0739 0.270269,0.0543 0.272852,0.032 0.274918,0.0108 h 180.71252 v -6.94221 -1.05728 -23.8125 h 4.76301 v -19.0521 h -9.525 v -19.05 h -4.76301 v -19.04791 h 9.525 v -19.05052 -4.6178 -3.38223 z m 4.499983,8.00159 H 192.30823 v 17.05064 h -9.525 v 23.04767 h 4.76302 v 19.05 h 9.525 v 15.05233 h -4.76302 v 25.81238 H 18.095623 Z"
       style="fill:none;stroke:#000000;stroke-width:0.0499999mm"
       id="polygon1671" />
    <path
       id="polygon1730"
       d="m 13.594688,641.10896 -0.2749,0.0109 -0.27287,0.0331 -0.27027,0.0532 -0.26405,0.0749 -0.25787,0.0951 -0.24908,0.11473 -0.23979,0.13382 -0.22891,0.15299 -0.21601,0.17002 -0.20103,0.18706 -0.18706,0.20103 -0.17002,0.216 -0.15296,0.22892 -0.13435,0.2403 -0.11473,0.24907 -0.0951,0.25787 -0.0749,0.26408 -0.0532,0.26974 -0.0331,0.27337 -0.01,0.27493 v 109.01296 l 0.0108,0.27493 0.0331,0.27284 0.0532,0.26924 0.0749,0.26511 0.0951,0.25683 0.11472,0.25011 0.13436,0.23977 0.15296,0.22791 0.17002,0.216 0.18706,0.20204 0.20103,0.18605 0.216,0.17106 0.22892,0.15192 0.23979,0.13486 0.24908,0.11525 0.25786,0.0951 0.26409,0.0739 0.27024,0.0537 0.27287,0.032 0.27492,0.0114 H 194.30799 v 0 -12.76305 -19.04897 h 4.763 V 706.259 h -9.525 v -19.04999 h -4.763 v -19.04794 h 3.7429 5.7821 v -19.0531 -7.99745 z"
       style="fill:none;stroke:#000000;stroke-width:0.0499999mm" />
    <g
       transform="translate(-77.139799,-108.43264)"
       id="g4333">
      <path
         id="polygon1319-6"
         style="fill:#ffffff;stroke:#000000;stroke-width:0.188976mm"
         d="m 1064.8594,447.97656 v 30.23242 h 576.0117 V 694.2207 h -72.0039 v 72 h -71.9961 v 71.9961 h -432.0117 v 48.23632 0.002 h 683.0176 l 1.039,-0.041 1.0313,-0.12109 1.0175,-0.20508 1.002,-0.2793 0.9707,-0.35937 0.9453,-0.4336 0.9063,-0.50976 0.8613,-0.57617 0.8164,-0.64453 0.7637,-0.70313 0.7031,-0.76367 0.6465,-0.81641 0.5742,-0.86328 0.5098,-0.90625 0.4355,-0.94531 0.3594,-0.9707 0.2793,-1.00196 0.2051,-1.01562 0.1191,-1.03321 0.043,-1.03906 V 461.20898 l -0.043,-1.03906 -0.1191,-1.03125 -0.2051,-1.02148 -0.2793,-0.99805 -0.3594,-0.97461 -0.4355,-0.94141 -0.5098,-0.90624 -0.5742,-0.86524 -0.6465,-0.81641 -0.7031,-0.75976 -0.7637,-0.70703 -0.8164,-0.64258 -0.8613,-0.57813 -0.9063,-0.50585 -0.9453,-0.43555 -0.9707,-0.35938 -1.002,-0.2832 -1.0175,-0.20117 -1.0313,-0.12305 -1.039,-0.0391 z m 629.9707,53.33203 a 12.906858,12.906858 0 0 1 0.033,0 12.906858,12.906858 0 0 1 12.9082,12.90625 12.906858,12.906858 0 0 1 -12.9082,12.90625 12.906858,12.906858 0 0 1 -12.9063,-12.90625 12.906858,12.906858 0 0 1 12.8731,-12.90625 z m -35.9688,48.90039 h 72.0078 V 694.2207 h -72.0078 z m -72,162.00196 h 72.0078 v 72 h 72 v 72.00781 h -216.0078 v -72.00781 h 72 z"
         transform="scale(0.26458333)" />
      <g
         id="g4261"
         transform="translate(22.085758,3.5272085)">
        <path
           d="m 203.327,116.205 -0.279,-0.142 -0.309,-0.049 -0.309,0.049 -0.279,0.142 -0.221,0.221 -0.142,0.279 -0.049,0.309 0.049,0.309 0.142,0.279 0.221,0.221 0.279,0.142 0.309,0.049 0.309,-0.049 0.279,-0.142 0.221,-0.221 0.142,-0.279 0.049,-0.309 -0.049,-0.309 -0.142,-0.279 z"
           transform="translate(237.13401,109.99985)"
           style="fill:none;stroke:#000000;stroke-width:0.05mm"
           id="polygon1323-8" />
        <path
           d="m 203.327,8.19 -0.279,-0.141 -0.309,-0.048 -0.309,0.048 -0.279,0.141 -0.221,0.223 -0.142,0.278 -0.049,0.31 0.049,0.309 0.142,0.278 0.221,0.222 0.279,0.142 0.309,0.049 0.309,-0.049 0.279,-0.142 0.221,-0.222 0.142,-0.278 0.049,-0.309 -0.049,-0.31 -0.142,-0.278 z"
           transform="translate(237.13401,109.99985)"
           style="fill:none;stroke:#000000;stroke-width:0.05mm"
           id="polygon1333-3" />
      </g>
    </g>
    <g
       style="fill:none"
       transform="translate(25.595257,215.6518)"
       id="g7223">
      <path
         id="path5034"
         d="m 179.00899,46.848692 v 5.3e-4 7.99899 6.0477 13.00333 h -6.01824 -3.50676 v 19.05207 h 4.76301 v 19.049998 h 9.525 v 19.04793 h -4.76301 v 14.2503 4.80074 12.76253 h 180.71608 l 0.27493,-0.0109 0.27287,-0.032 0.26921,-0.0543 0.26458,-0.0739 0.25736,-0.0951 0.24958,-0.11472 0.24033,-0.13488 0.22788,-0.15193 0.21601,-0.17105 0.20206,-0.18603 0.18603,-0.20206 0.17105,-0.216 0.15193,-0.2279 0.13488,-0.24029 0.11523,-0.25012 0.0951,-0.25683 0.0739,-0.2651 0.0537,-0.26872 0.032,-0.27337 0.0114,-0.27491 V 50.349762 l -0.0114,-0.27491 -0.032,-0.27285 -0.0537,-0.27027 -0.0739,-0.26407 -0.0951,-0.25786 -0.11523,-0.24909 -0.13488,-0.23977 -0.15193,-0.22893 -0.17105,-0.21601 -0.18603,-0.20102 -0.20206,-0.18707 -0.21601,-0.17001 -0.22788,-0.15297 -0.24033,-0.13384 -0.24958,-0.11523 -0.25736,-0.0951 -0.26458,-0.0749 -0.26921,-0.0527 -0.27287,-0.0331 -0.27493,-0.0104 z"
         style="fill:none;stroke:#000000;stroke-width:0.0499999mm" />
      <g
         style="fill:none"
         id="g7175">
        <path
           id="path6816"
           d="m 177.1053,74.614223 v 1.810742 h -5.09426 v 0.999939 h -0.79995 v 3.100069 h 0.79995 v 5.800163 h -0.79995 v 3.099552 5.29e-4 h 0.79995 v 0.999939 h 5.09426 v 1.810742 h 3.81114 v -1.810742 h 5.0953 v -0.999939 h 0.79891 v -5.29e-4 0 -3.099563 0 h -0.79891 v -5.800162 h 0.79891 v 0 -3.10007 0 h -0.79891 v -0.999939 h -5.0953 v -1.810742 z"
           style="fill:none;stroke:#000000;stroke-width:0.0499999mm" />
        <path
           id="path6874"
           d="m 343.79331,136.52624 v 1.81074 h -5.09426 v 0.99994 h -0.79994 v 3.10006 h 0.79994 v 5.80017 h -0.79994 v 3.09955 5.3e-4 h 0.79994 v 0.99994 h 5.09426 v 1.81074 h 3.81114 v -1.81074 h 5.09426 v -0.99994 h 0.79997 v -5.3e-4 -3.09955 h -0.79997 v -5.80017 h 0.79997 v -3.10006 h -0.79997 v -0.99994 h -5.09426 v -1.81074 z"
           style="fill:none;stroke:#000000;stroke-width:0.0499999mm" />
        <path
           id="path6872"
           d="m 324.74331,136.52624 v 1.81074 h -5.09426 v 0.99994 h -0.79994 v 3.10006 h 0.79994 v 5.80017 h -0.79994 v 3.09955 5.3e-4 h 0.79994 v 0.99994 h 5.09426 v 1.81074 h 3.81114 v -1.81074 h 5.09426 v -0.99994 h 0.79997 v -5.3e-4 -3.09955 h -0.79997 v -5.80017 h 0.79997 v -3.10006 h -0.79997 v -0.99994 h -5.09426 v -1.81074 z"
           style="fill:none;stroke:#000000;stroke-width:0.0499999mm" />
        <path
           id="path6870"
           d="m 305.69331,136.52624 v 1.81074 h -5.09426 v 0.99994 h -0.79994 v 3.10006 h 0.79994 v 5.80017 h -0.79994 v 3.09955 5.3e-4 h 0.79994 v 0.99994 h 5.09426 v 1.81074 h 3.81114 v -1.81074 h 5.09426 v -0.99994 h 0.79997 v -5.3e-4 -3.09955 h -0.79997 v -5.80017 h 0.79997 v -3.10006 h -0.79997 v -0.99994 h -5.09426 v -1.81074 z"
           style="fill:none;stroke:#000000;stroke-width:0.0499999mm" />
        <path
           id="path6868"
           d="m 281.88134,131.76425 v 1.81074 h -5.09426 v 0.99994 h -0.79997 v 3.09904 0.001 h 0.79997 v 5.80016 h -0.79997 v 3.09955 5.3e-4 h 0.79997 v 0.99994 h 5.09426 v 1.81074 h 3.81114 v -1.81074 h 5.09426 v -0.99994 h 0.79994 v -5.3e-4 -3.09955 h -0.79994 v -5.80016 h 0.79994 v -3.10007 h -0.79994 v -0.99994 h -5.09426 v -1.81075 z"
           style="fill:none;stroke:#000000;stroke-width:0.0499999mm" />
        <path
           id="path6866"
           d="m 262.83134,131.76319 v 1.81074 h -5.09426 v 0.99994 h -0.79997 v 3.10007 h 0.79997 v 5.80016 h -0.79997 v 3.10007 5.3e-4 h 0.79997 v 1.00046 h 5.09426 v 1.80971 h 3.81114 v -1.80971 h 5.09426 v -1.00046 h 0.79994 v -5.3e-4 -3.09903 -0.001 h -0.79994 v -5.80016 h 0.79994 v -3.09904 -0.001 h -0.79994 v -0.9989 -0.001 h -5.09426 v -1.81074 z"
           style="fill:none;stroke:#000000;stroke-width:0.0499999mm" />
        <path
           id="path6864"
           d="m 241.39956,131.76319 v 1.81074 h -5.09426 v 0.001 0 0.99891 h -0.79944 v 0.001 0 3.09903 0 h 0.79944 v 5.80016 h -0.79944 v 0.001 0 3.09955 h 0.79997 v 1.00046 h 5.09476 v 1.80971 h 3.81114 v -1.80971 h 5.09426 v -0.001 -0.99942 h 0.79997 v -5.3e-4 -3.09904 -0.001 h -0.79997 v -5.80016 h 0.79997 v -3.09903 -0.001 h -0.79997 v -0.99891 -0.001 h -5.09426 v -1.81075 z"
           style="fill:none;stroke:#000000;stroke-width:0.0499999mm" />
        <path
           d="m 203.29906,131.76318 v 1.81074 h -5.09426 -1.52498 v -1.41904 h -6.74997 v 2.89027 3.22977 h -0.82476 v 2.79983 h 0.82476 v 0.9338 5.33559 3.83026 h 30.55059 v -3.83026 -5.33559 -0.9338 h 0.82476 v -2.79983 h -0.82476 v -3.22977 -2.89027 h -6.74997 v 1.41904 h -1.52498 -5.09426 v -1.81074 z"
           style="fill:none;stroke:#000000;stroke-width:0.0499999mm"
           id="path6862" />
        <path
           id="path6860"
           d="m 324.74331,117.47621 v 1.81074 h -5.09426 v 0.99994 h -0.79994 v 3.10007 h 0.79994 v 5.80016 h -0.79994 v 3.09955 5.3e-4 h 0.79994 v 0.99994 h 5.09426 v 1.81074 h 3.81114 v -1.81074 h 5.09426 v -0.99994 h 0.79997 v -5.3e-4 -3.09955 h -0.79997 v -5.80016 h 0.79997 v -3.10007 h -0.79997 v -0.99994 h -5.09426 v -1.81074 z"
           style="fill:none;stroke:#000000;stroke-width:0.0499999mm" />
        <path
           id="path6858"
           d="m 267.59331,112.71422 v 1.81075 h -5.09426 v 0.99994 h -0.79994 v 3.09903 10e-4 h 0.79994 v 5.80016 h -0.79994 v 3.09955 5.3e-4 h 0.79994 v 0.99994 h 5.09426 v 1.81074 h 3.81114 v -1.81074 h 5.09426 v -0.99994 h 0.79997 v -5.3e-4 -3.09955 h -0.79997 v -5.8001 h 0.79997 v -3.10007 h -0.79997 v -0.99994 h -5.09426 v -1.81074 z"
           style="fill:none;stroke:#000000;stroke-width:0.0499999mm" />
        <path
           id="path6856"
           d="m 248.54331,112.71422 v 1.81075 h -5.09426 v 0.99994 h -0.79994 v 3.09903 10e-4 h 0.79994 v 5.80016 h -0.79994 v 3.09955 5.3e-4 h 0.79994 v 0.99994 h 5.09426 v 1.81074 h 3.81114 v -1.81074 h 5.09426 v -0.99994 h 0.79997 v -5.3e-4 -3.09955 h -0.79997 v -5.8001 h 0.79997 v -3.10007 h -0.79997 v -0.99994 h -5.09426 v -1.81074 z"
           style="fill:none;stroke:#000000;stroke-width:0.0499999mm" />
        <path
           id="path6854"
           d="m 229.49331,112.71422 v 1.81075 h -5.09426 v 0.99994 h -0.79994 v 3.09903 10e-4 h 0.79994 v 5.80016 h -0.79994 v 3.09955 5.3e-4 h 0.79994 v 0.99994 h 5.09426 v 1.81074 h 3.81114 v -1.81074 h 5.09426 v -0.99994 h 0.79997 v -5.3e-4 -3.09955 h -0.79997 v -5.8001 h 0.79997 v -3.10007 h -0.79997 v -0.99994 h -5.09426 v -1.81074 z"
           style="fill:none;stroke:#000000;stroke-width:0.0499999mm" />
        <path
           id="path6852"
           d="m 210.44331,112.71422 v 1.81075 h -5.09426 v 0.99994 h -0.79994 v 3.09903 10e-4 h 0.79994 v 5.80016 h -0.79994 v 3.09955 5.3e-4 h 0.79994 v 0.99994 h 5.09426 v 1.81074 h 3.81114 v -1.81074 h 5.09426 v -0.99994 h 0.79997 v -5.3e-4 -3.09955 h -0.79997 v -5.8001 h 0.79997 v -3.10007 h -0.79997 v -0.99994 h -5.09426 v -1.81074 z"
           style="fill:none;stroke:#000000;stroke-width:0.0499999mm" />
        <path
           id="path6850"
           d="m 191.39331,112.71422 v 1.81075 h -5.09426 v 0.99994 h -0.79994 v 3.09903 10e-4 h 0.79994 v 5.80016 h -0.79994 v 3.09955 5.3e-4 h 0.79994 v 0.99994 h 5.09426 v 1.81074 h 3.81114 v -1.81074 h 5.09426 v -0.99994 h 0.79997 v -5.3e-4 -3.09955 h -0.79997 v -5.8001 h 0.79997 v -3.10007 h -0.79997 v -0.99994 h -5.09426 v -1.81074 z"
           style="fill:none;stroke:#000000;stroke-width:0.0499999mm" />
        <path
           d="m 308.07302,93.664212 v 1.810742 h -5.09426 -1.52497 V 94.05592 h -6.74998 v 2.890263 3.229777 h -0.82475 v 2.79983 h 0.82475 v 0.93379 5.33559 3.46853 h -0.91622 v 1.81074 h -5.09426 v 5.3e-4 0.99942 h -0.79944 v 5.3e-4 3.09904 5.2e-4 h 0.79944 v 5.80017 h -0.79944 v 5.3e-4 3.09955 h 0.79944 v 1.00045 h 5.09476 v 1.81023 h 3.81114 v -1.81023 h 5.09426 v -5.2e-4 -0.99994 h 0.79997 v -3.09956 -5.2e-4 h -0.79997 v -5.80017 h 0.79997 v -5.3e-4 -3.09955 h -0.79997 v -0.99942 -5.3e-4 h -5.09426 v -1.44901 h 27.65517 v -3.83026 -5.33559 -0.93379 h 0.82476 v -2.79983 H 325.2544 V 96.946183 94.05592 h -6.74999 v 1.419034 h -1.52495 -5.09427 v -1.810742 z"
           style="fill:none;stroke:#000000;stroke-width:0.0499999mm"
           id="path6848" />
        <path
           id="path6846"
           d="m 343.79331,93.664212 v 1.810742 h -5.09426 v 0.99994 h -0.79994 v 3.10007 h 0.79994 v 5.800166 h -0.79994 v 3.09955 h 0.79994 v 1.00045 h 5.09426 v 1.81074 h 3.81114 v -1.81074 h 5.09426 v -1.00045 h 0.79997 v -3.09955 h -0.79997 v -5.800166 h 0.79997 v -3.10007 h -0.79997 v -0.99994 h -5.09426 v -1.810742 z"
           style="fill:none;stroke:#000000;stroke-width:0.0499999mm" />
        <path
           id="path6842"
           d="m 277.11831,93.664212 v 1.810742 h -5.09426 v 0.99994 h -0.79994 v 3.10007 h 0.79994 v 5.800166 h -0.79994 v 3.09955 5.3e-4 h 0.79994 v 0.99993 h 5.09426 v 1.81074 h 3.81114 v -1.81074 h 5.09426 v -0.99993 h 0.79997 v -3.10007 0 h -0.79894 v -5.800166 h 0.79894 v 0 -3.10007 0 h -0.79894 v -0.999939 h -5.09426 v -1.810743 z"
           style="fill:none;stroke:#000000;stroke-width:0.0499999mm" />
        <path
           id="path6840"
           d="m 258.06831,93.664212 v 1.810742 h -5.09426 v 0.99994 h -0.79994 v 3.10007 h 0.79994 v 5.800166 h -0.79994 v 3.09955 5.3e-4 h 0.79994 v 0.99993 h 5.09426 v 1.81074 h 3.81114 v -1.81074 h 5.09426 v -0.99993 h 0.79997 v -5.3e-4 -3.09955 h -0.79997 v -5.800166 h 0.79997 v -3.10007 h -0.79997 v -0.99994 h -5.09426 v -1.810742 z"
           style="fill:none;stroke:#000000;stroke-width:0.0499999mm" />
        <path
           id="path6838"
           d="m 239.01831,93.664212 v 1.810742 h -5.09426 v 0.99994 h -0.79994 v 3.10007 h 0.79994 v 5.800166 h -0.79994 v 3.09955 5.3e-4 h 0.79994 v 0.99993 h 5.09426 v 1.81074 h 3.81114 v -1.81074 h 5.09426 v -0.99993 h 0.79997 v -5.3e-4 -3.09955 h -0.79997 v -5.800166 h 0.79997 v -3.10007 h -0.79997 v -0.99994 h -5.09426 v -1.810742 z"
           style="fill:none;stroke:#000000;stroke-width:0.0499999mm" />
        <path
           id="path6836"
           d="m 219.96831,93.664212 v 1.810742 h -5.09426 v 0.99994 h -0.79994 v 3.10007 h 0.79994 v 5.800166 h -0.79994 v 3.09955 5.3e-4 h 0.79994 v 0.99993 h 5.09426 v 1.81074 h 3.81114 v -1.81074 h 5.09426 v -0.99993 h 0.79997 v -5.3e-4 -3.09955 h -0.79997 v -5.800166 h 0.79997 v -3.10007 h -0.79997 v -0.99994 h -5.09426 v -1.810742 z"
           style="fill:none;stroke:#000000;stroke-width:0.0499999mm" />
        <path
           id="path6834"
           d="m 200.91831,93.664212 v 1.810742 h -5.09426 v 0.99994 h -0.79994 v 3.10007 h 0.79994 v 5.800166 h -0.79994 v 3.09955 5.3e-4 h 0.79994 v 0.99993 h 5.09426 v 1.81074 h 3.81114 v -1.81074 h 5.09426 v -0.99993 h 0.79997 v -5.3e-4 -3.09955 h -0.79997 v -5.800166 h 0.79997 v -3.10007 h -0.79997 v -0.99994 h -5.09426 v -1.810742 z"
           style="fill:none;stroke:#000000;stroke-width:0.0499999mm" />
        <path
           id="path6832"
           d="m 181.86832,93.664212 v 1.810742 h -5.09426 v 0.99994 h -0.79996 v 3.10007 h 0.79996 v 5.800166 h -0.79996 v 3.09955 5.3e-4 h 0.79996 v 0.99993 h 5.09426 v 1.81074 h 3.81113 v -1.81074 h 5.09426 v -0.99993 h 0.79997 v -5.3e-4 -3.09955 h -0.79997 v -5.800166 h 0.79997 v -3.10007 h -0.79997 v -0.99994 h -5.09426 v -1.810742 z"
           style="fill:none;stroke:#000000;stroke-width:0.0499999mm" />
        <path
           id="path6830"
           d="m 343.79331,74.614223 v 1.810743 h -5.09426 v 0.999939 h -0.79994 v 3.100069 h 0.79994 v 5.800162 h -0.79994 v 3.099553 5.29e-4 h 0.79994 v 0.999939 h 5.09426 v 1.810742 h 3.81114 v -1.810742 h 5.09426 v -0.999939 h 0.79997 v -5.29e-4 -3.099553 h -0.79997 v -5.800173 h 0.79997 v -3.100069 h -0.79997 v -0.999939 h -5.09426 v -1.810742 z"
           style="fill:none;stroke:#000000;stroke-width:0.0499999mm" />
        <path
           id="path6828"
           d="m 291.40634,74.614223 v 1.810743 h -5.09529 v 0.999939 h -0.79997 v 3.100069 h 0.79997 v 5.800162 h -0.79997 v 3.099553 0 5.29e-4 h 0.79893 v 0.999939 h 5.0953 v 1.810742 h 3.81113 v -1.810742 h 5.09427 v -0.999939 h 0.79994 v -5.29e-4 -3.099553 h -0.79994 v -5.800173 h 0.79994 v -3.100069 h -0.79994 v -0.999939 h -5.09427 v -1.810742 z"
           style="fill:none;stroke:#000000;stroke-width:0.0499999mm" />
        <path
           id="path6826"
           d="m 272.35531,74.614223 v 1.810743 h -5.09426 v 0.999939 h -0.79997 v 3.100069 h 0.79997 v 5.800162 h -0.79997 v 3.10007 h 0.79997 v 0.999938 h 5.09426 v 1.810743 h 3.81113 v -1.810743 h 5.09427 v -0.999938 h 0.79994 v -5.3e-4 -3.099552 h -0.79994 v -5.800161 h 0.79994 v -3.100069 h -0.79994 v -0.999939 h -5.09427 v -1.810742 z"
           style="fill:none;stroke:#000000;stroke-width:0.0499999mm" />
        <path
           id="path6824"
           d="m 253.30634,74.614223 v 1.810743 h -5.09426 v 0.999939 h -0.79997 v 3.100069 h 0.79997 v 5.800162 h -0.79997 v 3.099553 5.29e-4 h 0.79997 v 0.999939 h 5.09426 v 1.810742 h 3.81114 v -1.810742 h 5.09426 v -0.999939 h 0.79994 v -3.100092 0 h -0.79891 v -5.800163 h 0.79891 v 0 -3.100069 0 h -0.79891 v -0.999939 h -5.09426 v -1.810742 z"
           style="fill:none;stroke:#000000;stroke-width:0.0499999mm" />
        <path
           id="path6822"
           d="m 234.25634,74.614223 v 1.810743 h -5.09426 v 0.999939 h -0.79997 v 3.100069 h 0.79997 v 5.800162 h -0.79997 v 3.099553 5.29e-4 h 0.79997 v 0.999939 h 5.09426 v 1.810742 h 3.81114 v -1.810742 h 5.09426 v -0.999939 h 0.79994 v -5.29e-4 -3.099553 h -0.79994 v -5.800173 h 0.79994 v -3.100069 h -0.79994 v -0.999939 h -5.09426 v -1.810742 z"
           style="fill:none;stroke:#000000;stroke-width:0.0499999mm" />
        <path
           id="path6820"
           d="m 215.20634,74.614223 v 1.810743 h -5.09426 v 0.999939 h -0.79997 v 3.100069 h 0.79997 v 5.800162 h -0.79997 v 3.099553 5.29e-4 h 0.79997 v 0.999939 h 5.09426 v 1.810742 h 3.81114 v -1.810742 h 5.09426 v -0.999939 h 0.79994 v -5.29e-4 -3.099553 h -0.79994 v -5.800173 h 0.79994 v -3.100069 h -0.79994 v -0.999939 h -5.09426 v -1.810742 z"
           style="fill:none;stroke:#000000;stroke-width:0.0499999mm" />
        <path
           id="path6818"
           d="m 196.15634,74.614223 v 1.810743 h -5.09426 v 0.999939 h -0.79997 v 3.100069 h 0.79997 v 5.800162 h -0.79997 v 3.099553 5.29e-4 h 0.79997 v 0.999939 h 5.09426 v 1.810742 h 3.81114 v -1.810742 h 5.09426 v -0.999939 h 0.79994 v -5.29e-4 -3.099553 h -0.79994 v -5.800173 h 0.79994 v -3.100069 h -0.79994 v -0.999939 h -5.09426 v -1.810742 z"
           style="fill:none;stroke:#000000;stroke-width:0.0499999mm" />
        <path
           id="path6814"
           d="m 315.21831,74.613694 v 1.810742 h -5.09426 v 5.3e-4 0.999422 h -0.79994 v 5.29e-4 3.099552 5.29e-4 h 0.79994 v 5.799646 h -0.79994 v 5.3e-4 3.099552 h 0.79994 v 0.999939 5.29e-4 h 5.09426 v 1.810225 h 3.81114 v -1.810225 h 5.09426 v -5.29e-4 -0.999939 h 0.79997 v -3.099552 -5.3e-4 h -0.79997 v -5.799681 h 0.79997 v -5.29e-4 -3.099552 -5.3e-4 h -0.79997 v -0.999422 -5.29e-4 h -5.09426 v -1.810742 z"
           style="fill:none;stroke:#000000;stroke-width:0.0499999mm" />
        <path
           id="path6812"
           d="m 343.79331,55.564211 v 1.809709 h -5.09426 v 1.000972 h -0.79994 v 3.10007 h 0.79994 v 5.79913 h -0.79994 v 3.100586 5.29e-4 h 0.79994 v 0.999939 h 5.09426 v 1.810742 h 3.81114 v -1.810742 h 5.09426 v -0.999939 h 0.79997 v -5.29e-4 -3.099552 -0.001 h -0.79997 v -5.799128 h 0.79997 v -3.100069 h -0.79997 v -0.999939 -10e-4 h -5.09426 v -1.809709 z"
           style="fill:none;stroke:#000000;stroke-width:0.0499999mm" />
        <path
           id="path6810"
           d="m 262.83031,55.564211 v 1.809709 h -5.09426 v 1.000972 h -0.79997 v 3.10007 h 0.79997 v 5.79913 h -0.79997 v 3.100586 5.29e-4 h 0.79997 v 0.999939 h 5.09426 v 1.810742 h 3.81114 v -1.810742 h 5.09426 v -0.999939 h 0.79994 v -5.29e-4 -3.099552 -0.001 h -0.79994 v -5.799128 h 0.79994 v -3.100069 h -0.79994 v -0.999939 -10e-4 h -5.09426 v -1.809709 z"
           style="fill:none;stroke:#000000;stroke-width:0.0499999mm" />
        <path
           id="path6808"
           d="m 243.78031,55.564211 v 1.809709 h -5.09426 v 1.000972 h -0.79997 v 3.10007 h 0.79997 v 5.79913 h -0.79997 v 3.100586 5.29e-4 h 0.79997 v 0.999939 h 5.09426 v 1.810742 h 3.81114 v -1.810742 h 5.09426 v -0.999939 h 0.79994 v -5.29e-4 -3.099552 -0.001 h -0.79994 v -5.799128 h 0.79994 v -3.100069 h -0.79994 v -0.999939 -10e-4 h -5.09426 v -1.809709 z"
           style="fill:none;stroke:#000000;stroke-width:0.0499999mm" />
        <path
           id="path6806"
           d="m 205.68031,55.564211 v 1.809709 h -5.09426 v 1.000972 h -0.79997 v 3.10007 h 0.79997 v 5.79913 h -0.79894 v 0.001 0 3.100068 h 0.79997 v 0.999939 h 5.09426 v 1.810742 h 3.81114 v -1.810742 h 5.09426 V 70.37516 h 0.79994 v -5.29e-4 -3.099552 -0.001 h -0.79994 v -5.799116 h 0.79994 v -3.100069 h -0.79994 v -0.999939 -10e-4 h -5.09426 v -1.809709 z"
           style="fill:none;stroke:#000000;stroke-width:0.0499999mm" />
        <path
           id="path6804"
           d="m 186.63031,55.564211 v 1.809709 h -5.09427 v 1.000972 h -0.79996 v 3.10007 h 0.79996 v 5.79913 h -0.79996 v 3.100586 5.29e-4 h 0.79996 v 0.999939 h 5.09427 v 1.810742 h 3.81114 v -1.810742 h 5.09529 v -0.999939 h 0.79891 v -5.29e-4 -3.099552 -0.001 h -0.79891 v -5.799128 h 0.79891 v -3.100069 h -0.79891 v -1.000972 h -5.09529 v -1.809709 z"
           style="fill:none;stroke:#000000;stroke-width:0.0499999mm" />
        <path
           id="path6802"
           d="m 319.98134,55.563179 v 1.810743 h -5.09426 v 0.999938 h -0.79997 v 3.100069 0.001 h 0.79997 v 5.799131 h -0.79997 v 3.100069 5.29e-4 h 0.79997 v 0.999423 10e-4 h 5.09426 v 1.809708 h 3.81114 v -1.809708 h 5.09426 v -10e-4 -0.999423 h 0.79994 v -5.29e-4 -3.100069 h -0.79994 v -5.799129 h 0.79994 v -3.100069 -10e-4 h -0.79994 v -0.999939 h -5.09426 v -1.810742 z"
           style="fill:none;stroke:#000000;stroke-width:0.0499999mm" />
        <path
           id="path6800"
           d="m 300.93134,55.563179 v 1.810743 h -5.09426 v 0.999938 h -0.79997 v 10e-4 0 3.100069 h 0.801 v 5.799131 h -0.801 v 3.100586 h 0.801 v 0.999422 0.001 h 5.09426 v 1.809709 h 3.81114 v -1.809709 h 5.09426 v -0.001 -0.999422 h 0.79994 v -5.29e-4 -3.100069 h -0.79994 v -5.799117 h 0.79994 v -3.100069 -10e-4 h -0.79994 v -0.999939 h -5.09426 v -1.810742 z"
           style="fill:none;stroke:#000000;stroke-width:0.0499999mm" />
        <path
           id="path6798"
           d="m 281.88031,55.563179 v 1.810743 h -5.09426 v 0.999938 h -0.79997 v 3.100069 0.001 h 0.79997 v 5.799131 h -0.79997 v 3.100069 5.29e-4 h 0.79997 v 0.999423 10e-4 h 5.09426 v 1.809708 h 3.81113 v -1.809708 h 5.09427 v -10e-4 -0.999423 h 0.80097 V 67.27406 h -0.80097 v -5.799129 h 0.80097 v -3.100069 0 -10e-4 h -0.79994 v -0.999939 h -5.09426 v -1.810742 z"
           style="fill:none;stroke:#000000;stroke-width:0.0499999mm" />
        <path
           id="polygon5038"
           d="m 224.73031,55.563179 v 1.810743 h -5.09426 v 0.999938 h -0.79997 v 3.100069 0.001 h 0.79997 v 5.799131 h -0.79997 v 3.100069 5.29e-4 h 0.79997 v 0.999423 10e-4 h 5.09426 v 1.809708 h 3.81114 v -1.809708 h 5.09426 v -10e-4 -0.999423 h 0.79994 v -5.29e-4 -3.100069 h -0.79994 v -5.799129 h 0.79994 v -3.100069 -10e-4 h -0.79994 v -0.999939 h -5.09426 v -1.810742 z"
           style="fill:none;stroke:#000000;stroke-width:0.0499999mm" />
      </g>
      <g
         style="fill:none"
         id="g7134">
        <g
           style="fill:none"
           id="g7128">
          <g
             style="fill:none"
             id="g6944"
             transform="translate(-81.403982,66.408512)">
            <polygon
               points="203.739,117.014 203.69,116.705 203.548,116.426 203.327,116.205 203.048,116.063 202.739,116.014 202.43,116.063 202.151,116.205 201.93,116.426 201.788,116.705 201.739,117.014 201.788,117.323 201.93,117.602 202.151,117.823 202.43,117.965 202.739,118.014 203.048,117.965 203.327,117.823 203.548,117.602 203.69,117.323 "
               style="fill:none;stroke:#000000;stroke-width:0.05mm"
               id="polygon5036"
               transform="translate(237.88986,-24.55962)" />
            <polygon
               points="203.739,9.001 203.69,8.691 203.548,8.413 203.327,8.19 203.048,8.049 202.739,8.001 202.43,8.049 202.151,8.19 201.93,8.413 201.788,8.691 201.739,9.001 201.788,9.31 201.93,9.588 202.151,9.81 202.43,9.952 202.739,10.001 203.048,9.952 203.327,9.81 203.548,9.588 203.69,9.31 "
               style="fill:none;stroke:#000000;stroke-width:0.05mm"
               id="polygon5118"
               transform="translate(237.88986,-24.55962)" />
          </g>
        </g>
      </g>
    </g>
    <g
       transform="translate(574.0311,-43.119834)"
       id="g9443">
      <path
         id="path9405"
         style="fill:none;stroke:#000000;stroke-width:0.188976mm"
         d="m -2118.1875,201.125 -1.0391,0.043 -1.0312,0.12695 -1.0195,0.19727 -0.9981,0.2832 -0.9766,0.35938 -0.9394,0.43554 -0.9082,0.50586 -0.8652,0.57813 -0.8164,0.64258 -0.7598,0.70703 -0.707,0.75976 -0.6426,0.81641 -0.5782,0.86523 -0.5058,0.90625 -0.4356,0.94141 -0.3593,0.97461 -0.2832,0.99804 -0.1993,1.02149 -0.125,1.03125 -0.037,1.03906 V 626.375 l 0.041,1.03906 0.125,1.03321 0.1992,1.01562 0.2832,1.00195 0.3594,0.97071 0.4355,0.94531 0.5059,0.9082 0.5781,0.86133 0.6426,0.81641 0.707,0.76367 0.7598,0.70312 0.8164,0.64649 0.8652,0.57422 0.9082,0.50976 0.9395,0.4336 0.9765,0.35937 0.9981,0.28125 1.0195,0.20313 1.0312,0.12109 1.0391,0.041 h 683.0059 v -48.23829 h -504.0059 V 231.35742 h 504.0059 v -30.22851 z"
         transform="scale(0.26458333)" />
      <rect
         style="fill:none;fill-opacity:1;stroke:#000000;stroke-width:0.189;stroke-linecap:round;stroke-linejoin:round;stroke-miterlimit:4;stroke-dasharray:none;stroke-opacity:1;paint-order:stroke fill markers"
         id="rect9407"
         width="11.6"
         height="10"
         x="-549.63727"
         y="87.213531" />
      <path
         d="m -546.56082,109.39058 h 0.2992 c 0.4712,0 0.8504,0.3793 0.8504,0.8504 v 35.2992 c 0,0.4711 -0.3792,0.8504 -0.8504,0.8504 h -0.2992 c -0.4711,0 -0.8504,-0.3793 -0.8504,-0.8504 v -35.2992 c 0,-0.4711 0.3793,-0.8504 0.8504,-0.8504 z"
         style="fill:none;fill-opacity:1;stroke:#000000;stroke-width:0.18;stroke-linecap:round;stroke-linejoin:round;stroke-miterlimit:4;stroke-dasharray:none;stroke-opacity:1;paint-order:stroke fill markers"
         id="path9409" />
      <path
         id="path9411"
         style="fill:none;fill-opacity:1;stroke:#000000;stroke-width:0.18;stroke-linecap:round;stroke-linejoin:round;stroke-miterlimit:4;stroke-dasharray:none;stroke-opacity:1;paint-order:stroke fill markers"
         d="m -547.29543,66.25184 h 20.7585 c 1.0364,0 1.8708,0.8343 1.8708,1.8707 v 10.2585 c 0,1.0364 -0.8344,1.8708 -1.8708,1.8708 h -20.7585 c -1.0364,0 -1.8707,-0.8344 -1.8707,-1.8708 v -10.2585 c 0,-1.0364 0.8343,-1.8707 1.8707,-1.8707 z" />
      <circle
         r="3.5"
         cy="108.84058"
         cx="-527.36072"
         id="circle9413"
         style="fill:none;fill-opacity:1;stroke:#000000;stroke-width:0.189;stroke-linecap:round;stroke-linejoin:round;stroke-miterlimit:4;stroke-dasharray:none;stroke-opacity:1;paint-order:stroke fill markers" />
      <circle
         style="fill:none;fill-opacity:1;stroke:#000000;stroke-width:0.189;stroke-linecap:round;stroke-linejoin:round;stroke-miterlimit:4;stroke-dasharray:none;stroke-opacity:1;paint-order:stroke fill markers"
         id="circle9415"
         cx="-527.36072"
         cy="127.89058"
         r="3.5" />
      <circle
         r="3.5"
         cy="146.94054"
         cx="-527.36121"
         id="circle9417"
         style="fill:none;fill-opacity:1;stroke:#000000;stroke-width:0.189;stroke-linecap:round;stroke-linejoin:round;stroke-miterlimit:4;stroke-dasharray:none;stroke-opacity:1;paint-order:stroke fill markers" />
      <rect
         y="87.213531"
         x="-535.7373"
         height="10"
         width="11.6"
         id="rect9419"
         style="fill:none;fill-opacity:1;stroke:#000000;stroke-width:0.189;stroke-linecap:round;stroke-linejoin:round;stroke-miterlimit:4;stroke-dasharray:none;stroke-opacity:1;paint-order:stroke fill markers" />
    </g>
    <g
       id="g9495">
      <path
         d="m 24.394006,144.29657 v 25.99996 9.99991 h 11.599809 v -9.99991 h 2.300102 v 9.99991 h 11.59981 v -9.99991 -25.99996 z"
         style="fill:none;fill-opacity:1;stroke:#000000;stroke-width:0.189;stroke-linecap:round;stroke-linejoin:round;stroke-miterlimit:4;stroke-dasharray:none;stroke-opacity:1;paint-order:stroke fill markers"
         id="path9459" />
      <polygon
         points="34.575,110.488 48.575,110.488 48.575,109.488 49.375,109.488 49.375,106.388 48.575,106.388 48.575,100.588 49.375,100.588 49.375,97.488 48.575,97.488 48.575,96.488 34.575,96.488 34.575,97.488 33.776,97.488 33.776,100.588 34.575,100.588 34.575,106.388 33.776,106.388 33.776,109.488 34.575,109.488 "
         style="fill:none;stroke:#000000;stroke-width:0.189;stroke-miterlimit:4;stroke-dasharray:none"
         id="polygon9461"
         transform="translate(5.09449,126.53551)" />
      <polygon
         points="34.576,85.676 34.576,86.676 48.576,86.676 48.576,85.676 49.376,85.676 49.376,82.576 48.576,82.576 48.576,76.775 49.376,76.775 49.376,73.676 48.576,73.676 48.576,72.676 34.576,72.676 34.576,73.676 33.776,73.676 33.776,76.775 34.576,76.775 34.576,82.576 33.776,82.576 33.776,85.676 "
         style="fill:none;stroke:#000000;stroke-width:0.189;stroke-miterlimit:4;stroke-dasharray:none"
         id="polygon9463"
         transform="translate(5.09449,131.29754)" />
      <polygon
         points="34.576,66.626 34.576,67.626 48.576,67.626 48.576,66.626 49.376,66.626 49.376,63.526 48.576,63.526 48.576,57.726 49.376,57.726 49.376,54.626 48.576,54.626 48.576,53.626 34.576,53.626 34.576,54.626 33.776,54.626 33.776,57.726 34.576,57.726 34.576,63.526 33.776,63.526 33.776,66.626 "
         style="fill:none;stroke:#000000;stroke-width:0.189;stroke-miterlimit:4;stroke-dasharray:none"
         id="polygon9465"
         transform="translate(5.09449,131.29754)" />
      <path
         id="path9467"
         style="fill:none;stroke:#000000;stroke-width:0.188976mm"
         d="m 51.378906,515.14062 -1.039062,0.043 -1.03125,0.125 -1.019532,0.19922 -0.998046,0.28321 -0.976563,0.35937 -0.939453,0.43555 -0.908203,0.50586 -0.865235,0.57812 -0.816406,0.64258 -0.759765,0.70703 -0.707032,0.75977 -0.642578,0.8164 -0.578125,0.86524 -0.505859,0.90625 -0.435547,0.9414 -0.359375,0.97461 -0.283203,0.99805 -0.199219,1.02148 -0.125,1.03125 -0.03711,1.03907 v 412.01757 l 0.04102,1.03907 0.125,1.0332 0.199219,1.01563 0.283203,1.00195 0.359375,0.9707 0.435547,0.94531 0.505859,0.90821 0.578126,0.86133 0.642578,0.8164 0.707031,0.76367 0.759765,0.70313 0.816407,0.64648 0.865234,0.57422 0.908203,0.50977 0.939453,0.43359 0.976563,0.35938 0.998047,0.28125 1.019531,0.20312 1.03125,0.12109 1.039062,0.041 H 734.38867 V 905.38086 H 230.38281 V 545.37305 h 504.00586 v -30.22852 z"
         transform="scale(0.26458333)" />
      <path
         d="m 27.47039,192.47354 h 0.2992 c 0.4712,0 0.8504,0.3793 0.8504,0.8504 v 35.2992 c 0,0.4711 -0.3792,0.8504 -0.8504,0.8504 h -0.2992 c -0.4711,0 -0.8504,-0.3793 -0.8504,-0.8504 v -35.2992 c 0,-0.4711 0.3793,-0.8504 0.8504,-0.8504 z"
         style="fill:none;fill-opacity:1;stroke:#000000;stroke-width:0.189;stroke-linecap:round;stroke-linejoin:round;stroke-miterlimit:4;stroke-dasharray:none;stroke-opacity:1;paint-order:stroke fill markers"
         id="path9469" />
    </g>
    <polygon
       points="49.375,100.588 49.375,97.488 48.575,97.488 48.575,96.488 34.575,96.488 34.575,97.488 33.776,97.488 33.776,100.588 34.575,100.588 34.575,106.388 33.776,106.388 33.776,109.488 34.575,109.488 34.575,110.488 48.575,110.488 48.575,109.488 49.375,109.488 49.375,106.388 48.575,106.388 48.575,100.588 "
       style="fill:none;stroke:#000000;stroke-width:0.05mm"
       id="polygon9613"
       transform="translate(5.09335,378.94046)" />
    <polygon
       points="48.576,76.775 49.376,76.775 49.376,73.676 48.576,73.676 48.576,72.676 34.576,72.676 34.576,73.676 33.776,73.676 33.776,76.775 34.576,76.775 34.576,82.576 33.776,82.576 33.776,85.676 34.576,85.676 34.576,86.676 48.576,86.676 48.576,85.676 49.376,85.676 49.376,82.576 48.576,82.576 "
       style="fill:none;stroke:#000000;stroke-width:0.05mm"
       id="polygon9637"
       transform="translate(5.09335,383.70249)" />
    <polygon
       points="48.576,57.726 49.376,57.726 49.376,54.626 48.576,54.626 48.576,53.626 34.576,53.626 34.576,54.626 33.776,54.626 33.776,57.726 34.576,57.726 34.576,63.526 33.776,63.526 33.776,66.626 34.576,66.626 34.576,67.626 48.576,67.626 48.576,66.626 49.376,66.626 49.376,63.526 48.576,63.526 "
       style="fill:none;stroke:#000000;stroke-width:0.05mm"
       id="polygon9651"
       transform="translate(5.09335,383.70249)" />
    <path
       d="m 24.39306,396.7014 v 25.99996 9.99991 h 11.59981 v -9.99991 h 2.3001 v 9.99991 h 11.59981 v -9.99991 -25.99996 z"
       style="fill:none;fill-opacity:1;stroke:#000000;stroke-width:0.189;stroke-linecap:round;stroke-linejoin:round;stroke-miterlimit:4;stroke-dasharray:none;stroke-opacity:1;paint-order:stroke fill markers"
       id="path9459-8" />
    <rect
       y="440.7785"
       x="22.968948"
       height="45.199799"
       width="9.3002005"
       id="rect9910"
       style="fill:none;stroke:#000000;stroke-width:0.189;stroke-linecap:round;stroke-linejoin:round;stroke-miterlimit:4;stroke-dasharray:none;stroke-opacity:1;paint-order:stroke fill markers" />
    <g
       style="fill:none;stroke:#000000;stroke-width:0.189;stroke-miterlimit:4;stroke-dasharray:none;stroke-opacity:1"
       id="g11305">
      <path
         d="m 13.59411,262.49945 -0.27492,0.0108 -0.27285,0.0331 -0.26975,0.0532 -0.26407,0.0749 -0.25838,0.0951 -0.24857,0.11472 -0.24029,0.13436 -0.22893,0.15296 -0.21601,0.17002 -0.20102,0.18655 -0.18707,0.20101 -0.17001,0.216 -0.15296,0.22945 -0.13385,0.23979 -0.11524,0.24908 -0.0951,0.25786 -0.0749,0.26406 -0.0527,0.26977 -0.0331,0.27337 -0.01,0.2749 -0.001,109.01299 0.0109,0.27492 0.0331,0.27284 0.0527,0.26924 0.0749,0.26509 0.0951,0.25683 0.11524,0.25014 0.13384,0.23976 0.15296,0.22789 0.17002,0.216 0.18706,0.20207 0.20103,0.18602 0.21601,0.17106 0.22892,0.15192 0.2403,0.13542 0.24856,0.11472 0.25838,0.0951 0.26407,0.0739 0.26975,0.0543 0.27285,0.032 0.27492,0.0109 h 180.713 v -12.76305 -19.04897 h 4.7625 v -19.05206 h -9.525 v -19.05 h -4.7625 v -19.04794 h 3.74241 5.78259 v -19.0531 -7.99795 z"
         style="fill:none;stroke:#000000;stroke-width:0.189;stroke-miterlimit:4;stroke-dasharray:none;stroke-opacity:1"
         id="path9953" />
      <g
         style="fill:none;stroke:#000000;stroke-width:0.189;stroke-miterlimit:4;stroke-dasharray:none;stroke-opacity:1"
         id="g11268">
        <polygon
           transform="translate(5.09335,252.73745)"
           id="polygon9955"
           style="fill:none;stroke:#000000;stroke-width:0.189;stroke-miterlimit:4;stroke-dasharray:none;stroke-opacity:1"
           points="34.575,109.488 34.575,110.488 48.575,110.488 48.575,109.488 49.375,109.488 49.375,106.388 48.575,106.388 48.575,100.588 49.375,100.588 49.375,97.488 48.575,97.488 48.575,96.488 34.575,96.488 34.575,97.488 33.776,97.488 33.776,100.588 34.575,100.588 34.575,106.388 33.776,106.388 33.776,109.488 " />
        <polygon
           transform="translate(5.09335,257.49948)"
           id="polygon9957"
           style="fill:none;stroke:#000000;stroke-width:0.189;stroke-miterlimit:4;stroke-dasharray:none;stroke-opacity:1"
           points="33.776,85.676 34.576,85.676 34.576,86.676 48.576,86.676 48.576,85.676 49.376,85.676 49.376,82.576 48.576,82.576 48.576,76.775 49.376,76.775 49.376,73.676 48.576,73.676 48.576,72.676 34.576,72.676 34.576,73.676 33.776,73.676 33.776,76.775 34.576,76.775 34.576,82.576 33.776,82.576 " />
        <polygon
           transform="translate(5.09335,257.49948)"
           id="polygon9959"
           style="fill:none;stroke:#000000;stroke-width:0.189;stroke-miterlimit:4;stroke-dasharray:none;stroke-opacity:1"
           points="33.776,66.626 34.576,66.626 34.576,67.626 48.576,67.626 48.576,66.626 49.376,66.626 49.376,63.526 48.576,63.526 48.576,57.726 49.376,57.726 49.376,54.626 48.576,54.626 48.576,53.626 34.576,53.626 34.576,54.626 33.776,54.626 33.776,57.726 34.576,57.726 34.576,63.526 33.776,63.526 " />
        <path
           id="path10023"
           style="fill:none;fill-opacity:1;stroke:#000000;stroke-width:0.189;stroke-linecap:round;stroke-linejoin:round;stroke-miterlimit:4;stroke-dasharray:none;stroke-opacity:1;paint-order:stroke fill markers"
           d="m 24.39306,270.49839 v 25.99996 9.99991 h 11.59981 v -9.99991 h 2.3001 v 9.99991 h 11.59981 v -9.99991 -25.99996 z" />
        <rect
           style="fill:none;stroke:#000000;stroke-width:0.189;stroke-linecap:round;stroke-linejoin:round;stroke-miterlimit:4;stroke-dasharray:none;stroke-opacity:1;paint-order:stroke fill markers"
           id="rect10025"
           width="9.3002005"
           height="45.199799"
           x="22.968948"
           y="314.57547" />
        <path
           transform="scale(0.26458333)"
           d="m 304.17969,1241.0605 v 6.8438 h -19.25391 -5.76367 v -5.3633 h -25.51172 v 10.9238 12.2071 h -3.11719 v 10.582 h 3.11719 v 3.5293 20.166 14.4766 h 14.5332 v 5.4785 h -19.2539 v 3.7793 h -3.02344 v 11.7168 h 3.02344 v 21.9219 h -3.02344 v 11.7148 h 3.02344 v 3.7813 h 19.2539 v 6.8437 h 14.4043 v -6.8437 h 19.25391 v -3.7813 h 3.02343 v -11.7148 h -3.02343 v -21.9219 h 3.02343 v -11.7168 h -3.02343 v -3.7793 h -19.25391 v -5.4785 h 75.59766 v 5.4804 h -19.25391 v 3.7793 h -3.02344 v 11.7168 h 3.02344 v 21.9219 h -3.02344 v 11.7149 h 3.02344 v 3.7812 h 19.25391 v 6.8438 h 14.40429 v -6.8438 h 19.25391 v -3.7812 h 3.02344 v -11.7149 h -3.02344 v -21.9219 h 3.02344 v -11.7168 h -3.02344 v -3.7793 h -19.25391 v -6.8437 h -3.47265 v -13.1133 -20.166 -3.5293 h 3.11719 v -10.582 h -3.11719 v -12.2071 -10.9238 h -25.51172 v 5.3633 h -5.76367 -19.25391 v -6.8438 z"
           style="fill:none;stroke:#000000;stroke-width:0.714331;stroke-miterlimit:4;stroke-dasharray:none;stroke-opacity:1"
           id="path10208" />
        <path
           id="path10277"
           style="fill:none;stroke:#000000;stroke-width:0.189;stroke-miterlimit:4;stroke-dasharray:none;stroke-opacity:1"
           d="m 149.53856,347.41374 v 1.81074 h -5.09426 -1.52498 v -1.41904 h -6.74997 v 2.89027 3.22977 h -0.82476 v 2.79983 h 0.82476 v 0.9338 5.33559 3.83026 h 30.55059 v -3.83026 -5.33559 -0.9338 h 0.82476 v -2.79983 h -0.82476 v -3.22977 -2.89027 h -6.74997 v 1.41904 h -1.52498 -5.09426 v -1.81074 z" />
        <path
           id="path10061-3"
           d="m 68.57561,271.21473 v 1.81074 h -5.09426 v 0.99994 h -0.79994 v 3.10007 h 0.79994 v 5.80017 h -0.79994 v 3.09955 h 0.79994 v 1.00045 h 5.09426 v 1.81074 h 3.81114 v -1.81074 h 5.09426 v -1.00045 h 0.79997 v -3.09955 h -0.79997 v -5.80017 h 0.79997 v -3.10007 h -0.79997 v -0.99994 h -5.09426 v -1.81074 z"
           style="fill:none;stroke:#000000;stroke-width:0.189;stroke-miterlimit:4;stroke-dasharray:none;stroke-opacity:1" />
        <path
           style="fill:none;stroke:#000000;stroke-width:0.189;stroke-miterlimit:4;stroke-dasharray:none;stroke-opacity:1"
           d="m 87.625611,271.21356 v 1.81074 H 82.53135 v 0.99994 h -0.79994 v 3.10007 h 0.79994 v 5.80017 h -0.79994 v 3.09955 h 0.79994 v 1.00045 h 5.094261 v 1.81074 h 3.811139 v -1.81074 h 5.09426 v -1.00045 h 0.79997 v -3.09955 h -0.79997 v -5.80017 h 0.79997 v -3.10007 h -0.79997 v -0.99994 h -5.09426 v -1.81074 z"
           id="path10061-3-5" />
        <path
           style="fill:none;stroke:#000000;stroke-width:0.189;stroke-miterlimit:4;stroke-dasharray:none;stroke-opacity:1"
           d="m 106.67595,271.21356 v 1.81074 h -5.09426 v 0.99994 h -0.79994 v 3.10007 h 0.79994 v 5.80017 h -0.79994 v 3.09955 h 0.79994 v 1.00045 h 5.09426 v 1.81074 h 3.81114 v -1.81074 h 5.09426 v -1.00045 h 0.79997 v -3.09955 h -0.79997 v -5.80017 h 0.79997 v -3.10007 h -0.79997 v -0.99994 h -5.09426 v -1.81074 z"
           id="path10061-3-8" />
        <path
           style="fill:none;stroke:#000000;stroke-width:0.189;stroke-miterlimit:4;stroke-dasharray:none;stroke-opacity:1"
           d="m 125.72561,271.21356 v 1.81074 h -5.09426 v 0.99994 h -0.79994 v 3.10007 h 0.79994 v 5.80017 h -0.79994 v 3.09955 h 0.79994 v 1.00045 h 5.09426 v 1.81074 h 3.81114 v -1.81074 h 5.09426 v -1.00045 h 0.79997 v -3.09955 h -0.79997 v -5.80017 h 0.79997 v -3.10007 h -0.79997 v -0.99994 h -5.09426 v -1.81074 z"
           id="path10061-3-84" />
        <path
           style="fill:none;stroke:#000000;stroke-width:0.189;stroke-miterlimit:4;stroke-dasharray:none;stroke-opacity:1"
           d="m 144.77561,271.21473 v 1.81074 h -5.09426 v 0.99994 h -0.79994 v 3.10007 h 0.79994 v 5.80017 h -0.79994 v 3.09955 h 0.79994 v 1.00045 h 5.09426 v 1.81074 h 3.81114 v -1.81074 h 5.09426 v -1.00045 h 0.79997 v -3.09955 h -0.79997 v -5.80017 h 0.79997 v -3.10007 h -0.79997 v -0.99994 h -5.09426 v -1.81074 z"
           id="path10061-3-3" />
        <path
           style="fill:none;stroke:#000000;stroke-width:0.189;stroke-miterlimit:4;stroke-dasharray:none;stroke-opacity:1"
           d="m 163.82595,271.21356 v 1.81074 h -5.09426 v 0.99994 h -0.79994 v 3.10007 h 0.79994 v 5.80017 h -0.79994 v 3.09955 h 0.79994 v 1.00045 h 5.09426 v 1.81074 h 3.81114 v -1.81074 h 5.09426 v -1.00045 h 0.79997 v -3.09955 h -0.79997 v -5.80017 h 0.79997 v -3.10007 h -0.79997 v -0.99994 h -5.09426 v -1.81074 z"
           id="path10061-3-1" />
        <path
           style="fill:none;stroke:#000000;stroke-width:0.189;stroke-miterlimit:4;stroke-dasharray:none;stroke-opacity:1"
           d="m 182.87561,271.21356 v 1.81074 h -5.09426 v 0.99994 h -0.79994 v 3.10007 h 0.79994 v 5.80017 h -0.79994 v 3.09955 h 0.79994 v 1.00045 h 5.09426 v 1.81074 h 3.81114 v -1.81074 h 5.09426 v -1.00045 h 0.79997 v -3.09955 h -0.79997 v -5.80017 h 0.79997 v -3.10007 h -0.79997 v -0.99994 h -5.09426 v -1.81074 z"
           id="path10061-3-2" />
        <path
           style="fill:none;stroke:#000000;stroke-width:0.189;stroke-miterlimit:4;stroke-dasharray:none;stroke-opacity:1"
           d="m 173.35095,290.26473 v 1.81074 h -5.09426 v 0.99994 h -0.79994 v 3.10007 h 0.79994 v 5.80017 h -0.79994 v 3.09955 h 0.79994 v 1.00045 h 5.09426 v 1.81074 h 3.81114 v -1.81074 h 5.09426 v -1.00045 h 0.79997 v -3.09955 h -0.79997 v -5.80017 h 0.79997 v -3.10007 h -0.79997 v -0.99994 h -5.09426 v -1.81074 z"
           id="path10061-3-4" />
        <path
           style="fill:none;stroke:#000000;stroke-width:0.189;stroke-miterlimit:4;stroke-dasharray:none;stroke-opacity:1"
           d="m 154.30095,290.26456 v 1.81074 h -5.09426 v 0.99994 h -0.79994 v 3.10007 h 0.79994 v 5.80017 h -0.79994 v 3.09955 h 0.79994 v 1.00045 h 5.09426 v 1.81074 h 3.81114 v -1.81074 h 5.09426 v -1.00045 h 0.79997 v -3.09955 h -0.79997 v -5.80017 h 0.79997 v -3.10007 h -0.79997 v -0.99994 h -5.09426 v -1.81074 z"
           id="path10061-3-59" />
        <path
           style="fill:none;stroke:#000000;stroke-width:0.189;stroke-miterlimit:4;stroke-dasharray:none;stroke-opacity:1"
           d="m 135.25095,290.26456 v 1.81074 h -5.09426 v 0.99994 h -0.79994 v 3.10007 h 0.79994 v 5.80017 h -0.79994 v 3.09955 h 0.79994 v 1.00045 h 5.09426 v 1.81074 h 3.81114 v -1.81074 h 5.09426 v -1.00045 h 0.79997 v -3.09955 h -0.79997 v -5.80017 h 0.79997 v -3.10007 h -0.79997 v -0.99994 h -5.09426 v -1.81074 z"
           id="path10061-3-6" />
        <path
           style="fill:none;stroke:#000000;stroke-width:0.189;stroke-miterlimit:4;stroke-dasharray:none;stroke-opacity:1"
           d="m 116.20096,290.26473 v 1.81074 h -5.09426 v 0.99994 h -0.79995 v 3.10007 h 0.79995 v 5.80017 h -0.79995 v 3.09955 h 0.79995 v 1.00045 h 5.09426 v 1.81074 h 3.81113 v -1.81074 h 5.09426 v -1.00045 h 0.79997 v -3.09955 h -0.79997 v -5.80017 h 0.79997 v -3.10007 h -0.79997 v -0.99994 h -5.09426 v -1.81074 z"
           id="path10061-3-48" />
        <path
           style="fill:none;stroke:#000000;stroke-width:0.189;stroke-miterlimit:4;stroke-dasharray:none;stroke-opacity:1"
           d="m 97.150952,290.26456 v 1.81074 h -5.094261 v 0.99994 h -0.79994 v 3.10007 h 0.79994 v 5.80017 h -0.79994 v 3.09955 h 0.79994 v 1.00045 h 5.094261 v 1.81074 h 3.811138 v -1.81074 h 5.09426 v -1.00045 h 0.79997 v -3.09955 h -0.79997 v -5.80017 h 0.79997 v -3.10007 h -0.79997 v -0.99994 h -5.09426 v -1.81074 z"
           id="path10061-3-7" />
        <path
           style="fill:none;stroke:#000000;stroke-width:0.189;stroke-miterlimit:4;stroke-dasharray:none;stroke-opacity:1"
           d="m 73.33861,290.26456 v 1.81074 h -5.09426 v 0.99994 h -0.79994 v 3.10007 h 0.79994 v 5.80017 h -0.79994 v 3.09955 h 0.79994 v 1.00045 h 5.09426 v 1.81074 h 3.81114 v -1.81074 h 5.09426 v -1.00045 h 0.79997 v -3.09955 h -0.79997 v -5.80017 h 0.79997 v -3.10007 h -0.79997 v -0.99994 h -5.09426 v -1.81074 z"
           id="path10061-3-57" />
        <path
           style="fill:none;stroke:#000000;stroke-width:0.189;stroke-miterlimit:4;stroke-dasharray:none;stroke-opacity:1"
           d="m 75.71995,309.31456 v 1.81074 h -5.09426 v 0.99994 h -0.79994 v 3.10007 h 0.79994 v 5.80017 h -0.79994 v 3.09955 h 0.79994 v 1.00045 h 5.09426 v 1.81074 h 3.81114 v -1.81074 h 5.09426 v -1.00045 h 0.79997 v -3.09955 h -0.79997 v -5.80017 h 0.79997 v -3.10007 h -0.79997 v -0.99994 h -5.09426 v -1.81074 z"
           id="path10061-3-36" />
        <path
           style="fill:none;stroke:#000000;stroke-width:0.189;stroke-miterlimit:4;stroke-dasharray:none;stroke-opacity:1"
           d="m 101.91361,309.31456 v 1.81074 h -5.09426 v 0.99994 h -0.79994 v 3.10007 h 0.79994 v 5.80017 h -0.79994 v 3.09955 h 0.79994 v 1.00045 h 5.09426 v 1.81074 h 3.81114 v -1.81074 h 5.09426 v -1.00045 h 0.79997 v -3.09955 h -0.79997 v -5.80017 h 0.79997 v -3.10007 h -0.79997 v -0.99994 h -5.09426 v -1.81074 z"
           id="path10061-3-367" />
        <path
           style="fill:none;stroke:#000000;stroke-width:0.189;stroke-miterlimit:4;stroke-dasharray:none;stroke-opacity:1"
           d="m 120.96261,309.31456 v 1.81074 h -5.09426 v 0.99994 h -0.79994 v 3.10007 h 0.79994 v 5.80017 h -0.79994 v 3.09955 h 0.79994 v 1.00045 h 5.09426 v 1.81074 h 3.81114 v -1.81074 h 5.09426 v -1.00045 h 0.79997 v -3.09955 h -0.79997 v -5.80017 h 0.79997 v -3.10007 h -0.79997 v -0.99994 h -5.09426 v -1.81074 z"
           id="path10061-3-62" />
        <path
           style="fill:none;stroke:#000000;stroke-width:0.189;stroke-miterlimit:4;stroke-dasharray:none;stroke-opacity:1"
           d="m 140.01261,309.31456 v 1.81074 h -5.09426 v 0.99994 h -0.79994 v 3.10007 h 0.79994 v 5.80017 h -0.79994 v 3.09955 h 0.79994 v 1.00045 h 5.09426 v 1.81074 h 3.81114 v -1.81074 h 5.09426 v -1.00045 h 0.79997 v -3.09955 h -0.79997 v -5.80017 h 0.79997 v -3.10007 h -0.79997 v -0.99994 h -5.09426 v -1.81074 z"
           id="path10061-3-72" />
        <path
           style="fill:none;stroke:#000000;stroke-width:0.189;stroke-miterlimit:4;stroke-dasharray:none;stroke-opacity:1"
           d="m 159.06361,309.31456 v 1.81074 h -5.09426 v 0.99994 h -0.79994 v 3.10007 h 0.79994 v 5.80017 h -0.79994 v 3.09955 h 0.79994 v 1.00045 h 5.09426 v 1.81074 h 3.81114 v -1.81074 h 5.09426 v -1.00045 h 0.79997 v -3.09955 h -0.79997 v -5.80017 h 0.79997 v -3.10007 h -0.79997 v -0.99994 h -5.09426 v -1.81074 z"
           id="path10061-3-63" />
        <path
           style="fill:none;stroke:#000000;stroke-width:0.189;stroke-miterlimit:4;stroke-dasharray:none;stroke-opacity:1"
           d="m 178.11361,309.31473 v 1.81074 h -5.09426 v 0.99994 h -0.79994 v 3.10007 h 0.79994 v 5.80017 h -0.79994 v 3.09955 h 0.79994 v 1.00045 h 5.09426 v 1.81074 h 3.81114 v -1.81074 h 5.09426 v -1.00045 h 0.79997 v -3.09955 h -0.79997 v -5.80017 h 0.79997 v -3.10007 h -0.79997 v -0.99994 h -5.09426 v -1.81074 z"
           id="path10061-3-11" />
        <path
           style="fill:none;stroke:#000000;stroke-width:0.189;stroke-miterlimit:4;stroke-dasharray:none;stroke-opacity:1"
           d="m 187.63861,328.36373 v 1.81074 h -5.09426 v 0.99994 h -0.79994 v 3.10007 h 0.79994 v 5.80017 h -0.79994 v 3.09955 h 0.79994 v 1.00045 h 5.09426 v 1.81074 h 3.81114 v -1.81074 h 5.09426 v -1.00045 h 0.79997 v -3.09955 h -0.79997 v -5.80017 h 0.79997 v -3.10007 h -0.79997 v -0.99994 h -5.09426 v -1.81074 z"
           id="path10061-3-484" />
        <path
           style="fill:none;stroke:#000000;stroke-width:0.189;stroke-miterlimit:4;stroke-dasharray:none;stroke-opacity:1"
           d="m 168.58895,328.36456 v 1.81074 h -5.09426 v 0.99994 h -0.79994 v 3.10007 h 0.79994 v 5.80017 h -0.79994 v 3.09955 h 0.79994 v 1.00045 h 5.09426 v 1.81074 h 3.81114 v -1.81074 h 5.09426 v -1.00045 h 0.79997 v -3.09955 h -0.79997 v -5.80017 h 0.79997 v -3.10007 h -0.79997 v -0.99994 h -5.09426 v -1.81074 z"
           id="path10061-3-573" />
        <path
           style="fill:none;stroke:#000000;stroke-width:0.189;stroke-miterlimit:4;stroke-dasharray:none;stroke-opacity:1"
           d="m 149.53895,328.36456 v 1.81074 h -5.09426 v 0.99994 h -0.79994 v 3.10007 h 0.79994 v 5.80017 h -0.79994 v 3.09955 h 0.79994 v 1.00045 h 5.09426 v 1.81074 h 3.81114 v -1.81074 h 5.09426 v -1.00045 h 0.79997 v -3.09955 h -0.79997 v -5.80017 h 0.79997 v -3.10007 h -0.79997 v -0.99994 h -5.09426 v -1.81074 z"
           id="path10061-3-75" />
        <path
           style="fill:none;stroke:#000000;stroke-width:0.189;stroke-miterlimit:4;stroke-dasharray:none;stroke-opacity:1"
           d="m 130.48895,328.36373 v 1.81074 h -5.09426 v 0.99994 h -0.79994 v 3.10007 h 0.79994 v 5.80017 h -0.79994 v 3.09955 h 0.79994 v 1.00045 h 5.09426 v 1.81074 h 3.81114 v -1.81074 h 5.09426 v -1.00045 h 0.79997 v -3.09955 h -0.79997 v -5.80017 h 0.79997 v -3.10007 h -0.79997 v -0.99994 h -5.09426 v -1.81074 z"
           id="path10061-3-368" />
        <path
           style="fill:none;stroke:#000000;stroke-width:0.189;stroke-miterlimit:4;stroke-dasharray:none;stroke-opacity:1"
           d="m 111.43895,328.36456 v 1.81074 h -5.09426 v 0.99994 h -0.79994 v 3.10007 h 0.79994 v 5.80017 h -0.79994 v 3.09955 h 0.79994 v 1.00045 h 5.09426 v 1.81074 h 3.81114 v -1.81074 h 5.09426 v -1.00045 h 0.79997 v -3.09955 h -0.79997 v -5.80017 h 0.79997 v -3.10007 h -0.79997 v -0.99994 h -5.09426 v -1.81074 z"
           id="path10061-3-17" />
        <path
           style="fill:none;stroke:#000000;stroke-width:0.189;stroke-miterlimit:4;stroke-dasharray:none;stroke-opacity:1"
           d="m 180.49461,347.41373 v 1.81074 h -5.09426 v 0.99994 h -0.79994 v 3.10007 h 0.79994 v 5.80017 h -0.79994 v 3.09955 h 0.79994 v 1.00045 h 5.09426 v 1.81074 h 3.81114 v -1.81074 h 5.09426 v -1.00045 h 0.79997 v -3.09955 h -0.79997 v -5.80017 h 0.79997 v -3.10007 h -0.79997 v -0.99994 h -5.09426 v -1.81074 z"
           id="path10061-3-0" />
        <path
           style="fill:none;stroke:#000000;stroke-width:0.189;stroke-miterlimit:4;stroke-dasharray:none;stroke-opacity:1"
           d="m 118.58161,347.41373 v 1.81074 h -5.09426 v 0.99994 h -0.79994 v 3.10007 h 0.79994 v 5.80017 h -0.79994 v 3.09955 h 0.79994 v 1.00045 h 5.09426 v 1.81074 h 3.81114 v -1.81074 h 5.09426 v -1.00045 h 0.79997 v -3.09955 h -0.79997 v -5.80017 h 0.79997 v -3.10007 h -0.79997 v -0.99994 h -5.09426 v -1.81074 z"
           id="path10061-3-02" />
      </g>
    </g>
    <g
       id="g12571">
      <path
         style="fill:none;stroke:#000000;stroke-width:0.0499999mm"
         d="m 204.60327,388.70349 v 5.3e-4 7.99899 6.0477 13.00333 h -6.01824 -3.50676 v 19.05207 h 4.76301 v 19.05 h 9.525 v 19.04793 h -4.76301 v 14.2503 4.80074 12.76253 h 180.71608 l 0.27493,-0.0109 0.27287,-0.032 0.26921,-0.0543 0.26458,-0.0739 0.25736,-0.0951 0.24958,-0.11472 0.24033,-0.13488 0.22788,-0.15193 0.21601,-0.17105 0.20206,-0.18603 0.18603,-0.20206 0.17105,-0.216 0.15193,-0.2279 0.13488,-0.24029 0.11523,-0.25012 0.0951,-0.25683 0.0739,-0.2651 0.0537,-0.26872 0.032,-0.27337 0.0114,-0.27491 V 392.20456 l -0.0114,-0.27491 -0.032,-0.27285 -0.0537,-0.27027 -0.0739,-0.26407 -0.0951,-0.25786 -0.11523,-0.24909 -0.13488,-0.23977 -0.15193,-0.22893 -0.17105,-0.21601 -0.18603,-0.20102 -0.20206,-0.18707 -0.21601,-0.17001 -0.22788,-0.15297 -0.24033,-0.13384 -0.24958,-0.11523 -0.25736,-0.0951 -0.26458,-0.0749 -0.26921,-0.0527 -0.27287,-0.0331 -0.27493,-0.0104 z"
         id="path4118" />
      <g
         id="g12382"
         transform="translate(393.81777,-72.3096)">
        <polygon
           transform="translate(-384.71261,464.01329)"
           id="polygon12015"
           style="fill:none;stroke:#000000;stroke-width:0.05mm"
           points="355.188,88.488 355.188,102.488 369.188,102.488 369.188,88.488 " />
        <polygon
           transform="translate(-384.71261,464.01329)"
           id="polygon12017"
           style="fill:none;stroke:#000000;stroke-width:0.05mm"
           points="336.138,88.488 336.138,102.488 350.138,102.488 350.138,88.488 " />
        <polygon
           transform="translate(-384.71261,464.01329)"
           id="polygon12019"
           style="fill:none;stroke:#000000;stroke-width:0.05mm"
           points="317.088,88.488 317.088,102.488 331.088,102.488 331.088,88.488 " />
        <polygon
           transform="translate(-384.71261,464.01329)"
           id="polygon12021"
           style="fill:none;stroke:#000000;stroke-width:0.05mm"
           points="237.794,91.226 237.794,88.426 236.969,88.426 236.969,85.196 230.219,85.196 230.219,88.426 228.694,88.426 228.694,83.726 214.694,83.726 214.694,88.426 213.169,88.426 213.169,85.196 206.419,85.196 206.419,88.426 205.594,88.426 205.594,91.226 206.419,91.226 206.419,97.495 208.144,97.495 208.144,98.696 211.444,98.696 211.444,97.495 213.169,97.495 213.169,93.025 214.694,93.025 214.694,97.726 228.694,97.726 228.694,93.025 230.219,93.025 230.219,97.495 231.944,97.495 231.944,98.696 235.244,98.696 235.244,97.495 236.969,97.495 236.969,91.226 " />
        <polygon
           transform="translate(-384.71261,464.01329)"
           id="polygon12025"
           style="fill:none;stroke:#000000;stroke-width:0.05mm"
           points="293.276,83.726 293.276,97.726 307.276,97.726 307.276,83.726 " />
        <polygon
           transform="translate(-384.71261,464.01329)"
           id="polygon12027"
           style="fill:none;stroke:#000000;stroke-width:0.05mm"
           points="274.226,83.726 274.226,97.726 288.226,97.726 288.226,83.726 " />
        <polygon
           transform="translate(-384.71261,464.01329)"
           id="polygon12029"
           style="fill:none;stroke:#000000;stroke-width:0.05mm"
           points="252.794,83.726 252.794,97.726 266.794,97.726 266.794,83.726 " />
        <polygon
           transform="translate(-384.71261,464.01329)"
           id="polygon12043"
           style="fill:none;stroke:#000000;stroke-width:0.05mm"
           points="336.138,69.438 336.138,83.438 350.138,83.438 350.138,69.438 " />
        <polygon
           transform="translate(-384.71261,464.01329)"
           id="polygon12047"
           style="fill:none;stroke:#000000;stroke-width:0.05mm"
           points="305.182,64.676 305.182,78.676 319.182,78.676 319.182,64.676 " />
        <polygon
           transform="translate(-384.71261,464.01329)"
           id="polygon12049"
           style="fill:none;stroke:#000000;stroke-width:0.05mm"
           points="278.988,64.676 278.988,78.676 292.988,78.676 292.988,64.676 " />
        <polygon
           transform="translate(-384.71261,464.01329)"
           id="polygon12051"
           style="fill:none;stroke:#000000;stroke-width:0.05mm"
           points="259.938,64.676 259.938,78.676 273.938,78.676 273.938,64.676 " />
        <polygon
           transform="translate(-384.71261,464.01329)"
           id="polygon12053"
           style="fill:none;stroke:#000000;stroke-width:0.05mm"
           points="240.888,64.676 240.888,78.676 254.888,78.676 254.888,64.676 " />
        <polygon
           transform="translate(-384.71261,464.01329)"
           id="polygon12055"
           style="fill:none;stroke:#000000;stroke-width:0.05mm"
           points="221.838,64.676 221.838,78.676 235.838,78.676 235.838,64.676 " />
        <polygon
           transform="translate(-384.71261,464.01329)"
           id="polygon12057"
           style="fill:none;stroke:#000000;stroke-width:0.05mm"
           points="202.788,64.676 202.788,78.676 216.788,78.676 216.788,64.676 " />
        <polygon
           transform="translate(-384.71261,464.01329)"
           id="polygon12073"
           style="fill:none;stroke:#000000;stroke-width:0.05mm"
           points="342.569,53.126 342.569,50.326 341.744,50.326 341.744,47.096 334.994,47.096 334.994,50.326 333.469,50.326 333.469,45.626 319.469,45.626 319.469,50.326 317.944,50.326 317.944,47.096 311.194,47.096 311.194,50.326 310.369,50.326 310.369,53.126 311.194,53.126 311.194,59.395 312.919,59.395 312.919,60.596 316.219,60.596 316.219,59.395 317.944,59.395 317.944,54.926 319.469,54.926 319.469,59.626 333.469,59.626 333.469,54.926 334.994,54.926 334.994,59.395 336.719,59.395 336.719,60.596 340.019,60.596 340.019,59.395 341.744,59.395 341.744,53.126 " />
        <polygon
           transform="translate(-384.71261,464.01329)"
           id="polygon12075"
           style="fill:none;stroke:#000000;stroke-width:0.05mm"
           points="355.188,45.626 355.188,59.626 369.188,59.626 369.188,45.626 " />
        <polygon
           transform="translate(-384.71261,464.01329)"
           id="polygon12077"
           style="fill:none;stroke:#000000;stroke-width:0.05mm"
           points="288.513,45.626 288.513,59.626 302.513,59.626 302.513,45.626 " />
        <polygon
           transform="translate(-384.71261,464.01329)"
           id="polygon12079"
           style="fill:none;stroke:#000000;stroke-width:0.05mm"
           points="269.463,45.626 269.463,59.626 283.463,59.626 283.463,45.626 " />
        <polygon
           transform="translate(-384.71261,464.01329)"
           id="polygon12081"
           style="fill:none;stroke:#000000;stroke-width:0.05mm"
           points="250.413,45.626 250.413,59.626 264.413,59.626 264.413,45.626 " />
        <polygon
           transform="translate(-384.71261,464.01329)"
           id="polygon12083"
           style="fill:none;stroke:#000000;stroke-width:0.05mm"
           points="231.363,45.626 231.363,59.626 245.363,59.626 245.363,45.626 " />
        <polygon
           transform="translate(-384.71261,464.01329)"
           id="polygon12085"
           style="fill:none;stroke:#000000;stroke-width:0.05mm"
           points="212.313,45.626 212.313,59.626 226.313,59.626 226.313,45.626 " />
        <polygon
           transform="translate(-384.71261,464.01329)"
           id="polygon12087"
           style="fill:none;stroke:#000000;stroke-width:0.05mm"
           points="193.263,45.626 193.263,59.626 207.263,59.626 207.263,45.626 " />
        <polygon
           transform="translate(-384.71261,464.01329)"
           id="polygon12105"
           style="fill:none;stroke:#000000;stroke-width:0.05mm"
           points="355.188,26.576 355.188,40.576 369.188,40.576 369.188,26.576 " />
        <polygon
           transform="translate(-384.71261,464.01329)"
           id="polygon12107"
           style="fill:none;stroke:#000000;stroke-width:0.05mm"
           points="326.613,26.576 326.613,40.576 340.613,40.576 340.613,26.576 " />
        <polygon
           transform="translate(-384.71261,464.01329)"
           id="polygon12109"
           style="fill:none;stroke:#000000;stroke-width:0.05mm"
           points="302.801,26.576 302.801,40.576 316.801,40.576 316.801,26.576 " />
        <polygon
           transform="translate(-384.71261,464.01329)"
           id="polygon12111"
           style="fill:none;stroke:#000000;stroke-width:0.05mm"
           points="283.751,26.576 283.751,40.576 297.751,40.576 297.751,26.576 " />
        <polygon
           transform="translate(-384.71261,464.01329)"
           id="polygon12113"
           style="fill:none;stroke:#000000;stroke-width:0.05mm"
           points="264.701,26.576 264.701,40.576 278.701,40.576 278.701,26.576 " />
        <polygon
           transform="translate(-384.71261,464.01329)"
           id="polygon12115"
           style="fill:none;stroke:#000000;stroke-width:0.05mm"
           points="245.651,26.576 245.651,40.576 259.65,40.576 259.65,26.576 " />
        <polygon
           transform="translate(-384.71261,464.01329)"
           id="polygon12117"
           style="fill:none;stroke:#000000;stroke-width:0.05mm"
           points="226.601,26.576 226.601,40.576 240.601,40.576 240.601,26.576 " />
        <polygon
           transform="translate(-384.71261,464.01329)"
           id="polygon12119"
           style="fill:none;stroke:#000000;stroke-width:0.05mm"
           points="207.551,26.576 207.551,40.576 221.551,40.576 221.551,26.576 " />
        <polygon
           transform="translate(-384.71261,464.01329)"
           id="polygon12121"
           style="fill:none;stroke:#000000;stroke-width:0.05mm"
           points="188.501,26.576 188.501,40.576 202.501,40.576 202.501,26.576 " />
        <polygon
           transform="translate(-384.71261,464.01329)"
           id="polygon12139"
           style="fill:none;stroke:#000000;stroke-width:0.05mm"
           points="344.951,15.026 344.951,12.226 344.126,12.226 344.126,8.996 337.376,8.996 337.376,12.226 335.851,12.226 335.851,7.526 321.851,7.526 321.851,12.226 320.326,12.226 320.326,8.996 313.576,8.996 313.576,12.226 312.751,12.226 312.751,15.026 313.576,15.026 313.576,21.296 315.301,21.296 315.301,22.496 318.601,22.496 318.601,21.296 320.326,21.296 320.326,16.826 321.851,16.826 321.851,21.526 335.851,21.526 335.851,16.826 337.376,16.826 337.376,21.296 339.101,21.296 339.101,22.496 342.401,22.496 342.401,21.296 344.126,21.296 344.126,15.026 " />
        <polygon
           transform="translate(-384.71261,464.01329)"
           id="polygon12141"
           style="fill:none;stroke:#000000;stroke-width:0.05mm"
           points="355.188,7.526 355.188,21.526 369.188,21.526 369.188,7.526 " />
        <polygon
           transform="translate(-384.71261,464.01329)"
           id="polygon12143"
           style="fill:none;stroke:#000000;stroke-width:0.05mm"
           points="293.276,7.526 293.276,21.526 307.276,21.526 307.276,7.526 " />
        <polygon
           transform="translate(-384.71261,464.01329)"
           id="polygon12145"
           style="fill:none;stroke:#000000;stroke-width:0.05mm"
           points="274.226,7.526 274.226,21.526 288.226,21.526 288.226,7.526 " />
        <polygon
           transform="translate(-384.71261,464.01329)"
           id="polygon12147"
           style="fill:none;stroke:#000000;stroke-width:0.05mm"
           points="255.176,7.526 255.176,21.526 269.176,21.526 269.176,7.526 " />
        <polygon
           transform="translate(-384.71261,464.01329)"
           id="polygon12149"
           style="fill:none;stroke:#000000;stroke-width:0.05mm"
           points="236.126,7.526 236.126,21.526 250.126,21.526 250.126,7.526 " />
        <polygon
           transform="translate(-384.71261,464.01329)"
           id="polygon12151"
           style="fill:none;stroke:#000000;stroke-width:0.05mm"
           points="217.076,7.526 217.076,21.526 231.076,21.526 231.076,7.526 " />
        <polygon
           transform="translate(-384.71261,464.01329)"
           id="polygon12153"
           style="fill:none;stroke:#000000;stroke-width:0.05mm"
           points="198.026,7.526 198.026,21.526 212.026,21.526 212.026,7.526 " />
      </g>
    </g>
    <g
       id="g12485">
      <path
         id="polygon9607"
         style="fill:none;stroke:#000000;stroke-width:0.0499999mm"
         d="m 13.59411,388.70246 -0.27492,0.0108 -0.27285,0.0331 -0.26975,0.0532 -0.26407,0.0749 -0.25838,0.0951 -0.24857,0.11472 -0.24029,0.13436 -0.22893,0.15296 -0.21601,0.17002 -0.20102,0.18655 -0.18707,0.20101 -0.17001,0.216 -0.15296,0.22945 -0.13385,0.23979 -0.11524,0.24908 -0.0951,0.25786 -0.0749,0.26406 -0.0527,0.26977 -0.0331,0.27337 -0.01,0.2749 -0.001,109.01299 0.0109,0.27492 0.0331,0.27284 0.0527,0.26924 0.0749,0.26509 0.0951,0.25683 0.11524,0.25014 0.13384,0.23976 0.15296,0.22789 0.17002,0.216 0.18706,0.20207 0.20103,0.18602 0.21601,0.17106 0.22892,0.15192 0.2403,0.13542 0.24856,0.11472 0.25838,0.0951 0.26407,0.0739 0.26975,0.0543 0.27285,0.032 0.27492,0.0109 h 180.713 v -12.76305 -19.04897 h 4.7625 v -19.05206 h -9.525 v -19.05 h -4.7625 v -19.04794 h 3.74241 5.78259 v -19.0531 -7.99795 z" />
      <g
         id="g12414"
         transform="translate(397.80596,-72.310796)">
        <polygon
           transform="translate(-384.71261,464.01329)"
           id="polygon12023"
           style="fill:none;stroke:#000000;stroke-width:0.05mm"
           points="154.451,88.426 153.626,88.426 153.626,85.196 146.876,85.196 146.876,88.426 145.351,88.426 145.351,83.726 131.351,83.726 131.351,88.426 129.825,88.426 129.825,85.196 123.076,85.196 123.076,88.426 122.251,88.426 122.251,91.226 123.076,91.226 123.076,97.495 124.801,97.495 124.801,98.696 128.101,98.696 128.101,97.495 129.825,97.495 129.825,93.025 131.351,93.025 131.351,97.726 145.351,97.726 145.351,93.025 146.876,93.025 146.876,97.495 148.601,97.495 148.601,98.696 151.901,98.696 151.901,97.495 153.626,97.495 153.626,91.226 154.451,91.226 " />
        <polygon
           transform="translate(-384.71261,464.01329)"
           id="polygon12031"
           style="fill:none;stroke:#000000;stroke-width:0.05mm"
           points="162.307,97.726 176.307,97.726 176.307,83.726 162.307,83.726 " />
        <polygon
           transform="translate(-384.71261,464.01329)"
           id="polygon12033"
           style="fill:none;stroke:#000000;stroke-width:0.05mm"
           points="100.394,97.726 114.394,97.726 114.394,83.726 100.394,83.726 " />
        <polygon
           transform="translate(-384.71261,464.01329)"
           id="polygon12035"
           style="fill:none;stroke:#000000;stroke-width:0.05mm"
           points="76.582,97.726 90.582,97.726 90.582,83.726 76.582,83.726 " />
        <polygon
           transform="translate(-384.71261,464.01329)"
           id="polygon12037"
           style="fill:none;stroke:#000000;stroke-width:0.05mm"
           points="52.769,97.726 66.769,97.726 66.769,83.726 52.769,83.726 " />
        <polygon
           transform="translate(-384.71261,464.01329)"
           id="polygon12045"
           style="fill:none;stroke:#000000;stroke-width:0.05mm"
           points="85.394,69.376 84.569,69.376 84.569,66.146 77.819,66.146 77.819,69.376 76.294,69.376 76.294,64.676 62.294,64.676 62.294,69.376 60.769,69.376 60.769,66.146 54.019,66.146 54.019,69.376 53.194,69.376 53.194,72.176 54.019,72.176 54.019,78.446 55.744,78.446 55.744,79.646 59.044,79.646 59.044,78.446 60.769,78.446 60.769,73.976 62.294,73.976 62.294,78.676 76.294,78.676 76.294,73.976 77.819,73.976 77.819,78.446 79.544,78.446 79.544,79.646 82.844,79.646 82.844,78.446 84.569,78.446 84.569,72.176 85.394,72.176 " />
        <polygon
           transform="translate(-384.71261,464.01329)"
           id="polygon12059"
           style="fill:none;stroke:#000000;stroke-width:0.05mm"
           points="169.451,78.676 183.451,78.676 183.451,64.676 169.451,64.676 " />
        <polygon
           transform="translate(-384.71261,464.01329)"
           id="polygon12061"
           style="fill:none;stroke:#000000;stroke-width:0.05mm"
           points="150.401,78.676 164.401,78.676 164.401,64.676 150.401,64.676 " />
        <polygon
           transform="translate(-384.71261,464.01329)"
           id="polygon12063"
           style="fill:none;stroke:#000000;stroke-width:0.05mm"
           points="131.351,78.676 145.351,78.676 145.351,64.676 131.351,64.676 " />
        <polygon
           transform="translate(-384.71261,464.01329)"
           id="polygon12065"
           style="fill:none;stroke:#000000;stroke-width:0.05mm"
           points="112.301,78.676 126.301,78.676 126.301,64.676 112.301,64.676 " />
        <polygon
           transform="translate(-384.71261,464.01329)"
           id="polygon12067"
           style="fill:none;stroke:#000000;stroke-width:0.05mm"
           points="93.251,78.676 107.251,78.676 107.251,64.676 93.251,64.676 " />
        <polygon
           transform="translate(-384.71261,464.01329)"
           id="polygon12089"
           style="fill:none;stroke:#000000;stroke-width:0.05mm"
           points="159.926,59.626 173.926,59.626 173.926,45.626 159.926,45.626 " />
        <polygon
           transform="translate(-384.71261,464.01329)"
           id="polygon12091"
           style="fill:none;stroke:#000000;stroke-width:0.05mm"
           points="140.876,59.626 154.876,59.626 154.876,45.626 140.876,45.626 " />
        <polygon
           transform="translate(-384.71261,464.01329)"
           id="polygon12093"
           style="fill:none;stroke:#000000;stroke-width:0.05mm"
           points="121.825,59.626 135.826,59.626 135.826,45.626 121.825,45.626 " />
        <polygon
           transform="translate(-384.71261,464.01329)"
           id="polygon12095"
           style="fill:none;stroke:#000000;stroke-width:0.05mm"
           points="102.775,59.626 116.775,59.626 116.775,45.626 102.775,45.626 " />
        <polygon
           transform="translate(-384.71261,464.01329)"
           id="polygon12097"
           style="fill:none;stroke:#000000;stroke-width:0.05mm"
           points="83.726,59.626 97.726,59.626 97.726,45.626 83.726,45.626 " />
        <polygon
           transform="translate(-384.71261,464.01329)"
           id="polygon12099"
           style="fill:none;stroke:#000000;stroke-width:0.05mm"
           points="57.532,59.626 71.532,59.626 71.532,45.626 57.532,45.626 " />
        <polygon
           transform="translate(-384.71261,464.01329)"
           id="polygon12123"
           style="fill:none;stroke:#000000;stroke-width:0.05mm"
           points="155.163,40.576 169.163,40.576 169.163,26.576 155.163,26.576 " />
        <polygon
           transform="translate(-384.71261,464.01329)"
           id="polygon12125"
           style="fill:none;stroke:#000000;stroke-width:0.05mm"
           points="136.113,40.576 150.113,40.576 150.113,26.576 136.113,26.576 " />
        <polygon
           transform="translate(-384.71261,464.01329)"
           id="polygon12127"
           style="fill:none;stroke:#000000;stroke-width:0.05mm"
           points="117.063,40.576 131.063,40.576 131.063,26.576 117.063,26.576 " />
        <polygon
           transform="translate(-384.71261,464.01329)"
           id="polygon12129"
           style="fill:none;stroke:#000000;stroke-width:0.05mm"
           points="98.013,40.576 112.013,40.576 112.013,26.576 98.013,26.576 " />
        <polygon
           transform="translate(-384.71261,464.01329)"
           id="polygon12131"
           style="fill:none;stroke:#000000;stroke-width:0.05mm"
           points="78.963,40.576 92.963,40.576 92.963,26.576 78.963,26.576 " />
        <polygon
           transform="translate(-384.71261,464.01329)"
           id="polygon12133"
           style="fill:none;stroke:#000000;stroke-width:0.05mm"
           points="55.151,40.576 69.151,40.576 69.151,26.576 55.151,26.576 " />
        <polygon
           transform="translate(-384.71261,464.01329)"
           id="polygon12155"
           style="fill:none;stroke:#000000;stroke-width:0.05mm"
           points="164.688,21.526 178.688,21.526 178.688,7.526 164.688,7.526 " />
        <polygon
           transform="translate(-384.71261,464.01329)"
           id="polygon12157"
           style="fill:none;stroke:#000000;stroke-width:0.05mm"
           points="145.638,21.526 159.638,21.526 159.638,7.526 145.638,7.526 " />
        <polygon
           transform="translate(-384.71261,464.01329)"
           id="polygon12159"
           style="fill:none;stroke:#000000;stroke-width:0.05mm"
           points="126.588,21.526 140.588,21.526 140.588,7.526 126.588,7.526 " />
        <polygon
           transform="translate(-384.71261,464.01329)"
           id="polygon12161"
           style="fill:none;stroke:#000000;stroke-width:0.05mm"
           points="107.538,21.526 121.538,21.526 121.538,7.526 107.538,7.526 " />
        <polygon
           transform="translate(-384.71261,464.01329)"
           id="polygon12163"
           style="fill:none;stroke:#000000;stroke-width:0.05mm"
           points="88.488,21.526 102.488,21.526 102.488,7.526 88.488,7.526 " />
        <polygon
           transform="translate(-384.71261,464.01329)"
           id="polygon12165"
           style="fill:none;stroke:#000000;stroke-width:0.05mm"
           points="69.438,21.526 83.438,21.526 83.438,7.526 69.438,7.526 " />
        <polygon
           transform="translate(-384.71261,464.01329)"
           id="polygon12167"
           style="fill:none;stroke:#000000;stroke-width:0.05mm"
           points="50.388,21.526 64.388,21.526 64.388,7.526 50.388,7.526 " />
      </g>
    </g>
  </g>
</svg>
