  0
SECTION
  2
HEADER
  9
$ACADVER
  1
AC1014
  9
$HANDSEED
  5
FFFF
  9
$MEASUREMENT
 70
     1
  0
ENDSEC
  0
SECTION
  2
TABLES
  0
TABLE
  2
VPORT
  5
8
330
0
100
AcDbSymbolTable
 70
     4
  0
VPORT
  5
2E
330
8
100
AcDbSymbolTableRecord
100
AcDbViewportTableRecord
  2
*ACTIVE
 70
     0
 10
0.0
 20
0.0
 11
1.0
 21
1.0
 12
210.0
 22
148.5
 13
0.0
 23
0.0
 14
10.0
 24
10.0
 15
10.0
 25
10.0
 16
0.0
 26
0.0
 36
1.0
 17
0.0
 27
0.0
 37
0.0
 40
341.0
 41
1.24
 42
50.0
 43
0.0
 44
0.0
 50
0.0
 51
0.0
 71
     0
 72
   100
 73
     1
 74
     3
 75
     0
 76
     0
 77
     0
 78
     0
  0
ENDTAB
  0
TABLE
  2
LTYPE
  5
5
330
0
100
AcDbSymbolTable
 70
     1
  0
LTYPE
  5
14
330
5
100
AcDbSymbolTableRecord
100
AcDbLinetypeTableRecord
  2
BYBLOCK
 70
     0
  3

 72
    65
 73
     0
 40
0.0
  0
LTYPE
  5
15
330
5
100
AcDbSymbolTableRecord
100
AcDbLinetypeTableRecord
  2
BYLAYER
 70
     0
  3

 72
    65
 73
     0
 40
0.0
  0
LTYPE
  5
16
330
5
100
AcDbSymbolTableRecord
100
AcDbLinetypeTableRecord
  2
CONTINUOUS
 70
     0
  3
Solid line
 72
    65
 73
     0
 40
0.0
  0
ENDTAB
  0
TABLE
  2
LAYER
  5
2
100
AcDbSymbolTable
 70
2
  0
LAYER
  5
50
100
AcDbSymbolTableRecord
100
AcDbLayerTableRecord
  2
0
 70
0
  6
CONTINUOUS
  0
LAYER
  5
51
100
AcDbSymbolTableRecord
100
AcDbLayerTableRecord
  2
Layer_1
 70
0
  6
CONTINUOUS
  0
ENDTAB
  0
TABLE
  2
STYLE
  5
3
330
0
100
AcDbSymbolTable
 70
     1
  0
STYLE
  5
11
330
3
100
AcDbSymbolTableRecord
100
AcDbTextStyleTableRecord
  2
STANDARD
 70
     0
 40
0.0
 41
1.0
 50
0.0
 71
     0
 42
2.5
  3
txt
  4

  0
ENDTAB
  0
TABLE
  2
VIEW
  5
6
330
0
100
AcDbSymbolTable
 70
     0
  0
ENDTAB
  0
TABLE
  2
UCS
  5
7
330
0
100
AcDbSymbolTable
 70
     0
  0
ENDTAB
  0
TABLE
  2
APPID
  5
9
330
0
100
AcDbSymbolTable
 70
     2
  0
APPID
  5
12
330
9
100
AcDbSymbolTableRecord
100
AcDbRegAppTableRecord
  2
ACAD
 70
     0
  0
ENDTAB
  0
TABLE
  2
DIMSTYLE
  5
A
330
0
100
AcDbSymbolTable
 70
     1
  0
DIMSTYLE
105
27
330
A
100
AcDbSymbolTableRecord
100
AcDbDimStyleTableRecord
  2
ISO-25
 70
     0
  3

  4

  5

  6

  7

 40
1.0
 41
2.5
 42
0.625
 43
3.75
 44
1.25
 45
0.0
 46
0.0
 47
0.0
 48
0.0
140
2.5
141
2.5
142
0.0
143
0.03937007874016
144
1.0
145
0.0
146
1.0
147
0.625
 71
     0
 72
     0
 73
     0
 74
     0
 75
     0
 76
     0
 77
     1
 78
     8
170
     0
171
     3
172
     1
173
     0
174
     0
175
     0
176
     0
177
     0
178
     0
270
     2
271
     2
272
     2
273
     2
274
     3
340
11
275
     0
280
     0
281
     0
282
     0
283
     0
284
     8
285
     0
286
     0
287
     3
288
     0
  0
ENDTAB
  0
TABLE
  2
BLOCK_RECORD
  5
1
330
0
100
AcDbSymbolTable
 70
     1
  0
BLOCK_RECORD
  5
1F
330
1
100
AcDbSymbolTableRecord
100
AcDbBlockTableRecord
  2
*MODEL_SPACE
  0
BLOCK_RECORD
  5
1B
330
1
100
AcDbSymbolTableRecord
100
AcDbBlockTableRecord
  2
*PAPER_SPACE
  0
ENDTAB
  0
ENDSEC
  0
SECTION
  2
BLOCKS
  0
BLOCK
  5
20
330
1F
100
AcDbEntity
  8
0
100
AcDbBlockBegin
  2
*MODEL_SPACE
 70
     0
 10
0.0
 20
0.0
 30
0.0
  3
*MODEL_SPACE
  1

  0
ENDBLK
  5
21
330
1F
100
AcDbEntity
  8
0
100
AcDbBlockEnd
  0
BLOCK
  5
1C
330
1B
100
AcDbEntity
 67
     1
  8
0
100
AcDbBlockBegin
  2
*PAPER_SPACE
  1

  0
ENDBLK
  5
1D
330
1B
100
AcDbEntity
 67
     1
  8
0
100
AcDbBlockEnd
  0
ENDSEC
  0
SECTION
  2
ENTITIES
  0
LWPOLYLINE
  5
100
100
AcDbEntity
  8
Layer_1
 62
7
100
AcDbPolyline
 90
43
 70
0
 10
52.626940
 20
263.042554
 30
0.0
 10
52.352022
 20
263.031654
 30
0.0
 10
52.079170
 20
262.998554
 30
0.0
 10
51.809419
 20
262.945354
 30
0.0
 10
51.545353
 20
262.870454
 30
0.0
 10
51.286971
 20
262.775354
 30
0.0
 10
51.038407
 20
262.660634
 30
0.0
 10
50.798112
 20
262.526274
 30
0.0
 10
50.569185
 20
262.373324
 30
0.0
 10
50.353177
 20
262.203304
 30
0.0
 10
50.152156
 20
262.016744
 30
0.0
 10
49.965087
 20
261.815734
 30
0.0
 10
49.795072
 20
261.599704
 30
0.0
 10
49.642110
 20
261.370284
 30
0.0
 10
49.508268
 20
261.130494
 30
0.0
 10
49.393029
 20
260.881414
 30
0.0
 10
49.297949
 20
260.623554
 30
0.0
 10
49.223019
 20
260.359474
 30
0.0
 10
49.170309
 20
260.089724
 30
0.0
 10
49.137239
 20
259.816364
 30
0.0
 10
49.127439
 20
259.541434
 30
0.0
 10
49.126439
 20
150.528460
 30
0.0
 10
49.137289
 20
150.253540
 30
0.0
 10
49.170359
 20
149.980700
 30
0.0
 10
49.223069
 20
149.711460
 30
0.0
 10
49.297999
 20
149.446350
 30
0.0
 10
49.393079
 20
149.189510
 30
0.0
 10
49.508317
 20
148.939400
 30
0.0
 10
49.642159
 20
148.699640
 30
0.0
 10
49.795121
 20
148.471730
 30
0.0
 10
49.965137
 20
148.255720
 30
0.0
 10
50.152206
 20
148.053680
 30
0.0
 10
50.353227
 20
147.867630
 30
0.0
 10
50.569234
 20
147.696580
 30
0.0
 10
50.798161
 20
147.544650
 30
0.0
 10
51.038457
 20
147.409270
 30
0.0
 10
51.287020
 20
147.294540
 30
0.0
 10
51.545402
 20
147.199440
 30
0.0
 10
51.809469
 20
147.125540
 30
0.0
 10
52.079220
 20
147.071340
 30
0.0
 10
52.352072
 20
147.039340
 30
0.0
 10
52.626990
 20
147.028540
 30
0.0
 10
231.592760
 20
147.028540
 30
0.0
  0
SPLINE
  5
101
100
AcDbEntity
  8
Layer_1
 62
7
100
AcDbSpline
 70
0
 71
3
 72
10
 73
6
 74
4
 40
0.000000
 40
0.000000
 40
0.000000
 40
0.000000
 40
0.914163
 40
1.801255
 40
2.715419
 40
2.715419
 40
2.715419
 40
2.715419
 10
231.592760
 20
147.028540
 30
0.0
 10
231.899041
 20
147.077078
 30
0.0
 10
232.502534
 20
147.172717
 30
0.0
 10
233.197376
 20
147.868792
 30
0.0
 10
233.291945
 20
148.472453
 30
0.0
 10
233.339940
 20
148.778820
 30
0.0
 11
231.592760
 21
147.028540
 31
0.0
 11
232.474881
 21
147.268451
 31
0.0
 11
233.101594
 21
147.896275
 31
0.0
 11
233.339940
 21
148.778820
 31
0.0
  0
LWPOLYLINE
  5
102
100
AcDbEntity
  8
Layer_1
 62
7
100
AcDbPolyline
 90
4
 70
0
 10
233.339940
 20
148.778820
 30
0.0
 10
233.339940
 20
159.791570
 30
0.0
 10
233.339940
 20
178.840540
 30
0.0
 10
236.355260
 20
178.840540
 30
0.0
  0
SPLINE
  5
103
100
AcDbEntity
  8
Layer_1
 62
7
100
AcDbSpline
 70
0
 71
3
 72
10
 73
6
 74
4
 40
0.000000
 40
0.000000
 40
0.000000
 40
0.000000
 40
0.914167
 40
1.801262
 40
2.715428
 40
2.715428
 40
2.715428
 40
2.715428
 10
236.355260
 20
178.840540
 30
0.0
 10
236.661542
 20
178.889078
 30
0.0
 10
237.265037
 20
178.984718
 30
0.0
 10
237.959880
 20
179.680798
 30
0.0
 10
238.054446
 20
180.284462
 30
0.0
 10
238.102440
 20
180.590830
 30
0.0
 11
236.355260
 21
178.840540
 31
0.0
 11
237.237384
 21
179.080452
 31
0.0
 11
237.864097
 21
179.708281
 31
0.0
 11
238.102440
 21
180.590830
 31
0.0
  0
LWPOLYLINE
  5
104
100
AcDbEntity
  8
Layer_1
 62
7
100
AcDbPolyline
 90
2
 70
0
 10
238.102440
 20
180.590830
 30
0.0
 10
238.102440
 20
196.145420
 30
0.0
  0
SPLINE
  5
105
100
AcDbEntity
  8
Layer_1
 62
7
100
AcDbSpline
 70
0
 71
3
 72
10
 73
6
 74
4
 40
0.000000
 40
0.000000
 40
0.000000
 40
0.000000
 40
0.914165
 40
1.801258
 40
2.715423
 40
2.715423
 40
2.715423
 40
2.715423
 10
238.102440
 20
196.145420
 30
0.0
 10
238.053902
 20
196.451702
 30
0.0
 10
237.958265
 20
197.055196
 30
0.0
 10
237.262189
 20
197.750040
 30
0.0
 10
236.658527
 20
197.844609
 30
0.0
 10
236.352160
 20
197.892604
 30
0.0
 11
238.102440
 21
196.145420
 31
0.0
 11
237.862531
 21
197.027543
 31
0.0
 11
237.234706
 21
197.654257
 31
0.0
 11
236.352160
 21
197.892604
 31
0.0
  0
LWPOLYLINE
  5
106
100
AcDbEntity
  8
Layer_1
 62
7
100
AcDbPolyline
 90
3
 70
0
 10
236.352160
 20
197.892604
 30
0.0
 10
228.577440
 20
197.892604
 30
0.0
 10
228.577440
 20
215.195424
 30
0.0
  0
SPLINE
  5
107
100
AcDbEntity
  8
Layer_1
 62
7
100
AcDbSpline
 70
0
 71
3
 72
10
 73
6
 74
4
 40
0.000000
 40
0.000000
 40
0.000000
 40
0.000000
 40
0.914163
 40
1.801255
 40
2.715419
 40
2.715419
 40
2.715419
 40
2.715419
 10
228.577440
 20
215.195424
 30
0.0
 10
228.528902
 20
215.501705
 30
0.0
 10
228.433263
 20
216.105198
 30
0.0
 10
227.737188
 20
216.800040
 30
0.0
 10
227.133527
 20
216.894609
 30
0.0
 10
226.827160
 20
216.942604
 30
0.0
 11
228.577440
 21
215.195424
 31
0.0
 11
228.337529
 21
216.077545
 31
0.0
 11
227.709705
 21
216.704258
 31
0.0
 11
226.827160
 21
216.942604
 31
0.0
  0
LWPOLYLINE
  5
108
100
AcDbEntity
  8
Layer_1
 62
7
100
AcDbPolyline
 90
5
 70
0
 10
226.827160
 20
216.942604
 30
0.0
 10
223.814940
 20
216.942604
 30
0.0
 10
223.814940
 20
235.990544
 30
0.0
 10
227.557350
 20
235.990544
 30
0.0
 10
231.592760
 20
235.990544
 30
0.0
  0
SPLINE
  5
109
100
AcDbEntity
  8
Layer_1
 62
7
100
AcDbSpline
 70
0
 71
3
 72
10
 73
6
 74
4
 40
0.000000
 40
0.000000
 40
0.000000
 40
0.000000
 40
0.914167
 40
1.801262
 40
2.715428
 40
2.715428
 40
2.715428
 40
2.715428
 10
231.592760
 20
235.990544
 30
0.0
 10
231.899042
 20
236.039082
 30
0.0
 10
232.502537
 20
236.134722
 30
0.0
 10
233.197380
 20
236.830802
 30
0.0
 10
233.291946
 20
237.434466
 30
0.0
 10
233.339940
 20
237.740834
 30
0.0
 11
231.592760
 21
235.990544
 31
0.0
 11
232.474884
 21
236.230456
 31
0.0
 11
233.101597
 21
236.858285
 31
0.0
 11
233.339940
 21
237.740834
 31
0.0
  0
LWPOLYLINE
  5
10a
100
AcDbEntity
  8
Layer_1
 62
7
100
AcDbPolyline
 90
3
 70
0
 10
233.339940
 20
237.740834
 30
0.0
 10
233.339940
 20
255.043634
 30
0.0
 10
233.339940
 20
261.294414
 30
0.0
  0
SPLINE
  5
10b
100
AcDbEntity
  8
Layer_1
 62
7
100
AcDbSpline
 70
0
 71
3
 72
10
 73
6
 74
4
 40
0.000000
 40
0.000000
 40
0.000000
 40
0.000000
 40
0.914173
 40
1.801274
 40
2.715448
 40
2.715448
 40
2.715448
 40
2.715448
 10
233.339940
 20
261.294414
 30
0.0
 10
233.291406
 20
261.600699
 30
0.0
 10
233.195776
 20
262.204200
 30
0.0
 10
232.499698
 20
262.899057
 30
0.0
 10
231.896030
 20
262.993628
 30
0.0
 10
231.589660
 20
263.041624
 30
0.0
 11
233.339940
 21
261.294414
 31
0.0
 11
233.100039
 21
262.176548
 31
0.0
 11
232.472214
 21
262.803272
 31
0.0
 11
231.589660
 21
263.041624
 31
0.0
  0
LWPOLYLINE
  5
10c
100
AcDbEntity
  8
Layer_1
 62
7
100
AcDbPolyline
 90
2
 70
0
 10
231.589660
 20
263.041624
 30
0.0
 10
52.626940
 20
263.042554
 30
0.0
  0
SPLINE
  5
10d
100
AcDbEntity
  8
Layer_1
 62
7
100
AcDbSpline
 70
0
 71
3
 72
28
 73
24
 74
22
 40
0.000000
 40
0.000000
 40
0.000000
 40
0.000000
 40
0.004650
 40
0.009300
 40
0.013950
 40
0.275879
 40
0.535638
 40
0.797568
 40
1.059497
 40
1.319256
 40
1.581185
 40
1.843026
 40
2.102699
 40
2.364540
 40
2.626381
 40
2.886054
 40
3.147895
 40
3.670714
 40
4.178028
 40
4.700847
 40
5.219255
 40
5.722509
 40
6.240917
 40
6.240917
 40
6.240917
 40
6.240917
 10
53.205716
 20
260.044794
 30
0.0
 10
53.207266
 20
260.044803
 30
0.0
 10
53.210366
 20
260.044820
 30
0.0
 10
53.215016
 20
260.044819
 30
0.0
 10
53.305421
 20
260.044396
 30
0.0
 10
53.481745
 20
260.022168
 30
0.0
 10
53.725684
 20
259.920759
 30
0.0
 10
53.935421
 20
259.760096
 30
0.0
 10
54.096169
 20
259.550369
 30
0.0
 10
54.197217
 20
259.306291
 30
0.0
 10
54.231653
 20
259.044350
 30
0.0
 10
54.197093
 20
258.782460
 30
0.0
 10
54.095987
 20
258.538496
 30
0.0
 10
53.935210
 20
258.328924
 30
0.0
 10
53.725587
 20
258.168239
 30
0.0
 10
53.481427
 20
258.067354
 30
0.0
 10
53.133034
 20
258.020982
 30
0.0
 10
52.695650
 20
258.138295
 30
0.0
 10
52.313831
 20
258.520551
 30
0.0
 10
52.172487
 20
259.043749
 30
0.0
 10
52.311814
 20
259.560191
 30
0.0
 10
52.687751
 20
259.957322
 30
0.0
 10
53.031361
 20
260.015350
 30
0.0
 10
53.205714
 20
260.044794
 30
0.0
 11
53.205716
 21
260.044794
 31
0.0
 11
53.210366
 21
260.044816
 31
0.0
 11
53.215016
 21
260.044816
 31
0.0
 11
53.219666
 21
260.044794
 31
0.0
 11
53.479355
 21
260.010612
 31
0.0
 11
53.719364
 21
259.911260
 31
0.0
 11
53.927234
 21
259.751896
 31
0.0
 11
54.086595
 21
259.544023
 31
0.0
 11
54.185943
 21
259.304014
 31
0.0
 11
54.220122
 21
259.044324
 31
0.0
 11
54.185829
 21
258.784739
 31
0.0
 11
54.086418
 21
258.544848
 31
0.0
 11
53.927046
 21
258.337095
 31
0.0
 11
53.719211
 21
258.177830
 31
0.0
 11
53.479269
 21
258.078543
 31
0.0
 11
53.219666
 21
258.044384
 31
0.0
 11
52.714991
 21
258.180923
 31
0.0
 11
52.356266
 21
258.539649
 31
0.0
 11
52.219727
 21
259.044324
 31
0.0
 11
52.353662
 21
259.545131
 31
0.0
 11
52.706913
 21
259.903571
 31
0.0
 11
53.205714
 21
260.044794
 31
0.0
  0
LWPOLYLINE
  5
10e
100
AcDbEntity
  8
Layer_1
 62
7
100
AcDbPolyline
 90
1
 70
1
 10
53.205714
 20
260.044794
 30
0.0
  0
SPLINE
  5
10f
100
AcDbEntity
  8
Layer_1
 62
7
100
AcDbSpline
 70
0
 71
3
 72
31
 73
27
 74
25
 40
0.000000
 40
0.000000
 40
0.000000
 40
0.000000
 40
0.004467
 40
0.008933
 40
0.013400
 40
0.275242
 40
0.534915
 40
0.796757
 40
1.058598
 40
1.318272
 40
1.580113
 40
1.842043
 40
2.101803
 40
2.363733
 40
2.625663
 40
2.885423
 40
3.147352
 40
3.409196
 40
3.668871
 40
3.930714
 40
4.192557
 40
4.452233
 40
4.714076
 40
5.232475
 40
5.735722
 40
6.254122
 40
6.254122
 40
6.254122
 40
6.254122
 10
103.109130
 20
260.044794
 30
0.0
 10
103.110619
 20
260.044802
 30
0.0
 10
103.113597
 20
260.044818
 30
0.0
 10
103.118063
 20
260.044817
 30
0.0
 10
103.208317
 20
260.044412
 30
0.0
 10
103.384522
 20
260.022174
 30
0.0
 10
103.628391
 20
259.920846
 30
0.0
 10
103.838093
 20
259.760280
 30
0.0
 10
103.998850
 20
259.550676
 30
0.0
 10
104.099962
 20
259.306721
 30
0.0
 10
104.134521
 20
259.044827
 30
0.0
 10
104.100084
 20
258.782888
 30
0.0
 10
103.999038
 20
258.538802
 30
0.0
 10
103.838280
 20
258.329101
 30
0.0
 10
103.628581
 20
258.168341
 30
0.0
 10
103.384496
 20
258.067293
 30
0.0
 10
103.122556
 20
258.032852
 30
0.0
 10
102.860663
 20
258.067414
 30
0.0
 10
102.616698
 20
258.168522
 30
0.0
 10
102.407125
 20
258.329295
 30
0.0
 10
102.246441
 20
258.538949
 30
0.0
 10
102.145553
 20
258.783007
 30
0.0
 10
102.099405
 20
259.130452
 30
0.0
 10
102.214799
 20
259.561023
 30
0.0
 10
102.591129
 20
259.957499
 30
0.0
 10
102.934738
 20
260.015409
 30
0.0
 10
103.109090
 20
260.044794
 30
0.0
 11
103.109130
 21
260.044794
 31
0.0
 11
103.113597
 21
260.044814
 31
0.0
 11
103.118063
 21
260.044814
 31
0.0
 11
103.122530
 21
260.044794
 31
0.0
 11
103.382134
 21
260.010635
 31
0.0
 11
103.622077
 21
259.911349
 31
0.0
 11
103.829913
 21
259.752085
 31
0.0
 11
103.989285
 21
259.544331
 31
0.0
 11
104.088696
 21
259.304440
 31
0.0
 11
104.122990
 21
259.044854
 31
0.0
 11
104.088811
 21
258.785164
 31
0.0
 11
103.989462
 21
258.545153
 31
0.0
 11
103.830100
 21
258.337281
 31
0.0
 11
103.622229
 21
258.177917
 31
0.0
 11
103.382220
 21
258.078566
 31
0.0
 11
103.122530
 21
258.044384
 31
0.0
 11
102.862942
 21
258.078678
 31
0.0
 11
102.623050
 21
258.178090
 31
0.0
 11
102.415296
 21
258.337465
 31
0.0
 11
102.256032
 21
258.545303
 31
0.0
 11
102.156746
 21
258.785248
 31
0.0
 11
102.122590
 21
259.044854
 31
0.0
 11
102.256790
 21
259.545582
 31
0.0
 11
102.610224
 21
259.903831
 31
0.0
 11
103.109090
 21
260.044794
 31
0.0
  0
LWPOLYLINE
  5
110
100
AcDbEntity
  8
Layer_1
 62
7
100
AcDbPolyline
 90
1
 70
1
 10
103.109090
 20
260.044794
 30
0.0
  0
SPLINE
  5
111
100
AcDbEntity
  8
Layer_1
 62
7
100
AcDbSpline
 70
0
 71
3
 72
25
 73
21
 74
19
 40
0.000000
 40
0.000000
 40
0.000000
 40
0.000000
 40
0.004633
 40
0.009267
 40
0.013900
 40
0.275743
 40
0.535419
 40
0.797262
 40
1.059105
 40
1.318780
 40
1.580623
 40
2.103443
 40
2.610758
 40
3.133577
 40
3.656396
 40
4.163711
 40
4.686531
 40
5.204939
 40
5.708194
 40
6.226603
 40
6.226603
 40
6.226603
 40
6.226603
 10
125.125870
 20
260.044794
 30
0.0
 10
125.127414
 20
260.044803
 30
0.0
 10
125.130503
 20
260.044820
 30
0.0
 10
125.135137
 20
260.044819
 30
0.0
 10
125.225502
 20
260.044398
 30
0.0
 10
125.401751
 20
260.022026
 30
0.0
 10
125.645571
 20
259.920587
 30
0.0
 10
125.855183
 20
259.759896
 30
0.0
 10
126.015857
 20
259.550246
 30
0.0
 10
126.116746
 20
259.306089
 30
0.0
 10
126.163101
 20
258.957693
 30
0.0
 10
126.045867
 20
258.520299
 30
0.0
 10
125.663304
 20
258.138519
 30
0.0
 10
125.139780
 20
257.996621
 30
0.0
 10
124.616196
 20
258.138467
 30
0.0
 10
124.233813
 20
258.520503
 30
0.0
 10
124.092622
 20
259.043761
 30
0.0
 10
124.231909
 20
259.560189
 30
0.0
 10
124.607858
 20
259.957324
 30
0.0
 10
124.951467
 20
260.015350
 30
0.0
 10
125.125820
 20
260.044794
 30
0.0
 11
125.125870
 21
260.044794
 31
0.0
 11
125.130503
 21
260.044815
 31
0.0
 11
125.135137
 21
260.044815
 31
0.0
 11
125.139770
 21
260.044794
 31
0.0
 11
125.399358
 21
260.010500
 31
0.0
 11
125.639250
 21
259.911088
 31
0.0
 11
125.847004
 21
259.751713
 31
0.0
 11
126.006268
 21
259.543875
 31
0.0
 11
126.105554
 21
259.303930
 31
0.0
 11
126.139710
 21
259.044324
 31
0.0
 11
126.003171
 21
258.539649
 31
0.0
 11
125.644445
 21
258.180923
 31
0.0
 11
125.139770
 21
258.044384
 31
0.0
 11
124.635095
 21
258.180923
 31
0.0
 11
124.276369
 21
258.539649
 31
0.0
 11
124.139830
 21
259.044324
 31
0.0
 11
124.273766
 21
259.545132
 31
0.0
 11
124.627018
 21
259.903572
 31
0.0
 11
125.125820
 21
260.044794
 31
0.0
  0
LWPOLYLINE
  5
112
100
AcDbEntity
  8
Layer_1
 62
7
100
AcDbPolyline
 90
1
 70
1
 10
125.125820
 20
260.044794
 30
0.0
  0
SPLINE
  5
113
100
AcDbEntity
  8
Layer_1
 62
7
100
AcDbSpline
 70
0
 71
3
 72
28
 73
24
 74
22
 40
0.000000
 40
0.000000
 40
0.000000
 40
0.000000
 40
0.004833
 40
0.009667
 40
0.014500
 40
0.276343
 40
0.536019
 40
0.797862
 40
1.059705
 40
1.319380
 40
1.581223
 40
2.104043
 40
2.611358
 40
3.134177
 40
3.396019
 40
3.655692
 40
3.917534
 40
4.179375
 40
4.439049
 40
4.700890
 40
5.219299
 40
5.722554
 40
6.240963
 40
6.240963
 40
6.240963
 40
6.240963
 10
205.325630
 20
260.044794
 30
0.0
 10
205.327241
 20
260.044803
 30
0.0
 10
205.330463
 20
260.044822
 30
0.0
 10
205.335297
 20
260.044821
 30
0.0
 10
205.425795
 20
260.044381
 30
0.0
 10
205.602111
 20
260.022038
 30
0.0
 10
205.845931
 20
259.920584
 30
0.0
 10
206.055543
 20
259.759897
 30
0.0
 10
206.216218
 20
259.550246
 30
0.0
 10
206.317103
 20
259.306090
 30
0.0
 10
206.363477
 20
258.957687
 30
0.0
 10
206.246103
 20
258.520346
 30
0.0
 10
205.864109
 20
258.138352
 30
0.0
 10
205.426767
 20
258.020975
 30
0.0
 10
205.078367
 20
258.067354
 30
0.0
 10
204.834206
 20
258.168237
 30
0.0
 10
204.624589
 20
258.328925
 30
0.0
 10
204.463786
 20
258.538486
 30
0.0
 10
204.362772
 20
258.782492
 30
0.0
 10
204.316440
 20
259.129913
 30
0.0
 10
204.431605
 20
259.560551
 30
0.0
 10
204.807735
 20
259.957231
 30
0.0
 10
205.151320
 20
260.015319
 30
0.0
 10
205.325660
 20
260.044794
 30
0.0
 11
205.325630
 21
260.044794
 31
0.0
 11
205.330463
 21
260.044817
 31
0.0
 11
205.335297
 21
260.044817
 31
0.0
 11
205.340130
 21
260.044794
 31
0.0
 11
205.599718
 21
260.010500
 31
0.0
 11
205.839610
 21
259.911088
 31
0.0
 11
206.047364
 21
259.751713
 31
0.0
 11
206.206628
 21
259.543875
 31
0.0
 11
206.305914
 21
259.303930
 31
0.0
 11
206.340070
 21
259.044324
 31
0.0
 11
206.203531
 21
258.539649
 31
0.0
 11
205.844805
 21
258.180923
 31
0.0
 11
205.340130
 21
258.044384
 31
0.0
 11
205.080526
 21
258.078543
 31
0.0
 11
204.840583
 21
258.177829
 31
0.0
 11
204.632747
 21
258.337093
 31
0.0
 11
204.473375
 21
258.544847
 31
0.0
 11
204.373964
 21
258.784738
 31
0.0
 11
204.339670
 21
259.044324
 31
0.0
 11
204.473606
 21
259.545132
 31
0.0
 11
204.826858
 21
259.903572
 31
0.0
 11
205.325660
 21
260.044794
 31
0.0
  0
LWPOLYLINE
  5
114
100
AcDbEntity
  8
Layer_1
 62
7
100
AcDbPolyline
 90
1
 70
1
 10
205.325660
 20
260.044794
 30
0.0
  0
LWPOLYLINE
  5
115
100
AcDbEntity
  8
Layer_1
 62
7
100
AcDbPolyline
 90
1
 70
1
 10
229.324710
 20
260.044794
 30
0.0
  0
LWPOLYLINE
  5
116
100
AcDbEntity
  8
Layer_1
 62
7
100
AcDbPolyline
 90
10
 70
1
 10
63.425764
 20
255.044594
 30
0.0
 10
88.925500
 20
255.044594
 30
0.0
 10
88.925500
 20
229.044624
 30
0.0
 10
88.925500
 20
219.044724
 30
0.0
 10
77.325693
 20
219.044724
 30
0.0
 10
77.325693
 20
229.044624
 30
0.0
 10
75.025574
 20
229.044624
 30
0.0
 10
75.025574
 20
219.044724
 30
0.0
 10
63.425764
 20
219.044724
 30
0.0
 10
63.425764
 20
229.044624
 30
0.0
  0
LWPOLYLINE
  5
117
100
AcDbEntity
  8
Layer_1
 62
7
100
AcDbPolyline
 90
4
 70
1
 10
102.514340
 20
252.517614
 30
0.0
 10
116.514510
 20
252.517614
 30
0.0
 10
116.514510
 20
238.517424
 30
0.0
 10
102.514340
 20
238.517424
 30
0.0
  0
LWPOLYLINE
  5
118
100
AcDbEntity
  8
Layer_1
 62
7
100
AcDbPolyline
 90
4
 70
1
 10
121.564340
 20
252.517614
 30
0.0
 10
135.564510
 20
252.517614
 30
0.0
 10
135.564510
 20
238.517424
 30
0.0
 10
121.564340
 20
238.517424
 30
0.0
  0
LWPOLYLINE
  5
119
100
AcDbEntity
  8
Layer_1
 62
7
100
AcDbPolyline
 90
4
 70
1
 10
140.614340
 20
252.517614
 30
0.0
 10
154.614510
 20
252.517614
 30
0.0
 10
154.614510
 20
238.517424
 30
0.0
 10
140.614340
 20
238.517424
 30
0.0
  0
LWPOLYLINE
  5
11a
100
AcDbEntity
  8
Layer_1
 62
7
100
AcDbPolyline
 90
4
 70
1
 10
159.664330
 20
252.517614
 30
0.0
 10
173.664510
 20
252.517614
 30
0.0
 10
173.664510
 20
238.517424
 30
0.0
 10
159.664330
 20
238.517424
 30
0.0
  0
LWPOLYLINE
  5
11b
100
AcDbEntity
  8
Layer_1
 62
7
100
AcDbPolyline
 90
4
 70
1
 10
178.714330
 20
252.517614
 30
0.0
 10
192.714510
 20
252.517614
 30
0.0
 10
192.714510
 20
238.517424
 30
0.0
 10
178.714330
 20
238.517424
 30
0.0
  0
LWPOLYLINE
  5
11c
100
AcDbEntity
  8
Layer_1
 62
7
100
AcDbPolyline
 90
4
 70
1
 10
197.764330
 20
252.517614
 30
0.0
 10
211.764510
 20
252.517614
 30
0.0
 10
211.764510
 20
238.517424
 30
0.0
 10
197.764330
 20
238.517424
 30
0.0
  0
LWPOLYLINE
  5
11d
100
AcDbEntity
  8
Layer_1
 62
7
100
AcDbPolyline
 90
4
 70
1
 10
216.814330
 20
252.517614
 30
0.0
 10
230.814510
 20
252.517614
 30
0.0
 10
230.814510
 20
238.517424
 30
0.0
 10
216.814330
 20
238.517424
 30
0.0
  0
LWPOLYLINE
  5
11e
100
AcDbEntity
  8
Layer_1
 62
7
100
AcDbPolyline
 90
4
 70
1
 10
107.277350
 20
233.467614
 30
0.0
 10
121.277530
 20
233.467614
 30
0.0
 10
121.277530
 20
219.467424
 30
0.0
 10
107.277350
 20
219.467424
 30
0.0
  0
LWPOLYLINE
  5
11f
100
AcDbEntity
  8
Layer_1
 62
7
100
AcDbPolyline
 90
4
 70
1
 10
131.089340
 20
233.467614
 30
0.0
 10
145.089510
 20
233.467614
 30
0.0
 10
145.089510
 20
219.467424
 30
0.0
 10
131.089340
 20
219.467424
 30
0.0
  0
LWPOLYLINE
  5
120
100
AcDbEntity
  8
Layer_1
 62
7
100
AcDbPolyline
 90
4
 70
1
 10
150.139330
 20
233.467614
 30
0.0
 10
164.139510
 20
233.467614
 30
0.0
 10
164.139510
 20
219.467424
 30
0.0
 10
150.139330
 20
219.467424
 30
0.0
  0
LWPOLYLINE
  5
121
100
AcDbEntity
  8
Layer_1
 62
7
100
AcDbPolyline
 90
4
 70
1
 10
169.189330
 20
233.467614
 30
0.0
 10
183.189510
 20
233.467614
 30
0.0
 10
183.189510
 20
219.467424
 30
0.0
 10
169.189330
 20
219.467424
 30
0.0
  0
LWPOLYLINE
  5
122
100
AcDbEntity
  8
Layer_1
 62
7
100
AcDbPolyline
 90
4
 70
1
 10
188.239330
 20
233.467614
 30
0.0
 10
202.239510
 20
233.467614
 30
0.0
 10
202.239510
 20
219.467424
 30
0.0
 10
188.239330
 20
219.467424
 30
0.0
  0
LWPOLYLINE
  5
123
100
AcDbEntity
  8
Layer_1
 62
7
100
AcDbPolyline
 90
4
 70
1
 10
207.289330
 20
233.467614
 30
0.0
 10
221.289510
 20
233.467614
 30
0.0
 10
221.289510
 20
219.467424
 30
0.0
 10
207.289330
 20
219.467424
 30
0.0
  0
LWPOLYLINE
  5
124
100
AcDbEntity
  8
Layer_1
 62
7
100
AcDbPolyline
 90
20
 70
1
 10
78.702352
 20
214.417614
 30
0.0
 10
92.702530
 20
214.417614
 30
0.0
 10
92.702530
 20
213.417674
 30
0.0
 10
93.502482
 20
213.417674
 30
0.0
 10
93.502482
 20
210.317604
 30
0.0
 10
92.702530
 20
210.317604
 30
0.0
 10
92.702530
 20
204.517434
 30
0.0
 10
93.502482
 20
204.517434
 30
0.0
 10
93.502482
 20
201.417364
 30
0.0
 10
92.702530
 20
201.417364
 30
0.0
 10
92.702530
 20
200.417424
 30
0.0
 10
78.702352
 20
200.417424
 30
0.0
 10
78.702352
 20
201.417364
 30
0.0
 10
77.902400
 20
201.417364
 30
0.0
 10
77.902400
 20
204.517434
 30
0.0
 10
78.702352
 20
204.517434
 30
0.0
 10
78.702352
 20
210.317604
 30
0.0
 10
77.902400
 20
210.317604
 30
0.0
 10
77.902400
 20
213.417674
 30
0.0
 10
78.702352
 20
213.417674
 30
0.0
  0
LWPOLYLINE
  5
125
100
AcDbEntity
  8
Layer_1
 62
7
100
AcDbPolyline
 90
4
 70
1
 10
109.658090
 20
214.417614
 30
0.0
 10
123.658260
 20
214.417614
 30
0.0
 10
123.658260
 20
200.417424
 30
0.0
 10
109.658090
 20
200.417424
 30
0.0
  0
LWPOLYLINE
  5
126
100
AcDbEntity
  8
Layer_1
 62
7
100
AcDbPolyline
 90
4
 70
1
 10
135.852350
 20
214.417614
 30
0.0
 10
149.852530
 20
214.417614
 30
0.0
 10
149.852530
 20
200.417424
 30
0.0
 10
135.852350
 20
200.417424
 30
0.0
  0
LWPOLYLINE
  5
127
100
AcDbEntity
  8
Layer_1
 62
7
100
AcDbPolyline
 90
4
 70
1
 10
154.901320
 20
214.417614
 30
0.0
 10
168.901500
 20
214.417614
 30
0.0
 10
168.901500
 20
200.417424
 30
0.0
 10
154.901320
 20
200.417424
 30
0.0
  0
LWPOLYLINE
  5
128
100
AcDbEntity
  8
Layer_1
 62
7
100
AcDbPolyline
 90
4
 70
1
 10
173.951320
 20
214.417614
 30
0.0
 10
187.952530
 20
214.417614
 30
0.0
 10
187.952530
 20
200.417424
 30
0.0
 10
173.951320
 20
200.417424
 30
0.0
  0
LWPOLYLINE
  5
129
100
AcDbEntity
  8
Layer_1
 62
7
100
AcDbPolyline
 90
4
 70
1
 10
193.002350
 20
214.417614
 30
0.0
 10
207.002530
 20
214.417614
 30
0.0
 10
207.002530
 20
200.417424
 30
0.0
 10
193.002350
 20
200.417424
 30
0.0
  0
LWPOLYLINE
  5
12a
100
AcDbEntity
  8
Layer_1
 62
7
100
AcDbPolyline
 90
4
 70
1
 10
212.052350
 20
214.417614
 30
0.0
 10
226.052530
 20
214.417614
 30
0.0
 10
226.052530
 20
200.417424
 30
0.0
 10
212.052350
 20
200.417424
 30
0.0
  0
LWPOLYLINE
  5
12b
100
AcDbEntity
  8
Layer_1
 62
7
100
AcDbPolyline
 90
4
 70
1
 10
62.002078
 20
210.966654
 30
0.0
 10
71.302286
 20
210.966654
 30
0.0
 10
71.302286
 20
165.766820
 30
0.0
 10
62.002078
 20
165.766820
 30
0.0
  0
LWPOLYLINE
  5
12c
100
AcDbEntity
  8
Layer_1
 62
7
100
AcDbPolyline
 90
20
 70
1
 10
78.702352
 20
195.366580
 30
0.0
 10
92.702530
 20
195.366580
 30
0.0
 10
92.702530
 20
194.366640
 30
0.0
 10
93.502482
 20
194.366640
 30
0.0
 10
93.502482
 20
191.267600
 30
0.0
 10
92.702530
 20
191.267600
 30
0.0
 10
92.702530
 20
185.466400
 30
0.0
 10
93.502482
 20
185.466400
 30
0.0
 10
93.502482
 20
182.366330
 30
0.0
 10
92.702530
 20
182.366330
 30
0.0
 10
92.702530
 20
181.366390
 30
0.0
 10
78.702352
 20
181.366390
 30
0.0
 10
78.702352
 20
182.366330
 30
0.0
 10
77.902400
 20
182.366330
 30
0.0
 10
77.902400
 20
185.466400
 30
0.0
 10
78.702352
 20
185.466400
 30
0.0
 10
78.702352
 20
191.267600
 30
0.0
 10
77.902400
 20
191.267600
 30
0.0
 10
77.902400
 20
194.366640
 30
0.0
 10
78.702352
 20
194.366640
 30
0.0
  0
LWPOLYLINE
  5
12d
100
AcDbEntity
  8
Layer_1
 62
7
100
AcDbPolyline
 90
36
 70
1
 10
114.420070
 20
195.366580
 30
0.0
 10
128.420250
 20
195.366580
 30
0.0
 10
128.420250
 20
190.666600
 30
0.0
 10
129.945220
 20
190.666600
 30
0.0
 10
129.945220
 20
193.896370
 30
0.0
 10
136.695200
 20
193.896370
 30
0.0
 10
136.695200
 20
190.666600
 30
0.0
 10
137.520470
 20
190.666600
 30
0.0
 10
137.520470
 20
187.866250
 30
0.0
 10
136.695200
 20
187.866250
 30
0.0
 10
136.695200
 20
181.596340
 30
0.0
 10
134.970240
 20
181.596340
 30
0.0
 10
134.970240
 20
180.396420
 30
0.0
 10
131.670180
 20
180.396420
 30
0.0
 10
131.670180
 20
181.596340
 30
0.0
 10
129.945220
 20
181.596340
 30
0.0
 10
129.945220
 20
186.066370
 30
0.0
 10
128.420250
 20
186.066370
 30
0.0
 10
128.420250
 20
181.366390
 30
0.0
 10
114.420070
 20
181.366390
 30
0.0
 10
114.420070
 20
186.066370
 30
0.0
 10
112.895100
 20
186.066370
 30
0.0
 10
112.895100
 20
181.596340
 30
0.0
 10
111.170140
 20
181.596340
 30
0.0
 10
111.170140
 20
180.396420
 30
0.0
 10
107.870080
 20
180.396420
 30
0.0
 10
107.870080
 20
181.596340
 30
0.0
 10
106.145120
 20
181.596340
 30
0.0
 10
106.145120
 20
187.866250
 30
0.0
 10
105.320370
 20
187.866250
 30
0.0
 10
105.320370
 20
190.666600
 30
0.0
 10
106.145120
 20
190.666600
 30
0.0
 10
106.145120
 20
193.896370
 30
0.0
 10
112.895100
 20
193.896370
 30
0.0
 10
112.895100
 20
190.666600
 30
0.0
 10
114.420070
 20
190.666600
 30
0.0
  0
LWPOLYLINE
  5
12e
100
AcDbEntity
  8
Layer_1
 62
7
100
AcDbPolyline
 90
4
 70
1
 10
145.377350
 20
195.366580
 30
0.0
 10
159.377530
 20
195.366580
 30
0.0
 10
159.377530
 20
181.366390
 30
0.0
 10
145.377350
 20
181.366390
 30
0.0
  0
LWPOLYLINE
  5
12f
100
AcDbEntity
  8
Layer_1
 62
7
100
AcDbPolyline
 90
4
 70
1
 10
164.427350
 20
195.366580
 30
0.0
 10
178.427530
 20
195.366580
 30
0.0
 10
178.427530
 20
181.366390
 30
0.0
 10
164.427350
 20
181.366390
 30
0.0
  0
LWPOLYLINE
  5
130
100
AcDbEntity
  8
Layer_1
 62
7
100
AcDbPolyline
 90
4
 70
1
 10
183.477350
 20
195.366580
 30
0.0
 10
197.477530
 20
195.366580
 30
0.0
 10
197.477530
 20
181.366390
 30
0.0
 10
183.477350
 20
181.366390
 30
0.0
  0
LWPOLYLINE
  5
131
100
AcDbEntity
  8
Layer_1
 62
7
100
AcDbPolyline
 90
4
 70
1
 10
202.527350
 20
195.366580
 30
0.0
 10
216.527530
 20
195.366580
 30
0.0
 10
216.527530
 20
181.366390
 30
0.0
 10
202.527350
 20
181.366390
 30
0.0
  0
LWPOLYLINE
  5
132
100
AcDbEntity
  8
Layer_1
 62
7
100
AcDbPolyline
 90
4
 70
1
 10
221.577350
 20
195.366580
 30
0.0
 10
235.577530
 20
195.366580
 30
0.0
 10
235.577530
 20
181.366390
 30
0.0
 10
221.577350
 20
181.366390
 30
0.0
  0
LWPOLYLINE
  5
133
100
AcDbEntity
  8
Layer_1
 62
7
100
AcDbPolyline
 90
20
 70
1
 10
78.701317
 20
176.316580
 30
0.0
 10
92.701498
 20
176.316580
 30
0.0
 10
92.701498
 20
175.316640
 30
0.0
 10
93.501447
 20
175.316640
 30
0.0
 10
93.501447
 20
172.216570
 30
0.0
 10
92.701498
 20
172.216570
 30
0.0
 10
92.701498
 20
166.416400
 30
0.0
 10
93.501447
 20
166.416400
 30
0.0
 10
93.501447
 20
163.316330
 30
0.0
 10
92.701498
 20
163.316330
 30
0.0
 10
92.701498
 20
162.316390
 30
0.0
 10
78.701317
 20
162.316390
 30
0.0
 10
78.701317
 20
163.316330
 30
0.0
 10
77.902400
 20
163.316330
 30
0.0
 10
77.902400
 20
166.416400
 30
0.0
 10
78.701317
 20
166.416400
 30
0.0
 10
78.701317
 20
172.216570
 30
0.0
 10
77.902400
 20
172.216570
 30
0.0
 10
77.902400
 20
175.316640
 30
0.0
 10
78.701317
 20
175.316640
 30
0.0
  0
LWPOLYLINE
  5
134
100
AcDbEntity
  8
Layer_1
 62
7
100
AcDbPolyline
 90
4
 70
1
 10
104.895070
 20
176.316580
 30
0.0
 10
118.895250
 20
176.316580
 30
0.0
 10
118.895250
 20
162.316390
 30
0.0
 10
104.895070
 20
162.316390
 30
0.0
  0
LWPOLYLINE
  5
135
100
AcDbEntity
  8
Layer_1
 62
7
100
AcDbPolyline
 90
4
 70
1
 10
128.708090
 20
176.316580
 30
0.0
 10
142.708260
 20
176.316580
 30
0.0
 10
142.708260
 20
162.316390
 30
0.0
 10
128.708090
 20
162.316390
 30
0.0
  0
LWPOLYLINE
  5
136
100
AcDbEntity
  8
Layer_1
 62
7
100
AcDbPolyline
 90
4
 70
1
 10
152.520070
 20
176.316580
 30
0.0
 10
166.520250
 20
176.316580
 30
0.0
 10
166.520250
 20
162.316390
 30
0.0
 10
152.520070
 20
162.316390
 30
0.0
  0
LWPOLYLINE
  5
137
100
AcDbEntity
  8
Layer_1
 62
7
100
AcDbPolyline
 90
36
 70
1
 10
183.477350
 20
176.316580
 30
0.0
 10
197.477530
 20
176.316580
 30
0.0
 10
197.477530
 20
171.616600
 30
0.0
 10
199.002500
 20
171.616600
 30
0.0
 10
199.002500
 20
174.846370
 30
0.0
 10
205.752470
 20
174.846370
 30
0.0
 10
205.752470
 20
171.616600
 30
0.0
 10
206.577230
 20
171.616600
 30
0.0
 10
206.577230
 20
168.816250
 30
0.0
 10
205.752470
 20
168.816250
 30
0.0
 10
205.752470
 20
162.547390
 30
0.0
 10
204.027520
 20
162.547390
 30
0.0
 10
204.027520
 20
161.346420
 30
0.0
 10
200.727460
 20
161.346420
 30
0.0
 10
200.727460
 20
162.547390
 30
0.0
 10
199.002500
 20
162.547390
 30
0.0
 10
199.002500
 20
167.017400
 30
0.0
 10
197.477530
 20
167.017400
 30
0.0
 10
197.477530
 20
162.316390
 30
0.0
 10
183.477350
 20
162.316390
 30
0.0
 10
183.477350
 20
167.017400
 30
0.0
 10
181.951340
 20
167.017400
 30
0.0
 10
181.951340
 20
162.547390
 30
0.0
 10
180.227420
 20
162.547390
 30
0.0
 10
180.227420
 20
161.346420
 30
0.0
 10
176.927360
 20
161.346420
 30
0.0
 10
176.927360
 20
162.547390
 30
0.0
 10
175.202400
 20
162.547390
 30
0.0
 10
175.202400
 20
168.816250
 30
0.0
 10
174.377130
 20
168.816250
 30
0.0
 10
174.377130
 20
171.616600
 30
0.0
 10
175.202400
 20
171.616600
 30
0.0
 10
175.202400
 20
174.846370
 30
0.0
 10
181.951340
 20
174.846370
 30
0.0
 10
181.951340
 20
171.616600
 30
0.0
 10
183.477350
 20
171.616600
 30
0.0
  0
SPLINE
  5
138
100
AcDbEntity
  8
Layer_1
 62
7
100
AcDbSpline
 70
0
 71
3
 72
28
 73
24
 74
22
 40
0.000000
 40
0.000000
 40
0.000000
 40
0.000000
 40
0.004833
 40
0.009667
 40
0.014500
 40
0.276343
 40
0.536019
 40
0.797862
 40
1.059705
 40
1.319380
 40
1.581223
 40
2.104043
 40
2.611358
 40
3.134177
 40
3.396017
 40
3.655689
 40
3.917529
 40
4.179369
 40
4.439041
 40
4.700880
 40
5.219286
 40
5.722538
 40
6.240943
 40
6.240943
 40
6.240943
 40
6.240943
 10
229.324680
 20
260.044794
 30
0.0
 10
229.326291
 20
260.044803
 30
0.0
 10
229.329513
 20
260.044822
 30
0.0
 10
229.334347
 20
260.044821
 30
0.0
 10
229.424845
 20
260.044381
 30
0.0
 10
229.601161
 20
260.022038
 30
0.0
 10
229.844981
 20
259.920584
 30
0.0
 10
230.054593
 20
259.759897
 30
0.0
 10
230.215268
 20
259.550246
 30
0.0
 10
230.316153
 20
259.306090
 30
0.0
 10
230.362527
 20
258.957687
 30
0.0
 10
230.245153
 20
258.520346
 30
0.0
 10
229.863159
 20
258.138352
 30
0.0
 10
229.425817
 20
258.020974
 30
0.0
 10
229.077419
 20
258.067357
 30
0.0
 10
228.833260
 20
258.168240
 30
0.0
 10
228.623645
 20
258.328929
 30
0.0
 10
228.462844
 20
258.538489
 30
0.0
 10
228.361831
 20
258.782493
 30
0.0
 10
228.315500
 20
259.129912
 30
0.0
 10
228.430663
 20
259.560548
 30
0.0
 10
228.806789
 20
259.957227
 30
0.0
 10
229.150371
 20
260.015318
 30
0.0
 10
229.324710
 20
260.044794
 30
0.0
 11
229.324680
 21
260.044794
 31
0.0
 11
229.329513
 21
260.044817
 31
0.0
 11
229.334347
 21
260.044817
 31
0.0
 11
229.339180
 21
260.044794
 31
0.0
 11
229.598768
 21
260.010500
 31
0.0
 11
229.838660
 21
259.911088
 31
0.0
 11
230.046414
 21
259.751713
 31
0.0
 11
230.205678
 21
259.543875
 31
0.0
 11
230.304964
 21
259.303930
 31
0.0
 11
230.339120
 21
259.044324
 31
0.0
 11
230.202581
 21
258.539649
 31
0.0
 11
229.843855
 21
258.180923
 31
0.0
 11
229.339180
 21
258.044384
 31
0.0
 11
229.079578
 21
258.078545
 31
0.0
 11
228.839637
 21
258.177832
 31
0.0
 11
228.631804
 21
258.337097
 31
0.0
 11
228.472433
 21
258.544850
 31
0.0
 11
228.373023
 21
258.784740
 31
0.0
 11
228.338730
 21
259.044324
 31
0.0
 11
228.472664
 21
259.545129
 31
0.0
 11
228.825912
 21
259.903568
 31
0.0
 11
229.324710
 21
260.044794
 31
0.0
  0
LWPOLYLINE
  5
139
100
AcDbEntity
  8
Layer_1
 62
7
100
AcDbPolyline
 90
4
 70
1
 10
214.433080
 20
176.316580
 30
0.0
 10
228.433260
 20
176.316580
 30
0.0
 10
228.433260
 20
162.316390
 30
0.0
 10
214.433080
 20
162.316390
 30
0.0
  0
SPLINE
  5
13a
100
AcDbEntity
  8
Layer_1
 62
7
100
AcDbSpline
 70
0
 71
3
 72
28
 73
24
 74
22
 40
0.000000
 40
0.000000
 40
0.000000
 40
0.000000
 40
0.004650
 40
0.009300
 40
0.013950
 40
0.275879
 40
0.535638
 40
0.797568
 40
1.059497
 40
1.319256
 40
1.581185
 40
1.843026
 40
2.102699
 40
2.364540
 40
2.626381
 40
2.886054
 40
3.147895
 40
3.670714
 40
4.178028
 40
4.700847
 40
5.219255
 40
5.722509
 40
6.240917
 40
6.240917
 40
6.240917
 40
6.240917
 10
53.205716
 20
152.030210
 30
0.0
 10
53.207266
 20
152.030219
 30
0.0
 10
53.210366
 20
152.030236
 30
0.0
 10
53.215016
 20
152.030235
 30
0.0
 10
53.305421
 20
152.029812
 30
0.0
 10
53.481745
 20
152.007584
 30
0.0
 10
53.725684
 20
151.906175
 30
0.0
 10
53.935421
 20
151.745512
 30
0.0
 10
54.096169
 20
151.535785
 30
0.0
 10
54.197217
 20
151.291707
 30
0.0
 10
54.231653
 20
151.029766
 30
0.0
 10
54.197093
 20
150.767876
 30
0.0
 10
54.095987
 20
150.523912
 30
0.0
 10
53.935210
 20
150.314340
 30
0.0
 10
53.725587
 20
150.153655
 30
0.0
 10
53.481427
 20
150.052770
 30
0.0
 10
53.133034
 20
150.006398
 30
0.0
 10
52.695650
 20
150.123711
 30
0.0
 10
52.313831
 20
150.505967
 30
0.0
 10
52.172487
 20
151.029165
 30
0.0
 10
52.311814
 20
151.545607
 30
0.0
 10
52.687751
 20
151.942738
 30
0.0
 10
53.031361
 20
152.000766
 30
0.0
 10
53.205714
 20
152.030210
 30
0.0
 11
53.205716
 21
152.030210
 31
0.0
 11
53.210366
 21
152.030232
 31
0.0
 11
53.215016
 21
152.030232
 31
0.0
 11
53.219666
 21
152.030210
 31
0.0
 11
53.479355
 21
151.996028
 31
0.0
 11
53.719364
 21
151.896676
 31
0.0
 11
53.927234
 21
151.737312
 31
0.0
 11
54.086595
 21
151.529439
 31
0.0
 11
54.185943
 21
151.289430
 31
0.0
 11
54.220122
 21
151.029740
 31
0.0
 11
54.185829
 21
150.770155
 31
0.0
 11
54.086418
 21
150.530264
 31
0.0
 11
53.927046
 21
150.322511
 31
0.0
 11
53.719211
 21
150.163246
 31
0.0
 11
53.479269
 21
150.063959
 31
0.0
 11
53.219666
 21
150.029800
 31
0.0
 11
52.714991
 21
150.166339
 31
0.0
 11
52.356266
 21
150.525065
 31
0.0
 11
52.219727
 21
151.029740
 31
0.0
 11
52.353662
 21
151.530547
 31
0.0
 11
52.706913
 21
151.888987
 31
0.0
 11
53.205714
 21
152.030210
 31
0.0
  0
LWPOLYLINE
  5
13b
100
AcDbEntity
  8
Layer_1
 62
7
100
AcDbPolyline
 90
1
 70
1
 10
53.205714
 20
152.030210
 30
0.0
  0
SPLINE
  5
13c
100
AcDbEntity
  8
Layer_1
 62
7
100
AcDbSpline
 70
0
 71
3
 72
25
 73
21
 74
19
 40
0.000000
 40
0.000000
 40
0.000000
 40
0.000000
 40
0.004633
 40
0.009267
 40
0.013900
 40
0.275743
 40
0.535419
 40
0.797262
 40
1.059105
 40
1.318780
 40
1.580623
 40
2.103443
 40
2.610758
 40
3.133577
 40
3.656396
 40
4.163711
 40
4.686531
 40
5.204936
 40
5.708188
 40
6.226593
 40
6.226593
 40
6.226593
 40
6.226593
 10
141.265980
 20
152.030210
 30
0.0
 10
141.267524
 20
152.030219
 30
0.0
 10
141.270613
 20
152.030236
 30
0.0
 10
141.275247
 20
152.030235
 30
0.0
 10
141.365612
 20
152.029814
 30
0.0
 10
141.541861
 20
152.007442
 30
0.0
 10
141.785681
 20
151.906003
 30
0.0
 10
141.995293
 20
151.745312
 30
0.0
 10
142.155967
 20
151.535662
 30
0.0
 10
142.256856
 20
151.291505
 30
0.0
 10
142.303211
 20
150.943109
 30
0.0
 10
142.185977
 20
150.505715
 30
0.0
 10
141.803414
 20
150.123935
 30
0.0
 10
141.279890
 20
149.982037
 30
0.0
 10
140.756306
 20
150.123883
 30
0.0
 10
140.373923
 20
150.505919
 30
0.0
 10
140.232732
 20
151.029176
 30
0.0
 10
140.372017
 20
151.545601
 30
0.0
 10
140.747962
 20
151.942736
 30
0.0
 10
141.091569
 20
152.000765
 30
0.0
 10
141.265920
 20
152.030210
 30
0.0
 11
141.265980
 21
152.030210
 31
0.0
 11
141.270613
 21
152.030231
 31
0.0
 11
141.275247
 21
152.030231
 31
0.0
 11
141.279880
 21
152.030210
 31
0.0
 11
141.539468
 21
151.995916
 31
0.0
 11
141.779360
 21
151.896504
 31
0.0
 11
141.987114
 21
151.737129
 31
0.0
 11
142.146378
 21
151.529291
 31
0.0
 11
142.245664
 21
151.289346
 31
0.0
 11
142.279820
 21
151.029740
 31
0.0
 11
142.143281
 21
150.525065
 31
0.0
 11
141.784555
 21
150.166339
 31
0.0
 11
141.279880
 21
150.029800
 31
0.0
 11
140.775205
 21
150.166339
 31
0.0
 11
140.416479
 21
150.525065
 31
0.0
 11
140.279940
 21
151.029740
 31
0.0
 11
140.413874
 21
151.530545
 31
0.0
 11
140.767122
 21
151.888984
 31
0.0
 11
141.265920
 21
152.030210
 31
0.0
  0
LWPOLYLINE
  5
13d
100
AcDbEntity
  8
Layer_1
 62
7
100
AcDbPolyline
 90
1
 70
1
 10
141.265920
 20
152.030210
 30
0.0
  0
LWPOLYLINE
  5
13e
100
AcDbEntity
  8
Layer_1
 62
7
100
AcDbPolyline
 90
1
 70
1
 10
229.324710
 20
152.030210
 30
0.0
  0
SPLINE
  5
13f
100
AcDbEntity
  8
Layer_1
 62
7
100
AcDbSpline
 70
0
 71
3
 72
28
 73
24
 74
22
 40
0.000000
 40
0.000000
 40
0.000000
 40
0.000000
 40
0.004833
 40
0.009667
 40
0.014500
 40
0.276343
 40
0.536019
 40
0.797862
 40
1.059705
 40
1.319380
 40
1.581223
 40
2.104043
 40
2.611358
 40
3.134177
 40
3.396017
 40
3.655689
 40
3.917529
 40
4.179369
 40
4.439041
 40
4.700880
 40
5.219286
 40
5.722538
 40
6.240943
 40
6.240943
 40
6.240943
 40
6.240943
 10
229.324680
 20
152.030210
 30
0.0
 10
229.326291
 20
152.030219
 30
0.0
 10
229.329513
 20
152.030238
 30
0.0
 10
229.334347
 20
152.030237
 30
0.0
 10
229.424845
 20
152.029797
 30
0.0
 10
229.601161
 20
152.007454
 30
0.0
 10
229.844981
 20
151.906000
 30
0.0
 10
230.054593
 20
151.745313
 30
0.0
 10
230.215268
 20
151.535662
 30
0.0
 10
230.316153
 20
151.291506
 30
0.0
 10
230.362527
 20
150.943103
 30
0.0
 10
230.245153
 20
150.505762
 30
0.0
 10
229.863159
 20
150.123768
 30
0.0
 10
229.425817
 20
150.006390
 30
0.0
 10
229.077419
 20
150.052773
 30
0.0
 10
228.833260
 20
150.153656
 30
0.0
 10
228.623645
 20
150.314345
 30
0.0
 10
228.462844
 20
150.523905
 30
0.0
 10
228.361831
 20
150.767909
 30
0.0
 10
228.315500
 20
151.115328
 30
0.0
 10
228.430663
 20
151.545964
 30
0.0
 10
228.806789
 20
151.942643
 30
0.0
 10
229.150371
 20
152.000734
 30
0.0
 10
229.324710
 20
152.030210
 30
0.0
 11
229.324680
 21
152.030210
 31
0.0
 11
229.329513
 21
152.030233
 31
0.0
 11
229.334347
 21
152.030233
 31
0.0
 11
229.339180
 21
152.030210
 31
0.0
 11
229.598768
 21
151.995916
 31
0.0
 11
229.838660
 21
151.896504
 31
0.0
 11
230.046414
 21
151.737129
 31
0.0
 11
230.205678
 21
151.529291
 31
0.0
 11
230.304964
 21
151.289346
 31
0.0
 11
230.339120
 21
151.029740
 31
0.0
 11
230.202581
 21
150.525065
 31
0.0
 11
229.843855
 21
150.166339
 31
0.0
 11
229.339180
 21
150.029800
 31
0.0
 11
229.079578
 21
150.063961
 31
0.0
 11
228.839637
 21
150.163248
 31
0.0
 11
228.631804
 21
150.322513
 31
0.0
 11
228.472433
 21
150.530266
 31
0.0
 11
228.373023
 21
150.770156
 31
0.0
 11
228.338730
 21
151.029740
 31
0.0
 11
228.472664
 21
151.530545
 31
0.0
 11
228.825912
 21
151.888984
 31
0.0
 11
229.324710
 21
152.030210
 31
0.0
  0
LWPOLYLINE
  5
140
100
AcDbEntity
  8
Layer_1
 62
7
100
AcDbPolyline
 90
43
 70
0
 10
52.660013
 20
389.519063
 30
0.0
 10
52.385095
 20
389.508213
 30
0.0
 10
52.112243
 20
389.475143
 30
0.0
 10
51.842492
 20
389.421913
 30
0.0
 10
51.578426
 20
389.346983
 30
0.0
 10
51.320043
 20
389.251893
 30
0.0
 10
51.071480
 20
389.137173
 30
0.0
 10
50.831184
 20
389.002812
 30
0.0
 10
50.602258
 20
388.849851
 30
0.0
 10
50.386250
 20
388.679835
 30
0.0
 10
50.185229
 20
388.493283
 30
0.0
 10
49.998160
 20
388.292263
 30
0.0
 10
49.828145
 20
388.076254
 30
0.0
 10
49.675183
 20
387.846810
 30
0.0
 10
49.541341
 20
387.607032
 30
0.0
 10
49.426102
 20
387.357953
 30
0.0
 10
49.331022
 20
387.100088
 30
0.0
 10
49.256092
 20
386.836007
 30
0.0
 10
49.203382
 20
386.566264
 30
0.0
 10
49.170312
 20
386.292897
 30
0.0
 10
49.160512
 20
386.017968
 30
0.0
 10
49.159512
 20
277.005007
 30
0.0
 10
49.170362
 20
276.730077
 30
0.0
 10
49.203432
 20
276.457207
 30
0.0
 10
49.256142
 20
276.187997
 30
0.0
 10
49.331072
 20
275.922887
 30
0.0
 10
49.426152
 20
275.666057
 30
0.0
 10
49.541391
 20
275.415947
 30
0.0
 10
49.675233
 20
275.176147
 30
0.0
 10
49.828195
 20
274.948267
 30
0.0
 10
49.998210
 20
274.732257
 30
0.0
 10
50.185279
 20
274.530197
 30
0.0
 10
50.386300
 20
274.344167
 30
0.0
 10
50.602308
 20
274.173117
 30
0.0
 10
50.831235
 20
274.021187
 30
0.0
 10
51.071530
 20
273.885807
 30
0.0
 10
51.320094
 20
273.771077
 30
0.0
 10
51.578476
 20
273.675977
 30
0.0
 10
51.842542
 20
273.602077
 30
0.0
 10
52.112293
 20
273.547877
 30
0.0
 10
52.385145
 20
273.515877
 30
0.0
 10
52.660063
 20
273.505077
 30
0.0
 10
231.625830
 20
273.505077
 30
0.0
  0
SPLINE
  5
141
100
AcDbEntity
  8
Layer_1
 62
7
100
AcDbSpline
 70
0
 71
3
 72
10
 73
6
 74
4
 40
0.000000
 40
0.000000
 40
0.000000
 40
0.000000
 40
0.914167
 40
1.801262
 40
2.715428
 40
2.715428
 40
2.715428
 40
2.715428
 10
231.625830
 20
273.505077
 30
0.0
 10
231.932112
 20
273.553615
 30
0.0
 10
232.535607
 20
273.649255
 30
0.0
 10
233.230450
 20
274.345335
 30
0.0
 10
233.325016
 20
274.948999
 30
0.0
 10
233.373010
 20
275.255367
 30
0.0
 11
231.625830
 21
273.505077
 31
0.0
 11
232.507954
 21
273.744989
 31
0.0
 11
233.134667
 21
274.372818
 31
0.0
 11
233.373010
 21
275.255367
 31
0.0
  0
LWPOLYLINE
  5
142
100
AcDbEntity
  8
Layer_1
 62
7
100
AcDbPolyline
 90
4
 70
0
 10
233.373010
 20
275.255367
 30
0.0
 10
233.373010
 20
286.268024
 30
0.0
 10
233.373010
 20
305.316988
 30
0.0
 10
236.388330
 20
305.316988
 30
0.0
  0
SPLINE
  5
143
100
AcDbEntity
  8
Layer_1
 62
7
100
AcDbSpline
 70
0
 71
3
 72
10
 73
6
 74
4
 40
0.000000
 40
0.000000
 40
0.000000
 40
0.000000
 40
0.914161
 40
1.801250
 40
2.715410
 40
2.715410
 40
2.715410
 40
2.715410
 10
236.388330
 20
305.316988
 30
0.0
 10
236.694610
 20
305.365526
 30
0.0
 10
237.298101
 20
305.461165
 30
0.0
 10
237.992943
 20
306.157235
 30
0.0
 10
238.087514
 20
306.760894
 30
0.0
 10
238.135510
 20
307.067260
 30
0.0
 11
236.388330
 21
305.316988
 31
0.0
 11
237.270449
 21
305.556898
 31
0.0
 11
237.897161
 21
306.184719
 31
0.0
 11
238.135510
 21
307.067260
 31
0.0
  0
LWPOLYLINE
  5
144
100
AcDbEntity
  8
Layer_1
 62
7
100
AcDbPolyline
 90
2
 70
0
 10
238.135510
 20
307.067260
 30
0.0
 10
238.135510
 20
322.621876
 30
0.0
  0
SPLINE
  5
145
100
AcDbEntity
  8
Layer_1
 62
7
100
AcDbSpline
 70
0
 71
3
 72
10
 73
6
 74
4
 40
0.000000
 40
0.000000
 40
0.000000
 40
0.000000
 40
0.914162
 40
1.801253
 40
2.715415
 40
2.715415
 40
2.715415
 40
2.715415
 10
238.135510
 20
322.621876
 30
0.0
 10
238.086971
 20
322.928157
 30
0.0
 10
237.991331
 20
323.531648
 30
0.0
 10
237.295257
 20
324.226488
 30
0.0
 10
236.691596
 20
324.321057
 30
0.0
 10
236.385230
 20
324.369052
 30
0.0
 11
238.135510
 21
322.621876
 31
0.0
 11
237.895598
 21
323.503995
 31
0.0
 11
237.267774
 21
324.130706
 31
0.0
 11
236.385230
 21
324.369052
 31
0.0
  0
LWPOLYLINE
  5
146
100
AcDbEntity
  8
Layer_1
 62
7
100
AcDbPolyline
 90
3
 70
0
 10
236.385230
 20
324.369052
 30
0.0
 10
228.610510
 20
324.369052
 30
0.0
 10
228.610510
 20
341.671876
 30
0.0
  0
SPLINE
  5
147
100
AcDbEntity
  8
Layer_1
 62
7
100
AcDbSpline
 70
0
 71
3
 72
10
 73
6
 74
4
 40
0.000000
 40
0.000000
 40
0.000000
 40
0.000000
 40
0.914162
 40
1.801253
 40
2.715415
 40
2.715415
 40
2.715415
 40
2.715415
 10
228.610510
 20
341.671876
 30
0.0
 10
228.561971
 20
341.978157
 30
0.0
 10
228.466331
 20
342.581648
 30
0.0
 10
227.770257
 20
343.276488
 30
0.0
 10
227.166596
 20
343.371057
 30
0.0
 10
226.860230
 20
343.419052
 30
0.0
 11
228.610510
 21
341.671876
 31
0.0
 11
228.370598
 21
342.553995
 31
0.0
 11
227.742774
 21
343.180706
 31
0.0
 11
226.860230
 21
343.419052
 31
0.0
  0
LWPOLYLINE
  5
148
100
AcDbEntity
  8
Layer_1
 62
7
100
AcDbPolyline
 90
5
 70
0
 10
226.860230
 20
343.419052
 30
0.0
 10
223.848010
 20
343.419052
 30
0.0
 10
223.848010
 20
362.466989
 30
0.0
 10
227.590420
 20
362.466989
 30
0.0
 10
231.625830
 20
362.466989
 30
0.0
  0
SPLINE
  5
149
100
AcDbEntity
  8
Layer_1
 62
7
100
AcDbSpline
 70
0
 71
3
 72
10
 73
6
 74
4
 40
0.000000
 40
0.000000
 40
0.000000
 40
0.000000
 40
0.914161
 40
1.801250
 40
2.715411
 40
2.715411
 40
2.715411
 40
2.715411
 10
231.625830
 20
362.466989
 30
0.0
 10
231.932110
 20
362.515527
 30
0.0
 10
232.535601
 20
362.611165
 30
0.0
 10
233.230443
 20
363.307236
 30
0.0
 10
233.325014
 20
363.910895
 30
0.0
 10
233.373010
 20
364.217261
 30
0.0
 11
231.625830
 21
362.466989
 31
0.0
 11
232.507949
 21
362.706898
 31
0.0
 11
233.134661
 21
363.334720
 31
0.0
 11
233.373010
 21
364.217261
 31
0.0
  0
LWPOLYLINE
  5
14a
100
AcDbEntity
  8
Layer_1
 62
7
100
AcDbPolyline
 90
3
 70
0
 10
233.373010
 20
364.217261
 30
0.0
 10
233.373010
 20
381.520085
 30
0.0
 10
233.373010
 20
387.770879
 30
0.0
  0
SPLINE
  5
14b
100
AcDbEntity
  8
Layer_1
 62
7
100
AcDbSpline
 70
0
 71
3
 72
10
 73
6
 74
4
 40
0.000000
 40
0.000000
 40
0.000000
 40
0.000000
 40
0.914164
 40
1.801257
 40
2.715421
 40
2.715421
 40
2.715421
 40
2.715421
 10
233.373010
 20
387.770879
 30
0.0
 10
233.324472
 20
388.077161
 30
0.0
 10
233.228834
 20
388.680654
 30
0.0
 10
232.532759
 20
389.375497
 30
0.0
 10
231.929097
 20
389.470066
 30
0.0
 10
231.622730
 20
389.518061
 30
0.0
 11
233.373010
 21
387.770879
 31
0.0
 11
233.133100
 21
388.653001
 31
0.0
 11
232.505276
 21
389.279714
 31
0.0
 11
231.622730
 21
389.518061
 31
0.0
  0
LWPOLYLINE
  5
14c
100
AcDbEntity
  8
Layer_1
 62
7
100
AcDbPolyline
 90
2
 70
0
 10
231.622730
 20
389.518061
 30
0.0
 10
52.660013
 20
389.519063
 30
0.0
  0
SPLINE
  5
14d
100
AcDbEntity
  8
Layer_1
 62
7
100
AcDbSpline
 70
0
 71
3
 72
22
 73
18
 74
16
 40
0.000000
 40
0.000000
 40
0.000000
 40
0.000000
 40
0.004480
 40
0.008960
 40
0.013440
 40
0.536259
 40
1.043574
 40
1.566393
 40
2.089211
 40
2.596526
 40
3.119344
 40
3.642163
 40
4.149477
 40
4.672296
 40
5.190697
 40
5.693945
 40
6.212346
 40
6.212346
 40
6.212346
 40
6.212346
 10
53.239306
 20
386.520789
 30
0.0
 10
53.240799
 20
386.520797
 30
0.0
 10
53.243786
 20
386.520813
 30
0.0
 10
53.248266
 20
386.520812
 30
0.0
 10
53.425511
 20
386.520027
 30
0.0
 10
53.777214
 20
386.427303
 30
0.0
 10
54.158433
 20
386.044284
 30
0.0
 10
54.300463
 20
385.520888
 30
0.0
 10
54.158659
 20
384.997260
 30
0.0
 10
53.776328
 20
384.614926
 30
0.0
 10
53.252744
 20
384.473179
 30
0.0
 10
52.729170
 20
384.614985
 30
0.0
 10
52.346810
 20
384.997028
 30
0.0
 10
52.205518
 20
385.520296
 30
0.0
 10
52.345181
 20
386.036660
 30
0.0
 10
52.721306
 20
386.433587
 30
0.0
 10
53.064944
 20
386.491436
 30
0.0
 10
53.239311
 20
386.520789
 30
0.0
 11
53.239306
 21
386.520789
 31
0.0
 11
53.243786
 21
386.520809
 31
0.0
 11
53.248266
 21
386.520809
 31
0.0
 11
53.252746
 21
386.520789
 31
0.0
 11
53.757421
 21
386.384250
 31
0.0
 11
54.116146
 21
386.025524
 31
0.0
 11
54.252685
 21
385.520849
 31
0.0
 11
54.116146
 21
385.016174
 31
0.0
 11
53.757421
 21
384.657449
 31
0.0
 11
53.252746
 21
384.520910
 31
0.0
 11
52.748071
 21
384.657449
 31
0.0
 11
52.389346
 21
385.016174
 31
0.0
 11
52.252807
 21
385.520849
 31
0.0
 11
52.387008
 21
386.021578
 31
0.0
 11
52.740443
 21
386.379827
 31
0.0
 11
53.239311
 21
386.520789
 31
0.0
  0
LWPOLYLINE
  5
14e
100
AcDbEntity
  8
Layer_1
 62
7
100
AcDbPolyline
 90
1
 70
1
 10
53.239311
 20
386.520789
 30
0.0
  0
SPLINE
  5
14f
100
AcDbEntity
  8
Layer_1
 62
7
100
AcDbSpline
 70
0
 71
3
 72
22
 73
18
 74
16
 40
0.000000
 40
0.000000
 40
0.000000
 40
0.000000
 40
0.004467
 40
0.008933
 40
0.013400
 40
0.536219
 40
1.043534
 40
1.566354
 40
2.089173
 40
2.596487
 40
3.119306
 40
3.642125
 40
4.149440
 40
4.672259
 40
5.190662
 40
5.693912
 40
6.212315
 40
6.212315
 40
6.212315
 40
6.212315
 10
103.142200
 20
386.520789
 30
0.0
 10
103.143689
 20
386.520797
 30
0.0
 10
103.146667
 20
386.520813
 30
0.0
 10
103.151133
 20
386.520812
 30
0.0
 10
103.328369
 20
386.520030
 30
0.0
 10
103.680068
 20
386.427302
 30
0.0
 10
104.061288
 20
386.044285
 30
0.0
 10
104.203318
 20
385.520888
 30
0.0
 10
104.061514
 20
384.997260
 30
0.0
 10
103.679183
 20
384.614926
 30
0.0
 10
103.155598
 20
384.473180
 30
0.0
 10
102.632024
 20
384.614985
 30
0.0
 10
102.249664
 20
384.997028
 30
0.0
 10
102.108371
 20
385.520297
 30
0.0
 10
102.248035
 20
386.036662
 30
0.0
 10
102.624163
 20
386.433589
 30
0.0
 10
102.967802
 20
386.491436
 30
0.0
 10
103.142170
 20
386.520789
 30
0.0
 11
103.142200
 21
386.520789
 31
0.0
 11
103.146667
 21
386.520809
 31
0.0
 11
103.151133
 21
386.520809
 31
0.0
 11
103.155600
 21
386.520789
 31
0.0
 11
103.660275
 21
386.384250
 31
0.0
 11
104.019001
 21
386.025524
 31
0.0
 11
104.155540
 21
385.520849
 31
0.0
 11
104.019001
 21
385.016174
 31
0.0
 11
103.660275
 21
384.657449
 31
0.0
 11
103.155600
 21
384.520910
 31
0.0
 11
102.650925
 21
384.657449
 31
0.0
 11
102.292199
 21
385.016174
 31
0.0
 11
102.155660
 21
385.520849
 31
0.0
 11
102.289862
 21
386.021580
 31
0.0
 11
102.643299
 21
386.379829
 31
0.0
 11
103.142170
 21
386.520789
 31
0.0
  0
LWPOLYLINE
  5
150
100
AcDbEntity
  8
Layer_1
 62
7
100
AcDbPolyline
 90
1
 70
1
 10
103.142170
 20
386.520789
 30
0.0
  0
SPLINE
  5
151
100
AcDbEntity
  8
Layer_1
 62
7
100
AcDbSpline
 70
0
 71
3
 72
28
 73
24
 74
22
 40
0.000000
 40
0.000000
 40
0.000000
 40
0.000000
 40
0.004467
 40
0.008933
 40
0.013400
 40
0.275240
 40
0.534912
 40
0.796752
 40
1.058592
 40
1.318264
 40
1.580104
 40
1.841943
 40
2.101615
 40
2.363455
 40
2.625295
 40
2.884966
 40
3.146806
 40
3.669625
 40
4.176940
 40
4.699759
 40
5.218158
 40
5.721405
 40
6.239805
 40
6.239805
 40
6.239805
 40
6.239805
 10
125.158950
 20
386.520789
 30
0.0
 10
125.160439
 20
386.520797
 30
0.0
 10
125.163417
 20
386.520813
 30
0.0
 10
125.167883
 20
386.520812
 30
0.0
 10
125.258137
 20
386.520407
 30
0.0
 10
125.434340
 20
386.498166
 30
0.0
 10
125.678207
 20
386.396838
 30
0.0
 10
125.887906
 20
386.236272
 30
0.0
 10
126.048665
 20
386.026668
 30
0.0
 10
126.149761
 20
385.782715
 30
0.0
 10
126.184368
 20
385.520849
 30
0.0
 10
126.149760
 20
385.258985
 30
0.0
 10
126.048669
 20
385.015023
 30
0.0
 10
125.887889
 20
384.805452
 30
0.0
 10
125.678269
 20
384.644767
 30
0.0
 10
125.434110
 20
384.543881
 30
0.0
 10
125.085718
 20
384.497507
 30
0.0
 10
124.648328
 20
384.614822
 30
0.0
 10
124.266536
 20
384.997072
 30
0.0
 10
124.125089
 20
385.520284
 30
0.0
 10
124.264792
 20
386.036662
 30
0.0
 10
124.640905
 20
386.433584
 30
0.0
 10
124.984543
 20
386.491435
 30
0.0
 10
125.158910
 20
386.520789
 30
0.0
 11
125.158950
 21
386.520789
 31
0.0
 11
125.163417
 21
386.520809
 31
0.0
 11
125.167883
 21
386.520809
 31
0.0
 11
125.172350
 21
386.520789
 31
0.0
 11
125.431952
 21
386.486628
 31
0.0
 11
125.671893
 21
386.387341
 31
0.0
 11
125.879726
 21
386.228076
 31
0.0
 11
126.039097
 21
386.020323
 31
0.0
 11
126.138507
 21
385.780433
 31
0.0
 11
126.172800
 21
385.520849
 31
0.0
 11
126.138507
 21
385.261265
 31
0.0
 11
126.039097
 21
385.021375
 31
0.0
 11
125.879726
 21
384.813623
 31
0.0
 11
125.671892
 21
384.654358
 31
0.0
 11
125.431952
 21
384.555071
 31
0.0
 11
125.172350
 21
384.520910
 31
0.0
 11
124.667675
 21
384.657449
 31
0.0
 11
124.308949
 21
385.016174
 31
0.0
 11
124.172410
 21
385.520849
 31
0.0
 11
124.306610
 21
386.021577
 31
0.0
 11
124.660044
 21
386.379826
 31
0.0
 11
125.158910
 21
386.520789
 31
0.0
  0
LWPOLYLINE
  5
152
100
AcDbEntity
  8
Layer_1
 62
7
100
AcDbPolyline
 90
1
 70
1
 10
125.158910
 20
386.520789
 30
0.0
  0
SPLINE
  5
153
100
AcDbEntity
  8
Layer_1
 62
7
100
AcDbSpline
 70
0
 71
3
 72
22
 73
18
 74
16
 40
0.000000
 40
0.000000
 40
0.000000
 40
0.000000
 40
0.004467
 40
0.008933
 40
0.013400
 40
0.536219
 40
1.043534
 40
1.566354
 40
2.089173
 40
2.596487
 40
3.119306
 40
3.642125
 40
4.149440
 40
4.672259
 40
5.190658
 40
5.693905
 40
6.212305
 40
6.212305
 40
6.212305
 40
6.212305
 10
205.359220
 20
386.520789
 30
0.0
 10
205.360709
 20
386.520797
 30
0.0
 10
205.363687
 20
386.520813
 30
0.0
 10
205.368153
 20
386.520812
 30
0.0
 10
205.545389
 20
386.520030
 30
0.0
 10
205.897088
 20
386.427302
 30
0.0
 10
206.278308
 20
386.044285
 30
0.0
 10
206.420338
 20
385.520888
 30
0.0
 10
206.278534
 20
384.997260
 30
0.0
 10
205.896203
 20
384.614926
 30
0.0
 10
205.372618
 20
384.473180
 30
0.0
 10
204.849044
 20
384.614985
 30
0.0
 10
204.466684
 20
384.997028
 30
0.0
 10
204.325391
 20
385.520296
 30
0.0
 10
204.465053
 20
386.036659
 30
0.0
 10
204.841177
 20
386.433585
 30
0.0
 10
205.184813
 20
386.491435
 30
0.0
 10
205.359180
 20
386.520789
 30
0.0
 11
205.359220
 21
386.520789
 31
0.0
 11
205.363687
 21
386.520809
 31
0.0
 11
205.368153
 21
386.520809
 31
0.0
 11
205.372620
 21
386.520789
 31
0.0
 11
205.877295
 21
386.384250
 31
0.0
 11
206.236021
 21
386.025524
 31
0.0
 11
206.372560
 21
385.520849
 31
0.0
 11
206.236021
 21
385.016174
 31
0.0
 11
205.877295
 21
384.657449
 31
0.0
 11
205.372620
 21
384.520910
 31
0.0
 11
204.867945
 21
384.657449
 31
0.0
 11
204.509219
 21
385.016174
 31
0.0
 11
204.372680
 21
385.520849
 31
0.0
 11
204.506880
 21
386.021577
 31
0.0
 11
204.860314
 21
386.379826
 31
0.0
 11
205.359180
 21
386.520789
 31
0.0
  0
LWPOLYLINE
  5
154
100
AcDbEntity
  8
Layer_1
 62
7
100
AcDbPolyline
 90
1
 70
1
 10
205.359180
 20
386.520789
 30
0.0
  0
LWPOLYLINE
  5
155
100
AcDbEntity
  8
Layer_1
 62
7
100
AcDbPolyline
 90
1
 70
1
 10
229.358230
 20
386.520789
 30
0.0
  0
LWPOLYLINE
  5
156
100
AcDbEntity
  8
Layer_1
 62
7
100
AcDbPolyline
 90
10
 70
1
 10
63.458837
 20
381.521090
 30
0.0
 10
88.958573
 20
381.521090
 30
0.0
 10
88.958573
 20
355.521147
 30
0.0
 10
88.958573
 20
345.521220
 30
0.0
 10
77.358766
 20
345.521220
 30
0.0
 10
77.358766
 20
355.521147
 30
0.0
 10
75.058647
 20
355.521147
 30
0.0
 10
75.058647
 20
345.521220
 30
0.0
 10
63.458837
 20
345.521220
 30
0.0
 10
63.458837
 20
355.521147
 30
0.0
  0
LWPOLYLINE
  5
157
100
AcDbEntity
  8
Layer_1
 62
7
100
AcDbPolyline
 90
28
 70
1
 10
107.641670
 20
380.805895
 30
0.0
 10
111.452810
 20
380.805895
 30
0.0
 10
111.452810
 20
378.995166
 30
0.0
 10
116.547070
 20
378.995166
 30
0.0
 10
116.547070
 20
377.995227
 30
0.0
 10
117.347020
 20
377.995227
 30
0.0
 10
117.347020
 20
374.895157
 30
0.0
 10
116.547070
 20
374.895157
 30
0.0
 10
116.547070
 20
369.094987
 30
0.0
 10
117.347020
 20
369.094987
 30
0.0
 10
117.347020
 20
365.995446
 30
0.0
 10
116.547070
 20
365.995446
 30
0.0
 10
116.547070
 20
364.994978
 30
0.0
 10
111.452810
 20
364.994978
 30
0.0
 10
111.452810
 20
363.184249
 30
0.0
 10
107.641670
 20
363.184249
 30
0.0
 10
107.641670
 20
364.994978
 30
0.0
 10
102.547410
 20
364.994978
 30
0.0
 10
102.547410
 20
365.995446
 30
0.0
 10
101.747460
 20
365.995446
 30
0.0
 10
101.747460
 20
369.094987
 30
0.0
 10
102.547410
 20
369.094987
 30
0.0
 10
102.547410
 20
374.895157
 30
0.0
 10
101.747460
 20
374.895157
 30
0.0
 10
101.747460
 20
377.995227
 30
0.0
 10
102.547410
 20
377.995227
 30
0.0
 10
102.547410
 20
378.995166
 30
0.0
 10
107.641670
 20
378.995166
 30
0.0
  0
LWPOLYLINE
  5
158
100
AcDbEntity
  8
Layer_1
 62
7
100
AcDbPolyline
 90
28
 70
1
 10
126.691670
 20
380.805895
 30
0.0
 10
130.502810
 20
380.805895
 30
0.0
 10
130.502810
 20
378.995166
 30
0.0
 10
135.597070
 20
378.995166
 30
0.0
 10
135.597070
 20
377.995227
 30
0.0
 10
136.397020
 20
377.995227
 30
0.0
 10
136.397020
 20
374.895157
 30
0.0
 10
135.597070
 20
374.895157
 30
0.0
 10
135.597070
 20
369.094987
 30
0.0
 10
136.397020
 20
369.094987
 30
0.0
 10
136.397020
 20
365.995446
 30
0.0
 10
135.597070
 20
365.995446
 30
0.0
 10
135.597070
 20
364.994978
 30
0.0
 10
130.502810
 20
364.994978
 30
0.0
 10
130.502810
 20
363.184249
 30
0.0
 10
126.691670
 20
363.184249
 30
0.0
 10
126.691670
 20
364.994978
 30
0.0
 10
121.597410
 20
364.994978
 30
0.0
 10
121.597410
 20
365.995446
 30
0.0
 10
120.797460
 20
365.995446
 30
0.0
 10
120.797460
 20
369.094987
 30
0.0
 10
121.597410
 20
369.094987
 30
0.0
 10
121.597410
 20
374.895157
 30
0.0
 10
120.797460
 20
374.895157
 30
0.0
 10
120.797460
 20
377.995227
 30
0.0
 10
121.597410
 20
377.995227
 30
0.0
 10
121.597410
 20
378.995166
 30
0.0
 10
126.691670
 20
378.995166
 30
0.0
  0
LWPOLYLINE
  5
159
100
AcDbEntity
  8
Layer_1
 62
7
100
AcDbPolyline
 90
28
 70
1
 10
145.741670
 20
380.805895
 30
0.0
 10
149.552810
 20
380.805895
 30
0.0
 10
149.552810
 20
378.995166
 30
0.0
 10
154.647070
 20
378.995166
 30
0.0
 10
154.647070
 20
377.995227
 30
0.0
 10
155.447020
 20
377.995227
 30
0.0
 10
155.447020
 20
374.895157
 30
0.0
 10
154.647070
 20
374.895157
 30
0.0
 10
154.647070
 20
369.094987
 30
0.0
 10
155.447020
 20
369.094987
 30
0.0
 10
155.447020
 20
365.995446
 30
0.0
 10
154.647070
 20
365.995446
 30
0.0
 10
154.647070
 20
364.994978
 30
0.0
 10
149.552810
 20
364.994978
 30
0.0
 10
149.552810
 20
363.184249
 30
0.0
 10
145.741670
 20
363.184249
 30
0.0
 10
145.741670
 20
364.994978
 30
0.0
 10
140.647410
 20
364.994978
 30
0.0
 10
140.647410
 20
365.995446
 30
0.0
 10
139.847460
 20
365.995446
 30
0.0
 10
139.847460
 20
369.094987
 30
0.0
 10
140.647410
 20
369.094987
 30
0.0
 10
140.647410
 20
374.895157
 30
0.0
 10
139.847460
 20
374.895157
 30
0.0
 10
139.847460
 20
377.995227
 30
0.0
 10
140.647410
 20
377.995227
 30
0.0
 10
140.647410
 20
378.995166
 30
0.0
 10
145.741670
 20
378.995166
 30
0.0
  0
LWPOLYLINE
  5
15a
100
AcDbEntity
  8
Layer_1
 62
7
100
AcDbPolyline
 90
28
 70
1
 10
164.791670
 20
380.805895
 30
0.0
 10
168.602810
 20
380.805895
 30
0.0
 10
168.602810
 20
378.995166
 30
0.0
 10
173.697070
 20
378.995166
 30
0.0
 10
173.697070
 20
377.995227
 30
0.0
 10
174.497020
 20
377.995227
 30
0.0
 10
174.497020
 20
374.895157
 30
0.0
 10
173.697070
 20
374.895157
 30
0.0
 10
173.697070
 20
369.094987
 30
0.0
 10
174.497020
 20
369.094987
 30
0.0
 10
174.497020
 20
365.995446
 30
0.0
 10
173.697070
 20
365.995446
 30
0.0
 10
173.697070
 20
364.994978
 30
0.0
 10
168.602810
 20
364.994978
 30
0.0
 10
168.602810
 20
363.184249
 30
0.0
 10
164.791670
 20
363.184249
 30
0.0
 10
164.791670
 20
364.994978
 30
0.0
 10
159.697410
 20
364.994978
 30
0.0
 10
159.697410
 20
365.995446
 30
0.0
 10
158.897450
 20
365.995446
 30
0.0
 10
158.897450
 20
369.094987
 30
0.0
 10
159.697410
 20
369.094987
 30
0.0
 10
159.697410
 20
374.895157
 30
0.0
 10
158.897450
 20
374.895157
 30
0.0
 10
158.897450
 20
377.995227
 30
0.0
 10
159.697410
 20
377.995227
 30
0.0
 10
159.697410
 20
378.995166
 30
0.0
 10
164.791670
 20
378.995166
 30
0.0
  0
LWPOLYLINE
  5
15b
100
AcDbEntity
  8
Layer_1
 62
7
100
AcDbPolyline
 90
28
 70
1
 10
183.841670
 20
380.805895
 30
0.0
 10
187.652810
 20
380.805895
 30
0.0
 10
187.652810
 20
378.995166
 30
0.0
 10
192.747070
 20
378.995166
 30
0.0
 10
192.747070
 20
377.995227
 30
0.0
 10
193.547020
 20
377.995227
 30
0.0
 10
193.547020
 20
374.895157
 30
0.0
 10
192.747070
 20
374.895157
 30
0.0
 10
192.747070
 20
369.094987
 30
0.0
 10
193.547020
 20
369.094987
 30
0.0
 10
193.547020
 20
365.995446
 30
0.0
 10
192.747070
 20
365.995446
 30
0.0
 10
192.747070
 20
364.994978
 30
0.0
 10
187.652810
 20
364.994978
 30
0.0
 10
187.652810
 20
363.184249
 30
0.0
 10
183.841670
 20
363.184249
 30
0.0
 10
183.841670
 20
364.994978
 30
0.0
 10
178.747410
 20
364.994978
 30
0.0
 10
178.747410
 20
365.995446
 30
0.0
 10
177.947450
 20
365.995446
 30
0.0
 10
177.947450
 20
369.094987
 30
0.0
 10
178.747410
 20
369.094987
 30
0.0
 10
178.747410
 20
374.895157
 30
0.0
 10
177.947450
 20
374.895157
 30
0.0
 10
177.947450
 20
377.995227
 30
0.0
 10
178.747410
 20
377.995227
 30
0.0
 10
178.747410
 20
378.995166
 30
0.0
 10
183.841670
 20
378.995166
 30
0.0
  0
LWPOLYLINE
  5
15c
100
AcDbEntity
  8
Layer_1
 62
7
100
AcDbPolyline
 90
28
 70
1
 10
202.891670
 20
380.805895
 30
0.0
 10
206.702810
 20
380.805895
 30
0.0
 10
206.702810
 20
378.995166
 30
0.0
 10
211.797070
 20
378.995166
 30
0.0
 10
211.797070
 20
377.995227
 30
0.0
 10
212.597020
 20
377.995227
 30
0.0
 10
212.597020
 20
374.895157
 30
0.0
 10
211.797070
 20
374.895157
 30
0.0
 10
211.797070
 20
369.094987
 30
0.0
 10
212.597020
 20
369.094987
 30
0.0
 10
212.597020
 20
365.995446
 30
0.0
 10
211.797070
 20
365.995446
 30
0.0
 10
211.797070
 20
364.994978
 30
0.0
 10
206.702810
 20
364.994978
 30
0.0
 10
206.702810
 20
363.184249
 30
0.0
 10
202.891670
 20
363.184249
 30
0.0
 10
202.891670
 20
364.994978
 30
0.0
 10
197.797410
 20
364.994978
 30
0.0
 10
197.797410
 20
365.995446
 30
0.0
 10
196.997450
 20
365.995446
 30
0.0
 10
196.997450
 20
369.094987
 30
0.0
 10
197.797410
 20
369.094987
 30
0.0
 10
197.797410
 20
374.895157
 30
0.0
 10
196.997450
 20
374.895157
 30
0.0
 10
196.997450
 20
377.995227
 30
0.0
 10
197.797410
 20
377.995227
 30
0.0
 10
197.797410
 20
378.995166
 30
0.0
 10
202.891670
 20
378.995166
 30
0.0
  0
LWPOLYLINE
  5
15d
100
AcDbEntity
  8
Layer_1
 62
7
100
AcDbPolyline
 90
28
 70
1
 10
221.941670
 20
380.805895
 30
0.0
 10
225.752810
 20
380.805895
 30
0.0
 10
225.752810
 20
378.995166
 30
0.0
 10
230.847070
 20
378.995166
 30
0.0
 10
230.847070
 20
377.995227
 30
0.0
 10
231.647020
 20
377.995227
 30
0.0
 10
231.647020
 20
374.895157
 30
0.0
 10
230.847070
 20
374.895157
 30
0.0
 10
230.847070
 20
369.094987
 30
0.0
 10
231.647020
 20
369.094987
 30
0.0
 10
231.647020
 20
365.995446
 30
0.0
 10
230.847070
 20
365.995446
 30
0.0
 10
230.847070
 20
364.994978
 30
0.0
 10
225.752810
 20
364.994978
 30
0.0
 10
225.752810
 20
363.184249
 30
0.0
 10
221.941670
 20
363.184249
 30
0.0
 10
221.941670
 20
364.994978
 30
0.0
 10
216.847410
 20
364.994978
 30
0.0
 10
216.847410
 20
365.995446
 30
0.0
 10
216.047450
 20
365.995446
 30
0.0
 10
216.047450
 20
369.094987
 30
0.0
 10
216.847410
 20
369.094987
 30
0.0
 10
216.847410
 20
374.895157
 30
0.0
 10
216.047450
 20
374.895157
 30
0.0
 10
216.047450
 20
377.995227
 30
0.0
 10
216.847410
 20
377.995227
 30
0.0
 10
216.847410
 20
378.995166
 30
0.0
 10
221.941670
 20
378.995166
 30
0.0
  0
LWPOLYLINE
  5
15e
100
AcDbEntity
  8
Layer_1
 62
7
100
AcDbPolyline
 90
28
 70
1
 10
112.404690
 20
361.755894
 30
0.0
 10
116.215820
 20
361.755894
 30
0.0
 10
116.215820
 20
359.945165
 30
0.0
 10
121.310090
 20
359.945165
 30
0.0
 10
121.310090
 20
358.945226
 30
0.0
 10
122.110040
 20
358.945226
 30
0.0
 10
122.110040
 20
355.845156
 30
0.0
 10
121.310090
 20
355.845156
 30
0.0
 10
121.310090
 20
350.044986
 30
0.0
 10
122.110040
 20
350.044986
 30
0.0
 10
122.110040
 20
346.945445
 30
0.0
 10
121.310090
 20
346.945445
 30
0.0
 10
121.310090
 20
345.944976
 30
0.0
 10
116.215820
 20
345.944976
 30
0.0
 10
116.215820
 20
344.134248
 30
0.0
 10
112.404690
 20
344.134248
 30
0.0
 10
112.404690
 20
345.944976
 30
0.0
 10
107.310430
 20
345.944976
 30
0.0
 10
107.310430
 20
346.945445
 30
0.0
 10
106.510470
 20
346.945445
 30
0.0
 10
106.510470
 20
350.044986
 30
0.0
 10
107.310430
 20
350.044986
 30
0.0
 10
107.310430
 20
355.845156
 30
0.0
 10
106.510470
 20
355.845156
 30
0.0
 10
106.510470
 20
358.945226
 30
0.0
 10
107.310430
 20
358.945226
 30
0.0
 10
107.310430
 20
359.945165
 30
0.0
 10
112.404690
 20
359.945165
 30
0.0
  0
LWPOLYLINE
  5
15f
100
AcDbEntity
  8
Layer_1
 62
7
100
AcDbPolyline
 90
28
 70
1
 10
136.216670
 20
361.755894
 30
0.0
 10
140.027810
 20
361.755894
 30
0.0
 10
140.027810
 20
359.945165
 30
0.0
 10
145.122070
 20
359.945165
 30
0.0
 10
145.122070
 20
358.945226
 30
0.0
 10
145.922020
 20
358.945226
 30
0.0
 10
145.922020
 20
355.845156
 30
0.0
 10
145.122070
 20
355.845156
 30
0.0
 10
145.122070
 20
350.044986
 30
0.0
 10
145.922020
 20
350.044986
 30
0.0
 10
145.922020
 20
346.945445
 30
0.0
 10
145.122070
 20
346.945445
 30
0.0
 10
145.122070
 20
345.944976
 30
0.0
 10
140.027810
 20
345.944976
 30
0.0
 10
140.027810
 20
344.134248
 30
0.0
 10
136.216670
 20
344.134248
 30
0.0
 10
136.216670
 20
345.944976
 30
0.0
 10
131.122410
 20
345.944976
 30
0.0
 10
131.122410
 20
346.945445
 30
0.0
 10
130.322460
 20
346.945445
 30
0.0
 10
130.322460
 20
350.044986
 30
0.0
 10
131.122410
 20
350.044986
 30
0.0
 10
131.122410
 20
355.845156
 30
0.0
 10
130.322460
 20
355.845156
 30
0.0
 10
130.322460
 20
358.945226
 30
0.0
 10
131.122410
 20
358.945226
 30
0.0
 10
131.122410
 20
359.945165
 30
0.0
 10
136.216670
 20
359.945165
 30
0.0
  0
LWPOLYLINE
  5
160
100
AcDbEntity
  8
Layer_1
 62
7
100
AcDbPolyline
 90
28
 70
1
 10
155.266670
 20
361.755894
 30
0.0
 10
159.077810
 20
361.755894
 30
0.0
 10
159.077810
 20
359.945165
 30
0.0
 10
164.172070
 20
359.945165
 30
0.0
 10
164.172070
 20
358.945226
 30
0.0
 10
164.972020
 20
358.945226
 30
0.0
 10
164.972020
 20
355.845156
 30
0.0
 10
164.172070
 20
355.845156
 30
0.0
 10
164.172070
 20
350.044986
 30
0.0
 10
164.972020
 20
350.044986
 30
0.0
 10
164.972020
 20
346.945445
 30
0.0
 10
164.172070
 20
346.945445
 30
0.0
 10
164.172070
 20
345.944976
 30
0.0
 10
159.077810
 20
345.944976
 30
0.0
 10
159.077810
 20
344.134248
 30
0.0
 10
155.266670
 20
344.134248
 30
0.0
 10
155.266670
 20
345.944976
 30
0.0
 10
150.172410
 20
345.944976
 30
0.0
 10
150.172410
 20
346.945445
 30
0.0
 10
149.372450
 20
346.945445
 30
0.0
 10
149.372450
 20
350.044986
 30
0.0
 10
150.172410
 20
350.044986
 30
0.0
 10
150.172410
 20
355.845156
 30
0.0
 10
149.372450
 20
355.845156
 30
0.0
 10
149.372450
 20
358.945226
 30
0.0
 10
150.172410
 20
358.945226
 30
0.0
 10
150.172410
 20
359.945165
 30
0.0
 10
155.266670
 20
359.945165
 30
0.0
  0
LWPOLYLINE
  5
161
100
AcDbEntity
  8
Layer_1
 62
7
100
AcDbPolyline
 90
28
 70
1
 10
174.316670
 20
361.755894
 30
0.0
 10
178.127810
 20
361.755894
 30
0.0
 10
178.127810
 20
359.945165
 30
0.0
 10
183.222070
 20
359.945165
 30
0.0
 10
183.222070
 20
358.945226
 30
0.0
 10
184.022020
 20
358.945226
 30
0.0
 10
184.022020
 20
355.845156
 30
0.0
 10
183.222070
 20
355.845156
 30
0.0
 10
183.222070
 20
350.044986
 30
0.0
 10
184.022020
 20
350.044986
 30
0.0
 10
184.022020
 20
346.945445
 30
0.0
 10
183.222070
 20
346.945445
 30
0.0
 10
183.222070
 20
345.944976
 30
0.0
 10
178.127810
 20
345.944976
 30
0.0
 10
178.127810
 20
344.134248
 30
0.0
 10
174.316670
 20
344.134248
 30
0.0
 10
174.316670
 20
345.944976
 30
0.0
 10
169.222410
 20
345.944976
 30
0.0
 10
169.222410
 20
346.945445
 30
0.0
 10
168.422450
 20
346.945445
 30
0.0
 10
168.422450
 20
350.044986
 30
0.0
 10
169.222410
 20
350.044986
 30
0.0
 10
169.222410
 20
355.845156
 30
0.0
 10
168.422450
 20
355.845156
 30
0.0
 10
168.422450
 20
358.945226
 30
0.0
 10
169.222410
 20
358.945226
 30
0.0
 10
169.222410
 20
359.945165
 30
0.0
 10
174.316670
 20
359.945165
 30
0.0
  0
LWPOLYLINE
  5
162
100
AcDbEntity
  8
Layer_1
 62
7
100
AcDbPolyline
 90
28
 70
1
 10
193.366670
 20
361.755894
 30
0.0
 10
197.177810
 20
361.755894
 30
0.0
 10
197.177810
 20
359.945165
 30
0.0
 10
202.272070
 20
359.945165
 30
0.0
 10
202.272070
 20
358.945226
 30
0.0
 10
203.072020
 20
358.945226
 30
0.0
 10
203.072020
 20
355.845156
 30
0.0
 10
202.272070
 20
355.845156
 30
0.0
 10
202.272070
 20
350.044986
 30
0.0
 10
203.072020
 20
350.044986
 30
0.0
 10
203.072020
 20
346.945445
 30
0.0
 10
202.272070
 20
346.945445
 30
0.0
 10
202.272070
 20
345.944976
 30
0.0
 10
197.177810
 20
345.944976
 30
0.0
 10
197.177810
 20
344.134248
 30
0.0
 10
193.366670
 20
344.134248
 30
0.0
 10
193.366670
 20
345.944976
 30
0.0
 10
188.272410
 20
345.944976
 30
0.0
 10
188.272410
 20
346.945445
 30
0.0
 10
187.472450
 20
346.945445
 30
0.0
 10
187.472450
 20
350.044986
 30
0.0
 10
188.272410
 20
350.044986
 30
0.0
 10
188.272410
 20
355.845156
 30
0.0
 10
187.472450
 20
355.845156
 30
0.0
 10
187.472450
 20
358.945226
 30
0.0
 10
188.272410
 20
358.945226
 30
0.0
 10
188.272410
 20
359.945165
 30
0.0
 10
193.366670
 20
359.945165
 30
0.0
  0
LWPOLYLINE
  5
163
100
AcDbEntity
  8
Layer_1
 62
7
100
AcDbPolyline
 90
28
 70
1
 10
212.416670
 20
361.755894
 30
0.0
 10
216.227810
 20
361.755894
 30
0.0
 10
216.227810
 20
359.945165
 30
0.0
 10
221.322070
 20
359.945165
 30
0.0
 10
221.322070
 20
358.945226
 30
0.0
 10
222.122020
 20
358.945226
 30
0.0
 10
222.122020
 20
355.845156
 30
0.0
 10
221.322070
 20
355.845156
 30
0.0
 10
221.322070
 20
350.044986
 30
0.0
 10
222.122020
 20
350.044986
 30
0.0
 10
222.122020
 20
346.945445
 30
0.0
 10
221.322070
 20
346.945445
 30
0.0
 10
221.322070
 20
345.944976
 30
0.0
 10
216.227810
 20
345.944976
 30
0.0
 10
216.227810
 20
344.134248
 30
0.0
 10
212.416670
 20
344.134248
 30
0.0
 10
212.416670
 20
345.944976
 30
0.0
 10
207.322410
 20
345.944976
 30
0.0
 10
207.322410
 20
346.945445
 30
0.0
 10
206.522450
 20
346.945445
 30
0.0
 10
206.522450
 20
350.044986
 30
0.0
 10
207.322410
 20
350.044986
 30
0.0
 10
207.322410
 20
355.845156
 30
0.0
 10
206.522450
 20
355.845156
 30
0.0
 10
206.522450
 20
358.945226
 30
0.0
 10
207.322410
 20
358.945226
 30
0.0
 10
207.322410
 20
359.945165
 30
0.0
 10
212.416670
 20
359.945165
 30
0.0
  0
LWPOLYLINE
  5
164
100
AcDbEntity
  8
Layer_1
 62
7
100
AcDbPolyline
 90
28
 70
1
 10
114.785940
 20
342.705894
 30
0.0
 10
118.597070
 20
342.705894
 30
0.0
 10
118.597070
 20
340.895165
 30
0.0
 10
123.691340
 20
340.895165
 30
0.0
 10
123.691340
 20
339.895226
 30
0.0
 10
124.491290
 20
339.895226
 30
0.0
 10
124.491290
 20
336.795156
 30
0.0
 10
123.691340
 20
336.795156
 30
0.0
 10
123.691340
 20
330.994986
 30
0.0
 10
124.491290
 20
330.994986
 30
0.0
 10
124.491290
 20
327.895445
 30
0.0
 10
123.691340
 20
327.895445
 30
0.0
 10
123.691340
 20
326.894976
 30
0.0
 10
118.597070
 20
326.894976
 30
0.0
 10
118.597070
 20
325.084248
 30
0.0
 10
114.785940
 20
325.084248
 30
0.0
 10
114.785940
 20
326.894976
 30
0.0
 10
109.691680
 20
326.894976
 30
0.0
 10
109.691680
 20
327.895445
 30
0.0
 10
108.891720
 20
327.895445
 30
0.0
 10
108.891720
 20
330.994986
 30
0.0
 10
109.691680
 20
330.994986
 30
0.0
 10
109.691680
 20
336.795156
 30
0.0
 10
108.891720
 20
336.795156
 30
0.0
 10
108.891720
 20
339.895226
 30
0.0
 10
109.691680
 20
339.895226
 30
0.0
 10
109.691680
 20
340.895165
 30
0.0
 10
114.785940
 20
340.895165
 30
0.0
  0
LWPOLYLINE
  5
165
100
AcDbEntity
  8
Layer_1
 62
7
100
AcDbPolyline
 90
28
 70
1
 10
140.979690
 20
342.705894
 30
0.0
 10
144.790820
 20
342.705894
 30
0.0
 10
144.790820
 20
340.895165
 30
0.0
 10
149.885090
 20
340.895165
 30
0.0
 10
149.885090
 20
339.895226
 30
0.0
 10
150.685040
 20
339.895226
 30
0.0
 10
150.685040
 20
336.795156
 30
0.0
 10
149.885090
 20
336.795156
 30
0.0
 10
149.885090
 20
330.994986
 30
0.0
 10
150.685040
 20
330.994986
 30
0.0
 10
150.685040
 20
327.895445
 30
0.0
 10
149.885090
 20
327.895445
 30
0.0
 10
149.885090
 20
326.894976
 30
0.0
 10
144.790820
 20
326.894976
 30
0.0
 10
144.790820
 20
325.084248
 30
0.0
 10
140.979690
 20
325.084248
 30
0.0
 10
140.979690
 20
326.894976
 30
0.0
 10
135.885430
 20
326.894976
 30
0.0
 10
135.885430
 20
327.895445
 30
0.0
 10
135.085470
 20
327.895445
 30
0.0
 10
135.085470
 20
330.994986
 30
0.0
 10
135.885430
 20
330.994986
 30
0.0
 10
135.885430
 20
336.795156
 30
0.0
 10
135.085470
 20
336.795156
 30
0.0
 10
135.085470
 20
339.895226
 30
0.0
 10
135.885430
 20
339.895226
 30
0.0
 10
135.885430
 20
340.895165
 30
0.0
 10
140.979690
 20
340.895165
 30
0.0
  0
LWPOLYLINE
  5
166
100
AcDbEntity
  8
Layer_1
 62
7
100
AcDbPolyline
 90
28
 70
1
 10
160.028650
 20
342.705894
 30
0.0
 10
163.839790
 20
342.705894
 30
0.0
 10
163.839790
 20
340.895165
 30
0.0
 10
168.934050
 20
340.895165
 30
0.0
 10
168.934050
 20
339.895226
 30
0.0
 10
169.734000
 20
339.895226
 30
0.0
 10
169.734000
 20
336.795156
 30
0.0
 10
168.934050
 20
336.795156
 30
0.0
 10
168.934050
 20
330.994986
 30
0.0
 10
169.734000
 20
330.994986
 30
0.0
 10
169.734000
 20
327.895445
 30
0.0
 10
168.934050
 20
327.895445
 30
0.0
 10
168.934050
 20
326.894976
 30
0.0
 10
163.839790
 20
326.894976
 30
0.0
 10
163.839790
 20
325.084248
 30
0.0
 10
160.028650
 20
325.084248
 30
0.0
 10
160.028650
 20
326.894976
 30
0.0
 10
154.934390
 20
326.894976
 30
0.0
 10
154.934390
 20
327.895445
 30
0.0
 10
154.134440
 20
327.895445
 30
0.0
 10
154.134440
 20
330.994986
 30
0.0
 10
154.934390
 20
330.994986
 30
0.0
 10
154.934390
 20
336.795156
 30
0.0
 10
154.134440
 20
336.795156
 30
0.0
 10
154.134440
 20
339.895226
 30
0.0
 10
154.934390
 20
339.895226
 30
0.0
 10
154.934390
 20
340.895165
 30
0.0
 10
160.028650
 20
340.895165
 30
0.0
  0
LWPOLYLINE
  5
167
100
AcDbEntity
  8
Layer_1
 62
7
100
AcDbPolyline
 90
28
 70
1
 10
179.078650
 20
342.705894
 30
0.0
 10
182.889790
 20
342.705894
 30
0.0
 10
182.889790
 20
340.895165
 30
0.0
 10
187.984050
 20
340.895165
 30
0.0
 10
187.984050
 20
339.895226
 30
0.0
 10
188.784000
 20
339.895226
 30
0.0
 10
188.784000
 20
336.795156
 30
0.0
 10
187.984050
 20
336.795156
 30
0.0
 10
187.984050
 20
330.994986
 30
0.0
 10
188.784000
 20
330.994986
 30
0.0
 10
188.784000
 20
327.895445
 30
0.0
 10
187.984050
 20
327.895445
 30
0.0
 10
187.984050
 20
326.894976
 30
0.0
 10
182.889790
 20
326.894976
 30
0.0
 10
182.889790
 20
325.084248
 30
0.0
 10
179.078650
 20
325.084248
 30
0.0
 10
179.078650
 20
326.894976
 30
0.0
 10
173.984390
 20
326.894976
 30
0.0
 10
173.984390
 20
327.895445
 30
0.0
 10
173.184440
 20
327.895445
 30
0.0
 10
173.184440
 20
330.994986
 30
0.0
 10
173.984390
 20
330.994986
 30
0.0
 10
173.984390
 20
336.795156
 30
0.0
 10
173.184440
 20
336.795156
 30
0.0
 10
173.184440
 20
339.895226
 30
0.0
 10
173.984390
 20
339.895226
 30
0.0
 10
173.984390
 20
340.895165
 30
0.0
 10
179.078650
 20
340.895165
 30
0.0
  0
LWPOLYLINE
  5
168
100
AcDbEntity
  8
Layer_1
 62
7
100
AcDbPolyline
 90
28
 70
1
 10
198.129690
 20
342.705894
 30
0.0
 10
201.940820
 20
342.705894
 30
0.0
 10
201.940820
 20
340.895165
 30
0.0
 10
207.035090
 20
340.895165
 30
0.0
 10
207.035090
 20
339.895226
 30
0.0
 10
207.835040
 20
339.895226
 30
0.0
 10
207.835040
 20
336.795156
 30
0.0
 10
207.035090
 20
336.795156
 30
0.0
 10
207.035090
 20
330.994986
 30
0.0
 10
207.835040
 20
330.994986
 30
0.0
 10
207.835040
 20
327.895445
 30
0.0
 10
207.035090
 20
327.895445
 30
0.0
 10
207.035090
 20
326.894976
 30
0.0
 10
201.940820
 20
326.894976
 30
0.0
 10
201.940820
 20
325.084248
 30
0.0
 10
198.129690
 20
325.084248
 30
0.0
 10
198.129690
 20
326.894976
 30
0.0
 10
193.035420
 20
326.894976
 30
0.0
 10
193.035420
 20
327.895445
 30
0.0
 10
192.235470
 20
327.895445
 30
0.0
 10
192.235470
 20
330.994986
 30
0.0
 10
193.035420
 20
330.994986
 30
0.0
 10
193.035420
 20
336.795156
 30
0.0
 10
192.235470
 20
336.795156
 30
0.0
 10
192.235470
 20
339.895226
 30
0.0
 10
193.035420
 20
339.895226
 30
0.0
 10
193.035420
 20
340.895165
 30
0.0
 10
198.129690
 20
340.895165
 30
0.0
  0
LWPOLYLINE
  5
169
100
AcDbEntity
  8
Layer_1
 62
7
100
AcDbPolyline
 90
28
 70
1
 10
217.179690
 20
342.705894
 30
0.0
 10
220.990820
 20
342.705894
 30
0.0
 10
220.990820
 20
340.895165
 30
0.0
 10
226.085090
 20
340.895165
 30
0.0
 10
226.085090
 20
339.895226
 30
0.0
 10
226.885040
 20
339.895226
 30
0.0
 10
226.885040
 20
336.795156
 30
0.0
 10
226.085090
 20
336.795156
 30
0.0
 10
226.085090
 20
330.994986
 30
0.0
 10
226.885040
 20
330.994986
 30
0.0
 10
226.885040
 20
327.895445
 30
0.0
 10
226.085090
 20
327.895445
 30
0.0
 10
226.085090
 20
326.894976
 30
0.0
 10
220.990820
 20
326.894976
 30
0.0
 10
220.990820
 20
325.084248
 30
0.0
 10
217.179690
 20
325.084248
 30
0.0
 10
217.179690
 20
326.894976
 30
0.0
 10
212.085420
 20
326.894976
 30
0.0
 10
212.085420
 20
327.895445
 30
0.0
 10
211.285470
 20
327.895445
 30
0.0
 10
211.285470
 20
330.994986
 30
0.0
 10
212.085420
 20
330.994986
 30
0.0
 10
212.085420
 20
336.795156
 30
0.0
 10
211.285470
 20
336.795156
 30
0.0
 10
211.285470
 20
339.895226
 30
0.0
 10
212.085420
 20
339.895226
 30
0.0
 10
212.085420
 20
340.895165
 30
0.0
 10
217.179690
 20
340.895165
 30
0.0
  0
LWPOLYLINE
  5
16a
100
AcDbEntity
  8
Layer_1
 62
7
100
AcDbPolyline
 90
20
 70
1
 10
78.735425
 20
340.895165
 30
0.0
 10
92.735087
 20
340.895165
 30
0.0
 10
92.735087
 20
339.895226
 30
0.0
 10
93.535039
 20
339.895226
 30
0.0
 10
93.535039
 20
336.795156
 30
0.0
 10
92.735087
 20
336.795156
 30
0.0
 10
92.735087
 20
330.994986
 30
0.0
 10
93.535039
 20
330.994986
 30
0.0
 10
93.535039
 20
327.894916
 30
0.0
 10
92.735087
 20
327.894916
 30
0.0
 10
92.735087
 20
326.894976
 30
0.0
 10
78.735425
 20
326.894976
 30
0.0
 10
78.735425
 20
327.894916
 30
0.0
 10
77.935473
 20
327.894916
 30
0.0
 10
77.935473
 20
330.994986
 30
0.0
 10
78.735425
 20
330.994986
 30
0.0
 10
78.735425
 20
336.795156
 30
0.0
 10
77.935473
 20
336.795156
 30
0.0
 10
77.935473
 20
339.895226
 30
0.0
 10
78.735425
 20
339.895226
 30
0.0
  0
LWPOLYLINE
  5
16b
100
AcDbEntity
  8
Layer_1
 62
7
100
AcDbPolyline
 90
4
 70
1
 10
62.034635
 20
337.445237
 30
0.0
 10
71.334843
 20
337.445237
 30
0.0
 10
71.334843
 20
292.245407
 30
0.0
 10
62.034635
 20
292.245407
 30
0.0
  0
LWPOLYLINE
  5
16c
100
AcDbEntity
  8
Layer_1
 62
7
100
AcDbPolyline
 90
84
 70
1
 10
119.546890
 20
323.656926
 30
0.0
 10
123.359060
 20
323.656926
 30
0.0
 10
123.359060
 20
321.846197
 30
0.0
 10
128.453320
 20
321.846197
 30
0.0
 10
129.978290
 20
321.846197
 30
0.0
 10
129.978290
 20
323.265237
 30
0.0
 10
136.728270
 20
323.265237
 30
0.0
 10
136.728270
 20
320.374955
 30
0.0
 10
136.728270
 20
317.145186
 30
0.0
 10
137.553030
 20
317.145186
 30
0.0
 10
137.553030
 20
314.345366
 30
0.0
 10
136.728270
 20
314.345366
 30
0.0
 10
136.728270
 20
313.411572
 30
0.0
 10
136.728270
 20
308.075984
 30
0.0
 10
136.728270
 20
304.606424
 30
0.0
 10
137.647070
 20
304.606424
 30
0.0
 10
137.647070
 20
302.796197
 30
0.0
 10
142.741340
 20
302.796197
 30
0.0
 10
142.741340
 20
301.796258
 30
0.0
 10
143.541290
 20
301.796258
 30
0.0
 10
143.541290
 20
298.696188
 30
0.0
 10
142.741340
 20
298.696188
 30
0.0
 10
142.741340
 20
292.895514
 30
0.0
 10
143.541290
 20
292.895514
 30
0.0
 10
143.541290
 20
289.795948
 30
0.0
 10
142.741340
 20
289.795948
 30
0.0
 10
142.741340
 20
288.795503
 30
0.0
 10
137.647070
 20
288.795503
 30
0.0
 10
137.647070
 20
286.984754
 30
0.0
 10
133.835940
 20
286.984754
 30
0.0
 10
133.835940
 20
288.795503
 30
0.0
 10
128.741680
 20
288.795503
 30
0.0
 10
128.741680
 20
289.795948
 30
0.0
 10
127.941720
 20
289.795948
 30
0.0
 10
127.941720
 20
292.895514
 30
0.0
 10
128.741680
 20
292.895514
 30
0.0
 10
128.741680
 20
298.696188
 30
0.0
 10
127.941720
 20
298.696188
 30
0.0
 10
127.941720
 20
301.796258
 30
0.0
 10
128.741680
 20
301.796258
 30
0.0
 10
128.741680
 20
302.796197
 30
0.0
 10
133.835940
 20
302.796197
 30
0.0
 10
133.835940
 20
304.245717
 30
0.0
 10
113.834060
 20
304.245717
 30
0.0
 10
113.834060
 20
302.796197
 30
0.0
 10
118.928320
 20
302.796197
 30
0.0
 10
118.928320
 20
301.796258
 30
0.0
 10
119.728270
 20
301.796258
 30
0.0
 10
119.728270
 20
298.696188
 30
0.0
 10
118.928320
 20
298.696188
 30
0.0
 10
118.928320
 20
292.896018
 30
0.0
 10
119.728270
 20
292.896018
 30
0.0
 10
119.728270
 20
289.796476
 30
0.0
 10
118.928320
 20
289.796476
 30
0.0
 10
118.928320
 20
288.796003
 30
0.0
 10
113.834060
 20
288.796003
 30
0.0
 10
113.834060
 20
286.985284
 30
0.0
 10
110.022920
 20
286.985284
 30
0.0
 10
110.022920
 20
288.796003
 30
0.0
 10
104.928660
 20
288.796003
 30
0.0
 10
104.928660
 20
289.796476
 30
0.0
 10
104.128710
 20
289.796476
 30
0.0
 10
104.128710
 20
292.896017
 30
0.0
 10
104.928660
 20
292.896017
 30
0.0
 10
104.928660
 20
298.696188
 30
0.0
 10
104.128710
 20
298.696188
 30
0.0
 10
104.128710
 20
301.796258
 30
0.0
 10
104.928660
 20
301.796258
 30
0.0
 10
104.928660
 20
302.796197
 30
0.0
 10
110.022920
 20
302.796197
 30
0.0
 10
110.022920
 20
304.245717
 30
0.0
 10
106.177680
 20
304.245717
 30
0.0
 10
106.177680
 20
308.076487
 30
0.0
 10
106.177680
 20
313.411572
 30
0.0
 10
106.177680
 20
314.345366
 30
0.0
 10
105.352920
 20
314.345366
 30
0.0
 10
105.352920
 20
317.145186
 30
0.0
 10
106.177680
 20
317.145186
 30
0.0
 10
106.177680
 20
320.374955
 30
0.0
 10
106.177680
 20
323.265237
 30
0.0
 10
112.927650
 20
323.265237
 30
0.0
 10
112.927650
 20
321.846197
 30
0.0
 10
114.452620
 20
321.846197
 30
0.0
 10
119.546890
 20
321.846197
 30
0.0
  0
LWPOLYLINE
  5
16d
100
AcDbEntity
  8
Layer_1
 62
7
100
AcDbPolyline
 90
28
 70
1
 10
150.504690
 20
323.656926
 30
0.0
 10
154.315820
 20
323.656926
 30
0.0
 10
154.315820
 20
321.846197
 30
0.0
 10
159.410090
 20
321.846197
 30
0.0
 10
159.410090
 20
320.846258
 30
0.0
 10
160.210040
 20
320.846258
 30
0.0
 10
160.210040
 20
317.746188
 30
0.0
 10
159.410090
 20
317.746188
 30
0.0
 10
159.410090
 20
311.946018
 30
0.0
 10
160.210040
 20
311.946018
 30
0.0
 10
160.210040
 20
308.846477
 30
0.0
 10
159.410090
 20
308.846477
 30
0.0
 10
159.410090
 20
307.846008
 30
0.0
 10
154.315820
 20
307.846008
 30
0.0
 10
154.315820
 20
306.035279
 30
0.0
 10
150.504690
 20
306.035279
 30
0.0
 10
150.504690
 20
307.846008
 30
0.0
 10
145.410430
 20
307.846008
 30
0.0
 10
145.410430
 20
308.846477
 30
0.0
 10
144.610470
 20
308.846477
 30
0.0
 10
144.610470
 20
311.946018
 30
0.0
 10
145.410430
 20
311.946018
 30
0.0
 10
145.410430
 20
317.746188
 30
0.0
 10
144.610470
 20
317.746188
 30
0.0
 10
144.610470
 20
320.846258
 30
0.0
 10
145.410430
 20
320.846258
 30
0.0
 10
145.410430
 20
321.846197
 30
0.0
 10
150.504690
 20
321.846197
 30
0.0
  0
LWPOLYLINE
  5
16e
100
AcDbEntity
  8
Layer_1
 62
7
100
AcDbPolyline
 90
28
 70
1
 10
169.554690
 20
323.656926
 30
0.0
 10
173.365820
 20
323.656926
 30
0.0
 10
173.365820
 20
321.846197
 30
0.0
 10
178.460090
 20
321.846197
 30
0.0
 10
178.460090
 20
320.846258
 30
0.0
 10
179.260040
 20
320.846258
 30
0.0
 10
179.260040
 20
317.746188
 30
0.0
 10
178.460090
 20
317.746188
 30
0.0
 10
178.460090
 20
311.946018
 30
0.0
 10
179.260040
 20
311.946018
 30
0.0
 10
179.260040
 20
308.846477
 30
0.0
 10
178.460090
 20
308.846477
 30
0.0
 10
178.460090
 20
307.846008
 30
0.0
 10
173.365820
 20
307.846008
 30
0.0
 10
173.365820
 20
306.035279
 30
0.0
 10
169.554690
 20
306.035279
 30
0.0
 10
169.554690
 20
307.846008
 30
0.0
 10
164.460420
 20
307.846008
 30
0.0
 10
164.460420
 20
308.846477
 30
0.0
 10
163.660470
 20
308.846477
 30
0.0
 10
163.660470
 20
311.946018
 30
0.0
 10
164.460420
 20
311.946018
 30
0.0
 10
164.460420
 20
317.746188
 30
0.0
 10
163.660470
 20
317.746188
 30
0.0
 10
163.660470
 20
320.846258
 30
0.0
 10
164.460420
 20
320.846258
 30
0.0
 10
164.460420
 20
321.846197
 30
0.0
 10
169.554690
 20
321.846197
 30
0.0
  0
LWPOLYLINE
  5
16f
100
AcDbEntity
  8
Layer_1
 62
7
100
AcDbPolyline
 90
28
 70
1
 10
188.604690
 20
323.656926
 30
0.0
 10
192.415820
 20
323.656926
 30
0.0
 10
192.415820
 20
321.846197
 30
0.0
 10
197.510090
 20
321.846197
 30
0.0
 10
197.510090
 20
320.846258
 30
0.0
 10
198.310040
 20
320.846258
 30
0.0
 10
198.310040
 20
317.746188
 30
0.0
 10
197.510090
 20
317.746188
 30
0.0
 10
197.510090
 20
311.946018
 30
0.0
 10
198.310040
 20
311.946018
 30
0.0
 10
198.310040
 20
308.846477
 30
0.0
 10
197.510090
 20
308.846477
 30
0.0
 10
197.510090
 20
307.846008
 30
0.0
 10
192.415820
 20
307.846008
 30
0.0
 10
192.415820
 20
306.035279
 30
0.0
 10
188.604690
 20
306.035279
 30
0.0
 10
188.604690
 20
307.846008
 30
0.0
 10
183.510420
 20
307.846008
 30
0.0
 10
183.510420
 20
308.846477
 30
0.0
 10
182.710470
 20
308.846477
 30
0.0
 10
182.710470
 20
311.946018
 30
0.0
 10
183.510420
 20
311.946018
 30
0.0
 10
183.510420
 20
317.746188
 30
0.0
 10
182.710470
 20
317.746188
 30
0.0
 10
182.710470
 20
320.846258
 30
0.0
 10
183.510420
 20
320.846258
 30
0.0
 10
183.510420
 20
321.846197
 30
0.0
 10
188.604690
 20
321.846197
 30
0.0
  0
LWPOLYLINE
  5
170
100
AcDbEntity
  8
Layer_1
 62
7
100
AcDbPolyline
 90
28
 70
1
 10
207.654690
 20
323.656926
 30
0.0
 10
211.465820
 20
323.656926
 30
0.0
 10
211.465820
 20
321.846197
 30
0.0
 10
216.560090
 20
321.846197
 30
0.0
 10
216.560090
 20
320.846258
 30
0.0
 10
217.360040
 20
320.846258
 30
0.0
 10
217.360040
 20
317.746188
 30
0.0
 10
216.560090
 20
317.746188
 30
0.0
 10
216.560090
 20
311.946018
 30
0.0
 10
217.360040
 20
311.946018
 30
0.0
 10
217.360040
 20
308.846477
 30
0.0
 10
216.560090
 20
308.846477
 30
0.0
 10
216.560090
 20
307.846008
 30
0.0
 10
211.465820
 20
307.846008
 30
0.0
 10
211.465820
 20
306.035279
 30
0.0
 10
207.654690
 20
306.035279
 30
0.0
 10
207.654690
 20
307.846008
 30
0.0
 10
202.560420
 20
307.846008
 30
0.0
 10
202.560420
 20
308.846477
 30
0.0
 10
201.760470
 20
308.846477
 30
0.0
 10
201.760470
 20
311.946018
 30
0.0
 10
202.560420
 20
311.946018
 30
0.0
 10
202.560420
 20
317.746188
 30
0.0
 10
201.760470
 20
317.746188
 30
0.0
 10
201.760470
 20
320.846258
 30
0.0
 10
202.560420
 20
320.846258
 30
0.0
 10
202.560420
 20
321.846197
 30
0.0
 10
207.654690
 20
321.846197
 30
0.0
  0
LWPOLYLINE
  5
171
100
AcDbEntity
  8
Layer_1
 62
7
100
AcDbPolyline
 90
28
 70
1
 10
226.704690
 20
323.656926
 30
0.0
 10
230.515820
 20
323.656926
 30
0.0
 10
230.515820
 20
321.846197
 30
0.0
 10
235.610090
 20
321.846197
 30
0.0
 10
235.610090
 20
320.846258
 30
0.0
 10
236.410040
 20
320.846258
 30
0.0
 10
236.410040
 20
317.746188
 30
0.0
 10
235.610090
 20
317.746188
 30
0.0
 10
235.610090
 20
311.946018
 30
0.0
 10
236.410040
 20
311.946018
 30
0.0
 10
236.410040
 20
308.846477
 30
0.0
 10
235.610090
 20
308.846477
 30
0.0
 10
235.610090
 20
307.846008
 30
0.0
 10
230.515820
 20
307.846008
 30
0.0
 10
230.515820
 20
306.035279
 30
0.0
 10
226.704690
 20
306.035279
 30
0.0
 10
226.704690
 20
307.846008
 30
0.0
 10
221.610420
 20
307.846008
 30
0.0
 10
221.610420
 20
308.846477
 30
0.0
 10
220.810470
 20
308.846477
 30
0.0
 10
220.810470
 20
311.946018
 30
0.0
 10
221.610420
 20
311.946018
 30
0.0
 10
221.610420
 20
317.746188
 30
0.0
 10
220.810470
 20
317.746188
 30
0.0
 10
220.810470
 20
320.846258
 30
0.0
 10
221.610420
 20
320.846258
 30
0.0
 10
221.610420
 20
321.846197
 30
0.0
 10
226.704690
 20
321.846197
 30
0.0
  0
LWPOLYLINE
  5
172
100
AcDbEntity
  8
Layer_1
 62
7
100
AcDbPolyline
 90
20
 70
1
 10
78.735425
 20
321.846197
 30
0.0
 10
92.735087
 20
321.846197
 30
0.0
 10
92.735087
 20
320.846258
 30
0.0
 10
93.535039
 20
320.846258
 30
0.0
 10
93.535039
 20
317.747219
 30
0.0
 10
92.735087
 20
317.747219
 30
0.0
 10
92.735087
 20
311.946018
 30
0.0
 10
93.535039
 20
311.946018
 30
0.0
 10
93.535039
 20
308.845948
 30
0.0
 10
92.735087
 20
308.845948
 30
0.0
 10
92.735087
 20
307.846008
 30
0.0
 10
78.735425
 20
307.846008
 30
0.0
 10
78.735425
 20
308.845948
 30
0.0
 10
77.935473
 20
308.845948
 30
0.0
 10
77.935473
 20
311.946018
 30
0.0
 10
78.735425
 20
311.946018
 30
0.0
 10
78.735425
 20
317.747219
 30
0.0
 10
77.935473
 20
317.747219
 30
0.0
 10
77.935473
 20
320.846258
 30
0.0
 10
78.735425
 20
320.846258
 30
0.0
  0
LWPOLYLINE
  5
173
100
AcDbEntity
  8
Layer_1
 62
7
100
AcDbPolyline
 90
28
 70
1
 10
157.647400
 20
304.607957
 30
0.0
 10
161.458540
 20
304.607957
 30
0.0
 10
161.458540
 20
302.797229
 30
0.0
 10
166.552800
 20
302.797229
 30
0.0
 10
166.552800
 20
301.797288
 30
0.0
 10
167.352750
 20
301.797288
 30
0.0
 10
167.352750
 20
298.697219
 30
0.0
 10
166.552800
 20
298.697219
 30
0.0
 10
166.552800
 20
292.897049
 30
0.0
 10
167.352750
 20
292.897049
 30
0.0
 10
167.352750
 20
289.797508
 30
0.0
 10
166.552800
 20
289.797508
 30
0.0
 10
166.552800
 20
288.797043
 30
0.0
 10
161.458540
 20
288.797043
 30
0.0
 10
161.458540
 20
286.986314
 30
0.0
 10
157.647400
 20
286.986314
 30
0.0
 10
157.647400
 20
288.797043
 30
0.0
 10
152.553140
 20
288.797043
 30
0.0
 10
152.553140
 20
289.797508
 30
0.0
 10
151.753190
 20
289.797508
 30
0.0
 10
151.753190
 20
292.897049
 30
0.0
 10
152.553140
 20
292.897049
 30
0.0
 10
152.553140
 20
298.697219
 30
0.0
 10
151.753190
 20
298.697219
 30
0.0
 10
151.753190
 20
301.797288
 30
0.0
 10
152.553140
 20
301.797288
 30
0.0
 10
152.553140
 20
302.797229
 30
0.0
 10
157.647400
 20
302.797229
 30
0.0
  0
LWPOLYLINE
  5
174
100
AcDbEntity
  8
Layer_1
 62
7
100
AcDbPolyline
 90
28
 70
1
 10
188.604690
 20
304.607957
 30
0.0
 10
192.416860
 20
304.607957
 30
0.0
 10
192.416860
 20
302.797229
 30
0.0
 10
197.511120
 20
302.797229
 30
0.0
 10
199.036090
 20
302.797229
 30
0.0
 10
199.036090
 20
304.216269
 30
0.0
 10
205.786070
 20
304.216269
 30
0.0
 10
205.786070
 20
301.325986
 30
0.0
 10
205.786070
 20
298.096218
 30
0.0
 10
206.610820
 20
298.096218
 30
0.0
 10
206.610820
 20
295.296398
 30
0.0
 10
205.786070
 20
295.296398
 30
0.0
 10
205.786070
 20
294.362603
 30
0.0
 10
205.786070
 20
289.027014
 30
0.0
 10
205.786070
 20
285.196744
 30
0.0
 10
175.235480
 20
285.196744
 30
0.0
 10
175.235480
 20
289.027014
 30
0.0
 10
175.235480
 20
294.362603
 30
0.0
 10
175.235480
 20
295.296398
 30
0.0
 10
174.410720
 20
295.296398
 30
0.0
 10
174.410720
 20
298.096218
 30
0.0
 10
175.235480
 20
298.096218
 30
0.0
 10
175.235480
 20
301.325986
 30
0.0
 10
175.235480
 20
304.216269
 30
0.0
 10
181.985450
 20
304.216269
 30
0.0
 10
181.985450
 20
302.797229
 30
0.0
 10
183.510420
 20
302.797229
 30
0.0
 10
188.604690
 20
302.797229
 30
0.0
  0
LWPOLYLINE
  5
175
100
AcDbEntity
  8
Layer_1
 62
7
100
AcDbPolyline
 90
28
 70
1
 10
219.560420
 20
304.607957
 30
0.0
 10
223.371560
 20
304.607957
 30
0.0
 10
223.371560
 20
302.797229
 30
0.0
 10
228.465820
 20
302.797229
 30
0.0
 10
228.465820
 20
301.797288
 30
0.0
 10
229.265770
 20
301.797288
 30
0.0
 10
229.265770
 20
298.697219
 30
0.0
 10
228.465820
 20
298.697219
 30
0.0
 10
228.465820
 20
292.897049
 30
0.0
 10
229.265770
 20
292.897049
 30
0.0
 10
229.265770
 20
289.797508
 30
0.0
 10
228.465820
 20
289.797508
 30
0.0
 10
228.465820
 20
288.797043
 30
0.0
 10
223.371560
 20
288.797043
 30
0.0
 10
223.371560
 20
286.986314
 30
0.0
 10
219.560420
 20
286.986314
 30
0.0
 10
219.560420
 20
288.797043
 30
0.0
 10
214.466160
 20
288.797043
 30
0.0
 10
214.466160
 20
289.797508
 30
0.0
 10
213.666200
 20
289.797508
 30
0.0
 10
213.666200
 20
292.897049
 30
0.0
 10
214.466160
 20
292.897049
 30
0.0
 10
214.466160
 20
298.697219
 30
0.0
 10
213.666200
 20
298.697219
 30
0.0
 10
213.666200
 20
301.797288
 30
0.0
 10
214.466160
 20
301.797288
 30
0.0
 10
214.466160
 20
302.797229
 30
0.0
 10
219.560420
 20
302.797229
 30
0.0
  0
SPLINE
  5
176
100
AcDbEntity
  8
Layer_1
 62
7
100
AcDbSpline
 70
0
 71
3
 72
22
 73
18
 74
16
 40
0.000000
 40
0.000000
 40
0.000000
 40
0.000000
 40
0.004467
 40
0.008933
 40
0.013400
 40
0.536219
 40
1.043534
 40
1.566354
 40
2.089173
 40
2.596487
 40
3.119306
 40
3.642125
 40
4.149440
 40
4.672259
 40
5.190658
 40
5.693905
 40
6.212305
 40
6.212305
 40
6.212305
 40
6.212305
 10
229.358270
 20
386.520789
 30
0.0
 10
229.359759
 20
386.520797
 30
0.0
 10
229.362737
 20
386.520813
 30
0.0
 10
229.367203
 20
386.520812
 30
0.0
 10
229.544439
 20
386.520030
 30
0.0
 10
229.896138
 20
386.427302
 30
0.0
 10
230.277358
 20
386.044285
 30
0.0
 10
230.419388
 20
385.520888
 30
0.0
 10
230.277584
 20
384.997260
 30
0.0
 10
229.895253
 20
384.614926
 30
0.0
 10
229.371668
 20
384.473180
 30
0.0
 10
228.848094
 20
384.614985
 30
0.0
 10
228.465734
 20
384.997028
 30
0.0
 10
228.324441
 20
385.520296
 30
0.0
 10
228.464103
 20
386.036659
 30
0.0
 10
228.840227
 20
386.433585
 30
0.0
 10
229.183863
 20
386.491435
 30
0.0
 10
229.358230
 20
386.520789
 30
0.0
 11
229.358270
 21
386.520789
 31
0.0
 11
229.362737
 21
386.520809
 31
0.0
 11
229.367203
 21
386.520809
 31
0.0
 11
229.371670
 21
386.520789
 31
0.0
 11
229.876345
 21
386.384250
 31
0.0
 11
230.235071
 21
386.025524
 31
0.0
 11
230.371610
 21
385.520849
 31
0.0
 11
230.235071
 21
385.016174
 31
0.0
 11
229.876345
 21
384.657449
 31
0.0
 11
229.371670
 21
384.520910
 31
0.0
 11
228.866995
 21
384.657449
 31
0.0
 11
228.508269
 21
385.016174
 31
0.0
 11
228.371730
 21
385.520849
 31
0.0
 11
228.505930
 21
386.021577
 31
0.0
 11
228.859364
 21
386.379826
 31
0.0
 11
229.358230
 21
386.520789
 31
0.0
  0
LWPOLYLINE
  5
177
100
AcDbEntity
  8
Layer_1
 62
7
100
AcDbPolyline
 90
20
 70
1
 10
78.734390
 20
302.796197
 30
0.0
 10
92.734052
 20
302.796197
 30
0.0
 10
92.734052
 20
301.796258
 30
0.0
 10
93.534004
 20
301.796258
 30
0.0
 10
93.534004
 20
298.696188
 30
0.0
 10
92.734052
 20
298.696188
 30
0.0
 10
92.734052
 20
292.896018
 30
0.0
 10
93.534004
 20
292.896018
 30
0.0
 10
93.534004
 20
289.795948
 30
0.0
 10
92.734052
 20
289.795948
 30
0.0
 10
92.734052
 20
288.796003
 30
0.0
 10
78.734390
 20
288.796003
 30
0.0
 10
78.734390
 20
289.795948
 30
0.0
 10
77.935473
 20
289.795948
 30
0.0
 10
77.935473
 20
292.896018
 30
0.0
 10
78.734390
 20
292.896018
 30
0.0
 10
78.734390
 20
298.696188
 30
0.0
 10
77.935473
 20
298.696188
 30
0.0
 10
77.935473
 20
301.796258
 30
0.0
 10
78.734390
 20
301.796258
 30
0.0
  0
SPLINE
  5
178
100
AcDbEntity
  8
Layer_1
 62
7
100
AcDbSpline
 70
0
 71
3
 72
22
 73
18
 74
16
 40
0.000000
 40
0.000000
 40
0.000000
 40
0.000000
 40
0.004480
 40
0.008960
 40
0.013440
 40
0.536259
 40
1.043574
 40
1.566393
 40
2.089212
 40
2.596526
 40
3.119345
 40
3.642164
 40
4.149479
 40
4.672298
 40
5.190699
 40
5.693947
 40
6.212348
 40
6.212348
 40
6.212348
 40
6.212348
 10
53.239306
 20
278.509304
 30
0.0
 10
53.240799
 20
278.509312
 30
0.0
 10
53.243786
 20
278.509328
 30
0.0
 10
53.248266
 20
278.509327
 30
0.0
 10
53.425511
 20
278.508542
 30
0.0
 10
53.777214
 20
278.415818
 30
0.0
 10
54.158433
 20
278.032799
 30
0.0
 10
54.300463
 20
277.509403
 30
0.0
 10
54.158660
 20
276.985775
 30
0.0
 10
53.776329
 20
276.603440
 30
0.0
 10
53.252744
 20
276.461693
 30
0.0
 10
52.729170
 20
276.603500
 30
0.0
 10
52.346810
 20
276.985543
 30
0.0
 10
52.205518
 20
277.508811
 30
0.0
 10
52.345181
 20
278.025175
 30
0.0
 10
52.721306
 20
278.422102
 30
0.0
 10
53.064944
 20
278.479951
 30
0.0
 10
53.239311
 20
278.509304
 30
0.0
 11
53.239306
 21
278.509304
 31
0.0
 11
53.243786
 21
278.509324
 31
0.0
 11
53.248266
 21
278.509324
 31
0.0
 11
53.252746
 21
278.509304
 31
0.0
 11
53.757421
 21
278.372765
 31
0.0
 11
54.116146
 21
278.014039
 31
0.0
 11
54.252685
 21
277.509364
 31
0.0
 11
54.116146
 21
277.004689
 31
0.0
 11
53.757421
 21
276.645963
 31
0.0
 11
53.252746
 21
276.509424
 31
0.0
 11
52.748071
 21
276.645963
 31
0.0
 11
52.389346
 21
277.004689
 31
0.0
 11
52.252807
 21
277.509364
 31
0.0
 11
52.387008
 21
278.010093
 31
0.0
 11
52.740443
 21
278.368342
 31
0.0
 11
53.239311
 21
278.509304
 31
0.0
  0
LWPOLYLINE
  5
179
100
AcDbEntity
  8
Layer_1
 62
7
100
AcDbPolyline
 90
1
 70
1
 10
53.239311
 20
278.509304
 30
0.0
  0
SPLINE
  5
17a
100
AcDbEntity
  8
Layer_1
 62
7
100
AcDbSpline
 70
0
 71
3
 72
22
 73
18
 74
16
 40
0.000000
 40
0.000000
 40
0.000000
 40
0.000000
 40
0.004467
 40
0.008933
 40
0.013400
 40
0.536219
 40
1.043534
 40
1.566354
 40
2.089173
 40
2.596488
 40
3.119307
 40
3.642127
 40
4.149441
 40
4.672261
 40
5.190660
 40
5.693907
 40
6.212307
 40
6.212307
 40
6.212307
 40
6.212307
 10
141.299050
 20
278.509304
 30
0.0
 10
141.300539
 20
278.509312
 30
0.0
 10
141.303517
 20
278.509328
 30
0.0
 10
141.307983
 20
278.509327
 30
0.0
 10
141.485219
 20
278.508545
 30
0.0
 10
141.836918
 20
278.415817
 30
0.0
 10
142.218138
 20
278.032800
 30
0.0
 10
142.360168
 20
277.509403
 30
0.0
 10
142.218365
 20
276.985774
 30
0.0
 10
141.836033
 20
276.603440
 30
0.0
 10
141.312448
 20
276.461694
 30
0.0
 10
140.788873
 20
276.603499
 30
0.0
 10
140.406513
 20
276.985542
 30
0.0
 10
140.265222
 20
277.508811
 30
0.0
 10
140.404883
 20
278.025174
 30
0.0
 10
140.781007
 20
278.422100
 30
0.0
 10
141.124643
 20
278.479950
 30
0.0
 10
141.299010
 20
278.509304
 30
0.0
 11
141.299050
 21
278.509304
 31
0.0
 11
141.303517
 21
278.509324
 31
0.0
 11
141.307983
 21
278.509324
 31
0.0
 11
141.312450
 21
278.509304
 31
0.0
 11
141.817125
 21
278.372765
 31
0.0
 11
142.175851
 21
278.014039
 31
0.0
 11
142.312390
 21
277.509364
 31
0.0
 11
142.175851
 21
277.004689
 31
0.0
 11
141.817125
 21
276.645963
 31
0.0
 11
141.312450
 21
276.509424
 31
0.0
 11
140.807775
 21
276.645963
 31
0.0
 11
140.449049
 21
277.004689
 31
0.0
 11
140.312510
 21
277.509364
 31
0.0
 11
140.446710
 21
278.010092
 31
0.0
 11
140.800144
 21
278.368341
 31
0.0
 11
141.299010
 21
278.509304
 31
0.0
  0
LWPOLYLINE
  5
17b
100
AcDbEntity
  8
Layer_1
 62
7
100
AcDbPolyline
 90
1
 70
1
 10
141.299010
 20
278.509304
 30
0.0
  0
SPLINE
  5
17c
100
AcDbEntity
  8
Layer_1
 62
7
100
AcDbSpline
 70
0
 71
3
 72
22
 73
18
 74
16
 40
0.000000
 40
0.000000
 40
0.000000
 40
0.000000
 40
0.004467
 40
0.008933
 40
0.013400
 40
0.536219
 40
1.043534
 40
1.566354
 40
2.089173
 40
2.596488
 40
3.119307
 40
3.642127
 40
4.149441
 40
4.672261
 40
5.190660
 40
5.693907
 40
6.212307
 40
6.212307
 40
6.212307
 40
6.212307
 10
229.358270
 20
278.509304
 30
0.0
 10
229.359759
 20
278.509312
 30
0.0
 10
229.362737
 20
278.509328
 30
0.0
 10
229.367203
 20
278.509327
 30
0.0
 10
229.544439
 20
278.508545
 30
0.0
 10
229.896138
 20
278.415817
 30
0.0
 10
230.277358
 20
278.032800
 30
0.0
 10
230.419388
 20
277.509403
 30
0.0
 10
230.277585
 20
276.985774
 30
0.0
 10
229.895253
 20
276.603440
 30
0.0
 10
229.371668
 20
276.461694
 30
0.0
 10
228.848093
 20
276.603499
 30
0.0
 10
228.465733
 20
276.985542
 30
0.0
 10
228.324442
 20
277.508811
 30
0.0
 10
228.464103
 20
278.025174
 30
0.0
 10
228.840227
 20
278.422100
 30
0.0
 10
229.183863
 20
278.479950
 30
0.0
 10
229.358230
 20
278.509304
 30
0.0
 11
229.358270
 21
278.509304
 31
0.0
 11
229.362737
 21
278.509324
 31
0.0
 11
229.367203
 21
278.509324
 31
0.0
 11
229.371670
 21
278.509304
 31
0.0
 11
229.876345
 21
278.372765
 31
0.0
 11
230.235071
 21
278.014039
 31
0.0
 11
230.371610
 21
277.509364
 31
0.0
 11
230.235071
 21
277.004689
 31
0.0
 11
229.876345
 21
276.645963
 31
0.0
 11
229.371670
 21
276.509424
 31
0.0
 11
228.866995
 21
276.645963
 31
0.0
 11
228.508269
 21
277.004689
 31
0.0
 11
228.371730
 21
277.509364
 31
0.0
 11
228.505930
 21
278.010092
 31
0.0
 11
228.859364
 21
278.368341
 31
0.0
 11
229.358230
 21
278.509304
 31
0.0
  0
LWPOLYLINE
  5
17d
100
AcDbEntity
  8
Layer_1
 62
7
100
AcDbPolyline
 90
1
 70
1
 10
229.358230
 20
278.509304
 30
0.0
  0
ENDSEC
  0
SECTION
  2
OBJECTS
  0
DICTIONARY
  5
C
330
0
100
AcDbDictionary
  3
ACAD_GROUP
350
D
  3
ACAD_MLINESTYLE
350
17
  0
DICTIONARY
  5
D
330
C
100
AcDbDictionary
  0
DICTIONARY
  5
1A
330
C
100
AcDbDictionary
  0
DICTIONARY
  5
17
330
C
100
AcDbDictionary
  3
STANDARD
350
18
  0
DICTIONARY
  5
19
330
C
100
AcDbDictionary
  0
ENDSEC
  0
EOF
