999
"DXF R12 Output" (www.mydxf.blogspot.com)
 0 
SECTION
 2 
HEADER
 9 
$ACADVER
 1 
AC1009
 9 
$EXTMIN
 10 
 0 
 20 
 0 
 9 
$EXTMAX
 10 
 8.5 
 20 
 11 
 0 
ENDSEC
 0 
SECTION
 2 
ENTITIES
0
LINE
8
Layer 1
10
16.833100
20
23.092200
11
16.152884
21
23.230510
0
LINE
8
Layer 1
10
16.152884
20
23.230510
11
15.597570
21
23.605674
0
LINE
8
Layer 1
10
15.597570
20
23.605674
11
15.223226
21
24.161541
0
LINE
8
Layer 1
10
15.223226
20
24.161541
11
15.085920
21
24.841960
0
LINE
8
Layer 1
10
15.085920
20
24.841960
11
15.085920
21
31.091720
0
LINE
8
Layer 1
10
15.085920
20
31.091720
11
15.085920
21
37.139400
0
LINE
8
Layer 1
10
15.085920
20
37.139400
11
15.085920
21
50.142700
0
LINE
8
Layer 1
10
15.085920
20
50.142700
11
9.067680
21
50.142700
0
LINE
8
Layer 1
10
9.067680
20
50.142700
11
7.280190
21
50.142700
0
LINE
8
Layer 1
10
7.280190
20
50.142700
11
6.609047
21
50.288886
0
LINE
8
Layer 1
10
6.609047
20
50.288886
11
6.062837
21
50.665731
0
LINE
8
Layer 1
10
6.062837
20
50.665731
11
5.695487
21
51.218371
0
LINE
8
Layer 1
10
5.695487
20
51.218371
11
5.560920
21
51.891940
0
LINE
8
Layer 1
10
5.560920
20
51.891940
11
5.560920
21
67.447040
0
LINE
8
Layer 1
10
5.560920
20
67.447040
11
5.699081
21
68.127423
0
LINE
8
Layer 1
10
5.699081
20
68.127423
11
6.074211
21
68.682906
0
LINE
8
Layer 1
10
6.074211
20
68.682906
11
6.630135
21
69.057381
0
LINE
8
Layer 1
10
6.630135
20
69.057381
11
7.310680
21
69.194740
0
LINE
8
Layer 1
10
7.310680
20
69.194740
11
10.323930
21
69.194740
0
LINE
8
Layer 1
10
10.323930
20
69.194740
11
10.323930
21
86.497040
0
LINE
8
Layer 1
10
10.323930
20
86.497040
11
10.462092
21
87.177425
0
LINE
8
Layer 1
10
10.462092
20
87.177425
11
10.837224
21
87.732909
0
LINE
8
Layer 1
10
10.837224
20
87.732909
11
11.393152
21
88.107384
0
LINE
8
Layer 1
10
11.393152
20
88.107384
11
12.073700
21
88.244740
0
LINE
8
Layer 1
10
12.073700
20
88.244740
11
19.848930
21
88.244740
0
LINE
8
Layer 1
10
19.848930
20
88.244740
11
19.848930
21
107.292640
0
LINE
8
Layer 1
10
19.848930
20
107.292640
11
16.833610
21
107.292640
0
LINE
8
Layer 1
10
16.833610
20
107.292640
11
16.153228
21
107.430805
0
LINE
8
Layer 1
10
16.153228
20
107.430805
11
15.597747
21
107.805938
0
LINE
8
Layer 1
10
15.597747
20
107.805938
11
15.223275
21
108.361864
0
LINE
8
Layer 1
10
15.223275
20
108.361864
11
15.085920
21
109.042410
0
LINE
8
Layer 1
10
15.085920
20
109.042410
11
15.085920
21
121.542910
0
LINE
8
Layer 1
10
15.085920
20
121.542910
11
15.085920
21
126.343640
0
LINE
8
Layer 1
10
15.085920
20
126.343640
11
15.085920
21
137.358440
0
LINE
8
Layer 1
10
15.085920
20
137.358440
11
15.224087
21
138.038816
0
LINE
8
Layer 1
10
15.224087
20
138.038816
11
15.599218
21
138.594293
0
LINE
8
Layer 1
10
15.599218
20
138.594293
11
16.155140
21
138.968763
0
LINE
8
Layer 1
10
16.155140
20
138.968763
11
16.835680
21
139.106120
0
LINE
8
Layer 1
10
16.835680
20
139.106120
11
195.802000
21
139.106120
0
LINE
8
Layer 1
10
195.802000
20
139.106120
11
196.076900
21
139.095320
0
LINE
8
Layer 1
10
196.076900
20
139.095320
11
196.349770
21
139.063320
0
LINE
8
Layer 1
10
196.349770
20
139.063320
11
196.619010
21
139.009020
0
LINE
8
Layer 1
10
196.619010
20
139.009020
11
196.883590
21
138.935120
0
LINE
8
Layer 1
10
196.883590
20
138.935120
11
197.140930
21
138.840020
0
LINE
8
Layer 1
10
197.140930
20
138.840020
11
197.390530
21
138.725300
0
LINE
8
Layer 1
10
197.390530
20
138.725300
11
197.630830
21
138.590410
0
LINE
8
Layer 1
10
197.630830
20
138.590410
11
197.858710
21
138.438500
0
LINE
8
Layer 1
10
197.858710
20
138.438500
11
198.074720
21
138.267450
0
LINE
8
Layer 1
10
198.074720
20
138.267450
11
198.276780
21
138.081410
0
LINE
8
Layer 1
10
198.276780
20
138.081410
11
198.462810
21
137.879350
0
LINE
8
Layer 1
10
198.462810
20
137.879350
11
198.633860
21
137.663350
0
LINE
8
Layer 1
10
198.633860
20
137.663350
11
198.785790
21
137.435460
0
LINE
8
Layer 1
10
198.785790
20
137.435460
11
198.920670
21
137.195170
0
LINE
8
Layer 1
10
198.920670
20
137.195170
11
199.035900
21
136.945060
0
LINE
8
Layer 1
10
199.035900
20
136.945060
11
199.131000
21
136.688220
0
LINE
8
Layer 1
10
199.131000
20
136.688220
11
199.204900
21
136.423110
0
LINE
8
Layer 1
10
199.204900
20
136.423110
11
199.258600
21
136.154410
0
LINE
8
Layer 1
10
199.258600
20
136.154410
11
199.290700
21
135.881040
0
LINE
8
Layer 1
10
199.290700
20
135.881040
11
199.302100
21
135.606100
0
LINE
8
Layer 1
10
199.302100
20
135.606100
11
199.302100
21
26.593300
0
LINE
8
Layer 1
10
199.302100
20
26.593300
11
199.290700
21
26.318400
0
LINE
8
Layer 1
10
199.290700
20
26.318400
11
199.258600
21
26.045530
0
LINE
8
Layer 1
10
199.258600
20
26.045530
11
199.204900
21
25.775260
0
LINE
8
Layer 1
10
199.204900
20
25.775260
11
199.131000
21
25.511210
0
LINE
8
Layer 1
10
199.131000
20
25.511210
11
199.035900
21
25.253340
0
LINE
8
Layer 1
10
199.035900
20
25.253340
11
198.920670
21
25.004260
0
LINE
8
Layer 1
10
198.920670
20
25.004260
11
198.785790
21
24.764480
0
LINE
8
Layer 1
10
198.785790
20
24.764480
11
198.633860
21
24.535550
0
LINE
8
Layer 1
10
198.633860
20
24.535550
11
198.462810
21
24.319550
0
LINE
8
Layer 1
10
198.462810
20
24.319550
11
198.276780
21
24.118520
0
LINE
8
Layer 1
10
198.276780
20
24.118520
11
198.074720
21
23.931450
0
LINE
8
Layer 1
10
198.074720
20
23.931450
11
197.858710
21
23.761440
0
LINE
8
Layer 1
10
197.858710
20
23.761440
11
197.630830
21
23.608480
0
LINE
8
Layer 1
10
197.630830
20
23.608480
11
197.390530
21
23.474640
0
LINE
8
Layer 1
10
197.390530
20
23.474640
11
197.140930
21
23.359400
0
LINE
8
Layer 1
10
197.140930
20
23.359400
11
196.883590
21
23.264300
0
LINE
8
Layer 1
10
196.883590
20
23.264300
11
196.619010
21
23.189400
0
LINE
8
Layer 1
10
196.619010
20
23.189400
11
196.349770
21
23.136700
0
LINE
8
Layer 1
10
196.349770
20
23.136700
11
196.076900
21
23.103600
0
LINE
8
Layer 1
10
196.076900
20
23.103600
11
195.802000
21
23.093300
0
LINE
8
Layer 1
10
195.802000
20
23.093300
11
16.834000
21
23.092300
0
LINE
8
Layer 1
10
16.834000
20
23.092300
11
16.833100
21
23.092200
0
LINE
8
Layer 1
10
19.072240
20
26.092020
11
19.085640
21
26.092020
0
LINE
8
Layer 1
10
19.085640
20
26.092020
11
19.474851
21
26.170616
0
LINE
8
Layer 1
10
19.474851
20
26.170616
11
19.792687
21
26.384913
0
LINE
8
Layer 1
10
19.792687
20
26.384913
11
20.006984
21
26.702749
0
LINE
8
Layer 1
10
20.006984
20
26.702749
11
20.085580
21
27.091960
0
LINE
8
Layer 1
10
20.085580
20
27.091960
11
20.006984
21
27.481171
0
LINE
8
Layer 1
10
20.006984
20
27.481171
11
19.792687
21
27.799007
0
LINE
8
Layer 1
10
19.792687
20
27.799007
11
19.474851
21
28.013304
0
LINE
8
Layer 1
10
19.474851
20
28.013304
11
19.085640
21
28.091900
0
LINE
8
Layer 1
10
19.085640
20
28.091900
11
18.696429
21
28.013304
0
LINE
8
Layer 1
10
18.696429
20
28.013304
11
18.378593
21
27.799007
0
LINE
8
Layer 1
10
18.378593
20
27.799007
11
18.164296
21
27.481171
0
LINE
8
Layer 1
10
18.164296
20
27.481171
11
18.085700
21
27.091960
0
LINE
8
Layer 1
10
18.085700
20
27.091960
11
18.162914
21
26.705979
0
LINE
8
Layer 1
10
18.162914
20
26.705979
11
18.373825
21
26.389622
0
LINE
8
Layer 1
10
18.373825
20
26.389622
11
18.687299
21
26.174450
0
LINE
8
Layer 1
10
18.687299
20
26.174450
11
19.072200
21
26.092020
0
LINE
8
Layer 1
10
19.072200
20
26.092020
11
19.072240
21
26.092020
0
LINE
8
Layer 1
10
43.071340
20
26.092020
11
43.084740
21
26.092020
0
LINE
8
Layer 1
10
43.084740
20
26.092020
11
43.473951
21
26.170616
0
LINE
8
Layer 1
10
43.473951
20
26.170616
11
43.791787
21
26.384913
0
LINE
8
Layer 1
10
43.791787
20
26.384913
11
44.006084
21
26.702749
0
LINE
8
Layer 1
10
44.006084
20
26.702749
11
44.084680
21
27.091960
0
LINE
8
Layer 1
10
44.084680
20
27.091960
11
44.006084
21
27.481171
0
LINE
8
Layer 1
10
44.006084
20
27.481171
11
43.791787
21
27.799007
0
LINE
8
Layer 1
10
43.791787
20
27.799007
11
43.473951
21
28.013304
0
LINE
8
Layer 1
10
43.473951
20
28.013304
11
43.084740
21
28.091900
0
LINE
8
Layer 1
10
43.084740
20
28.091900
11
42.695529
21
28.013304
0
LINE
8
Layer 1
10
42.695529
20
28.013304
11
42.377693
21
27.799007
0
LINE
8
Layer 1
10
42.377693
20
27.799007
11
42.163396
21
27.481171
0
LINE
8
Layer 1
10
42.163396
20
27.481171
11
42.084800
21
27.091960
0
LINE
8
Layer 1
10
42.084800
20
27.091960
11
42.162014
21
26.705979
0
LINE
8
Layer 1
10
42.162014
20
26.705979
11
42.372925
21
26.389622
0
LINE
8
Layer 1
10
42.372925
20
26.389622
11
42.686399
21
26.174450
0
LINE
8
Layer 1
10
42.686399
20
26.174450
11
43.071300
21
26.092020
0
LINE
8
Layer 1
10
43.071300
20
26.092020
11
43.071340
21
26.092020
0
LINE
8
Layer 1
10
123.271140
20
26.092020
11
123.284640
21
26.092020
0
LINE
8
Layer 1
10
123.284640
20
26.092020
11
123.667454
21
26.168000
0
LINE
8
Layer 1
10
123.667454
20
26.168000
11
123.992029
21
26.384726
0
LINE
8
Layer 1
10
123.992029
20
26.384726
11
124.208927
21
26.709186
0
LINE
8
Layer 1
10
124.208927
20
26.709186
11
124.285110
21
27.091960
0
LINE
8
Layer 1
10
124.285110
20
27.091960
11
124.208927
21
27.474734
0
LINE
8
Layer 1
10
124.208927
20
27.474734
11
123.992029
21
27.799194
0
LINE
8
Layer 1
10
123.992029
20
27.799194
11
123.667454
21
28.015920
0
LINE
8
Layer 1
10
123.667454
20
28.015920
11
123.284640
21
28.091900
0
LINE
8
Layer 1
10
123.284640
20
28.091900
11
122.895435
21
28.013298
0
LINE
8
Layer 1
10
122.895435
20
28.013298
11
122.577606
21
27.799000
0
LINE
8
Layer 1
10
122.577606
20
27.799000
11
122.363314
21
27.481166
0
LINE
8
Layer 1
10
122.363314
20
27.481166
11
122.284720
21
27.091960
0
LINE
8
Layer 1
10
122.284720
20
27.091960
11
122.361934
21
26.705979
0
LINE
8
Layer 1
10
122.361934
20
26.705979
11
122.572845
21
26.389622
0
LINE
8
Layer 1
10
122.572845
20
26.389622
11
122.886319
21
26.174450
0
LINE
8
Layer 1
10
122.886319
20
26.174450
11
123.271220
21
26.092020
0
LINE
8
Layer 1
10
123.271220
20
26.092020
11
123.271140
21
26.092020
0
LINE
8
Layer 1
10
145.288440
20
26.092020
11
145.301940
21
26.092020
0
LINE
8
Layer 1
10
145.301940
20
26.092020
11
145.691148
21
26.170619
0
LINE
8
Layer 1
10
145.691148
20
26.170619
11
146.008980
21
26.384917
0
LINE
8
Layer 1
10
146.008980
20
26.384917
11
146.223275
21
26.702751
0
LINE
8
Layer 1
10
146.223275
20
26.702751
11
146.301870
21
27.091960
0
LINE
8
Layer 1
10
146.301870
20
27.091960
11
146.223275
21
27.481169
0
LINE
8
Layer 1
10
146.223275
20
27.481169
11
146.008980
21
27.799003
0
LINE
8
Layer 1
10
146.008980
20
27.799003
11
145.691148
21
28.013301
0
LINE
8
Layer 1
10
145.691148
20
28.013301
11
145.301940
21
28.091900
0
LINE
8
Layer 1
10
145.301940
20
28.091900
11
144.912729
21
28.013304
0
LINE
8
Layer 1
10
144.912729
20
28.013304
11
144.594893
21
27.799007
0
LINE
8
Layer 1
10
144.594893
20
27.799007
11
144.380596
21
27.481171
0
LINE
8
Layer 1
10
144.380596
20
27.481171
11
144.302000
21
27.091960
0
LINE
8
Layer 1
10
144.302000
20
27.091960
11
144.379213
21
26.705981
0
LINE
8
Layer 1
10
144.379213
20
26.705981
11
144.590122
21
26.389626
0
LINE
8
Layer 1
10
144.590122
20
26.389626
11
144.903592
21
26.174453
0
LINE
8
Layer 1
10
144.903592
20
26.174453
11
145.288490
21
26.092020
0
LINE
8
Layer 1
10
145.288490
20
26.092020
11
145.288440
21
26.092020
0
LINE
8
Layer 1
10
195.191340
20
26.092020
11
195.204840
21
26.092020
0
LINE
8
Layer 1
10
195.204840
20
26.092020
11
195.594051
21
26.170616
0
LINE
8
Layer 1
10
195.594051
20
26.170616
11
195.911887
21
26.384913
0
LINE
8
Layer 1
10
195.911887
20
26.384913
11
196.126184
21
26.702749
0
LINE
8
Layer 1
10
196.126184
20
26.702749
11
196.204780
21
27.091960
0
LINE
8
Layer 1
10
196.204780
20
27.091960
11
196.126184
21
27.481171
0
LINE
8
Layer 1
10
196.126184
20
27.481171
11
195.911887
21
27.799007
0
LINE
8
Layer 1
10
195.911887
20
27.799007
11
195.594051
21
28.013304
0
LINE
8
Layer 1
10
195.594051
20
28.013304
11
195.204840
21
28.091900
0
LINE
8
Layer 1
10
195.204840
20
28.091900
11
194.815629
21
28.013304
0
LINE
8
Layer 1
10
194.815629
20
28.013304
11
194.497793
21
27.799007
0
LINE
8
Layer 1
10
194.497793
20
27.799007
11
194.283496
21
27.481171
0
LINE
8
Layer 1
10
194.283496
20
27.481171
11
194.204900
21
27.091960
0
LINE
8
Layer 1
10
194.204900
20
27.091960
11
194.282114
21
26.705979
0
LINE
8
Layer 1
10
194.282114
20
26.705979
11
194.493025
21
26.389622
0
LINE
8
Layer 1
10
194.493025
20
26.389622
11
194.806499
21
26.174450
0
LINE
8
Layer 1
10
194.806499
20
26.174450
11
195.191400
21
26.092020
0
LINE
8
Layer 1
10
195.191400
20
26.092020
11
195.191340
21
26.092020
0
LINE
8
Layer 1
10
22.707340
20
31.805350
11
26.518470
21
31.805350
0
LINE
8
Layer 1
10
26.518470
20
31.805350
11
26.518470
21
33.615070
0
LINE
8
Layer 1
10
26.518470
20
33.615070
11
31.613770
21
33.615070
0
LINE
8
Layer 1
10
31.613770
20
33.615070
11
31.613770
21
34.616050
0
LINE
8
Layer 1
10
31.613770
20
34.616050
11
32.412690
21
34.616050
0
LINE
8
Layer 1
10
32.412690
20
34.616050
11
32.412690
21
37.716120
0
LINE
8
Layer 1
10
32.412690
20
37.716120
11
31.613770
21
37.716120
0
LINE
8
Layer 1
10
31.613770
20
37.716120
11
31.613770
21
43.515250
0
LINE
8
Layer 1
10
31.613770
20
43.515250
11
32.412690
21
43.515250
0
LINE
8
Layer 1
10
32.412690
20
43.515250
11
32.412690
21
46.614790
0
LINE
8
Layer 1
10
32.412690
20
46.614790
11
31.613770
21
46.614790
0
LINE
8
Layer 1
10
31.613770
20
46.614790
11
31.613770
21
47.614730
0
LINE
8
Layer 1
10
31.613770
20
47.614730
11
26.518470
21
47.614730
0
LINE
8
Layer 1
10
26.518470
20
47.614730
11
26.518470
21
49.425460
0
LINE
8
Layer 1
10
26.518470
20
49.425460
11
22.707340
21
49.425460
0
LINE
8
Layer 1
10
22.707340
20
49.425460
11
22.707340
21
47.614730
0
LINE
8
Layer 1
10
22.707340
20
47.614730
11
17.613080
21
47.614730
0
LINE
8
Layer 1
10
17.613080
20
47.614730
11
17.613080
21
46.614790
0
LINE
8
Layer 1
10
17.613080
20
46.614790
11
16.813120
21
46.614790
0
LINE
8
Layer 1
10
16.813120
20
46.614790
11
16.813120
21
43.514220
0
LINE
8
Layer 1
10
16.813120
20
43.514220
11
17.613080
21
43.514220
0
LINE
8
Layer 1
10
17.613080
20
43.514220
11
17.613080
21
37.715080
0
LINE
8
Layer 1
10
17.613080
20
37.715080
11
16.813120
21
37.715080
0
LINE
8
Layer 1
10
16.813120
20
37.715080
11
16.813120
21
34.615010
0
LINE
8
Layer 1
10
16.813120
20
34.615010
11
17.613080
21
34.615010
0
LINE
8
Layer 1
10
17.613080
20
34.615010
11
17.613080
21
33.614040
0
LINE
8
Layer 1
10
17.613080
20
33.614040
11
22.707340
21
33.614040
0
LINE
8
Layer 1
10
22.707340
20
33.614040
11
22.707340
21
31.805350
0
LINE
8
Layer 1
10
41.757340
20
31.805350
11
45.569510
21
31.805350
0
LINE
8
Layer 1
10
45.569510
20
31.805350
11
45.569510
21
33.615070
0
LINE
8
Layer 1
10
45.569510
20
33.615070
11
50.663770
21
33.615070
0
LINE
8
Layer 1
10
50.663770
20
33.615070
11
50.663770
21
34.615010
0
LINE
8
Layer 1
10
50.663770
20
34.615010
11
51.463720
21
34.615010
0
LINE
8
Layer 1
10
51.463720
20
34.615010
11
51.463720
21
37.715080
0
LINE
8
Layer 1
10
51.463720
20
37.715080
11
50.663770
21
37.715080
0
LINE
8
Layer 1
10
50.663770
20
37.715080
11
50.663770
21
43.514220
0
LINE
8
Layer 1
10
50.663770
20
43.514220
11
51.463720
21
43.514220
0
LINE
8
Layer 1
10
51.463720
20
43.514220
11
51.463720
21
46.613760
0
LINE
8
Layer 1
10
51.463720
20
46.613760
11
50.663770
21
46.613760
0
LINE
8
Layer 1
10
50.663770
20
46.613760
11
50.663770
21
47.613700
0
LINE
8
Layer 1
10
50.663770
20
47.613700
11
45.569510
21
47.613700
0
LINE
8
Layer 1
10
45.569510
20
47.613700
11
45.569510
21
49.424430
0
LINE
8
Layer 1
10
45.569510
20
49.424430
11
41.758370
21
49.424430
0
LINE
8
Layer 1
10
41.758370
20
49.424430
11
41.758370
21
47.613700
0
LINE
8
Layer 1
10
41.758370
20
47.613700
11
36.664110
21
47.613700
0
LINE
8
Layer 1
10
36.664110
20
47.613700
11
36.664110
21
46.613760
0
LINE
8
Layer 1
10
36.664110
20
46.613760
11
35.864160
21
46.613760
0
LINE
8
Layer 1
10
35.864160
20
46.613760
11
35.864160
21
43.513690
0
LINE
8
Layer 1
10
35.864160
20
43.513690
11
36.663080
21
43.513690
0
LINE
8
Layer 1
10
36.663080
20
43.513690
11
36.663080
21
37.714550
0
LINE
8
Layer 1
10
36.663080
20
37.714550
11
35.863120
21
37.714550
0
LINE
8
Layer 1
10
35.863120
20
37.714550
11
35.863120
21
34.614480
0
LINE
8
Layer 1
10
35.863120
20
34.614480
11
36.663080
21
34.614480
0
LINE
8
Layer 1
10
36.663080
20
34.614480
11
36.663080
21
33.613510
0
LINE
8
Layer 1
10
36.663080
20
33.613510
11
41.757340
21
33.613510
0
LINE
8
Layer 1
10
41.757340
20
33.613510
11
41.757340
21
31.805350
0
LINE
8
Layer 1
10
60.807340
20
31.805350
11
64.618470
21
31.805350
0
LINE
8
Layer 1
10
64.618470
20
31.805350
11
64.618470
21
33.616110
0
LINE
8
Layer 1
10
64.618470
20
33.616110
11
69.712730
21
33.616110
0
LINE
8
Layer 1
10
69.712730
20
33.616110
11
69.712730
21
34.616050
0
LINE
8
Layer 1
10
69.712730
20
34.616050
11
70.512690
21
34.616050
0
LINE
8
Layer 1
10
70.512690
20
34.616050
11
70.512690
21
37.716120
0
LINE
8
Layer 1
10
70.512690
20
37.716120
11
69.712730
21
37.716120
0
LINE
8
Layer 1
10
69.712730
20
37.716120
11
69.712730
21
43.515250
0
LINE
8
Layer 1
10
69.712730
20
43.515250
11
70.512690
21
43.515250
0
LINE
8
Layer 1
10
70.512690
20
43.515250
11
70.512690
21
46.615320
0
LINE
8
Layer 1
10
70.512690
20
46.615320
11
69.712730
21
46.615320
0
LINE
8
Layer 1
10
69.712730
20
46.615320
11
69.712730
21
47.614730
0
LINE
8
Layer 1
10
69.712730
20
47.614730
11
64.618470
21
47.614730
0
LINE
8
Layer 1
10
64.618470
20
47.614730
11
64.618470
21
49.424430
0
LINE
8
Layer 1
10
64.618470
20
49.424430
11
60.807340
21
49.424430
0
LINE
8
Layer 1
10
60.807340
20
49.424430
11
60.807340
21
47.614730
0
LINE
8
Layer 1
10
60.807340
20
47.614730
11
55.713080
21
47.614730
0
LINE
8
Layer 1
10
55.713080
20
47.614730
11
55.713080
21
46.615320
0
LINE
8
Layer 1
10
55.713080
20
46.615320
11
54.913120
21
46.615320
0
LINE
8
Layer 1
10
54.913120
20
46.615320
11
54.913120
21
43.515250
0
LINE
8
Layer 1
10
54.913120
20
43.515250
11
55.713080
21
43.515250
0
LINE
8
Layer 1
10
55.713080
20
43.515250
11
55.713080
21
37.716120
0
LINE
8
Layer 1
10
55.713080
20
37.716120
11
54.913120
21
37.716120
0
LINE
8
Layer 1
10
54.913120
20
37.716120
11
54.913120
21
34.616050
0
LINE
8
Layer 1
10
54.913120
20
34.616050
11
55.713080
21
34.616050
0
LINE
8
Layer 1
10
55.713080
20
34.616050
11
55.713080
21
33.616110
0
LINE
8
Layer 1
10
55.713080
20
33.616110
11
60.807340
21
33.616110
0
LINE
8
Layer 1
10
60.807340
20
33.616110
11
60.807340
21
31.805350
0
LINE
8
Layer 1
10
79.857340
20
31.805350
11
83.668480
21
31.805350
0
LINE
8
Layer 1
10
83.668480
20
31.805350
11
83.668480
21
33.615070
0
LINE
8
Layer 1
10
83.668480
20
33.615070
11
88.762740
21
33.615070
0
LINE
8
Layer 1
10
88.762740
20
33.615070
11
88.762740
21
34.615010
0
LINE
8
Layer 1
10
88.762740
20
34.615010
11
89.562680
21
34.615010
0
LINE
8
Layer 1
10
89.562680
20
34.615010
11
89.562680
21
37.715080
0
LINE
8
Layer 1
10
89.562680
20
37.715080
11
88.762740
21
37.715080
0
LINE
8
Layer 1
10
88.762740
20
37.715080
11
88.762740
21
43.514220
0
LINE
8
Layer 1
10
88.762740
20
43.514220
11
89.562680
21
43.514220
0
LINE
8
Layer 1
10
89.562680
20
43.514220
11
89.562680
21
46.613760
0
LINE
8
Layer 1
10
89.562680
20
46.613760
11
88.762740
21
46.613760
0
LINE
8
Layer 1
10
88.762740
20
46.613760
11
88.762740
21
47.613700
0
LINE
8
Layer 1
10
88.762740
20
47.613700
11
83.668480
21
47.613700
0
LINE
8
Layer 1
10
83.668480
20
47.613700
11
83.668480
21
49.424430
0
LINE
8
Layer 1
10
83.668480
20
49.424430
11
79.857340
21
49.424430
0
LINE
8
Layer 1
10
79.857340
20
49.424430
11
79.857340
21
47.613700
0
LINE
8
Layer 1
10
79.857340
20
47.613700
11
74.763080
21
47.613700
0
LINE
8
Layer 1
10
74.763080
20
47.613700
11
74.763080
21
46.613760
0
LINE
8
Layer 1
10
74.763080
20
46.613760
11
73.963120
21
46.613760
0
LINE
8
Layer 1
10
73.963120
20
46.613760
11
73.963120
21
43.513160
0
LINE
8
Layer 1
10
73.963120
20
43.513160
11
74.763080
21
43.513160
0
LINE
8
Layer 1
10
74.763080
20
43.513160
11
74.763080
21
37.714050
0
LINE
8
Layer 1
10
74.763080
20
37.714050
11
73.963120
21
37.714050
0
LINE
8
Layer 1
10
73.963120
20
37.714050
11
73.963120
21
34.613980
0
LINE
8
Layer 1
10
73.963120
20
34.613980
11
74.763080
21
34.613980
0
LINE
8
Layer 1
10
74.763080
20
34.613980
11
74.763080
21
33.613010
0
LINE
8
Layer 1
10
74.763080
20
33.613010
11
79.857340
21
33.613010
0
LINE
8
Layer 1
10
79.857340
20
33.613010
11
79.857340
21
31.805350
0
LINE
8
Layer 1
10
98.907340
20
31.805350
11
102.718480
21
31.805350
0
LINE
8
Layer 1
10
102.718480
20
31.805350
11
102.718480
21
33.615070
0
LINE
8
Layer 1
10
102.718480
20
33.615070
11
107.812740
21
33.615070
0
LINE
8
Layer 1
10
107.812740
20
33.615070
11
107.812740
21
34.615010
0
LINE
8
Layer 1
10
107.812740
20
34.615010
11
108.612680
21
34.615010
0
LINE
8
Layer 1
10
108.612680
20
34.615010
11
108.612680
21
37.715080
0
LINE
8
Layer 1
10
108.612680
20
37.715080
11
107.812740
21
37.715080
0
LINE
8
Layer 1
10
107.812740
20
37.715080
11
107.812740
21
43.514220
0
LINE
8
Layer 1
10
107.812740
20
43.514220
11
108.612680
21
43.514220
0
LINE
8
Layer 1
10
108.612680
20
43.514220
11
108.612680
21
46.613760
0
LINE
8
Layer 1
10
108.612680
20
46.613760
11
107.812740
21
46.613760
0
LINE
8
Layer 1
10
107.812740
20
46.613760
11
107.812740
21
47.613700
0
LINE
8
Layer 1
10
107.812740
20
47.613700
11
102.718480
21
47.613700
0
LINE
8
Layer 1
10
102.718480
20
47.613700
11
102.718480
21
49.424430
0
LINE
8
Layer 1
10
102.718480
20
49.424430
11
98.907340
21
49.424430
0
LINE
8
Layer 1
10
98.907340
20
49.424430
11
98.907340
21
47.613700
0
LINE
8
Layer 1
10
98.907340
20
47.613700
11
93.813080
21
47.613700
0
LINE
8
Layer 1
10
93.813080
20
47.613700
11
93.813080
21
46.613760
0
LINE
8
Layer 1
10
93.813080
20
46.613760
11
93.013110
21
46.613760
0
LINE
8
Layer 1
10
93.013110
20
46.613760
11
93.013110
21
43.513160
0
LINE
8
Layer 1
10
93.013110
20
43.513160
11
93.813080
21
43.513160
0
LINE
8
Layer 1
10
93.813080
20
43.513160
11
93.813080
21
37.714050
0
LINE
8
Layer 1
10
93.813080
20
37.714050
11
93.013110
21
37.714050
0
LINE
8
Layer 1
10
93.013110
20
37.714050
11
93.013110
21
34.613980
0
LINE
8
Layer 1
10
93.013110
20
34.613980
11
93.813080
21
34.613980
0
LINE
8
Layer 1
10
93.813080
20
34.613980
11
93.813080
21
33.613010
0
LINE
8
Layer 1
10
93.813080
20
33.613010
11
98.907340
21
33.613010
0
LINE
8
Layer 1
10
98.907340
20
33.613010
11
98.907340
21
31.805350
0
LINE
8
Layer 1
10
117.957340
20
31.805350
11
121.769510
21
31.805350
0
LINE
8
Layer 1
10
121.769510
20
31.805350
11
121.769510
21
33.616110
0
LINE
8
Layer 1
10
121.769510
20
33.616110
11
126.863770
21
33.616110
0
LINE
8
Layer 1
10
126.863770
20
33.616110
11
126.863770
21
34.616050
0
LINE
8
Layer 1
10
126.863770
20
34.616050
11
127.663710
21
34.616050
0
LINE
8
Layer 1
10
127.663710
20
34.616050
11
127.663710
21
37.716120
0
LINE
8
Layer 1
10
127.663710
20
37.716120
11
126.862740
21
37.716120
0
LINE
8
Layer 1
10
126.862740
20
37.716120
11
126.862740
21
43.515250
0
LINE
8
Layer 1
10
126.862740
20
43.515250
11
127.663710
21
43.515250
0
LINE
8
Layer 1
10
127.663710
20
43.515250
11
127.663710
21
46.615830
0
LINE
8
Layer 1
10
127.663710
20
46.615830
11
126.862740
21
46.615830
0
LINE
8
Layer 1
10
126.862740
20
46.615830
11
126.862740
21
47.615260
0
LINE
8
Layer 1
10
126.862740
20
47.615260
11
121.768480
21
47.615260
0
LINE
8
Layer 1
10
121.768480
20
47.615260
11
121.768480
21
49.424960
0
LINE
8
Layer 1
10
121.768480
20
49.424960
11
117.957340
21
49.424960
0
LINE
8
Layer 1
10
117.957340
20
49.424960
11
117.957340
21
47.615260
0
LINE
8
Layer 1
10
117.957340
20
47.615260
11
112.863080
21
47.615260
0
LINE
8
Layer 1
10
112.863080
20
47.615260
11
112.863080
21
46.615830
0
LINE
8
Layer 1
10
112.863080
20
46.615830
11
112.063110
21
46.615830
0
LINE
8
Layer 1
10
112.063110
20
46.615830
11
112.063110
21
43.515760
0
LINE
8
Layer 1
10
112.063110
20
43.515760
11
112.863080
21
43.515760
0
LINE
8
Layer 1
10
112.863080
20
43.515760
11
112.863080
21
37.716620
0
LINE
8
Layer 1
10
112.863080
20
37.716620
11
112.063110
21
37.716620
0
LINE
8
Layer 1
10
112.063110
20
37.716620
11
112.063110
21
34.616550
0
LINE
8
Layer 1
10
112.063110
20
34.616550
11
112.863080
21
34.616550
0
LINE
8
Layer 1
10
112.863080
20
34.616550
11
112.863080
21
33.616610
0
LINE
8
Layer 1
10
112.863080
20
33.616610
11
117.957340
21
33.616610
0
LINE
8
Layer 1
10
117.957340
20
33.616610
11
117.957340
21
31.805350
0
LINE
8
Layer 1
10
137.008340
20
31.805350
11
140.820510
21
31.805350
0
LINE
8
Layer 1
10
140.820510
20
31.805350
11
140.820510
21
33.616110
0
LINE
8
Layer 1
10
140.820510
20
33.616110
11
145.914770
21
33.616110
0
LINE
8
Layer 1
10
145.914770
20
33.616110
11
145.914770
21
34.616050
0
LINE
8
Layer 1
10
145.914770
20
34.616050
11
146.714710
21
34.616050
0
LINE
8
Layer 1
10
146.714710
20
34.616050
11
146.714710
21
37.716120
0
LINE
8
Layer 1
10
146.714710
20
37.716120
11
145.914770
21
37.716120
0
LINE
8
Layer 1
10
145.914770
20
37.716120
11
145.914770
21
43.515250
0
LINE
8
Layer 1
10
145.914770
20
43.515250
11
146.714710
21
43.515250
0
LINE
8
Layer 1
10
146.714710
20
43.515250
11
146.714710
21
46.615320
0
LINE
8
Layer 1
10
146.714710
20
46.615320
11
145.914770
21
46.615320
0
LINE
8
Layer 1
10
145.914770
20
46.615320
11
145.914770
21
47.614730
0
LINE
8
Layer 1
10
145.914770
20
47.614730
11
140.820510
21
47.614730
0
LINE
8
Layer 1
10
140.820510
20
47.614730
11
140.820510
21
49.424430
0
LINE
8
Layer 1
10
140.820510
20
49.424430
11
137.009370
21
49.424430
0
LINE
8
Layer 1
10
137.009370
20
49.424430
11
137.009370
21
47.614730
0
LINE
8
Layer 1
10
137.009370
20
47.614730
11
131.915110
21
47.614730
0
LINE
8
Layer 1
10
131.915110
20
47.614730
11
131.915110
21
46.615320
0
LINE
8
Layer 1
10
131.915110
20
46.615320
11
131.114110
21
46.615320
0
LINE
8
Layer 1
10
131.114110
20
46.615320
11
131.114110
21
43.514720
0
LINE
8
Layer 1
10
131.114110
20
43.514720
11
131.915110
21
43.514720
0
LINE
8
Layer 1
10
131.915110
20
43.514720
11
131.915110
21
37.715590
0
LINE
8
Layer 1
10
131.915110
20
37.715590
11
131.114110
21
37.715590
0
LINE
8
Layer 1
10
131.114110
20
37.715590
11
131.114110
21
34.615520
0
LINE
8
Layer 1
10
131.114110
20
34.615520
11
131.914080
21
34.615520
0
LINE
8
Layer 1
10
131.914080
20
34.615520
11
131.914080
21
33.615580
0
LINE
8
Layer 1
10
131.914080
20
33.615580
11
137.008340
21
33.615580
0
LINE
8
Layer 1
10
137.008340
20
33.615580
11
137.008340
21
31.805350
0
LINE
8
Layer 1
10
156.058340
20
31.805350
11
159.869480
21
31.805350
0
LINE
8
Layer 1
10
159.869480
20
31.805350
11
159.869480
21
33.616110
0
LINE
8
Layer 1
10
159.869480
20
33.616110
11
164.963740
21
33.616110
0
LINE
8
Layer 1
10
164.963740
20
33.616110
11
164.963740
21
34.616050
0
LINE
8
Layer 1
10
164.963740
20
34.616050
11
165.763680
21
34.616050
0
LINE
8
Layer 1
10
165.763680
20
34.616050
11
165.763680
21
37.716120
0
LINE
8
Layer 1
10
165.763680
20
37.716120
11
164.963740
21
37.716120
0
LINE
8
Layer 1
10
164.963740
20
37.716120
11
164.963740
21
43.515250
0
LINE
8
Layer 1
10
164.963740
20
43.515250
11
165.763680
21
43.515250
0
LINE
8
Layer 1
10
165.763680
20
43.515250
11
165.763680
21
46.615320
0
LINE
8
Layer 1
10
165.763680
20
46.615320
11
164.963740
21
46.615320
0
LINE
8
Layer 1
10
164.963740
20
46.615320
11
164.963740
21
47.614730
0
LINE
8
Layer 1
10
164.963740
20
47.614730
11
159.869480
21
47.614730
0
LINE
8
Layer 1
10
159.869480
20
47.614730
11
159.869480
21
49.424430
0
LINE
8
Layer 1
10
159.869480
20
49.424430
11
156.058340
21
49.424430
0
LINE
8
Layer 1
10
156.058340
20
49.424430
11
156.058340
21
47.614730
0
LINE
8
Layer 1
10
156.058340
20
47.614730
11
150.964080
21
47.614730
0
LINE
8
Layer 1
10
150.964080
20
47.614730
11
150.964080
21
46.615320
0
LINE
8
Layer 1
10
150.964080
20
46.615320
11
150.164110
21
46.615320
0
LINE
8
Layer 1
10
150.164110
20
46.615320
11
150.164110
21
43.515250
0
LINE
8
Layer 1
10
150.164110
20
43.515250
11
150.964080
21
43.515250
0
LINE
8
Layer 1
10
150.964080
20
43.515250
11
150.964080
21
37.716120
0
LINE
8
Layer 1
10
150.964080
20
37.716120
11
150.164110
21
37.716120
0
LINE
8
Layer 1
10
150.164110
20
37.716120
11
150.164110
21
34.616050
0
LINE
8
Layer 1
10
150.164110
20
34.616050
11
150.964080
21
34.616050
0
LINE
8
Layer 1
10
150.964080
20
34.616050
11
150.964080
21
33.616110
0
LINE
8
Layer 1
10
150.964080
20
33.616110
11
156.058340
21
33.616110
0
LINE
8
Layer 1
10
156.058340
20
33.616110
11
156.058340
21
31.805350
0
LINE
8
Layer 1
10
179.870340
20
31.805350
11
183.681480
21
31.805350
0
LINE
8
Layer 1
10
183.681480
20
31.805350
11
183.681480
21
33.615070
0
LINE
8
Layer 1
10
183.681480
20
33.615070
11
188.775740
21
33.615070
0
LINE
8
Layer 1
10
188.775740
20
33.615070
11
188.775740
21
34.615010
0
LINE
8
Layer 1
10
188.775740
20
34.615010
11
189.575710
21
34.615010
0
LINE
8
Layer 1
10
189.575710
20
34.615010
11
189.575710
21
37.715080
0
LINE
8
Layer 1
10
189.575710
20
37.715080
11
188.775740
21
37.715080
0
LINE
8
Layer 1
10
188.775740
20
37.715080
11
188.775740
21
43.514220
0
LINE
8
Layer 1
10
188.775740
20
43.514220
11
189.575710
21
43.514220
0
LINE
8
Layer 1
10
189.575710
20
43.514220
11
189.575710
21
46.613760
0
LINE
8
Layer 1
10
189.575710
20
46.613760
11
188.775740
21
46.613760
0
LINE
8
Layer 1
10
188.775740
20
46.613760
11
188.775740
21
47.613700
0
LINE
8
Layer 1
10
188.775740
20
47.613700
11
183.681480
21
47.613700
0
LINE
8
Layer 1
10
183.681480
20
47.613700
11
183.681480
21
49.424430
0
LINE
8
Layer 1
10
183.681480
20
49.424430
11
179.870340
21
49.424430
0
LINE
8
Layer 1
10
179.870340
20
49.424430
11
179.870340
21
47.613700
0
LINE
8
Layer 1
10
179.870340
20
47.613700
11
174.776080
21
47.613700
0
LINE
8
Layer 1
10
174.776080
20
47.613700
11
174.776080
21
46.613760
0
LINE
8
Layer 1
10
174.776080
20
46.613760
11
173.976140
21
46.613760
0
LINE
8
Layer 1
10
173.976140
20
46.613760
11
173.976140
21
43.513160
0
LINE
8
Layer 1
10
173.976140
20
43.513160
11
174.776080
21
43.513160
0
LINE
8
Layer 1
10
174.776080
20
43.513160
11
174.776080
21
37.714050
0
LINE
8
Layer 1
10
174.776080
20
37.714050
11
173.976140
21
37.714050
0
LINE
8
Layer 1
10
173.976140
20
37.714050
11
173.976140
21
34.613980
0
LINE
8
Layer 1
10
173.976140
20
34.613980
11
174.776080
21
34.613980
0
LINE
8
Layer 1
10
174.776080
20
34.613980
11
174.776080
21
33.613010
0
LINE
8
Layer 1
10
174.776080
20
33.613010
11
179.870340
21
33.613010
0
LINE
8
Layer 1
10
179.870340
20
33.613010
11
179.870340
21
31.805350
0
LINE
8
Layer 1
10
13.182340
20
50.854850
11
16.993470
21
50.854850
0
LINE
8
Layer 1
10
16.993470
20
50.854850
11
16.993470
21
52.665580
0
LINE
8
Layer 1
10
16.993470
20
52.665580
11
22.088770
21
52.665580
0
LINE
8
Layer 1
10
22.088770
20
52.665580
11
22.088770
21
53.665520
0
LINE
8
Layer 1
10
22.088770
20
53.665520
11
22.887690
21
53.665520
0
LINE
8
Layer 1
10
22.887690
20
53.665520
11
22.887690
21
56.765590
0
LINE
8
Layer 1
10
22.887690
20
56.765590
11
22.088770
21
56.765590
0
LINE
8
Layer 1
10
22.088770
20
56.765590
11
22.088770
21
62.565760
0
LINE
8
Layer 1
10
22.088770
20
62.565760
11
22.887690
21
62.565760
0
LINE
8
Layer 1
10
22.887690
20
62.565760
11
22.887690
21
65.665320
0
LINE
8
Layer 1
10
22.887690
20
65.665320
11
22.088770
21
65.665320
0
LINE
8
Layer 1
10
22.088770
20
65.665320
11
22.088770
21
66.665260
0
LINE
8
Layer 1
10
22.088770
20
66.665260
11
16.993470
21
66.665260
0
LINE
8
Layer 1
10
16.993470
20
66.665260
11
16.993470
21
68.475990
0
LINE
8
Layer 1
10
16.993470
20
68.475990
11
13.182340
21
68.475990
0
LINE
8
Layer 1
10
13.182340
20
68.475990
11
13.182340
21
66.665260
0
LINE
8
Layer 1
10
13.182340
20
66.665260
11
8.087930
21
66.665260
0
LINE
8
Layer 1
10
8.087930
20
66.665260
11
8.087930
21
65.665320
0
LINE
8
Layer 1
10
8.087930
20
65.665320
11
7.287970
21
65.665320
0
LINE
8
Layer 1
10
7.287970
20
65.665320
11
7.287970
21
62.565760
0
LINE
8
Layer 1
10
7.287970
20
62.565760
11
8.087930
21
62.565760
0
LINE
8
Layer 1
10
8.087930
20
62.565760
11
8.087930
21
56.765590
0
LINE
8
Layer 1
10
8.087930
20
56.765590
11
7.287970
21
56.765590
0
LINE
8
Layer 1
10
7.287970
20
56.765590
11
7.287970
21
53.665520
0
LINE
8
Layer 1
10
7.287970
20
53.665520
11
8.087930
21
53.665520
0
LINE
8
Layer 1
10
8.087930
20
53.665520
11
8.087930
21
52.665580
0
LINE
8
Layer 1
10
8.087930
20
52.665580
11
13.182190
21
52.665580
0
LINE
8
Layer 1
10
13.182190
20
52.665580
11
13.182340
21
50.854850
0
LINE
8
Layer 1
10
32.233340
20
50.854850
11
36.044480
21
50.854850
0
LINE
8
Layer 1
10
36.044480
20
50.854850
11
36.044480
21
52.665580
0
LINE
8
Layer 1
10
36.044480
20
52.665580
11
41.138740
21
52.665580
0
LINE
8
Layer 1
10
41.138740
20
52.665580
11
41.138740
21
53.665520
0
LINE
8
Layer 1
10
41.138740
20
53.665520
11
41.938690
21
53.665520
0
LINE
8
Layer 1
10
41.938690
20
53.665520
11
41.938690
21
56.765590
0
LINE
8
Layer 1
10
41.938690
20
56.765590
11
41.138740
21
56.765590
0
LINE
8
Layer 1
10
41.138740
20
56.765590
11
41.138740
21
62.565760
0
LINE
8
Layer 1
10
41.138740
20
62.565760
11
41.938690
21
62.565760
0
LINE
8
Layer 1
10
41.938690
20
62.565760
11
41.938690
21
65.665320
0
LINE
8
Layer 1
10
41.938690
20
65.665320
11
41.138740
21
65.665320
0
LINE
8
Layer 1
10
41.138740
20
65.665320
11
41.138740
21
66.665260
0
LINE
8
Layer 1
10
41.138740
20
66.665260
11
36.044480
21
66.665260
0
LINE
8
Layer 1
10
36.044480
20
66.665260
11
36.044480
21
68.475990
0
LINE
8
Layer 1
10
36.044480
20
68.475990
11
32.233340
21
68.475990
0
LINE
8
Layer 1
10
32.233340
20
68.475990
11
32.233340
21
66.665260
0
LINE
8
Layer 1
10
32.233340
20
66.665260
11
27.139080
21
66.665260
0
LINE
8
Layer 1
10
27.139080
20
66.665260
11
27.139080
21
65.665320
0
LINE
8
Layer 1
10
27.139080
20
65.665320
11
26.339130
21
65.665320
0
LINE
8
Layer 1
10
26.339130
20
65.665320
11
26.339130
21
62.565760
0
LINE
8
Layer 1
10
26.339130
20
62.565760
11
27.139080
21
62.565760
0
LINE
8
Layer 1
10
27.139080
20
62.565760
11
27.139080
21
56.765590
0
LINE
8
Layer 1
10
27.139080
20
56.765590
11
26.339130
21
56.765590
0
LINE
8
Layer 1
10
26.339130
20
56.765590
11
26.339130
21
53.665520
0
LINE
8
Layer 1
10
26.339130
20
53.665520
11
27.139080
21
53.665520
0
LINE
8
Layer 1
10
27.139080
20
53.665520
11
27.139080
21
52.665580
0
LINE
8
Layer 1
10
27.139080
20
52.665580
11
32.233340
21
52.665580
0
LINE
8
Layer 1
10
32.233340
20
52.665580
11
32.233340
21
50.854850
0
LINE
8
Layer 1
10
51.283340
20
50.854850
11
55.094480
21
50.854850
0
LINE
8
Layer 1
10
55.094480
20
50.854850
11
55.094480
21
52.665580
0
LINE
8
Layer 1
10
55.094480
20
52.665580
11
60.188740
21
52.665580
0
LINE
8
Layer 1
10
60.188740
20
52.665580
11
60.188740
21
53.665520
0
LINE
8
Layer 1
10
60.188740
20
53.665520
11
60.988690
21
53.665520
0
LINE
8
Layer 1
10
60.988690
20
53.665520
11
60.988690
21
56.765590
0
LINE
8
Layer 1
10
60.988690
20
56.765590
11
60.188740
21
56.765590
0
LINE
8
Layer 1
10
60.188740
20
56.765590
11
60.188740
21
62.565760
0
LINE
8
Layer 1
10
60.188740
20
62.565760
11
60.988690
21
62.565760
0
LINE
8
Layer 1
10
60.988690
20
62.565760
11
60.988690
21
65.665320
0
LINE
8
Layer 1
10
60.988690
20
65.665320
11
60.188740
21
65.665320
0
LINE
8
Layer 1
10
60.188740
20
65.665320
11
60.188740
21
66.665260
0
LINE
8
Layer 1
10
60.188740
20
66.665260
11
55.094480
21
66.665260
0
LINE
8
Layer 1
10
55.094480
20
66.665260
11
55.094480
21
68.475990
0
LINE
8
Layer 1
10
55.094480
20
68.475990
11
51.283340
21
68.475990
0
LINE
8
Layer 1
10
51.283340
20
68.475990
11
51.283340
21
66.665260
0
LINE
8
Layer 1
10
51.283340
20
66.665260
11
46.189080
21
66.665260
0
LINE
8
Layer 1
10
46.189080
20
66.665260
11
46.189080
21
65.665320
0
LINE
8
Layer 1
10
46.189080
20
65.665320
11
45.389130
21
65.665320
0
LINE
8
Layer 1
10
45.389130
20
65.665320
11
45.389130
21
62.565760
0
LINE
8
Layer 1
10
45.389130
20
62.565760
11
46.189080
21
62.565760
0
LINE
8
Layer 1
10
46.189080
20
62.565760
11
46.189080
21
56.765590
0
LINE
8
Layer 1
10
46.189080
20
56.765590
11
45.389130
21
56.765590
0
LINE
8
Layer 1
10
45.389130
20
56.765590
11
45.389130
21
53.665520
0
LINE
8
Layer 1
10
45.389130
20
53.665520
11
46.189080
21
53.665520
0
LINE
8
Layer 1
10
46.189080
20
53.665520
11
46.189080
21
52.665580
0
LINE
8
Layer 1
10
46.189080
20
52.665580
11
51.283340
21
52.665580
0
LINE
8
Layer 1
10
51.283340
20
52.665580
11
51.283340
21
50.854850
0
LINE
8
Layer 1
10
70.333340
20
50.854850
11
74.144480
21
50.854850
0
LINE
8
Layer 1
10
74.144480
20
50.854850
11
74.144480
21
52.665580
0
LINE
8
Layer 1
10
74.144480
20
52.665580
11
79.238740
21
52.665580
0
LINE
8
Layer 1
10
79.238740
20
52.665580
11
79.238740
21
53.665520
0
LINE
8
Layer 1
10
79.238740
20
53.665520
11
80.038680
21
53.665520
0
LINE
8
Layer 1
10
80.038680
20
53.665520
11
80.038680
21
56.765590
0
LINE
8
Layer 1
10
80.038680
20
56.765590
11
79.238740
21
56.765590
0
LINE
8
Layer 1
10
79.238740
20
56.765590
11
79.238740
21
62.565760
0
LINE
8
Layer 1
10
79.238740
20
62.565760
11
80.038680
21
62.565760
0
LINE
8
Layer 1
10
80.038680
20
62.565760
11
80.038680
21
65.665320
0
LINE
8
Layer 1
10
80.038680
20
65.665320
11
79.238740
21
65.665320
0
LINE
8
Layer 1
10
79.238740
20
65.665320
11
79.238740
21
66.665260
0
LINE
8
Layer 1
10
79.238740
20
66.665260
11
74.144480
21
66.665260
0
LINE
8
Layer 1
10
74.144480
20
66.665260
11
74.144480
21
68.475990
0
LINE
8
Layer 1
10
74.144480
20
68.475990
11
70.333340
21
68.475990
0
LINE
8
Layer 1
10
70.333340
20
68.475990
11
70.333340
21
66.665260
0
LINE
8
Layer 1
10
70.333340
20
66.665260
11
65.239080
21
66.665260
0
LINE
8
Layer 1
10
65.239080
20
66.665260
11
65.239080
21
65.665320
0
LINE
8
Layer 1
10
65.239080
20
65.665320
11
64.439130
21
65.665320
0
LINE
8
Layer 1
10
64.439130
20
65.665320
11
64.439130
21
62.565760
0
LINE
8
Layer 1
10
64.439130
20
62.565760
11
65.239080
21
62.565760
0
LINE
8
Layer 1
10
65.239080
20
62.565760
11
65.239080
21
56.765590
0
LINE
8
Layer 1
10
65.239080
20
56.765590
11
64.439130
21
56.765590
0
LINE
8
Layer 1
10
64.439130
20
56.765590
11
64.439130
21
53.665520
0
LINE
8
Layer 1
10
64.439130
20
53.665520
11
65.239080
21
53.665520
0
LINE
8
Layer 1
10
65.239080
20
53.665520
11
65.239080
21
52.665580
0
LINE
8
Layer 1
10
65.239080
20
52.665580
11
70.333340
21
52.665580
0
LINE
8
Layer 1
10
70.333340
20
52.665580
11
70.333340
21
50.854850
0
LINE
8
Layer 1
10
89.383340
20
50.854850
11
93.195510
21
50.854850
0
LINE
8
Layer 1
10
93.195510
20
50.854850
11
93.195510
21
52.665580
0
LINE
8
Layer 1
10
93.195510
20
52.665580
11
98.289770
21
52.665580
0
LINE
8
Layer 1
10
98.289770
20
52.665580
11
98.289770
21
53.665520
0
LINE
8
Layer 1
10
98.289770
20
53.665520
11
99.088680
21
53.665520
0
LINE
8
Layer 1
10
99.088680
20
53.665520
11
99.088680
21
56.765590
0
LINE
8
Layer 1
10
99.088680
20
56.765590
11
98.289770
21
56.765590
0
LINE
8
Layer 1
10
98.289770
20
56.765590
11
98.289770
21
62.565760
0
LINE
8
Layer 1
10
98.289770
20
62.565760
11
99.088680
21
62.565760
0
LINE
8
Layer 1
10
99.088680
20
62.565760
11
99.088680
21
65.665830
0
LINE
8
Layer 1
10
99.088680
20
65.665830
11
98.288740
21
65.665830
0
LINE
8
Layer 1
10
98.288740
20
65.665830
11
98.288740
21
66.665770
0
LINE
8
Layer 1
10
98.288740
20
66.665770
11
93.194480
21
66.665770
0
LINE
8
Layer 1
10
93.194480
20
66.665770
11
93.194480
21
68.476520
0
LINE
8
Layer 1
10
93.194480
20
68.476520
11
89.383340
21
68.476520
0
LINE
8
Layer 1
10
89.383340
20
68.476520
11
89.383340
21
66.665770
0
LINE
8
Layer 1
10
89.383340
20
66.665770
11
84.289080
21
66.665770
0
LINE
8
Layer 1
10
84.289080
20
66.665770
11
84.289080
21
65.665830
0
LINE
8
Layer 1
10
84.289080
20
65.665830
11
83.489110
21
65.665830
0
LINE
8
Layer 1
10
83.489110
20
65.665830
11
83.489110
21
62.566280
0
LINE
8
Layer 1
10
83.489110
20
62.566280
11
84.289080
21
62.566280
0
LINE
8
Layer 1
10
84.289080
20
62.566280
11
84.289080
21
56.766120
0
LINE
8
Layer 1
10
84.289080
20
56.766120
11
83.489110
21
56.766120
0
LINE
8
Layer 1
10
83.489110
20
56.766120
11
83.489110
21
53.666050
0
LINE
8
Layer 1
10
83.489110
20
53.666050
11
84.289080
21
53.666050
0
LINE
8
Layer 1
10
84.289080
20
53.666050
11
84.289080
21
52.666110
0
LINE
8
Layer 1
10
84.289080
20
52.666110
11
89.383340
21
52.666110
0
LINE
8
Layer 1
10
89.383340
20
52.666110
11
89.383340
21
50.854850
0
LINE
8
Layer 1
10
108.432340
20
50.854850
11
112.243480
21
50.854850
0
LINE
8
Layer 1
10
112.243480
20
50.854850
11
112.243480
21
52.665580
0
LINE
8
Layer 1
10
112.243480
20
52.665580
11
117.337740
21
52.665580
0
LINE
8
Layer 1
10
117.337740
20
52.665580
11
117.337740
21
53.665520
0
LINE
8
Layer 1
10
117.337740
20
53.665520
11
118.137680
21
53.665520
0
LINE
8
Layer 1
10
118.137680
20
53.665520
11
118.137680
21
56.765590
0
LINE
8
Layer 1
10
118.137680
20
56.765590
11
117.337740
21
56.765590
0
LINE
8
Layer 1
10
117.337740
20
56.765590
11
117.337740
21
62.565760
0
LINE
8
Layer 1
10
117.337740
20
62.565760
11
118.137680
21
62.565760
0
LINE
8
Layer 1
10
118.137680
20
62.565760
11
118.137680
21
65.665320
0
LINE
8
Layer 1
10
118.137680
20
65.665320
11
117.337740
21
65.665320
0
LINE
8
Layer 1
10
117.337740
20
65.665320
11
117.337740
21
66.665260
0
LINE
8
Layer 1
10
117.337740
20
66.665260
11
112.243480
21
66.665260
0
LINE
8
Layer 1
10
112.243480
20
66.665260
11
112.243480
21
68.475990
0
LINE
8
Layer 1
10
112.243480
20
68.475990
11
108.432340
21
68.475990
0
LINE
8
Layer 1
10
108.432340
20
68.475990
11
108.432340
21
66.665260
0
LINE
8
Layer 1
10
108.432340
20
66.665260
11
103.338080
21
66.665260
0
LINE
8
Layer 1
10
103.338080
20
66.665260
11
103.338080
21
65.665320
0
LINE
8
Layer 1
10
103.338080
20
65.665320
11
102.538110
21
65.665320
0
LINE
8
Layer 1
10
102.538110
20
65.665320
11
102.538110
21
62.565250
0
LINE
8
Layer 1
10
102.538110
20
62.565250
11
103.338080
21
62.565250
0
LINE
8
Layer 1
10
103.338080
20
62.565250
11
103.338080
21
56.765080
0
LINE
8
Layer 1
10
103.338080
20
56.765080
11
102.538110
21
56.765080
0
LINE
8
Layer 1
10
102.538110
20
56.765080
11
102.538110
21
53.665010
0
LINE
8
Layer 1
10
102.538110
20
53.665010
11
103.338080
21
53.665010
0
LINE
8
Layer 1
10
103.338080
20
53.665010
11
103.338080
21
52.665070
0
LINE
8
Layer 1
10
103.338080
20
52.665070
11
108.432340
21
52.665070
0
LINE
8
Layer 1
10
108.432340
20
52.665070
11
108.432340
21
50.854850
0
LINE
8
Layer 1
10
127.483340
20
50.854850
11
131.293450
21
50.854850
0
LINE
8
Layer 1
10
131.293450
20
50.854850
11
131.293450
21
52.665580
0
LINE
8
Layer 1
10
131.293450
20
52.665580
11
136.387710
21
52.665580
0
LINE
8
Layer 1
10
136.387710
20
52.665580
11
136.387710
21
53.665520
0
LINE
8
Layer 1
10
136.387710
20
53.665520
11
137.187650
21
53.665520
0
LINE
8
Layer 1
10
137.187650
20
53.665520
11
137.187650
21
56.765590
0
LINE
8
Layer 1
10
137.187650
20
56.765590
11
136.387710
21
56.765590
0
LINE
8
Layer 1
10
136.387710
20
56.765590
11
136.387710
21
62.565760
0
LINE
8
Layer 1
10
136.387710
20
62.565760
11
137.187650
21
62.565760
0
LINE
8
Layer 1
10
137.187650
20
62.565760
11
137.187650
21
65.665320
0
LINE
8
Layer 1
10
137.187650
20
65.665320
11
136.387710
21
65.665320
0
LINE
8
Layer 1
10
136.387710
20
65.665320
11
136.387710
21
66.665260
0
LINE
8
Layer 1
10
136.387710
20
66.665260
11
131.293450
21
66.665260
0
LINE
8
Layer 1
10
131.293450
20
66.665260
11
131.293450
21
68.475990
0
LINE
8
Layer 1
10
131.293450
20
68.475990
11
127.482310
21
68.475990
0
LINE
8
Layer 1
10
127.482310
20
68.475990
11
127.482310
21
66.665260
0
LINE
8
Layer 1
10
127.482310
20
66.665260
11
122.387020
21
66.665260
0
LINE
8
Layer 1
10
122.387020
20
66.665260
11
122.387020
21
65.665320
0
LINE
8
Layer 1
10
122.387020
20
65.665320
11
121.588080
21
65.665320
0
LINE
8
Layer 1
10
121.588080
20
65.665320
11
121.588080
21
62.565760
0
LINE
8
Layer 1
10
121.588080
20
62.565760
11
122.388050
21
62.565760
0
LINE
8
Layer 1
10
122.388050
20
62.565760
11
122.388050
21
56.765590
0
LINE
8
Layer 1
10
122.388050
20
56.765590
11
121.588080
21
56.765590
0
LINE
8
Layer 1
10
121.588080
20
56.765590
11
121.588080
21
53.665520
0
LINE
8
Layer 1
10
121.588080
20
53.665520
11
122.388050
21
53.665520
0
LINE
8
Layer 1
10
122.388050
20
53.665520
11
122.388050
21
52.665580
0
LINE
8
Layer 1
10
122.388050
20
52.665580
11
127.483340
21
52.665580
0
LINE
8
Layer 1
10
127.483340
20
52.665580
11
127.483340
21
50.854850
0
LINE
8
Layer 1
10
151.295340
20
50.854850
11
155.106480
21
50.854850
0
LINE
8
Layer 1
10
155.106480
20
50.854850
11
155.106480
21
52.665580
0
LINE
8
Layer 1
10
155.106480
20
52.665580
11
160.200740
21
52.665580
0
LINE
8
Layer 1
10
160.200740
20
52.665580
11
160.200740
21
53.665010
0
LINE
8
Layer 1
10
160.200740
20
53.665010
11
161.000710
21
53.665010
0
LINE
8
Layer 1
10
161.000710
20
53.665010
11
161.000710
21
56.764550
0
LINE
8
Layer 1
10
161.000710
20
56.764550
11
160.200740
21
56.764550
0
LINE
8
Layer 1
10
160.200740
20
56.764550
11
160.200740
21
62.564220
0
LINE
8
Layer 1
10
160.200740
20
62.564220
11
161.000710
21
62.564220
0
LINE
8
Layer 1
10
161.000710
20
62.564220
11
161.000710
21
65.663760
0
LINE
8
Layer 1
10
161.000710
20
65.663760
11
160.200740
21
65.663760
0
LINE
8
Layer 1
10
160.200740
20
65.663760
11
160.200740
21
66.663700
0
LINE
8
Layer 1
10
160.200740
20
66.663700
11
155.106480
21
66.663700
0
LINE
8
Layer 1
10
155.106480
20
66.663700
11
155.106480
21
68.473930
0
LINE
8
Layer 1
10
155.106480
20
68.473930
11
151.295340
21
68.473930
0
LINE
8
Layer 1
10
151.295340
20
68.473930
11
151.295340
21
66.663700
0
LINE
8
Layer 1
10
151.295340
20
66.663700
11
146.201080
21
66.663700
0
LINE
8
Layer 1
10
146.201080
20
66.663700
11
146.201080
21
65.663760
0
LINE
8
Layer 1
10
146.201080
20
65.663760
11
145.401140
21
65.663760
0
LINE
8
Layer 1
10
145.401140
20
65.663760
11
145.401140
21
62.564220
0
LINE
8
Layer 1
10
145.401140
20
62.564220
11
146.201080
21
62.564220
0
LINE
8
Layer 1
10
146.201080
20
62.564220
11
146.201080
21
56.764550
0
LINE
8
Layer 1
10
146.201080
20
56.764550
11
145.401140
21
56.764550
0
LINE
8
Layer 1
10
145.401140
20
56.764550
11
145.401140
21
53.665010
0
LINE
8
Layer 1
10
145.401140
20
53.665010
11
146.201080
21
53.665010
0
LINE
8
Layer 1
10
146.201080
20
53.665010
11
146.201080
21
52.665580
0
LINE
8
Layer 1
10
146.201080
20
52.665580
11
151.295340
21
52.665580
0
LINE
8
Layer 1
10
151.295340
20
52.665580
11
151.295340
21
50.854850
0
LINE
8
Layer 1
10
179.870340
20
50.854850
11
183.681480
21
50.854850
0
LINE
8
Layer 1
10
183.681480
20
50.854850
11
183.681480
21
52.665580
0
LINE
8
Layer 1
10
183.681480
20
52.665580
11
188.775740
21
52.665580
0
LINE
8
Layer 1
10
188.775740
20
52.665580
11
188.775740
21
53.665520
0
LINE
8
Layer 1
10
188.775740
20
53.665520
11
189.575710
21
53.665520
0
LINE
8
Layer 1
10
189.575710
20
53.665520
11
189.575710
21
56.765590
0
LINE
8
Layer 1
10
189.575710
20
56.765590
11
188.775740
21
56.765590
0
LINE
8
Layer 1
10
188.775740
20
56.765590
11
188.775740
21
62.565760
0
LINE
8
Layer 1
10
188.775740
20
62.565760
11
189.575710
21
62.565760
0
LINE
8
Layer 1
10
189.575710
20
62.565760
11
189.575710
21
65.665320
0
LINE
8
Layer 1
10
189.575710
20
65.665320
11
188.775740
21
65.665320
0
LINE
8
Layer 1
10
188.775740
20
65.665320
11
188.775740
21
66.665260
0
LINE
8
Layer 1
10
188.775740
20
66.665260
11
183.681480
21
66.665260
0
LINE
8
Layer 1
10
183.681480
20
66.665260
11
183.681480
21
68.475990
0
LINE
8
Layer 1
10
183.681480
20
68.475990
11
179.870340
21
68.475990
0
LINE
8
Layer 1
10
179.870340
20
68.475990
11
179.870340
21
66.665260
0
LINE
8
Layer 1
10
179.870340
20
66.665260
11
174.776080
21
66.665260
0
LINE
8
Layer 1
10
174.776080
20
66.665260
11
174.776080
21
65.665320
0
LINE
8
Layer 1
10
174.776080
20
65.665320
11
173.976140
21
65.665320
0
LINE
8
Layer 1
10
173.976140
20
65.665320
11
173.976140
21
62.565760
0
LINE
8
Layer 1
10
173.976140
20
62.565760
11
174.776080
21
62.565760
0
LINE
8
Layer 1
10
174.776080
20
62.565760
11
174.776080
21
56.765590
0
LINE
8
Layer 1
10
174.776080
20
56.765590
11
173.976140
21
56.765590
0
LINE
8
Layer 1
10
173.976140
20
56.765590
11
173.976140
21
53.665520
0
LINE
8
Layer 1
10
173.976140
20
53.665520
11
174.776080
21
53.665520
0
LINE
8
Layer 1
10
174.776080
20
53.665520
11
174.776080
21
52.665580
0
LINE
8
Layer 1
10
174.776080
20
52.665580
11
179.870340
21
52.665580
0
LINE
8
Layer 1
10
179.870340
20
52.665580
11
179.870340
21
50.854850
0
LINE
8
Layer 1
10
17.945340
20
69.904850
11
21.756480
21
69.904850
0
LINE
8
Layer 1
10
21.756480
20
69.904850
11
21.756480
21
71.715580
0
LINE
8
Layer 1
10
21.756480
20
71.715580
11
26.850740
21
71.715580
0
LINE
8
Layer 1
10
26.850740
20
71.715580
11
26.850740
21
72.715520
0
LINE
8
Layer 1
10
26.850740
20
72.715520
11
27.650700
21
72.715520
0
LINE
8
Layer 1
10
27.650700
20
72.715520
11
27.650700
21
75.815590
0
LINE
8
Layer 1
10
27.650700
20
75.815590
11
26.850740
21
75.815590
0
LINE
8
Layer 1
10
26.850740
20
75.815590
11
26.850740
21
81.615760
0
LINE
8
Layer 1
10
26.850740
20
81.615760
11
27.650700
21
81.615760
0
LINE
8
Layer 1
10
27.650700
20
81.615760
11
27.650700
21
84.715320
0
LINE
8
Layer 1
10
27.650700
20
84.715320
11
26.850740
21
84.715320
0
LINE
8
Layer 1
10
26.850740
20
84.715320
11
26.850740
21
85.715260
0
LINE
8
Layer 1
10
26.850740
20
85.715260
11
21.756480
21
85.715260
0
LINE
8
Layer 1
10
21.756480
20
85.715260
11
21.756480
21
87.525990
0
LINE
8
Layer 1
10
21.756480
20
87.525990
11
17.945340
21
87.525990
0
LINE
8
Layer 1
10
17.945340
20
87.525990
11
17.945340
21
85.715260
0
LINE
8
Layer 1
10
17.945340
20
85.715260
11
12.851080
21
85.715260
0
LINE
8
Layer 1
10
12.851080
20
85.715260
11
12.851080
21
84.715320
0
LINE
8
Layer 1
10
12.851080
20
84.715320
11
12.051130
21
84.715320
0
LINE
8
Layer 1
10
12.051130
20
84.715320
11
12.051130
21
81.615760
0
LINE
8
Layer 1
10
12.051130
20
81.615760
11
12.851080
21
81.615760
0
LINE
8
Layer 1
10
12.851080
20
81.615760
11
12.851080
21
75.815590
0
LINE
8
Layer 1
10
12.851080
20
75.815590
11
12.051130
21
75.815590
0
LINE
8
Layer 1
10
12.051130
20
75.815590
11
12.051130
21
72.715520
0
LINE
8
Layer 1
10
12.051130
20
72.715520
11
12.851080
21
72.715520
0
LINE
8
Layer 1
10
12.851080
20
72.715520
11
12.851080
21
71.715580
0
LINE
8
Layer 1
10
12.851080
20
71.715580
11
17.945340
21
71.715580
0
LINE
8
Layer 1
10
17.945340
20
71.715580
11
17.945340
21
69.904850
0
LINE
8
Layer 1
10
36.995340
20
69.904850
11
40.806480
21
69.904850
0
LINE
8
Layer 1
10
40.806480
20
69.904850
11
40.806480
21
71.715580
0
LINE
8
Layer 1
10
40.806480
20
71.715580
11
45.900740
21
71.715580
0
LINE
8
Layer 1
10
45.900740
20
71.715580
11
45.900740
21
72.715520
0
LINE
8
Layer 1
10
45.900740
20
72.715520
11
46.700700
21
72.715520
0
LINE
8
Layer 1
10
46.700700
20
72.715520
11
46.700700
21
75.815590
0
LINE
8
Layer 1
10
46.700700
20
75.815590
11
45.900740
21
75.815590
0
LINE
8
Layer 1
10
45.900740
20
75.815590
11
45.900740
21
81.615760
0
LINE
8
Layer 1
10
45.900740
20
81.615760
11
46.700700
21
81.615760
0
LINE
8
Layer 1
10
46.700700
20
81.615760
11
46.700700
21
84.715320
0
LINE
8
Layer 1
10
46.700700
20
84.715320
11
45.900740
21
84.715320
0
LINE
8
Layer 1
10
45.900740
20
84.715320
11
45.900740
21
85.715260
0
LINE
8
Layer 1
10
45.900740
20
85.715260
11
40.806480
21
85.715260
0
LINE
8
Layer 1
10
40.806480
20
85.715260
11
40.806480
21
87.525990
0
LINE
8
Layer 1
10
40.806480
20
87.525990
11
36.995340
21
87.525990
0
LINE
8
Layer 1
10
36.995340
20
87.525990
11
36.995340
21
85.715260
0
LINE
8
Layer 1
10
36.995340
20
85.715260
11
31.901080
21
85.715260
0
LINE
8
Layer 1
10
31.901080
20
85.715260
11
31.901080
21
84.715320
0
LINE
8
Layer 1
10
31.901080
20
84.715320
11
31.101130
21
84.715320
0
LINE
8
Layer 1
10
31.101130
20
84.715320
11
31.101130
21
81.615760
0
LINE
8
Layer 1
10
31.101130
20
81.615760
11
31.901080
21
81.615760
0
LINE
8
Layer 1
10
31.901080
20
81.615760
11
31.901080
21
75.815590
0
LINE
8
Layer 1
10
31.901080
20
75.815590
11
31.101130
21
75.815590
0
LINE
8
Layer 1
10
31.101130
20
75.815590
11
31.101130
21
72.715520
0
LINE
8
Layer 1
10
31.101130
20
72.715520
11
31.901080
21
72.715520
0
LINE
8
Layer 1
10
31.901080
20
72.715520
11
31.901080
21
71.715580
0
LINE
8
Layer 1
10
31.901080
20
71.715580
11
36.995340
21
71.715580
0
LINE
8
Layer 1
10
36.995340
20
71.715580
11
36.995340
21
69.904850
0
LINE
8
Layer 1
10
56.045340
20
69.904850
11
59.856480
21
69.904850
0
LINE
8
Layer 1
10
59.856480
20
69.904850
11
59.856480
21
71.715580
0
LINE
8
Layer 1
10
59.856480
20
71.715580
11
64.950740
21
71.715580
0
LINE
8
Layer 1
10
64.950740
20
71.715580
11
64.950740
21
72.715520
0
LINE
8
Layer 1
10
64.950740
20
72.715520
11
65.750700
21
72.715520
0
LINE
8
Layer 1
10
65.750700
20
72.715520
11
65.750700
21
75.815590
0
LINE
8
Layer 1
10
65.750700
20
75.815590
11
64.950740
21
75.815590
0
LINE
8
Layer 1
10
64.950740
20
75.815590
11
64.950740
21
81.615760
0
LINE
8
Layer 1
10
64.950740
20
81.615760
11
65.750700
21
81.615760
0
LINE
8
Layer 1
10
65.750700
20
81.615760
11
65.750700
21
84.715320
0
LINE
8
Layer 1
10
65.750700
20
84.715320
11
64.950740
21
84.715320
0
LINE
8
Layer 1
10
64.950740
20
84.715320
11
64.950740
21
85.715260
0
LINE
8
Layer 1
10
64.950740
20
85.715260
11
59.856480
21
85.715260
0
LINE
8
Layer 1
10
59.856480
20
85.715260
11
59.856480
21
87.525990
0
LINE
8
Layer 1
10
59.856480
20
87.525990
11
56.045340
21
87.525990
0
LINE
8
Layer 1
10
56.045340
20
87.525990
11
56.045340
21
85.715260
0
LINE
8
Layer 1
10
56.045340
20
85.715260
11
50.951080
21
85.715260
0
LINE
8
Layer 1
10
50.951080
20
85.715260
11
50.951080
21
84.715320
0
LINE
8
Layer 1
10
50.951080
20
84.715320
11
50.151130
21
84.715320
0
LINE
8
Layer 1
10
50.151130
20
84.715320
11
50.151130
21
81.615760
0
LINE
8
Layer 1
10
50.151130
20
81.615760
11
50.951080
21
81.615760
0
LINE
8
Layer 1
10
50.951080
20
81.615760
11
50.951080
21
75.815590
0
LINE
8
Layer 1
10
50.951080
20
75.815590
11
50.151130
21
75.815590
0
LINE
8
Layer 1
10
50.151130
20
75.815590
11
50.151130
21
72.715520
0
LINE
8
Layer 1
10
50.151130
20
72.715520
11
50.951080
21
72.715520
0
LINE
8
Layer 1
10
50.951080
20
72.715520
11
50.951080
21
71.715580
0
LINE
8
Layer 1
10
50.951080
20
71.715580
11
56.045340
21
71.715580
0
LINE
8
Layer 1
10
56.045340
20
71.715580
11
56.045340
21
69.904850
0
LINE
8
Layer 1
10
75.095340
20
69.904850
11
78.906480
21
69.904850
0
LINE
8
Layer 1
10
78.906480
20
69.904850
11
78.906480
21
71.715580
0
LINE
8
Layer 1
10
78.906480
20
71.715580
11
84.000740
21
71.715580
0
LINE
8
Layer 1
10
84.000740
20
71.715580
11
84.000740
21
72.715520
0
LINE
8
Layer 1
10
84.000740
20
72.715520
11
84.800710
21
72.715520
0
LINE
8
Layer 1
10
84.800710
20
72.715520
11
84.800710
21
75.815590
0
LINE
8
Layer 1
10
84.800710
20
75.815590
11
84.000740
21
75.815590
0
LINE
8
Layer 1
10
84.000740
20
75.815590
11
84.000740
21
81.615760
0
LINE
8
Layer 1
10
84.000740
20
81.615760
11
84.800710
21
81.615760
0
LINE
8
Layer 1
10
84.800710
20
81.615760
11
84.800710
21
84.715320
0
LINE
8
Layer 1
10
84.800710
20
84.715320
11
84.000740
21
84.715320
0
LINE
8
Layer 1
10
84.000740
20
84.715320
11
84.000740
21
85.715260
0
LINE
8
Layer 1
10
84.000740
20
85.715260
11
78.906480
21
85.715260
0
LINE
8
Layer 1
10
78.906480
20
85.715260
11
78.906480
21
87.525990
0
LINE
8
Layer 1
10
78.906480
20
87.525990
11
75.095340
21
87.525990
0
LINE
8
Layer 1
10
75.095340
20
87.525990
11
75.095340
21
85.715260
0
LINE
8
Layer 1
10
75.095340
20
85.715260
11
70.001090
21
85.715260
0
LINE
8
Layer 1
10
70.001090
20
85.715260
11
70.001090
21
84.715320
0
LINE
8
Layer 1
10
70.001090
20
84.715320
11
69.201140
21
84.715320
0
LINE
8
Layer 1
10
69.201140
20
84.715320
11
69.201140
21
81.615760
0
LINE
8
Layer 1
10
69.201140
20
81.615760
11
70.001090
21
81.615760
0
LINE
8
Layer 1
10
70.001090
20
81.615760
11
70.001090
21
75.815590
0
LINE
8
Layer 1
10
70.001090
20
75.815590
11
69.201140
21
75.815590
0
LINE
8
Layer 1
10
69.201140
20
75.815590
11
69.201140
21
72.715520
0
LINE
8
Layer 1
10
69.201140
20
72.715520
11
70.001090
21
72.715520
0
LINE
8
Layer 1
10
70.001090
20
72.715520
11
70.001090
21
71.715580
0
LINE
8
Layer 1
10
70.001090
20
71.715580
11
75.095340
21
71.715580
0
LINE
8
Layer 1
10
75.095340
20
71.715580
11
75.095340
21
69.904850
0
LINE
8
Layer 1
10
94.145340
20
69.904850
11
97.956480
21
69.904850
0
LINE
8
Layer 1
10
97.956480
20
69.904850
11
97.956480
21
71.715580
0
LINE
8
Layer 1
10
97.956480
20
71.715580
11
103.050740
21
71.715580
0
LINE
8
Layer 1
10
103.050740
20
71.715580
11
103.050740
21
72.715520
0
LINE
8
Layer 1
10
103.050740
20
72.715520
11
103.850710
21
72.715520
0
LINE
8
Layer 1
10
103.850710
20
72.715520
11
103.850710
21
75.815590
0
LINE
8
Layer 1
10
103.850710
20
75.815590
11
103.050740
21
75.815590
0
LINE
8
Layer 1
10
103.050740
20
75.815590
11
103.050740
21
81.615760
0
LINE
8
Layer 1
10
103.050740
20
81.615760
11
103.850710
21
81.615760
0
LINE
8
Layer 1
10
103.850710
20
81.615760
11
103.850710
21
84.715320
0
LINE
8
Layer 1
10
103.850710
20
84.715320
11
103.050740
21
84.715320
0
LINE
8
Layer 1
10
103.050740
20
84.715320
11
103.050740
21
85.715260
0
LINE
8
Layer 1
10
103.050740
20
85.715260
11
97.956480
21
85.715260
0
LINE
8
Layer 1
10
97.956480
20
85.715260
11
97.956480
21
87.525990
0
LINE
8
Layer 1
10
97.956480
20
87.525990
11
94.145340
21
87.525990
0
LINE
8
Layer 1
10
94.145340
20
87.525990
11
94.145340
21
85.715260
0
LINE
8
Layer 1
10
94.145340
20
85.715260
11
89.051080
21
85.715260
0
LINE
8
Layer 1
10
89.051080
20
85.715260
11
89.051080
21
84.715320
0
LINE
8
Layer 1
10
89.051080
20
84.715320
11
88.251140
21
84.715320
0
LINE
8
Layer 1
10
88.251140
20
84.715320
11
88.251140
21
81.615760
0
LINE
8
Layer 1
10
88.251140
20
81.615760
11
89.051080
21
81.615760
0
LINE
8
Layer 1
10
89.051080
20
81.615760
11
89.051080
21
75.815590
0
LINE
8
Layer 1
10
89.051080
20
75.815590
11
88.251140
21
75.815590
0
LINE
8
Layer 1
10
88.251140
20
75.815590
11
88.251140
21
72.715520
0
LINE
8
Layer 1
10
88.251140
20
72.715520
11
89.051080
21
72.715520
0
LINE
8
Layer 1
10
89.051080
20
72.715520
11
89.051080
21
71.715580
0
LINE
8
Layer 1
10
89.051080
20
71.715580
11
94.145340
21
71.715580
0
LINE
8
Layer 1
10
94.145340
20
71.715580
11
94.145340
21
69.904850
0
LINE
8
Layer 1
10
113.195340
20
69.904850
11
117.007510
21
69.904850
0
LINE
8
Layer 1
10
117.007510
20
69.904850
11
117.007510
21
71.715580
0
LINE
8
Layer 1
10
117.007510
20
71.715580
11
122.101770
21
71.715580
0
LINE
8
Layer 1
10
122.101770
20
71.715580
11
122.101770
21
72.715520
0
LINE
8
Layer 1
10
122.101770
20
72.715520
11
122.900710
21
72.715520
0
LINE
8
Layer 1
10
122.900710
20
72.715520
11
122.900710
21
75.815590
0
LINE
8
Layer 1
10
122.900710
20
75.815590
11
122.101770
21
75.815590
0
LINE
8
Layer 1
10
122.101770
20
75.815590
11
122.101770
21
81.615760
0
LINE
8
Layer 1
10
122.101770
20
81.615760
11
122.900710
21
81.615760
0
LINE
8
Layer 1
10
122.900710
20
81.615760
11
122.900710
21
84.715830
0
LINE
8
Layer 1
10
122.900710
20
84.715830
11
122.100740
21
84.715830
0
LINE
8
Layer 1
10
122.100740
20
84.715830
11
122.100740
21
85.715770
0
LINE
8
Layer 1
10
122.100740
20
85.715770
11
117.006480
21
85.715770
0
LINE
8
Layer 1
10
117.006480
20
85.715770
11
117.006480
21
87.526520
0
LINE
8
Layer 1
10
117.006480
20
87.526520
11
113.195340
21
87.526520
0
LINE
8
Layer 1
10
113.195340
20
87.526520
11
113.195340
21
85.715770
0
LINE
8
Layer 1
10
113.195340
20
85.715770
11
108.101080
21
85.715770
0
LINE
8
Layer 1
10
108.101080
20
85.715770
11
108.101080
21
84.715830
0
LINE
8
Layer 1
10
108.101080
20
84.715830
11
107.301140
21
84.715830
0
LINE
8
Layer 1
10
107.301140
20
84.715830
11
107.301140
21
81.616280
0
LINE
8
Layer 1
10
107.301140
20
81.616280
11
108.101080
21
81.616280
0
LINE
8
Layer 1
10
108.101080
20
81.616280
11
108.101080
21
75.816120
0
LINE
8
Layer 1
10
108.101080
20
75.816120
11
107.301140
21
75.816120
0
LINE
8
Layer 1
10
107.301140
20
75.816120
11
107.301140
21
72.716050
0
LINE
8
Layer 1
10
107.301140
20
72.716050
11
108.101080
21
72.716050
0
LINE
8
Layer 1
10
108.101080
20
72.716050
11
108.101080
21
71.716110
0
LINE
8
Layer 1
10
108.101080
20
71.716110
11
113.195340
21
71.716110
0
LINE
8
Layer 1
10
113.195340
20
71.716110
11
113.195340
21
69.904850
0
LINE
8
Layer 1
10
144.150040
20
69.904850
11
147.962210
21
69.904850
0
LINE
8
Layer 1
10
147.962210
20
69.904850
11
147.962210
21
71.715580
0
LINE
8
Layer 1
10
147.962210
20
71.715580
11
153.056470
21
71.715580
0
LINE
8
Layer 1
10
153.056470
20
71.715580
11
154.581450
21
71.715580
0
LINE
8
Layer 1
10
154.581450
20
71.715580
11
154.581450
21
70.296560
0
LINE
8
Layer 1
10
154.581450
20
70.296560
11
161.331420
21
70.296560
0
LINE
8
Layer 1
10
161.331420
20
70.296560
11
161.331420
21
73.186820
0
LINE
8
Layer 1
10
161.331420
20
73.186820
11
161.331420
21
76.416590
0
LINE
8
Layer 1
10
161.331420
20
76.416590
11
162.156180
21
76.416590
0
LINE
8
Layer 1
10
162.156180
20
76.416590
11
162.156180
21
79.216430
0
LINE
8
Layer 1
10
162.156180
20
79.216430
11
161.331420
21
79.216430
0
LINE
8
Layer 1
10
161.331420
20
79.216430
11
161.331420
21
80.150200
0
LINE
8
Layer 1
10
161.331420
20
80.150200
11
161.331420
21
85.485820
0
LINE
8
Layer 1
10
161.331420
20
85.485820
11
161.331420
21
89.316060
0
LINE
8
Layer 1
10
161.331420
20
89.316060
11
133.676220
21
89.316060
0
LINE
8
Layer 1
10
133.676220
20
89.316060
11
133.676220
21
90.765070
0
LINE
8
Layer 1
10
133.676220
20
90.765070
11
138.770480
21
90.765070
0
LINE
8
Layer 1
10
138.770480
20
90.765070
11
138.770480
21
91.764480
0
LINE
8
Layer 1
10
138.770480
20
91.764480
11
139.570450
21
91.764480
0
LINE
8
Layer 1
10
139.570450
20
91.764480
11
139.570450
21
94.864050
0
LINE
8
Layer 1
10
139.570450
20
94.864050
11
138.770480
21
94.864050
0
LINE
8
Layer 1
10
138.770480
20
94.864050
11
138.770480
21
100.664220
0
LINE
8
Layer 1
10
138.770480
20
100.664220
11
139.570450
21
100.664220
0
LINE
8
Layer 1
10
139.570450
20
100.664220
11
139.570450
21
103.763760
0
LINE
8
Layer 1
10
139.570450
20
103.763760
11
138.770480
21
103.763760
0
LINE
8
Layer 1
10
138.770480
20
103.763760
11
138.770480
21
104.763700
0
LINE
8
Layer 1
10
138.770480
20
104.763700
11
133.676220
21
104.763700
0
LINE
8
Layer 1
10
133.676220
20
104.763700
11
133.676220
21
106.573930
0
LINE
8
Layer 1
10
133.676220
20
106.573930
11
129.865090
21
106.573930
0
LINE
8
Layer 1
10
129.865090
20
106.573930
11
129.865090
21
104.763700
0
LINE
8
Layer 1
10
129.865090
20
104.763700
11
124.770320
21
104.763700
0
LINE
8
Layer 1
10
124.770320
20
104.763700
11
124.770320
21
103.763230
0
LINE
8
Layer 1
10
124.770320
20
103.763230
11
123.970880
21
103.763230
0
LINE
8
Layer 1
10
123.970880
20
103.763230
11
123.970880
21
100.663690
0
LINE
8
Layer 1
10
123.970880
20
100.663690
11
124.770320
21
100.663690
0
LINE
8
Layer 1
10
124.770320
20
100.663690
11
124.770320
21
94.863520
0
LINE
8
Layer 1
10
124.770320
20
94.863520
11
123.970880
21
94.863520
0
LINE
8
Layer 1
10
123.970880
20
94.863520
11
123.970880
21
91.764480
0
LINE
8
Layer 1
10
123.970880
20
91.764480
11
124.770320
21
91.764480
0
LINE
8
Layer 1
10
124.770320
20
91.764480
11
124.770320
21
90.765070
0
LINE
8
Layer 1
10
124.770320
20
90.765070
11
129.864580
21
90.765070
0
LINE
8
Layer 1
10
129.864580
20
90.765070
11
129.864580
21
88.954320
0
LINE
8
Layer 1
10
129.864580
20
88.954320
11
130.780810
21
88.954320
0
LINE
8
Layer 1
10
130.780810
20
88.954320
11
130.780810
21
85.485820
0
LINE
8
Layer 1
10
130.780810
20
85.485820
11
130.780810
21
80.150200
0
LINE
8
Layer 1
10
130.780810
20
80.150200
11
130.780810
21
79.216430
0
LINE
8
Layer 1
10
130.780810
20
79.216430
11
129.956050
21
79.216430
0
LINE
8
Layer 1
10
129.956050
20
79.216430
11
129.956050
21
76.416590
0
LINE
8
Layer 1
10
129.956050
20
76.416590
11
130.780810
21
76.416590
0
LINE
8
Layer 1
10
130.780810
20
76.416590
11
130.780810
21
73.186820
0
LINE
8
Layer 1
10
130.780810
20
73.186820
11
130.780810
21
70.296560
0
LINE
8
Layer 1
10
130.780810
20
70.296560
11
137.530780
21
70.296560
0
LINE
8
Layer 1
10
137.530780
20
70.296560
11
137.530780
21
71.715580
0
LINE
8
Layer 1
10
137.530780
20
71.715580
11
139.055760
21
71.715580
0
LINE
8
Layer 1
10
139.055760
20
71.715580
11
144.150020
21
71.715580
0
LINE
8
Layer 1
10
144.150020
20
71.715580
11
144.150040
21
69.904850
0
LINE
8
Layer 1
10
179.870340
20
69.904850
11
183.681480
21
69.904850
0
LINE
8
Layer 1
10
183.681480
20
69.904850
11
183.681480
21
71.715580
0
LINE
8
Layer 1
10
183.681480
20
71.715580
11
188.775740
21
71.715580
0
LINE
8
Layer 1
10
188.775740
20
71.715580
11
188.775740
21
72.715520
0
LINE
8
Layer 1
10
188.775740
20
72.715520
11
189.575710
21
72.715520
0
LINE
8
Layer 1
10
189.575710
20
72.715520
11
189.575710
21
75.815590
0
LINE
8
Layer 1
10
189.575710
20
75.815590
11
188.775740
21
75.815590
0
LINE
8
Layer 1
10
188.775740
20
75.815590
11
188.775740
21
81.615760
0
LINE
8
Layer 1
10
188.775740
20
81.615760
11
189.575710
21
81.615760
0
LINE
8
Layer 1
10
189.575710
20
81.615760
11
189.575710
21
84.715320
0
LINE
8
Layer 1
10
189.575710
20
84.715320
11
188.775740
21
84.715320
0
LINE
8
Layer 1
10
188.775740
20
84.715320
11
188.775740
21
85.715770
0
LINE
8
Layer 1
10
188.775740
20
85.715770
11
183.681480
21
85.715770
0
LINE
8
Layer 1
10
183.681480
20
85.715770
11
183.681480
21
87.526520
0
LINE
8
Layer 1
10
183.681480
20
87.526520
11
179.870340
21
87.526520
0
LINE
8
Layer 1
10
179.870340
20
87.526520
11
179.870340
21
85.715770
0
LINE
8
Layer 1
10
179.870340
20
85.715770
11
174.776080
21
85.715770
0
LINE
8
Layer 1
10
174.776080
20
85.715770
11
174.776080
21
84.715320
0
LINE
8
Layer 1
10
174.776080
20
84.715320
11
173.976140
21
84.715320
0
LINE
8
Layer 1
10
173.976140
20
84.715320
11
173.976140
21
81.615760
0
LINE
8
Layer 1
10
173.976140
20
81.615760
11
174.776080
21
81.615760
0
LINE
8
Layer 1
10
174.776080
20
81.615760
11
174.776080
21
75.815590
0
LINE
8
Layer 1
10
174.776080
20
75.815590
11
173.976140
21
75.815590
0
LINE
8
Layer 1
10
173.976140
20
75.815590
11
173.976140
21
72.715520
0
LINE
8
Layer 1
10
173.976140
20
72.715520
11
174.776080
21
72.715520
0
LINE
8
Layer 1
10
174.776080
20
72.715520
11
174.776080
21
71.715580
0
LINE
8
Layer 1
10
174.776080
20
71.715580
11
179.870340
21
71.715580
0
LINE
8
Layer 1
10
179.870340
20
71.715580
11
179.870340
21
69.904850
0
LINE
8
Layer 1
10
27.470340
20
88.954850
11
31.281480
21
88.954850
0
LINE
8
Layer 1
10
31.281480
20
88.954850
11
31.281480
21
90.765580
0
LINE
8
Layer 1
10
31.281480
20
90.765580
11
36.375740
21
90.765580
0
LINE
8
Layer 1
10
36.375740
20
90.765580
11
36.375740
21
91.765520
0
LINE
8
Layer 1
10
36.375740
20
91.765520
11
37.175700
21
91.765520
0
LINE
8
Layer 1
10
37.175700
20
91.765520
11
37.175700
21
94.865590
0
LINE
8
Layer 1
10
37.175700
20
94.865590
11
36.375740
21
94.865590
0
LINE
8
Layer 1
10
36.375740
20
94.865590
11
36.375740
21
100.665760
0
LINE
8
Layer 1
10
36.375740
20
100.665760
11
37.175700
21
100.665760
0
LINE
8
Layer 1
10
37.175700
20
100.665760
11
37.175700
21
103.765320
0
LINE
8
Layer 1
10
37.175700
20
103.765320
11
36.375740
21
103.765320
0
LINE
8
Layer 1
10
36.375740
20
103.765320
11
36.375740
21
104.765260
0
LINE
8
Layer 1
10
36.375740
20
104.765260
11
31.281480
21
104.765260
0
LINE
8
Layer 1
10
31.281480
20
104.765260
11
31.281480
21
106.575990
0
LINE
8
Layer 1
10
31.281480
20
106.575990
11
27.470340
21
106.575990
0
LINE
8
Layer 1
10
27.470340
20
106.575990
11
27.470340
21
104.765260
0
LINE
8
Layer 1
10
27.470340
20
104.765260
11
22.376080
21
104.765260
0
LINE
8
Layer 1
10
22.376080
20
104.765260
11
22.376080
21
103.765320
0
LINE
8
Layer 1
10
22.376080
20
103.765320
11
21.576130
21
103.765320
0
LINE
8
Layer 1
10
21.576130
20
103.765320
11
21.576130
21
100.665760
0
LINE
8
Layer 1
10
21.576130
20
100.665760
11
22.376080
21
100.665760
0
LINE
8
Layer 1
10
22.376080
20
100.665760
11
22.376080
21
94.865590
0
LINE
8
Layer 1
10
22.376080
20
94.865590
11
21.576130
21
94.865590
0
LINE
8
Layer 1
10
21.576130
20
94.865590
11
21.576130
21
91.766550
0
LINE
8
Layer 1
10
21.576130
20
91.766550
11
22.376080
21
91.766550
0
LINE
8
Layer 1
10
22.376080
20
91.766550
11
22.376080
21
90.766610
0
LINE
8
Layer 1
10
22.376080
20
90.766610
11
27.470340
21
90.766610
0
LINE
8
Layer 1
10
27.470340
20
90.766610
11
27.470340
21
88.954850
0
LINE
8
Layer 1
10
46.520340
20
88.954850
11
50.331480
21
88.954850
0
LINE
8
Layer 1
10
50.331480
20
88.954850
11
50.331480
21
90.765580
0
LINE
8
Layer 1
10
50.331480
20
90.765580
11
55.425740
21
90.765580
0
LINE
8
Layer 1
10
55.425740
20
90.765580
11
55.425740
21
91.765520
0
LINE
8
Layer 1
10
55.425740
20
91.765520
11
56.225700
21
91.765520
0
LINE
8
Layer 1
10
56.225700
20
91.765520
11
56.225700
21
94.865590
0
LINE
8
Layer 1
10
56.225700
20
94.865590
11
55.425740
21
94.865590
0
LINE
8
Layer 1
10
55.425740
20
94.865590
11
55.425740
21
100.665760
0
LINE
8
Layer 1
10
55.425740
20
100.665760
11
56.225700
21
100.665760
0
LINE
8
Layer 1
10
56.225700
20
100.665760
11
56.225700
21
103.765320
0
LINE
8
Layer 1
10
56.225700
20
103.765320
11
55.425740
21
103.765320
0
LINE
8
Layer 1
10
55.425740
20
103.765320
11
55.425740
21
104.765260
0
LINE
8
Layer 1
10
55.425740
20
104.765260
11
50.331480
21
104.765260
0
LINE
8
Layer 1
10
50.331480
20
104.765260
11
50.331480
21
106.575990
0
LINE
8
Layer 1
10
50.331480
20
106.575990
11
46.520340
21
106.575990
0
LINE
8
Layer 1
10
46.520340
20
106.575990
11
46.520340
21
104.765260
0
LINE
8
Layer 1
10
46.520340
20
104.765260
11
41.426080
21
104.765260
0
LINE
8
Layer 1
10
41.426080
20
104.765260
11
41.426080
21
103.765320
0
LINE
8
Layer 1
10
41.426080
20
103.765320
11
40.626130
21
103.765320
0
LINE
8
Layer 1
10
40.626130
20
103.765320
11
40.626130
21
100.665760
0
LINE
8
Layer 1
10
40.626130
20
100.665760
11
41.426080
21
100.665760
0
LINE
8
Layer 1
10
41.426080
20
100.665760
11
41.426080
21
94.865590
0
LINE
8
Layer 1
10
41.426080
20
94.865590
11
40.626130
21
94.865590
0
LINE
8
Layer 1
10
40.626130
20
94.865590
11
40.626130
21
91.766550
0
LINE
8
Layer 1
10
40.626130
20
91.766550
11
41.426080
21
91.766550
0
LINE
8
Layer 1
10
41.426080
20
91.766550
11
41.426080
21
90.766610
0
LINE
8
Layer 1
10
41.426080
20
90.766610
11
46.520340
21
90.766610
0
LINE
8
Layer 1
10
46.520340
20
90.766610
11
46.520340
21
88.954850
0
LINE
8
Layer 1
10
65.570340
20
88.954850
11
69.381480
21
88.954850
0
LINE
8
Layer 1
10
69.381480
20
88.954850
11
69.381480
21
90.765580
0
LINE
8
Layer 1
10
69.381480
20
90.765580
11
74.475740
21
90.765580
0
LINE
8
Layer 1
10
74.475740
20
90.765580
11
74.475740
21
91.765520
0
LINE
8
Layer 1
10
74.475740
20
91.765520
11
75.275700
21
91.765520
0
LINE
8
Layer 1
10
75.275700
20
91.765520
11
75.275700
21
94.865590
0
LINE
8
Layer 1
10
75.275700
20
94.865590
11
74.475740
21
94.865590
0
LINE
8
Layer 1
10
74.475740
20
94.865590
11
74.475740
21
100.665760
0
LINE
8
Layer 1
10
74.475740
20
100.665760
11
75.275700
21
100.665760
0
LINE
8
Layer 1
10
75.275700
20
100.665760
11
75.275700
21
103.765320
0
LINE
8
Layer 1
10
75.275700
20
103.765320
11
74.475740
21
103.765320
0
LINE
8
Layer 1
10
74.475740
20
103.765320
11
74.475740
21
104.765260
0
LINE
8
Layer 1
10
74.475740
20
104.765260
11
69.381480
21
104.765260
0
LINE
8
Layer 1
10
69.381480
20
104.765260
11
69.381480
21
106.575990
0
LINE
8
Layer 1
10
69.381480
20
106.575990
11
65.570340
21
106.575990
0
LINE
8
Layer 1
10
65.570340
20
106.575990
11
65.570340
21
104.765260
0
LINE
8
Layer 1
10
65.570340
20
104.765260
11
60.476080
21
104.765260
0
LINE
8
Layer 1
10
60.476080
20
104.765260
11
60.476080
21
103.765320
0
LINE
8
Layer 1
10
60.476080
20
103.765320
11
59.676130
21
103.765320
0
LINE
8
Layer 1
10
59.676130
20
103.765320
11
59.676130
21
100.665760
0
LINE
8
Layer 1
10
59.676130
20
100.665760
11
60.476080
21
100.665760
0
LINE
8
Layer 1
10
60.476080
20
100.665760
11
60.476080
21
94.865590
0
LINE
8
Layer 1
10
60.476080
20
94.865590
11
59.676130
21
94.865590
0
LINE
8
Layer 1
10
59.676130
20
94.865590
11
59.676130
21
91.766550
0
LINE
8
Layer 1
10
59.676130
20
91.766550
11
60.476080
21
91.766550
0
LINE
8
Layer 1
10
60.476080
20
91.766550
11
60.476080
21
90.766610
0
LINE
8
Layer 1
10
60.476080
20
90.766610
11
65.570340
21
90.766610
0
LINE
8
Layer 1
10
65.570340
20
90.766610
11
65.570340
21
88.954850
0
LINE
8
Layer 1
10
84.620340
20
88.954850
11
88.431480
21
88.954850
0
LINE
8
Layer 1
10
88.431480
20
88.954850
11
88.431480
21
90.765580
0
LINE
8
Layer 1
10
88.431480
20
90.765580
11
93.525740
21
90.765580
0
LINE
8
Layer 1
10
93.525740
20
90.765580
11
93.525740
21
91.765520
0
LINE
8
Layer 1
10
93.525740
20
91.765520
11
94.325710
21
91.765520
0
LINE
8
Layer 1
10
94.325710
20
91.765520
11
94.325710
21
94.865590
0
LINE
8
Layer 1
10
94.325710
20
94.865590
11
93.525740
21
94.865590
0
LINE
8
Layer 1
10
93.525740
20
94.865590
11
93.525740
21
100.665760
0
LINE
8
Layer 1
10
93.525740
20
100.665760
11
94.325710
21
100.665760
0
LINE
8
Layer 1
10
94.325710
20
100.665760
11
94.325710
21
103.765320
0
LINE
8
Layer 1
10
94.325710
20
103.765320
11
93.525740
21
103.765320
0
LINE
8
Layer 1
10
93.525740
20
103.765320
11
93.525740
21
104.765260
0
LINE
8
Layer 1
10
93.525740
20
104.765260
11
88.431480
21
104.765260
0
LINE
8
Layer 1
10
88.431480
20
104.765260
11
88.431480
21
106.575990
0
LINE
8
Layer 1
10
88.431480
20
106.575990
11
84.620340
21
106.575990
0
LINE
8
Layer 1
10
84.620340
20
106.575990
11
84.620340
21
104.765260
0
LINE
8
Layer 1
10
84.620340
20
104.765260
11
79.526080
21
104.765260
0
LINE
8
Layer 1
10
79.526080
20
104.765260
11
79.526080
21
103.765320
0
LINE
8
Layer 1
10
79.526080
20
103.765320
11
78.726140
21
103.765320
0
LINE
8
Layer 1
10
78.726140
20
103.765320
11
78.726140
21
100.665760
0
LINE
8
Layer 1
10
78.726140
20
100.665760
11
79.526080
21
100.665760
0
LINE
8
Layer 1
10
79.526080
20
100.665760
11
79.526080
21
94.865590
0
LINE
8
Layer 1
10
79.526080
20
94.865590
11
78.726140
21
94.865590
0
LINE
8
Layer 1
10
78.726140
20
94.865590
11
78.726140
21
91.766550
0
LINE
8
Layer 1
10
78.726140
20
91.766550
11
79.526080
21
91.766550
0
LINE
8
Layer 1
10
79.526080
20
91.766550
11
79.526080
21
90.766610
0
LINE
8
Layer 1
10
79.526080
20
90.766610
11
84.620340
21
90.766610
0
LINE
8
Layer 1
10
84.620340
20
90.766610
11
84.620340
21
88.954850
0
LINE
8
Layer 1
10
103.670340
20
88.954850
11
107.481480
21
88.954850
0
LINE
8
Layer 1
10
107.481480
20
88.954850
11
107.481480
21
90.765580
0
LINE
8
Layer 1
10
107.481480
20
90.765580
11
112.575740
21
90.765580
0
LINE
8
Layer 1
10
112.575740
20
90.765580
11
112.575740
21
91.765520
0
LINE
8
Layer 1
10
112.575740
20
91.765520
11
113.375710
21
91.765520
0
LINE
8
Layer 1
10
113.375710
20
91.765520
11
113.375710
21
94.865590
0
LINE
8
Layer 1
10
113.375710
20
94.865590
11
112.575740
21
94.865590
0
LINE
8
Layer 1
10
112.575740
20
94.865590
11
112.575740
21
100.665760
0
LINE
8
Layer 1
10
112.575740
20
100.665760
11
113.375710
21
100.665760
0
LINE
8
Layer 1
10
113.375710
20
100.665760
11
113.375710
21
103.765320
0
LINE
8
Layer 1
10
113.375710
20
103.765320
11
112.575740
21
103.765320
0
LINE
8
Layer 1
10
112.575740
20
103.765320
11
112.575740
21
104.765260
0
LINE
8
Layer 1
10
112.575740
20
104.765260
11
107.481480
21
104.765260
0
LINE
8
Layer 1
10
107.481480
20
104.765260
11
107.481480
21
106.575990
0
LINE
8
Layer 1
10
107.481480
20
106.575990
11
103.670340
21
106.575990
0
LINE
8
Layer 1
10
103.670340
20
106.575990
11
103.670340
21
104.765260
0
LINE
8
Layer 1
10
103.670340
20
104.765260
11
98.576080
21
104.765260
0
LINE
8
Layer 1
10
98.576080
20
104.765260
11
98.576080
21
103.765320
0
LINE
8
Layer 1
10
98.576080
20
103.765320
11
97.776140
21
103.765320
0
LINE
8
Layer 1
10
97.776140
20
103.765320
11
97.776140
21
100.665760
0
LINE
8
Layer 1
10
97.776140
20
100.665760
11
98.576080
21
100.665760
0
LINE
8
Layer 1
10
98.576080
20
100.665760
11
98.576080
21
94.865590
0
LINE
8
Layer 1
10
98.576080
20
94.865590
11
97.776140
21
94.865590
0
LINE
8
Layer 1
10
97.776140
20
94.865590
11
97.776140
21
91.766550
0
LINE
8
Layer 1
10
97.776140
20
91.766550
11
98.576080
21
91.766550
0
LINE
8
Layer 1
10
98.576080
20
91.766550
11
98.576080
21
90.766610
0
LINE
8
Layer 1
10
98.576080
20
90.766610
11
103.670340
21
90.766610
0
LINE
8
Layer 1
10
103.670340
20
90.766610
11
103.670340
21
88.954850
0
LINE
8
Layer 1
10
160.820340
20
93.716820
11
164.631480
21
93.716820
0
LINE
8
Layer 1
10
164.631480
20
93.716820
11
164.631480
21
95.527570
0
LINE
8
Layer 1
10
164.631480
20
95.527570
11
169.725740
21
95.527570
0
LINE
8
Layer 1
10
169.725740
20
95.527570
11
169.725740
21
96.527510
0
LINE
8
Layer 1
10
169.725740
20
96.527510
11
170.525710
21
96.527510
0
LINE
8
Layer 1
10
170.525710
20
96.527510
11
170.525710
21
99.627580
0
LINE
8
Layer 1
10
170.525710
20
99.627580
11
169.725740
21
99.627580
0
LINE
8
Layer 1
10
169.725740
20
99.627580
11
169.725740
21
105.427750
0
LINE
8
Layer 1
10
169.725740
20
105.427750
11
170.525710
21
105.427750
0
LINE
8
Layer 1
10
170.525710
20
105.427750
11
170.525710
21
108.527290
0
LINE
8
Layer 1
10
170.525710
20
108.527290
11
169.725740
21
108.527290
0
LINE
8
Layer 1
10
169.725740
20
108.527290
11
169.725740
21
109.527230
0
LINE
8
Layer 1
10
169.725740
20
109.527230
11
164.631480
21
109.527230
0
LINE
8
Layer 1
10
164.631480
20
109.527230
11
164.631480
21
111.337960
0
LINE
8
Layer 1
10
164.631480
20
111.337960
11
160.820340
21
111.337960
0
LINE
8
Layer 1
10
160.820340
20
111.337960
11
160.820340
21
109.527230
0
LINE
8
Layer 1
10
160.820340
20
109.527230
11
155.726080
21
109.527230
0
LINE
8
Layer 1
10
155.726080
20
109.527230
11
155.726080
21
108.527290
0
LINE
8
Layer 1
10
155.726080
20
108.527290
11
154.926140
21
108.527290
0
LINE
8
Layer 1
10
154.926140
20
108.527290
11
154.926140
21
105.427750
0
LINE
8
Layer 1
10
154.926140
20
105.427750
11
155.726080
21
105.427750
0
LINE
8
Layer 1
10
155.726080
20
105.427750
11
155.726080
21
99.627580
0
LINE
8
Layer 1
10
155.726080
20
99.627580
11
154.926140
21
99.627580
0
LINE
8
Layer 1
10
154.926140
20
99.627580
11
154.926140
21
96.527510
0
LINE
8
Layer 1
10
154.926140
20
96.527510
11
155.726080
21
96.527510
0
LINE
8
Layer 1
10
155.726080
20
96.527510
11
155.726080
21
95.527570
0
LINE
8
Layer 1
10
155.726080
20
95.527570
11
160.820340
21
95.527570
0
LINE
8
Layer 1
10
160.820340
20
95.527570
11
160.820340
21
93.716820
0
LINE
8
Layer 1
10
39.375900
20
108.004000
11
43.188070
21
108.004000
0
LINE
8
Layer 1
10
43.188070
20
108.004000
11
43.188070
21
109.814730
0
LINE
8
Layer 1
10
43.188070
20
109.814730
11
48.282330
21
109.814730
0
LINE
8
Layer 1
10
48.282330
20
109.814730
11
49.807300
21
109.814730
0
LINE
8
Layer 1
10
49.807300
20
109.814730
11
49.807300
21
108.395720
0
LINE
8
Layer 1
10
49.807300
20
108.395720
11
56.557280
21
108.395720
0
LINE
8
Layer 1
10
56.557280
20
108.395720
11
56.557280
21
111.285980
0
LINE
8
Layer 1
10
56.557280
20
111.285980
11
56.557280
21
114.515740
0
LINE
8
Layer 1
10
56.557280
20
114.515740
11
57.382030
21
114.515740
0
LINE
8
Layer 1
10
57.382030
20
114.515740
11
57.382030
21
117.315570
0
LINE
8
Layer 1
10
57.382030
20
117.315570
11
56.557280
21
117.315570
0
LINE
8
Layer 1
10
56.557280
20
117.315570
11
56.557280
21
118.249360
0
LINE
8
Layer 1
10
56.557280
20
118.249360
11
56.557280
21
123.584970
0
LINE
8
Layer 1
10
56.557280
20
123.584970
11
56.557280
21
127.415210
0
LINE
8
Layer 1
10
56.557280
20
127.415210
11
26.006680
21
127.415210
0
LINE
8
Layer 1
10
26.006680
20
127.415210
11
26.006680
21
123.584970
0
LINE
8
Layer 1
10
26.006680
20
123.584970
11
26.006680
21
118.249360
0
LINE
8
Layer 1
10
26.006680
20
118.249360
11
26.006680
21
117.315570
0
LINE
8
Layer 1
10
26.006680
20
117.315570
11
25.181920
21
117.315570
0
LINE
8
Layer 1
10
25.181920
20
117.315570
11
25.181920
21
114.515740
0
LINE
8
Layer 1
10
25.181920
20
114.515740
11
26.006680
21
114.515740
0
LINE
8
Layer 1
10
26.006680
20
114.515740
11
26.006680
21
111.285980
0
LINE
8
Layer 1
10
26.006680
20
111.285980
11
26.006680
21
108.395720
0
LINE
8
Layer 1
10
26.006680
20
108.395720
11
32.756650
21
108.395720
0
LINE
8
Layer 1
10
32.756650
20
108.395720
11
32.756650
21
109.814730
0
LINE
8
Layer 1
10
32.756650
20
109.814730
11
34.281630
21
109.814730
0
LINE
8
Layer 1
10
34.281630
20
109.814730
11
39.375890
21
109.814730
0
LINE
8
Layer 1
10
39.375890
20
109.814730
11
39.375900
21
108.004000
0
LINE
8
Layer 1
10
77.476400
20
108.004000
11
81.288570
21
108.004000
0
LINE
8
Layer 1
10
81.288570
20
108.004000
11
81.288570
21
109.814730
0
LINE
8
Layer 1
10
81.288570
20
109.814730
11
86.382830
21
109.814730
0
LINE
8
Layer 1
10
86.382830
20
109.814730
11
86.382830
21
110.813640
0
LINE
8
Layer 1
10
86.382830
20
110.813640
11
87.182800
21
110.813640
0
LINE
8
Layer 1
10
87.182800
20
110.813640
11
87.182800
21
113.912680
0
LINE
8
Layer 1
10
87.182800
20
113.912680
11
86.382830
21
113.912680
0
LINE
8
Layer 1
10
86.382830
20
113.912680
11
86.382830
21
119.712850
0
LINE
8
Layer 1
10
86.382830
20
119.712850
11
87.182800
21
119.712850
0
LINE
8
Layer 1
10
87.182800
20
119.712850
11
87.182800
21
122.811890
0
LINE
8
Layer 1
10
87.182800
20
122.811890
11
86.382830
21
122.811890
0
LINE
8
Layer 1
10
86.382830
20
122.811890
11
86.382830
21
123.811300
0
LINE
8
Layer 1
10
86.382830
20
123.811300
11
81.288570
21
123.811300
0
LINE
8
Layer 1
10
81.288570
20
123.811300
11
81.288570
21
125.621020
0
LINE
8
Layer 1
10
81.288570
20
125.621020
11
77.477440
21
125.621020
0
LINE
8
Layer 1
10
77.477440
20
125.621020
11
77.477440
21
123.811300
0
LINE
8
Layer 1
10
77.477440
20
123.811300
11
72.382670
21
123.811300
0
LINE
8
Layer 1
10
72.382670
20
123.811300
11
72.382670
21
122.810860
0
LINE
8
Layer 1
10
72.382670
20
122.810860
11
71.582720
21
122.810860
0
LINE
8
Layer 1
10
71.582720
20
122.810860
11
71.582720
21
119.711290
0
LINE
8
Layer 1
10
71.582720
20
119.711290
11
72.382150
21
119.711290
0
LINE
8
Layer 1
10
72.382150
20
119.711290
11
72.382150
21
113.911150
0
LINE
8
Layer 1
10
72.382150
20
113.911150
11
71.582720
21
113.911150
0
LINE
8
Layer 1
10
71.582720
20
113.911150
11
71.582720
21
110.812110
0
LINE
8
Layer 1
10
71.582720
20
110.812110
11
72.382150
21
110.812110
0
LINE
8
Layer 1
10
72.382150
20
110.812110
11
72.382150
21
109.813200
0
LINE
8
Layer 1
10
72.382150
20
109.813200
11
77.476400
21
109.813200
0
LINE
8
Layer 1
10
77.476400
20
109.813200
11
77.476400
21
108.004000
0
LINE
8
Layer 1
10
98.908200
20
108.004000
11
102.719340
21
108.004000
0
LINE
8
Layer 1
10
102.719340
20
108.004000
11
102.719340
21
109.814730
0
LINE
8
Layer 1
10
102.719340
20
109.814730
11
107.813600
21
109.814730
0
LINE
8
Layer 1
10
107.813600
20
109.814730
11
107.813600
21
110.813640
0
LINE
8
Layer 1
10
107.813600
20
110.813640
11
108.613540
21
110.813640
0
LINE
8
Layer 1
10
108.613540
20
110.813640
11
108.613540
21
113.912680
0
LINE
8
Layer 1
10
108.613540
20
113.912680
11
107.813600
21
113.912680
0
LINE
8
Layer 1
10
107.813600
20
113.912680
11
107.813600
21
119.712850
0
LINE
8
Layer 1
10
107.813600
20
119.712850
11
108.613540
21
119.712850
0
LINE
8
Layer 1
10
108.613540
20
119.712850
11
108.613540
21
122.811890
0
LINE
8
Layer 1
10
108.613540
20
122.811890
11
107.813600
21
122.811890
0
LINE
8
Layer 1
10
107.813600
20
122.811890
11
107.813600
21
123.812330
0
LINE
8
Layer 1
10
107.813600
20
123.812330
11
102.719340
21
123.812330
0
LINE
8
Layer 1
10
102.719340
20
123.812330
11
102.719340
21
125.622050
0
LINE
8
Layer 1
10
102.719340
20
125.622050
11
98.908200
21
125.622050
0
LINE
8
Layer 1
10
98.908200
20
125.622050
11
98.908200
21
123.812330
0
LINE
8
Layer 1
10
98.908200
20
123.812330
11
93.813940
21
123.812330
0
LINE
8
Layer 1
10
93.813940
20
123.812330
11
93.813940
21
122.811890
0
LINE
8
Layer 1
10
93.813940
20
122.811890
11
93.013970
21
122.811890
0
LINE
8
Layer 1
10
93.013970
20
122.811890
11
93.013970
21
119.711820
0
LINE
8
Layer 1
10
93.013970
20
119.711820
11
93.813940
21
119.711820
0
LINE
8
Layer 1
10
93.813940
20
119.711820
11
93.813940
21
113.911650
0
LINE
8
Layer 1
10
93.813940
20
113.911650
11
93.013970
21
113.911650
0
LINE
8
Layer 1
10
93.013970
20
113.911650
11
93.013970
21
110.811580
0
LINE
8
Layer 1
10
93.013970
20
110.811580
11
93.813940
21
110.811580
0
LINE
8
Layer 1
10
93.813940
20
110.811580
11
93.813940
21
109.811640
0
LINE
8
Layer 1
10
93.813940
20
109.811640
11
98.908200
21
109.811640
0
LINE
8
Layer 1
10
98.908200
20
109.811640
11
98.908200
21
108.004000
0
LINE
8
Layer 1
10
117.958200
20
108.004000
11
121.769340
21
108.004000
0
LINE
8
Layer 1
10
121.769340
20
108.004000
11
121.769340
21
109.814730
0
LINE
8
Layer 1
10
121.769340
20
109.814730
11
126.863600
21
109.814730
0
LINE
8
Layer 1
10
126.863600
20
109.814730
11
126.863600
21
110.814670
0
LINE
8
Layer 1
10
126.863600
20
110.814670
11
127.663540
21
110.814670
0
LINE
8
Layer 1
10
127.663540
20
110.814670
11
127.663540
21
113.914740
0
LINE
8
Layer 1
10
127.663540
20
113.914740
11
126.863600
21
113.914740
0
LINE
8
Layer 1
10
126.863600
20
113.914740
11
126.863600
21
119.714910
0
LINE
8
Layer 1
10
126.863600
20
119.714910
11
127.663540
21
119.714910
0
LINE
8
Layer 1
10
127.663540
20
119.714910
11
127.663540
21
122.814450
0
LINE
8
Layer 1
10
127.663540
20
122.814450
11
126.863600
21
122.814450
0
LINE
8
Layer 1
10
126.863600
20
122.814450
11
126.863600
21
123.814390
0
LINE
8
Layer 1
10
126.863600
20
123.814390
11
121.769340
21
123.814390
0
LINE
8
Layer 1
10
121.769340
20
123.814390
11
121.769340
21
125.625150
0
LINE
8
Layer 1
10
121.769340
20
125.625150
11
117.958200
21
125.625150
0
LINE
8
Layer 1
10
117.958200
20
125.625150
11
117.958200
21
123.814390
0
LINE
8
Layer 1
10
117.958200
20
123.814390
11
112.863940
21
123.814390
0
LINE
8
Layer 1
10
112.863940
20
123.814390
11
112.863940
21
122.814450
0
LINE
8
Layer 1
10
112.863940
20
122.814450
11
112.063970
21
122.814450
0
LINE
8
Layer 1
10
112.063970
20
122.814450
11
112.063970
21
119.714910
0
LINE
8
Layer 1
10
112.063970
20
119.714910
11
112.863940
21
119.714910
0
LINE
8
Layer 1
10
112.863940
20
119.714910
11
112.863940
21
113.914740
0
LINE
8
Layer 1
10
112.863940
20
113.914740
11
112.063970
21
113.914740
0
LINE
8
Layer 1
10
112.063970
20
113.914740
11
112.063970
21
110.815710
0
LINE
8
Layer 1
10
112.063970
20
110.815710
11
112.863940
21
110.815710
0
LINE
8
Layer 1
10
112.863940
20
110.815710
11
112.863940
21
109.815770
0
LINE
8
Layer 1
10
112.863940
20
109.815770
11
117.958200
21
109.815770
0
LINE
8
Layer 1
10
117.958200
20
109.815770
11
117.958200
21
108.004000
0
LINE
8
Layer 1
10
141.770200
20
112.765980
11
145.581340
21
112.765980
0
LINE
8
Layer 1
10
145.581340
20
112.765980
11
145.581340
21
114.576730
0
LINE
8
Layer 1
10
145.581340
20
114.576730
11
150.675600
21
114.576730
0
LINE
8
Layer 1
10
150.675600
20
114.576730
11
150.675600
21
115.576670
0
LINE
8
Layer 1
10
150.675600
20
115.576670
11
151.475570
21
115.576670
0
LINE
8
Layer 1
10
151.475570
20
115.576670
11
151.475570
21
118.676740
0
LINE
8
Layer 1
10
151.475570
20
118.676740
11
150.675600
21
118.676740
0
LINE
8
Layer 1
10
150.675600
20
118.676740
11
150.675600
21
124.476910
0
LINE
8
Layer 1
10
150.675600
20
124.476910
11
151.475570
21
124.476910
0
LINE
8
Layer 1
10
151.475570
20
124.476910
11
151.475570
21
127.576450
0
LINE
8
Layer 1
10
151.475570
20
127.576450
11
150.675600
21
127.576450
0
LINE
8
Layer 1
10
150.675600
20
127.576450
11
150.675600
21
128.576390
0
LINE
8
Layer 1
10
150.675600
20
128.576390
11
145.581340
21
128.576390
0
LINE
8
Layer 1
10
145.581340
20
128.576390
11
145.581340
21
130.387120
0
LINE
8
Layer 1
10
145.581340
20
130.387120
11
141.770200
21
130.387120
0
LINE
8
Layer 1
10
141.770200
20
130.387120
11
141.770200
21
128.576390
0
LINE
8
Layer 1
10
141.770200
20
128.576390
11
136.675940
21
128.576390
0
LINE
8
Layer 1
10
136.675940
20
128.576390
11
136.675940
21
127.576450
0
LINE
8
Layer 1
10
136.675940
20
127.576450
11
135.876000
21
127.576450
0
LINE
8
Layer 1
10
135.876000
20
127.576450
11
135.876000
21
124.476910
0
LINE
8
Layer 1
10
135.876000
20
124.476910
11
136.675940
21
124.476910
0
LINE
8
Layer 1
10
136.675940
20
124.476910
11
136.675940
21
118.676740
0
LINE
8
Layer 1
10
136.675940
20
118.676740
11
135.876000
21
118.676740
0
LINE
8
Layer 1
10
135.876000
20
118.676740
11
135.876000
21
115.576670
0
LINE
8
Layer 1
10
135.876000
20
115.576670
11
136.675940
21
115.576670
0
LINE
8
Layer 1
10
136.675940
20
115.576670
11
136.675940
21
114.576730
0
LINE
8
Layer 1
10
136.675940
20
114.576730
11
141.770200
21
114.576730
0
LINE
8
Layer 1
10
141.770200
20
114.576730
11
141.770200
21
112.765980
0
LINE
8
Layer 1
10
160.820200
20
112.765980
11
164.631340
21
112.765980
0
LINE
8
Layer 1
10
164.631340
20
112.765980
11
164.631340
21
114.576730
0
LINE
8
Layer 1
10
164.631340
20
114.576730
11
169.725600
21
114.576730
0
LINE
8
Layer 1
10
169.725600
20
114.576730
11
169.725600
21
115.576670
0
LINE
8
Layer 1
10
169.725600
20
115.576670
11
170.525570
21
115.576670
0
LINE
8
Layer 1
10
170.525570
20
115.576670
11
170.525570
21
118.676740
0
LINE
8
Layer 1
10
170.525570
20
118.676740
11
169.725600
21
118.676740
0
LINE
8
Layer 1
10
169.725600
20
118.676740
11
169.725600
21
124.476910
0
LINE
8
Layer 1
10
169.725600
20
124.476910
11
170.525570
21
124.476910
0
LINE
8
Layer 1
10
170.525570
20
124.476910
11
170.525570
21
127.576450
0
LINE
8
Layer 1
10
170.525570
20
127.576450
11
169.725600
21
127.576450
0
LINE
8
Layer 1
10
169.725600
20
127.576450
11
169.725600
21
128.576390
0
LINE
8
Layer 1
10
169.725600
20
128.576390
11
164.631340
21
128.576390
0
LINE
8
Layer 1
10
164.631340
20
128.576390
11
164.631340
21
130.387120
0
LINE
8
Layer 1
10
164.631340
20
130.387120
11
160.820200
21
130.387120
0
LINE
8
Layer 1
10
160.820200
20
130.387120
11
160.820200
21
128.576390
0
LINE
8
Layer 1
10
160.820200
20
128.576390
11
155.725940
21
128.576390
0
LINE
8
Layer 1
10
155.725940
20
128.576390
11
155.725940
21
127.576450
0
LINE
8
Layer 1
10
155.725940
20
127.576450
11
154.926000
21
127.576450
0
LINE
8
Layer 1
10
154.926000
20
127.576450
11
154.926000
21
124.476910
0
LINE
8
Layer 1
10
154.926000
20
124.476910
11
155.725940
21
124.476910
0
LINE
8
Layer 1
10
155.725940
20
124.476910
11
155.725940
21
118.676740
0
LINE
8
Layer 1
10
155.725940
20
118.676740
11
154.926000
21
118.676740
0
LINE
8
Layer 1
10
154.926000
20
118.676740
11
154.926000
21
115.576670
0
LINE
8
Layer 1
10
154.926000
20
115.576670
11
155.725940
21
115.576670
0
LINE
8
Layer 1
10
155.725940
20
115.576670
11
155.725940
21
114.576730
0
LINE
8
Layer 1
10
155.725940
20
114.576730
11
160.820200
21
114.576730
0
LINE
8
Layer 1
10
160.820200
20
114.576730
11
160.820200
21
112.765980
0
LINE
8
Layer 1
10
179.870200
20
112.765980
11
183.681340
21
112.765980
0
LINE
8
Layer 1
10
183.681340
20
112.765980
11
183.681340
21
114.576730
0
LINE
8
Layer 1
10
183.681340
20
114.576730
11
188.775600
21
114.576730
0
LINE
8
Layer 1
10
188.775600
20
114.576730
11
188.775600
21
115.576670
0
LINE
8
Layer 1
10
188.775600
20
115.576670
11
189.575570
21
115.576670
0
LINE
8
Layer 1
10
189.575570
20
115.576670
11
189.575570
21
118.676740
0
LINE
8
Layer 1
10
189.575570
20
118.676740
11
188.775600
21
118.676740
0
LINE
8
Layer 1
10
188.775600
20
118.676740
11
188.775600
21
124.476910
0
LINE
8
Layer 1
10
188.775600
20
124.476910
11
189.575570
21
124.476910
0
LINE
8
Layer 1
10
189.575570
20
124.476910
11
189.575570
21
127.576450
0
LINE
8
Layer 1
10
189.575570
20
127.576450
11
188.775600
21
127.576450
0
LINE
8
Layer 1
10
188.775600
20
127.576450
11
188.775600
21
128.576390
0
LINE
8
Layer 1
10
188.775600
20
128.576390
11
183.681340
21
128.576390
0
LINE
8
Layer 1
10
183.681340
20
128.576390
11
183.681340
21
130.387120
0
LINE
8
Layer 1
10
183.681340
20
130.387120
11
179.870200
21
130.387120
0
LINE
8
Layer 1
10
179.870200
20
130.387120
11
179.870200
21
128.576390
0
LINE
8
Layer 1
10
179.870200
20
128.576390
11
174.775940
21
128.576390
0
LINE
8
Layer 1
10
174.775940
20
128.576390
11
174.775940
21
127.576450
0
LINE
8
Layer 1
10
174.775940
20
127.576450
11
173.976000
21
127.576450
0
LINE
8
Layer 1
10
173.976000
20
127.576450
11
173.976000
21
124.476910
0
LINE
8
Layer 1
10
173.976000
20
124.476910
11
174.775940
21
124.476910
0
LINE
8
Layer 1
10
174.775940
20
124.476910
11
174.775940
21
118.676740
0
LINE
8
Layer 1
10
174.775940
20
118.676740
11
173.976000
21
118.676740
0
LINE
8
Layer 1
10
173.976000
20
118.676740
11
173.976000
21
115.576670
0
LINE
8
Layer 1
10
173.976000
20
115.576670
11
174.775940
21
115.576670
0
LINE
8
Layer 1
10
174.775940
20
115.576670
11
174.775940
21
114.576730
0
LINE
8
Layer 1
10
174.775940
20
114.576730
11
179.870200
21
114.576730
0
LINE
8
Layer 1
10
179.870200
20
114.576730
11
179.870200
21
112.765980
0
LINE
8
Layer 1
10
19.072300
20
134.103000
11
19.085700
21
134.103000
0
LINE
8
Layer 1
10
19.085700
20
134.103000
11
19.474911
21
134.181596
0
LINE
8
Layer 1
10
19.474911
20
134.181596
11
19.792747
21
134.395893
0
LINE
8
Layer 1
10
19.792747
20
134.395893
11
20.007044
21
134.713729
0
LINE
8
Layer 1
10
20.007044
20
134.713729
11
20.085640
21
135.102940
0
LINE
8
Layer 1
10
20.085640
20
135.102940
11
20.007044
21
135.492151
0
LINE
8
Layer 1
10
20.007044
20
135.492151
11
19.792747
21
135.809987
0
LINE
8
Layer 1
10
19.792747
20
135.809987
11
19.474911
21
136.024284
0
LINE
8
Layer 1
10
19.474911
20
136.024284
11
19.085700
21
136.102880
0
LINE
8
Layer 1
10
19.085700
20
136.102880
11
18.696489
21
136.024284
0
LINE
8
Layer 1
10
18.696489
20
136.024284
11
18.378653
21
135.809987
0
LINE
8
Layer 1
10
18.378653
20
135.809987
11
18.164356
21
135.492151
0
LINE
8
Layer 1
10
18.164356
20
135.492151
11
18.085760
21
135.102940
0
LINE
8
Layer 1
10
18.085760
20
135.102940
11
18.162974
21
134.716959
0
LINE
8
Layer 1
10
18.162974
20
134.716959
11
18.373885
21
134.400602
0
LINE
8
Layer 1
10
18.373885
20
134.400602
11
18.687359
21
134.185430
0
LINE
8
Layer 1
10
18.687359
20
134.185430
11
19.072260
21
134.103000
0
LINE
8
Layer 1
10
19.072260
20
134.103000
11
19.072300
21
134.103000
0
LINE
8
Layer 1
10
107.131000
20
134.103000
11
107.145000
21
134.103000
0
LINE
8
Layer 1
10
107.145000
20
134.103000
11
107.534211
21
134.181596
0
LINE
8
Layer 1
10
107.534211
20
134.181596
11
107.852047
21
134.395893
0
LINE
8
Layer 1
10
107.852047
20
134.395893
11
108.066344
21
134.713729
0
LINE
8
Layer 1
10
108.066344
20
134.713729
11
108.144940
21
135.102940
0
LINE
8
Layer 1
10
108.144940
20
135.102940
11
108.066344
21
135.492151
0
LINE
8
Layer 1
10
108.066344
20
135.492151
11
107.852047
21
135.809987
0
LINE
8
Layer 1
10
107.852047
20
135.809987
11
107.534211
21
136.024284
0
LINE
8
Layer 1
10
107.534211
20
136.024284
11
107.145000
21
136.102880
0
LINE
8
Layer 1
10
107.145000
20
136.102880
11
106.755798
21
136.024275
0
LINE
8
Layer 1
10
106.755798
20
136.024275
11
106.437973
21
135.809976
0
LINE
8
Layer 1
10
106.437973
20
135.809976
11
106.223683
21
135.492144
0
LINE
8
Layer 1
10
106.223683
20
135.492144
11
106.145090
21
135.102940
0
LINE
8
Layer 1
10
106.145090
20
135.102940
11
106.222249
21
134.717085
0
LINE
8
Layer 1
10
106.222249
20
134.717085
11
106.433027
21
134.400786
0
LINE
8
Layer 1
10
106.433027
20
134.400786
11
106.746329
21
134.185580
0
LINE
8
Layer 1
10
106.746329
20
134.185580
11
107.131060
21
134.103000
0
LINE
8
Layer 1
10
107.131060
20
134.103000
11
107.131000
21
134.103000
0
LINE
8
Layer 1
10
195.191300
20
134.103000
11
195.204800
21
134.103000
0
LINE
8
Layer 1
10
195.204800
20
134.103000
11
195.594011
21
134.181596
0
LINE
8
Layer 1
10
195.594011
20
134.181596
11
195.911847
21
134.395893
0
LINE
8
Layer 1
10
195.911847
20
134.395893
11
196.126144
21
134.713729
0
LINE
8
Layer 1
10
196.126144
20
134.713729
11
196.204740
21
135.102940
0
LINE
8
Layer 1
10
196.204740
20
135.102940
11
196.126144
21
135.492151
0
LINE
8
Layer 1
10
196.126144
20
135.492151
11
195.911847
21
135.809987
0
LINE
8
Layer 1
10
195.911847
20
135.809987
11
195.594011
21
136.024284
0
LINE
8
Layer 1
10
195.594011
20
136.024284
11
195.204800
21
136.102880
0
LINE
8
Layer 1
10
195.204800
20
136.102880
11
194.815589
21
136.024284
0
LINE
8
Layer 1
10
194.815589
20
136.024284
11
194.497753
21
135.809987
0
LINE
8
Layer 1
10
194.497753
20
135.809987
11
194.283456
21
135.492151
0
LINE
8
Layer 1
10
194.283456
20
135.492151
11
194.204860
21
135.102940
0
LINE
8
Layer 1
10
194.204860
20
135.102940
11
194.282074
21
134.716959
0
LINE
8
Layer 1
10
194.282074
20
134.716959
11
194.492985
21
134.400602
0
LINE
8
Layer 1
10
194.492985
20
134.400602
11
194.806459
21
134.185430
0
LINE
8
Layer 1
10
194.806459
20
134.185430
11
195.191360
21
134.103000
0
LINE
8
Layer 1
10
195.191360
20
134.103000
11
195.191300
21
134.103000
0
LINE
8
Layer 1
10
16.901400
20
148.727000
11
16.221015
21
148.865162
0
LINE
8
Layer 1
10
16.221015
20
148.865162
11
15.665531
21
149.240294
0
LINE
8
Layer 1
10
15.665531
20
149.240294
11
15.291056
21
149.796222
0
LINE
8
Layer 1
10
15.291056
20
149.796222
11
15.153700
21
150.476770
0
LINE
8
Layer 1
10
15.153700
20
150.476770
11
15.153700
21
156.726020
0
LINE
8
Layer 1
10
15.153700
20
156.726020
11
15.153700
21
162.773700
0
LINE
8
Layer 1
10
15.153700
20
162.773700
11
15.153700
21
175.777000
0
LINE
8
Layer 1
10
15.153700
20
175.777000
11
9.135460
21
175.777000
0
LINE
8
Layer 1
10
9.135460
20
175.777000
11
7.376400
21
175.777000
0
LINE
8
Layer 1
10
7.376400
20
175.777000
11
6.696022
21
175.915159
0
LINE
8
Layer 1
10
6.696022
20
175.915159
11
6.140542
21
176.290284
0
LINE
8
Layer 1
10
6.140542
20
176.290284
11
5.766065
21
176.846202
0
LINE
8
Layer 1
10
5.766065
20
176.846202
11
5.628700
21
177.526740
0
LINE
8
Layer 1
10
5.628700
20
177.526740
11
5.628700
21
193.081340
0
LINE
8
Layer 1
10
5.628700
20
193.081340
11
5.766862
21
193.761725
0
LINE
8
Layer 1
10
5.766862
20
193.761725
11
6.141994
21
194.317209
0
LINE
8
Layer 1
10
6.141994
20
194.317209
11
6.697922
21
194.691684
0
LINE
8
Layer 1
10
6.697922
20
194.691684
11
7.378470
21
194.829040
0
LINE
8
Layer 1
10
7.378470
20
194.829040
11
10.391720
21
194.829040
0
LINE
8
Layer 1
10
10.391720
20
194.829040
11
10.391720
21
212.131340
0
LINE
8
Layer 1
10
10.391720
20
212.131340
11
10.529881
21
212.811723
0
LINE
8
Layer 1
10
10.529881
20
212.811723
11
10.905011
21
213.367206
0
LINE
8
Layer 1
10
10.905011
20
213.367206
11
11.460935
21
213.741681
0
LINE
8
Layer 1
10
11.460935
20
213.741681
11
12.141480
21
213.879040
0
LINE
8
Layer 1
10
12.141480
20
213.879040
11
19.916720
21
213.879040
0
LINE
8
Layer 1
10
19.916720
20
213.879040
11
19.916720
21
232.926940
0
LINE
8
Layer 1
10
19.916720
20
232.926940
11
16.901400
21
232.926940
0
LINE
8
Layer 1
10
16.901400
20
232.926940
11
16.221022
21
233.065099
0
LINE
8
Layer 1
10
16.221022
20
233.065099
11
15.665542
21
233.440224
0
LINE
8
Layer 1
10
15.665542
20
233.440224
11
15.291065
21
233.996142
0
LINE
8
Layer 1
10
15.291065
20
233.996142
11
15.153700
21
234.676680
0
LINE
8
Layer 1
10
15.153700
20
234.676680
11
15.153700
21
247.177180
0
LINE
8
Layer 1
10
15.153700
20
247.177180
11
15.153700
21
251.977940
0
LINE
8
Layer 1
10
15.153700
20
251.977940
11
15.153700
21
262.992740
0
LINE
8
Layer 1
10
15.153700
20
262.992740
11
15.291859
21
263.673128
0
LINE
8
Layer 1
10
15.291859
20
263.673128
11
15.666991
21
264.228616
0
LINE
8
Layer 1
10
15.666991
20
264.228616
11
16.222920
21
264.603093
0
LINE
8
Layer 1
10
16.222920
20
264.603093
11
16.903470
21
264.740450
0
LINE
8
Layer 1
10
16.903470
20
264.740450
11
195.870000
21
264.740450
0
LINE
8
Layer 1
10
195.870000
20
264.740450
11
196.144940
21
264.729050
0
LINE
8
Layer 1
10
196.144940
20
264.729050
11
196.417800
21
264.697550
0
LINE
8
Layer 1
10
196.417800
20
264.697550
11
196.687000
21
264.642750
0
LINE
8
Layer 1
10
196.687000
20
264.642750
11
196.951590
21
264.568850
0
LINE
8
Layer 1
10
196.951590
20
264.568850
11
197.208960
21
264.473750
0
LINE
8
Layer 1
10
197.208960
20
264.473750
11
197.458540
21
264.359030
0
LINE
8
Layer 1
10
197.458540
20
264.359030
11
197.698830
21
264.224150
0
LINE
8
Layer 1
10
197.698830
20
264.224150
11
197.926750
21
264.072220
0
LINE
8
Layer 1
10
197.926750
20
264.072220
11
198.142750
21
263.901170
0
LINE
8
Layer 1
10
198.142750
20
263.901170
11
198.344810
21
263.715140
0
LINE
8
Layer 1
10
198.344810
20
263.715140
11
198.530830
21
263.513080
0
LINE
8
Layer 1
10
198.530830
20
263.513080
11
198.701900
21
263.297070
0
LINE
8
Layer 1
10
198.701900
20
263.297070
11
198.853810
21
263.069190
0
LINE
8
Layer 1
10
198.853810
20
263.069190
11
198.988680
21
262.828890
0
LINE
8
Layer 1
10
198.988680
20
262.828890
11
199.103930
21
262.578780
0
LINE
8
Layer 1
10
199.103930
20
262.578780
11
199.199030
21
262.321950
0
LINE
8
Layer 1
10
199.199030
20
262.321950
11
199.272930
21
262.056840
0
LINE
8
Layer 1
10
199.272930
20
262.056840
11
199.326630
21
261.788130
0
LINE
8
Layer 1
10
199.326630
20
261.788130
11
199.358630
21
261.514760
0
LINE
8
Layer 1
10
199.358630
20
261.514760
11
199.370030
21
261.239830
0
LINE
8
Layer 1
10
199.370030
20
261.239830
11
199.370030
21
152.227000
0
LINE
8
Layer 1
10
199.370030
20
152.227000
11
199.358630
21
151.952070
0
LINE
8
Layer 1
10
199.358630
20
151.952070
11
199.326630
21
151.679230
0
LINE
8
Layer 1
10
199.326630
20
151.679230
11
199.272930
21
151.408960
0
LINE
8
Layer 1
10
199.272930
20
151.408960
11
199.199030
21
151.144910
0
LINE
8
Layer 1
10
199.199030
20
151.144910
11
199.103930
21
150.887040
0
LINE
8
Layer 1
10
199.103930
20
150.887040
11
198.988680
21
150.637940
0
LINE
8
Layer 1
10
198.988680
20
150.637940
11
198.853810
21
150.398170
0
LINE
8
Layer 1
10
198.853810
20
150.398170
11
198.701900
21
150.169260
0
LINE
8
Layer 1
10
198.701900
20
150.169260
11
198.530830
21
149.953250
0
LINE
8
Layer 1
10
198.530830
20
149.953250
11
198.344810
21
149.752220
0
LINE
8
Layer 1
10
198.344810
20
149.752220
11
198.142750
21
149.565160
0
LINE
8
Layer 1
10
198.142750
20
149.565160
11
197.926750
21
149.395140
0
LINE
8
Layer 1
10
197.926750
20
149.395140
11
197.698830
21
149.242180
0
LINE
8
Layer 1
10
197.698830
20
149.242180
11
197.458540
21
149.108330
0
LINE
8
Layer 1
10
197.458540
20
149.108330
11
197.208960
21
148.993080
0
LINE
8
Layer 1
10
197.208960
20
148.993080
11
196.951590
21
148.897980
0
LINE
8
Layer 1
10
196.951590
20
148.897980
11
196.687000
21
148.823080
0
LINE
8
Layer 1
10
196.687000
20
148.823080
11
196.417800
21
148.770380
0
LINE
8
Layer 1
10
196.417800
20
148.770380
11
196.144940
21
148.737280
0
LINE
8
Layer 1
10
196.144940
20
148.737280
11
195.870000
21
148.726480
0
LINE
8
Layer 1
10
195.870000
20
148.726480
11
16.901400
21
148.727000
0
LINE
8
Layer 1
10
19.140020
20
151.726320
11
19.153420
21
151.726320
0
LINE
8
Layer 1
10
19.153420
20
151.726320
11
19.542631
21
151.804916
0
LINE
8
Layer 1
10
19.542631
20
151.804916
11
19.860467
21
152.019213
0
LINE
8
Layer 1
10
19.860467
20
152.019213
11
20.074764
21
152.337049
0
LINE
8
Layer 1
10
20.074764
20
152.337049
11
20.153360
21
152.726260
0
LINE
8
Layer 1
10
20.153360
20
152.726260
11
20.077372
21
153.109065
0
LINE
8
Layer 1
10
20.077372
20
153.109065
11
19.860644
21
153.433630
0
LINE
8
Layer 1
10
19.860644
20
153.433630
11
19.536187
21
153.650520
0
LINE
8
Layer 1
10
19.536187
20
153.650520
11
19.153420
21
153.726700
0
LINE
8
Layer 1
10
19.153420
20
153.726700
11
18.770653
21
153.650520
0
LINE
8
Layer 1
10
18.770653
20
153.650520
11
18.446196
21
153.433630
0
LINE
8
Layer 1
10
18.446196
20
153.433630
11
18.229468
21
153.109065
0
LINE
8
Layer 1
10
18.229468
20
153.109065
11
18.153480
21
152.726260
0
LINE
8
Layer 1
10
18.153480
20
152.726260
11
18.230694
21
152.340279
0
LINE
8
Layer 1
10
18.230694
20
152.340279
11
18.441605
21
152.023922
0
LINE
8
Layer 1
10
18.441605
20
152.023922
11
18.755079
21
151.808750
0
LINE
8
Layer 1
10
18.755079
20
151.808750
11
19.139980
21
151.726320
0
LINE
8
Layer 1
10
19.139980
20
151.726320
11
19.140020
21
151.726320
0
LINE
8
Layer 1
10
43.139120
20
151.726320
11
43.152520
21
151.726320
0
LINE
8
Layer 1
10
43.152520
20
151.726320
11
43.541731
21
151.804916
0
LINE
8
Layer 1
10
43.541731
20
151.804916
11
43.859567
21
152.019213
0
LINE
8
Layer 1
10
43.859567
20
152.019213
11
44.073864
21
152.337049
0
LINE
8
Layer 1
10
44.073864
20
152.337049
11
44.152460
21
152.726260
0
LINE
8
Layer 1
10
44.152460
20
152.726260
11
44.076472
21
153.109065
0
LINE
8
Layer 1
10
44.076472
20
153.109065
11
43.859744
21
153.433630
0
LINE
8
Layer 1
10
43.859744
20
153.433630
11
43.535287
21
153.650520
0
LINE
8
Layer 1
10
43.535287
20
153.650520
11
43.152520
21
153.726700
0
LINE
8
Layer 1
10
43.152520
20
153.726700
11
42.769753
21
153.650520
0
LINE
8
Layer 1
10
42.769753
20
153.650520
11
42.445296
21
153.433630
0
LINE
8
Layer 1
10
42.445296
20
153.433630
11
42.228568
21
153.109065
0
LINE
8
Layer 1
10
42.228568
20
153.109065
11
42.152580
21
152.726260
0
LINE
8
Layer 1
10
42.152580
20
152.726260
11
42.229795
21
152.340276
0
LINE
8
Layer 1
10
42.229795
20
152.340276
11
42.440709
21
152.023919
0
LINE
8
Layer 1
10
42.440709
20
152.023919
11
42.754186
21
151.808747
0
LINE
8
Layer 1
10
42.754186
20
151.808747
11
43.139090
21
151.726320
0
LINE
8
Layer 1
10
43.139090
20
151.726320
11
43.139120
21
151.726320
0
LINE
8
Layer 1
10
123.338920
20
151.726320
11
123.352920
21
151.726320
0
LINE
8
Layer 1
10
123.352920
20
151.726320
11
123.742131
21
151.804916
0
LINE
8
Layer 1
10
123.742131
20
151.804916
11
124.059967
21
152.019213
0
LINE
8
Layer 1
10
124.059967
20
152.019213
11
124.274264
21
152.337049
0
LINE
8
Layer 1
10
124.274264
20
152.337049
11
124.352860
21
152.726260
0
LINE
8
Layer 1
10
124.352860
20
152.726260
11
124.276872
21
153.109065
0
LINE
8
Layer 1
10
124.276872
20
153.109065
11
124.060144
21
153.433630
0
LINE
8
Layer 1
10
124.060144
20
153.433630
11
123.735687
21
153.650520
0
LINE
8
Layer 1
10
123.735687
20
153.650520
11
123.352920
21
153.726700
0
LINE
8
Layer 1
10
123.352920
20
153.726700
11
122.970153
21
153.650520
0
LINE
8
Layer 1
10
122.970153
20
153.650520
11
122.645696
21
153.433630
0
LINE
8
Layer 1
10
122.645696
20
153.433630
11
122.428968
21
153.109065
0
LINE
8
Layer 1
10
122.428968
20
153.109065
11
122.352980
21
152.726260
0
LINE
8
Layer 1
10
122.352980
20
152.726260
11
122.430139
21
152.340405
0
LINE
8
Layer 1
10
122.430139
20
152.340405
11
122.640917
21
152.024106
0
LINE
8
Layer 1
10
122.640917
20
152.024106
11
122.954219
21
151.808900
0
LINE
8
Layer 1
10
122.954219
20
151.808900
11
123.338950
21
151.726320
0
LINE
8
Layer 1
10
123.338950
20
151.726320
11
123.338920
21
151.726320
0
LINE
8
Layer 1
10
145.356220
20
151.726320
11
145.369720
21
151.726320
0
LINE
8
Layer 1
10
145.369720
20
151.726320
11
145.752525
21
151.802308
0
LINE
8
Layer 1
10
145.752525
20
151.802308
11
146.077090
21
152.019036
0
LINE
8
Layer 1
10
146.077090
20
152.019036
11
146.293980
21
152.343493
0
LINE
8
Layer 1
10
146.293980
20
152.343493
11
146.370160
21
152.726260
0
LINE
8
Layer 1
10
146.370160
20
152.726260
11
146.293980
21
153.109027
0
LINE
8
Layer 1
10
146.293980
20
153.109027
11
146.077090
21
153.433484
0
LINE
8
Layer 1
10
146.077090
20
153.433484
11
145.752525
21
153.650212
0
LINE
8
Layer 1
10
145.752525
20
153.650212
11
145.369720
21
153.726200
0
LINE
8
Layer 1
10
145.369720
20
153.726200
11
144.980509
21
153.647604
0
LINE
8
Layer 1
10
144.980509
20
153.647604
11
144.662673
21
153.433307
0
LINE
8
Layer 1
10
144.662673
20
153.433307
11
144.448376
21
153.115471
0
LINE
8
Layer 1
10
144.448376
20
153.115471
11
144.369780
21
152.726260
0
LINE
8
Layer 1
10
144.369780
20
152.726260
11
144.446994
21
152.340279
0
LINE
8
Layer 1
10
144.446994
20
152.340279
11
144.657905
21
152.023922
0
LINE
8
Layer 1
10
144.657905
20
152.023922
11
144.971379
21
151.808750
0
LINE
8
Layer 1
10
144.971379
20
151.808750
11
145.356280
21
151.726320
0
LINE
8
Layer 1
10
145.356280
20
151.726320
11
145.356220
21
151.726320
0
LINE
8
Layer 1
10
195.259120
20
151.726320
11
195.272620
21
151.726320
0
LINE
8
Layer 1
10
195.272620
20
151.726320
11
195.655437
21
151.802297
0
LINE
8
Layer 1
10
195.655437
20
151.802297
11
195.980016
21
152.019022
0
LINE
8
Layer 1
10
195.980016
20
152.019022
11
196.196916
21
152.343484
0
LINE
8
Layer 1
10
196.196916
20
152.343484
11
196.273100
21
152.726260
0
LINE
8
Layer 1
10
196.273100
20
152.726260
11
196.197060
21
153.109189
0
LINE
8
Layer 1
10
196.197060
20
153.109189
11
195.980193
21
153.433821
0
LINE
8
Layer 1
10
195.980193
20
153.433821
11
195.655553
21
153.650675
0
LINE
8
Layer 1
10
195.655553
20
153.650675
11
195.272620
21
153.726700
0
LINE
8
Layer 1
10
195.272620
20
153.726700
11
194.889853
21
153.650520
0
LINE
8
Layer 1
10
194.889853
20
153.650520
11
194.565396
21
153.433630
0
LINE
8
Layer 1
10
194.565396
20
153.433630
11
194.348668
21
153.109065
0
LINE
8
Layer 1
10
194.348668
20
153.109065
11
194.272680
21
152.726260
0
LINE
8
Layer 1
10
194.272680
20
152.726260
11
194.349894
21
152.340279
0
LINE
8
Layer 1
10
194.349894
20
152.340279
11
194.560805
21
152.023922
0
LINE
8
Layer 1
10
194.560805
20
152.023922
11
194.874279
21
151.808750
0
LINE
8
Layer 1
10
194.874279
20
151.808750
11
195.259180
21
151.726320
0
LINE
8
Layer 1
10
195.259180
20
151.726320
11
195.259120
21
151.726320
0
LINE
8
Layer 1
10
131.981820
20
159.250400
11
145.982020
21
159.250400
0
LINE
8
Layer 1
10
145.982020
20
159.250400
11
145.982020
21
173.250100
0
LINE
8
Layer 1
10
145.982020
20
173.250100
11
131.981820
21
173.250100
0
LINE
8
Layer 1
10
131.981820
20
173.250100
11
131.981820
21
159.250400
0
LINE
8
Layer 1
10
17.681820
20
159.250400
11
31.681520
21
159.250400
0
LINE
8
Layer 1
10
31.681520
20
159.250400
11
31.681520
21
173.251600
0
LINE
8
Layer 1
10
31.681520
20
173.251600
11
17.681820
21
173.251600
0
LINE
8
Layer 1
10
17.681820
20
173.251600
11
17.681820
21
159.250400
0
LINE
8
Layer 1
10
36.731820
20
159.250400
11
50.731520
21
159.250400
0
LINE
8
Layer 1
10
50.731520
20
159.250400
11
50.731520
21
173.251600
0
LINE
8
Layer 1
10
50.731520
20
173.251600
11
36.731820
21
173.251600
0
LINE
8
Layer 1
10
36.731820
20
173.251600
11
36.731820
21
159.250400
0
LINE
8
Layer 1
10
55.781820
20
159.250400
11
69.781520
21
159.250400
0
LINE
8
Layer 1
10
69.781520
20
159.250400
11
69.781520
21
173.251600
0
LINE
8
Layer 1
10
69.781520
20
173.251600
11
55.781820
21
173.251600
0
LINE
8
Layer 1
10
55.781820
20
173.251600
11
55.781820
21
159.250400
0
LINE
8
Layer 1
10
74.831820
20
159.250400
11
88.831520
21
159.250400
0
LINE
8
Layer 1
10
88.831520
20
159.250400
11
88.831520
21
173.251600
0
LINE
8
Layer 1
10
88.831520
20
173.251600
11
74.831820
21
173.251600
0
LINE
8
Layer 1
10
74.831820
20
173.251600
11
74.831820
21
159.250400
0
LINE
8
Layer 1
10
93.881820
20
159.250400
11
107.881520
21
159.250400
0
LINE
8
Layer 1
10
107.881520
20
159.250400
11
107.881520
21
173.251600
0
LINE
8
Layer 1
10
107.881520
20
173.251600
11
93.881700
21
173.251600
0
LINE
8
Layer 1
10
93.881700
20
173.251600
11
93.881820
21
159.250400
0
LINE
8
Layer 1
10
112.931820
20
159.250400
11
126.931520
21
159.250400
0
LINE
8
Layer 1
10
126.931520
20
159.250400
11
126.931520
21
173.251600
0
LINE
8
Layer 1
10
126.931520
20
173.251600
11
112.931820
21
173.251600
0
LINE
8
Layer 1
10
112.931820
20
173.251600
11
112.931820
21
159.250400
0
LINE
8
Layer 1
10
151.031820
20
159.250400
11
165.031520
21
159.250400
0
LINE
8
Layer 1
10
165.031520
20
159.250400
11
165.031520
21
173.250100
0
LINE
8
Layer 1
10
165.031520
20
173.250100
11
151.031820
21
173.250100
0
LINE
8
Layer 1
10
151.031820
20
173.250100
11
151.031820
21
159.250400
0
LINE
8
Layer 1
10
174.843820
20
159.250400
11
188.844020
21
159.250400
0
LINE
8
Layer 1
10
188.844020
20
159.250400
11
188.844020
21
173.251600
0
LINE
8
Layer 1
10
188.844020
20
173.251600
11
174.843820
21
173.251600
0
LINE
8
Layer 1
10
174.843820
20
173.251600
11
174.843820
21
159.250400
0
LINE
8
Layer 1
10
8.156820
20
178.300400
11
22.156300
21
178.300400
0
LINE
8
Layer 1
10
22.156300
20
178.300400
11
22.156300
21
192.301600
0
LINE
8
Layer 1
10
22.156300
20
192.301600
11
8.156670
21
192.301600
0
LINE
8
Layer 1
10
8.156670
20
192.301600
11
8.156820
21
178.300400
0
LINE
8
Layer 1
10
27.206820
20
178.300400
11
41.206520
21
178.300400
0
LINE
8
Layer 1
10
41.206520
20
178.300400
11
41.206520
21
192.301600
0
LINE
8
Layer 1
10
41.206520
20
192.301600
11
27.206820
21
192.301600
0
LINE
8
Layer 1
10
27.206820
20
192.301600
11
27.206820
21
178.300400
0
LINE
8
Layer 1
10
46.256820
20
178.300400
11
60.256520
21
178.300400
0
LINE
8
Layer 1
10
60.256520
20
178.300400
11
60.256520
21
192.301600
0
LINE
8
Layer 1
10
60.256520
20
192.301600
11
46.256820
21
192.301600
0
LINE
8
Layer 1
10
46.256820
20
192.301600
11
46.256820
21
178.300400
0
LINE
8
Layer 1
10
65.306820
20
178.300400
11
79.306020
21
178.300400
0
LINE
8
Layer 1
10
79.306020
20
178.300400
11
79.306020
21
192.301600
0
LINE
8
Layer 1
10
79.306020
20
192.301600
11
65.306820
21
192.301600
0
LINE
8
Layer 1
10
65.306820
20
192.301600
11
65.306820
21
178.300400
0
LINE
8
Layer 1
10
84.356820
20
178.300400
11
98.356520
21
178.300400
0
LINE
8
Layer 1
10
98.356520
20
178.300400
11
98.356520
21
192.301600
0
LINE
8
Layer 1
10
98.356520
20
192.301600
11
84.356820
21
192.301600
0
LINE
8
Layer 1
10
84.356820
20
192.301600
11
84.356820
21
178.300400
0
LINE
8
Layer 1
10
103.406820
20
178.300400
11
117.406520
21
178.300400
0
LINE
8
Layer 1
10
117.406520
20
178.300400
11
117.406520
21
192.301600
0
LINE
8
Layer 1
10
117.406520
20
192.301600
11
103.406820
21
192.301600
0
LINE
8
Layer 1
10
103.406820
20
192.301600
11
103.406820
21
178.300400
0
LINE
8
Layer 1
10
122.456820
20
178.300400
11
136.456520
21
178.300400
0
LINE
8
Layer 1
10
136.456520
20
178.300400
11
136.456520
21
192.301600
0
LINE
8
Layer 1
10
136.456520
20
192.301600
11
122.456820
21
192.301600
0
LINE
8
Layer 1
10
122.456820
20
192.301600
11
122.456820
21
178.300400
0
LINE
8
Layer 1
10
146.268820
20
178.300400
11
160.269020
21
178.300400
0
LINE
8
Layer 1
10
160.269020
20
178.300400
11
160.269020
21
192.301600
0
LINE
8
Layer 1
10
160.269020
20
192.301600
11
146.268820
21
192.301600
0
LINE
8
Layer 1
10
146.268820
20
192.301600
11
146.268820
21
178.300400
0
LINE
8
Layer 1
10
174.843820
20
178.300400
11
188.844020
21
178.300400
0
LINE
8
Layer 1
10
188.844020
20
178.300400
11
188.844020
21
192.301600
0
LINE
8
Layer 1
10
188.844020
20
192.301600
11
174.843820
21
192.301600
0
LINE
8
Layer 1
10
174.843820
20
192.301600
11
174.843820
21
178.300400
0
LINE
8
Layer 1
10
12.918820
20
197.350400
11
26.919020
21
197.350400
0
LINE
8
Layer 1
10
26.919020
20
197.350400
11
26.919020
21
211.351600
0
LINE
8
Layer 1
10
26.919020
20
211.351600
11
12.918820
21
211.351600
0
LINE
8
Layer 1
10
12.918820
20
211.351600
11
12.918820
21
197.350400
0
LINE
8
Layer 1
10
31.968820
20
197.350400
11
45.969020
21
197.350400
0
LINE
8
Layer 1
10
45.969020
20
197.350400
11
45.969020
21
211.351600
0
LINE
8
Layer 1
10
45.969020
20
211.351600
11
31.968820
21
211.351600
0
LINE
8
Layer 1
10
31.968820
20
211.351600
11
31.968820
21
197.350400
0
LINE
8
Layer 1
10
51.018820
20
197.350400
11
65.019020
21
197.350400
0
LINE
8
Layer 1
10
65.019020
20
197.350400
11
65.019020
21
211.351600
0
LINE
8
Layer 1
10
65.019020
20
211.351600
11
51.018820
21
211.351600
0
LINE
8
Layer 1
10
51.018820
20
211.351600
11
51.018820
21
197.350400
0
LINE
8
Layer 1
10
70.068820
20
197.350400
11
84.069020
21
197.350400
0
LINE
8
Layer 1
10
84.069020
20
197.350400
11
84.069020
21
211.351600
0
LINE
8
Layer 1
10
84.069020
20
211.351600
11
70.068820
21
211.351600
0
LINE
8
Layer 1
10
70.068820
20
211.351600
11
70.068820
21
197.350400
0
LINE
8
Layer 1
10
89.118820
20
197.350400
11
103.119020
21
197.350400
0
LINE
8
Layer 1
10
103.119020
20
197.350400
11
103.119020
21
211.351600
0
LINE
8
Layer 1
10
103.119020
20
211.351600
11
89.118700
21
211.351600
0
LINE
8
Layer 1
10
89.118700
20
211.351600
11
89.118820
21
197.350400
0
LINE
8
Layer 1
10
108.168820
20
197.350400
11
122.169020
21
197.350400
0
LINE
8
Layer 1
10
122.169020
20
197.350400
11
122.169020
21
211.351600
0
LINE
8
Layer 1
10
122.169020
20
211.351600
11
108.168820
21
211.351600
0
LINE
8
Layer 1
10
108.168820
20
211.351600
11
108.168820
21
197.350400
0
LINE
8
Layer 1
10
139.124520
20
197.350400
11
153.124720
21
197.350400
0
LINE
8
Layer 1
10
153.124720
20
197.350400
11
153.124720
21
202.050380
0
LINE
8
Layer 1
10
153.124720
20
202.050380
11
154.649700
21
202.050380
0
LINE
8
Layer 1
10
154.649700
20
202.050380
11
154.649700
21
198.820620
0
LINE
8
Layer 1
10
154.649700
20
198.820620
11
161.399670
21
198.820620
0
LINE
8
Layer 1
10
161.399670
20
198.820620
11
161.399670
21
202.050380
0
LINE
8
Layer 1
10
161.399670
20
202.050380
11
162.224940
21
202.050380
0
LINE
8
Layer 1
10
162.224940
20
202.050380
11
162.224940
21
204.850200
0
LINE
8
Layer 1
10
162.224940
20
204.850200
11
161.399670
21
204.850200
0
LINE
8
Layer 1
10
161.399670
20
204.850200
11
161.399670
21
211.119590
0
LINE
8
Layer 1
10
161.399670
20
211.119590
11
159.674720
21
211.119590
0
LINE
8
Layer 1
10
159.674720
20
211.119590
11
159.674720
21
212.320560
0
LINE
8
Layer 1
10
159.674720
20
212.320560
11
156.374650
21
212.320560
0
LINE
8
Layer 1
10
156.374650
20
212.320560
11
156.374650
21
211.119590
0
LINE
8
Layer 1
10
156.374650
20
211.119590
11
154.649700
21
211.119590
0
LINE
8
Layer 1
10
154.649700
20
211.119590
11
154.649700
21
206.650610
0
LINE
8
Layer 1
10
154.649700
20
206.650610
11
153.124720
21
206.650610
0
LINE
8
Layer 1
10
153.124720
20
206.650610
11
153.124720
21
211.353160
0
LINE
8
Layer 1
10
153.124720
20
211.353160
11
139.124520
21
211.353160
0
LINE
8
Layer 1
10
139.124520
20
211.353160
11
139.124520
21
206.653180
0
LINE
8
Layer 1
10
139.124520
20
206.653180
11
137.599570
21
206.653180
0
LINE
8
Layer 1
10
137.599570
20
206.653180
11
137.599570
21
211.122180
0
LINE
8
Layer 1
10
137.599570
20
211.122180
11
135.874590
21
211.122180
0
LINE
8
Layer 1
10
135.874590
20
211.122180
11
135.874590
21
212.323120
0
LINE
8
Layer 1
10
135.874590
20
212.323120
11
132.574550
21
212.323120
0
LINE
8
Layer 1
10
132.574550
20
212.323120
11
132.574550
21
211.122180
0
LINE
8
Layer 1
10
132.574550
20
211.122180
11
130.849580
21
211.122180
0
LINE
8
Layer 1
10
130.849580
20
211.122180
11
130.849580
21
204.852770
0
LINE
8
Layer 1
10
130.849580
20
204.852770
11
130.024840
21
204.852770
0
LINE
8
Layer 1
10
130.024840
20
204.852770
11
130.024840
21
202.052950
0
LINE
8
Layer 1
10
130.024840
20
202.052950
11
130.849580
21
202.052950
0
LINE
8
Layer 1
10
130.849580
20
202.052950
11
130.849580
21
198.823180
0
LINE
8
Layer 1
10
130.849580
20
198.823180
11
137.599570
21
198.823180
0
LINE
8
Layer 1
10
137.599570
20
198.823180
11
137.599570
21
202.052950
0
LINE
8
Layer 1
10
137.599570
20
202.052950
11
139.124520
21
202.052950
0
LINE
8
Layer 1
10
139.124520
20
202.052950
11
139.124520
21
197.350400
0
LINE
8
Layer 1
10
174.843820
20
197.350400
11
188.844020
21
197.350400
0
LINE
8
Layer 1
10
188.844020
20
197.350400
11
188.844020
21
211.351600
0
LINE
8
Layer 1
10
188.844020
20
211.351600
11
174.843820
21
211.351600
0
LINE
8
Layer 1
10
174.843820
20
211.351600
11
174.843820
21
197.350400
0
LINE
8
Layer 1
10
22.443820
20
216.400400
11
36.444020
21
216.400400
0
LINE
8
Layer 1
10
36.444020
20
216.400400
11
36.444020
21
230.401600
0
LINE
8
Layer 1
10
36.444020
20
230.401600
11
22.443820
21
230.401600
0
LINE
8
Layer 1
10
22.443820
20
230.401600
11
22.443820
21
216.400400
0
LINE
8
Layer 1
10
41.493820
20
216.400400
11
55.494020
21
216.400400
0
LINE
8
Layer 1
10
55.494020
20
216.400400
11
55.494020
21
230.401600
0
LINE
8
Layer 1
10
55.494020
20
230.401600
11
41.493820
21
230.401600
0
LINE
8
Layer 1
10
41.493820
20
230.401600
11
41.493820
21
216.400400
0
LINE
8
Layer 1
10
60.543820
20
216.400400
11
74.544020
21
216.400400
0
LINE
8
Layer 1
10
74.544020
20
216.400400
11
74.544020
21
230.401600
0
LINE
8
Layer 1
10
74.544020
20
230.401600
11
60.543820
21
230.401600
0
LINE
8
Layer 1
10
60.543820
20
230.401600
11
60.543820
21
216.400400
0
LINE
8
Layer 1
10
79.593820
20
216.400400
11
93.594020
21
216.400400
0
LINE
8
Layer 1
10
93.594020
20
216.400400
11
93.594020
21
230.401600
0
LINE
8
Layer 1
10
93.594020
20
230.401600
11
79.593820
21
230.401600
0
LINE
8
Layer 1
10
79.593820
20
230.401600
11
79.593820
21
216.400400
0
LINE
8
Layer 1
10
98.643820
20
216.400400
11
112.644020
21
216.400400
0
LINE
8
Layer 1
10
112.644020
20
216.400400
11
112.644020
21
230.401600
0
LINE
8
Layer 1
10
112.644020
20
230.401600
11
98.643700
21
230.401600
0
LINE
8
Layer 1
10
98.643700
20
230.401600
11
98.643820
21
216.400400
0
LINE
8
Layer 1
10
124.837520
20
216.400400
11
138.837720
21
216.400400
0
LINE
8
Layer 1
10
138.837720
20
216.400400
11
138.837720
21
230.401600
0
LINE
8
Layer 1
10
138.837720
20
230.401600
11
124.837520
21
230.401600
0
LINE
8
Layer 1
10
124.837520
20
230.401600
11
124.837520
21
216.400400
0
LINE
8
Layer 1
10
155.793820
20
221.162400
11
169.794020
21
221.162400
0
LINE
8
Layer 1
10
169.794020
20
221.162400
11
169.794020
21
235.162600
0
LINE
8
Layer 1
10
169.794020
20
235.162600
11
155.793820
21
235.162600
0
LINE
8
Layer 1
10
155.793820
20
235.162600
11
155.793820
21
221.162400
0
LINE
8
Layer 1
10
34.349820
20
235.450400
11
48.350020
21
235.450400
0
LINE
8
Layer 1
10
48.350020
20
235.450400
11
48.350020
21
240.150380
0
LINE
8
Layer 1
10
48.350020
20
240.150380
11
49.874990
21
240.150380
0
LINE
8
Layer 1
10
49.874990
20
240.150380
11
49.874990
21
236.920620
0
LINE
8
Layer 1
10
49.874990
20
236.920620
11
56.624960
21
236.920620
0
LINE
8
Layer 1
10
56.624960
20
236.920620
11
56.624960
21
240.150380
0
LINE
8
Layer 1
10
56.624960
20
240.150380
11
57.450240
21
240.150380
0
LINE
8
Layer 1
10
57.450240
20
240.150380
11
57.450240
21
242.950200
0
LINE
8
Layer 1
10
57.450240
20
242.950200
11
56.624960
21
242.950200
0
LINE
8
Layer 1
10
56.624960
20
242.950200
11
56.624960
21
249.219590
0
LINE
8
Layer 1
10
56.624960
20
249.219590
11
54.900010
21
249.219590
0
LINE
8
Layer 1
10
54.900010
20
249.219590
11
54.900010
21
250.420560
0
LINE
8
Layer 1
10
54.900010
20
250.420560
11
51.599950
21
250.420560
0
LINE
8
Layer 1
10
51.599950
20
250.420560
11
51.599950
21
249.219590
0
LINE
8
Layer 1
10
51.599950
20
249.219590
11
49.874990
21
249.219590
0
LINE
8
Layer 1
10
49.874990
20
249.219590
11
49.874990
21
244.749580
0
LINE
8
Layer 1
10
49.874990
20
244.749580
11
48.350020
21
244.749580
0
LINE
8
Layer 1
10
48.350020
20
244.749580
11
48.350020
21
249.453160
0
LINE
8
Layer 1
10
48.350020
20
249.453160
11
34.349820
21
249.453160
0
LINE
8
Layer 1
10
34.349820
20
249.453160
11
34.349820
21
244.752150
0
LINE
8
Layer 1
10
34.349820
20
244.752150
11
32.824850
21
244.752150
0
LINE
8
Layer 1
10
32.824850
20
244.752150
11
32.824850
21
249.222180
0
LINE
8
Layer 1
10
32.824850
20
249.222180
11
31.099890
21
249.222180
0
LINE
8
Layer 1
10
31.099890
20
249.222180
11
31.099890
21
250.423120
0
LINE
8
Layer 1
10
31.099890
20
250.423120
11
27.799830
21
250.423120
0
LINE
8
Layer 1
10
27.799830
20
250.423120
11
27.799830
21
249.222180
0
LINE
8
Layer 1
10
27.799830
20
249.222180
11
26.074870
21
249.222180
0
LINE
8
Layer 1
10
26.074870
20
249.222180
11
26.074870
21
242.952770
0
LINE
8
Layer 1
10
26.074870
20
242.952770
11
25.250120
21
242.952770
0
LINE
8
Layer 1
10
25.250120
20
242.952770
11
25.250120
21
240.152950
0
LINE
8
Layer 1
10
25.250120
20
240.152950
11
26.074870
21
240.152950
0
LINE
8
Layer 1
10
26.074870
20
240.152950
11
26.074870
21
236.923180
0
LINE
8
Layer 1
10
26.074870
20
236.923180
11
32.824850
21
236.923180
0
LINE
8
Layer 1
10
32.824850
20
236.923180
11
32.824850
21
240.152950
0
LINE
8
Layer 1
10
32.824850
20
240.152950
11
34.349820
21
240.152950
0
LINE
8
Layer 1
10
34.349820
20
240.152950
11
34.349820
21
235.450400
0
LINE
8
Layer 1
10
72.449820
20
235.450400
11
86.450020
21
235.450400
0
LINE
8
Layer 1
10
86.450020
20
235.450400
11
86.450020
21
249.451600
0
LINE
8
Layer 1
10
86.450020
20
249.451600
11
72.449820
21
249.451600
0
LINE
8
Layer 1
10
72.449820
20
249.451600
11
72.449820
21
235.450400
0
LINE
8
Layer 1
10
93.882120
20
235.450400
11
107.881820
21
235.450400
0
LINE
8
Layer 1
10
107.881820
20
235.450400
11
107.881820
21
249.451600
0
LINE
8
Layer 1
10
107.881820
20
249.451600
11
93.881700
21
249.451600
0
LINE
8
Layer 1
10
93.881700
20
249.451600
11
93.882120
21
235.450400
0
LINE
8
Layer 1
10
112.932120
20
235.450400
11
126.931820
21
235.450400
0
LINE
8
Layer 1
10
126.931820
20
235.450400
11
126.931820
21
249.451600
0
LINE
8
Layer 1
10
126.931820
20
249.451600
11
112.932120
21
249.451600
0
LINE
8
Layer 1
10
112.932120
20
249.451600
11
112.932120
21
235.450400
0
LINE
8
Layer 1
10
136.744120
20
240.212400
11
150.744320
21
240.212400
0
LINE
8
Layer 1
10
150.744320
20
240.212400
11
150.744320
21
254.212600
0
LINE
8
Layer 1
10
150.744320
20
254.212600
11
136.744120
21
254.212600
0
LINE
8
Layer 1
10
136.744120
20
254.212600
11
136.744120
21
240.212400
0
LINE
8
Layer 1
10
155.794120
20
240.212400
11
169.794320
21
240.212400
0
LINE
8
Layer 1
10
169.794320
20
240.212400
11
169.794320
21
254.212600
0
LINE
8
Layer 1
10
169.794320
20
254.212600
11
155.794120
21
254.212600
0
LINE
8
Layer 1
10
155.794120
20
254.212600
11
155.794120
21
240.212400
0
LINE
8
Layer 1
10
174.844120
20
240.212400
11
188.844320
21
240.212400
0
LINE
8
Layer 1
10
188.844320
20
240.212400
11
188.844320
21
254.212600
0
LINE
8
Layer 1
10
188.844320
20
254.212600
11
174.844000
21
254.212600
0
LINE
8
Layer 1
10
174.844000
20
254.212600
11
174.844120
21
240.212400
0
LINE
8
Layer 1
10
19.140000
20
259.738000
11
19.153400
21
259.738000
0
LINE
8
Layer 1
10
19.153400
20
259.738000
11
19.542611
21
259.816596
0
LINE
8
Layer 1
10
19.542611
20
259.816596
11
19.860447
21
260.030893
0
LINE
8
Layer 1
10
19.860447
20
260.030893
11
20.074744
21
260.348729
0
LINE
8
Layer 1
10
20.074744
20
260.348729
11
20.153340
21
260.737940
0
LINE
8
Layer 1
10
20.153340
20
260.737940
11
20.077354
21
261.120748
0
LINE
8
Layer 1
10
20.077354
20
261.120748
11
19.860627
21
261.445316
0
LINE
8
Layer 1
10
19.860627
20
261.445316
11
19.536169
21
261.662209
0
LINE
8
Layer 1
10
19.536169
20
261.662209
11
19.153400
21
261.738390
0
LINE
8
Layer 1
10
19.153400
20
261.738390
11
18.770631
21
261.662209
0
LINE
8
Layer 1
10
18.770631
20
261.662209
11
18.446173
21
261.445316
0
LINE
8
Layer 1
10
18.446173
20
261.445316
11
18.229446
21
261.120748
0
LINE
8
Layer 1
10
18.229446
20
261.120748
11
18.153460
21
260.737940
0
LINE
8
Layer 1
10
18.153460
20
260.737940
11
18.230674
21
260.351959
0
LINE
8
Layer 1
10
18.230674
20
260.351959
11
18.441585
21
260.035602
0
LINE
8
Layer 1
10
18.441585
20
260.035602
11
18.755059
21
259.820430
0
LINE
8
Layer 1
10
18.755059
20
259.820430
11
19.139960
21
259.738000
0
LINE
8
Layer 1
10
19.139960
20
259.738000
11
19.140000
21
259.738000
0
LINE
8
Layer 1
10
107.199200
20
259.738000
11
107.212700
21
259.738000
0
LINE
8
Layer 1
10
107.212700
20
259.738000
11
107.601911
21
259.816596
0
LINE
8
Layer 1
10
107.601911
20
259.816596
11
107.919747
21
260.030893
0
LINE
8
Layer 1
10
107.919747
20
260.030893
11
108.134044
21
260.348729
0
LINE
8
Layer 1
10
108.134044
20
260.348729
11
108.212640
21
260.737940
0
LINE
8
Layer 1
10
108.212640
20
260.737940
11
108.136654
21
261.120748
0
LINE
8
Layer 1
10
108.136654
20
261.120748
11
107.919927
21
261.445316
0
LINE
8
Layer 1
10
107.919927
20
261.445316
11
107.595469
21
261.662209
0
LINE
8
Layer 1
10
107.595469
20
261.662209
11
107.212700
21
261.738390
0
LINE
8
Layer 1
10
107.212700
20
261.738390
11
106.829931
21
261.662209
0
LINE
8
Layer 1
10
106.829931
20
261.662209
11
106.505473
21
261.445316
0
LINE
8
Layer 1
10
106.505473
20
261.445316
11
106.288746
21
261.120748
0
LINE
8
Layer 1
10
106.288746
20
261.120748
11
106.212760
21
260.737940
0
LINE
8
Layer 1
10
106.212760
20
260.737940
11
106.289974
21
260.351959
0
LINE
8
Layer 1
10
106.289974
20
260.351959
11
106.500885
21
260.035602
0
LINE
8
Layer 1
10
106.500885
20
260.035602
11
106.814359
21
259.820430
0
LINE
8
Layer 1
10
106.814359
20
259.820430
11
107.199260
21
259.738000
0
LINE
8
Layer 1
10
107.199260
20
259.738000
11
107.199200
21
259.738000
0
LINE
8
Layer 1
10
195.258900
20
259.738000
11
195.272400
21
259.738000
0
LINE
8
Layer 1
10
195.272400
20
259.738000
11
195.655217
21
259.813977
0
LINE
8
Layer 1
10
195.655217
20
259.813977
11
195.979796
21
260.030702
0
LINE
8
Layer 1
10
195.979796
20
260.030702
11
196.196696
21
260.355164
0
LINE
8
Layer 1
10
196.196696
20
260.355164
11
196.272880
21
260.737940
0
LINE
8
Layer 1
10
196.272880
20
260.737940
11
196.196843
21
261.120873
0
LINE
8
Layer 1
10
196.196843
20
261.120873
11
195.979976
21
261.445507
0
LINE
8
Layer 1
10
195.979976
20
261.445507
11
195.655335
21
261.662364
0
LINE
8
Layer 1
10
195.655335
20
261.662364
11
195.272400
21
261.738390
0
LINE
8
Layer 1
10
195.272400
20
261.738390
11
194.889631
21
261.662209
0
LINE
8
Layer 1
10
194.889631
20
261.662209
11
194.565173
21
261.445316
0
LINE
8
Layer 1
10
194.565173
20
261.445316
11
194.348446
21
261.120748
0
LINE
8
Layer 1
10
194.348446
20
261.120748
11
194.272460
21
260.737940
0
LINE
8
Layer 1
10
194.272460
20
260.737940
11
194.349674
21
260.351959
0
LINE
8
Layer 1
10
194.349674
20
260.351959
11
194.560585
21
260.035602
0
LINE
8
Layer 1
10
194.560585
20
260.035602
11
194.874059
21
259.820430
0
LINE
8
Layer 1
10
194.874059
20
259.820430
11
195.258960
21
259.738000
0
LINE
8
Layer 1
10
195.258960
20
259.738000
11
195.258900
21
259.738000
 0 
ENDSEC
 0 
EOF