  0
SECTION
  2
HEADER
  9
$ACADVER
  1
AC1014
  9
$HANDSEED
  5
FFFF
  9
$MEASUREMENT
 70
     1
  0
ENDSEC
  0
SECTION
  2
TABLES
  0
TABLE
  2
VPORT
  5
8
330
0
100
AcDbSymbolTable
 70
     4
  0
VPORT
  5
2E
330
8
100
AcDbSymbolTableRecord
100
AcDbViewportTableRecord
  2
*ACTIVE
 70
     0
 10
0.0
 20
0.0
 11
1.0
 21
1.0
 12
210.0
 22
148.5
 13
0.0
 23
0.0
 14
10.0
 24
10.0
 15
10.0
 25
10.0
 16
0.0
 26
0.0
 36
1.0
 17
0.0
 27
0.0
 37
0.0
 40
341.0
 41
1.24
 42
50.0
 43
0.0
 44
0.0
 50
0.0
 51
0.0
 71
     0
 72
   100
 73
     1
 74
     3
 75
     0
 76
     0
 77
     0
 78
     0
  0
ENDTAB
  0
TABLE
  2
LTYPE
  5
5
330
0
100
AcDbSymbolTable
 70
     1
  0
LTYPE
  5
14
330
5
100
AcDbSymbolTableRecord
100
AcDbLinetypeTableRecord
  2
BYBLOCK
 70
     0
  3

 72
    65
 73
     0
 40
0.0
  0
LTYPE
  5
15
330
5
100
AcDbSymbolTableRecord
100
AcDbLinetypeTableRecord
  2
BYLAYER
 70
     0
  3

 72
    65
 73
     0
 40
0.0
  0
LTYPE
  5
16
330
5
100
AcDbSymbolTableRecord
100
AcDbLinetypeTableRecord
  2
CONTINUOUS
 70
     0
  3
Solid line
 72
    65
 73
     0
 40
0.0
  0
ENDTAB
  0
TABLE
  2
LAYER
  5
2
100
AcDbSymbolTable
 70
2
  0
LAYER
  5
50
100
AcDbSymbolTableRecord
100
AcDbLayerTableRecord
  2
0
 70
0
  6
CONTINUOUS
  0
LAYER
  5
51
100
AcDbSymbolTableRecord
100
AcDbLayerTableRecord
  2
Layer_1
 70
0
  6
CONTINUOUS
  0
ENDTAB
  0
TABLE
  2
STYLE
  5
3
330
0
100
AcDbSymbolTable
 70
     1
  0
STYLE
  5
11
330
3
100
AcDbSymbolTableRecord
100
AcDbTextStyleTableRecord
  2
STANDARD
 70
     0
 40
0.0
 41
1.0
 50
0.0
 71
     0
 42
2.5
  3
txt
  4

  0
ENDTAB
  0
TABLE
  2
VIEW
  5
6
330
0
100
AcDbSymbolTable
 70
     0
  0
ENDTAB
  0
TABLE
  2
UCS
  5
7
330
0
100
AcDbSymbolTable
 70
     0
  0
ENDTAB
  0
TABLE
  2
APPID
  5
9
330
0
100
AcDbSymbolTable
 70
     2
  0
APPID
  5
12
330
9
100
AcDbSymbolTableRecord
100
AcDbRegAppTableRecord
  2
ACAD
 70
     0
  0
ENDTAB
  0
TABLE
  2
DIMSTYLE
  5
A
330
0
100
AcDbSymbolTable
 70
     1
  0
DIMSTYLE
105
27
330
A
100
AcDbSymbolTableRecord
100
AcDbDimStyleTableRecord
  2
ISO-25
 70
     0
  3

  4

  5

  6

  7

 40
1.0
 41
2.5
 42
0.625
 43
3.75
 44
1.25
 45
0.0
 46
0.0
 47
0.0
 48
0.0
140
2.5
141
2.5
142
0.0
143
0.03937007874016
144
1.0
145
0.0
146
1.0
147
0.625
 71
     0
 72
     0
 73
     0
 74
     0
 75
     0
 76
     0
 77
     1
 78
     8
170
     0
171
     3
172
     1
173
     0
174
     0
175
     0
176
     0
177
     0
178
     0
270
     2
271
     2
272
     2
273
     2
274
     3
340
11
275
     0
280
     0
281
     0
282
     0
283
     0
284
     8
285
     0
286
     0
287
     3
288
     0
  0
ENDTAB
  0
TABLE
  2
BLOCK_RECORD
  5
1
330
0
100
AcDbSymbolTable
 70
     1
  0
BLOCK_RECORD
  5
1F
330
1
100
AcDbSymbolTableRecord
100
AcDbBlockTableRecord
  2
*MODEL_SPACE
  0
BLOCK_RECORD
  5
1B
330
1
100
AcDbSymbolTableRecord
100
AcDbBlockTableRecord
  2
*PAPER_SPACE
  0
ENDTAB
  0
ENDSEC
  0
SECTION
  2
BLOCKS
  0
BLOCK
  5
20
330
1F
100
AcDbEntity
  8
0
100
AcDbBlockBegin
  2
*MODEL_SPACE
 70
     0
 10
0.0
 20
0.0
 30
0.0
  3
*MODEL_SPACE
  1

  0
ENDBLK
  5
21
330
1F
100
AcDbEntity
  8
0
100
AcDbBlockEnd
  0
BLOCK
  5
1C
330
1B
100
AcDbEntity
 67
     1
  8
0
100
AcDbBlockBegin
  2
*PAPER_SPACE
  1

  0
ENDBLK
  5
1D
330
1B
100
AcDbEntity
 67
     1
  8
0
100
AcDbBlockEnd
  0
ENDSEC
  0
SECTION
  2
ENTITIES
  0
SPLINE
  5
100
100
AcDbEntity
  8
Layer_1
 62
7
100
AcDbSpline
 70
8
 71
3
 72
8
 73
4
 74
0
 40
0
 40
0
 40
0
 40
0
 40
1
 40
1
 40
1
 40
1
 10
592.197704
 20
58.916665
 30
0.0
 10
594.934572
 20
58.921075
 30
0.0
 10
597.150782
 20
61.141217
 30
0.0
 10
597.150340
 20
63.878088
 30
0.0
  0
LWPOLYLINE
  5
101
100
AcDbEntity
  8
Layer_1
 62
7
100
AcDbPolyline
 90
43
 70
0
 10
84.893014
 20
387.775304
 30
0.0
 10
84.113719
 20
387.744406
 30
0.0
 10
83.340281
 20
387.650580
 30
0.0
 10
82.575632
 20
387.499776
 30
0.0
 10
81.827099
 20
387.287461
 30
0.0
 10
81.094677
 20
387.017887
 30
0.0
 10
80.390086
 20
386.692696
 30
0.0
 10
79.708935
 20
386.311833
 30
0.0
 10
79.060008
 20
385.878274
 30
0.0
 10
78.447702
 20
385.396328
 30
0.0
 10
77.877879
 20
384.867496
 30
0.0
 10
77.347604
 20
384.297704
 30
0.0
 10
76.865672
 20
383.685335
 30
0.0
 10
76.432079
 20
383.035011
 30
0.0
 10
76.052684
 20
382.355291
 30
0.0
 10
75.726023
 20
381.649238
 30
0.0
 10
75.456505
 20
380.918296
 30
0.0
 10
75.244105
 20
380.169723
 30
0.0
 10
75.094690
 20
379.405077
 30
0.0
 10
75.000949
 20
378.630198
 30
0.0
 10
74.973169
 20
377.850869
 30
0.0
 10
74.970334
 20
68.837698
 30
0.0
 10
75.001090
 20
68.058397
 30
0.0
 10
75.094832
 20
67.284992
 30
0.0
 10
75.244246
 20
66.521792
 30
0.0
 10
75.456646
 20
65.770299
 30
0.0
 10
75.726164
 20
65.042249
 30
0.0
 10
76.052823
 20
64.333276
 30
0.0
 10
76.432218
 20
63.653641
 30
0.0
 10
76.865811
 20
63.007597
 30
0.0
 10
77.347746
 20
62.395285
 30
0.0
 10
77.878020
 20
61.822573
 30
0.0
 10
78.447844
 20
61.295187
 30
0.0
 10
79.060147
 20
60.810321
 30
0.0
 10
79.709074
 20
60.379654
 30
0.0
 10
80.390228
 20
59.995899
 30
0.0
 10
81.094816
 20
59.670680
 30
0.0
 10
81.827237
 20
59.401106
 30
0.0
 10
82.575774
 20
59.191625
 30
0.0
 10
83.340422
 20
59.037987
 30
0.0
 10
84.113861
 20
58.947279
 30
0.0
 10
84.893156
 20
58.916665
 30
0.0
 10
592.197704
 20
58.916665
 30
0.0
  0
SPLINE
  5
102
100
AcDbEntity
  8
Layer_1
 62
7
100
AcDbSpline
 70
8
 71
3
 72
8
 73
4
 74
0
 40
0
 40
0
 40
0
 40
0
 40
1
 40
1
 40
1
 40
1
 10
605.697704
 20
149.092413
 30
0.0
 10
608.434583
 20
149.096823
 30
0.0
 10
610.650797
 20
151.316982
 30
0.0
 10
610.650340
 20
154.053865
 30
0.0
  0
LWPOLYLINE
  5
103
100
AcDbEntity
  8
Layer_1
 62
7
100
AcDbPolyline
 90
4
 70
0
 10
597.150340
 20
63.878088
 30
0.0
 10
597.150340
 20
95.095332
 30
0.0
 10
597.150340
 20
149.092413
 30
0.0
 10
605.697704
 20
149.092413
 30
0.0
  0
SPLINE
  5
104
100
AcDbEntity
  8
Layer_1
 62
7
100
AcDbSpline
 70
8
 71
3
 72
8
 73
4
 74
0
 40
0
 40
0
 40
0
 40
0
 40
1
 40
1
 40
1
 40
1
 10
610.650340
 20
198.145616
 30
0.0
 10
610.645946
 20
200.882495
 30
0.0
 10
608.425799
 20
203.098722
 30
0.0
 10
605.688917
 20
203.098280
 30
0.0
  0
LWPOLYLINE
  5
105
100
AcDbEntity
  8
Layer_1
 62
7
100
AcDbPolyline
 90
2
 70
0
 10
610.650340
 20
154.053865
 30
0.0
 10
610.650340
 20
198.145616
 30
0.0
  0
SPLINE
  5
106
100
AcDbEntity
  8
Layer_1
 62
7
100
AcDbSpline
 70
8
 71
3
 72
8
 73
4
 74
0
 40
0
 40
0
 40
0
 40
0
 40
1
 40
1
 40
1
 40
1
 10
583.650340
 20
252.145644
 30
0.0
 10
583.645930
 20
254.882512
 30
0.0
 10
581.425788
 20
257.098722
 30
0.0
 10
578.688917
 20
257.098280
 30
0.0
  0
LWPOLYLINE
  5
107
100
AcDbEntity
  8
Layer_1
 62
7
100
AcDbPolyline
 90
3
 70
0
 10
605.688917
 20
203.098280
 30
0.0
 10
583.650340
 20
203.098280
 30
0.0
 10
583.650340
 20
252.145644
 30
0.0
  0
SPLINE
  5
108
100
AcDbEntity
  8
Layer_1
 62
7
100
AcDbSpline
 70
8
 71
3
 72
8
 73
4
 74
0
 40
0
 40
0
 40
0
 40
0
 40
1
 40
1
 40
1
 40
1
 10
592.197704
 20
311.092441
 30
0.0
 10
594.934583
 20
311.096851
 30
0.0
 10
597.150797
 20
313.317010
 30
0.0
 10
597.150340
 20
316.053893
 30
0.0
  0
LWPOLYLINE
  5
109
100
AcDbEntity
  8
Layer_1
 62
7
100
AcDbPolyline
 90
5
 70
0
 10
578.688917
 20
257.098280
 30
0.0
 10
570.150340
 20
257.098280
 30
0.0
 10
570.150340
 20
311.092441
 30
0.0
 10
580.758746
 20
311.092441
 30
0.0
 10
592.197704
 20
311.092441
 30
0.0
  0
SPLINE
  5
10a
100
AcDbEntity
  8
Layer_1
 62
7
100
AcDbSpline
 70
8
 71
3
 72
8
 73
4
 74
0
 40
0
 40
0
 40
0
 40
0
 40
1
 40
1
 40
1
 40
1
 10
597.150340
 20
382.819946
 30
0.0
 10
597.145977
 20
385.556848
 30
0.0
 10
594.925821
 20
387.773109
 30
0.0
 10
592.188917
 20
387.772668
 30
0.0
  0
LWPOLYLINE
  5
10b
100
AcDbEntity
  8
Layer_1
 62
7
100
AcDbPolyline
 90
3
 70
0
 10
597.150340
 20
316.053893
 30
0.0
 10
597.150340
 20
365.101200
 30
0.0
 10
597.150340
 20
382.819946
 30
0.0
  0
SPLINE
  5
10c
100
AcDbEntity
  8
Layer_1
 62
7
100
AcDbSpline
 70
8
 71
3
 72
8
 73
4
 74
0
 40
0
 40
0
 40
0
 40
0
 40
1
 40
1
 40
1
 40
1
 10
86.533639
 20
379.277717
 30
0.0
 10
86.546820
 20
379.277808
 30
0.0
 10
86.560002
 20
379.277808
 30
0.0
 10
86.573183
 20
379.277717
 30
0.0
  0
SPLINE
  5
10d
100
AcDbEntity
  8
Layer_1
 62
7
100
AcDbSpline
 70
8
 71
3
 72
8
 73
4
 74
0
 40
0
 40
0
 40
0
 40
0
 40
1
 40
1
 40
1
 40
1
 10
86.573183
 20
379.277717
 30
0.0
 10
87.325432
 20
379.278060
 30
0.0
 10
88.046970
 20
378.979379
 30
0.0
 10
88.578887
 20
378.447454
 30
0.0
  0
SPLINE
  5
10e
100
AcDbEntity
  8
Layer_1
 62
7
100
AcDbSpline
 70
8
 71
3
 72
8
 73
4
 74
0
 40
0
 40
0
 40
0
 40
0
 40
1
 40
1
 40
1
 40
1
 10
88.578887
 20
378.447454
 30
0.0
 10
89.110804
 20
377.915530
 30
0.0
 10
89.409475
 20
377.193988
 30
0.0
 10
89.409121
 20
376.441739
 30
0.0
  0
SPLINE
  5
10f
100
AcDbEntity
  8
Layer_1
 62
7
100
AcDbSpline
 70
8
 71
3
 72
8
 73
4
 74
0
 40
0
 40
0
 40
0
 40
0
 40
1
 40
1
 40
1
 40
1
 10
89.409121
 20
376.441739
 30
0.0
 10
89.409076
 20
375.689749
 30
0.0
 10
89.110229
 20
374.968594
 30
0.0
 10
88.578355
 20
374.436994
 30
0.0
  0
SPLINE
  5
110
100
AcDbEntity
  8
Layer_1
 62
7
100
AcDbSpline
 70
8
 71
3
 72
8
 73
4
 74
0
 40
0
 40
0
 40
0
 40
0
 40
1
 40
1
 40
1
 40
1
 10
88.578355
 20
374.436994
 30
0.0
 10
88.046481
 20
373.905395
 30
0.0
 10
87.325172
 20
373.606920
 30
0.0
 10
86.573183
 20
373.607263
 30
0.0
  0
SPLINE
  5
111
100
AcDbEntity
  8
Layer_1
 62
7
100
AcDbSpline
 70
8
 71
3
 72
8
 73
4
 74
0
 40
0
 40
0
 40
0
 40
0
 40
1
 40
1
 40
1
 40
1
 10
86.573183
 20
373.607263
 30
0.0
 10
85.007785
 20
373.607358
 30
0.0
 10
83.738804
 20
374.876341
 30
0.0
 10
83.738710
 20
376.441739
 30
0.0
  0
SPLINE
  5
112
100
AcDbEntity
  8
Layer_1
 62
7
100
AcDbSpline
 70
8
 71
3
 72
8
 73
4
 74
0
 40
0
 40
0
 40
0
 40
0
 40
1
 40
1
 40
1
 40
1
 10
83.738710
 20
376.441739
 30
0.0
 10
83.737829
 20
377.992407
 30
0.0
 10
84.983117
 20
379.255987
 30
0.0
 10
86.533634
 20
379.277717
 30
0.0
  0
LWPOLYLINE
  5
113
100
AcDbEntity
  8
Layer_1
 62
7
100
AcDbPolyline
 90
2
 70
0
 10
592.188917
 20
387.772668
 30
0.0
 10
84.893014
 20
387.775304
 30
0.0
  0
SPLINE
  5
114
100
AcDbEntity
  8
Layer_1
 62
7
100
AcDbSpline
 70
8
 71
3
 72
8
 73
4
 74
0
 40
0
 40
0
 40
0
 40
0
 40
1
 40
1
 40
1
 40
1
 10
227.992136
 20
379.277717
 30
0.0
 10
228.004797
 20
379.277801
 30
0.0
 10
228.017459
 20
379.277801
 30
0.0
 10
228.030120
 20
379.277717
 30
0.0
  0
SPLINE
  5
115
100
AcDbEntity
  8
Layer_1
 62
7
100
AcDbSpline
 70
8
 71
3
 72
8
 73
4
 74
0
 40
0
 40
0
 40
0
 40
0
 40
1
 40
1
 40
1
 40
1
 10
228.030120
 20
379.277717
 30
0.0
 10
228.782111
 20
379.278062
 30
0.0
 10
229.503424
 20
378.979589
 30
0.0
 10
230.035300
 20
378.447989
 30
0.0
  0
SPLINE
  5
116
100
AcDbEntity
  8
Layer_1
 62
7
100
AcDbSpline
 70
8
 71
3
 72
8
 73
4
 74
0
 40
0
 40
0
 40
0
 40
0
 40
1
 40
1
 40
1
 40
1
 10
230.035300
 20
378.447989
 30
0.0
 10
230.567176
 20
377.916389
 30
0.0
 10
230.866025
 20
377.195232
 30
0.0
 10
230.866070
 20
376.443241
 30
0.0
  0
SPLINE
  5
117
100
AcDbEntity
  8
Layer_1
 62
7
100
AcDbSpline
 70
8
 71
3
 72
8
 73
4
 74
0
 40
0
 40
0
 40
0
 40
0
 40
1
 40
1
 40
1
 40
1
 10
230.866070
 20
376.443241
 30
0.0
 10
230.866423
 20
375.690989
 30
0.0
 10
230.567751
 20
374.969446
 30
0.0
 10
230.035831
 20
374.437521
 30
0.0
  0
SPLINE
  5
118
100
AcDbEntity
  8
Layer_1
 62
7
100
AcDbSpline
 70
8
 71
3
 72
8
 73
4
 74
0
 40
0
 40
0
 40
0
 40
0
 40
1
 40
1
 40
1
 40
1
 10
230.035831
 20
374.437521
 30
0.0
 10
229.503912
 20
373.905596
 30
0.0
 10
228.782372
 20
373.606917
 30
0.0
 10
228.030120
 20
373.607263
 30
0.0
  0
SPLINE
  5
119
100
AcDbEntity
  8
Layer_1
 62
7
100
AcDbSpline
 70
8
 71
3
 72
8
 73
4
 74
0
 40
0
 40
0
 40
0
 40
0
 40
1
 40
1
 40
1
 40
1
 10
228.030120
 20
373.607263
 30
0.0
 10
227.278124
 20
373.607308
 30
0.0
 10
226.556962
 20
373.906160
 30
0.0
 10
226.025362
 20
374.438043
 30
0.0
  0
SPLINE
  5
11a
100
AcDbEntity
  8
Layer_1
 62
7
100
AcDbSpline
 70
8
 71
3
 72
8
 73
4
 74
0
 40
0
 40
0
 40
0
 40
0
 40
1
 40
1
 40
1
 40
1
 10
226.025362
 20
374.438043
 30
0.0
 10
225.493761
 20
374.969925
 30
0.0
 10
225.195291
 20
375.691245
 30
0.0
 10
225.195644
 20
376.443241
 30
0.0
  0
SPLINE
  5
11b
100
AcDbEntity
  8
Layer_1
 62
7
100
AcDbSpline
 70
8
 71
3
 72
8
 73
4
 74
0
 40
0
 40
0
 40
0
 40
0
 40
1
 40
1
 40
1
 40
1
 10
225.195644
 20
376.443241
 30
0.0
 10
225.195596
 20
377.993883
 30
0.0
 10
226.441522
 20
379.256783
 30
0.0
 10
227.992022
 20
379.277717
 30
0.0
  0
LWPOLYLINE
  5
11c
100
AcDbEntity
  8
Layer_1
 62
7
100
AcDbPolyline
 90
1
 70
1
 10
86.533634
 20
379.277717
 30
0.0
  0
SPLINE
  5
11d
100
AcDbEntity
  8
Layer_1
 62
7
100
AcDbSpline
 70
8
 71
3
 72
8
 73
4
 74
0
 40
0
 40
0
 40
0
 40
0
 40
1
 40
1
 40
1
 40
1
 10
290.401795
 20
379.277717
 30
0.0
 10
290.414929
 20
379.277808
 30
0.0
 10
290.428063
 20
379.277808
 30
0.0
 10
290.441197
 20
379.277717
 30
0.0
  0
SPLINE
  5
11e
100
AcDbEntity
  8
Layer_1
 62
7
100
AcDbSpline
 70
8
 71
3
 72
8
 73
4
 74
0
 40
0
 40
0
 40
0
 40
0
 40
1
 40
1
 40
1
 40
1
 10
290.441197
 20
379.277717
 30
0.0
 10
291.193193
 20
379.277671
 30
0.0
 10
291.914355
 20
378.978819
 30
0.0
 10
292.445955
 20
378.446937
 30
0.0
  0
SPLINE
  5
11f
100
AcDbEntity
  8
Layer_1
 62
7
100
AcDbSpline
 70
8
 71
3
 72
8
 73
4
 74
0
 40
0
 40
0
 40
0
 40
0
 40
1
 40
1
 40
1
 40
1
 10
292.445955
 20
378.446937
 30
0.0
 10
292.977556
 20
377.915054
 30
0.0
 10
293.276026
 20
377.193735
 30
0.0
 10
293.275672
 20
376.441739
 30
0.0
  0
SPLINE
  5
120
100
AcDbEntity
  8
Layer_1
 62
7
100
AcDbSpline
 70
8
 71
3
 72
8
 73
4
 74
0
 40
0
 40
0
 40
0
 40
0
 40
1
 40
1
 40
1
 40
1
 10
293.275672
 20
376.441739
 30
0.0
 10
293.275579
 20
374.876340
 30
0.0
 10
292.006596
 20
373.607357
 30
0.0
 10
290.441197
 20
373.607263
 30
0.0
  0
SPLINE
  5
121
100
AcDbEntity
  8
Layer_1
 62
7
100
AcDbSpline
 70
8
 71
3
 72
8
 73
4
 74
0
 40
0
 40
0
 40
0
 40
0
 40
1
 40
1
 40
1
 40
1
 10
290.441197
 20
373.607263
 30
0.0
 10
288.875798
 20
373.607357
 30
0.0
 10
287.606815
 20
374.876340
 30
0.0
 10
287.606721
 20
376.441739
 30
0.0
  0
SPLINE
  5
122
100
AcDbEntity
  8
Layer_1
 62
7
100
AcDbSpline
 70
8
 71
3
 72
8
 73
4
 74
0
 40
0
 40
0
 40
0
 40
0
 40
1
 40
1
 40
1
 40
1
 10
287.606721
 20
376.441739
 30
0.0
 10
287.605840
 20
377.992410
 30
0.0
 10
288.851134
 20
379.255992
 30
0.0
 10
290.401654
 20
379.277717
 30
0.0
  0
LWPOLYLINE
  5
123
100
AcDbEntity
  8
Layer_1
 62
7
100
AcDbPolyline
 90
2
 70
0
 10
227.992022
 20
379.277717
 30
0.0
 10
227.992136
 20
379.277717
 30
0.0
  0
SPLINE
  5
124
100
AcDbEntity
  8
Layer_1
 62
7
100
AcDbSpline
 70
8
 71
3
 72
8
 73
4
 74
0
 40
0
 40
0
 40
0
 40
0
 40
1
 40
1
 40
1
 40
1
 10
517.739698
 20
379.277717
 30
0.0
 10
517.753398
 20
379.277816
 30
0.0
 10
517.767099
 20
379.277816
 30
0.0
 10
517.780800
 20
379.277717
 30
0.0
  0
SPLINE
  5
125
100
AcDbEntity
  8
Layer_1
 62
7
100
AcDbSpline
 70
8
 71
3
 72
8
 73
4
 74
0
 40
0
 40
0
 40
0
 40
0
 40
1
 40
1
 40
1
 40
1
 10
517.780800
 20
379.277717
 30
0.0
 10
518.532796
 20
379.277671
 30
0.0
 10
519.253958
 20
378.978819
 30
0.0
 10
519.785558
 20
378.446937
 30
0.0
  0
SPLINE
  5
126
100
AcDbEntity
  8
Layer_1
 62
7
100
AcDbSpline
 70
8
 71
3
 72
8
 73
4
 74
0
 40
0
 40
0
 40
0
 40
0
 40
1
 40
1
 40
1
 40
1
 10
519.785558
 20
378.446937
 30
0.0
 10
520.317159
 20
377.915054
 30
0.0
 10
520.615629
 20
377.193735
 30
0.0
 10
520.615276
 20
376.441739
 30
0.0
  0
SPLINE
  5
127
100
AcDbEntity
  8
Layer_1
 62
7
100
AcDbSpline
 70
8
 71
3
 72
8
 73
4
 74
0
 40
0
 40
0
 40
0
 40
0
 40
1
 40
1
 40
1
 40
1
 10
520.615276
 20
376.441739
 30
0.0
 10
520.615182
 20
374.876340
 30
0.0
 10
519.346199
 20
373.607357
 30
0.0
 10
517.780800
 20
373.607263
 30
0.0
  0
SPLINE
  5
128
100
AcDbEntity
  8
Layer_1
 62
7
100
AcDbSpline
 70
8
 71
3
 72
8
 73
4
 74
0
 40
0
 40
0
 40
0
 40
0
 40
1
 40
1
 40
1
 40
1
 10
517.780800
 20
373.607263
 30
0.0
 10
517.028809
 20
373.606917
 30
0.0
 10
516.307496
 20
373.905390
 30
0.0
 10
515.775620
 20
374.436990
 30
0.0
  0
SPLINE
  5
129
100
AcDbEntity
  8
Layer_1
 62
7
100
AcDbSpline
 70
8
 71
3
 72
8
 73
4
 74
0
 40
0
 40
0
 40
0
 40
0
 40
1
 40
1
 40
1
 40
1
 10
515.775620
 20
374.436990
 30
0.0
 10
515.243744
 20
374.968590
 30
0.0
 10
514.944895
 20
375.689747
 30
0.0
 10
514.944850
 20
376.441739
 30
0.0
  0
SPLINE
  5
12a
100
AcDbEntity
  8
Layer_1
 62
7
100
AcDbSpline
 70
8
 71
3
 72
8
 73
4
 74
0
 40
0
 40
0
 40
0
 40
0
 40
1
 40
1
 40
1
 40
1
 10
514.944850
 20
376.441739
 30
0.0
 10
514.943969
 20
377.992410
 30
0.0
 10
516.189263
 20
379.255992
 30
0.0
 10
517.739783
 20
379.277717
 30
0.0
  0
LWPOLYLINE
  5
12b
100
AcDbEntity
  8
Layer_1
 62
7
100
AcDbPolyline
 90
2
 70
0
 10
290.401654
 20
379.277717
 30
0.0
 10
290.401795
 20
379.277717
 30
0.0
  0
SPLINE
  5
12c
100
AcDbEntity
  8
Layer_1
 62
7
100
AcDbSpline
 70
8
 71
3
 72
8
 73
4
 74
0
 40
0
 40
0
 40
0
 40
0
 40
1
 40
1
 40
1
 40
1
 10
585.768501
 20
379.277717
 30
0.0
 10
585.782201
 20
379.277816
 30
0.0
 10
585.795903
 20
379.277816
 30
0.0
 10
585.809603
 20
379.277717
 30
0.0
  0
SPLINE
  5
12d
100
AcDbEntity
  8
Layer_1
 62
7
100
AcDbSpline
 70
8
 71
3
 72
8
 73
4
 74
0
 40
0
 40
0
 40
0
 40
0
 40
1
 40
1
 40
1
 40
1
 10
585.809603
 20
379.277717
 30
0.0
 10
586.561599
 20
379.277671
 30
0.0
 10
587.282761
 20
378.978819
 30
0.0
 10
587.814362
 20
378.446937
 30
0.0
  0
SPLINE
  5
12e
100
AcDbEntity
  8
Layer_1
 62
7
100
AcDbSpline
 70
8
 71
3
 72
8
 73
4
 74
0
 40
0
 40
0
 40
0
 40
0
 40
1
 40
1
 40
1
 40
1
 10
587.814362
 20
378.446937
 30
0.0
 10
588.345962
 20
377.915054
 30
0.0
 10
588.644432
 20
377.193735
 30
0.0
 10
588.644079
 20
376.441739
 30
0.0
  0
SPLINE
  5
12f
100
AcDbEntity
  8
Layer_1
 62
7
100
AcDbSpline
 70
8
 71
3
 72
8
 73
4
 74
0
 40
0
 40
0
 40
0
 40
0
 40
1
 40
1
 40
1
 40
1
 10
588.644079
 20
376.441739
 30
0.0
 10
588.643985
 20
374.876340
 30
0.0
 10
587.375002
 20
373.607357
 30
0.0
 10
585.809603
 20
373.607263
 30
0.0
  0
SPLINE
  5
130
100
AcDbEntity
  8
Layer_1
 62
7
100
AcDbSpline
 70
8
 71
3
 72
8
 73
4
 74
0
 40
0
 40
0
 40
0
 40
0
 40
1
 40
1
 40
1
 40
1
 10
585.809603
 20
373.607263
 30
0.0
 10
585.057617
 20
373.606925
 30
0.0
 10
584.336312
 20
373.905401
 30
0.0
 10
583.804441
 20
374.437000
 30
0.0
  0
SPLINE
  5
131
100
AcDbEntity
  8
Layer_1
 62
7
100
AcDbSpline
 70
8
 71
3
 72
8
 73
4
 74
0
 40
0
 40
0
 40
0
 40
0
 40
1
 40
1
 40
1
 40
1
 10
583.804441
 20
374.437000
 30
0.0
 10
583.272571
 20
374.968599
 30
0.0
 10
582.973727
 20
375.689752
 30
0.0
 10
582.973682
 20
376.441739
 30
0.0
  0
SPLINE
  5
132
100
AcDbEntity
  8
Layer_1
 62
7
100
AcDbSpline
 70
8
 71
3
 72
8
 73
4
 74
0
 40
0
 40
0
 40
0
 40
0
 40
1
 40
1
 40
1
 40
1
 10
582.973682
 20
376.441739
 30
0.0
 10
582.972801
 20
377.992399
 30
0.0
 10
584.218077
 20
379.255977
 30
0.0
 10
585.768586
 20
379.277717
 30
0.0
  0
LWPOLYLINE
  5
133
100
AcDbEntity
  8
Layer_1
 62
7
100
AcDbPolyline
 90
1
 70
1
 10
517.739783
 20
379.277717
 30
0.0
  0
LWPOLYLINE
  5
134
100
AcDbEntity
  8
Layer_1
 62
7
100
AcDbPolyline
 90
1
 70
1
 10
585.768586
 20
379.277717
 30
0.0
  0
LWPOLYLINE
  5
135
100
AcDbEntity
  8
Layer_1
 62
7
100
AcDbPolyline
 90
10
 70
1
 10
115.503854
 20
365.103921
 30
0.0
 10
187.786570
 20
365.103921
 30
0.0
 10
187.786570
 20
291.403219
 30
0.0
 10
187.786570
 20
263.057046
 30
0.0
 10
154.905228
 20
263.057046
 30
0.0
 10
154.905228
 20
291.403219
 30
0.0
 10
148.385205
 20
291.403219
 30
0.0
 10
148.385205
 20
263.057046
 30
0.0
 10
115.503854
 20
263.057046
 30
0.0
 10
115.503854
 20
291.403219
 30
0.0
  0
LWPOLYLINE
  5
136
100
AcDbEntity
  8
Layer_1
 62
7
100
AcDbPolyline
 90
4
 70
1
 10
226.306117
 20
357.940828
 30
0.0
 10
265.991638
 20
357.940828
 30
0.0
 10
265.991638
 20
318.255250
 30
0.0
 10
226.306117
 20
318.255250
 30
0.0
  0
LWPOLYLINE
  5
137
100
AcDbEntity
  8
Layer_1
 62
7
100
AcDbPolyline
 90
4
 70
1
 10
280.306117
 20
357.940828
 30
0.0
 10
319.991641
 20
357.940828
 30
0.0
 10
319.991641
 20
318.255250
 30
0.0
 10
280.306117
 20
318.255250
 30
0.0
  0
LWPOLYLINE
  5
138
100
AcDbEntity
  8
Layer_1
 62
7
100
AcDbPolyline
 90
4
 70
1
 10
334.306120
 20
357.940828
 30
0.0
 10
373.991641
 20
357.940828
 30
0.0
 10
373.991641
 20
318.255250
 30
0.0
 10
334.306120
 20
318.255250
 30
0.0
  0
LWPOLYLINE
  5
139
100
AcDbEntity
  8
Layer_1
 62
7
100
AcDbPolyline
 90
4
 70
1
 10
388.306091
 20
357.940828
 30
0.0
 10
427.991641
 20
357.940828
 30
0.0
 10
427.991641
 20
318.255250
 30
0.0
 10
388.306091
 20
318.255250
 30
0.0
  0
LWPOLYLINE
  5
13a
100
AcDbEntity
  8
Layer_1
 62
7
100
AcDbPolyline
 90
4
 70
1
 10
442.306091
 20
357.940828
 30
0.0
 10
481.991641
 20
357.940828
 30
0.0
 10
481.991641
 20
318.255250
 30
0.0
 10
442.306091
 20
318.255250
 30
0.0
  0
LWPOLYLINE
  5
13b
100
AcDbEntity
  8
Layer_1
 62
7
100
AcDbPolyline
 90
4
 70
1
 10
496.306091
 20
357.940828
 30
0.0
 10
535.991641
 20
357.940828
 30
0.0
 10
535.991641
 20
318.255250
 30
0.0
 10
496.306091
 20
318.255250
 30
0.0
  0
LWPOLYLINE
  5
13c
100
AcDbEntity
  8
Layer_1
 62
7
100
AcDbPolyline
 90
4
 70
1
 10
550.306091
 20
357.940828
 30
0.0
 10
589.991641
 20
357.940828
 30
0.0
 10
589.991641
 20
318.255250
 30
0.0
 10
550.306091
 20
318.255250
 30
0.0
  0
LWPOLYLINE
  5
13d
100
AcDbEntity
  8
Layer_1
 62
7
100
AcDbPolyline
 90
4
 70
1
 10
239.807563
 20
303.940828
 30
0.0
 10
279.493112
 20
303.940828
 30
0.0
 10
279.493112
 20
264.255250
 30
0.0
 10
239.807563
 20
264.255250
 30
0.0
  0
LWPOLYLINE
  5
13e
100
AcDbEntity
  8
Layer_1
 62
7
100
AcDbPolyline
 90
4
 70
1
 10
307.306120
 20
303.940828
 30
0.0
 10
346.991641
 20
303.940828
 30
0.0
 10
346.991641
 20
264.255250
 30
0.0
 10
307.306120
 20
264.255250
 30
0.0
  0
LWPOLYLINE
  5
13f
100
AcDbEntity
  8
Layer_1
 62
7
100
AcDbPolyline
 90
4
 70
1
 10
361.306091
 20
303.940828
 30
0.0
 10
400.991641
 20
303.940828
 30
0.0
 10
400.991641
 20
264.255250
 30
0.0
 10
361.306091
 20
264.255250
 30
0.0
  0
LWPOLYLINE
  5
140
100
AcDbEntity
  8
Layer_1
 62
7
100
AcDbPolyline
 90
4
 70
1
 10
415.306091
 20
303.940828
 30
0.0
 10
454.991641
 20
303.940828
 30
0.0
 10
454.991641
 20
264.255250
 30
0.0
 10
415.306091
 20
264.255250
 30
0.0
  0
LWPOLYLINE
  5
141
100
AcDbEntity
  8
Layer_1
 62
7
100
AcDbPolyline
 90
4
 70
1
 10
469.306091
 20
303.940828
 30
0.0
 10
508.991641
 20
303.940828
 30
0.0
 10
508.991641
 20
264.255250
 30
0.0
 10
469.306091
 20
264.255250
 30
0.0
  0
LWPOLYLINE
  5
142
100
AcDbEntity
  8
Layer_1
 62
7
100
AcDbPolyline
 90
4
 70
1
 10
523.306091
 20
303.940828
 30
0.0
 10
562.991641
 20
303.940828
 30
0.0
 10
562.991641
 20
264.255250
 30
0.0
 10
523.306091
 20
264.255250
 30
0.0
  0
LWPOLYLINE
  5
143
100
AcDbEntity
  8
Layer_1
 62
7
100
AcDbPolyline
 90
20
 70
1
 10
158.807568
 20
249.940828
 30
0.0
 10
198.493112
 20
249.940828
 30
0.0
 10
198.493112
 20
247.106353
 30
0.0
 10
200.760693
 20
247.106353
 30
0.0
 10
200.760693
 20
238.318753
 30
0.0
 10
198.493112
 20
238.318753
 30
0.0
 10
198.493112
 20
221.877326
 30
0.0
 10
200.760693
 20
221.877326
 30
0.0
 10
200.760693
 20
213.089726
 30
0.0
 10
198.493112
 20
213.089726
 30
0.0
 10
198.493112
 20
210.255250
 30
0.0
 10
158.807568
 20
210.255250
 30
0.0
 10
158.807568
 20
213.089726
 30
0.0
 10
156.539988
 20
213.089726
 30
0.0
 10
156.539988
 20
221.877326
 30
0.0
 10
158.807568
 20
221.877326
 30
0.0
 10
158.807568
 20
238.318753
 30
0.0
 10
156.539988
 20
238.318753
 30
0.0
 10
156.539988
 20
247.106353
 30
0.0
 10
158.807568
 20
247.106353
 30
0.0
  0
LWPOLYLINE
  5
144
100
AcDbEntity
  8
Layer_1
 62
7
100
AcDbPolyline
 90
4
 70
1
 10
246.556117
 20
249.940828
 30
0.0
 10
286.241641
 20
249.940828
 30
0.0
 10
286.241641
 20
210.255250
 30
0.0
 10
246.556117
 20
210.255250
 30
0.0
  0
LWPOLYLINE
  5
145
100
AcDbEntity
  8
Layer_1
 62
7
100
AcDbPolyline
 90
4
 70
1
 10
320.807565
 20
249.940828
 30
0.0
 10
360.493115
 20
249.940828
 30
0.0
 10
360.493115
 20
210.255250
 30
0.0
 10
320.807565
 20
210.255250
 30
0.0
  0
LWPOLYLINE
  5
146
100
AcDbEntity
  8
Layer_1
 62
7
100
AcDbPolyline
 90
4
 70
1
 10
374.804646
 20
249.940828
 30
0.0
 10
414.490195
 20
249.940828
 30
0.0
 10
414.490195
 20
210.255250
 30
0.0
 10
374.804646
 20
210.255250
 30
0.0
  0
LWPOLYLINE
  5
147
100
AcDbEntity
  8
Layer_1
 62
7
100
AcDbPolyline
 90
4
 70
1
 10
428.804646
 20
249.940828
 30
0.0
 10
468.493115
 20
249.940828
 30
0.0
 10
468.493115
 20
210.255250
 30
0.0
 10
428.804646
 20
210.255250
 30
0.0
  0
LWPOLYLINE
  5
148
100
AcDbEntity
  8
Layer_1
 62
7
100
AcDbPolyline
 90
4
 70
1
 10
482.807565
 20
249.940828
 30
0.0
 10
522.493115
 20
249.940828
 30
0.0
 10
522.493115
 20
210.255250
 30
0.0
 10
482.807565
 20
210.255250
 30
0.0
  0
LWPOLYLINE
  5
149
100
AcDbEntity
  8
Layer_1
 62
7
100
AcDbPolyline
 90
4
 70
1
 10
536.807565
 20
249.940828
 30
0.0
 10
576.493115
 20
249.940828
 30
0.0
 10
576.493115
 20
210.255250
 30
0.0
 10
536.807565
 20
210.255250
 30
0.0
  0
LWPOLYLINE
  5
14a
100
AcDbEntity
  8
Layer_1
 62
7
100
AcDbPolyline
 90
4
 70
1
 10
111.468209
 20
240.158580
 30
0.0
 10
137.831003
 20
240.158580
 30
0.0
 10
137.831003
 20
112.033049
 30
0.0
 10
111.468209
 20
112.033049
 30
0.0
  0
LWPOLYLINE
  5
14b
100
AcDbEntity
  8
Layer_1
 62
7
100
AcDbPolyline
 90
20
 70
1
 10
158.807568
 20
195.937880
 30
0.0
 10
198.493112
 20
195.937880
 30
0.0
 10
198.493112
 20
193.103405
 30
0.0
 10
200.760693
 20
193.103405
 30
0.0
 10
200.760693
 20
184.318724
 30
0.0
 10
198.493112
 20
184.318724
 30
0.0
 10
198.493112
 20
167.874378
 30
0.0
 10
200.760693
 20
167.874378
 30
0.0
 10
200.760693
 20
159.086778
 30
0.0
 10
198.493112
 20
159.086778
 30
0.0
 10
198.493112
 20
156.252302
 30
0.0
 10
158.807568
 20
156.252302
 30
0.0
 10
158.807568
 20
159.086778
 30
0.0
 10
156.539988
 20
159.086778
 30
0.0
 10
156.539988
 20
167.874378
 30
0.0
 10
158.807568
 20
167.874378
 30
0.0
 10
158.807568
 20
184.318724
 30
0.0
 10
156.539988
 20
184.318724
 30
0.0
 10
156.539988
 20
193.103405
 30
0.0
 10
158.807568
 20
193.103405
 30
0.0
  0
LWPOLYLINE
  5
14c
100
AcDbEntity
  8
Layer_1
 62
7
100
AcDbPolyline
 90
36
 70
1
 10
260.054643
 20
195.937880
 30
0.0
 10
299.740195
 20
195.937880
 30
0.0
 10
299.740195
 20
182.615102
 30
0.0
 10
304.062945
 20
182.615102
 30
0.0
 10
304.062945
 20
191.770356
 30
0.0
 10
323.196746
 20
191.770356
 30
0.0
 10
323.196746
 20
182.615102
 30
0.0
 10
325.536094
 20
182.615102
 30
0.0
 10
325.536094
 20
174.677102
 30
0.0
 10
323.196746
 20
174.677102
 30
0.0
 10
323.196746
 20
156.904129
 30
0.0
 10
318.307096
 20
156.904129
 30
0.0
 10
318.307096
 20
153.502781
 30
0.0
 10
308.952595
 20
153.502781
 30
0.0
 10
308.952595
 20
156.904129
 30
0.0
 10
304.062945
 20
156.904129
 30
0.0
 10
304.062945
 20
169.575080
 30
0.0
 10
299.740195
 20
169.575080
 30
0.0
 10
299.740195
 20
156.252302
 30
0.0
 10
260.054643
 20
156.252302
 30
0.0
 10
260.054643
 20
169.575080
 30
0.0
 10
255.731893
 20
169.575080
 30
0.0
 10
255.731893
 20
156.904129
 30
0.0
 10
250.842243
 20
156.904129
 30
0.0
 10
250.842243
 20
153.502781
 30
0.0
 10
241.487742
 20
153.502781
 30
0.0
 10
241.487742
 20
156.904129
 30
0.0
 10
236.598092
 20
156.904129
 30
0.0
 10
236.598092
 20
174.677102
 30
0.0
 10
234.260218
 20
174.677102
 30
0.0
 10
234.260218
 20
182.615102
 30
0.0
 10
236.598092
 20
182.615102
 30
0.0
 10
236.598092
 20
191.770356
 30
0.0
 10
255.731893
 20
191.770356
 30
0.0
 10
255.731893
 20
182.615102
 30
0.0
 10
260.054643
 20
182.615102
 30
0.0
  0
LWPOLYLINE
  5
14d
100
AcDbEntity
  8
Layer_1
 62
7
100
AcDbPolyline
 90
4
 70
1
 10
347.807565
 20
195.937880
 30
0.0
 10
387.493115
 20
195.937880
 30
0.0
 10
387.493115
 20
156.252302
 30
0.0
 10
347.807565
 20
156.252302
 30
0.0
  0
LWPOLYLINE
  5
14e
100
AcDbEntity
  8
Layer_1
 62
7
100
AcDbPolyline
 90
4
 70
1
 10
401.807565
 20
195.937880
 30
0.0
 10
441.493115
 20
195.937880
 30
0.0
 10
441.493115
 20
156.252302
 30
0.0
 10
401.807565
 20
156.252302
 30
0.0
  0
LWPOLYLINE
  5
14f
100
AcDbEntity
  8
Layer_1
 62
7
100
AcDbPolyline
 90
4
 70
1
 10
455.807565
 20
195.937880
 30
0.0
 10
495.493115
 20
195.937880
 30
0.0
 10
495.493115
 20
156.252302
 30
0.0
 10
455.807565
 20
156.252302
 30
0.0
  0
LWPOLYLINE
  5
150
100
AcDbEntity
  8
Layer_1
 62
7
100
AcDbPolyline
 90
4
 70
1
 10
509.807565
 20
195.937880
 30
0.0
 10
549.493115
 20
195.937880
 30
0.0
 10
549.493115
 20
156.252302
 30
0.0
 10
509.807565
 20
156.252302
 30
0.0
  0
LWPOLYLINE
  5
151
100
AcDbEntity
  8
Layer_1
 62
7
100
AcDbPolyline
 90
4
 70
1
 10
563.807565
 20
195.937880
 30
0.0
 10
603.493115
 20
195.937880
 30
0.0
 10
603.493115
 20
156.252302
 30
0.0
 10
563.807565
 20
156.252302
 30
0.0
  0
LWPOLYLINE
  5
152
100
AcDbEntity
  8
Layer_1
 62
7
100
AcDbPolyline
 90
20
 70
1
 10
158.804634
 20
141.937880
 30
0.0
 10
198.490187
 20
141.937880
 30
0.0
 10
198.490187
 20
139.103405
 30
0.0
 10
200.757759
 20
139.103405
 30
0.0
 10
200.757759
 20
130.315805
 30
0.0
 10
198.490187
 20
130.315805
 30
0.0
 10
198.490187
 20
113.874378
 30
0.0
 10
200.757759
 20
113.874378
 30
0.0
 10
200.757759
 20
105.086778
 30
0.0
 10
198.490187
 20
105.086778
 30
0.0
 10
198.490187
 20
102.252302
 30
0.0
 10
158.804634
 20
102.252302
 30
0.0
 10
158.804634
 20
105.086778
 30
0.0
 10
156.539988
 20
105.086778
 30
0.0
 10
156.539988
 20
113.874378
 30
0.0
 10
158.804634
 20
113.874378
 30
0.0
 10
158.804634
 20
130.315805
 30
0.0
 10
156.539988
 20
130.315805
 30
0.0
 10
156.539988
 20
139.103405
 30
0.0
 10
158.804634
 20
139.103405
 30
0.0
  0
LWPOLYLINE
  5
153
100
AcDbEntity
  8
Layer_1
 62
7
100
AcDbPolyline
 90
4
 70
1
 10
233.054643
 20
141.937880
 30
0.0
 10
272.740192
 20
141.937880
 30
0.0
 10
272.740192
 20
102.252302
 30
0.0
 10
233.054643
 20
102.252302
 30
0.0
  0
LWPOLYLINE
  5
154
100
AcDbEntity
  8
Layer_1
 62
7
100
AcDbPolyline
 90
4
 70
1
 10
300.556120
 20
141.937880
 30
0.0
 10
340.241641
 20
141.937880
 30
0.0
 10
340.241641
 20
102.252302
 30
0.0
 10
300.556120
 20
102.252302
 30
0.0
  0
LWPOLYLINE
  5
155
100
AcDbEntity
  8
Layer_1
 62
7
100
AcDbPolyline
 90
4
 70
1
 10
368.054646
 20
141.937880
 30
0.0
 10
407.740195
 20
141.937880
 30
0.0
 10
407.740195
 20
102.252302
 30
0.0
 10
368.054646
 20
102.252302
 30
0.0
  0
LWPOLYLINE
  5
156
100
AcDbEntity
  8
Layer_1
 62
7
100
AcDbPolyline
 90
36
 70
1
 10
455.807565
 20
141.937880
 30
0.0
 10
495.493115
 20
141.937880
 30
0.0
 10
495.493115
 20
128.615102
 30
0.0
 10
499.815865
 20
128.615102
 30
0.0
 10
499.815865
 20
137.770356
 30
0.0
 10
518.949638
 20
137.770356
 30
0.0
 10
518.949638
 20
128.615102
 30
0.0
 10
521.287540
 20
128.615102
 30
0.0
 10
521.287540
 20
120.677102
 30
0.0
 10
518.949638
 20
120.677102
 30
0.0
 10
518.949638
 20
102.907106
 30
0.0
 10
514.060016
 20
102.907106
 30
0.0
 10
514.060016
 20
99.502781
 30
0.0
 10
504.705515
 20
99.502781
 30
0.0
 10
504.705515
 20
102.907106
 30
0.0
 10
499.815865
 20
102.907106
 30
0.0
 10
499.815865
 20
115.578000
 30
0.0
 10
495.493115
 20
115.578000
 30
0.0
 10
495.493115
 20
102.252302
 30
0.0
 10
455.807565
 20
102.252302
 30
0.0
 10
455.807565
 20
115.578000
 30
0.0
 10
451.481868
 20
115.578000
 30
0.0
 10
451.481868
 20
102.907106
 30
0.0
 10
446.595165
 20
102.907106
 30
0.0
 10
446.595165
 20
99.502781
 30
0.0
 10
437.240665
 20
99.502781
 30
0.0
 10
437.240665
 20
102.907106
 30
0.0
 10
432.351014
 20
102.907106
 30
0.0
 10
432.351014
 20
120.677102
 30
0.0
 10
430.011666
 20
120.677102
 30
0.0
 10
430.011666
 20
128.615102
 30
0.0
 10
432.351014
 20
128.615102
 30
0.0
 10
432.351014
 20
137.770356
 30
0.0
 10
451.481868
 20
137.770356
 30
0.0
 10
451.481868
 20
128.615102
 30
0.0
 10
455.807565
 20
128.615102
 30
0.0
  0
SPLINE
  5
157
100
AcDbEntity
  8
Layer_1
 62
7
100
AcDbSpline
 70
8
 71
3
 72
8
 73
4
 74
0
 40
0
 40
0
 40
0
 40
0
 40
1
 40
1
 40
1
 40
1
 10
86.533639
 20
73.094627
 30
0.0
 10
86.546820
 20
73.094719
 30
0.0
 10
86.560002
 20
73.094719
 30
0.0
 10
86.573183
 20
73.094627
 30
0.0
  0
SPLINE
  5
158
100
AcDbEntity
  8
Layer_1
 62
7
100
AcDbSpline
 70
8
 71
3
 72
8
 73
4
 74
0
 40
0
 40
0
 40
0
 40
0
 40
1
 40
1
 40
1
 40
1
 10
86.573183
 20
73.094627
 30
0.0
 10
87.325432
 20
73.094970
 30
0.0
 10
88.046970
 20
72.796289
 30
0.0
 10
88.578887
 20
72.264365
 30
0.0
  0
SPLINE
  5
159
100
AcDbEntity
  8
Layer_1
 62
7
100
AcDbSpline
 70
8
 71
3
 72
8
 73
4
 74
0
 40
0
 40
0
 40
0
 40
0
 40
1
 40
1
 40
1
 40
1
 10
88.578887
 20
72.264365
 30
0.0
 10
89.110804
 20
71.732440
 30
0.0
 10
89.409475
 20
71.010898
 30
0.0
 10
89.409121
 20
70.258649
 30
0.0
  0
SPLINE
  5
15a
100
AcDbEntity
  8
Layer_1
 62
7
100
AcDbSpline
 70
8
 71
3
 72
8
 73
4
 74
0
 40
0
 40
0
 40
0
 40
0
 40
1
 40
1
 40
1
 40
1
 10
89.409121
 20
70.258649
 30
0.0
 10
89.409076
 20
69.506660
 30
0.0
 10
89.110229
 20
68.785504
 30
0.0
 10
88.578355
 20
68.253904
 30
0.0
  0
SPLINE
  5
15b
100
AcDbEntity
  8
Layer_1
 62
7
100
AcDbSpline
 70
8
 71
3
 72
8
 73
4
 74
0
 40
0
 40
0
 40
0
 40
0
 40
1
 40
1
 40
1
 40
1
 10
88.578355
 20
68.253904
 30
0.0
 10
88.046481
 20
67.722305
 30
0.0
 10
87.325172
 20
67.423830
 30
0.0
 10
86.573183
 20
67.424173
 30
0.0
  0
SPLINE
  5
15c
100
AcDbEntity
  8
Layer_1
 62
7
100
AcDbSpline
 70
8
 71
3
 72
8
 73
4
 74
0
 40
0
 40
0
 40
0
 40
0
 40
1
 40
1
 40
1
 40
1
 10
86.573183
 20
67.424173
 30
0.0
 10
85.007785
 20
67.424269
 30
0.0
 10
83.738804
 20
68.693251
 30
0.0
 10
83.738710
 20
70.258649
 30
0.0
  0
SPLINE
  5
15d
100
AcDbEntity
  8
Layer_1
 62
7
100
AcDbSpline
 70
8
 71
3
 72
8
 73
4
 74
0
 40
0
 40
0
 40
0
 40
0
 40
1
 40
1
 40
1
 40
1
 10
83.738710
 20
70.258649
 30
0.0
 10
83.737829
 20
71.809317
 30
0.0
 10
84.983117
 20
73.072898
 30
0.0
 10
86.533634
 20
73.094627
 30
0.0
  0
LWPOLYLINE
  5
15e
100
AcDbEntity
  8
Layer_1
 62
7
100
AcDbPolyline
 90
4
 70
1
 10
543.556091
 20
141.937880
 30
0.0
 10
583.241641
 20
141.937880
 30
0.0
 10
583.241641
 20
102.252302
 30
0.0
 10
543.556091
 20
102.252302
 30
0.0
  0
SPLINE
  5
15f
100
AcDbEntity
  8
Layer_1
 62
7
100
AcDbSpline
 70
8
 71
3
 72
8
 73
4
 74
0
 40
0
 40
0
 40
0
 40
0
 40
1
 40
1
 40
1
 40
1
 10
336.153288
 20
73.094627
 30
0.0
 10
336.166422
 20
73.094718
 30
0.0
 10
336.179556
 20
73.094718
 30
0.0
 10
336.192690
 20
73.094627
 30
0.0
  0
SPLINE
  5
160
100
AcDbEntity
  8
Layer_1
 62
7
100
AcDbSpline
 70
8
 71
3
 72
8
 73
4
 74
0
 40
0
 40
0
 40
0
 40
0
 40
1
 40
1
 40
1
 40
1
 10
336.192690
 20
73.094627
 30
0.0
 10
336.944686
 20
73.094582
 30
0.0
 10
337.665847
 20
72.795730
 30
0.0
 10
338.197448
 20
72.263847
 30
0.0
  0
SPLINE
  5
161
100
AcDbEntity
  8
Layer_1
 62
7
100
AcDbSpline
 70
8
 71
3
 72
8
 73
4
 74
0
 40
0
 40
0
 40
0
 40
0
 40
1
 40
1
 40
1
 40
1
 10
338.197448
 20
72.263847
 30
0.0
 10
338.729049
 20
71.731965
 30
0.0
 10
339.027519
 20
71.010645
 30
0.0
 10
339.027165
 20
70.258649
 30
0.0
  0
SPLINE
  5
162
100
AcDbEntity
  8
Layer_1
 62
7
100
AcDbSpline
 70
8
 71
3
 72
8
 73
4
 74
0
 40
0
 40
0
 40
0
 40
0
 40
1
 40
1
 40
1
 40
1
 10
339.027165
 20
70.258649
 30
0.0
 10
339.027071
 20
68.693250
 30
0.0
 10
337.758089
 20
67.424267
 30
0.0
 10
336.192690
 20
67.424173
 30
0.0
  0
SPLINE
  5
163
100
AcDbEntity
  8
Layer_1
 62
7
100
AcDbSpline
 70
8
 71
3
 72
8
 73
4
 74
0
 40
0
 40
0
 40
0
 40
0
 40
1
 40
1
 40
1
 40
1
 10
336.192690
 20
67.424173
 30
0.0
 10
334.627291
 20
67.424267
 30
0.0
 10
333.358308
 20
68.693250
 30
0.0
 10
333.358214
 20
70.258649
 30
0.0
  0
SPLINE
  5
164
100
AcDbEntity
  8
Layer_1
 62
7
100
AcDbSpline
 70
8
 71
3
 72
8
 73
4
 74
0
 40
0
 40
0
 40
0
 40
0
 40
1
 40
1
 40
1
 40
1
 10
333.358214
 20
70.258649
 30
0.0
 10
333.357333
 20
71.809309
 30
0.0
 10
334.602610
 20
73.072887
 30
0.0
 10
336.153118
 20
73.094627
 30
0.0
  0
LWPOLYLINE
  5
165
100
AcDbEntity
  8
Layer_1
 62
7
100
AcDbPolyline
 90
1
 70
1
 10
86.533634
 20
73.094627
 30
0.0
  0
SPLINE
  5
166
100
AcDbEntity
  8
Layer_1
 62
7
100
AcDbSpline
 70
8
 71
3
 72
8
 73
4
 74
0
 40
0
 40
0
 40
0
 40
0
 40
1
 40
1
 40
1
 40
1
 10
585.768501
 20
73.094627
 30
0.0
 10
585.782201
 20
73.094726
 30
0.0
 10
585.795903
 20
73.094726
 30
0.0
 10
585.809603
 20
73.094627
 30
0.0
  0
SPLINE
  5
167
100
AcDbEntity
  8
Layer_1
 62
7
100
AcDbSpline
 70
8
 71
3
 72
8
 73
4
 74
0
 40
0
 40
0
 40
0
 40
0
 40
1
 40
1
 40
1
 40
1
 10
585.809603
 20
73.094627
 30
0.0
 10
586.561599
 20
73.094582
 30
0.0
 10
587.282761
 20
72.795730
 30
0.0
 10
587.814362
 20
72.263847
 30
0.0
  0
SPLINE
  5
168
100
AcDbEntity
  8
Layer_1
 62
7
100
AcDbSpline
 70
8
 71
3
 72
8
 73
4
 74
0
 40
0
 40
0
 40
0
 40
0
 40
1
 40
1
 40
1
 40
1
 10
587.814362
 20
72.263847
 30
0.0
 10
588.345962
 20
71.731965
 30
0.0
 10
588.644432
 20
71.010645
 30
0.0
 10
588.644079
 20
70.258649
 30
0.0
  0
SPLINE
  5
169
100
AcDbEntity
  8
Layer_1
 62
7
100
AcDbSpline
 70
8
 71
3
 72
8
 73
4
 74
0
 40
0
 40
0
 40
0
 40
0
 40
1
 40
1
 40
1
 40
1
 10
588.644079
 20
70.258649
 30
0.0
 10
588.643985
 20
68.693250
 30
0.0
 10
587.375002
 20
67.424267
 30
0.0
 10
585.809603
 20
67.424173
 30
0.0
  0
SPLINE
  5
16a
100
AcDbEntity
  8
Layer_1
 62
7
100
AcDbSpline
 70
8
 71
3
 72
8
 73
4
 74
0
 40
0
 40
0
 40
0
 40
0
 40
1
 40
1
 40
1
 40
1
 10
585.809603
 20
67.424173
 30
0.0
 10
585.057617
 20
67.423835
 30
0.0
 10
584.336312
 20
67.722311
 30
0.0
 10
583.804441
 20
68.253910
 30
0.0
  0
SPLINE
  5
16b
100
AcDbEntity
  8
Layer_1
 62
7
100
AcDbSpline
 70
8
 71
3
 72
8
 73
4
 74
0
 40
0
 40
0
 40
0
 40
0
 40
1
 40
1
 40
1
 40
1
 10
583.804441
 20
68.253910
 30
0.0
 10
583.272571
 20
68.785510
 30
0.0
 10
582.973727
 20
69.506662
 30
0.0
 10
582.973682
 20
70.258649
 30
0.0
  0
SPLINE
  5
16c
100
AcDbEntity
  8
Layer_1
 62
7
100
AcDbSpline
 70
8
 71
3
 72
8
 73
4
 74
0
 40
0
 40
0
 40
0
 40
0
 40
1
 40
1
 40
1
 40
1
 10
582.973682
 20
70.258649
 30
0.0
 10
582.972801
 20
71.809309
 30
0.0
 10
584.218077
 20
73.072887
 30
0.0
 10
585.768586
 20
73.094627
 30
0.0
  0
LWPOLYLINE
  5
16d
100
AcDbEntity
  8
Layer_1
 62
7
100
AcDbPolyline
 90
2
 70
0
 10
336.153118
 20
73.094627
 30
0.0
 10
336.153288
 20
73.094627
 30
0.0
  0
LWPOLYLINE
  5
16e
100
AcDbEntity
  8
Layer_1
 62
7
100
AcDbPolyline
 90
1
 70
1
 10
585.768586
 20
73.094627
 30
0.0
  0
SPLINE
  5
16f
100
AcDbEntity
  8
Layer_1
 62
7
100
AcDbSpline
 70
8
 71
3
 72
8
 73
4
 74
0
 40
0
 40
0
 40
0
 40
0
 40
1
 40
1
 40
1
 40
1
 10
592.291446
 20
417.432841
 30
0.0
 10
595.028325
 20
417.437251
 30
0.0
 10
597.244539
 20
419.657410
 30
0.0
 10
597.244082
 20
422.394293
 30
0.0
  0
LWPOLYLINE
  5
170
100
AcDbEntity
  8
Layer_1
 62
7
100
AcDbPolyline
 90
43
 70
0
 10
84.986765
 20
746.291381
 30
0.0
 10
84.207470
 20
746.260625
 30
0.0
 10
83.434031
 20
746.166883
 30
0.0
 10
82.669382
 20
746.015995
 30
0.0
 10
81.920849
 20
745.803595
 30
0.0
 10
81.188425
 20
745.534049
 30
0.0
 10
80.483837
 20
745.208858
 30
0.0
 10
79.802683
 20
744.827992
 30
0.0
 10
79.153758
 20
744.394402
 30
0.0
 10
78.541452
 20
743.912467
 30
0.0
 10
77.971629
 20
743.383658
 30
0.0
 10
77.441355
 20
742.813838
 30
0.0
 10
76.959422
 20
742.201529
 30
0.0
 10
76.525829
 20
741.551136
 30
0.0
 10
76.146435
 20
740.871451
 30
0.0
 10
75.819773
 20
740.165400
 30
0.0
 10
75.550255
 20
739.434444
 30
0.0
 10
75.337855
 20
738.685868
 30
0.0
 10
75.188441
 20
737.921242
 30
0.0
 10
75.094699
 20
737.146344
 30
0.0
 10
75.066919
 20
736.367017
 30
0.0
 10
75.064085
 20
427.353902
 30
0.0
 10
75.094841
 20
426.574573
 30
0.0
 10
75.188582
 20
425.801083
 30
0.0
 10
75.337997
 20
425.037969
 30
0.0
 10
75.550397
 20
424.286476
 30
0.0
 10
75.819915
 20
423.558454
 30
0.0
 10
76.146576
 20
422.849480
 30
0.0
 10
76.525971
 20
422.169732
 30
0.0
 10
76.959564
 20
421.523773
 30
0.0
 10
77.441496
 20
420.911461
 30
0.0
 10
77.971771
 20
420.338693
 30
0.0
 10
78.541594
 20
419.811364
 30
0.0
 10
79.153900
 20
419.326498
 30
0.0
 10
79.802827
 20
418.895830
 30
0.0
 10
80.483978
 20
418.512076
 30
0.0
 10
81.188569
 20
418.186857
 30
0.0
 10
81.920991
 20
417.917282
 30
0.0
 10
82.669524
 20
417.707802
 30
0.0
 10
83.434173
 20
417.554164
 30
0.0
 10
84.207611
 20
417.463455
 30
0.0
 10
84.986906
 20
417.432841
 30
0.0
 10
592.291446
 20
417.432841
 30
0.0
  0
SPLINE
  5
171
100
AcDbEntity
  8
Layer_1
 62
7
100
AcDbSpline
 70
8
 71
3
 72
8
 73
4
 74
0
 40
0
 40
0
 40
0
 40
0
 40
1
 40
1
 40
1
 40
1
 10
605.791446
 20
507.608334
 30
0.0
 10
608.528302
 20
507.612744
 30
0.0
 10
610.744508
 20
509.832869
 30
0.0
 10
610.744082
 20
512.569729
 30
0.0
  0
LWPOLYLINE
  5
172
100
AcDbEntity
  8
Layer_1
 62
7
100
AcDbPolyline
 90
4
 70
0
 10
597.244082
 20
422.394293
 30
0.0
 10
597.244082
 20
453.611282
 30
0.0
 10
597.244082
 20
507.608334
 30
0.0
 10
605.791446
 20
507.608334
 30
0.0
  0
SPLINE
  5
173
100
AcDbEntity
  8
Layer_1
 62
7
100
AcDbSpline
 70
8
 71
3
 72
8
 73
4
 74
0
 40
0
 40
0
 40
0
 40
0
 40
1
 40
1
 40
1
 40
1
 10
610.744082
 20
556.661565
 30
0.0
 10
610.739662
 20
559.398427
 30
0.0
 10
608.519523
 20
561.614626
 30
0.0
 10
605.782658
 20
561.614185
 30
0.0
  0
LWPOLYLINE
  5
174
100
AcDbEntity
  8
Layer_1
 62
7
100
AcDbPolyline
 90
2
 70
0
 10
610.744082
 20
512.569729
 30
0.0
 10
610.744082
 20
556.661565
 30
0.0
  0
SPLINE
  5
175
100
AcDbEntity
  8
Layer_1
 62
7
100
AcDbSpline
 70
8
 71
3
 72
8
 73
4
 74
0
 40
0
 40
0
 40
0
 40
0
 40
1
 40
1
 40
1
 40
1
 10
583.744082
 20
610.661560
 30
0.0
 10
583.739665
 20
613.398423
 30
0.0
 10
581.519525
 20
615.614626
 30
0.0
 10
578.782658
 20
615.614185
 30
0.0
  0
LWPOLYLINE
  5
176
100
AcDbEntity
  8
Layer_1
 62
7
100
AcDbPolyline
 90
3
 70
0
 10
605.782658
 20
561.614185
 30
0.0
 10
583.744082
 20
561.614185
 30
0.0
 10
583.744082
 20
610.661560
 30
0.0
  0
SPLINE
  5
177
100
AcDbEntity
  8
Layer_1
 62
7
100
AcDbSpline
 70
8
 71
3
 72
8
 73
4
 74
0
 40
0
 40
0
 40
0
 40
0
 40
1
 40
1
 40
1
 40
1
 10
592.291446
 20
669.608337
 30
0.0
 10
595.028305
 20
669.612747
 30
0.0
 10
597.244511
 20
671.832875
 30
0.0
 10
597.244082
 20
674.569738
 30
0.0
  0
LWPOLYLINE
  5
178
100
AcDbEntity
  8
Layer_1
 62
7
100
AcDbPolyline
 90
5
 70
0
 10
578.782658
 20
615.614185
 30
0.0
 10
570.244082
 20
615.614185
 30
0.0
 10
570.244082
 20
669.608337
 30
0.0
 10
580.852488
 20
669.608337
 30
0.0
 10
592.291446
 20
669.608337
 30
0.0
  0
SPLINE
  5
179
100
AcDbEntity
  8
Layer_1
 62
7
100
AcDbSpline
 70
8
 71
3
 72
8
 73
4
 74
0
 40
0
 40
0
 40
0
 40
0
 40
1
 40
1
 40
1
 40
1
 10
597.244082
 20
741.335899
 30
0.0
 10
597.239675
 20
744.072769
 30
0.0
 10
595.019532
 20
746.288982
 30
0.0
 10
592.282658
 20
746.288541
 30
0.0
  0
LWPOLYLINE
  5
17a
100
AcDbEntity
  8
Layer_1
 62
7
100
AcDbPolyline
 90
3
 70
0
 10
597.244082
 20
674.569738
 30
0.0
 10
597.244082
 20
723.617113
 30
0.0
 10
597.244082
 20
741.335899
 30
0.0
  0
SPLINE
  5
17b
100
AcDbEntity
  8
Layer_1
 62
7
100
AcDbSpline
 70
8
 71
3
 72
8
 73
4
 74
0
 40
0
 40
0
 40
0
 40
0
 40
1
 40
1
 40
1
 40
1
 10
86.628855
 20
737.792337
 30
0.0
 10
86.641554
 20
737.792422
 30
0.0
 10
86.654254
 20
737.792422
 30
0.0
 10
86.666953
 20
737.792337
 30
0.0
  0
SPLINE
  5
17c
100
AcDbEntity
  8
Layer_1
 62
7
100
AcDbSpline
 70
8
 71
3
 72
8
 73
4
 74
0
 40
0
 40
0
 40
0
 40
0
 40
1
 40
1
 40
1
 40
1
 10
86.666953
 20
737.792337
 30
0.0
 10
88.232350
 20
737.792241
 30
0.0
 10
89.501332
 20
736.523259
 30
0.0
 10
89.501426
 20
734.957861
 30
0.0
  0
SPLINE
  5
17d
100
AcDbEntity
  8
Layer_1
 62
7
100
AcDbSpline
 70
8
 71
3
 72
8
 73
4
 74
0
 40
0
 40
0
 40
0
 40
0
 40
1
 40
1
 40
1
 40
1
 10
89.501426
 20
734.957861
 30
0.0
 10
89.501330
 20
733.392465
 30
0.0
 10
88.232349
 20
732.123484
 30
0.0
 10
86.666953
 20
732.123388
 30
0.0
  0
SPLINE
  5
17e
100
AcDbEntity
  8
Layer_1
 62
7
100
AcDbSpline
 70
8
 71
3
 72
8
 73
4
 74
0
 40
0
 40
0
 40
0
 40
0
 40
1
 40
1
 40
1
 40
1
 10
86.666953
 20
732.123388
 30
0.0
 10
85.101556
 20
732.123484
 30
0.0
 10
83.832575
 20
733.392465
 30
0.0
 10
83.832480
 20
734.957861
 30
0.0
  0
SPLINE
  5
17f
100
AcDbEntity
  8
Layer_1
 62
7
100
AcDbSpline
 70
8
 71
3
 72
8
 73
4
 74
0
 40
0
 40
0
 40
0
 40
0
 40
1
 40
1
 40
1
 40
1
 10
83.832480
 20
734.957861
 30
0.0
 10
83.832432
 20
736.508507
 30
0.0
 10
85.078364
 20
737.771409
 30
0.0
 10
86.628869
 20
737.792337
 30
0.0
  0
LWPOLYLINE
  5
180
100
AcDbEntity
  8
Layer_1
 62
7
100
AcDbPolyline
 90
2
 70
0
 10
592.282658
 20
746.288541
 30
0.0
 10
84.986765
 20
746.291381
 30
0.0
  0
SPLINE
  5
181
100
AcDbEntity
  8
Layer_1
 62
7
100
AcDbSpline
 70
8
 71
3
 72
8
 73
4
 74
0
 40
0
 40
0
 40
0
 40
0
 40
1
 40
1
 40
1
 40
1
 10
228.085877
 20
737.792337
 30
0.0
 10
228.098539
 20
737.792422
 30
0.0
 10
228.111200
 20
737.792422
 30
0.0
 10
228.123862
 20
737.792337
 30
0.0
  0
SPLINE
  5
182
100
AcDbEntity
  8
Layer_1
 62
7
100
AcDbSpline
 70
8
 71
3
 72
8
 73
4
 74
0
 40
0
 40
0
 40
0
 40
0
 40
1
 40
1
 40
1
 40
1
 10
228.123862
 20
737.792337
 30
0.0
 10
229.689260
 20
737.792243
 30
0.0
 10
230.958243
 20
736.523260
 30
0.0
 10
230.958337
 20
734.957861
 30
0.0
  0
SPLINE
  5
183
100
AcDbEntity
  8
Layer_1
 62
7
100
AcDbSpline
 70
8
 71
3
 72
8
 73
4
 74
0
 40
0
 40
0
 40
0
 40
0
 40
1
 40
1
 40
1
 40
1
 10
230.958337
 20
734.957861
 30
0.0
 10
230.958242
 20
733.392463
 30
0.0
 10
229.689259
 20
732.123482
 30
0.0
 10
228.123862
 20
732.123388
 30
0.0
  0
SPLINE
  5
184
100
AcDbEntity
  8
Layer_1
 62
7
100
AcDbSpline
 70
8
 71
3
 72
8
 73
4
 74
0
 40
0
 40
0
 40
0
 40
0
 40
1
 40
1
 40
1
 40
1
 10
228.123862
 20
732.123388
 30
0.0
 10
226.558464
 20
732.123482
 30
0.0
 10
225.289482
 20
733.392463
 30
0.0
 10
225.289386
 20
734.957861
 30
0.0
  0
SPLINE
  5
185
100
AcDbEntity
  8
Layer_1
 62
7
100
AcDbSpline
 70
8
 71
3
 72
8
 73
4
 74
0
 40
0
 40
0
 40
0
 40
0
 40
1
 40
1
 40
1
 40
1
 10
225.289386
 20
734.957861
 30
0.0
 10
225.289338
 20
736.508514
 30
0.0
 10
226.535281
 20
737.771418
 30
0.0
 10
228.085792
 20
737.792337
 30
0.0
  0
LWPOLYLINE
  5
186
100
AcDbEntity
  8
Layer_1
 62
7
100
AcDbPolyline
 90
1
 70
1
 10
86.628869
 20
737.792337
 30
0.0
  0
SPLINE
  5
187
100
AcDbEntity
  8
Layer_1
 62
7
100
AcDbSpline
 70
8
 71
3
 72
8
 73
4
 74
0
 40
0
 40
0
 40
0
 40
0
 40
1
 40
1
 40
1
 40
1
 10
290.495565
 20
737.792337
 30
0.0
 10
290.508227
 20
737.792422
 30
0.0
 10
290.520888
 20
737.792422
 30
0.0
 10
290.533550
 20
737.792337
 30
0.0
  0
SPLINE
  5
188
100
AcDbEntity
  8
Layer_1
 62
7
100
AcDbSpline
 70
8
 71
3
 72
8
 73
4
 74
0
 40
0
 40
0
 40
0
 40
0
 40
1
 40
1
 40
1
 40
1
 10
290.533550
 20
737.792337
 30
0.0
 10
291.285536
 20
737.792675
 30
0.0
 10
292.006841
 20
737.494199
 30
0.0
 10
292.538711
 20
736.962599
 30
0.0
  0
SPLINE
  5
189
100
AcDbEntity
  8
Layer_1
 62
7
100
AcDbSpline
 70
8
 71
3
 72
8
 73
4
 74
0
 40
0
 40
0
 40
0
 40
0
 40
1
 40
1
 40
1
 40
1
 10
292.538711
 20
736.962599
 30
0.0
 10
293.070581
 20
736.431000
 30
0.0
 10
293.369426
 20
735.709847
 30
0.0
 10
293.369471
 20
734.957861
 30
0.0
  0
SPLINE
  5
18a
100
AcDbEntity
  8
Layer_1
 62
7
100
AcDbSpline
 70
8
 71
3
 72
8
 73
4
 74
0
 40
0
 40
0
 40
0
 40
0
 40
1
 40
1
 40
1
 40
1
 10
293.369471
 20
734.957861
 30
0.0
 10
293.369425
 20
734.205875
 30
0.0
 10
293.070580
 20
733.484723
 30
0.0
 10
292.538710
 20
732.953125
 30
0.0
  0
SPLINE
  5
18b
100
AcDbEntity
  8
Layer_1
 62
7
100
AcDbSpline
 70
8
 71
3
 72
8
 73
4
 74
0
 40
0
 40
0
 40
0
 40
0
 40
1
 40
1
 40
1
 40
1
 10
292.538710
 20
732.953125
 30
0.0
 10
292.006840
 20
732.421526
 30
0.0
 10
291.285535
 20
732.123050
 30
0.0
 10
290.533550
 20
732.123388
 30
0.0
  0
SPLINE
  5
18c
100
AcDbEntity
  8
Layer_1
 62
7
100
AcDbSpline
 70
8
 71
3
 72
8
 73
4
 74
0
 40
0
 40
0
 40
0
 40
0
 40
1
 40
1
 40
1
 40
1
 10
290.533550
 20
732.123388
 30
0.0
 10
288.968152
 20
732.123482
 30
0.0
 10
287.699170
 20
733.392463
 30
0.0
 10
287.699074
 20
734.957861
 30
0.0
  0
SPLINE
  5
18d
100
AcDbEntity
  8
Layer_1
 62
7
100
AcDbSpline
 70
8
 71
3
 72
8
 73
4
 74
0
 40
0
 40
0
 40
0
 40
0
 40
1
 40
1
 40
1
 40
1
 10
287.699074
 20
734.957861
 30
0.0
 10
287.699026
 20
736.508503
 30
0.0
 10
288.944951
 20
737.771403
 30
0.0
 10
290.495452
 20
737.792337
 30
0.0
  0
LWPOLYLINE
  5
18e
100
AcDbEntity
  8
Layer_1
 62
7
100
AcDbPolyline
 90
1
 70
1
 10
228.085792
 20
737.792337
 30
0.0
  0
SPLINE
  5
18f
100
AcDbEntity
  8
Layer_1
 62
7
100
AcDbSpline
 70
8
 71
3
 72
8
 73
4
 74
0
 40
0
 40
0
 40
0
 40
0
 40
1
 40
1
 40
1
 40
1
 10
517.834913
 20
737.792337
 30
0.0
 10
517.847575
 20
737.792422
 30
0.0
 10
517.860236
 20
737.792422
 30
0.0
 10
517.872898
 20
737.792337
 30
0.0
  0
SPLINE
  5
190
100
AcDbEntity
  8
Layer_1
 62
7
100
AcDbSpline
 70
8
 71
3
 72
8
 73
4
 74
0
 40
0
 40
0
 40
0
 40
0
 40
1
 40
1
 40
1
 40
1
 10
517.872898
 20
737.792337
 30
0.0
 10
519.438296
 20
737.792243
 30
0.0
 10
520.707279
 20
736.523260
 30
0.0
 10
520.707373
 20
734.957861
 30
0.0
  0
SPLINE
  5
191
100
AcDbEntity
  8
Layer_1
 62
7
100
AcDbSpline
 70
8
 71
3
 72
8
 73
4
 74
0
 40
0
 40
0
 40
0
 40
0
 40
1
 40
1
 40
1
 40
1
 10
520.707373
 20
734.957861
 30
0.0
 10
520.707278
 20
733.392463
 30
0.0
 10
519.438295
 20
732.123482
 30
0.0
 10
517.872898
 20
732.123388
 30
0.0
  0
SPLINE
  5
192
100
AcDbEntity
  8
Layer_1
 62
7
100
AcDbSpline
 70
8
 71
3
 72
8
 73
4
 74
0
 40
0
 40
0
 40
0
 40
0
 40
1
 40
1
 40
1
 40
1
 10
517.872898
 20
732.123388
 30
0.0
 10
516.307500
 20
732.123482
 30
0.0
 10
515.038518
 20
733.392463
 30
0.0
 10
515.038422
 20
734.957861
 30
0.0
  0
SPLINE
  5
193
100
AcDbEntity
  8
Layer_1
 62
7
100
AcDbSpline
 70
8
 71
3
 72
8
 73
4
 74
0
 40
0
 40
0
 40
0
 40
0
 40
1
 40
1
 40
1
 40
1
 10
515.038422
 20
734.957861
 30
0.0
 10
515.038374
 20
736.508503
 30
0.0
 10
516.284299
 20
737.771403
 30
0.0
 10
517.834800
 20
737.792337
 30
0.0
  0
LWPOLYLINE
  5
194
100
AcDbEntity
  8
Layer_1
 62
7
100
AcDbPolyline
 90
2
 70
0
 10
290.495452
 20
737.792337
 30
0.0
 10
290.495565
 20
737.792337
 30
0.0
  0
SPLINE
  5
195
100
AcDbEntity
  8
Layer_1
 62
7
100
AcDbSpline
 70
8
 71
3
 72
8
 73
4
 74
0
 40
0
 40
0
 40
0
 40
0
 40
1
 40
1
 40
1
 40
1
 10
585.863717
 20
737.792337
 30
0.0
 10
585.876378
 20
737.792422
 30
0.0
 10
585.889040
 20
737.792422
 30
0.0
 10
585.901701
 20
737.792337
 30
0.0
  0
SPLINE
  5
196
100
AcDbEntity
  8
Layer_1
 62
7
100
AcDbSpline
 70
8
 71
3
 72
8
 73
4
 74
0
 40
0
 40
0
 40
0
 40
0
 40
1
 40
1
 40
1
 40
1
 10
585.901701
 20
737.792337
 30
0.0
 10
587.467100
 20
737.792243
 30
0.0
 10
588.736082
 20
736.523260
 30
0.0
 10
588.736176
 20
734.957861
 30
0.0
  0
SPLINE
  5
197
100
AcDbEntity
  8
Layer_1
 62
7
100
AcDbSpline
 70
8
 71
3
 72
8
 73
4
 74
0
 40
0
 40
0
 40
0
 40
0
 40
1
 40
1
 40
1
 40
1
 10
588.736176
 20
734.957861
 30
0.0
 10
588.736081
 20
733.392463
 30
0.0
 10
587.467098
 20
732.123482
 30
0.0
 10
585.901701
 20
732.123388
 30
0.0
  0
SPLINE
  5
198
100
AcDbEntity
  8
Layer_1
 62
7
100
AcDbSpline
 70
8
 71
3
 72
8
 73
4
 74
0
 40
0
 40
0
 40
0
 40
0
 40
1
 40
1
 40
1
 40
1
 10
585.901701
 20
732.123388
 30
0.0
 10
584.336303
 20
732.123482
 30
0.0
 10
583.067321
 20
733.392463
 30
0.0
 10
583.067225
 20
734.957861
 30
0.0
  0
SPLINE
  5
199
100
AcDbEntity
  8
Layer_1
 62
7
100
AcDbSpline
 70
8
 71
3
 72
8
 73
4
 74
0
 40
0
 40
0
 40
0
 40
0
 40
1
 40
1
 40
1
 40
1
 10
583.067225
 20
734.957861
 30
0.0
 10
583.067177
 20
736.508503
 30
0.0
 10
584.313103
 20
737.771403
 30
0.0
 10
585.863603
 20
737.792337
 30
0.0
  0
LWPOLYLINE
  5
19a
100
AcDbEntity
  8
Layer_1
 62
7
100
AcDbPolyline
 90
2
 70
0
 10
517.834800
 20
737.792337
 30
0.0
 10
517.834913
 20
737.792337
 30
0.0
  0
LWPOLYLINE
  5
19b
100
AcDbEntity
  8
Layer_1
 62
7
100
AcDbPolyline
 90
2
 70
0
 10
585.863603
 20
737.792337
 30
0.0
 10
585.863717
 20
737.792337
 30
0.0
  0
LWPOLYLINE
  5
19c
100
AcDbEntity
  8
Layer_1
 62
7
100
AcDbPolyline
 90
10
 70
1
 10
115.597604
 20
723.619962
 30
0.0
 10
187.880321
 20
723.619962
 30
0.0
 10
187.880321
 20
649.919336
 30
0.0
 10
187.880321
 20
621.573086
 30
0.0
 10
154.998978
 20
621.573086
 30
0.0
 10
154.998978
 20
649.919336
 30
0.0
 10
148.478956
 20
649.919336
 30
0.0
 10
148.478956
 20
621.573086
 30
0.0
 10
115.597604
 20
621.573086
 30
0.0
 10
115.597604
 20
649.919336
 30
0.0
  0
LWPOLYLINE
  5
19d
100
AcDbEntity
  8
Layer_1
 62
7
100
AcDbPolyline
 90
28
 70
1
 10
240.840281
 20
721.592637
 30
0.0
 10
251.643512
 20
721.592637
 30
0.0
 10
251.643512
 20
716.459862
 30
0.0
 10
266.083934
 20
716.459862
 30
0.0
 10
266.083934
 20
713.625389
 30
0.0
 10
268.351509
 20
713.625389
 30
0.0
 10
268.351509
 20
704.837789
 30
0.0
 10
266.083934
 20
704.837789
 30
0.0
 10
266.083934
 20
688.396363
 30
0.0
 10
268.351509
 20
688.396363
 30
0.0
 10
268.351509
 20
679.610262
 30
0.0
 10
266.083934
 20
679.610262
 30
0.0
 10
266.083934
 20
676.774290
 30
0.0
 10
251.643512
 20
676.774290
 30
0.0
 10
251.643512
 20
671.641515
 30
0.0
 10
240.840281
 20
671.641515
 30
0.0
 10
240.840281
 20
676.774290
 30
0.0
 10
226.399859
 20
676.774290
 30
0.0
 10
226.399859
 20
679.610262
 30
0.0
 10
224.132284
 20
679.610262
 30
0.0
 10
224.132284
 20
688.396363
 30
0.0
 10
226.399859
 20
688.396363
 30
0.0
 10
226.399859
 20
704.837789
 30
0.0
 10
224.132284
 20
704.837789
 30
0.0
 10
224.132284
 20
713.625389
 30
0.0
 10
226.399859
 20
713.625389
 30
0.0
 10
226.399859
 20
716.459862
 30
0.0
 10
240.840281
 20
716.459862
 30
0.0
  0
LWPOLYLINE
  5
19e
100
AcDbEntity
  8
Layer_1
 62
7
100
AcDbPolyline
 90
28
 70
1
 10
294.840283
 20
721.592637
 30
0.0
 10
305.643515
 20
721.592637
 30
0.0
 10
305.643515
 20
716.459862
 30
0.0
 10
320.083937
 20
716.459862
 30
0.0
 10
320.083937
 20
713.625389
 30
0.0
 10
322.351512
 20
713.625389
 30
0.0
 10
322.351512
 20
704.837789
 30
0.0
 10
320.083937
 20
704.837789
 30
0.0
 10
320.083937
 20
688.396363
 30
0.0
 10
322.351512
 20
688.396363
 30
0.0
 10
322.351512
 20
679.610262
 30
0.0
 10
320.083937
 20
679.610262
 30
0.0
 10
320.083937
 20
676.774290
 30
0.0
 10
305.643515
 20
676.774290
 30
0.0
 10
305.643515
 20
671.641515
 30
0.0
 10
294.840283
 20
671.641515
 30
0.0
 10
294.840283
 20
676.774290
 30
0.0
 10
280.399859
 20
676.774290
 30
0.0
 10
280.399859
 20
679.610262
 30
0.0
 10
278.132284
 20
679.610262
 30
0.0
 10
278.132284
 20
688.396363
 30
0.0
 10
280.399859
 20
688.396363
 30
0.0
 10
280.399859
 20
704.837789
 30
0.0
 10
278.132284
 20
704.837789
 30
0.0
 10
278.132284
 20
713.625389
 30
0.0
 10
280.399859
 20
713.625389
 30
0.0
 10
280.399859
 20
716.459862
 30
0.0
 10
294.840283
 20
716.459862
 30
0.0
  0
LWPOLYLINE
  5
19f
100
AcDbEntity
  8
Layer_1
 62
7
100
AcDbPolyline
 90
28
 70
1
 10
348.840283
 20
721.592637
 30
0.0
 10
359.643515
 20
721.592637
 30
0.0
 10
359.643515
 20
716.459862
 30
0.0
 10
374.083937
 20
716.459862
 30
0.0
 10
374.083937
 20
713.625389
 30
0.0
 10
376.351512
 20
713.625389
 30
0.0
 10
376.351512
 20
704.837789
 30
0.0
 10
374.083937
 20
704.837789
 30
0.0
 10
374.083937
 20
688.396363
 30
0.0
 10
376.351512
 20
688.396363
 30
0.0
 10
376.351512
 20
679.610262
 30
0.0
 10
374.083937
 20
679.610262
 30
0.0
 10
374.083937
 20
676.774290
 30
0.0
 10
359.643515
 20
676.774290
 30
0.0
 10
359.643515
 20
671.641515
 30
0.0
 10
348.840283
 20
671.641515
 30
0.0
 10
348.840283
 20
676.774290
 30
0.0
 10
334.399861
 20
676.774290
 30
0.0
 10
334.399861
 20
679.610262
 30
0.0
 10
332.132287
 20
679.610262
 30
0.0
 10
332.132287
 20
688.396363
 30
0.0
 10
334.399861
 20
688.396363
 30
0.0
 10
334.399861
 20
704.837789
 30
0.0
 10
332.132287
 20
704.837789
 30
0.0
 10
332.132287
 20
713.625389
 30
0.0
 10
334.399861
 20
713.625389
 30
0.0
 10
334.399861
 20
716.459862
 30
0.0
 10
348.840283
 20
716.459862
 30
0.0
  0
LWPOLYLINE
  5
1a0
100
AcDbEntity
  8
Layer_1
 62
7
100
AcDbPolyline
 90
28
 70
1
 10
402.840283
 20
721.592637
 30
0.0
 10
413.643515
 20
721.592637
 30
0.0
 10
413.643515
 20
716.459862
 30
0.0
 10
428.083937
 20
716.459862
 30
0.0
 10
428.083937
 20
713.625389
 30
0.0
 10
430.351512
 20
713.625389
 30
0.0
 10
430.351512
 20
704.837789
 30
0.0
 10
428.083937
 20
704.837789
 30
0.0
 10
428.083937
 20
688.396363
 30
0.0
 10
430.351512
 20
688.396363
 30
0.0
 10
430.351512
 20
679.610262
 30
0.0
 10
428.083937
 20
679.610262
 30
0.0
 10
428.083937
 20
676.774290
 30
0.0
 10
413.643515
 20
676.774290
 30
0.0
 10
413.643515
 20
671.641515
 30
0.0
 10
402.840283
 20
671.641515
 30
0.0
 10
402.840283
 20
676.774290
 30
0.0
 10
388.399861
 20
676.774290
 30
0.0
 10
388.399861
 20
679.610262
 30
0.0
 10
386.132258
 20
679.610262
 30
0.0
 10
386.132258
 20
688.396363
 30
0.0
 10
388.399861
 20
688.396363
 30
0.0
 10
388.399861
 20
704.837789
 30
0.0
 10
386.132258
 20
704.837789
 30
0.0
 10
386.132258
 20
713.625389
 30
0.0
 10
388.399861
 20
713.625389
 30
0.0
 10
388.399861
 20
716.459862
 30
0.0
 10
402.840283
 20
716.459862
 30
0.0
  0
LWPOLYLINE
  5
1a1
100
AcDbEntity
  8
Layer_1
 62
7
100
AcDbPolyline
 90
28
 70
1
 10
456.840283
 20
721.592637
 30
0.0
 10
467.643515
 20
721.592637
 30
0.0
 10
467.643515
 20
716.459862
 30
0.0
 10
482.083937
 20
716.459862
 30
0.0
 10
482.083937
 20
713.625389
 30
0.0
 10
484.351512
 20
713.625389
 30
0.0
 10
484.351512
 20
704.837789
 30
0.0
 10
482.083937
 20
704.837789
 30
0.0
 10
482.083937
 20
688.396363
 30
0.0
 10
484.351512
 20
688.396363
 30
0.0
 10
484.351512
 20
679.610262
 30
0.0
 10
482.083937
 20
679.610262
 30
0.0
 10
482.083937
 20
676.774290
 30
0.0
 10
467.643515
 20
676.774290
 30
0.0
 10
467.643515
 20
671.641515
 30
0.0
 10
456.840283
 20
671.641515
 30
0.0
 10
456.840283
 20
676.774290
 30
0.0
 10
442.399861
 20
676.774290
 30
0.0
 10
442.399861
 20
679.610262
 30
0.0
 10
440.132258
 20
679.610262
 30
0.0
 10
440.132258
 20
688.396363
 30
0.0
 10
442.399861
 20
688.396363
 30
0.0
 10
442.399861
 20
704.837789
 30
0.0
 10
440.132258
 20
704.837789
 30
0.0
 10
440.132258
 20
713.625389
 30
0.0
 10
442.399861
 20
713.625389
 30
0.0
 10
442.399861
 20
716.459862
 30
0.0
 10
456.840283
 20
716.459862
 30
0.0
  0
LWPOLYLINE
  5
1a2
100
AcDbEntity
  8
Layer_1
 62
7
100
AcDbPolyline
 90
28
 70
1
 10
510.840283
 20
721.592637
 30
0.0
 10
521.643515
 20
721.592637
 30
0.0
 10
521.643515
 20
716.459862
 30
0.0
 10
536.083937
 20
716.459862
 30
0.0
 10
536.083937
 20
713.625389
 30
0.0
 10
538.351512
 20
713.625389
 30
0.0
 10
538.351512
 20
704.837789
 30
0.0
 10
536.083937
 20
704.837789
 30
0.0
 10
536.083937
 20
688.396363
 30
0.0
 10
538.351512
 20
688.396363
 30
0.0
 10
538.351512
 20
679.610262
 30
0.0
 10
536.083937
 20
679.610262
 30
0.0
 10
536.083937
 20
676.774290
 30
0.0
 10
521.643515
 20
676.774290
 30
0.0
 10
521.643515
 20
671.641515
 30
0.0
 10
510.840283
 20
671.641515
 30
0.0
 10
510.840283
 20
676.774290
 30
0.0
 10
496.399861
 20
676.774290
 30
0.0
 10
496.399861
 20
679.610262
 30
0.0
 10
494.132258
 20
679.610262
 30
0.0
 10
494.132258
 20
688.396363
 30
0.0
 10
496.399861
 20
688.396363
 30
0.0
 10
496.399861
 20
704.837789
 30
0.0
 10
494.132258
 20
704.837789
 30
0.0
 10
494.132258
 20
713.625389
 30
0.0
 10
496.399861
 20
713.625389
 30
0.0
 10
496.399861
 20
716.459862
 30
0.0
 10
510.840283
 20
716.459862
 30
0.0
  0
LWPOLYLINE
  5
1a3
100
AcDbEntity
  8
Layer_1
 62
7
100
AcDbPolyline
 90
28
 70
1
 10
564.840283
 20
721.592637
 30
0.0
 10
575.643515
 20
721.592637
 30
0.0
 10
575.643515
 20
716.459862
 30
0.0
 10
590.083937
 20
716.459862
 30
0.0
 10
590.083937
 20
713.625389
 30
0.0
 10
592.351512
 20
713.625389
 30
0.0
 10
592.351512
 20
704.837789
 30
0.0
 10
590.083937
 20
704.837789
 30
0.0
 10
590.083937
 20
688.396363
 30
0.0
 10
592.351512
 20
688.396363
 30
0.0
 10
592.351512
 20
679.610262
 30
0.0
 10
590.083937
 20
679.610262
 30
0.0
 10
590.083937
 20
676.774290
 30
0.0
 10
575.643515
 20
676.774290
 30
0.0
 10
575.643515
 20
671.641515
 30
0.0
 10
564.840283
 20
671.641515
 30
0.0
 10
564.840283
 20
676.774290
 30
0.0
 10
550.399861
 20
676.774290
 30
0.0
 10
550.399861
 20
679.610262
 30
0.0
 10
548.132258
 20
679.610262
 30
0.0
 10
548.132258
 20
688.396363
 30
0.0
 10
550.399861
 20
688.396363
 30
0.0
 10
550.399861
 20
704.837789
 30
0.0
 10
548.132258
 20
704.837789
 30
0.0
 10
548.132258
 20
713.625389
 30
0.0
 10
550.399861
 20
713.625389
 30
0.0
 10
550.399861
 20
716.459862
 30
0.0
 10
564.840283
 20
716.459862
 30
0.0
  0
LWPOLYLINE
  5
1a4
100
AcDbEntity
  8
Layer_1
 62
7
100
AcDbPolyline
 90
28
 70
1
 10
254.341755
 20
667.592634
 30
0.0
 10
265.144958
 20
667.592634
 30
0.0
 10
265.144958
 20
662.459859
 30
0.0
 10
279.585408
 20
662.459859
 30
0.0
 10
279.585408
 20
659.625386
 30
0.0
 10
281.852983
 20
659.625386
 30
0.0
 10
281.852983
 20
650.837786
 30
0.0
 10
279.585408
 20
650.837786
 30
0.0
 10
279.585408
 20
634.396360
 30
0.0
 10
281.852983
 20
634.396360
 30
0.0
 10
281.852983
 20
625.610259
 30
0.0
 10
279.585408
 20
625.610259
 30
0.0
 10
279.585408
 20
622.774284
 30
0.0
 10
265.144958
 20
622.774284
 30
0.0
 10
265.144958
 20
617.641512
 30
0.0
 10
254.341755
 20
617.641512
 30
0.0
 10
254.341755
 20
622.774284
 30
0.0
 10
239.901333
 20
622.774284
 30
0.0
 10
239.901333
 20
625.610259
 30
0.0
 10
237.633729
 20
625.610259
 30
0.0
 10
237.633729
 20
634.396360
 30
0.0
 10
239.901333
 20
634.396360
 30
0.0
 10
239.901333
 20
650.837786
 30
0.0
 10
237.633729
 20
650.837786
 30
0.0
 10
237.633729
 20
659.625386
 30
0.0
 10
239.901333
 20
659.625386
 30
0.0
 10
239.901333
 20
662.459859
 30
0.0
 10
254.341755
 20
662.459859
 30
0.0
  0
LWPOLYLINE
  5
1a5
100
AcDbEntity
  8
Layer_1
 62
7
100
AcDbPolyline
 90
28
 70
1
 10
321.840283
 20
667.592634
 30
0.0
 10
332.643515
 20
667.592634
 30
0.0
 10
332.643515
 20
662.459859
 30
0.0
 10
347.083937
 20
662.459859
 30
0.0
 10
347.083937
 20
659.625386
 30
0.0
 10
349.351512
 20
659.625386
 30
0.0
 10
349.351512
 20
650.837786
 30
0.0
 10
347.083937
 20
650.837786
 30
0.0
 10
347.083937
 20
634.396360
 30
0.0
 10
349.351512
 20
634.396360
 30
0.0
 10
349.351512
 20
625.610259
 30
0.0
 10
347.083937
 20
625.610259
 30
0.0
 10
347.083937
 20
622.774284
 30
0.0
 10
332.643515
 20
622.774284
 30
0.0
 10
332.643515
 20
617.641512
 30
0.0
 10
321.840283
 20
617.641512
 30
0.0
 10
321.840283
 20
622.774284
 30
0.0
 10
307.399861
 20
622.774284
 30
0.0
 10
307.399861
 20
625.610259
 30
0.0
 10
305.132287
 20
625.610259
 30
0.0
 10
305.132287
 20
634.396360
 30
0.0
 10
307.399861
 20
634.396360
 30
0.0
 10
307.399861
 20
650.837786
 30
0.0
 10
305.132287
 20
650.837786
 30
0.0
 10
305.132287
 20
659.625386
 30
0.0
 10
307.399861
 20
659.625386
 30
0.0
 10
307.399861
 20
662.459859
 30
0.0
 10
321.840283
 20
662.459859
 30
0.0
  0
LWPOLYLINE
  5
1a6
100
AcDbEntity
  8
Layer_1
 62
7
100
AcDbPolyline
 90
28
 70
1
 10
375.840283
 20
667.592634
 30
0.0
 10
386.643515
 20
667.592634
 30
0.0
 10
386.643515
 20
662.459859
 30
0.0
 10
401.083937
 20
662.459859
 30
0.0
 10
401.083937
 20
659.625386
 30
0.0
 10
403.351512
 20
659.625386
 30
0.0
 10
403.351512
 20
650.837786
 30
0.0
 10
401.083937
 20
650.837786
 30
0.0
 10
401.083937
 20
634.396360
 30
0.0
 10
403.351512
 20
634.396360
 30
0.0
 10
403.351512
 20
625.610259
 30
0.0
 10
401.083937
 20
625.610259
 30
0.0
 10
401.083937
 20
622.774284
 30
0.0
 10
386.643515
 20
622.774284
 30
0.0
 10
386.643515
 20
617.641512
 30
0.0
 10
375.840283
 20
617.641512
 30
0.0
 10
375.840283
 20
622.774284
 30
0.0
 10
361.399861
 20
622.774284
 30
0.0
 10
361.399861
 20
625.610259
 30
0.0
 10
359.132258
 20
625.610259
 30
0.0
 10
359.132258
 20
634.396360
 30
0.0
 10
361.399861
 20
634.396360
 30
0.0
 10
361.399861
 20
650.837786
 30
0.0
 10
359.132258
 20
650.837786
 30
0.0
 10
359.132258
 20
659.625386
 30
0.0
 10
361.399861
 20
659.625386
 30
0.0
 10
361.399861
 20
662.459859
 30
0.0
 10
375.840283
 20
662.459859
 30
0.0
  0
LWPOLYLINE
  5
1a7
100
AcDbEntity
  8
Layer_1
 62
7
100
AcDbPolyline
 90
28
 70
1
 10
429.840283
 20
667.592634
 30
0.0
 10
440.643515
 20
667.592634
 30
0.0
 10
440.643515
 20
662.459859
 30
0.0
 10
455.083937
 20
662.459859
 30
0.0
 10
455.083937
 20
659.625386
 30
0.0
 10
457.351512
 20
659.625386
 30
0.0
 10
457.351512
 20
650.837786
 30
0.0
 10
455.083937
 20
650.837786
 30
0.0
 10
455.083937
 20
634.396360
 30
0.0
 10
457.351512
 20
634.396360
 30
0.0
 10
457.351512
 20
625.610259
 30
0.0
 10
455.083937
 20
625.610259
 30
0.0
 10
455.083937
 20
622.774284
 30
0.0
 10
440.643515
 20
622.774284
 30
0.0
 10
440.643515
 20
617.641512
 30
0.0
 10
429.840283
 20
617.641512
 30
0.0
 10
429.840283
 20
622.774284
 30
0.0
 10
415.399861
 20
622.774284
 30
0.0
 10
415.399861
 20
625.610259
 30
0.0
 10
413.132258
 20
625.610259
 30
0.0
 10
413.132258
 20
634.396360
 30
0.0
 10
415.399861
 20
634.396360
 30
0.0
 10
415.399861
 20
650.837786
 30
0.0
 10
413.132258
 20
650.837786
 30
0.0
 10
413.132258
 20
659.625386
 30
0.0
 10
415.399861
 20
659.625386
 30
0.0
 10
415.399861
 20
662.459859
 30
0.0
 10
429.840283
 20
662.459859
 30
0.0
  0
LWPOLYLINE
  5
1a8
100
AcDbEntity
  8
Layer_1
 62
7
100
AcDbPolyline
 90
28
 70
1
 10
483.840283
 20
667.592634
 30
0.0
 10
494.643515
 20
667.592634
 30
0.0
 10
494.643515
 20
662.459859
 30
0.0
 10
509.083937
 20
662.459859
 30
0.0
 10
509.083937
 20
659.625386
 30
0.0
 10
511.351512
 20
659.625386
 30
0.0
 10
511.351512
 20
650.837786
 30
0.0
 10
509.083937
 20
650.837786
 30
0.0
 10
509.083937
 20
634.396360
 30
0.0
 10
511.351512
 20
634.396360
 30
0.0
 10
511.351512
 20
625.610259
 30
0.0
 10
509.083937
 20
625.610259
 30
0.0
 10
509.083937
 20
622.774284
 30
0.0
 10
494.643515
 20
622.774284
 30
0.0
 10
494.643515
 20
617.641512
 30
0.0
 10
483.840283
 20
617.641512
 30
0.0
 10
483.840283
 20
622.774284
 30
0.0
 10
469.399861
 20
622.774284
 30
0.0
 10
469.399861
 20
625.610259
 30
0.0
 10
467.132258
 20
625.610259
 30
0.0
 10
467.132258
 20
634.396360
 30
0.0
 10
469.399861
 20
634.396360
 30
0.0
 10
469.399861
 20
650.837786
 30
0.0
 10
467.132258
 20
650.837786
 30
0.0
 10
467.132258
 20
659.625386
 30
0.0
 10
469.399861
 20
659.625386
 30
0.0
 10
469.399861
 20
662.459859
 30
0.0
 10
483.840283
 20
662.459859
 30
0.0
  0
LWPOLYLINE
  5
1a9
100
AcDbEntity
  8
Layer_1
 62
7
100
AcDbPolyline
 90
28
 70
1
 10
537.840283
 20
667.592634
 30
0.0
 10
548.643515
 20
667.592634
 30
0.0
 10
548.643515
 20
662.459859
 30
0.0
 10
563.083937
 20
662.459859
 30
0.0
 10
563.083937
 20
659.625386
 30
0.0
 10
565.351512
 20
659.625386
 30
0.0
 10
565.351512
 20
650.837786
 30
0.0
 10
563.083937
 20
650.837786
 30
0.0
 10
563.083937
 20
634.396360
 30
0.0
 10
565.351512
 20
634.396360
 30
0.0
 10
565.351512
 20
625.610259
 30
0.0
 10
563.083937
 20
625.610259
 30
0.0
 10
563.083937
 20
622.774284
 30
0.0
 10
548.643515
 20
622.774284
 30
0.0
 10
548.643515
 20
617.641512
 30
0.0
 10
537.840283
 20
617.641512
 30
0.0
 10
537.840283
 20
622.774284
 30
0.0
 10
523.399861
 20
622.774284
 30
0.0
 10
523.399861
 20
625.610259
 30
0.0
 10
521.132258
 20
625.610259
 30
0.0
 10
521.132258
 20
634.396360
 30
0.0
 10
523.399861
 20
634.396360
 30
0.0
 10
523.399861
 20
650.837786
 30
0.0
 10
521.132258
 20
650.837786
 30
0.0
 10
521.132258
 20
659.625386
 30
0.0
 10
523.399861
 20
659.625386
 30
0.0
 10
523.399861
 20
662.459859
 30
0.0
 10
537.840283
 20
662.459859
 30
0.0
  0
LWPOLYLINE
  5
1aa
100
AcDbEntity
  8
Layer_1
 62
7
100
AcDbPolyline
 90
28
 70
1
 10
261.091755
 20
613.592634
 30
0.0
 10
271.894958
 20
613.592634
 30
0.0
 10
271.894958
 20
608.459859
 30
0.0
 10
286.335411
 20
608.459859
 30
0.0
 10
286.335411
 20
605.625386
 30
0.0
 10
288.602986
 20
605.625386
 30
0.0
 10
288.602986
 20
596.837786
 30
0.0
 10
286.335411
 20
596.837786
 30
0.0
 10
286.335411
 20
580.396360
 30
0.0
 10
288.602986
 20
580.396360
 30
0.0
 10
288.602986
 20
571.610259
 30
0.0
 10
286.335411
 20
571.610259
 30
0.0
 10
286.335411
 20
568.774284
 30
0.0
 10
271.894958
 20
568.774284
 30
0.0
 10
271.894958
 20
563.641512
 30
0.0
 10
261.091755
 20
563.641512
 30
0.0
 10
261.091755
 20
568.774284
 30
0.0
 10
246.651333
 20
568.774284
 30
0.0
 10
246.651333
 20
571.610259
 30
0.0
 10
244.383729
 20
571.610259
 30
0.0
 10
244.383729
 20
580.396360
 30
0.0
 10
246.651333
 20
580.396360
 30
0.0
 10
246.651333
 20
596.837786
 30
0.0
 10
244.383729
 20
596.837786
 30
0.0
 10
244.383729
 20
605.625386
 30
0.0
 10
246.651333
 20
605.625386
 30
0.0
 10
246.651333
 20
608.459859
 30
0.0
 10
261.091755
 20
608.459859
 30
0.0
  0
LWPOLYLINE
  5
1ab
100
AcDbEntity
  8
Layer_1
 62
7
100
AcDbPolyline
 90
28
 70
1
 10
335.341757
 20
613.592634
 30
0.0
 10
346.144961
 20
613.592634
 30
0.0
 10
346.144961
 20
608.459859
 30
0.0
 10
360.585411
 20
608.459859
 30
0.0
 10
360.585411
 20
605.625386
 30
0.0
 10
362.852986
 20
605.625386
 30
0.0
 10
362.852986
 20
596.837786
 30
0.0
 10
360.585411
 20
596.837786
 30
0.0
 10
360.585411
 20
580.396360
 30
0.0
 10
362.852986
 20
580.396360
 30
0.0
 10
362.852986
 20
571.610259
 30
0.0
 10
360.585411
 20
571.610259
 30
0.0
 10
360.585411
 20
568.774284
 30
0.0
 10
346.144961
 20
568.774284
 30
0.0
 10
346.144961
 20
563.641512
 30
0.0
 10
335.341757
 20
563.641512
 30
0.0
 10
335.341757
 20
568.774284
 30
0.0
 10
320.901335
 20
568.774284
 30
0.0
 10
320.901335
 20
571.610259
 30
0.0
 10
318.633732
 20
571.610259
 30
0.0
 10
318.633732
 20
580.396360
 30
0.0
 10
320.901335
 20
580.396360
 30
0.0
 10
320.901335
 20
596.837786
 30
0.0
 10
318.633732
 20
596.837786
 30
0.0
 10
318.633732
 20
605.625386
 30
0.0
 10
320.901335
 20
605.625386
 30
0.0
 10
320.901335
 20
608.459859
 30
0.0
 10
335.341757
 20
608.459859
 30
0.0
  0
LWPOLYLINE
  5
1ac
100
AcDbEntity
  8
Layer_1
 62
7
100
AcDbPolyline
 90
28
 70
1
 10
389.338809
 20
613.592634
 30
0.0
 10
400.142041
 20
613.592634
 30
0.0
 10
400.142041
 20
608.459859
 30
0.0
 10
414.582463
 20
608.459859
 30
0.0
 10
414.582463
 20
605.625386
 30
0.0
 10
416.850038
 20
605.625386
 30
0.0
 10
416.850038
 20
596.837786
 30
0.0
 10
414.582463
 20
596.837786
 30
0.0
 10
414.582463
 20
580.396360
 30
0.0
 10
416.850038
 20
580.396360
 30
0.0
 10
416.850038
 20
571.610259
 30
0.0
 10
414.582463
 20
571.610259
 30
0.0
 10
414.582463
 20
568.774284
 30
0.0
 10
400.142041
 20
568.774284
 30
0.0
 10
400.142041
 20
563.641512
 30
0.0
 10
389.338809
 20
563.641512
 30
0.0
 10
389.338809
 20
568.774284
 30
0.0
 10
374.898387
 20
568.774284
 30
0.0
 10
374.898387
 20
571.610259
 30
0.0
 10
372.630813
 20
571.610259
 30
0.0
 10
372.630813
 20
580.396360
 30
0.0
 10
374.898387
 20
580.396360
 30
0.0
 10
374.898387
 20
596.837786
 30
0.0
 10
372.630813
 20
596.837786
 30
0.0
 10
372.630813
 20
605.625386
 30
0.0
 10
374.898387
 20
605.625386
 30
0.0
 10
374.898387
 20
608.459859
 30
0.0
 10
389.338809
 20
608.459859
 30
0.0
  0
LWPOLYLINE
  5
1ad
100
AcDbEntity
  8
Layer_1
 62
7
100
AcDbPolyline
 90
28
 70
1
 10
443.338809
 20
613.592634
 30
0.0
 10
454.142041
 20
613.592634
 30
0.0
 10
454.142041
 20
608.459859
 30
0.0
 10
468.582463
 20
608.459859
 30
0.0
 10
468.582463
 20
605.625386
 30
0.0
 10
470.850038
 20
605.625386
 30
0.0
 10
470.850038
 20
596.837786
 30
0.0
 10
468.582463
 20
596.837786
 30
0.0
 10
468.582463
 20
580.396360
 30
0.0
 10
470.850038
 20
580.396360
 30
0.0
 10
470.850038
 20
571.610259
 30
0.0
 10
468.582463
 20
571.610259
 30
0.0
 10
468.582463
 20
568.774284
 30
0.0
 10
454.142041
 20
568.774284
 30
0.0
 10
454.142041
 20
563.641512
 30
0.0
 10
443.338809
 20
563.641512
 30
0.0
 10
443.338809
 20
568.774284
 30
0.0
 10
428.898387
 20
568.774284
 30
0.0
 10
428.898387
 20
571.610259
 30
0.0
 10
426.630813
 20
571.610259
 30
0.0
 10
426.630813
 20
580.396360
 30
0.0
 10
428.898387
 20
580.396360
 30
0.0
 10
428.898387
 20
596.837786
 30
0.0
 10
426.630813
 20
596.837786
 30
0.0
 10
426.630813
 20
605.625386
 30
0.0
 10
428.898387
 20
605.625386
 30
0.0
 10
428.898387
 20
608.459859
 30
0.0
 10
443.338809
 20
608.459859
 30
0.0
  0
LWPOLYLINE
  5
1ae
100
AcDbEntity
  8
Layer_1
 62
7
100
AcDbPolyline
 90
28
 70
1
 10
497.341757
 20
613.592634
 30
0.0
 10
508.144961
 20
613.592634
 30
0.0
 10
508.144961
 20
608.459859
 30
0.0
 10
522.585411
 20
608.459859
 30
0.0
 10
522.585411
 20
605.625386
 30
0.0
 10
524.852986
 20
605.625386
 30
0.0
 10
524.852986
 20
596.837786
 30
0.0
 10
522.585411
 20
596.837786
 30
0.0
 10
522.585411
 20
580.396360
 30
0.0
 10
524.852986
 20
580.396360
 30
0.0
 10
524.852986
 20
571.610259
 30
0.0
 10
522.585411
 20
571.610259
 30
0.0
 10
522.585411
 20
568.774284
 30
0.0
 10
508.144961
 20
568.774284
 30
0.0
 10
508.144961
 20
563.641512
 30
0.0
 10
497.341757
 20
563.641512
 30
0.0
 10
497.341757
 20
568.774284
 30
0.0
 10
482.901307
 20
568.774284
 30
0.0
 10
482.901307
 20
571.610259
 30
0.0
 10
480.633732
 20
571.610259
 30
0.0
 10
480.633732
 20
580.396360
 30
0.0
 10
482.901307
 20
580.396360
 30
0.0
 10
482.901307
 20
596.837786
 30
0.0
 10
480.633732
 20
596.837786
 30
0.0
 10
480.633732
 20
605.625386
 30
0.0
 10
482.901307
 20
605.625386
 30
0.0
 10
482.901307
 20
608.459859
 30
0.0
 10
497.341757
 20
608.459859
 30
0.0
  0
LWPOLYLINE
  5
1af
100
AcDbEntity
  8
Layer_1
 62
7
100
AcDbPolyline
 90
28
 70
1
 10
551.341757
 20
613.592634
 30
0.0
 10
562.144961
 20
613.592634
 30
0.0
 10
562.144961
 20
608.459859
 30
0.0
 10
576.585411
 20
608.459859
 30
0.0
 10
576.585411
 20
605.625386
 30
0.0
 10
578.852986
 20
605.625386
 30
0.0
 10
578.852986
 20
596.837786
 30
0.0
 10
576.585411
 20
596.837786
 30
0.0
 10
576.585411
 20
580.396360
 30
0.0
 10
578.852986
 20
580.396360
 30
0.0
 10
578.852986
 20
571.610259
 30
0.0
 10
576.585411
 20
571.610259
 30
0.0
 10
576.585411
 20
568.774284
 30
0.0
 10
562.144961
 20
568.774284
 30
0.0
 10
562.144961
 20
563.641512
 30
0.0
 10
551.341757
 20
563.641512
 30
0.0
 10
551.341757
 20
568.774284
 30
0.0
 10
536.901307
 20
568.774284
 30
0.0
 10
536.901307
 20
571.610259
 30
0.0
 10
534.633732
 20
571.610259
 30
0.0
 10
534.633732
 20
580.396360
 30
0.0
 10
536.901307
 20
580.396360
 30
0.0
 10
536.901307
 20
596.837786
 30
0.0
 10
534.633732
 20
596.837786
 30
0.0
 10
534.633732
 20
605.625386
 30
0.0
 10
536.901307
 20
605.625386
 30
0.0
 10
536.901307
 20
608.459859
 30
0.0
 10
551.341757
 20
608.459859
 30
0.0
  0
LWPOLYLINE
  5
1b0
100
AcDbEntity
  8
Layer_1
 62
7
100
AcDbPolyline
 90
20
 70
1
 10
158.901318
 20
608.459859
 30
0.0
 10
198.585400
 20
608.459859
 30
0.0
 10
198.585400
 20
605.625386
 30
0.0
 10
200.852980
 20
605.625386
 30
0.0
 10
200.852980
 20
596.837786
 30
0.0
 10
198.585400
 20
596.837786
 30
0.0
 10
198.585400
 20
580.396360
 30
0.0
 10
200.852980
 20
580.396360
 30
0.0
 10
200.852980
 20
571.608760
 30
0.0
 10
198.585400
 20
571.608760
 30
0.0
 10
198.585400
 20
568.774284
 30
0.0
 10
158.901318
 20
568.774284
 30
0.0
 10
158.901318
 20
571.608760
 30
0.0
 10
156.633738
 20
571.608760
 30
0.0
 10
156.633738
 20
580.396360
 30
0.0
 10
158.901318
 20
580.396360
 30
0.0
 10
158.901318
 20
596.837786
 30
0.0
 10
156.633738
 20
596.837786
 30
0.0
 10
156.633738
 20
605.625386
 30
0.0
 10
158.901318
 20
605.625386
 30
0.0
  0
LWPOLYLINE
  5
1b1
100
AcDbEntity
  8
Layer_1
 62
7
100
AcDbPolyline
 90
4
 70
1
 10
111.560496
 20
598.680536
 30
0.0
 10
137.923291
 20
598.680536
 30
0.0
 10
137.923291
 20
470.555036
 30
0.0
 10
111.560496
 20
470.555036
 30
0.0
  0
LWPOLYLINE
  5
1b2
100
AcDbEntity
  8
Layer_1
 62
7
100
AcDbPolyline
 90
84
 70
1
 10
274.587361
 20
559.595560
 30
0.0
 10
285.393515
 20
559.595560
 30
0.0
 10
285.393515
 20
554.462787
 30
0.0
 10
299.833937
 20
554.462787
 30
0.0
 10
304.156687
 20
554.462787
 30
0.0
 10
304.156687
 20
558.485260
 30
0.0
 10
323.290488
 20
558.485260
 30
0.0
 10
323.290488
 20
550.292343
 30
0.0
 10
323.290488
 20
541.137090
 30
0.0
 10
325.628391
 20
541.137090
 30
0.0
 10
325.628391
 20
533.200592
 30
0.0
 10
323.290488
 20
533.200592
 30
0.0
 10
323.290488
 20
530.553600
 30
0.0
 10
323.290488
 20
515.429121
 30
0.0
 10
323.290488
 20
505.594148
 30
0.0
 10
325.894961
 20
505.594148
 30
0.0
 10
325.894961
 20
500.462787
 30
0.0
 10
340.335411
 20
500.462787
 30
0.0
 10
340.335411
 20
497.628312
 30
0.0
 10
342.602986
 20
497.628312
 30
0.0
 10
342.602986
 20
488.840712
 30
0.0
 10
340.335411
 20
488.840712
 30
0.0
 10
340.335411
 20
472.397868
 30
0.0
 10
342.602986
 20
472.397868
 30
0.0
 10
342.602986
 20
463.611685
 30
0.0
 10
340.335411
 20
463.611685
 30
0.0
 10
340.335411
 20
460.775792
 30
0.0
 10
325.894961
 20
460.775792
 30
0.0
 10
325.894961
 20
455.642957
 30
0.0
 10
315.091757
 20
455.642957
 30
0.0
 10
315.091757
 20
460.775792
 30
0.0
 10
300.651335
 20
460.775792
 30
0.0
 10
300.651335
 20
463.611685
 30
0.0
 10
298.383732
 20
463.611685
 30
0.0
 10
298.383732
 20
472.397868
 30
0.0
 10
300.651335
 20
472.397868
 30
0.0
 10
300.651335
 20
488.840712
 30
0.0
 10
298.383732
 20
488.840712
 30
0.0
 10
298.383732
 20
497.628312
 30
0.0
 10
300.651335
 20
497.628312
 30
0.0
 10
300.651335
 20
500.462787
 30
0.0
 10
315.091757
 20
500.462787
 30
0.0
 10
315.091757
 20
504.571663
 30
0.0
 10
258.393512
 20
504.571663
 30
0.0
 10
258.393512
 20
500.462787
 30
0.0
 10
272.833934
 20
500.462787
 30
0.0
 10
272.833934
 20
497.628312
 30
0.0
 10
275.101509
 20
497.628312
 30
0.0
 10
275.101509
 20
488.840712
 30
0.0
 10
272.833934
 20
488.840712
 30
0.0
 10
272.833934
 20
472.399285
 30
0.0
 10
275.101509
 20
472.399285
 30
0.0
 10
275.101509
 20
463.613187
 30
0.0
 10
272.833934
 20
463.613187
 30
0.0
 10
272.833934
 20
460.777209
 30
0.0
 10
258.393512
 20
460.777209
 30
0.0
 10
258.393512
 20
455.644460
 30
0.0
 10
247.590281
 20
455.644460
 30
0.0
 10
247.590281
 20
460.777209
 30
0.0
 10
233.149859
 20
460.777209
 30
0.0
 10
233.149859
 20
463.613187
 30
0.0
 10
230.882284
 20
463.613187
 30
0.0
 10
230.882284
 20
472.399285
 30
0.0
 10
233.149859
 20
472.399285
 30
0.0
 10
233.149859
 20
488.840712
 30
0.0
 10
230.882284
 20
488.840712
 30
0.0
 10
230.882284
 20
497.628312
 30
0.0
 10
233.149859
 20
497.628312
 30
0.0
 10
233.149859
 20
500.462787
 30
0.0
 10
247.590281
 20
500.462787
 30
0.0
 10
247.590281
 20
504.571663
 30
0.0
 10
236.690388
 20
504.571663
 30
0.0
 10
236.690388
 20
515.430539
 30
0.0
 10
236.690388
 20
530.553600
 30
0.0
 10
236.690388
 20
533.200592
 30
0.0
 10
234.352485
 20
533.200592
 30
0.0
 10
234.352485
 20
541.137090
 30
0.0
 10
236.690388
 20
541.137090
 30
0.0
 10
236.690388
 20
550.292343
 30
0.0
 10
236.690388
 20
558.485260
 30
0.0
 10
255.824161
 20
558.485260
 30
0.0
 10
255.824161
 20
554.462787
 30
0.0
 10
260.146911
 20
554.462787
 30
0.0
 10
274.587361
 20
554.462787
 30
0.0
  0
LWPOLYLINE
  5
1b3
100
AcDbEntity
  8
Layer_1
 62
7
100
AcDbPolyline
 90
28
 70
1
 10
362.341757
 20
559.595560
 30
0.0
 10
373.144961
 20
559.595560
 30
0.0
 10
373.144961
 20
554.462787
 30
0.0
 10
387.585411
 20
554.462787
 30
0.0
 10
387.585411
 20
551.628312
 30
0.0
 10
389.852986
 20
551.628312
 30
0.0
 10
389.852986
 20
542.840712
 30
0.0
 10
387.585411
 20
542.840712
 30
0.0
 10
387.585411
 20
526.399285
 30
0.0
 10
389.852986
 20
526.399285
 30
0.0
 10
389.852986
 20
517.613187
 30
0.0
 10
387.585411
 20
517.613187
 30
0.0
 10
387.585411
 20
514.777209
 30
0.0
 10
373.144961
 20
514.777209
 30
0.0
 10
373.144961
 20
509.644431
 30
0.0
 10
362.341757
 20
509.644431
 30
0.0
 10
362.341757
 20
514.777209
 30
0.0
 10
347.901335
 20
514.777209
 30
0.0
 10
347.901335
 20
517.613187
 30
0.0
 10
345.633732
 20
517.613187
 30
0.0
 10
345.633732
 20
526.399285
 30
0.0
 10
347.901335
 20
526.399285
 30
0.0
 10
347.901335
 20
542.840712
 30
0.0
 10
345.633732
 20
542.840712
 30
0.0
 10
345.633732
 20
551.628312
 30
0.0
 10
347.901335
 20
551.628312
 30
0.0
 10
347.901335
 20
554.462787
 30
0.0
 10
362.341757
 20
554.462787
 30
0.0
  0
LWPOLYLINE
  5
1b4
100
AcDbEntity
  8
Layer_1
 62
7
100
AcDbPolyline
 90
28
 70
1
 10
416.341757
 20
559.595560
 30
0.0
 10
427.144961
 20
559.595560
 30
0.0
 10
427.144961
 20
554.462787
 30
0.0
 10
441.585411
 20
554.462787
 30
0.0
 10
441.585411
 20
551.628312
 30
0.0
 10
443.852986
 20
551.628312
 30
0.0
 10
443.852986
 20
542.840712
 30
0.0
 10
441.585411
 20
542.840712
 30
0.0
 10
441.585411
 20
526.399285
 30
0.0
 10
443.852986
 20
526.399285
 30
0.0
 10
443.852986
 20
517.613187
 30
0.0
 10
441.585411
 20
517.613187
 30
0.0
 10
441.585411
 20
514.777209
 30
0.0
 10
427.144961
 20
514.777209
 30
0.0
 10
427.144961
 20
509.644431
 30
0.0
 10
416.341757
 20
509.644431
 30
0.0
 10
416.341757
 20
514.777209
 30
0.0
 10
401.901307
 20
514.777209
 30
0.0
 10
401.901307
 20
517.613187
 30
0.0
 10
399.633732
 20
517.613187
 30
0.0
 10
399.633732
 20
526.399285
 30
0.0
 10
401.901307
 20
526.399285
 30
0.0
 10
401.901307
 20
542.840712
 30
0.0
 10
399.633732
 20
542.840712
 30
0.0
 10
399.633732
 20
551.628312
 30
0.0
 10
401.901307
 20
551.628312
 30
0.0
 10
401.901307
 20
554.462787
 30
0.0
 10
416.341757
 20
554.462787
 30
0.0
  0
LWPOLYLINE
  5
1b5
100
AcDbEntity
  8
Layer_1
 62
7
100
AcDbPolyline
 90
28
 70
1
 10
470.341757
 20
559.595560
 30
0.0
 10
481.144961
 20
559.595560
 30
0.0
 10
481.144961
 20
554.462787
 30
0.0
 10
495.585411
 20
554.462787
 30
0.0
 10
495.585411
 20
551.628312
 30
0.0
 10
497.852986
 20
551.628312
 30
0.0
 10
497.852986
 20
542.840712
 30
0.0
 10
495.585411
 20
542.840712
 30
0.0
 10
495.585411
 20
526.399285
 30
0.0
 10
497.852986
 20
526.399285
 30
0.0
 10
497.852986
 20
517.613187
 30
0.0
 10
495.585411
 20
517.613187
 30
0.0
 10
495.585411
 20
514.777209
 30
0.0
 10
481.144961
 20
514.777209
 30
0.0
 10
481.144961
 20
509.644431
 30
0.0
 10
470.341757
 20
509.644431
 30
0.0
 10
470.341757
 20
514.777209
 30
0.0
 10
455.901307
 20
514.777209
 30
0.0
 10
455.901307
 20
517.613187
 30
0.0
 10
453.633732
 20
517.613187
 30
0.0
 10
453.633732
 20
526.399285
 30
0.0
 10
455.901307
 20
526.399285
 30
0.0
 10
455.901307
 20
542.840712
 30
0.0
 10
453.633732
 20
542.840712
 30
0.0
 10
453.633732
 20
551.628312
 30
0.0
 10
455.901307
 20
551.628312
 30
0.0
 10
455.901307
 20
554.462787
 30
0.0
 10
470.341757
 20
554.462787
 30
0.0
  0
LWPOLYLINE
  5
1b6
100
AcDbEntity
  8
Layer_1
 62
7
100
AcDbPolyline
 90
28
 70
1
 10
524.341757
 20
559.595560
 30
0.0
 10
535.144961
 20
559.595560
 30
0.0
 10
535.144961
 20
554.462787
 30
0.0
 10
549.585411
 20
554.462787
 30
0.0
 10
549.585411
 20
551.628312
 30
0.0
 10
551.852986
 20
551.628312
 30
0.0
 10
551.852986
 20
542.840712
 30
0.0
 10
549.585411
 20
542.840712
 30
0.0
 10
549.585411
 20
526.399285
 30
0.0
 10
551.852986
 20
526.399285
 30
0.0
 10
551.852986
 20
517.613187
 30
0.0
 10
549.585411
 20
517.613187
 30
0.0
 10
549.585411
 20
514.777209
 30
0.0
 10
535.144961
 20
514.777209
 30
0.0
 10
535.144961
 20
509.644431
 30
0.0
 10
524.341757
 20
509.644431
 30
0.0
 10
524.341757
 20
514.777209
 30
0.0
 10
509.901307
 20
514.777209
 30
0.0
 10
509.901307
 20
517.613187
 30
0.0
 10
507.633732
 20
517.613187
 30
0.0
 10
507.633732
 20
526.399285
 30
0.0
 10
509.901307
 20
526.399285
 30
0.0
 10
509.901307
 20
542.840712
 30
0.0
 10
507.633732
 20
542.840712
 30
0.0
 10
507.633732
 20
551.628312
 30
0.0
 10
509.901307
 20
551.628312
 30
0.0
 10
509.901307
 20
554.462787
 30
0.0
 10
524.341757
 20
554.462787
 30
0.0
  0
LWPOLYLINE
  5
1b7
100
AcDbEntity
  8
Layer_1
 62
7
100
AcDbPolyline
 90
28
 70
1
 10
578.341757
 20
559.595560
 30
0.0
 10
589.144961
 20
559.595560
 30
0.0
 10
589.144961
 20
554.462787
 30
0.0
 10
603.585411
 20
554.462787
 30
0.0
 10
603.585411
 20
551.628312
 30
0.0
 10
605.852986
 20
551.628312
 30
0.0
 10
605.852986
 20
542.840712
 30
0.0
 10
603.585411
 20
542.840712
 30
0.0
 10
603.585411
 20
526.399285
 30
0.0
 10
605.852986
 20
526.399285
 30
0.0
 10
605.852986
 20
517.613187
 30
0.0
 10
603.585411
 20
517.613187
 30
0.0
 10
603.585411
 20
514.777209
 30
0.0
 10
589.144961
 20
514.777209
 30
0.0
 10
589.144961
 20
509.644431
 30
0.0
 10
578.341757
 20
509.644431
 30
0.0
 10
578.341757
 20
514.777209
 30
0.0
 10
563.901307
 20
514.777209
 30
0.0
 10
563.901307
 20
517.613187
 30
0.0
 10
561.633732
 20
517.613187
 30
0.0
 10
561.633732
 20
526.399285
 30
0.0
 10
563.901307
 20
526.399285
 30
0.0
 10
563.901307
 20
542.840712
 30
0.0
 10
561.633732
 20
542.840712
 30
0.0
 10
561.633732
 20
551.628312
 30
0.0
 10
563.901307
 20
551.628312
 30
0.0
 10
563.901307
 20
554.462787
 30
0.0
 10
578.341757
 20
554.462787
 30
0.0
  0
LWPOLYLINE
  5
1b8
100
AcDbEntity
  8
Layer_1
 62
7
100
AcDbPolyline
 90
20
 70
1
 10
158.901318
 20
554.462787
 30
0.0
 10
198.585400
 20
554.462787
 30
0.0
 10
198.585400
 20
551.628312
 30
0.0
 10
200.852980
 20
551.628312
 30
0.0
 10
200.852980
 20
542.843631
 30
0.0
 10
198.585400
 20
542.843631
 30
0.0
 10
198.585400
 20
526.399285
 30
0.0
 10
200.852980
 20
526.399285
 30
0.0
 10
200.852980
 20
517.611685
 30
0.0
 10
198.585400
 20
517.611685
 30
0.0
 10
198.585400
 20
514.777209
 30
0.0
 10
158.901318
 20
514.777209
 30
0.0
 10
158.901318
 20
517.611685
 30
0.0
 10
156.633738
 20
517.611685
 30
0.0
 10
156.633738
 20
526.399285
 30
0.0
 10
158.901318
 20
526.399285
 30
0.0
 10
158.901318
 20
542.843631
 30
0.0
 10
156.633738
 20
542.843631
 30
0.0
 10
156.633738
 20
551.628312
 30
0.0
 10
158.901318
 20
551.628312
 30
0.0
  0
LWPOLYLINE
  5
1b9
100
AcDbEntity
  8
Layer_1
 62
7
100
AcDbPolyline
 90
28
 70
1
 10
382.588809
 20
505.598485
 30
0.0
 10
393.392041
 20
505.598485
 30
0.0
 10
393.392041
 20
500.465707
 30
0.0
 10
407.832463
 20
500.465707
 30
0.0
 10
407.832463
 20
497.631231
 30
0.0
 10
410.100038
 20
497.631231
 30
0.0
 10
410.100038
 20
488.843631
 30
0.0
 10
407.832463
 20
488.843631
 30
0.0
 10
407.832463
 20
472.402205
 30
0.0
 10
410.100038
 20
472.402205
 30
0.0
 10
410.100038
 20
463.616107
 30
0.0
 10
407.832463
 20
463.616107
 30
0.0
 10
407.832463
 20
460.780157
 30
0.0
 10
393.392041
 20
460.780157
 30
0.0
 10
393.392041
 20
455.647380
 30
0.0
 10
382.588809
 20
455.647380
 30
0.0
 10
382.588809
 20
460.780157
 30
0.0
 10
368.148387
 20
460.780157
 30
0.0
 10
368.148387
 20
463.616107
 30
0.0
 10
365.880813
 20
463.616107
 30
0.0
 10
365.880813
 20
472.402205
 30
0.0
 10
368.148387
 20
472.402205
 30
0.0
 10
368.148387
 20
488.843631
 30
0.0
 10
365.880813
 20
488.843631
 30
0.0
 10
365.880813
 20
497.631231
 30
0.0
 10
368.148387
 20
497.631231
 30
0.0
 10
368.148387
 20
500.465707
 30
0.0
 10
382.588809
 20
500.465707
 30
0.0
  0
LWPOLYLINE
  5
1ba
100
AcDbEntity
  8
Layer_1
 62
7
100
AcDbPolyline
 90
28
 70
1
 10
470.341757
 20
505.598485
 30
0.0
 10
481.147909
 20
505.598485
 30
0.0
 10
481.147909
 20
500.465707
 30
0.0
 10
495.588331
 20
500.465707
 30
0.0
 10
499.911080
 20
500.465707
 30
0.0
 10
499.911080
 20
504.488183
 30
0.0
 10
519.044882
 20
504.488183
 30
0.0
 10
519.044882
 20
496.295263
 30
0.0
 10
519.044882
 20
487.140009
 30
0.0
 10
521.382756
 20
487.140009
 30
0.0
 10
521.382756
 20
479.203512
 30
0.0
 10
519.044882
 20
479.203512
 30
0.0
 10
519.044882
 20
476.556548
 30
0.0
 10
519.044882
 20
461.432041
 30
0.0
 10
519.044882
 20
450.574583
 30
0.0
 10
432.444784
 20
450.574583
 30
0.0
 10
432.444784
 20
461.432041
 30
0.0
 10
432.444784
 20
476.556548
 30
0.0
 10
432.444784
 20
479.203512
 30
0.0
 10
430.106882
 20
479.203512
 30
0.0
 10
430.106882
 20
487.140009
 30
0.0
 10
432.444784
 20
487.140009
 30
0.0
 10
432.444784
 20
496.295263
 30
0.0
 10
432.444784
 20
504.488183
 30
0.0
 10
451.578557
 20
504.488183
 30
0.0
 10
451.578557
 20
500.465707
 30
0.0
 10
455.901307
 20
500.465707
 30
0.0
 10
470.341757
 20
500.465707
 30
0.0
  0
LWPOLYLINE
  5
1bb
100
AcDbEntity
  8
Layer_1
 62
7
100
AcDbPolyline
 90
28
 70
1
 10
558.090283
 20
505.598485
 30
0.0
 10
568.893515
 20
505.598485
 30
0.0
 10
568.893515
 20
500.465707
 30
0.0
 10
583.333937
 20
500.465707
 30
0.0
 10
583.333937
 20
497.631231
 30
0.0
 10
585.601512
 20
497.631231
 30
0.0
 10
585.601512
 20
488.843631
 30
0.0
 10
583.333937
 20
488.843631
 30
0.0
 10
583.333937
 20
472.402205
 30
0.0
 10
585.601512
 20
472.402205
 30
0.0
 10
585.601512
 20
463.616107
 30
0.0
 10
583.333937
 20
463.616107
 30
0.0
 10
583.333937
 20
460.780157
 30
0.0
 10
568.893515
 20
460.780157
 30
0.0
 10
568.893515
 20
455.647380
 30
0.0
 10
558.090283
 20
455.647380
 30
0.0
 10
558.090283
 20
460.780157
 30
0.0
 10
543.649861
 20
460.780157
 30
0.0
 10
543.649861
 20
463.616107
 30
0.0
 10
541.382258
 20
463.616107
 30
0.0
 10
541.382258
 20
472.402205
 30
0.0
 10
543.649861
 20
472.402205
 30
0.0
 10
543.649861
 20
488.843631
 30
0.0
 10
541.382258
 20
488.843631
 30
0.0
 10
541.382258
 20
497.631231
 30
0.0
 10
543.649861
 20
497.631231
 30
0.0
 10
543.649861
 20
500.465707
 30
0.0
 10
558.090283
 20
500.465707
 30
0.0
  0
SPLINE
  5
1bc
100
AcDbEntity
  8
Layer_1
 62
7
100
AcDbSpline
 70
8
 71
3
 72
8
 73
4
 74
0
 40
0
 40
0
 40
0
 40
0
 40
1
 40
1
 40
1
 40
1
 10
86.628855
 20
431.618060
 30
0.0
 10
86.641554
 20
431.618145
 30
0.0
 10
86.654254
 20
431.618145
 30
0.0
 10
86.666953
 20
431.618060
 30
0.0
  0
SPLINE
  5
1bd
100
AcDbEntity
  8
Layer_1
 62
7
100
AcDbSpline
 70
8
 71
3
 72
8
 73
4
 74
0
 40
0
 40
0
 40
0
 40
0
 40
1
 40
1
 40
1
 40
1
 10
86.666953
 20
431.618060
 30
0.0
 10
88.232350
 20
431.617964
 30
0.0
 10
89.501332
 20
430.348982
 30
0.0
 10
89.501426
 20
428.783584
 30
0.0
  0
SPLINE
  5
1be
100
AcDbEntity
  8
Layer_1
 62
7
100
AcDbSpline
 70
8
 71
3
 72
8
 73
4
 74
0
 40
0
 40
0
 40
0
 40
0
 40
1
 40
1
 40
1
 40
1
 10
89.501426
 20
428.783584
 30
0.0
 10
89.501332
 20
427.218187
 30
0.0
 10
88.232350
 20
425.949204
 30
0.0
 10
86.666953
 20
425.949109
 30
0.0
  0
SPLINE
  5
1bf
100
AcDbEntity
  8
Layer_1
 62
7
100
AcDbSpline
 70
8
 71
3
 72
8
 73
4
 74
0
 40
0
 40
0
 40
0
 40
0
 40
1
 40
1
 40
1
 40
1
 10
86.666953
 20
425.949109
 30
0.0
 10
85.101555
 20
425.949204
 30
0.0
 10
83.832574
 20
427.218187
 30
0.0
 10
83.832480
 20
428.783584
 30
0.0
  0
SPLINE
  5
1c0
100
AcDbEntity
  8
Layer_1
 62
7
100
AcDbSpline
 70
8
 71
3
 72
8
 73
4
 74
0
 40
0
 40
0
 40
0
 40
0
 40
1
 40
1
 40
1
 40
1
 10
83.832480
 20
428.783584
 30
0.0
 10
83.832432
 20
430.334230
 30
0.0
 10
85.078364
 20
431.597132
 30
0.0
 10
86.628869
 20
431.618060
 30
0.0
  0
LWPOLYLINE
  5
1c1
100
AcDbEntity
  8
Layer_1
 62
7
100
AcDbPolyline
 90
20
 70
1
 10
158.898385
 20
500.462787
 30
0.0
 10
198.582466
 20
500.462787
 30
0.0
 10
198.582466
 20
497.628312
 30
0.0
 10
200.850046
 20
497.628312
 30
0.0
 10
200.850046
 20
488.840712
 30
0.0
 10
198.582466
 20
488.840712
 30
0.0
 10
198.582466
 20
472.399285
 30
0.0
 10
200.850046
 20
472.399285
 30
0.0
 10
200.850046
 20
463.611685
 30
0.0
 10
198.582466
 20
463.611685
 30
0.0
 10
198.582466
 20
460.777209
 30
0.0
 10
158.898385
 20
460.777209
 30
0.0
 10
158.898385
 20
463.611685
 30
0.0
 10
156.633738
 20
463.611685
 30
0.0
 10
156.633738
 20
472.399285
 30
0.0
 10
158.898385
 20
472.399285
 30
0.0
 10
158.898385
 20
488.840712
 30
0.0
 10
156.633738
 20
488.840712
 30
0.0
 10
156.633738
 20
497.628312
 30
0.0
 10
158.898385
 20
497.628312
 30
0.0
  0
SPLINE
  5
1c2
100
AcDbEntity
  8
Layer_1
 62
7
100
AcDbSpline
 70
8
 71
3
 72
8
 73
4
 74
0
 40
0
 40
0
 40
0
 40
0
 40
1
 40
1
 40
1
 40
1
 10
336.247030
 20
431.618060
 30
0.0
 10
336.259691
 20
431.618145
 30
0.0
 10
336.272353
 20
431.618145
 30
0.0
 10
336.285014
 20
431.618060
 30
0.0
  0
SPLINE
  5
1c3
100
AcDbEntity
  8
Layer_1
 62
7
100
AcDbSpline
 70
8
 71
3
 72
8
 73
4
 74
0
 40
0
 40
0
 40
0
 40
0
 40
1
 40
1
 40
1
 40
1
 10
336.285014
 20
431.618060
 30
0.0
 10
337.850413
 20
431.617966
 30
0.0
 10
339.119396
 20
430.348983
 30
0.0
 10
339.119490
 20
428.783584
 30
0.0
  0
SPLINE
  5
1c4
100
AcDbEntity
  8
Layer_1
 62
7
100
AcDbSpline
 70
8
 71
3
 72
8
 73
4
 74
0
 40
0
 40
0
 40
0
 40
0
 40
1
 40
1
 40
1
 40
1
 10
339.119490
 20
428.783584
 30
0.0
 10
339.119396
 20
427.218186
 30
0.0
 10
337.850413
 20
425.949203
 30
0.0
 10
336.285014
 20
425.949109
 30
0.0
  0
SPLINE
  5
1c5
100
AcDbEntity
  8
Layer_1
 62
7
100
AcDbSpline
 70
8
 71
3
 72
8
 73
4
 74
0
 40
0
 40
0
 40
0
 40
0
 40
1
 40
1
 40
1
 40
1
 10
336.285014
 20
425.949109
 30
0.0
 10
334.719615
 20
425.949203
 30
0.0
 10
333.450633
 20
427.218186
 30
0.0
 10
333.450539
 20
428.783584
 30
0.0
  0
SPLINE
  5
1c6
100
AcDbEntity
  8
Layer_1
 62
7
100
AcDbSpline
 70
8
 71
3
 72
8
 73
4
 74
0
 40
0
 40
0
 40
0
 40
0
 40
1
 40
1
 40
1
 40
1
 10
333.450539
 20
428.783584
 30
0.0
 10
333.450490
 20
430.334226
 30
0.0
 10
334.696416
 20
431.597126
 30
0.0
 10
336.246917
 20
431.618060
 30
0.0
  0
LWPOLYLINE
  5
1c7
100
AcDbEntity
  8
Layer_1
 62
7
100
AcDbPolyline
 90
1
 70
1
 10
86.628869
 20
431.618060
 30
0.0
  0
SPLINE
  5
1c8
100
AcDbEntity
  8
Layer_1
 62
7
100
AcDbSpline
 70
8
 71
3
 72
8
 73
4
 74
0
 40
0
 40
0
 40
0
 40
0
 40
1
 40
1
 40
1
 40
1
 10
585.863717
 20
431.618060
 30
0.0
 10
585.876378
 20
431.618145
 30
0.0
 10
585.889040
 20
431.618145
 30
0.0
 10
585.901701
 20
431.618060
 30
0.0
  0
SPLINE
  5
1c9
100
AcDbEntity
  8
Layer_1
 62
7
100
AcDbSpline
 70
8
 71
3
 72
8
 73
4
 74
0
 40
0
 40
0
 40
0
 40
0
 40
1
 40
1
 40
1
 40
1
 10
585.901701
 20
431.618060
 30
0.0
 10
587.467100
 20
431.617966
 30
0.0
 10
588.736082
 20
430.348983
 30
0.0
 10
588.736176
 20
428.783584
 30
0.0
  0
SPLINE
  5
1ca
100
AcDbEntity
  8
Layer_1
 62
7
100
AcDbSpline
 70
8
 71
3
 72
8
 73
4
 74
0
 40
0
 40
0
 40
0
 40
0
 40
1
 40
1
 40
1
 40
1
 10
588.736176
 20
428.783584
 30
0.0
 10
588.736082
 20
427.218186
 30
0.0
 10
587.467100
 20
425.949203
 30
0.0
 10
585.901701
 20
425.949109
 30
0.0
  0
SPLINE
  5
1cb
100
AcDbEntity
  8
Layer_1
 62
7
100
AcDbSpline
 70
8
 71
3
 72
8
 73
4
 74
0
 40
0
 40
0
 40
0
 40
0
 40
1
 40
1
 40
1
 40
1
 10
585.901701
 20
425.949109
 30
0.0
 10
584.336302
 20
425.949203
 30
0.0
 10
583.067319
 20
427.218186
 30
0.0
 10
583.067225
 20
428.783584
 30
0.0
  0
SPLINE
  5
1cc
100
AcDbEntity
  8
Layer_1
 62
7
100
AcDbSpline
 70
8
 71
3
 72
8
 73
4
 74
0
 40
0
 40
0
 40
0
 40
0
 40
1
 40
1
 40
1
 40
1
 10
583.067225
 20
428.783584
 30
0.0
 10
583.067177
 20
430.334226
 30
0.0
 10
584.313103
 20
431.597126
 30
0.0
 10
585.863603
 20
431.618060
 30
0.0
  0
LWPOLYLINE
  5
1cd
100
AcDbEntity
  8
Layer_1
 62
7
100
AcDbPolyline
 90
2
 70
0
 10
336.246917
 20
431.618060
 30
0.0
 10
336.247030
 20
431.618060
 30
0.0
  0
LWPOLYLINE
  5
1ce
100
AcDbEntity
  8
Layer_1
 62
7
100
AcDbPolyline
 90
2
 70
0
 10
585.863603
 20
431.618060
 30
0.0
 10
585.863717
 20
431.618060
 30
0.0
  0
ENDSEC
  0
SECTION
  2
OBJECTS
  0
DICTIONARY
  5
C
330
0
100
AcDbDictionary
  3
ACAD_GROUP
350
D
  3
ACAD_MLINESTYLE
350
17
  0
DICTIONARY
  5
D
330
C
100
AcDbDictionary
  0
DICTIONARY
  5
1A
330
C
100
AcDbDictionary
  0
DICTIONARY
  5
17
330
C
100
AcDbDictionary
  3
STANDARD
350
18
  0
DICTIONARY
  5
19
330
C
100
AcDbDictionary
  0
ENDSEC
  0
EOF
