999
"DXF R12 Output" (www.mydxf.blogspot.com)
 0 
SECTION
 2 
HEADER
 9 
$ACADVER
 1 
AC1009
 9 
$EXTMIN
 10 
 0 
 20 
 0 
 9 
$EXTMAX
 10 
 8.5 
 20 
 11 
 0 
ENDSEC
 0 
SECTION
 2 
ENTITIES
0
LINE
8
Layer 1
10
52.626900
20
33.957400
11
52.351982
21
33.968300
0
LINE
8
Layer 1
10
52.351982
20
33.968300
11
52.079130
21
34.001400
0
LINE
8
Layer 1
10
52.079130
20
34.001400
11
51.809379
21
34.054600
0
LINE
8
Layer 1
10
51.809379
20
34.054600
11
51.545313
21
34.129500
0
LINE
8
Layer 1
10
51.545313
20
34.129500
11
51.286931
21
34.224600
0
LINE
8
Layer 1
10
51.286931
20
34.224600
11
51.038367
21
34.339320
0
LINE
8
Layer 1
10
51.038367
20
34.339320
11
50.798072
21
34.473680
0
LINE
8
Layer 1
10
50.798072
20
34.473680
11
50.569145
21
34.626630
0
LINE
8
Layer 1
10
50.569145
20
34.626630
11
50.353137
21
34.796650
0
LINE
8
Layer 1
10
50.353137
20
34.796650
11
50.152116
21
34.983210
0
LINE
8
Layer 1
10
50.152116
20
34.983210
11
49.965047
21
35.184220
0
LINE
8
Layer 1
10
49.965047
20
35.184220
11
49.795032
21
35.400250
0
LINE
8
Layer 1
10
49.795032
20
35.400250
11
49.642070
21
35.629670
0
LINE
8
Layer 1
10
49.642070
20
35.629670
11
49.508228
21
35.869460
0
LINE
8
Layer 1
10
49.508228
20
35.869460
11
49.392989
21
36.118540
0
LINE
8
Layer 1
10
49.392989
20
36.118540
11
49.297909
21
36.376400
0
LINE
8
Layer 1
10
49.297909
20
36.376400
11
49.222979
21
36.640480
0
LINE
8
Layer 1
10
49.222979
20
36.640480
11
49.170269
21
36.910230
0
LINE
8
Layer 1
10
49.170269
20
36.910230
11
49.137199
21
37.183590
0
LINE
8
Layer 1
10
49.137199
20
37.183590
11
49.127399
21
37.458520
0
LINE
8
Layer 1
10
49.127399
20
37.458520
11
49.126399
21
146.471520
0
LINE
8
Layer 1
10
49.126399
20
146.471520
11
49.137249
21
146.746440
0
LINE
8
Layer 1
10
49.137249
20
146.746440
11
49.170319
21
147.019280
0
LINE
8
Layer 1
10
49.170319
20
147.019280
11
49.223029
21
147.288520
0
LINE
8
Layer 1
10
49.223029
20
147.288520
11
49.297959
21
147.553630
0
LINE
8
Layer 1
10
49.297959
20
147.553630
11
49.393039
21
147.810470
0
LINE
8
Layer 1
10
49.393039
20
147.810470
11
49.508277
21
148.060580
0
LINE
8
Layer 1
10
49.508277
20
148.060580
11
49.642119
21
148.300340
0
LINE
8
Layer 1
10
49.642119
20
148.300340
11
49.795081
21
148.528250
0
LINE
8
Layer 1
10
49.795081
20
148.528250
11
49.965097
21
148.744260
0
LINE
8
Layer 1
10
49.965097
20
148.744260
11
50.152166
21
148.946300
0
LINE
8
Layer 1
10
50.152166
20
148.946300
11
50.353187
21
149.132350
0
LINE
8
Layer 1
10
50.353187
20
149.132350
11
50.569194
21
149.303400
0
LINE
8
Layer 1
10
50.569194
20
149.303400
11
50.798121
21
149.455330
0
LINE
8
Layer 1
10
50.798121
20
149.455330
11
51.038417
21
149.590710
0
LINE
8
Layer 1
10
51.038417
20
149.590710
11
51.286980
21
149.705440
0
LINE
8
Layer 1
10
51.286980
20
149.705440
11
51.545362
21
149.800540
0
LINE
8
Layer 1
10
51.545362
20
149.800540
11
51.809429
21
149.874440
0
LINE
8
Layer 1
10
51.809429
20
149.874440
11
52.079180
21
149.928640
0
LINE
8
Layer 1
10
52.079180
20
149.928640
11
52.352032
21
149.960640
0
LINE
8
Layer 1
10
52.352032
20
149.960640
11
52.626950
21
149.971440
0
LINE
8
Layer 1
10
52.626950
20
149.971440
11
231.592950
21
149.971440
0
LINE
8
Layer 1
10
231.592950
20
149.971440
11
232.273292
21
149.833077
0
LINE
8
Layer 1
10
232.273292
20
149.833077
11
232.828663
21
149.457782
0
LINE
8
Layer 1
10
232.828663
20
149.457782
11
233.202973
21
148.901746
0
LINE
8
Layer 1
10
233.202973
20
148.901746
11
233.340130
21
148.221160
0
LINE
8
Layer 1
10
233.340130
20
148.221160
11
233.340130
21
137.208360
0
LINE
8
Layer 1
10
233.340130
20
137.208360
11
233.340130
21
118.159360
0
LINE
8
Layer 1
10
233.340130
20
118.159360
11
236.355450
21
118.159360
0
LINE
8
Layer 1
10
236.355450
20
118.159360
11
237.035794
21
118.020996
0
LINE
8
Layer 1
10
237.035794
20
118.020996
11
237.591167
21
117.645698
0
LINE
8
Layer 1
10
237.591167
20
117.645698
11
237.965476
21
117.089659
0
LINE
8
Layer 1
10
237.965476
20
117.089659
11
238.102630
21
116.409070
0
LINE
8
Layer 1
10
238.102630
20
116.409070
11
238.102630
21
100.854470
0
LINE
8
Layer 1
10
238.102630
20
100.854470
11
237.964267
21
100.174128
0
LINE
8
Layer 1
10
237.964267
20
100.174128
11
237.588972
21
99.618757
0
LINE
8
Layer 1
10
237.588972
20
99.618757
11
237.032936
21
99.244447
0
LINE
8
Layer 1
10
237.032936
20
99.244447
11
236.352350
21
99.107290
0
LINE
8
Layer 1
10
236.352350
20
99.107290
11
228.577630
21
99.107290
0
LINE
8
Layer 1
10
228.577630
20
99.107290
11
228.577630
21
81.804490
0
LINE
8
Layer 1
10
228.577630
20
81.804490
11
228.439267
21
81.124148
0
LINE
8
Layer 1
10
228.439267
20
81.124148
11
228.063972
21
80.568777
0
LINE
8
Layer 1
10
228.063972
20
80.568777
11
227.507936
21
80.194467
0
LINE
8
Layer 1
10
227.507936
20
80.194467
11
226.827350
21
80.057310
0
LINE
8
Layer 1
10
226.827350
20
80.057310
11
223.815130
21
80.057310
0
LINE
8
Layer 1
10
223.815130
20
80.057310
11
223.815130
21
61.009410
0
LINE
8
Layer 1
10
223.815130
20
61.009410
11
227.557540
21
61.009410
0
LINE
8
Layer 1
10
227.557540
20
61.009410
11
231.592950
21
61.009410
0
LINE
8
Layer 1
10
231.592950
20
61.009410
11
232.273294
21
60.871046
0
LINE
8
Layer 1
10
232.273294
20
60.871046
11
232.828667
21
60.495748
0
LINE
8
Layer 1
10
232.828667
20
60.495748
11
233.202976
21
59.939709
0
LINE
8
Layer 1
10
233.202976
20
59.939709
11
233.340130
21
59.259120
0
LINE
8
Layer 1
10
233.340130
20
59.259120
11
233.340130
21
41.956320
0
LINE
8
Layer 1
10
233.340130
20
41.956320
11
233.340130
21
35.705540
0
LINE
8
Layer 1
10
233.340130
20
35.705540
11
233.201775
21
35.025189
0
LINE
8
Layer 1
10
233.201775
20
35.025189
11
232.826482
21
34.469807
0
LINE
8
Layer 1
10
232.826482
20
34.469807
11
232.270443
21
34.095490
0
LINE
8
Layer 1
10
232.270443
20
34.095490
11
231.589850
21
33.958330
0
LINE
8
Layer 1
10
231.589850
20
33.958330
11
52.626900
21
33.957400
0
LINE
8
Layer 1
10
53.205676
20
36.955160
11
53.219626
21
36.955160
0
LINE
8
Layer 1
10
53.219626
20
36.955160
11
53.602559
21
37.031193
0
LINE
8
Layer 1
10
53.602559
20
37.031193
11
53.927196
21
37.248057
0
LINE
8
Layer 1
10
53.927196
20
37.248057
11
54.144057
21
37.572696
0
LINE
8
Layer 1
10
54.144057
20
37.572696
11
54.220086
21
37.955630
0
LINE
8
Layer 1
10
54.220086
20
37.955630
11
54.143904
21
38.338401
0
LINE
8
Layer 1
10
54.143904
20
38.338401
11
53.927009
21
38.662861
0
LINE
8
Layer 1
10
53.927009
20
38.662861
11
53.602437
21
38.879587
0
LINE
8
Layer 1
10
53.602437
20
38.879587
11
53.219626
21
38.955570
0
LINE
8
Layer 1
10
53.219626
20
38.955570
11
52.830415
21
38.876974
0
LINE
8
Layer 1
10
52.830415
20
38.876974
11
52.512580
21
38.662676
0
LINE
8
Layer 1
10
52.512580
20
38.662676
11
52.298283
21
38.344841
0
LINE
8
Layer 1
10
52.298283
20
38.344841
11
52.219687
21
37.955630
0
LINE
8
Layer 1
10
52.219687
20
37.955630
11
52.296696
21
37.569601
0
LINE
8
Layer 1
10
52.296696
20
37.569601
11
52.507444
21
37.253129
0
LINE
8
Layer 1
10
52.507444
20
37.253129
11
52.820809
21
37.037790
0
LINE
8
Layer 1
10
52.820809
20
37.037790
11
53.205674
21
36.955160
0
LINE
8
Layer 1
10
53.205674
20
36.955160
11
53.205676
21
36.955160
0
LINE
8
Layer 1
10
103.109076
20
36.955160
11
103.122476
21
36.955160
0
LINE
8
Layer 1
10
103.122476
20
36.955160
11
103.505287
21
37.031143
0
LINE
8
Layer 1
10
103.505287
20
37.031143
11
103.829859
21
37.247869
0
LINE
8
Layer 1
10
103.829859
20
37.247869
11
104.046754
21
37.572329
0
LINE
8
Layer 1
10
104.046754
20
37.572329
11
104.122936
21
37.955100
0
LINE
8
Layer 1
10
104.122936
20
37.955100
11
104.046907
21
38.338034
0
LINE
8
Layer 1
10
104.046907
20
38.338034
11
103.830046
21
38.662673
0
LINE
8
Layer 1
10
103.830046
20
38.662673
11
103.505409
21
38.879537
0
LINE
8
Layer 1
10
103.505409
20
38.879537
11
103.122476
21
38.955570
0
LINE
8
Layer 1
10
103.122476
20
38.955570
11
102.739702
21
38.879387
0
LINE
8
Layer 1
10
102.739702
20
38.879387
11
102.415242
21
38.662489
0
LINE
8
Layer 1
10
102.415242
20
38.662489
11
102.198516
21
38.337914
0
LINE
8
Layer 1
10
102.198516
20
38.337914
11
102.122536
21
37.955100
0
LINE
8
Layer 1
10
102.122536
20
37.955100
11
102.199750
21
37.569119
0
LINE
8
Layer 1
10
102.199750
20
37.569119
11
102.410661
21
37.252762
0
LINE
8
Layer 1
10
102.410661
20
37.252762
11
102.724135
21
37.037590
0
LINE
8
Layer 1
10
102.724135
20
37.037590
11
103.109036
21
36.955160
0
LINE
8
Layer 1
10
103.109036
20
36.955160
11
103.109076
21
36.955160
0
LINE
8
Layer 1
10
125.125776
20
36.955160
11
125.139676
21
36.955160
0
LINE
8
Layer 1
10
125.139676
20
36.955160
11
125.522450
21
37.031343
0
LINE
8
Layer 1
10
125.522450
20
37.031343
11
125.846910
21
37.248241
0
LINE
8
Layer 1
10
125.846910
20
37.248241
11
126.063636
21
37.572816
0
LINE
8
Layer 1
10
126.063636
20
37.572816
11
126.139616
21
37.955630
0
LINE
8
Layer 1
10
126.139616
20
37.955630
11
126.061020
21
38.344841
0
LINE
8
Layer 1
10
126.061020
20
38.344841
11
125.846723
21
38.662677
0
LINE
8
Layer 1
10
125.846723
20
38.662677
11
125.528887
21
38.876974
0
LINE
8
Layer 1
10
125.528887
20
38.876974
11
125.139676
21
38.955570
0
LINE
8
Layer 1
10
125.139676
20
38.955570
11
124.750465
21
38.876974
0
LINE
8
Layer 1
10
124.750465
20
38.876974
11
124.432629
21
38.662677
0
LINE
8
Layer 1
10
124.432629
20
38.662677
11
124.218332
21
38.344841
0
LINE
8
Layer 1
10
124.218332
20
38.344841
11
124.139736
21
37.955630
0
LINE
8
Layer 1
10
124.139736
20
37.955630
11
124.216746
21
37.569601
0
LINE
8
Layer 1
10
124.216746
20
37.569601
11
124.427494
21
37.253128
0
LINE
8
Layer 1
10
124.427494
20
37.253128
11
124.740860
21
37.037789
0
LINE
8
Layer 1
10
124.740860
20
37.037789
11
125.125726
21
36.955160
0
LINE
8
Layer 1
10
125.125726
20
36.955160
11
125.125776
21
36.955160
0
LINE
8
Layer 1
10
205.325576
20
36.955160
11
205.340076
21
36.955160
0
LINE
8
Layer 1
10
205.340076
20
36.955160
11
205.722850
21
37.031343
0
LINE
8
Layer 1
10
205.722850
20
37.031343
11
206.047310
21
37.248241
0
LINE
8
Layer 1
10
206.047310
20
37.248241
11
206.264036
21
37.572816
0
LINE
8
Layer 1
10
206.264036
20
37.572816
11
206.340016
21
37.955630
0
LINE
8
Layer 1
10
206.340016
20
37.955630
11
206.261420
21
38.344841
0
LINE
8
Layer 1
10
206.261420
20
38.344841
11
206.047123
21
38.662677
0
LINE
8
Layer 1
10
206.047123
20
38.662677
11
205.729287
21
38.876974
0
LINE
8
Layer 1
10
205.729287
20
38.876974
11
205.340076
21
38.955570
0
LINE
8
Layer 1
10
205.340076
20
38.955570
11
204.957265
21
38.879587
0
LINE
8
Layer 1
10
204.957265
20
38.879587
11
204.632693
21
38.662861
0
LINE
8
Layer 1
10
204.632693
20
38.662861
11
204.415798
21
38.338401
0
LINE
8
Layer 1
10
204.415798
20
38.338401
11
204.339616
21
37.955630
0
LINE
8
Layer 1
10
204.339616
20
37.955630
11
204.416626
21
37.569601
0
LINE
8
Layer 1
10
204.416626
20
37.569601
11
204.627374
21
37.253128
0
LINE
8
Layer 1
10
204.627374
20
37.253128
11
204.940740
21
37.037789
0
LINE
8
Layer 1
10
204.940740
20
37.037789
11
205.325606
21
36.955160
0
LINE
8
Layer 1
10
205.325606
20
36.955160
11
205.325576
21
36.955160
0
LINE
8
Layer 1
10
229.324676
20
36.955160
11
229.339176
21
36.955160
0
LINE
8
Layer 1
10
229.339176
20
36.955160
11
229.721950
21
37.031343
0
LINE
8
Layer 1
10
229.721950
20
37.031343
11
230.046410
21
37.248241
0
LINE
8
Layer 1
10
230.046410
20
37.248241
11
230.263136
21
37.572816
0
LINE
8
Layer 1
10
230.263136
20
37.572816
11
230.339116
21
37.955630
0
LINE
8
Layer 1
10
230.339116
20
37.955630
11
230.260520
21
38.344841
0
LINE
8
Layer 1
10
230.260520
20
38.344841
11
230.046223
21
38.662677
0
LINE
8
Layer 1
10
230.046223
20
38.662677
11
229.728387
21
38.876974
0
LINE
8
Layer 1
10
229.728387
20
38.876974
11
229.339176
21
38.955570
0
LINE
8
Layer 1
10
229.339176
20
38.955570
11
228.956368
21
38.879584
0
LINE
8
Layer 1
10
228.956368
20
38.879584
11
228.631800
21
38.662857
0
LINE
8
Layer 1
10
228.631800
20
38.662857
11
228.414907
21
38.338399
0
LINE
8
Layer 1
10
228.414907
20
38.338399
11
228.338726
21
37.955630
0
LINE
8
Layer 1
10
228.338726
20
37.955630
11
228.415734
21
37.569603
0
LINE
8
Layer 1
10
228.415734
20
37.569603
11
228.626480
21
37.253132
0
LINE
8
Layer 1
10
228.626480
20
37.253132
11
228.939844
21
37.037792
0
LINE
8
Layer 1
10
228.939844
20
37.037792
11
229.324706
21
36.955160
0
LINE
8
Layer 1
10
229.324706
20
36.955160
11
229.324676
21
36.955160
0
LINE
8
Layer 1
10
63.425676
20
41.955360
11
88.925500
21
41.955360
0
LINE
8
Layer 1
10
88.925500
20
41.955360
11
88.925500
21
67.955360
0
LINE
8
Layer 1
10
88.925500
20
67.955360
11
88.925500
21
77.955260
0
LINE
8
Layer 1
10
88.925500
20
77.955260
11
77.325700
21
77.955260
0
LINE
8
Layer 1
10
77.325700
20
77.955260
11
77.325700
21
67.955360
0
LINE
8
Layer 1
10
77.325700
20
67.955360
11
75.025580
21
67.955360
0
LINE
8
Layer 1
10
75.025580
20
67.955360
11
75.025580
21
77.955260
0
LINE
8
Layer 1
10
75.025580
20
77.955260
11
63.425780
21
77.955260
0
LINE
8
Layer 1
10
63.425780
20
77.955260
11
63.425780
21
67.955360
0
LINE
8
Layer 1
10
63.425780
20
67.955360
11
63.425676
21
41.955360
0
LINE
8
Layer 1
10
102.514276
20
44.482340
11
116.514476
21
44.482340
0
LINE
8
Layer 1
10
116.514476
20
44.482340
11
116.514476
21
58.482540
0
LINE
8
Layer 1
10
116.514476
20
58.482540
11
102.514276
21
58.482540
0
LINE
8
Layer 1
10
102.514276
20
58.482540
11
102.514276
21
44.482340
0
LINE
8
Layer 1
10
121.564276
20
44.482340
11
135.564476
21
44.482340
0
LINE
8
Layer 1
10
135.564476
20
44.482340
11
135.564476
21
58.482540
0
LINE
8
Layer 1
10
135.564476
20
58.482540
11
121.564276
21
58.482540
0
LINE
8
Layer 1
10
121.564276
20
58.482540
11
121.564276
21
44.482340
0
LINE
8
Layer 1
10
140.614276
20
44.482340
11
154.614476
21
44.482340
0
LINE
8
Layer 1
10
154.614476
20
44.482340
11
154.614476
21
58.482540
0
LINE
8
Layer 1
10
154.614476
20
58.482540
11
140.614276
21
58.482540
0
LINE
8
Layer 1
10
140.614276
20
58.482540
11
140.614276
21
44.482340
0
LINE
8
Layer 1
10
159.664276
20
44.482340
11
173.664476
21
44.482340
0
LINE
8
Layer 1
10
173.664476
20
44.482340
11
173.664476
21
58.482540
0
LINE
8
Layer 1
10
173.664476
20
58.482540
11
159.664276
21
58.482540
0
LINE
8
Layer 1
10
159.664276
20
58.482540
11
159.664276
21
44.482340
0
LINE
8
Layer 1
10
178.714276
20
44.482340
11
192.714476
21
44.482340
0
LINE
8
Layer 1
10
192.714476
20
44.482340
11
192.714476
21
58.482540
0
LINE
8
Layer 1
10
192.714476
20
58.482540
11
178.714276
21
58.482540
0
LINE
8
Layer 1
10
178.714276
20
58.482540
11
178.714276
21
44.482340
0
LINE
8
Layer 1
10
197.764276
20
44.482340
11
211.764476
21
44.482340
0
LINE
8
Layer 1
10
211.764476
20
44.482340
11
211.764476
21
58.482540
0
LINE
8
Layer 1
10
211.764476
20
58.482540
11
197.764276
21
58.482540
0
LINE
8
Layer 1
10
197.764276
20
58.482540
11
197.764276
21
44.482340
0
LINE
8
Layer 1
10
216.814276
20
44.482340
11
230.814476
21
44.482340
0
LINE
8
Layer 1
10
230.814476
20
44.482340
11
230.814476
21
58.482540
0
LINE
8
Layer 1
10
230.814476
20
58.482540
11
216.814276
21
58.482540
0
LINE
8
Layer 1
10
216.814276
20
58.482540
11
216.814276
21
44.482340
0
LINE
8
Layer 1
10
107.277276
20
63.532340
11
121.277476
21
63.532340
0
LINE
8
Layer 1
10
121.277476
20
63.532340
11
121.277476
21
77.532540
0
LINE
8
Layer 1
10
121.277476
20
77.532540
11
107.277276
21
77.532540
0
LINE
8
Layer 1
10
107.277276
20
77.532540
11
107.277276
21
63.532340
0
LINE
8
Layer 1
10
131.089276
20
63.532340
11
145.089476
21
63.532340
0
LINE
8
Layer 1
10
145.089476
20
63.532340
11
145.089476
21
77.532540
0
LINE
8
Layer 1
10
145.089476
20
77.532540
11
131.089276
21
77.532540
0
LINE
8
Layer 1
10
131.089276
20
77.532540
11
131.089276
21
63.532340
0
LINE
8
Layer 1
10
150.139276
20
63.532340
11
164.139476
21
63.532340
0
LINE
8
Layer 1
10
164.139476
20
63.532340
11
164.139476
21
77.532540
0
LINE
8
Layer 1
10
164.139476
20
77.532540
11
150.139276
21
77.532540
0
LINE
8
Layer 1
10
150.139276
20
77.532540
11
150.139276
21
63.532340
0
LINE
8
Layer 1
10
169.189276
20
63.532340
11
183.189476
21
63.532340
0
LINE
8
Layer 1
10
183.189476
20
63.532340
11
183.189476
21
77.532540
0
LINE
8
Layer 1
10
183.189476
20
77.532540
11
169.189276
21
77.532540
0
LINE
8
Layer 1
10
169.189276
20
77.532540
11
169.189276
21
63.532340
0
LINE
8
Layer 1
10
188.239276
20
63.532340
11
202.239476
21
63.532340
0
LINE
8
Layer 1
10
202.239476
20
63.532340
11
202.239476
21
77.532540
0
LINE
8
Layer 1
10
202.239476
20
77.532540
11
188.239276
21
77.532540
0
LINE
8
Layer 1
10
188.239276
20
77.532540
11
188.239276
21
63.532340
0
LINE
8
Layer 1
10
207.289276
20
63.532340
11
221.289476
21
63.532340
0
LINE
8
Layer 1
10
221.289476
20
63.532340
11
221.289476
21
77.532540
0
LINE
8
Layer 1
10
221.289476
20
77.532540
11
207.289276
21
77.532540
0
LINE
8
Layer 1
10
207.289276
20
77.532540
11
207.289276
21
63.532340
0
LINE
8
Layer 1
10
78.702276
20
82.582340
11
92.702500
21
82.582340
0
LINE
8
Layer 1
10
92.702500
20
82.582340
11
92.702500
21
83.582280
0
LINE
8
Layer 1
10
92.702500
20
83.582280
11
93.502452
21
83.582280
0
LINE
8
Layer 1
10
93.502452
20
83.582280
11
93.502452
21
86.682350
0
LINE
8
Layer 1
10
93.502452
20
86.682350
11
92.702500
21
86.682350
0
LINE
8
Layer 1
10
92.702500
20
86.682350
11
92.702500
21
92.482520
0
LINE
8
Layer 1
10
92.702500
20
92.482520
11
93.502452
21
92.482520
0
LINE
8
Layer 1
10
93.502452
20
92.482520
11
93.502452
21
95.582590
0
LINE
8
Layer 1
10
93.502452
20
95.582590
11
92.702500
21
95.582590
0
LINE
8
Layer 1
10
92.702500
20
95.582590
11
92.702500
21
96.582530
0
LINE
8
Layer 1
10
92.702500
20
96.582530
11
78.702400
21
96.582530
0
LINE
8
Layer 1
10
78.702400
20
96.582530
11
78.702400
21
95.582590
0
LINE
8
Layer 1
10
78.702400
20
95.582590
11
77.902400
21
95.582590
0
LINE
8
Layer 1
10
77.902400
20
95.582590
11
77.902400
21
92.482520
0
LINE
8
Layer 1
10
77.902400
20
92.482520
11
78.702352
21
92.482520
0
LINE
8
Layer 1
10
78.702352
20
92.482520
11
78.702352
21
86.682350
0
LINE
8
Layer 1
10
78.702352
20
86.682350
11
77.902400
21
86.682350
0
LINE
8
Layer 1
10
77.902400
20
86.682350
11
77.902400
21
83.582280
0
LINE
8
Layer 1
10
77.902400
20
83.582280
11
78.702352
21
83.582280
0
LINE
8
Layer 1
10
78.702352
20
83.582280
11
78.702276
21
82.582340
0
LINE
8
Layer 1
10
109.657976
20
82.582340
11
123.658176
21
82.582340
0
LINE
8
Layer 1
10
123.658176
20
82.582340
11
123.658176
21
96.582540
0
LINE
8
Layer 1
10
123.658176
20
96.582540
11
109.657976
21
96.582540
0
LINE
8
Layer 1
10
109.657976
20
96.582540
11
109.657976
21
82.582340
0
LINE
8
Layer 1
10
135.852276
20
82.582340
11
149.852476
21
82.582340
0
LINE
8
Layer 1
10
149.852476
20
82.582340
11
149.852476
21
96.582540
0
LINE
8
Layer 1
10
149.852476
20
96.582540
11
135.852276
21
96.582540
0
LINE
8
Layer 1
10
135.852276
20
96.582540
11
135.852276
21
82.582340
0
LINE
8
Layer 1
10
154.901276
20
82.582340
11
168.901476
21
82.582340
0
LINE
8
Layer 1
10
168.901476
20
82.582340
11
168.901476
21
96.582540
0
LINE
8
Layer 1
10
168.901476
20
96.582540
11
154.901276
21
96.582540
0
LINE
8
Layer 1
10
154.901276
20
96.582540
11
154.901276
21
82.582340
0
LINE
8
Layer 1
10
173.951276
20
82.582340
11
187.952476
21
82.582340
0
LINE
8
Layer 1
10
187.952476
20
82.582340
11
187.952476
21
96.582540
0
LINE
8
Layer 1
10
187.952476
20
96.582540
11
173.951276
21
96.582540
0
LINE
8
Layer 1
10
173.951276
20
96.582540
11
173.951276
21
82.582340
0
LINE
8
Layer 1
10
193.002276
20
82.582340
11
207.002476
21
82.582340
0
LINE
8
Layer 1
10
207.002476
20
82.582340
11
207.002476
21
96.582540
0
LINE
8
Layer 1
10
207.002476
20
96.582540
11
193.002276
21
96.582540
0
LINE
8
Layer 1
10
193.002276
20
96.582540
11
193.002276
21
82.582340
0
LINE
8
Layer 1
10
212.052276
20
82.582340
11
226.052476
21
82.582340
0
LINE
8
Layer 1
10
226.052476
20
82.582340
11
226.052476
21
96.582540
0
LINE
8
Layer 1
10
226.052476
20
96.582540
11
212.052276
21
96.582540
0
LINE
8
Layer 1
10
212.052276
20
96.582540
11
212.052276
21
82.582340
0
LINE
8
Layer 1
10
62.002276
20
86.033300
11
71.302486
21
86.033300
0
LINE
8
Layer 1
10
71.302486
20
86.033300
11
71.302486
21
131.233000
0
LINE
8
Layer 1
10
71.302486
20
131.233000
11
62.002100
21
131.233000
0
LINE
8
Layer 1
10
62.002100
20
131.233000
11
62.002276
21
86.033300
0
LINE
8
Layer 1
10
78.702400
20
101.633000
11
92.702500
21
101.633000
0
LINE
8
Layer 1
10
92.702500
20
101.633000
11
92.702500
21
102.632940
0
LINE
8
Layer 1
10
92.702500
20
102.632940
11
93.502452
21
102.632940
0
LINE
8
Layer 1
10
93.502452
20
102.632940
11
93.502452
21
105.731980
0
LINE
8
Layer 1
10
93.502452
20
105.731980
11
92.702500
21
105.731980
0
LINE
8
Layer 1
10
92.702500
20
105.731980
11
92.702500
21
111.533180
0
LINE
8
Layer 1
10
92.702500
20
111.533180
11
93.502452
21
111.533180
0
LINE
8
Layer 1
10
93.502452
20
111.533180
11
93.502452
21
114.633250
0
LINE
8
Layer 1
10
93.502452
20
114.633250
11
92.702500
21
114.633250
0
LINE
8
Layer 1
10
92.702500
20
114.633250
11
92.702500
21
115.633190
0
LINE
8
Layer 1
10
92.702500
20
115.633190
11
78.702400
21
115.633190
0
LINE
8
Layer 1
10
78.702400
20
115.633190
11
78.702400
21
114.633250
0
LINE
8
Layer 1
10
78.702400
20
114.633250
11
77.902400
21
114.633250
0
LINE
8
Layer 1
10
77.902400
20
114.633250
11
77.902400
21
111.533180
0
LINE
8
Layer 1
10
77.902400
20
111.533180
11
78.702352
21
111.533180
0
LINE
8
Layer 1
10
78.702352
20
111.533180
11
78.702352
21
105.731980
0
LINE
8
Layer 1
10
78.702352
20
105.731980
11
77.902400
21
105.731980
0
LINE
8
Layer 1
10
77.902400
20
105.731980
11
77.902400
21
102.632940
0
LINE
8
Layer 1
10
77.902400
20
102.632940
11
78.702352
21
102.632940
0
LINE
8
Layer 1
10
78.702352
20
102.632940
11
78.702400
21
101.633000
0
LINE
8
Layer 1
10
114.420100
20
101.633000
11
128.420300
21
101.633000
0
LINE
8
Layer 1
10
128.420300
20
101.633000
11
128.420300
21
106.332980
0
LINE
8
Layer 1
10
128.420300
20
106.332980
11
129.945270
21
106.332980
0
LINE
8
Layer 1
10
129.945270
20
106.332980
11
129.945270
21
103.103210
0
LINE
8
Layer 1
10
129.945270
20
103.103210
11
136.695250
21
103.103210
0
LINE
8
Layer 1
10
136.695250
20
103.103210
11
136.695250
21
106.332980
0
LINE
8
Layer 1
10
136.695250
20
106.332980
11
137.520520
21
106.332980
0
LINE
8
Layer 1
10
137.520520
20
106.332980
11
137.520520
21
109.133330
0
LINE
8
Layer 1
10
137.520520
20
109.133330
11
136.695250
21
109.133330
0
LINE
8
Layer 1
10
136.695250
20
109.133330
11
136.695250
21
115.403240
0
LINE
8
Layer 1
10
136.695250
20
115.403240
11
134.970290
21
115.403240
0
LINE
8
Layer 1
10
134.970290
20
115.403240
11
134.970290
21
116.603160
0
LINE
8
Layer 1
10
134.970290
20
116.603160
11
131.670230
21
116.603160
0
LINE
8
Layer 1
10
131.670230
20
116.603160
11
131.670230
21
115.403240
0
LINE
8
Layer 1
10
131.670230
20
115.403240
11
129.945270
21
115.403240
0
LINE
8
Layer 1
10
129.945270
20
115.403240
11
129.945270
21
110.933210
0
LINE
8
Layer 1
10
129.945270
20
110.933210
11
128.420300
21
110.933210
0
LINE
8
Layer 1
10
128.420300
20
110.933210
11
128.420300
21
115.633190
0
LINE
8
Layer 1
10
128.420300
20
115.633190
11
114.420100
21
115.633190
0
LINE
8
Layer 1
10
114.420100
20
115.633190
11
114.420100
21
110.933210
0
LINE
8
Layer 1
10
114.420100
20
110.933210
11
112.895130
21
110.933210
0
LINE
8
Layer 1
10
112.895130
20
110.933210
11
112.895130
21
115.403240
0
LINE
8
Layer 1
10
112.895130
20
115.403240
11
111.170170
21
115.403240
0
LINE
8
Layer 1
10
111.170170
20
115.403240
11
111.170170
21
116.603160
0
LINE
8
Layer 1
10
111.170170
20
116.603160
11
107.870110
21
116.603160
0
LINE
8
Layer 1
10
107.870110
20
116.603160
11
107.870110
21
115.403240
0
LINE
8
Layer 1
10
107.870110
20
115.403240
11
106.145150
21
115.403240
0
LINE
8
Layer 1
10
106.145150
20
115.403240
11
106.145150
21
109.133330
0
LINE
8
Layer 1
10
106.145150
20
109.133330
11
105.320400
21
109.133330
0
LINE
8
Layer 1
10
105.320400
20
109.133330
11
105.320400
21
106.332980
0
LINE
8
Layer 1
10
105.320400
20
106.332980
11
106.145150
21
106.332980
0
LINE
8
Layer 1
10
106.145150
20
106.332980
11
106.145150
21
103.103210
0
LINE
8
Layer 1
10
106.145150
20
103.103210
11
112.895130
21
103.103210
0
LINE
8
Layer 1
10
112.895130
20
103.103210
11
112.895130
21
106.332980
0
LINE
8
Layer 1
10
112.895130
20
106.332980
11
114.420100
21
106.332980
0
LINE
8
Layer 1
10
114.420100
20
106.332980
11
114.420100
21
101.633000
0
LINE
8
Layer 1
10
145.377400
20
101.633000
11
159.377600
21
101.633000
0
LINE
8
Layer 1
10
159.377600
20
101.633000
11
159.377600
21
115.633200
0
LINE
8
Layer 1
10
159.377600
20
115.633200
11
145.377400
21
115.633200
0
LINE
8
Layer 1
10
145.377400
20
115.633200
11
145.377400
21
101.633000
0
LINE
8
Layer 1
10
164.427400
20
101.633000
11
178.427600
21
101.633000
0
LINE
8
Layer 1
10
178.427600
20
101.633000
11
178.427600
21
115.633200
0
LINE
8
Layer 1
10
178.427600
20
115.633200
11
164.427400
21
115.633200
0
LINE
8
Layer 1
10
164.427400
20
115.633200
11
164.427400
21
101.633000
0
LINE
8
Layer 1
10
183.477400
20
101.633000
11
197.477600
21
101.633000
0
LINE
8
Layer 1
10
197.477600
20
101.633000
11
197.477600
21
115.633200
0
LINE
8
Layer 1
10
197.477600
20
115.633200
11
183.477400
21
115.633200
0
LINE
8
Layer 1
10
183.477400
20
115.633200
11
183.477400
21
101.633000
0
LINE
8
Layer 1
10
202.527400
20
101.633000
11
216.527600
21
101.633000
0
LINE
8
Layer 1
10
216.527600
20
101.633000
11
216.527600
21
115.633200
0
LINE
8
Layer 1
10
216.527600
20
115.633200
11
202.527400
21
115.633200
0
LINE
8
Layer 1
10
202.527400
20
115.633200
11
202.527400
21
101.633000
0
LINE
8
Layer 1
10
221.577400
20
101.633000
11
235.577600
21
101.633000
0
LINE
8
Layer 1
10
235.577600
20
101.633000
11
235.577600
21
115.633200
0
LINE
8
Layer 1
10
235.577600
20
115.633200
11
221.577400
21
115.633200
0
LINE
8
Layer 1
10
221.577400
20
115.633200
11
221.577400
21
101.633000
0
LINE
8
Layer 1
10
78.701400
20
120.683000
11
92.701600
21
120.683000
0
LINE
8
Layer 1
10
92.701600
20
120.683000
11
92.701600
21
121.682940
0
LINE
8
Layer 1
10
92.701600
20
121.682940
11
93.501549
21
121.682940
0
LINE
8
Layer 1
10
93.501549
20
121.682940
11
93.501549
21
124.783010
0
LINE
8
Layer 1
10
93.501549
20
124.783010
11
92.701600
21
124.783010
0
LINE
8
Layer 1
10
92.701600
20
124.783010
11
92.701600
21
130.583180
0
LINE
8
Layer 1
10
92.701600
20
130.583180
11
93.501549
21
130.583180
0
LINE
8
Layer 1
10
93.501549
20
130.583180
11
93.501549
21
133.683250
0
LINE
8
Layer 1
10
93.501549
20
133.683250
11
92.701600
21
133.683250
0
LINE
8
Layer 1
10
92.701600
20
133.683250
11
92.701600
21
134.683190
0
LINE
8
Layer 1
10
92.701600
20
134.683190
11
78.701300
21
134.683190
0
LINE
8
Layer 1
10
78.701300
20
134.683190
11
78.701300
21
133.683250
0
LINE
8
Layer 1
10
78.701300
20
133.683250
11
77.902400
21
133.683250
0
LINE
8
Layer 1
10
77.902400
20
133.683250
11
77.902400
21
130.583180
0
LINE
8
Layer 1
10
77.902400
20
130.583180
11
78.701317
21
130.583180
0
LINE
8
Layer 1
10
78.701317
20
130.583180
11
78.701317
21
124.783010
0
LINE
8
Layer 1
10
78.701317
20
124.783010
11
77.902400
21
124.783010
0
LINE
8
Layer 1
10
77.902400
20
124.783010
11
77.902400
21
121.682940
0
LINE
8
Layer 1
10
77.902400
20
121.682940
11
78.701317
21
121.682940
0
LINE
8
Layer 1
10
78.701317
20
121.682940
11
78.701400
21
120.683000
0
LINE
8
Layer 1
10
104.895200
20
120.683000
11
118.895400
21
120.683000
0
LINE
8
Layer 1
10
118.895400
20
120.683000
11
118.895400
21
134.683200
0
LINE
8
Layer 1
10
118.895400
20
134.683200
11
104.895200
21
134.683200
0
LINE
8
Layer 1
10
104.895200
20
134.683200
11
104.895200
21
120.683000
0
LINE
8
Layer 1
10
128.708200
20
120.683000
11
142.708400
21
120.683000
0
LINE
8
Layer 1
10
142.708400
20
120.683000
11
142.708400
21
134.683200
0
LINE
8
Layer 1
10
142.708400
20
134.683200
11
128.708200
21
134.683200
0
LINE
8
Layer 1
10
128.708200
20
134.683200
11
128.708200
21
120.683000
0
LINE
8
Layer 1
10
152.520200
20
120.683000
11
166.520400
21
120.683000
0
LINE
8
Layer 1
10
166.520400
20
120.683000
11
166.520400
21
134.683200
0
LINE
8
Layer 1
10
166.520400
20
134.683200
11
152.520200
21
134.683200
0
LINE
8
Layer 1
10
152.520200
20
134.683200
11
152.520200
21
120.683000
0
LINE
8
Layer 1
10
183.477500
20
120.683000
11
197.477700
21
120.683000
0
LINE
8
Layer 1
10
197.477700
20
120.683000
11
197.477700
21
125.382980
0
LINE
8
Layer 1
10
197.477700
20
125.382980
11
199.002670
21
125.382980
0
LINE
8
Layer 1
10
199.002670
20
125.382980
11
199.002670
21
122.153210
0
LINE
8
Layer 1
10
199.002670
20
122.153210
11
205.752640
21
122.153210
0
LINE
8
Layer 1
10
205.752640
20
122.153210
11
205.752640
21
125.382980
0
LINE
8
Layer 1
10
205.752640
20
125.382980
11
206.577400
21
125.382980
0
LINE
8
Layer 1
10
206.577400
20
125.382980
11
206.577400
21
128.183330
0
LINE
8
Layer 1
10
206.577400
20
128.183330
11
205.752640
21
128.183330
0
LINE
8
Layer 1
10
205.752640
20
128.183330
11
205.752640
21
134.452190
0
LINE
8
Layer 1
10
205.752640
20
134.452190
11
204.027690
21
134.452190
0
LINE
8
Layer 1
10
204.027690
20
134.452190
11
204.027690
21
135.653160
0
LINE
8
Layer 1
10
204.027690
20
135.653160
11
200.727630
21
135.653160
0
LINE
8
Layer 1
10
200.727630
20
135.653160
11
200.727630
21
134.452190
0
LINE
8
Layer 1
10
200.727630
20
134.452190
11
199.002670
21
134.452190
0
LINE
8
Layer 1
10
199.002670
20
134.452190
11
199.002670
21
129.982180
0
LINE
8
Layer 1
10
199.002670
20
129.982180
11
197.477700
21
129.982180
0
LINE
8
Layer 1
10
197.477700
20
129.982180
11
197.477700
21
134.683190
0
LINE
8
Layer 1
10
197.477700
20
134.683190
11
183.477500
21
134.683190
0
LINE
8
Layer 1
10
183.477500
20
134.683190
11
183.477500
21
129.982180
0
LINE
8
Layer 1
10
183.477500
20
129.982180
11
181.951490
21
129.982180
0
LINE
8
Layer 1
10
181.951490
20
129.982180
11
181.951490
21
134.452190
0
LINE
8
Layer 1
10
181.951490
20
134.452190
11
180.227570
21
134.452190
0
LINE
8
Layer 1
10
180.227570
20
134.452190
11
180.227570
21
135.653160
0
LINE
8
Layer 1
10
180.227570
20
135.653160
11
176.927510
21
135.653160
0
LINE
8
Layer 1
10
176.927510
20
135.653160
11
176.927510
21
134.452190
0
LINE
8
Layer 1
10
176.927510
20
134.452190
11
175.202550
21
134.452190
0
LINE
8
Layer 1
10
175.202550
20
134.452190
11
175.202550
21
128.183330
0
LINE
8
Layer 1
10
175.202550
20
128.183330
11
174.377280
21
128.183330
0
LINE
8
Layer 1
10
174.377280
20
128.183330
11
174.377280
21
125.382980
0
LINE
8
Layer 1
10
174.377280
20
125.382980
11
175.202550
21
125.382980
0
LINE
8
Layer 1
10
175.202550
20
125.382980
11
175.202550
21
122.153210
0
LINE
8
Layer 1
10
175.202550
20
122.153210
11
181.951490
21
122.153210
0
LINE
8
Layer 1
10
181.951490
20
122.153210
11
181.951490
21
125.382980
0
LINE
8
Layer 1
10
181.951490
20
125.382980
11
183.477500
21
125.382980
0
LINE
8
Layer 1
10
183.477500
20
125.382980
11
183.477500
21
120.683000
0
LINE
8
Layer 1
10
214.433200
20
120.683000
11
228.433400
21
120.683000
0
LINE
8
Layer 1
10
228.433400
20
120.683000
11
228.433400
21
134.683200
0
LINE
8
Layer 1
10
228.433400
20
134.683200
11
214.433000
21
134.683200
0
LINE
8
Layer 1
10
214.433000
20
134.683200
11
214.433200
21
120.683000
0
LINE
8
Layer 1
10
53.205700
20
144.970000
11
53.219650
21
144.970000
0
LINE
8
Layer 1
10
53.219650
20
144.970000
11
53.602583
21
145.046033
0
LINE
8
Layer 1
10
53.602583
20
145.046033
11
53.927220
21
145.262897
0
LINE
8
Layer 1
10
53.927220
20
145.262897
11
54.144081
21
145.587536
0
LINE
8
Layer 1
10
54.144081
20
145.587536
11
54.220110
21
145.970470
0
LINE
8
Layer 1
10
54.220110
20
145.970470
11
54.143928
21
146.353241
0
LINE
8
Layer 1
10
54.143928
20
146.353241
11
53.927033
21
146.677701
0
LINE
8
Layer 1
10
53.927033
20
146.677701
11
53.602461
21
146.894427
0
LINE
8
Layer 1
10
53.602461
20
146.894427
11
53.219650
21
146.970410
0
LINE
8
Layer 1
10
53.219650
20
146.970410
11
52.830439
21
146.891814
0
LINE
8
Layer 1
10
52.830439
20
146.891814
11
52.512604
21
146.677516
0
LINE
8
Layer 1
10
52.512604
20
146.677516
11
52.298307
21
146.359681
0
LINE
8
Layer 1
10
52.298307
20
146.359681
11
52.219711
21
145.970470
0
LINE
8
Layer 1
10
52.219711
20
145.970470
11
52.296720
21
145.584441
0
LINE
8
Layer 1
10
52.296720
20
145.584441
11
52.507468
21
145.267969
0
LINE
8
Layer 1
10
52.507468
20
145.267969
11
52.820833
21
145.052630
0
LINE
8
Layer 1
10
52.820833
20
145.052630
11
53.205698
21
144.970000
0
LINE
8
Layer 1
10
53.205698
20
144.970000
11
53.205700
21
144.970000
0
LINE
8
Layer 1
10
141.266000
20
144.970000
11
141.279900
21
144.970000
0
LINE
8
Layer 1
10
141.279900
20
144.970000
11
141.662674
21
145.046183
0
LINE
8
Layer 1
10
141.662674
20
145.046183
11
141.987134
21
145.263081
0
LINE
8
Layer 1
10
141.987134
20
145.263081
11
142.203860
21
145.587656
0
LINE
8
Layer 1
10
142.203860
20
145.587656
11
142.279840
21
145.970470
0
LINE
8
Layer 1
10
142.279840
20
145.970470
11
142.201244
21
146.359681
0
LINE
8
Layer 1
10
142.201244
20
146.359681
11
141.986947
21
146.677517
0
LINE
8
Layer 1
10
141.986947
20
146.677517
11
141.669111
21
146.891814
0
LINE
8
Layer 1
10
141.669111
20
146.891814
11
141.279900
21
146.970410
0
LINE
8
Layer 1
10
141.279900
20
146.970410
11
140.890689
21
146.891814
0
LINE
8
Layer 1
10
140.890689
20
146.891814
11
140.572853
21
146.677517
0
LINE
8
Layer 1
10
140.572853
20
146.677517
11
140.358556
21
146.359681
0
LINE
8
Layer 1
10
140.358556
20
146.359681
11
140.279960
21
145.970470
0
LINE
8
Layer 1
10
140.279960
20
145.970470
11
140.356968
21
145.584443
0
LINE
8
Layer 1
10
140.356968
20
145.584443
11
140.567714
21
145.267972
0
LINE
8
Layer 1
10
140.567714
20
145.267972
11
140.881078
21
145.052632
0
LINE
8
Layer 1
10
140.881078
20
145.052632
11
141.265940
21
144.970000
0
LINE
8
Layer 1
10
141.265940
20
144.970000
11
141.266000
21
144.970000
0
LINE
8
Layer 1
10
229.324700
20
144.970000
11
229.339200
21
144.970000
0
LINE
8
Layer 1
10
229.339200
20
144.970000
11
229.721974
21
145.046183
0
LINE
8
Layer 1
10
229.721974
20
145.046183
11
230.046434
21
145.263081
0
LINE
8
Layer 1
10
230.046434
20
145.263081
11
230.263160
21
145.587656
0
LINE
8
Layer 1
10
230.263160
20
145.587656
11
230.339140
21
145.970470
0
LINE
8
Layer 1
10
230.339140
20
145.970470
11
230.260544
21
146.359681
0
LINE
8
Layer 1
10
230.260544
20
146.359681
11
230.046247
21
146.677517
0
LINE
8
Layer 1
10
230.046247
20
146.677517
11
229.728411
21
146.891814
0
LINE
8
Layer 1
10
229.728411
20
146.891814
11
229.339200
21
146.970410
0
LINE
8
Layer 1
10
229.339200
20
146.970410
11
228.956392
21
146.894424
0
LINE
8
Layer 1
10
228.956392
20
146.894424
11
228.631824
21
146.677697
0
LINE
8
Layer 1
10
228.631824
20
146.677697
11
228.414931
21
146.353239
0
LINE
8
Layer 1
10
228.414931
20
146.353239
11
228.338750
21
145.970470
0
LINE
8
Layer 1
10
228.338750
20
145.970470
11
228.415758
21
145.584443
0
LINE
8
Layer 1
10
228.415758
20
145.584443
11
228.626504
21
145.267972
0
LINE
8
Layer 1
10
228.626504
20
145.267972
11
228.939868
21
145.052632
0
LINE
8
Layer 1
10
228.939868
20
145.052632
11
229.324730
21
144.970000
0
LINE
8
Layer 1
10
229.324730
20
144.970000
11
229.324700
21
144.970000
0
LINE
8
Layer 1
10
52.660000
20
-92.519100
11
52.385082
21
-92.508250
0
LINE
8
Layer 1
10
52.385082
20
-92.508250
11
52.112230
21
-92.475180
0
LINE
8
Layer 1
10
52.112230
20
-92.475180
11
51.842479
21
-92.421950
0
LINE
8
Layer 1
10
51.842479
20
-92.421950
11
51.578413
21
-92.347020
0
LINE
8
Layer 1
10
51.578413
20
-92.347020
11
51.320030
21
-92.251930
0
LINE
8
Layer 1
10
51.320030
20
-92.251930
11
51.071467
21
-92.137210
0
LINE
8
Layer 1
10
51.071467
20
-92.137210
11
50.831171
21
-92.002849
0
LINE
8
Layer 1
10
50.831171
20
-92.002849
11
50.602245
21
-91.849888
0
LINE
8
Layer 1
10
50.602245
20
-91.849888
11
50.386237
21
-91.679872
0
LINE
8
Layer 1
10
50.386237
20
-91.679872
11
50.185216
21
-91.493320
0
LINE
8
Layer 1
10
50.185216
20
-91.493320
11
49.998147
21
-91.292300
0
LINE
8
Layer 1
10
49.998147
20
-91.292300
11
49.828132
21
-91.076291
0
LINE
8
Layer 1
10
49.828132
20
-91.076291
11
49.675170
21
-90.846847
0
LINE
8
Layer 1
10
49.675170
20
-90.846847
11
49.541328
21
-90.607069
0
LINE
8
Layer 1
10
49.541328
20
-90.607069
11
49.426089
21
-90.357990
0
LINE
8
Layer 1
10
49.426089
20
-90.357990
11
49.331009
21
-90.100125
0
LINE
8
Layer 1
10
49.331009
20
-90.100125
11
49.256079
21
-89.836044
0
LINE
8
Layer 1
10
49.256079
20
-89.836044
11
49.203369
21
-89.566301
0
LINE
8
Layer 1
10
49.203369
20
-89.566301
11
49.170299
21
-89.292934
0
LINE
8
Layer 1
10
49.170299
20
-89.292934
11
49.160499
21
-89.018005
0
LINE
8
Layer 1
10
49.160499
20
-89.018005
11
49.159499
21
19.994995
0
LINE
8
Layer 1
10
49.159499
20
19.994995
11
49.170349
21
20.269925
0
LINE
8
Layer 1
10
49.170349
20
20.269925
11
49.203419
21
20.542795
0
LINE
8
Layer 1
10
49.203419
20
20.542795
11
49.256129
21
20.812005
0
LINE
8
Layer 1
10
49.256129
20
20.812005
11
49.331059
21
21.077115
0
LINE
8
Layer 1
10
49.331059
20
21.077115
11
49.426139
21
21.333945
0
LINE
8
Layer 1
10
49.426139
20
21.333945
11
49.541378
21
21.584055
0
LINE
8
Layer 1
10
49.541378
20
21.584055
11
49.675220
21
21.823855
0
LINE
8
Layer 1
10
49.675220
20
21.823855
11
49.828182
21
22.051735
0
LINE
8
Layer 1
10
49.828182
20
22.051735
11
49.998197
21
22.267745
0
LINE
8
Layer 1
10
49.998197
20
22.267745
11
50.185266
21
22.469805
0
LINE
8
Layer 1
10
50.185266
20
22.469805
11
50.386287
21
22.655835
0
LINE
8
Layer 1
10
50.386287
20
22.655835
11
50.602295
21
22.826885
0
LINE
8
Layer 1
10
50.602295
20
22.826885
11
50.831222
21
22.978815
0
LINE
8
Layer 1
10
50.831222
20
22.978815
11
51.071517
21
23.114195
0
LINE
8
Layer 1
10
51.071517
20
23.114195
11
51.320081
21
23.228925
0
LINE
8
Layer 1
10
51.320081
20
23.228925
11
51.578463
21
23.324025
0
LINE
8
Layer 1
10
51.578463
20
23.324025
11
51.842529
21
23.397925
0
LINE
8
Layer 1
10
51.842529
20
23.397925
11
52.112280
21
23.452125
0
LINE
8
Layer 1
10
52.112280
20
23.452125
11
52.385132
21
23.484125
0
LINE
8
Layer 1
10
52.385132
20
23.484125
11
52.660050
21
23.494925
0
LINE
8
Layer 1
10
52.660050
20
23.494925
11
231.626000
21
23.494925
0
LINE
8
Layer 1
10
231.626000
20
23.494925
11
232.306344
21
23.356561
0
LINE
8
Layer 1
10
232.306344
20
23.356561
11
232.861717
21
22.981263
0
LINE
8
Layer 1
10
232.861717
20
22.981263
11
233.236026
21
22.425224
0
LINE
8
Layer 1
10
233.236026
20
22.425224
11
233.373180
21
21.744635
0
LINE
8
Layer 1
10
233.373180
20
21.744635
11
233.373180
21
10.732000
0
LINE
8
Layer 1
10
233.373180
20
10.732000
11
233.373180
21
-8.316990
0
LINE
8
Layer 1
10
233.373180
20
-8.316990
11
236.388500
21
-8.316990
0
LINE
8
Layer 1
10
236.388500
20
-8.316990
11
237.068839
21
-8.455352
0
LINE
8
Layer 1
10
237.068839
20
-8.455352
11
237.624210
21
-8.830645
0
LINE
8
Layer 1
10
237.624210
20
-8.830645
11
237.998520
21
-9.386677
0
LINE
8
Layer 1
10
237.998520
20
-9.386677
11
238.135680
21
-10.067260
0
LINE
8
Layer 1
10
238.135680
20
-10.067260
11
238.135680
21
-25.621860
0
LINE
8
Layer 1
10
238.135680
20
-25.621860
11
237.997317
21
-26.302202
0
LINE
8
Layer 1
10
237.997317
20
-26.302202
11
237.622022
21
-26.857573
0
LINE
8
Layer 1
10
237.622022
20
-26.857573
11
237.065986
21
-27.231883
0
LINE
8
Layer 1
10
237.065986
20
-27.231883
11
236.385400
21
-27.369040
0
LINE
8
Layer 1
10
236.385400
20
-27.369040
11
228.610680
21
-27.369040
0
LINE
8
Layer 1
10
228.610680
20
-27.369040
11
228.610680
21
-44.671840
0
LINE
8
Layer 1
10
228.610680
20
-44.671840
11
228.472317
21
-45.352182
0
LINE
8
Layer 1
10
228.472317
20
-45.352182
11
228.097022
21
-45.907553
0
LINE
8
Layer 1
10
228.097022
20
-45.907553
11
227.540986
21
-46.281863
0
LINE
8
Layer 1
10
227.540986
20
-46.281863
11
226.860400
21
-46.419020
0
LINE
8
Layer 1
10
226.860400
20
-46.419020
11
223.848180
21
-46.419020
0
LINE
8
Layer 1
10
223.848180
20
-46.419020
11
223.848180
21
-65.466920
0
LINE
8
Layer 1
10
223.848180
20
-65.466920
11
227.590590
21
-65.466920
0
LINE
8
Layer 1
10
227.590590
20
-65.466920
11
231.626000
21
-65.466920
0
LINE
8
Layer 1
10
231.626000
20
-65.466920
11
232.306339
21
-65.605282
0
LINE
8
Layer 1
10
232.306339
20
-65.605282
11
232.861710
21
-65.980575
0
LINE
8
Layer 1
10
232.861710
20
-65.980575
11
233.236020
21
-66.536607
0
LINE
8
Layer 1
10
233.236020
20
-66.536607
11
233.373180
21
-67.217190
0
LINE
8
Layer 1
10
233.373180
20
-67.217190
11
233.373180
21
-84.519990
0
LINE
8
Layer 1
10
233.373180
20
-84.519990
11
233.373180
21
-90.770780
0
LINE
8
Layer 1
10
233.373180
20
-90.770780
11
233.234817
21
-91.451122
0
LINE
8
Layer 1
10
233.234817
20
-91.451122
11
232.859522
21
-92.006493
0
LINE
8
Layer 1
10
232.859522
20
-92.006493
11
232.303486
21
-92.380803
0
LINE
8
Layer 1
10
232.303486
20
-92.380803
11
231.622900
21
-92.517960
0
LINE
8
Layer 1
10
231.622900
20
-92.517960
11
52.660000
21
-92.519100
0
LINE
8
Layer 1
10
53.239293
20
-89.520830
11
53.252733
21
-89.520830
0
LINE
8
Layer 1
10
53.252733
20
-89.520830
11
53.641944
21
-89.442234
0
LINE
8
Layer 1
10
53.641944
20
-89.442234
11
53.959779
21
-89.227936
0
LINE
8
Layer 1
10
53.959779
20
-89.227936
11
54.174076
21
-88.910101
0
LINE
8
Layer 1
10
54.174076
20
-88.910101
11
54.252672
21
-88.520890
0
LINE
8
Layer 1
10
54.252672
20
-88.520890
11
54.174076
21
-88.131679
0
LINE
8
Layer 1
10
54.174076
20
-88.131679
11
53.959779
21
-87.813844
0
LINE
8
Layer 1
10
53.959779
20
-87.813844
11
53.641944
21
-87.599547
0
LINE
8
Layer 1
10
53.641944
20
-87.599547
11
53.252733
21
-87.520951
0
LINE
8
Layer 1
10
53.252733
20
-87.520951
11
52.863522
21
-87.599547
0
LINE
8
Layer 1
10
52.863522
20
-87.599547
11
52.545687
21
-87.813844
0
LINE
8
Layer 1
10
52.545687
20
-87.813844
11
52.331390
21
-88.131679
0
LINE
8
Layer 1
10
52.331390
20
-88.131679
11
52.252794
21
-88.520890
0
LINE
8
Layer 1
10
52.252794
20
-88.520890
11
52.330008
21
-88.906872
0
LINE
8
Layer 1
10
52.330008
20
-88.906872
11
52.540921
21
-89.223229
0
LINE
8
Layer 1
10
52.540921
20
-89.223229
11
52.854396
21
-89.438401
0
LINE
8
Layer 1
10
52.854396
20
-89.438401
11
53.239298
21
-89.520830
0
LINE
8
Layer 1
10
53.239298
20
-89.520830
11
53.239293
21
-89.520830
0
LINE
8
Layer 1
10
103.142193
20
-89.520830
11
103.155593
21
-89.520830
0
LINE
8
Layer 1
10
103.155593
20
-89.520830
11
103.544804
21
-89.442234
0
LINE
8
Layer 1
10
103.544804
20
-89.442234
11
103.862640
21
-89.227937
0
LINE
8
Layer 1
10
103.862640
20
-89.227937
11
104.076937
21
-88.910101
0
LINE
8
Layer 1
10
104.076937
20
-88.910101
11
104.155533
21
-88.520890
0
LINE
8
Layer 1
10
104.155533
20
-88.520890
11
104.076937
21
-88.131679
0
LINE
8
Layer 1
10
104.076937
20
-88.131679
11
103.862639
21
-87.813844
0
LINE
8
Layer 1
10
103.862639
20
-87.813844
11
103.544804
21
-87.599547
0
LINE
8
Layer 1
10
103.544804
20
-87.599547
11
103.155593
21
-87.520951
0
LINE
8
Layer 1
10
103.155593
20
-87.520951
11
102.766382
21
-87.599547
0
LINE
8
Layer 1
10
102.766382
20
-87.599547
11
102.448547
21
-87.813844
0
LINE
8
Layer 1
10
102.448547
20
-87.813844
11
102.234249
21
-88.131679
0
LINE
8
Layer 1
10
102.234249
20
-88.131679
11
102.155653
21
-88.520890
0
LINE
8
Layer 1
10
102.155653
20
-88.520890
11
102.232868
21
-88.906874
0
LINE
8
Layer 1
10
102.232868
20
-88.906874
11
102.443782
21
-89.223231
0
LINE
8
Layer 1
10
102.443782
20
-89.223231
11
102.757259
21
-89.438403
0
LINE
8
Layer 1
10
102.757259
20
-89.438403
11
103.142163
21
-89.520830
0
LINE
8
Layer 1
10
103.142163
20
-89.520830
11
103.142193
21
-89.520830
0
LINE
8
Layer 1
10
125.158893
20
-89.520830
11
125.172293
21
-89.520830
0
LINE
8
Layer 1
10
125.172293
20
-89.520830
11
125.555101
21
-89.444844
0
LINE
8
Layer 1
10
125.555101
20
-89.444844
11
125.879669
21
-89.228117
0
LINE
8
Layer 1
10
125.879669
20
-89.228117
11
126.096562
21
-88.903659
0
LINE
8
Layer 1
10
126.096562
20
-88.903659
11
126.172743
21
-88.520890
0
LINE
8
Layer 1
10
126.172743
20
-88.520890
11
126.096562
21
-88.138121
0
LINE
8
Layer 1
10
126.096562
20
-88.138121
11
125.879669
21
-87.813664
0
LINE
8
Layer 1
10
125.879669
20
-87.813664
11
125.555101
21
-87.596936
0
LINE
8
Layer 1
10
125.555101
20
-87.596936
11
125.172293
21
-87.520951
0
LINE
8
Layer 1
10
125.172293
20
-87.520951
11
124.783082
21
-87.599547
0
LINE
8
Layer 1
10
124.783082
20
-87.599547
11
124.465247
21
-87.813844
0
LINE
8
Layer 1
10
124.465247
20
-87.813844
11
124.250949
21
-88.131679
0
LINE
8
Layer 1
10
124.250949
20
-88.131679
11
124.172353
21
-88.520890
0
LINE
8
Layer 1
10
124.172353
20
-88.520890
11
124.249567
21
-88.906871
0
LINE
8
Layer 1
10
124.249567
20
-88.906871
11
124.460478
21
-89.223228
0
LINE
8
Layer 1
10
124.460478
20
-89.223228
11
124.773952
21
-89.438400
0
LINE
8
Layer 1
10
124.773952
20
-89.438400
11
125.158853
21
-89.520830
0
LINE
8
Layer 1
10
125.158853
20
-89.520830
11
125.158893
21
-89.520830
0
LINE
8
Layer 1
10
205.359193
20
-89.520830
11
205.372593
21
-89.520830
0
LINE
8
Layer 1
10
205.372593
20
-89.520830
11
205.761804
21
-89.442234
0
LINE
8
Layer 1
10
205.761804
20
-89.442234
11
206.079640
21
-89.227937
0
LINE
8
Layer 1
10
206.079640
20
-89.227937
11
206.293937
21
-88.910101
0
LINE
8
Layer 1
10
206.293937
20
-88.910101
11
206.372533
21
-88.520890
0
LINE
8
Layer 1
10
206.372533
20
-88.520890
11
206.293937
21
-88.131679
0
LINE
8
Layer 1
10
206.293937
20
-88.131679
11
206.079639
21
-87.813844
0
LINE
8
Layer 1
10
206.079639
20
-87.813844
11
205.761804
21
-87.599547
0
LINE
8
Layer 1
10
205.761804
20
-87.599547
11
205.372593
21
-87.520951
0
LINE
8
Layer 1
10
205.372593
20
-87.520951
11
204.983382
21
-87.599547
0
LINE
8
Layer 1
10
204.983382
20
-87.599547
11
204.665547
21
-87.813844
0
LINE
8
Layer 1
10
204.665547
20
-87.813844
11
204.451249
21
-88.131679
0
LINE
8
Layer 1
10
204.451249
20
-88.131679
11
204.372653
21
-88.520890
0
LINE
8
Layer 1
10
204.372653
20
-88.520890
11
204.449867
21
-88.906871
0
LINE
8
Layer 1
10
204.449867
20
-88.906871
11
204.660778
21
-89.223228
0
LINE
8
Layer 1
10
204.660778
20
-89.223228
11
204.974252
21
-89.438400
0
LINE
8
Layer 1
10
204.974252
20
-89.438400
11
205.359153
21
-89.520830
0
LINE
8
Layer 1
10
205.359153
20
-89.520830
11
205.359193
21
-89.520830
0
LINE
8
Layer 1
10
229.358293
20
-89.520830
11
229.371693
21
-89.520830
0
LINE
8
Layer 1
10
229.371693
20
-89.520830
11
229.760904
21
-89.442234
0
LINE
8
Layer 1
10
229.760904
20
-89.442234
11
230.078740
21
-89.227937
0
LINE
8
Layer 1
10
230.078740
20
-89.227937
11
230.293037
21
-88.910101
0
LINE
8
Layer 1
10
230.293037
20
-88.910101
11
230.371633
21
-88.520890
0
LINE
8
Layer 1
10
230.371633
20
-88.520890
11
230.293037
21
-88.131679
0
LINE
8
Layer 1
10
230.293037
20
-88.131679
11
230.078739
21
-87.813844
0
LINE
8
Layer 1
10
230.078739
20
-87.813844
11
229.760904
21
-87.599547
0
LINE
8
Layer 1
10
229.760904
20
-87.599547
11
229.371693
21
-87.520951
0
LINE
8
Layer 1
10
229.371693
20
-87.520951
11
228.982482
21
-87.599547
0
LINE
8
Layer 1
10
228.982482
20
-87.599547
11
228.664647
21
-87.813844
0
LINE
8
Layer 1
10
228.664647
20
-87.813844
11
228.450349
21
-88.131679
0
LINE
8
Layer 1
10
228.450349
20
-88.131679
11
228.371753
21
-88.520890
0
LINE
8
Layer 1
10
228.371753
20
-88.520890
11
228.448967
21
-88.906871
0
LINE
8
Layer 1
10
228.448967
20
-88.906871
11
228.659878
21
-89.223228
0
LINE
8
Layer 1
10
228.659878
20
-89.223228
11
228.973352
21
-89.438400
0
LINE
8
Layer 1
10
228.973352
20
-89.438400
11
229.358253
21
-89.520830
0
LINE
8
Layer 1
10
229.358253
20
-89.520830
11
229.358293
21
-89.520830
0
LINE
8
Layer 1
10
63.458800
20
-84.521100
11
88.958500
21
-84.521100
0
LINE
8
Layer 1
10
88.958500
20
-84.521100
11
88.958500
21
-58.521200
0
LINE
8
Layer 1
10
88.958500
20
-58.521200
11
88.958500
21
-48.521270
0
LINE
8
Layer 1
10
88.958500
20
-48.521270
11
77.358800
21
-48.521270
0
LINE
8
Layer 1
10
77.358800
20
-48.521270
11
77.358800
21
-58.521200
0
LINE
8
Layer 1
10
77.358800
20
-58.521200
11
75.058680
21
-58.521200
0
LINE
8
Layer 1
10
75.058680
20
-58.521200
11
75.058680
21
-48.521270
0
LINE
8
Layer 1
10
75.058680
20
-48.521270
11
63.458880
21
-48.521270
0
LINE
8
Layer 1
10
63.458880
20
-48.521270
11
63.458880
21
-58.521200
0
LINE
8
Layer 1
10
63.458880
20
-58.521200
11
63.458800
21
-84.521100
0
LINE
8
Layer 1
10
107.641600
20
-83.805905
11
111.452740
21
-83.805905
0
LINE
8
Layer 1
10
111.452740
20
-83.805905
11
111.452740
21
-81.995175
0
LINE
8
Layer 1
10
111.452740
20
-81.995175
11
116.547000
21
-81.995175
0
LINE
8
Layer 1
10
116.547000
20
-81.995175
11
116.547000
21
-80.995236
0
LINE
8
Layer 1
10
116.547000
20
-80.995236
11
117.346950
21
-80.995236
0
LINE
8
Layer 1
10
117.346950
20
-80.995236
11
117.346950
21
-77.895166
0
LINE
8
Layer 1
10
117.346950
20
-77.895166
11
116.547000
21
-77.895166
0
LINE
8
Layer 1
10
116.547000
20
-77.895166
11
116.547000
21
-72.094996
0
LINE
8
Layer 1
10
116.547000
20
-72.094996
11
117.346950
21
-72.094996
0
LINE
8
Layer 1
10
117.346950
20
-72.094996
11
117.346950
21
-68.995456
0
LINE
8
Layer 1
10
117.346950
20
-68.995456
11
116.547000
21
-68.995456
0
LINE
8
Layer 1
10
116.547000
20
-68.995456
11
116.547000
21
-67.994986
0
LINE
8
Layer 1
10
116.547000
20
-67.994986
11
111.452740
21
-67.994986
0
LINE
8
Layer 1
10
111.452740
20
-67.994986
11
111.452740
21
-66.184256
0
LINE
8
Layer 1
10
111.452740
20
-66.184256
11
107.641600
21
-66.184256
0
LINE
8
Layer 1
10
107.641600
20
-66.184256
11
107.641600
21
-67.994986
0
LINE
8
Layer 1
10
107.641600
20
-67.994986
11
102.547340
21
-67.994986
0
LINE
8
Layer 1
10
102.547340
20
-67.994986
11
102.547340
21
-68.995456
0
LINE
8
Layer 1
10
102.547340
20
-68.995456
11
101.747390
21
-68.995456
0
LINE
8
Layer 1
10
101.747390
20
-68.995456
11
101.747390
21
-72.094996
0
LINE
8
Layer 1
10
101.747390
20
-72.094996
11
102.547340
21
-72.094996
0
LINE
8
Layer 1
10
102.547340
20
-72.094996
11
102.547340
21
-77.895166
0
LINE
8
Layer 1
10
102.547340
20
-77.895166
11
101.747390
21
-77.895166
0
LINE
8
Layer 1
10
101.747390
20
-77.895166
11
101.747390
21
-80.995236
0
LINE
8
Layer 1
10
101.747390
20
-80.995236
11
102.547340
21
-80.995236
0
LINE
8
Layer 1
10
102.547340
20
-80.995236
11
102.547340
21
-81.995175
0
LINE
8
Layer 1
10
102.547340
20
-81.995175
11
107.641600
21
-81.995175
0
LINE
8
Layer 1
10
107.641600
20
-81.995175
11
107.641600
21
-83.805905
0
LINE
8
Layer 1
10
126.691600
20
-83.805905
11
130.502740
21
-83.805905
0
LINE
8
Layer 1
10
130.502740
20
-83.805905
11
130.502740
21
-81.995175
0
LINE
8
Layer 1
10
130.502740
20
-81.995175
11
135.597000
21
-81.995175
0
LINE
8
Layer 1
10
135.597000
20
-81.995175
11
135.597000
21
-80.995236
0
LINE
8
Layer 1
10
135.597000
20
-80.995236
11
136.396950
21
-80.995236
0
LINE
8
Layer 1
10
136.396950
20
-80.995236
11
136.396950
21
-77.895166
0
LINE
8
Layer 1
10
136.396950
20
-77.895166
11
135.597000
21
-77.895166
0
LINE
8
Layer 1
10
135.597000
20
-77.895166
11
135.597000
21
-72.094996
0
LINE
8
Layer 1
10
135.597000
20
-72.094996
11
136.396950
21
-72.094996
0
LINE
8
Layer 1
10
136.396950
20
-72.094996
11
136.396950
21
-68.995456
0
LINE
8
Layer 1
10
136.396950
20
-68.995456
11
135.597000
21
-68.995456
0
LINE
8
Layer 1
10
135.597000
20
-68.995456
11
135.597000
21
-67.994986
0
LINE
8
Layer 1
10
135.597000
20
-67.994986
11
130.502740
21
-67.994986
0
LINE
8
Layer 1
10
130.502740
20
-67.994986
11
130.502740
21
-66.184256
0
LINE
8
Layer 1
10
130.502740
20
-66.184256
11
126.691600
21
-66.184256
0
LINE
8
Layer 1
10
126.691600
20
-66.184256
11
126.691600
21
-67.994986
0
LINE
8
Layer 1
10
126.691600
20
-67.994986
11
121.597340
21
-67.994986
0
LINE
8
Layer 1
10
121.597340
20
-67.994986
11
121.597340
21
-68.995456
0
LINE
8
Layer 1
10
121.597340
20
-68.995456
11
120.797390
21
-68.995456
0
LINE
8
Layer 1
10
120.797390
20
-68.995456
11
120.797390
21
-72.094996
0
LINE
8
Layer 1
10
120.797390
20
-72.094996
11
121.597340
21
-72.094996
0
LINE
8
Layer 1
10
121.597340
20
-72.094996
11
121.597340
21
-77.895166
0
LINE
8
Layer 1
10
121.597340
20
-77.895166
11
120.797390
21
-77.895166
0
LINE
8
Layer 1
10
120.797390
20
-77.895166
11
120.797390
21
-80.995236
0
LINE
8
Layer 1
10
120.797390
20
-80.995236
11
121.597340
21
-80.995236
0
LINE
8
Layer 1
10
121.597340
20
-80.995236
11
121.597340
21
-81.995175
0
LINE
8
Layer 1
10
121.597340
20
-81.995175
11
126.691600
21
-81.995175
0
LINE
8
Layer 1
10
126.691600
20
-81.995175
11
126.691600
21
-83.805905
0
LINE
8
Layer 1
10
145.741600
20
-83.805905
11
149.552740
21
-83.805905
0
LINE
8
Layer 1
10
149.552740
20
-83.805905
11
149.552740
21
-81.995175
0
LINE
8
Layer 1
10
149.552740
20
-81.995175
11
154.647000
21
-81.995175
0
LINE
8
Layer 1
10
154.647000
20
-81.995175
11
154.647000
21
-80.995236
0
LINE
8
Layer 1
10
154.647000
20
-80.995236
11
155.446950
21
-80.995236
0
LINE
8
Layer 1
10
155.446950
20
-80.995236
11
155.446950
21
-77.895166
0
LINE
8
Layer 1
10
155.446950
20
-77.895166
11
154.647000
21
-77.895166
0
LINE
8
Layer 1
10
154.647000
20
-77.895166
11
154.647000
21
-72.094996
0
LINE
8
Layer 1
10
154.647000
20
-72.094996
11
155.446950
21
-72.094996
0
LINE
8
Layer 1
10
155.446950
20
-72.094996
11
155.446950
21
-68.995456
0
LINE
8
Layer 1
10
155.446950
20
-68.995456
11
154.647000
21
-68.995456
0
LINE
8
Layer 1
10
154.647000
20
-68.995456
11
154.647000
21
-67.994986
0
LINE
8
Layer 1
10
154.647000
20
-67.994986
11
149.552740
21
-67.994986
0
LINE
8
Layer 1
10
149.552740
20
-67.994986
11
149.552740
21
-66.184256
0
LINE
8
Layer 1
10
149.552740
20
-66.184256
11
145.741600
21
-66.184256
0
LINE
8
Layer 1
10
145.741600
20
-66.184256
11
145.741600
21
-67.994986
0
LINE
8
Layer 1
10
145.741600
20
-67.994986
11
140.647340
21
-67.994986
0
LINE
8
Layer 1
10
140.647340
20
-67.994986
11
140.647340
21
-68.995456
0
LINE
8
Layer 1
10
140.647340
20
-68.995456
11
139.847390
21
-68.995456
0
LINE
8
Layer 1
10
139.847390
20
-68.995456
11
139.847390
21
-72.094996
0
LINE
8
Layer 1
10
139.847390
20
-72.094996
11
140.647340
21
-72.094996
0
LINE
8
Layer 1
10
140.647340
20
-72.094996
11
140.647340
21
-77.895166
0
LINE
8
Layer 1
10
140.647340
20
-77.895166
11
139.847390
21
-77.895166
0
LINE
8
Layer 1
10
139.847390
20
-77.895166
11
139.847390
21
-80.995236
0
LINE
8
Layer 1
10
139.847390
20
-80.995236
11
140.647340
21
-80.995236
0
LINE
8
Layer 1
10
140.647340
20
-80.995236
11
140.647340
21
-81.995175
0
LINE
8
Layer 1
10
140.647340
20
-81.995175
11
145.741600
21
-81.995175
0
LINE
8
Layer 1
10
145.741600
20
-81.995175
11
145.741600
21
-83.805905
0
LINE
8
Layer 1
10
164.791600
20
-83.805905
11
168.602740
21
-83.805905
0
LINE
8
Layer 1
10
168.602740
20
-83.805905
11
168.602740
21
-81.995175
0
LINE
8
Layer 1
10
168.602740
20
-81.995175
11
173.697000
21
-81.995175
0
LINE
8
Layer 1
10
173.697000
20
-81.995175
11
173.697000
21
-80.995236
0
LINE
8
Layer 1
10
173.697000
20
-80.995236
11
174.496950
21
-80.995236
0
LINE
8
Layer 1
10
174.496950
20
-80.995236
11
174.496950
21
-77.895166
0
LINE
8
Layer 1
10
174.496950
20
-77.895166
11
173.697000
21
-77.895166
0
LINE
8
Layer 1
10
173.697000
20
-77.895166
11
173.697000
21
-72.094996
0
LINE
8
Layer 1
10
173.697000
20
-72.094996
11
174.496950
21
-72.094996
0
LINE
8
Layer 1
10
174.496950
20
-72.094996
11
174.496950
21
-68.995456
0
LINE
8
Layer 1
10
174.496950
20
-68.995456
11
173.697000
21
-68.995456
0
LINE
8
Layer 1
10
173.697000
20
-68.995456
11
173.697000
21
-67.994986
0
LINE
8
Layer 1
10
173.697000
20
-67.994986
11
168.602740
21
-67.994986
0
LINE
8
Layer 1
10
168.602740
20
-67.994986
11
168.602740
21
-66.184256
0
LINE
8
Layer 1
10
168.602740
20
-66.184256
11
164.791600
21
-66.184256
0
LINE
8
Layer 1
10
164.791600
20
-66.184256
11
164.791600
21
-67.994986
0
LINE
8
Layer 1
10
164.791600
20
-67.994986
11
159.697340
21
-67.994986
0
LINE
8
Layer 1
10
159.697340
20
-67.994986
11
159.697340
21
-68.995456
0
LINE
8
Layer 1
10
159.697340
20
-68.995456
11
158.897380
21
-68.995456
0
LINE
8
Layer 1
10
158.897380
20
-68.995456
11
158.897380
21
-72.094996
0
LINE
8
Layer 1
10
158.897380
20
-72.094996
11
159.697340
21
-72.094996
0
LINE
8
Layer 1
10
159.697340
20
-72.094996
11
159.697340
21
-77.895166
0
LINE
8
Layer 1
10
159.697340
20
-77.895166
11
158.897380
21
-77.895166
0
LINE
8
Layer 1
10
158.897380
20
-77.895166
11
158.897380
21
-80.995236
0
LINE
8
Layer 1
10
158.897380
20
-80.995236
11
159.697340
21
-80.995236
0
LINE
8
Layer 1
10
159.697340
20
-80.995236
11
159.697340
21
-81.995175
0
LINE
8
Layer 1
10
159.697340
20
-81.995175
11
164.791600
21
-81.995175
0
LINE
8
Layer 1
10
164.791600
20
-81.995175
11
164.791600
21
-83.805905
0
LINE
8
Layer 1
10
183.841600
20
-83.805905
11
187.652740
21
-83.805905
0
LINE
8
Layer 1
10
187.652740
20
-83.805905
11
187.652740
21
-81.995175
0
LINE
8
Layer 1
10
187.652740
20
-81.995175
11
192.747000
21
-81.995175
0
LINE
8
Layer 1
10
192.747000
20
-81.995175
11
192.747000
21
-80.995236
0
LINE
8
Layer 1
10
192.747000
20
-80.995236
11
193.546950
21
-80.995236
0
LINE
8
Layer 1
10
193.546950
20
-80.995236
11
193.546950
21
-77.895166
0
LINE
8
Layer 1
10
193.546950
20
-77.895166
11
192.747000
21
-77.895166
0
LINE
8
Layer 1
10
192.747000
20
-77.895166
11
192.747000
21
-72.094996
0
LINE
8
Layer 1
10
192.747000
20
-72.094996
11
193.546950
21
-72.094996
0
LINE
8
Layer 1
10
193.546950
20
-72.094996
11
193.546950
21
-68.995456
0
LINE
8
Layer 1
10
193.546950
20
-68.995456
11
192.747000
21
-68.995456
0
LINE
8
Layer 1
10
192.747000
20
-68.995456
11
192.747000
21
-67.994986
0
LINE
8
Layer 1
10
192.747000
20
-67.994986
11
187.652740
21
-67.994986
0
LINE
8
Layer 1
10
187.652740
20
-67.994986
11
187.652740
21
-66.184256
0
LINE
8
Layer 1
10
187.652740
20
-66.184256
11
183.841600
21
-66.184256
0
LINE
8
Layer 1
10
183.841600
20
-66.184256
11
183.841600
21
-67.994986
0
LINE
8
Layer 1
10
183.841600
20
-67.994986
11
178.747340
21
-67.994986
0
LINE
8
Layer 1
10
178.747340
20
-67.994986
11
178.747340
21
-68.995456
0
LINE
8
Layer 1
10
178.747340
20
-68.995456
11
177.947380
21
-68.995456
0
LINE
8
Layer 1
10
177.947380
20
-68.995456
11
177.947380
21
-72.094996
0
LINE
8
Layer 1
10
177.947380
20
-72.094996
11
178.747340
21
-72.094996
0
LINE
8
Layer 1
10
178.747340
20
-72.094996
11
178.747340
21
-77.895166
0
LINE
8
Layer 1
10
178.747340
20
-77.895166
11
177.947380
21
-77.895166
0
LINE
8
Layer 1
10
177.947380
20
-77.895166
11
177.947380
21
-80.995236
0
LINE
8
Layer 1
10
177.947380
20
-80.995236
11
178.747340
21
-80.995236
0
LINE
8
Layer 1
10
178.747340
20
-80.995236
11
178.747340
21
-81.995175
0
LINE
8
Layer 1
10
178.747340
20
-81.995175
11
183.841600
21
-81.995175
0
LINE
8
Layer 1
10
183.841600
20
-81.995175
11
183.841600
21
-83.805905
0
LINE
8
Layer 1
10
202.891600
20
-83.805905
11
206.702740
21
-83.805905
0
LINE
8
Layer 1
10
206.702740
20
-83.805905
11
206.702740
21
-81.995175
0
LINE
8
Layer 1
10
206.702740
20
-81.995175
11
211.797000
21
-81.995175
0
LINE
8
Layer 1
10
211.797000
20
-81.995175
11
211.797000
21
-80.995236
0
LINE
8
Layer 1
10
211.797000
20
-80.995236
11
212.596950
21
-80.995236
0
LINE
8
Layer 1
10
212.596950
20
-80.995236
11
212.596950
21
-77.895166
0
LINE
8
Layer 1
10
212.596950
20
-77.895166
11
211.797000
21
-77.895166
0
LINE
8
Layer 1
10
211.797000
20
-77.895166
11
211.797000
21
-72.094996
0
LINE
8
Layer 1
10
211.797000
20
-72.094996
11
212.596950
21
-72.094996
0
LINE
8
Layer 1
10
212.596950
20
-72.094996
11
212.596950
21
-68.995456
0
LINE
8
Layer 1
10
212.596950
20
-68.995456
11
211.797000
21
-68.995456
0
LINE
8
Layer 1
10
211.797000
20
-68.995456
11
211.797000
21
-67.994986
0
LINE
8
Layer 1
10
211.797000
20
-67.994986
11
206.702740
21
-67.994986
0
LINE
8
Layer 1
10
206.702740
20
-67.994986
11
206.702740
21
-66.184256
0
LINE
8
Layer 1
10
206.702740
20
-66.184256
11
202.891600
21
-66.184256
0
LINE
8
Layer 1
10
202.891600
20
-66.184256
11
202.891600
21
-67.994986
0
LINE
8
Layer 1
10
202.891600
20
-67.994986
11
197.797340
21
-67.994986
0
LINE
8
Layer 1
10
197.797340
20
-67.994986
11
197.797340
21
-68.995456
0
LINE
8
Layer 1
10
197.797340
20
-68.995456
11
196.997380
21
-68.995456
0
LINE
8
Layer 1
10
196.997380
20
-68.995456
11
196.997380
21
-72.094996
0
LINE
8
Layer 1
10
196.997380
20
-72.094996
11
197.797340
21
-72.094996
0
LINE
8
Layer 1
10
197.797340
20
-72.094996
11
197.797340
21
-77.895166
0
LINE
8
Layer 1
10
197.797340
20
-77.895166
11
196.997380
21
-77.895166
0
LINE
8
Layer 1
10
196.997380
20
-77.895166
11
196.997380
21
-80.995236
0
LINE
8
Layer 1
10
196.997380
20
-80.995236
11
197.797340
21
-80.995236
0
LINE
8
Layer 1
10
197.797340
20
-80.995236
11
197.797340
21
-81.995175
0
LINE
8
Layer 1
10
197.797340
20
-81.995175
11
202.891600
21
-81.995175
0
LINE
8
Layer 1
10
202.891600
20
-81.995175
11
202.891600
21
-83.805905
0
LINE
8
Layer 1
10
221.941600
20
-83.805905
11
225.752740
21
-83.805905
0
LINE
8
Layer 1
10
225.752740
20
-83.805905
11
225.752740
21
-81.995175
0
LINE
8
Layer 1
10
225.752740
20
-81.995175
11
230.847000
21
-81.995175
0
LINE
8
Layer 1
10
230.847000
20
-81.995175
11
230.847000
21
-80.995236
0
LINE
8
Layer 1
10
230.847000
20
-80.995236
11
231.646950
21
-80.995236
0
LINE
8
Layer 1
10
231.646950
20
-80.995236
11
231.646950
21
-77.895166
0
LINE
8
Layer 1
10
231.646950
20
-77.895166
11
230.847000
21
-77.895166
0
LINE
8
Layer 1
10
230.847000
20
-77.895166
11
230.847000
21
-72.094996
0
LINE
8
Layer 1
10
230.847000
20
-72.094996
11
231.646950
21
-72.094996
0
LINE
8
Layer 1
10
231.646950
20
-72.094996
11
231.646950
21
-68.995456
0
LINE
8
Layer 1
10
231.646950
20
-68.995456
11
230.847000
21
-68.995456
0
LINE
8
Layer 1
10
230.847000
20
-68.995456
11
230.847000
21
-67.994986
0
LINE
8
Layer 1
10
230.847000
20
-67.994986
11
225.752740
21
-67.994986
0
LINE
8
Layer 1
10
225.752740
20
-67.994986
11
225.752740
21
-66.184256
0
LINE
8
Layer 1
10
225.752740
20
-66.184256
11
221.941600
21
-66.184256
0
LINE
8
Layer 1
10
221.941600
20
-66.184256
11
221.941600
21
-67.994986
0
LINE
8
Layer 1
10
221.941600
20
-67.994986
11
216.847340
21
-67.994986
0
LINE
8
Layer 1
10
216.847340
20
-67.994986
11
216.847340
21
-68.995456
0
LINE
8
Layer 1
10
216.847340
20
-68.995456
11
216.047380
21
-68.995456
0
LINE
8
Layer 1
10
216.047380
20
-68.995456
11
216.047380
21
-72.094996
0
LINE
8
Layer 1
10
216.047380
20
-72.094996
11
216.847340
21
-72.094996
0
LINE
8
Layer 1
10
216.847340
20
-72.094996
11
216.847340
21
-77.895166
0
LINE
8
Layer 1
10
216.847340
20
-77.895166
11
216.047380
21
-77.895166
0
LINE
8
Layer 1
10
216.047380
20
-77.895166
11
216.047380
21
-80.995236
0
LINE
8
Layer 1
10
216.047380
20
-80.995236
11
216.847340
21
-80.995236
0
LINE
8
Layer 1
10
216.847340
20
-80.995236
11
216.847340
21
-81.995175
0
LINE
8
Layer 1
10
216.847340
20
-81.995175
11
221.941600
21
-81.995175
0
LINE
8
Layer 1
10
221.941600
20
-81.995175
11
221.941600
21
-83.805905
0
LINE
8
Layer 1
10
112.404600
20
-64.755905
11
116.215730
21
-64.755905
0
LINE
8
Layer 1
10
116.215730
20
-64.755905
11
116.215730
21
-62.945175
0
LINE
8
Layer 1
10
116.215730
20
-62.945175
11
121.310000
21
-62.945175
0
LINE
8
Layer 1
10
121.310000
20
-62.945175
11
121.310000
21
-61.945236
0
LINE
8
Layer 1
10
121.310000
20
-61.945236
11
122.109950
21
-61.945236
0
LINE
8
Layer 1
10
122.109950
20
-61.945236
11
122.109950
21
-58.845166
0
LINE
8
Layer 1
10
122.109950
20
-58.845166
11
121.310000
21
-58.845166
0
LINE
8
Layer 1
10
121.310000
20
-58.845166
11
121.310000
21
-53.044996
0
LINE
8
Layer 1
10
121.310000
20
-53.044996
11
122.109950
21
-53.044996
0
LINE
8
Layer 1
10
122.109950
20
-53.044996
11
122.109950
21
-49.945456
0
LINE
8
Layer 1
10
122.109950
20
-49.945456
11
121.310000
21
-49.945456
0
LINE
8
Layer 1
10
121.310000
20
-49.945456
11
121.310000
21
-48.944986
0
LINE
8
Layer 1
10
121.310000
20
-48.944986
11
116.215730
21
-48.944986
0
LINE
8
Layer 1
10
116.215730
20
-48.944986
11
116.215730
21
-47.134256
0
LINE
8
Layer 1
10
116.215730
20
-47.134256
11
112.404600
21
-47.134256
0
LINE
8
Layer 1
10
112.404600
20
-47.134256
11
112.404600
21
-48.944986
0
LINE
8
Layer 1
10
112.404600
20
-48.944986
11
107.310340
21
-48.944986
0
LINE
8
Layer 1
10
107.310340
20
-48.944986
11
107.310340
21
-49.945456
0
LINE
8
Layer 1
10
107.310340
20
-49.945456
11
106.510380
21
-49.945456
0
LINE
8
Layer 1
10
106.510380
20
-49.945456
11
106.510380
21
-53.044996
0
LINE
8
Layer 1
10
106.510380
20
-53.044996
11
107.310340
21
-53.044996
0
LINE
8
Layer 1
10
107.310340
20
-53.044996
11
107.310340
21
-58.845166
0
LINE
8
Layer 1
10
107.310340
20
-58.845166
11
106.510380
21
-58.845166
0
LINE
8
Layer 1
10
106.510380
20
-58.845166
11
106.510380
21
-61.945236
0
LINE
8
Layer 1
10
106.510380
20
-61.945236
11
107.310340
21
-61.945236
0
LINE
8
Layer 1
10
107.310340
20
-61.945236
11
107.310340
21
-62.945175
0
LINE
8
Layer 1
10
107.310340
20
-62.945175
11
112.404600
21
-62.945175
0
LINE
8
Layer 1
10
112.404600
20
-62.945175
11
112.404600
21
-64.755905
0
LINE
8
Layer 1
10
136.216600
20
-64.755905
11
140.027740
21
-64.755905
0
LINE
8
Layer 1
10
140.027740
20
-64.755905
11
140.027740
21
-62.945175
0
LINE
8
Layer 1
10
140.027740
20
-62.945175
11
145.122000
21
-62.945175
0
LINE
8
Layer 1
10
145.122000
20
-62.945175
11
145.122000
21
-61.945236
0
LINE
8
Layer 1
10
145.122000
20
-61.945236
11
145.921950
21
-61.945236
0
LINE
8
Layer 1
10
145.921950
20
-61.945236
11
145.921950
21
-58.845166
0
LINE
8
Layer 1
10
145.921950
20
-58.845166
11
145.122000
21
-58.845166
0
LINE
8
Layer 1
10
145.122000
20
-58.845166
11
145.122000
21
-53.044996
0
LINE
8
Layer 1
10
145.122000
20
-53.044996
11
145.921950
21
-53.044996
0
LINE
8
Layer 1
10
145.921950
20
-53.044996
11
145.921950
21
-49.945456
0
LINE
8
Layer 1
10
145.921950
20
-49.945456
11
145.122000
21
-49.945456
0
LINE
8
Layer 1
10
145.122000
20
-49.945456
11
145.122000
21
-48.944986
0
LINE
8
Layer 1
10
145.122000
20
-48.944986
11
140.027740
21
-48.944986
0
LINE
8
Layer 1
10
140.027740
20
-48.944986
11
140.027740
21
-47.134256
0
LINE
8
Layer 1
10
140.027740
20
-47.134256
11
136.216600
21
-47.134256
0
LINE
8
Layer 1
10
136.216600
20
-47.134256
11
136.216600
21
-48.944986
0
LINE
8
Layer 1
10
136.216600
20
-48.944986
11
131.122340
21
-48.944986
0
LINE
8
Layer 1
10
131.122340
20
-48.944986
11
131.122340
21
-49.945456
0
LINE
8
Layer 1
10
131.122340
20
-49.945456
11
130.322390
21
-49.945456
0
LINE
8
Layer 1
10
130.322390
20
-49.945456
11
130.322390
21
-53.044996
0
LINE
8
Layer 1
10
130.322390
20
-53.044996
11
131.122340
21
-53.044996
0
LINE
8
Layer 1
10
131.122340
20
-53.044996
11
131.122340
21
-58.845166
0
LINE
8
Layer 1
10
131.122340
20
-58.845166
11
130.322390
21
-58.845166
0
LINE
8
Layer 1
10
130.322390
20
-58.845166
11
130.322390
21
-61.945236
0
LINE
8
Layer 1
10
130.322390
20
-61.945236
11
131.122340
21
-61.945236
0
LINE
8
Layer 1
10
131.122340
20
-61.945236
11
131.122340
21
-62.945175
0
LINE
8
Layer 1
10
131.122340
20
-62.945175
11
136.216600
21
-62.945175
0
LINE
8
Layer 1
10
136.216600
20
-62.945175
11
136.216600
21
-64.755905
0
LINE
8
Layer 1
10
155.266600
20
-64.755905
11
159.077740
21
-64.755905
0
LINE
8
Layer 1
10
159.077740
20
-64.755905
11
159.077740
21
-62.945175
0
LINE
8
Layer 1
10
159.077740
20
-62.945175
11
164.172000
21
-62.945175
0
LINE
8
Layer 1
10
164.172000
20
-62.945175
11
164.172000
21
-61.945236
0
LINE
8
Layer 1
10
164.172000
20
-61.945236
11
164.971950
21
-61.945236
0
LINE
8
Layer 1
10
164.971950
20
-61.945236
11
164.971950
21
-58.845166
0
LINE
8
Layer 1
10
164.971950
20
-58.845166
11
164.172000
21
-58.845166
0
LINE
8
Layer 1
10
164.172000
20
-58.845166
11
164.172000
21
-53.044996
0
LINE
8
Layer 1
10
164.172000
20
-53.044996
11
164.971950
21
-53.044996
0
LINE
8
Layer 1
10
164.971950
20
-53.044996
11
164.971950
21
-49.945456
0
LINE
8
Layer 1
10
164.971950
20
-49.945456
11
164.172000
21
-49.945456
0
LINE
8
Layer 1
10
164.172000
20
-49.945456
11
164.172000
21
-48.944986
0
LINE
8
Layer 1
10
164.172000
20
-48.944986
11
159.077740
21
-48.944986
0
LINE
8
Layer 1
10
159.077740
20
-48.944986
11
159.077740
21
-47.134256
0
LINE
8
Layer 1
10
159.077740
20
-47.134256
11
155.266600
21
-47.134256
0
LINE
8
Layer 1
10
155.266600
20
-47.134256
11
155.266600
21
-48.944986
0
LINE
8
Layer 1
10
155.266600
20
-48.944986
11
150.172340
21
-48.944986
0
LINE
8
Layer 1
10
150.172340
20
-48.944986
11
150.172340
21
-49.945456
0
LINE
8
Layer 1
10
150.172340
20
-49.945456
11
149.372380
21
-49.945456
0
LINE
8
Layer 1
10
149.372380
20
-49.945456
11
149.372380
21
-53.044996
0
LINE
8
Layer 1
10
149.372380
20
-53.044996
11
150.172340
21
-53.044996
0
LINE
8
Layer 1
10
150.172340
20
-53.044996
11
150.172340
21
-58.845166
0
LINE
8
Layer 1
10
150.172340
20
-58.845166
11
149.372380
21
-58.845166
0
LINE
8
Layer 1
10
149.372380
20
-58.845166
11
149.372380
21
-61.945236
0
LINE
8
Layer 1
10
149.372380
20
-61.945236
11
150.172340
21
-61.945236
0
LINE
8
Layer 1
10
150.172340
20
-61.945236
11
150.172340
21
-62.945175
0
LINE
8
Layer 1
10
150.172340
20
-62.945175
11
155.266600
21
-62.945175
0
LINE
8
Layer 1
10
155.266600
20
-62.945175
11
155.266600
21
-64.755905
0
LINE
8
Layer 1
10
174.316600
20
-64.755905
11
178.127740
21
-64.755905
0
LINE
8
Layer 1
10
178.127740
20
-64.755905
11
178.127740
21
-62.945175
0
LINE
8
Layer 1
10
178.127740
20
-62.945175
11
183.222000
21
-62.945175
0
LINE
8
Layer 1
10
183.222000
20
-62.945175
11
183.222000
21
-61.945236
0
LINE
8
Layer 1
10
183.222000
20
-61.945236
11
184.021950
21
-61.945236
0
LINE
8
Layer 1
10
184.021950
20
-61.945236
11
184.021950
21
-58.845166
0
LINE
8
Layer 1
10
184.021950
20
-58.845166
11
183.222000
21
-58.845166
0
LINE
8
Layer 1
10
183.222000
20
-58.845166
11
183.222000
21
-53.044996
0
LINE
8
Layer 1
10
183.222000
20
-53.044996
11
184.021950
21
-53.044996
0
LINE
8
Layer 1
10
184.021950
20
-53.044996
11
184.021950
21
-49.945456
0
LINE
8
Layer 1
10
184.021950
20
-49.945456
11
183.222000
21
-49.945456
0
LINE
8
Layer 1
10
183.222000
20
-49.945456
11
183.222000
21
-48.944986
0
LINE
8
Layer 1
10
183.222000
20
-48.944986
11
178.127740
21
-48.944986
0
LINE
8
Layer 1
10
178.127740
20
-48.944986
11
178.127740
21
-47.134256
0
LINE
8
Layer 1
10
178.127740
20
-47.134256
11
174.316600
21
-47.134256
0
LINE
8
Layer 1
10
174.316600
20
-47.134256
11
174.316600
21
-48.944986
0
LINE
8
Layer 1
10
174.316600
20
-48.944986
11
169.222340
21
-48.944986
0
LINE
8
Layer 1
10
169.222340
20
-48.944986
11
169.222340
21
-49.945456
0
LINE
8
Layer 1
10
169.222340
20
-49.945456
11
168.422380
21
-49.945456
0
LINE
8
Layer 1
10
168.422380
20
-49.945456
11
168.422380
21
-53.044996
0
LINE
8
Layer 1
10
168.422380
20
-53.044996
11
169.222340
21
-53.044996
0
LINE
8
Layer 1
10
169.222340
20
-53.044996
11
169.222340
21
-58.845166
0
LINE
8
Layer 1
10
169.222340
20
-58.845166
11
168.422380
21
-58.845166
0
LINE
8
Layer 1
10
168.422380
20
-58.845166
11
168.422380
21
-61.945236
0
LINE
8
Layer 1
10
168.422380
20
-61.945236
11
169.222340
21
-61.945236
0
LINE
8
Layer 1
10
169.222340
20
-61.945236
11
169.222340
21
-62.945175
0
LINE
8
Layer 1
10
169.222340
20
-62.945175
11
174.316600
21
-62.945175
0
LINE
8
Layer 1
10
174.316600
20
-62.945175
11
174.316600
21
-64.755905
0
LINE
8
Layer 1
10
193.366600
20
-64.755905
11
197.177740
21
-64.755905
0
LINE
8
Layer 1
10
197.177740
20
-64.755905
11
197.177740
21
-62.945175
0
LINE
8
Layer 1
10
197.177740
20
-62.945175
11
202.272000
21
-62.945175
0
LINE
8
Layer 1
10
202.272000
20
-62.945175
11
202.272000
21
-61.945236
0
LINE
8
Layer 1
10
202.272000
20
-61.945236
11
203.071950
21
-61.945236
0
LINE
8
Layer 1
10
203.071950
20
-61.945236
11
203.071950
21
-58.845166
0
LINE
8
Layer 1
10
203.071950
20
-58.845166
11
202.272000
21
-58.845166
0
LINE
8
Layer 1
10
202.272000
20
-58.845166
11
202.272000
21
-53.044996
0
LINE
8
Layer 1
10
202.272000
20
-53.044996
11
203.071950
21
-53.044996
0
LINE
8
Layer 1
10
203.071950
20
-53.044996
11
203.071950
21
-49.945456
0
LINE
8
Layer 1
10
203.071950
20
-49.945456
11
202.272000
21
-49.945456
0
LINE
8
Layer 1
10
202.272000
20
-49.945456
11
202.272000
21
-48.944986
0
LINE
8
Layer 1
10
202.272000
20
-48.944986
11
197.177740
21
-48.944986
0
LINE
8
Layer 1
10
197.177740
20
-48.944986
11
197.177740
21
-47.134256
0
LINE
8
Layer 1
10
197.177740
20
-47.134256
11
193.366600
21
-47.134256
0
LINE
8
Layer 1
10
193.366600
20
-47.134256
11
193.366600
21
-48.944986
0
LINE
8
Layer 1
10
193.366600
20
-48.944986
11
188.272340
21
-48.944986
0
LINE
8
Layer 1
10
188.272340
20
-48.944986
11
188.272340
21
-49.945456
0
LINE
8
Layer 1
10
188.272340
20
-49.945456
11
187.472380
21
-49.945456
0
LINE
8
Layer 1
10
187.472380
20
-49.945456
11
187.472380
21
-53.044996
0
LINE
8
Layer 1
10
187.472380
20
-53.044996
11
188.272340
21
-53.044996
0
LINE
8
Layer 1
10
188.272340
20
-53.044996
11
188.272340
21
-58.845166
0
LINE
8
Layer 1
10
188.272340
20
-58.845166
11
187.472380
21
-58.845166
0
LINE
8
Layer 1
10
187.472380
20
-58.845166
11
187.472380
21
-61.945236
0
LINE
8
Layer 1
10
187.472380
20
-61.945236
11
188.272340
21
-61.945236
0
LINE
8
Layer 1
10
188.272340
20
-61.945236
11
188.272340
21
-62.945175
0
LINE
8
Layer 1
10
188.272340
20
-62.945175
11
193.366600
21
-62.945175
0
LINE
8
Layer 1
10
193.366600
20
-62.945175
11
193.366600
21
-64.755905
0
LINE
8
Layer 1
10
212.416600
20
-64.755905
11
216.227740
21
-64.755905
0
LINE
8
Layer 1
10
216.227740
20
-64.755905
11
216.227740
21
-62.945175
0
LINE
8
Layer 1
10
216.227740
20
-62.945175
11
221.322000
21
-62.945175
0
LINE
8
Layer 1
10
221.322000
20
-62.945175
11
221.322000
21
-61.945236
0
LINE
8
Layer 1
10
221.322000
20
-61.945236
11
222.121950
21
-61.945236
0
LINE
8
Layer 1
10
222.121950
20
-61.945236
11
222.121950
21
-58.845166
0
LINE
8
Layer 1
10
222.121950
20
-58.845166
11
221.322000
21
-58.845166
0
LINE
8
Layer 1
10
221.322000
20
-58.845166
11
221.322000
21
-53.044996
0
LINE
8
Layer 1
10
221.322000
20
-53.044996
11
222.121950
21
-53.044996
0
LINE
8
Layer 1
10
222.121950
20
-53.044996
11
222.121950
21
-49.945456
0
LINE
8
Layer 1
10
222.121950
20
-49.945456
11
221.322000
21
-49.945456
0
LINE
8
Layer 1
10
221.322000
20
-49.945456
11
221.322000
21
-48.944986
0
LINE
8
Layer 1
10
221.322000
20
-48.944986
11
216.227740
21
-48.944986
0
LINE
8
Layer 1
10
216.227740
20
-48.944986
11
216.227740
21
-47.134256
0
LINE
8
Layer 1
10
216.227740
20
-47.134256
11
212.416600
21
-47.134256
0
LINE
8
Layer 1
10
212.416600
20
-47.134256
11
212.416600
21
-48.944986
0
LINE
8
Layer 1
10
212.416600
20
-48.944986
11
207.322340
21
-48.944986
0
LINE
8
Layer 1
10
207.322340
20
-48.944986
11
207.322340
21
-49.945456
0
LINE
8
Layer 1
10
207.322340
20
-49.945456
11
206.522380
21
-49.945456
0
LINE
8
Layer 1
10
206.522380
20
-49.945456
11
206.522380
21
-53.044996
0
LINE
8
Layer 1
10
206.522380
20
-53.044996
11
207.322340
21
-53.044996
0
LINE
8
Layer 1
10
207.322340
20
-53.044996
11
207.322340
21
-58.845166
0
LINE
8
Layer 1
10
207.322340
20
-58.845166
11
206.522380
21
-58.845166
0
LINE
8
Layer 1
10
206.522380
20
-58.845166
11
206.522380
21
-61.945236
0
LINE
8
Layer 1
10
206.522380
20
-61.945236
11
207.322340
21
-61.945236
0
LINE
8
Layer 1
10
207.322340
20
-61.945236
11
207.322340
21
-62.945175
0
LINE
8
Layer 1
10
207.322340
20
-62.945175
11
212.416600
21
-62.945175
0
LINE
8
Layer 1
10
212.416600
20
-62.945175
11
212.416600
21
-64.755905
0
LINE
8
Layer 1
10
114.785900
20
-45.705905
11
118.597030
21
-45.705905
0
LINE
8
Layer 1
10
118.597030
20
-45.705905
11
118.597030
21
-43.895175
0
LINE
8
Layer 1
10
118.597030
20
-43.895175
11
123.691300
21
-43.895175
0
LINE
8
Layer 1
10
123.691300
20
-43.895175
11
123.691300
21
-42.895236
0
LINE
8
Layer 1
10
123.691300
20
-42.895236
11
124.491250
21
-42.895236
0
LINE
8
Layer 1
10
124.491250
20
-42.895236
11
124.491250
21
-39.795166
0
LINE
8
Layer 1
10
124.491250
20
-39.795166
11
123.691300
21
-39.795166
0
LINE
8
Layer 1
10
123.691300
20
-39.795166
11
123.691300
21
-33.994996
0
LINE
8
Layer 1
10
123.691300
20
-33.994996
11
124.491250
21
-33.994996
0
LINE
8
Layer 1
10
124.491250
20
-33.994996
11
124.491250
21
-30.895456
0
LINE
8
Layer 1
10
124.491250
20
-30.895456
11
123.691300
21
-30.895456
0
LINE
8
Layer 1
10
123.691300
20
-30.895456
11
123.691300
21
-29.894986
0
LINE
8
Layer 1
10
123.691300
20
-29.894986
11
118.597030
21
-29.894986
0
LINE
8
Layer 1
10
118.597030
20
-29.894986
11
118.597030
21
-28.084256
0
LINE
8
Layer 1
10
118.597030
20
-28.084256
11
114.785900
21
-28.084256
0
LINE
8
Layer 1
10
114.785900
20
-28.084256
11
114.785900
21
-29.894986
0
LINE
8
Layer 1
10
114.785900
20
-29.894986
11
109.691640
21
-29.894986
0
LINE
8
Layer 1
10
109.691640
20
-29.894986
11
109.691640
21
-30.895456
0
LINE
8
Layer 1
10
109.691640
20
-30.895456
11
108.891680
21
-30.895456
0
LINE
8
Layer 1
10
108.891680
20
-30.895456
11
108.891680
21
-33.994996
0
LINE
8
Layer 1
10
108.891680
20
-33.994996
11
109.691640
21
-33.994996
0
LINE
8
Layer 1
10
109.691640
20
-33.994996
11
109.691640
21
-39.795166
0
LINE
8
Layer 1
10
109.691640
20
-39.795166
11
108.891680
21
-39.795166
0
LINE
8
Layer 1
10
108.891680
20
-39.795166
11
108.891680
21
-42.895236
0
LINE
8
Layer 1
10
108.891680
20
-42.895236
11
109.691640
21
-42.895236
0
LINE
8
Layer 1
10
109.691640
20
-42.895236
11
109.691640
21
-43.895175
0
LINE
8
Layer 1
10
109.691640
20
-43.895175
11
114.785900
21
-43.895175
0
LINE
8
Layer 1
10
114.785900
20
-43.895175
11
114.785900
21
-45.705905
0
LINE
8
Layer 1
10
140.979700
20
-45.705905
11
144.790830
21
-45.705905
0
LINE
8
Layer 1
10
144.790830
20
-45.705905
11
144.790830
21
-43.895175
0
LINE
8
Layer 1
10
144.790830
20
-43.895175
11
149.885100
21
-43.895175
0
LINE
8
Layer 1
10
149.885100
20
-43.895175
11
149.885100
21
-42.895236
0
LINE
8
Layer 1
10
149.885100
20
-42.895236
11
150.685050
21
-42.895236
0
LINE
8
Layer 1
10
150.685050
20
-42.895236
11
150.685050
21
-39.795166
0
LINE
8
Layer 1
10
150.685050
20
-39.795166
11
149.885100
21
-39.795166
0
LINE
8
Layer 1
10
149.885100
20
-39.795166
11
149.885100
21
-33.994996
0
LINE
8
Layer 1
10
149.885100
20
-33.994996
11
150.685050
21
-33.994996
0
LINE
8
Layer 1
10
150.685050
20
-33.994996
11
150.685050
21
-30.895456
0
LINE
8
Layer 1
10
150.685050
20
-30.895456
11
149.885100
21
-30.895456
0
LINE
8
Layer 1
10
149.885100
20
-30.895456
11
149.885100
21
-29.894986
0
LINE
8
Layer 1
10
149.885100
20
-29.894986
11
144.790830
21
-29.894986
0
LINE
8
Layer 1
10
144.790830
20
-29.894986
11
144.790830
21
-28.084256
0
LINE
8
Layer 1
10
144.790830
20
-28.084256
11
140.979700
21
-28.084256
0
LINE
8
Layer 1
10
140.979700
20
-28.084256
11
140.979700
21
-29.894986
0
LINE
8
Layer 1
10
140.979700
20
-29.894986
11
135.885440
21
-29.894986
0
LINE
8
Layer 1
10
135.885440
20
-29.894986
11
135.885440
21
-30.895456
0
LINE
8
Layer 1
10
135.885440
20
-30.895456
11
135.085480
21
-30.895456
0
LINE
8
Layer 1
10
135.085480
20
-30.895456
11
135.085480
21
-33.994996
0
LINE
8
Layer 1
10
135.085480
20
-33.994996
11
135.885440
21
-33.994996
0
LINE
8
Layer 1
10
135.885440
20
-33.994996
11
135.885440
21
-39.795166
0
LINE
8
Layer 1
10
135.885440
20
-39.795166
11
135.085480
21
-39.795166
0
LINE
8
Layer 1
10
135.085480
20
-39.795166
11
135.085480
21
-42.895236
0
LINE
8
Layer 1
10
135.085480
20
-42.895236
11
135.885440
21
-42.895236
0
LINE
8
Layer 1
10
135.885440
20
-42.895236
11
135.885440
21
-43.895175
0
LINE
8
Layer 1
10
135.885440
20
-43.895175
11
140.979700
21
-43.895175
0
LINE
8
Layer 1
10
140.979700
20
-43.895175
11
140.979700
21
-45.705905
0
LINE
8
Layer 1
10
160.028700
20
-45.705905
11
163.839840
21
-45.705905
0
LINE
8
Layer 1
10
163.839840
20
-45.705905
11
163.839840
21
-43.895175
0
LINE
8
Layer 1
10
163.839840
20
-43.895175
11
168.934100
21
-43.895175
0
LINE
8
Layer 1
10
168.934100
20
-43.895175
11
168.934100
21
-42.895236
0
LINE
8
Layer 1
10
168.934100
20
-42.895236
11
169.734050
21
-42.895236
0
LINE
8
Layer 1
10
169.734050
20
-42.895236
11
169.734050
21
-39.795166
0
LINE
8
Layer 1
10
169.734050
20
-39.795166
11
168.934100
21
-39.795166
0
LINE
8
Layer 1
10
168.934100
20
-39.795166
11
168.934100
21
-33.994996
0
LINE
8
Layer 1
10
168.934100
20
-33.994996
11
169.734050
21
-33.994996
0
LINE
8
Layer 1
10
169.734050
20
-33.994996
11
169.734050
21
-30.895456
0
LINE
8
Layer 1
10
169.734050
20
-30.895456
11
168.934100
21
-30.895456
0
LINE
8
Layer 1
10
168.934100
20
-30.895456
11
168.934100
21
-29.894986
0
LINE
8
Layer 1
10
168.934100
20
-29.894986
11
163.839840
21
-29.894986
0
LINE
8
Layer 1
10
163.839840
20
-29.894986
11
163.839840
21
-28.084256
0
LINE
8
Layer 1
10
163.839840
20
-28.084256
11
160.028700
21
-28.084256
0
LINE
8
Layer 1
10
160.028700
20
-28.084256
11
160.028700
21
-29.894986
0
LINE
8
Layer 1
10
160.028700
20
-29.894986
11
154.934440
21
-29.894986
0
LINE
8
Layer 1
10
154.934440
20
-29.894986
11
154.934440
21
-30.895456
0
LINE
8
Layer 1
10
154.934440
20
-30.895456
11
154.134490
21
-30.895456
0
LINE
8
Layer 1
10
154.134490
20
-30.895456
11
154.134490
21
-33.994996
0
LINE
8
Layer 1
10
154.134490
20
-33.994996
11
154.934440
21
-33.994996
0
LINE
8
Layer 1
10
154.934440
20
-33.994996
11
154.934440
21
-39.795166
0
LINE
8
Layer 1
10
154.934440
20
-39.795166
11
154.134490
21
-39.795166
0
LINE
8
Layer 1
10
154.134490
20
-39.795166
11
154.134490
21
-42.895236
0
LINE
8
Layer 1
10
154.134490
20
-42.895236
11
154.934440
21
-42.895236
0
LINE
8
Layer 1
10
154.934440
20
-42.895236
11
154.934440
21
-43.895175
0
LINE
8
Layer 1
10
154.934440
20
-43.895175
11
160.028700
21
-43.895175
0
LINE
8
Layer 1
10
160.028700
20
-43.895175
11
160.028700
21
-45.705905
0
LINE
8
Layer 1
10
179.078700
20
-45.705905
11
182.889840
21
-45.705905
0
LINE
8
Layer 1
10
182.889840
20
-45.705905
11
182.889840
21
-43.895175
0
LINE
8
Layer 1
10
182.889840
20
-43.895175
11
187.984100
21
-43.895175
0
LINE
8
Layer 1
10
187.984100
20
-43.895175
11
187.984100
21
-42.895236
0
LINE
8
Layer 1
10
187.984100
20
-42.895236
11
188.784050
21
-42.895236
0
LINE
8
Layer 1
10
188.784050
20
-42.895236
11
188.784050
21
-39.795166
0
LINE
8
Layer 1
10
188.784050
20
-39.795166
11
187.984100
21
-39.795166
0
LINE
8
Layer 1
10
187.984100
20
-39.795166
11
187.984100
21
-33.994996
0
LINE
8
Layer 1
10
187.984100
20
-33.994996
11
188.784050
21
-33.994996
0
LINE
8
Layer 1
10
188.784050
20
-33.994996
11
188.784050
21
-30.895456
0
LINE
8
Layer 1
10
188.784050
20
-30.895456
11
187.984100
21
-30.895456
0
LINE
8
Layer 1
10
187.984100
20
-30.895456
11
187.984100
21
-29.894986
0
LINE
8
Layer 1
10
187.984100
20
-29.894986
11
182.889840
21
-29.894986
0
LINE
8
Layer 1
10
182.889840
20
-29.894986
11
182.889840
21
-28.084256
0
LINE
8
Layer 1
10
182.889840
20
-28.084256
11
179.078700
21
-28.084256
0
LINE
8
Layer 1
10
179.078700
20
-28.084256
11
179.078700
21
-29.894986
0
LINE
8
Layer 1
10
179.078700
20
-29.894986
11
173.984440
21
-29.894986
0
LINE
8
Layer 1
10
173.984440
20
-29.894986
11
173.984440
21
-30.895456
0
LINE
8
Layer 1
10
173.984440
20
-30.895456
11
173.184490
21
-30.895456
0
LINE
8
Layer 1
10
173.184490
20
-30.895456
11
173.184490
21
-33.994996
0
LINE
8
Layer 1
10
173.184490
20
-33.994996
11
173.984440
21
-33.994996
0
LINE
8
Layer 1
10
173.984440
20
-33.994996
11
173.984440
21
-39.795166
0
LINE
8
Layer 1
10
173.984440
20
-39.795166
11
173.184490
21
-39.795166
0
LINE
8
Layer 1
10
173.184490
20
-39.795166
11
173.184490
21
-42.895236
0
LINE
8
Layer 1
10
173.184490
20
-42.895236
11
173.984440
21
-42.895236
0
LINE
8
Layer 1
10
173.984440
20
-42.895236
11
173.984440
21
-43.895175
0
LINE
8
Layer 1
10
173.984440
20
-43.895175
11
179.078700
21
-43.895175
0
LINE
8
Layer 1
10
179.078700
20
-43.895175
11
179.078700
21
-45.705905
0
LINE
8
Layer 1
10
198.129700
20
-45.705905
11
201.940830
21
-45.705905
0
LINE
8
Layer 1
10
201.940830
20
-45.705905
11
201.940830
21
-43.895175
0
LINE
8
Layer 1
10
201.940830
20
-43.895175
11
207.035100
21
-43.895175
0
LINE
8
Layer 1
10
207.035100
20
-43.895175
11
207.035100
21
-42.895236
0
LINE
8
Layer 1
10
207.035100
20
-42.895236
11
207.835050
21
-42.895236
0
LINE
8
Layer 1
10
207.835050
20
-42.895236
11
207.835050
21
-39.795166
0
LINE
8
Layer 1
10
207.835050
20
-39.795166
11
207.035100
21
-39.795166
0
LINE
8
Layer 1
10
207.035100
20
-39.795166
11
207.035100
21
-33.994996
0
LINE
8
Layer 1
10
207.035100
20
-33.994996
11
207.835050
21
-33.994996
0
LINE
8
Layer 1
10
207.835050
20
-33.994996
11
207.835050
21
-30.895456
0
LINE
8
Layer 1
10
207.835050
20
-30.895456
11
207.035100
21
-30.895456
0
LINE
8
Layer 1
10
207.035100
20
-30.895456
11
207.035100
21
-29.894986
0
LINE
8
Layer 1
10
207.035100
20
-29.894986
11
201.940830
21
-29.894986
0
LINE
8
Layer 1
10
201.940830
20
-29.894986
11
201.940830
21
-28.084256
0
LINE
8
Layer 1
10
201.940830
20
-28.084256
11
198.129700
21
-28.084256
0
LINE
8
Layer 1
10
198.129700
20
-28.084256
11
198.129700
21
-29.894986
0
LINE
8
Layer 1
10
198.129700
20
-29.894986
11
193.035430
21
-29.894986
0
LINE
8
Layer 1
10
193.035430
20
-29.894986
11
193.035430
21
-30.895456
0
LINE
8
Layer 1
10
193.035430
20
-30.895456
11
192.235480
21
-30.895456
0
LINE
8
Layer 1
10
192.235480
20
-30.895456
11
192.235480
21
-33.994996
0
LINE
8
Layer 1
10
192.235480
20
-33.994996
11
193.035430
21
-33.994996
0
LINE
8
Layer 1
10
193.035430
20
-33.994996
11
193.035430
21
-39.795166
0
LINE
8
Layer 1
10
193.035430
20
-39.795166
11
192.235480
21
-39.795166
0
LINE
8
Layer 1
10
192.235480
20
-39.795166
11
192.235480
21
-42.895236
0
LINE
8
Layer 1
10
192.235480
20
-42.895236
11
193.035430
21
-42.895236
0
LINE
8
Layer 1
10
193.035430
20
-42.895236
11
193.035430
21
-43.895175
0
LINE
8
Layer 1
10
193.035430
20
-43.895175
11
198.129700
21
-43.895175
0
LINE
8
Layer 1
10
198.129700
20
-43.895175
11
198.129700
21
-45.705905
0
LINE
8
Layer 1
10
217.179700
20
-45.705905
11
220.990830
21
-45.705905
0
LINE
8
Layer 1
10
220.990830
20
-45.705905
11
220.990830
21
-43.895175
0
LINE
8
Layer 1
10
220.990830
20
-43.895175
11
226.085100
21
-43.895175
0
LINE
8
Layer 1
10
226.085100
20
-43.895175
11
226.085100
21
-42.895236
0
LINE
8
Layer 1
10
226.085100
20
-42.895236
11
226.885050
21
-42.895236
0
LINE
8
Layer 1
10
226.885050
20
-42.895236
11
226.885050
21
-39.795166
0
LINE
8
Layer 1
10
226.885050
20
-39.795166
11
226.085100
21
-39.795166
0
LINE
8
Layer 1
10
226.085100
20
-39.795166
11
226.085100
21
-33.994996
0
LINE
8
Layer 1
10
226.085100
20
-33.994996
11
226.885050
21
-33.994996
0
LINE
8
Layer 1
10
226.885050
20
-33.994996
11
226.885050
21
-30.895456
0
LINE
8
Layer 1
10
226.885050
20
-30.895456
11
226.085100
21
-30.895456
0
LINE
8
Layer 1
10
226.085100
20
-30.895456
11
226.085100
21
-29.894986
0
LINE
8
Layer 1
10
226.085100
20
-29.894986
11
220.990830
21
-29.894986
0
LINE
8
Layer 1
10
220.990830
20
-29.894986
11
220.990830
21
-28.084256
0
LINE
8
Layer 1
10
220.990830
20
-28.084256
11
217.179700
21
-28.084256
0
LINE
8
Layer 1
10
217.179700
20
-28.084256
11
217.179700
21
-29.894986
0
LINE
8
Layer 1
10
217.179700
20
-29.894986
11
212.085430
21
-29.894986
0
LINE
8
Layer 1
10
212.085430
20
-29.894986
11
212.085430
21
-30.895456
0
LINE
8
Layer 1
10
212.085430
20
-30.895456
11
211.285480
21
-30.895456
0
LINE
8
Layer 1
10
211.285480
20
-30.895456
11
211.285480
21
-33.994996
0
LINE
8
Layer 1
10
211.285480
20
-33.994996
11
212.085430
21
-33.994996
0
LINE
8
Layer 1
10
212.085430
20
-33.994996
11
212.085430
21
-39.795166
0
LINE
8
Layer 1
10
212.085430
20
-39.795166
11
211.285480
21
-39.795166
0
LINE
8
Layer 1
10
211.285480
20
-39.795166
11
211.285480
21
-42.895236
0
LINE
8
Layer 1
10
211.285480
20
-42.895236
11
212.085430
21
-42.895236
0
LINE
8
Layer 1
10
212.085430
20
-42.895236
11
212.085430
21
-43.895175
0
LINE
8
Layer 1
10
212.085430
20
-43.895175
11
217.179700
21
-43.895175
0
LINE
8
Layer 1
10
217.179700
20
-43.895175
11
217.179700
21
-45.705905
0
LINE
8
Layer 1
10
78.735700
20
-43.895175
11
92.735400
21
-43.895175
0
LINE
8
Layer 1
10
92.735400
20
-43.895175
11
92.735400
21
-42.895236
0
LINE
8
Layer 1
10
92.735400
20
-42.895236
11
93.535352
21
-42.895236
0
LINE
8
Layer 1
10
93.535352
20
-42.895236
11
93.535352
21
-39.795166
0
LINE
8
Layer 1
10
93.535352
20
-39.795166
11
92.735400
21
-39.795166
0
LINE
8
Layer 1
10
92.735400
20
-39.795166
11
92.735400
21
-33.994996
0
LINE
8
Layer 1
10
92.735400
20
-33.994996
11
93.535352
21
-33.994996
0
LINE
8
Layer 1
10
93.535352
20
-33.994996
11
93.535352
21
-30.894926
0
LINE
8
Layer 1
10
93.535352
20
-30.894926
11
92.735400
21
-30.894926
0
LINE
8
Layer 1
10
92.735400
20
-30.894926
11
92.735400
21
-29.894986
0
LINE
8
Layer 1
10
92.735400
20
-29.894986
11
78.735400
21
-29.894986
0
LINE
8
Layer 1
10
78.735400
20
-29.894986
11
78.735400
21
-30.894926
0
LINE
8
Layer 1
10
78.735400
20
-30.894926
11
77.935448
21
-30.894926
0
LINE
8
Layer 1
10
77.935448
20
-30.894926
11
77.935448
21
-33.994996
0
LINE
8
Layer 1
10
77.935448
20
-33.994996
11
78.735400
21
-33.994996
0
LINE
8
Layer 1
10
78.735400
20
-33.994996
11
78.735400
21
-39.795166
0
LINE
8
Layer 1
10
78.735400
20
-39.795166
11
77.935448
21
-39.795166
0
LINE
8
Layer 1
10
77.935448
20
-39.795166
11
77.935448
21
-42.895236
0
LINE
8
Layer 1
10
77.935448
20
-42.895236
11
78.735400
21
-42.895236
0
LINE
8
Layer 1
10
78.735400
20
-42.895236
11
78.735700
21
-43.895175
0
LINE
8
Layer 1
10
62.034900
20
-40.445245
11
71.335110
21
-40.445245
0
LINE
8
Layer 1
10
71.335110
20
-40.445245
11
71.335110
21
4.754590
0
LINE
8
Layer 1
10
71.335110
20
4.754590
11
62.034900
21
4.754590
0
LINE
8
Layer 1
10
62.034900
20
4.754590
11
62.034900
21
-40.445245
0
LINE
8
Layer 1
10
119.547200
20
-26.656945
11
123.359370
21
-26.656945
0
LINE
8
Layer 1
10
123.359370
20
-26.656945
11
123.359370
21
-24.846215
0
LINE
8
Layer 1
10
123.359370
20
-24.846215
11
128.453630
21
-24.846215
0
LINE
8
Layer 1
10
128.453630
20
-24.846215
11
129.978600
21
-24.846215
0
LINE
8
Layer 1
10
129.978600
20
-24.846215
11
129.978600
21
-26.265255
0
LINE
8
Layer 1
10
129.978600
20
-26.265255
11
136.728580
21
-26.265255
0
LINE
8
Layer 1
10
136.728580
20
-26.265255
11
136.728580
21
-23.374975
0
LINE
8
Layer 1
10
136.728580
20
-23.374975
11
136.728580
21
-20.145205
0
LINE
8
Layer 1
10
136.728580
20
-20.145205
11
137.553340
21
-20.145205
0
LINE
8
Layer 1
10
137.553340
20
-20.145205
11
137.553340
21
-17.345385
0
LINE
8
Layer 1
10
137.553340
20
-17.345385
11
136.728580
21
-17.345385
0
LINE
8
Layer 1
10
136.728580
20
-17.345385
11
136.728580
21
-16.411591
0
LINE
8
Layer 1
10
136.728580
20
-16.411591
11
136.728580
21
-11.076001
0
LINE
8
Layer 1
10
136.728580
20
-11.076001
11
136.728580
21
-7.606441
0
LINE
8
Layer 1
10
136.728580
20
-7.606441
11
137.647380
21
-7.606441
0
LINE
8
Layer 1
10
137.647380
20
-7.606441
11
137.647380
21
-5.796211
0
LINE
8
Layer 1
10
137.647380
20
-5.796211
11
142.741650
21
-5.796211
0
LINE
8
Layer 1
10
142.741650
20
-5.796211
11
142.741650
21
-4.796272
0
LINE
8
Layer 1
10
142.741650
20
-4.796272
11
143.541600
21
-4.796272
0
LINE
8
Layer 1
10
143.541600
20
-4.796272
11
143.541600
21
-1.696202
0
LINE
8
Layer 1
10
143.541600
20
-1.696202
11
142.741650
21
-1.696202
0
LINE
8
Layer 1
10
142.741650
20
-1.696202
11
142.741650
21
4.104468
0
LINE
8
Layer 1
10
142.741650
20
4.104468
11
143.541600
21
4.104468
0
LINE
8
Layer 1
10
143.541600
20
4.104468
11
143.541600
21
7.204038
0
LINE
8
Layer 1
10
143.541600
20
7.204038
11
142.741650
21
7.204038
0
LINE
8
Layer 1
10
142.741650
20
7.204038
11
142.741650
21
8.204478
0
LINE
8
Layer 1
10
142.741650
20
8.204478
11
137.647380
21
8.204478
0
LINE
8
Layer 1
10
137.647380
20
8.204478
11
137.647380
21
10.015228
0
LINE
8
Layer 1
10
137.647380
20
10.015228
11
133.836250
21
10.015228
0
LINE
8
Layer 1
10
133.836250
20
10.015228
11
133.836250
21
8.204500
0
LINE
8
Layer 1
10
133.836250
20
8.204500
11
128.741990
21
8.204500
0
LINE
8
Layer 1
10
128.741990
20
8.204500
11
128.741990
21
7.204060
0
LINE
8
Layer 1
10
128.741990
20
7.204060
11
127.942030
21
7.204060
0
LINE
8
Layer 1
10
127.942030
20
7.204060
11
127.942030
21
4.104490
0
LINE
8
Layer 1
10
127.942030
20
4.104490
11
128.741990
21
4.104490
0
LINE
8
Layer 1
10
128.741990
20
4.104490
11
128.741990
21
-1.696180
0
LINE
8
Layer 1
10
128.741990
20
-1.696180
11
127.942030
21
-1.696180
0
LINE
8
Layer 1
10
127.942030
20
-1.696180
11
127.942030
21
-4.796250
0
LINE
8
Layer 1
10
127.942030
20
-4.796250
11
128.741990
21
-4.796250
0
LINE
8
Layer 1
10
128.741990
20
-4.796250
11
128.741990
21
-5.796189
0
LINE
8
Layer 1
10
128.741990
20
-5.796189
11
133.836250
21
-5.796189
0
LINE
8
Layer 1
10
133.836250
20
-5.796189
11
133.836250
21
-7.245709
0
LINE
8
Layer 1
10
133.836250
20
-7.245709
11
113.834350
21
-7.245709
0
LINE
8
Layer 1
10
113.834350
20
-7.245709
11
113.834350
21
-5.796189
0
LINE
8
Layer 1
10
113.834350
20
-5.796189
11
118.928610
21
-5.796189
0
LINE
8
Layer 1
10
118.928610
20
-5.796189
11
118.928610
21
-4.796250
0
LINE
8
Layer 1
10
118.928610
20
-4.796250
11
119.728560
21
-4.796250
0
LINE
8
Layer 1
10
119.728560
20
-4.796250
11
119.728560
21
-1.696180
0
LINE
8
Layer 1
10
119.728560
20
-1.696180
11
118.928610
21
-1.696180
0
LINE
8
Layer 1
10
118.928610
20
-1.696180
11
118.928610
21
4.103990
0
LINE
8
Layer 1
10
118.928610
20
4.103990
11
119.728560
21
4.103990
0
LINE
8
Layer 1
10
119.728560
20
4.103990
11
119.728560
21
7.203530
0
LINE
8
Layer 1
10
119.728560
20
7.203530
11
118.928610
21
7.203530
0
LINE
8
Layer 1
10
118.928610
20
7.203530
11
118.928610
21
8.204000
0
LINE
8
Layer 1
10
118.928610
20
8.204000
11
113.834350
21
8.204000
0
LINE
8
Layer 1
10
113.834350
20
8.204000
11
113.834350
21
10.014720
0
LINE
8
Layer 1
10
113.834350
20
10.014720
11
110.023210
21
10.014720
0
LINE
8
Layer 1
10
110.023210
20
10.014720
11
110.023210
21
8.204000
0
LINE
8
Layer 1
10
110.023210
20
8.204000
11
104.928950
21
8.204000
0
LINE
8
Layer 1
10
104.928950
20
8.204000
11
104.928950
21
7.203530
0
LINE
8
Layer 1
10
104.928950
20
7.203530
11
104.129000
21
7.203530
0
LINE
8
Layer 1
10
104.129000
20
7.203530
11
104.129000
21
4.103990
0
LINE
8
Layer 1
10
104.129000
20
4.103990
11
104.928950
21
4.103990
0
LINE
8
Layer 1
10
104.928950
20
4.103990
11
104.928950
21
-1.696180
0
LINE
8
Layer 1
10
104.928950
20
-1.696180
11
104.129000
21
-1.696180
0
LINE
8
Layer 1
10
104.129000
20
-1.696180
11
104.129000
21
-4.796250
0
LINE
8
Layer 1
10
104.129000
20
-4.796250
11
104.928950
21
-4.796250
0
LINE
8
Layer 1
10
104.928950
20
-4.796250
11
104.928950
21
-5.796189
0
LINE
8
Layer 1
10
104.928950
20
-5.796189
11
110.023210
21
-5.796189
0
LINE
8
Layer 1
10
110.023210
20
-5.796189
11
110.023210
21
-7.245709
0
LINE
8
Layer 1
10
110.023210
20
-7.245709
11
106.177970
21
-7.245709
0
LINE
8
Layer 1
10
106.177970
20
-7.245709
11
106.177970
21
-11.076479
0
LINE
8
Layer 1
10
106.177970
20
-11.076479
11
106.177970
21
-16.411569
0
LINE
8
Layer 1
10
106.177970
20
-16.411569
11
106.177970
21
-17.345363
0
LINE
8
Layer 1
10
106.177970
20
-17.345363
11
105.353210
21
-17.345363
0
LINE
8
Layer 1
10
105.353210
20
-17.345363
11
105.353210
21
-20.145183
0
LINE
8
Layer 1
10
105.353210
20
-20.145183
11
106.177970
21
-20.145183
0
LINE
8
Layer 1
10
106.177970
20
-20.145183
11
106.177970
21
-23.374953
0
LINE
8
Layer 1
10
106.177970
20
-23.374953
11
106.177970
21
-26.265233
0
LINE
8
Layer 1
10
106.177970
20
-26.265233
11
112.927940
21
-26.265233
0
LINE
8
Layer 1
10
112.927940
20
-26.265233
11
112.927940
21
-24.846193
0
LINE
8
Layer 1
10
112.927940
20
-24.846193
11
114.452910
21
-24.846193
0
LINE
8
Layer 1
10
114.452910
20
-24.846193
11
119.547180
21
-24.846193
0
LINE
8
Layer 1
10
119.547180
20
-24.846193
11
119.547200
21
-26.656945
0
LINE
8
Layer 1
10
150.505000
20
-26.656945
11
154.316130
21
-26.656945
0
LINE
8
Layer 1
10
154.316130
20
-26.656945
11
154.316130
21
-24.846215
0
LINE
8
Layer 1
10
154.316130
20
-24.846215
11
159.410400
21
-24.846215
0
LINE
8
Layer 1
10
159.410400
20
-24.846215
11
159.410400
21
-23.846276
0
LINE
8
Layer 1
10
159.410400
20
-23.846276
11
160.210350
21
-23.846276
0
LINE
8
Layer 1
10
160.210350
20
-23.846276
11
160.210350
21
-20.746206
0
LINE
8
Layer 1
10
160.210350
20
-20.746206
11
159.410400
21
-20.746206
0
LINE
8
Layer 1
10
159.410400
20
-20.746206
11
159.410400
21
-14.946036
0
LINE
8
Layer 1
10
159.410400
20
-14.946036
11
160.210350
21
-14.946036
0
LINE
8
Layer 1
10
160.210350
20
-14.946036
11
160.210350
21
-11.846496
0
LINE
8
Layer 1
10
160.210350
20
-11.846496
11
159.410400
21
-11.846496
0
LINE
8
Layer 1
10
159.410400
20
-11.846496
11
159.410400
21
-10.846026
0
LINE
8
Layer 1
10
159.410400
20
-10.846026
11
154.316130
21
-10.846026
0
LINE
8
Layer 1
10
154.316130
20
-10.846026
11
154.316130
21
-9.035296
0
LINE
8
Layer 1
10
154.316130
20
-9.035296
11
150.505000
21
-9.035296
0
LINE
8
Layer 1
10
150.505000
20
-9.035296
11
150.505000
21
-10.846026
0
LINE
8
Layer 1
10
150.505000
20
-10.846026
11
145.410740
21
-10.846026
0
LINE
8
Layer 1
10
145.410740
20
-10.846026
11
145.410740
21
-11.846496
0
LINE
8
Layer 1
10
145.410740
20
-11.846496
11
144.610780
21
-11.846496
0
LINE
8
Layer 1
10
144.610780
20
-11.846496
11
144.610780
21
-14.946036
0
LINE
8
Layer 1
10
144.610780
20
-14.946036
11
145.410740
21
-14.946036
0
LINE
8
Layer 1
10
145.410740
20
-14.946036
11
145.410740
21
-20.746206
0
LINE
8
Layer 1
10
145.410740
20
-20.746206
11
144.610780
21
-20.746206
0
LINE
8
Layer 1
10
144.610780
20
-20.746206
11
144.610780
21
-23.846276
0
LINE
8
Layer 1
10
144.610780
20
-23.846276
11
145.410740
21
-23.846276
0
LINE
8
Layer 1
10
145.410740
20
-23.846276
11
145.410740
21
-24.846215
0
LINE
8
Layer 1
10
145.410740
20
-24.846215
11
150.505000
21
-24.846215
0
LINE
8
Layer 1
10
150.505000
20
-24.846215
11
150.505000
21
-26.656945
0
LINE
8
Layer 1
10
169.555000
20
-26.656945
11
173.366130
21
-26.656945
0
LINE
8
Layer 1
10
173.366130
20
-26.656945
11
173.366130
21
-24.846215
0
LINE
8
Layer 1
10
173.366130
20
-24.846215
11
178.460400
21
-24.846215
0
LINE
8
Layer 1
10
178.460400
20
-24.846215
11
178.460400
21
-23.846276
0
LINE
8
Layer 1
10
178.460400
20
-23.846276
11
179.260350
21
-23.846276
0
LINE
8
Layer 1
10
179.260350
20
-23.846276
11
179.260350
21
-20.746206
0
LINE
8
Layer 1
10
179.260350
20
-20.746206
11
178.460400
21
-20.746206
0
LINE
8
Layer 1
10
178.460400
20
-20.746206
11
178.460400
21
-14.946036
0
LINE
8
Layer 1
10
178.460400
20
-14.946036
11
179.260350
21
-14.946036
0
LINE
8
Layer 1
10
179.260350
20
-14.946036
11
179.260350
21
-11.846496
0
LINE
8
Layer 1
10
179.260350
20
-11.846496
11
178.460400
21
-11.846496
0
LINE
8
Layer 1
10
178.460400
20
-11.846496
11
178.460400
21
-10.846026
0
LINE
8
Layer 1
10
178.460400
20
-10.846026
11
173.366130
21
-10.846026
0
LINE
8
Layer 1
10
173.366130
20
-10.846026
11
173.366130
21
-9.035296
0
LINE
8
Layer 1
10
173.366130
20
-9.035296
11
169.555000
21
-9.035296
0
LINE
8
Layer 1
10
169.555000
20
-9.035296
11
169.555000
21
-10.846026
0
LINE
8
Layer 1
10
169.555000
20
-10.846026
11
164.460730
21
-10.846026
0
LINE
8
Layer 1
10
164.460730
20
-10.846026
11
164.460730
21
-11.846496
0
LINE
8
Layer 1
10
164.460730
20
-11.846496
11
163.660780
21
-11.846496
0
LINE
8
Layer 1
10
163.660780
20
-11.846496
11
163.660780
21
-14.946036
0
LINE
8
Layer 1
10
163.660780
20
-14.946036
11
164.460730
21
-14.946036
0
LINE
8
Layer 1
10
164.460730
20
-14.946036
11
164.460730
21
-20.746206
0
LINE
8
Layer 1
10
164.460730
20
-20.746206
11
163.660780
21
-20.746206
0
LINE
8
Layer 1
10
163.660780
20
-20.746206
11
163.660780
21
-23.846276
0
LINE
8
Layer 1
10
163.660780
20
-23.846276
11
164.460730
21
-23.846276
0
LINE
8
Layer 1
10
164.460730
20
-23.846276
11
164.460730
21
-24.846215
0
LINE
8
Layer 1
10
164.460730
20
-24.846215
11
169.555000
21
-24.846215
0
LINE
8
Layer 1
10
169.555000
20
-24.846215
11
169.555000
21
-26.656945
0
LINE
8
Layer 1
10
188.605000
20
-26.656945
11
192.416130
21
-26.656945
0
LINE
8
Layer 1
10
192.416130
20
-26.656945
11
192.416130
21
-24.846215
0
LINE
8
Layer 1
10
192.416130
20
-24.846215
11
197.510400
21
-24.846215
0
LINE
8
Layer 1
10
197.510400
20
-24.846215
11
197.510400
21
-23.846276
0
LINE
8
Layer 1
10
197.510400
20
-23.846276
11
198.310350
21
-23.846276
0
LINE
8
Layer 1
10
198.310350
20
-23.846276
11
198.310350
21
-20.746206
0
LINE
8
Layer 1
10
198.310350
20
-20.746206
11
197.510400
21
-20.746206
0
LINE
8
Layer 1
10
197.510400
20
-20.746206
11
197.510400
21
-14.946036
0
LINE
8
Layer 1
10
197.510400
20
-14.946036
11
198.310350
21
-14.946036
0
LINE
8
Layer 1
10
198.310350
20
-14.946036
11
198.310350
21
-11.846496
0
LINE
8
Layer 1
10
198.310350
20
-11.846496
11
197.510400
21
-11.846496
0
LINE
8
Layer 1
10
197.510400
20
-11.846496
11
197.510400
21
-10.846026
0
LINE
8
Layer 1
10
197.510400
20
-10.846026
11
192.416130
21
-10.846026
0
LINE
8
Layer 1
10
192.416130
20
-10.846026
11
192.416130
21
-9.035296
0
LINE
8
Layer 1
10
192.416130
20
-9.035296
11
188.605000
21
-9.035296
0
LINE
8
Layer 1
10
188.605000
20
-9.035296
11
188.605000
21
-10.846026
0
LINE
8
Layer 1
10
188.605000
20
-10.846026
11
183.510730
21
-10.846026
0
LINE
8
Layer 1
10
183.510730
20
-10.846026
11
183.510730
21
-11.846496
0
LINE
8
Layer 1
10
183.510730
20
-11.846496
11
182.710780
21
-11.846496
0
LINE
8
Layer 1
10
182.710780
20
-11.846496
11
182.710780
21
-14.946036
0
LINE
8
Layer 1
10
182.710780
20
-14.946036
11
183.510730
21
-14.946036
0
LINE
8
Layer 1
10
183.510730
20
-14.946036
11
183.510730
21
-20.746206
0
LINE
8
Layer 1
10
183.510730
20
-20.746206
11
182.710780
21
-20.746206
0
LINE
8
Layer 1
10
182.710780
20
-20.746206
11
182.710780
21
-23.846276
0
LINE
8
Layer 1
10
182.710780
20
-23.846276
11
183.510730
21
-23.846276
0
LINE
8
Layer 1
10
183.510730
20
-23.846276
11
183.510730
21
-24.846215
0
LINE
8
Layer 1
10
183.510730
20
-24.846215
11
188.605000
21
-24.846215
0
LINE
8
Layer 1
10
188.605000
20
-24.846215
11
188.605000
21
-26.656945
0
LINE
8
Layer 1
10
207.655000
20
-26.656945
11
211.466130
21
-26.656945
0
LINE
8
Layer 1
10
211.466130
20
-26.656945
11
211.466130
21
-24.846215
0
LINE
8
Layer 1
10
211.466130
20
-24.846215
11
216.560400
21
-24.846215
0
LINE
8
Layer 1
10
216.560400
20
-24.846215
11
216.560400
21
-23.846276
0
LINE
8
Layer 1
10
216.560400
20
-23.846276
11
217.360350
21
-23.846276
0
LINE
8
Layer 1
10
217.360350
20
-23.846276
11
217.360350
21
-20.746206
0
LINE
8
Layer 1
10
217.360350
20
-20.746206
11
216.560400
21
-20.746206
0
LINE
8
Layer 1
10
216.560400
20
-20.746206
11
216.560400
21
-14.946036
0
LINE
8
Layer 1
10
216.560400
20
-14.946036
11
217.360350
21
-14.946036
0
LINE
8
Layer 1
10
217.360350
20
-14.946036
11
217.360350
21
-11.846496
0
LINE
8
Layer 1
10
217.360350
20
-11.846496
11
216.560400
21
-11.846496
0
LINE
8
Layer 1
10
216.560400
20
-11.846496
11
216.560400
21
-10.846026
0
LINE
8
Layer 1
10
216.560400
20
-10.846026
11
211.466130
21
-10.846026
0
LINE
8
Layer 1
10
211.466130
20
-10.846026
11
211.466130
21
-9.035296
0
LINE
8
Layer 1
10
211.466130
20
-9.035296
11
207.655000
21
-9.035296
0
LINE
8
Layer 1
10
207.655000
20
-9.035296
11
207.655000
21
-10.846026
0
LINE
8
Layer 1
10
207.655000
20
-10.846026
11
202.560730
21
-10.846026
0
LINE
8
Layer 1
10
202.560730
20
-10.846026
11
202.560730
21
-11.846496
0
LINE
8
Layer 1
10
202.560730
20
-11.846496
11
201.760780
21
-11.846496
0
LINE
8
Layer 1
10
201.760780
20
-11.846496
11
201.760780
21
-14.946036
0
LINE
8
Layer 1
10
201.760780
20
-14.946036
11
202.560730
21
-14.946036
0
LINE
8
Layer 1
10
202.560730
20
-14.946036
11
202.560730
21
-20.746206
0
LINE
8
Layer 1
10
202.560730
20
-20.746206
11
201.760780
21
-20.746206
0
LINE
8
Layer 1
10
201.760780
20
-20.746206
11
201.760780
21
-23.846276
0
LINE
8
Layer 1
10
201.760780
20
-23.846276
11
202.560730
21
-23.846276
0
LINE
8
Layer 1
10
202.560730
20
-23.846276
11
202.560730
21
-24.846215
0
LINE
8
Layer 1
10
202.560730
20
-24.846215
11
207.655000
21
-24.846215
0
LINE
8
Layer 1
10
207.655000
20
-24.846215
11
207.655000
21
-26.656945
0
LINE
8
Layer 1
10
226.705000
20
-26.656945
11
230.516130
21
-26.656945
0
LINE
8
Layer 1
10
230.516130
20
-26.656945
11
230.516130
21
-24.846215
0
LINE
8
Layer 1
10
230.516130
20
-24.846215
11
235.610400
21
-24.846215
0
LINE
8
Layer 1
10
235.610400
20
-24.846215
11
235.610400
21
-23.846276
0
LINE
8
Layer 1
10
235.610400
20
-23.846276
11
236.410350
21
-23.846276
0
LINE
8
Layer 1
10
236.410350
20
-23.846276
11
236.410350
21
-20.746206
0
LINE
8
Layer 1
10
236.410350
20
-20.746206
11
235.610400
21
-20.746206
0
LINE
8
Layer 1
10
235.610400
20
-20.746206
11
235.610400
21
-14.946036
0
LINE
8
Layer 1
10
235.610400
20
-14.946036
11
236.410350
21
-14.946036
0
LINE
8
Layer 1
10
236.410350
20
-14.946036
11
236.410350
21
-11.846496
0
LINE
8
Layer 1
10
236.410350
20
-11.846496
11
235.610400
21
-11.846496
0
LINE
8
Layer 1
10
235.610400
20
-11.846496
11
235.610400
21
-10.846026
0
LINE
8
Layer 1
10
235.610400
20
-10.846026
11
230.516130
21
-10.846026
0
LINE
8
Layer 1
10
230.516130
20
-10.846026
11
230.516130
21
-9.035296
0
LINE
8
Layer 1
10
230.516130
20
-9.035296
11
226.705000
21
-9.035296
0
LINE
8
Layer 1
10
226.705000
20
-9.035296
11
226.705000
21
-10.846026
0
LINE
8
Layer 1
10
226.705000
20
-10.846026
11
221.610730
21
-10.846026
0
LINE
8
Layer 1
10
221.610730
20
-10.846026
11
221.610730
21
-11.846496
0
LINE
8
Layer 1
10
221.610730
20
-11.846496
11
220.810780
21
-11.846496
0
LINE
8
Layer 1
10
220.810780
20
-11.846496
11
220.810780
21
-14.946036
0
LINE
8
Layer 1
10
220.810780
20
-14.946036
11
221.610730
21
-14.946036
0
LINE
8
Layer 1
10
221.610730
20
-14.946036
11
221.610730
21
-20.746206
0
LINE
8
Layer 1
10
221.610730
20
-20.746206
11
220.810780
21
-20.746206
0
LINE
8
Layer 1
10
220.810780
20
-20.746206
11
220.810780
21
-23.846276
0
LINE
8
Layer 1
10
220.810780
20
-23.846276
11
221.610730
21
-23.846276
0
LINE
8
Layer 1
10
221.610730
20
-23.846276
11
221.610730
21
-24.846215
0
LINE
8
Layer 1
10
221.610730
20
-24.846215
11
226.705000
21
-24.846215
0
LINE
8
Layer 1
10
226.705000
20
-24.846215
11
226.705000
21
-26.656945
0
LINE
8
Layer 1
10
78.736000
20
-24.846215
11
92.735700
21
-24.846215
0
LINE
8
Layer 1
10
92.735700
20
-24.846215
11
92.735700
21
-23.846276
0
LINE
8
Layer 1
10
92.735700
20
-23.846276
11
93.535652
21
-23.846276
0
LINE
8
Layer 1
10
93.535652
20
-23.846276
11
93.535652
21
-20.747236
0
LINE
8
Layer 1
10
93.535652
20
-20.747236
11
92.735700
21
-20.747236
0
LINE
8
Layer 1
10
92.735700
20
-20.747236
11
92.735700
21
-14.946036
0
LINE
8
Layer 1
10
92.735700
20
-14.946036
11
93.535652
21
-14.946036
0
LINE
8
Layer 1
10
93.535652
20
-14.946036
11
93.535652
21
-11.845966
0
LINE
8
Layer 1
10
93.535652
20
-11.845966
11
92.735700
21
-11.845966
0
LINE
8
Layer 1
10
92.735700
20
-11.845966
11
92.735700
21
-10.846026
0
LINE
8
Layer 1
10
92.735700
20
-10.846026
11
78.735400
21
-10.846026
0
LINE
8
Layer 1
10
78.735400
20
-10.846026
11
78.735400
21
-11.845966
0
LINE
8
Layer 1
10
78.735400
20
-11.845966
11
77.935448
21
-11.845966
0
LINE
8
Layer 1
10
77.935448
20
-11.845966
11
77.935448
21
-14.946036
0
LINE
8
Layer 1
10
77.935448
20
-14.946036
11
78.735400
21
-14.946036
0
LINE
8
Layer 1
10
78.735400
20
-14.946036
11
78.735400
21
-20.747236
0
LINE
8
Layer 1
10
78.735400
20
-20.747236
11
77.935448
21
-20.747236
0
LINE
8
Layer 1
10
77.935448
20
-20.747236
11
77.935448
21
-23.846276
0
LINE
8
Layer 1
10
77.935448
20
-23.846276
11
78.735400
21
-23.846276
0
LINE
8
Layer 1
10
78.735400
20
-23.846276
11
78.736000
21
-24.846215
0
LINE
8
Layer 1
10
157.647000
20
-7.607960
11
161.458140
21
-7.607960
0
LINE
8
Layer 1
10
161.458140
20
-7.607960
11
161.458140
21
-5.797230
0
LINE
8
Layer 1
10
161.458140
20
-5.797230
11
166.552400
21
-5.797230
0
LINE
8
Layer 1
10
166.552400
20
-5.797230
11
166.552400
21
-4.797290
0
LINE
8
Layer 1
10
166.552400
20
-4.797290
11
167.352350
21
-4.797290
0
LINE
8
Layer 1
10
167.352350
20
-4.797290
11
167.352350
21
-1.697220
0
LINE
8
Layer 1
10
167.352350
20
-1.697220
11
166.552400
21
-1.697220
0
LINE
8
Layer 1
10
166.552400
20
-1.697220
11
166.552400
21
4.102950
0
LINE
8
Layer 1
10
166.552400
20
4.102950
11
167.352350
21
4.102950
0
LINE
8
Layer 1
10
167.352350
20
4.102950
11
167.352350
21
7.202490
0
LINE
8
Layer 1
10
167.352350
20
7.202490
11
166.552400
21
7.202490
0
LINE
8
Layer 1
10
166.552400
20
7.202490
11
166.552400
21
8.202950
0
LINE
8
Layer 1
10
166.552400
20
8.202950
11
161.458140
21
8.202950
0
LINE
8
Layer 1
10
161.458140
20
8.202950
11
161.458140
21
10.013700
0
LINE
8
Layer 1
10
161.458140
20
10.013700
11
157.647000
21
10.013700
0
LINE
8
Layer 1
10
157.647000
20
10.013700
11
157.647000
21
8.202960
0
LINE
8
Layer 1
10
157.647000
20
8.202960
11
152.552740
21
8.202960
0
LINE
8
Layer 1
10
152.552740
20
8.202960
11
152.552740
21
7.202500
0
LINE
8
Layer 1
10
152.552740
20
7.202500
11
151.752790
21
7.202500
0
LINE
8
Layer 1
10
151.752790
20
7.202500
11
151.752790
21
4.102960
0
LINE
8
Layer 1
10
151.752790
20
4.102960
11
152.552740
21
4.102960
0
LINE
8
Layer 1
10
152.552740
20
4.102960
11
152.552740
21
-1.697210
0
LINE
8
Layer 1
10
152.552740
20
-1.697210
11
151.752790
21
-1.697210
0
LINE
8
Layer 1
10
151.752790
20
-1.697210
11
151.752790
21
-4.797280
0
LINE
8
Layer 1
10
151.752790
20
-4.797280
11
152.552740
21
-4.797280
0
LINE
8
Layer 1
10
152.552740
20
-4.797280
11
152.552740
21
-5.797220
0
LINE
8
Layer 1
10
152.552740
20
-5.797220
11
157.647000
21
-5.797220
0
LINE
8
Layer 1
10
157.647000
20
-5.797220
11
157.647000
21
-7.607960
0
LINE
8
Layer 1
10
188.604300
20
-7.607960
11
192.416470
21
-7.607960
0
LINE
8
Layer 1
10
192.416470
20
-7.607960
11
192.416470
21
-5.797230
0
LINE
8
Layer 1
10
192.416470
20
-5.797230
11
197.510730
21
-5.797230
0
LINE
8
Layer 1
10
197.510730
20
-5.797230
11
199.035700
21
-5.797230
0
LINE
8
Layer 1
10
199.035700
20
-5.797230
11
199.035700
21
-7.216270
0
LINE
8
Layer 1
10
199.035700
20
-7.216270
11
205.785680
21
-7.216270
0
LINE
8
Layer 1
10
205.785680
20
-7.216270
11
205.785680
21
-4.325990
0
LINE
8
Layer 1
10
205.785680
20
-4.325990
11
205.785680
21
-1.096220
0
LINE
8
Layer 1
10
205.785680
20
-1.096220
11
206.610430
21
-1.096220
0
LINE
8
Layer 1
10
206.610430
20
-1.096220
11
206.610430
21
1.703600
0
LINE
8
Layer 1
10
206.610430
20
1.703600
11
205.785680
21
1.703600
0
LINE
8
Layer 1
10
205.785680
20
1.703600
11
205.785680
21
2.637394
0
LINE
8
Layer 1
10
205.785680
20
2.637394
11
205.785680
21
7.972984
0
LINE
8
Layer 1
10
205.785680
20
7.972984
11
205.785680
21
11.803254
0
LINE
8
Layer 1
10
205.785680
20
11.803254
11
175.235080
21
11.803254
0
LINE
8
Layer 1
10
175.235080
20
11.803254
11
175.235080
21
7.972984
0
LINE
8
Layer 1
10
175.235080
20
7.972984
11
175.235080
21
2.637394
0
LINE
8
Layer 1
10
175.235080
20
2.637394
11
175.235080
21
1.703600
0
LINE
8
Layer 1
10
175.235080
20
1.703600
11
174.410320
21
1.703600
0
LINE
8
Layer 1
10
174.410320
20
1.703600
11
174.410320
21
-1.096220
0
LINE
8
Layer 1
10
174.410320
20
-1.096220
11
175.235080
21
-1.096220
0
LINE
8
Layer 1
10
175.235080
20
-1.096220
11
175.235080
21
-4.325990
0
LINE
8
Layer 1
10
175.235080
20
-4.325990
11
175.235080
21
-7.216270
0
LINE
8
Layer 1
10
175.235080
20
-7.216270
11
181.985050
21
-7.216270
0
LINE
8
Layer 1
10
181.985050
20
-7.216270
11
181.985050
21
-5.797230
0
LINE
8
Layer 1
10
181.985050
20
-5.797230
11
183.510020
21
-5.797230
0
LINE
8
Layer 1
10
183.510020
20
-5.797230
11
188.604290
21
-5.797230
0
LINE
8
Layer 1
10
188.604290
20
-5.797230
11
188.604300
21
-7.607960
0
LINE
8
Layer 1
10
219.560000
20
-7.607960
11
223.371140
21
-7.607960
0
LINE
8
Layer 1
10
223.371140
20
-7.607960
11
223.371140
21
-5.797230
0
LINE
8
Layer 1
10
223.371140
20
-5.797230
11
228.465400
21
-5.797230
0
LINE
8
Layer 1
10
228.465400
20
-5.797230
11
228.465400
21
-4.797290
0
LINE
8
Layer 1
10
228.465400
20
-4.797290
11
229.265350
21
-4.797290
0
LINE
8
Layer 1
10
229.265350
20
-4.797290
11
229.265350
21
-1.697220
0
LINE
8
Layer 1
10
229.265350
20
-1.697220
11
228.465400
21
-1.697220
0
LINE
8
Layer 1
10
228.465400
20
-1.697220
11
228.465400
21
4.102950
0
LINE
8
Layer 1
10
228.465400
20
4.102950
11
229.265350
21
4.102950
0
LINE
8
Layer 1
10
229.265350
20
4.102950
11
229.265350
21
7.202490
0
LINE
8
Layer 1
10
229.265350
20
7.202490
11
228.465400
21
7.202490
0
LINE
8
Layer 1
10
228.465400
20
7.202490
11
228.465400
21
8.202950
0
LINE
8
Layer 1
10
228.465400
20
8.202950
11
223.371140
21
8.202950
0
LINE
8
Layer 1
10
223.371140
20
8.202950
11
223.371140
21
10.013680
0
LINE
8
Layer 1
10
223.371140
20
10.013680
11
219.560000
21
10.013680
0
LINE
8
Layer 1
10
219.560000
20
10.013680
11
219.560000
21
8.202960
0
LINE
8
Layer 1
10
219.560000
20
8.202960
11
214.465740
21
8.202960
0
LINE
8
Layer 1
10
214.465740
20
8.202960
11
214.465740
21
7.202500
0
LINE
8
Layer 1
10
214.465740
20
7.202500
11
213.665780
21
7.202500
0
LINE
8
Layer 1
10
213.665780
20
7.202500
11
213.665780
21
4.102960
0
LINE
8
Layer 1
10
213.665780
20
4.102960
11
214.465740
21
4.102960
0
LINE
8
Layer 1
10
214.465740
20
4.102960
11
214.465740
21
-1.697210
0
LINE
8
Layer 1
10
214.465740
20
-1.697210
11
213.665780
21
-1.697210
0
LINE
8
Layer 1
10
213.665780
20
-1.697210
11
213.665780
21
-4.797280
0
LINE
8
Layer 1
10
213.665780
20
-4.797280
11
214.465740
21
-4.797280
0
LINE
8
Layer 1
10
214.465740
20
-4.797280
11
214.465740
21
-5.797220
0
LINE
8
Layer 1
10
214.465740
20
-5.797220
11
219.560000
21
-5.797220
0
LINE
8
Layer 1
10
219.560000
20
-5.797220
11
219.560000
21
-7.607960
0
LINE
8
Layer 1
10
78.734000
20
-5.796200
11
92.733700
21
-5.796200
0
LINE
8
Layer 1
10
92.733700
20
-5.796200
11
92.733700
21
-4.796261
0
LINE
8
Layer 1
10
92.733700
20
-4.796261
11
93.533652
21
-4.796261
0
LINE
8
Layer 1
10
93.533652
20
-4.796261
11
93.533652
21
-1.696191
0
LINE
8
Layer 1
10
93.533652
20
-1.696191
11
92.733700
21
-1.696191
0
LINE
8
Layer 1
10
92.733700
20
-1.696191
11
92.733700
21
4.103979
0
LINE
8
Layer 1
10
92.733700
20
4.103979
11
93.533652
21
4.103979
0
LINE
8
Layer 1
10
93.533652
20
4.103979
11
93.533652
21
7.204049
0
LINE
8
Layer 1
10
93.533652
20
7.204049
11
92.733700
21
7.204049
0
LINE
8
Layer 1
10
92.733700
20
7.204049
11
92.733700
21
8.203993
0
LINE
8
Layer 1
10
92.733700
20
8.203993
11
78.734400
21
8.203993
0
LINE
8
Layer 1
10
78.734400
20
8.203993
11
78.734400
21
7.204049
0
LINE
8
Layer 1
10
78.734400
20
7.204049
11
77.935483
21
7.204049
0
LINE
8
Layer 1
10
77.935483
20
7.204049
11
77.935483
21
4.103979
0
LINE
8
Layer 1
10
77.935483
20
4.103979
11
78.734400
21
4.103979
0
LINE
8
Layer 1
10
78.734400
20
4.103979
11
78.734400
21
-1.696191
0
LINE
8
Layer 1
10
78.734400
20
-1.696191
11
77.935483
21
-1.696191
0
LINE
8
Layer 1
10
77.935483
20
-1.696191
11
77.935483
21
-4.796261
0
LINE
8
Layer 1
10
77.935483
20
-4.796261
11
78.734400
21
-4.796261
0
LINE
8
Layer 1
10
78.734400
20
-4.796261
11
78.734000
21
-5.796200
0
LINE
8
Layer 1
10
53.239300
20
18.490700
11
53.252740
21
18.490700
0
LINE
8
Layer 1
10
53.252740
20
18.490700
11
53.641951
21
18.569296
0
LINE
8
Layer 1
10
53.641951
20
18.569296
11
53.959786
21
18.783594
0
LINE
8
Layer 1
10
53.959786
20
18.783594
11
54.174083
21
19.101429
0
LINE
8
Layer 1
10
54.174083
20
19.101429
11
54.252679
21
19.490640
0
LINE
8
Layer 1
10
54.252679
20
19.490640
11
54.174083
21
19.879851
0
LINE
8
Layer 1
10
54.174083
20
19.879851
11
53.959786
21
20.197686
0
LINE
8
Layer 1
10
53.959786
20
20.197686
11
53.641951
21
20.411984
0
LINE
8
Layer 1
10
53.641951
20
20.411984
11
53.252740
21
20.490580
0
LINE
8
Layer 1
10
53.252740
20
20.490580
11
52.863529
21
20.411984
0
LINE
8
Layer 1
10
52.863529
20
20.411984
11
52.545694
21
20.197686
0
LINE
8
Layer 1
10
52.545694
20
20.197686
11
52.331397
21
19.879851
0
LINE
8
Layer 1
10
52.331397
20
19.879851
11
52.252801
21
19.490640
0
LINE
8
Layer 1
10
52.252801
20
19.490640
11
52.330015
21
19.104658
0
LINE
8
Layer 1
10
52.330015
20
19.104658
11
52.540928
21
18.788301
0
LINE
8
Layer 1
10
52.540928
20
18.788301
11
52.854403
21
18.573129
0
LINE
8
Layer 1
10
52.854403
20
18.573129
11
53.239305
21
18.490700
0
LINE
8
Layer 1
10
53.239305
20
18.490700
11
53.239300
21
18.490700
0
LINE
8
Layer 1
10
141.299000
20
18.490700
11
141.312400
21
18.490700
0
LINE
8
Layer 1
10
141.312400
20
18.490700
11
141.701611
21
18.569296
0
LINE
8
Layer 1
10
141.701611
20
18.569296
11
142.019447
21
18.783593
0
LINE
8
Layer 1
10
142.019447
20
18.783593
11
142.233744
21
19.101429
0
LINE
8
Layer 1
10
142.233744
20
19.101429
11
142.312340
21
19.490640
0
LINE
8
Layer 1
10
142.312340
20
19.490640
11
142.233744
21
19.879851
0
LINE
8
Layer 1
10
142.233744
20
19.879851
11
142.019447
21
20.197687
0
LINE
8
Layer 1
10
142.019447
20
20.197687
11
141.701611
21
20.411984
0
LINE
8
Layer 1
10
141.701611
20
20.411984
11
141.312400
21
20.490580
0
LINE
8
Layer 1
10
141.312400
20
20.490580
11
140.923189
21
20.411984
0
LINE
8
Layer 1
10
140.923189
20
20.411984
11
140.605353
21
20.197687
0
LINE
8
Layer 1
10
140.605353
20
20.197687
11
140.391056
21
19.879851
0
LINE
8
Layer 1
10
140.391056
20
19.879851
11
140.312460
21
19.490640
0
LINE
8
Layer 1
10
140.312460
20
19.490640
11
140.389674
21
19.104659
0
LINE
8
Layer 1
10
140.389674
20
19.104659
11
140.600585
21
18.788302
0
LINE
8
Layer 1
10
140.600585
20
18.788302
11
140.914059
21
18.573130
0
LINE
8
Layer 1
10
140.914059
20
18.573130
11
141.298960
21
18.490700
0
LINE
8
Layer 1
10
141.298960
20
18.490700
11
141.299000
21
18.490700
0
LINE
8
Layer 1
10
229.358200
20
18.490700
11
229.371600
21
18.490700
0
LINE
8
Layer 1
10
229.371600
20
18.490700
11
229.760811
21
18.569296
0
LINE
8
Layer 1
10
229.760811
20
18.569296
11
230.078647
21
18.783593
0
LINE
8
Layer 1
10
230.078647
20
18.783593
11
230.292944
21
19.101429
0
LINE
8
Layer 1
10
230.292944
20
19.101429
11
230.371540
21
19.490640
0
LINE
8
Layer 1
10
230.371540
20
19.490640
11
230.292944
21
19.879851
0
LINE
8
Layer 1
10
230.292944
20
19.879851
11
230.078647
21
20.197687
0
LINE
8
Layer 1
10
230.078647
20
20.197687
11
229.760811
21
20.411984
0
LINE
8
Layer 1
10
229.760811
20
20.411984
11
229.371600
21
20.490580
0
LINE
8
Layer 1
10
229.371600
20
20.490580
11
228.982389
21
20.411984
0
LINE
8
Layer 1
10
228.982389
20
20.411984
11
228.664553
21
20.197687
0
LINE
8
Layer 1
10
228.664553
20
20.197687
11
228.450256
21
19.879851
0
LINE
8
Layer 1
10
228.450256
20
19.879851
11
228.371660
21
19.490640
0
LINE
8
Layer 1
10
228.371660
20
19.490640
11
228.448874
21
19.104659
0
LINE
8
Layer 1
10
228.448874
20
19.104659
11
228.659785
21
18.788302
0
LINE
8
Layer 1
10
228.659785
20
18.788302
11
228.973259
21
18.573130
0
LINE
8
Layer 1
10
228.973259
20
18.573130
11
229.358160
21
18.490700
0
LINE
8
Layer 1
10
229.358160
20
18.490700
11
229.358200
21
18.490700
 0 
ENDSEC
 0 
EOF