999
"DXF R12 Output" (www.mydxf.blogspot.com)
 0 
SECTION
 2 
HEADER
 9 
$ACADVER
 1 
AC1009
 9 
$EXTMIN
 10 
 0 
 20 
 0 
 9 
$EXTMAX
 10 
 8.5 
 20 
 11 
 0 
ENDSEC
 0 
SECTION
 2 
ENTITIES
0
LINE
8
Layer 1
10
20.515900
20
163.195000
11
20.240982
21
163.206400
0
LINE
8
Layer 1
10
20.240982
20
163.206400
11
19.968130
21
163.239500
0
LINE
8
Layer 1
10
19.968130
20
163.239500
11
19.698379
21
163.292200
0
LINE
8
Layer 1
10
19.698379
20
163.292200
11
19.434313
21
163.367100
0
LINE
8
Layer 1
10
19.434313
20
163.367100
11
19.175931
21
163.462200
0
LINE
8
Layer 1
10
19.175931
20
163.462200
11
18.927367
21
163.577440
0
LINE
8
Layer 1
10
18.927367
20
163.577440
11
18.687072
21
163.711280
0
LINE
8
Layer 1
10
18.687072
20
163.711280
11
18.458145
21
163.864240
0
LINE
8
Layer 1
10
18.458145
20
163.864240
11
18.242137
21
164.034260
0
LINE
8
Layer 1
10
18.242137
20
164.034260
11
18.041116
21
164.221330
0
LINE
8
Layer 1
10
18.041116
20
164.221330
11
17.854048
21
164.422350
0
LINE
8
Layer 1
10
17.854048
20
164.422350
11
17.684032
21
164.638360
0
LINE
8
Layer 1
10
17.684032
20
164.638360
11
17.531070
21
164.867280
0
LINE
8
Layer 1
10
17.531070
20
164.867280
11
17.397228
21
165.107060
0
LINE
8
Layer 1
10
17.397228
20
165.107060
11
17.281989
21
165.356140
0
LINE
8
Layer 1
10
17.281989
20
165.356140
11
17.186909
21
165.614010
0
LINE
8
Layer 1
10
17.186909
20
165.614010
11
17.112499
21
165.878070
0
LINE
8
Layer 1
10
17.112499
20
165.878070
11
17.059789
21
166.148340
0
LINE
8
Layer 1
10
17.059789
20
166.148340
11
17.026199
21
166.421190
0
LINE
8
Layer 1
10
17.026199
20
166.421190
11
17.016399
21
166.696110
0
LINE
8
Layer 1
10
17.016399
20
166.696110
11
17.016399
21
275.709110
0
LINE
8
Layer 1
10
17.016399
20
275.709110
11
17.027249
21
275.984020
0
LINE
8
Layer 1
10
17.027249
20
275.984020
11
17.060319
21
276.257390
0
LINE
8
Layer 1
10
17.060319
20
276.257390
11
17.113029
21
276.526110
0
LINE
8
Layer 1
10
17.113029
20
276.526110
11
17.187959
21
276.791210
0
LINE
8
Layer 1
10
17.187959
20
276.791210
11
17.283039
21
277.048040
0
LINE
8
Layer 1
10
17.283039
20
277.048040
11
17.398277
21
277.298150
0
LINE
8
Layer 1
10
17.398277
20
277.298150
11
17.532119
21
277.538450
0
LINE
8
Layer 1
10
17.532119
20
277.538450
11
17.685082
21
277.766360
0
LINE
8
Layer 1
10
17.685082
20
277.766360
11
17.855097
21
277.982360
0
LINE
8
Layer 1
10
17.855097
20
277.982360
11
18.042166
21
278.184400
0
LINE
8
Layer 1
10
18.042166
20
278.184400
11
18.243187
21
278.370450
0
LINE
8
Layer 1
10
18.243187
20
278.370450
11
18.459195
21
278.541480
0
LINE
8
Layer 1
10
18.459195
20
278.541480
11
18.688121
21
278.693430
0
LINE
8
Layer 1
10
18.688121
20
278.693430
11
18.928416
21
278.828290
0
LINE
8
Layer 1
10
18.928416
20
278.828290
11
19.176980
21
278.943010
0
LINE
8
Layer 1
10
19.176980
20
278.943010
11
19.435362
21
279.038110
0
LINE
8
Layer 1
10
19.435362
20
279.038110
11
19.699429
21
279.112510
0
LINE
8
Layer 1
10
19.699429
20
279.112510
11
19.969180
21
279.166310
0
LINE
8
Layer 1
10
19.969180
20
279.166310
11
20.242031
21
279.197810
0
LINE
8
Layer 1
10
20.242031
20
279.197810
11
20.516950
21
279.208610
0
LINE
8
Layer 1
10
20.516950
20
279.208610
11
199.482000
21
279.208610
0
LINE
8
Layer 1
10
199.482000
20
279.208610
11
200.162339
21
279.070248
0
LINE
8
Layer 1
10
200.162339
20
279.070248
11
200.717710
21
278.694955
0
LINE
8
Layer 1
10
200.717710
20
278.694955
11
201.092020
21
278.138923
0
LINE
8
Layer 1
10
201.092020
20
278.138923
11
201.229180
21
277.458340
0
LINE
8
Layer 1
10
201.229180
20
277.458340
11
201.229180
21
268.192750
0
LINE
8
Layer 1
10
201.229180
20
268.192750
11
201.090817
21
267.512408
0
LINE
8
Layer 1
10
201.090817
20
267.512408
11
200.715522
21
266.957037
0
LINE
8
Layer 1
10
200.715522
20
266.957037
11
200.159486
21
266.582727
0
LINE
8
Layer 1
10
200.159486
20
266.582727
11
199.478900
21
266.445570
0
LINE
8
Layer 1
10
199.478900
20
266.445570
11
67.877300
21
266.445570
0
LINE
8
Layer 1
10
67.877300
20
266.445570
11
67.877300
21
171.194000
0
LINE
8
Layer 1
10
67.877300
20
171.194000
11
199.482000
21
171.194000
0
LINE
8
Layer 1
10
199.482000
20
171.194000
11
200.162342
21
171.055637
0
LINE
8
Layer 1
10
200.162342
20
171.055637
11
200.717713
21
170.680342
0
LINE
8
Layer 1
10
200.717713
20
170.680342
11
201.092023
21
170.124306
0
LINE
8
Layer 1
10
201.092023
20
170.124306
11
201.229180
21
169.443720
0
LINE
8
Layer 1
10
201.229180
20
169.443720
11
201.229180
21
164.943220
0
LINE
8
Layer 1
10
201.229180
20
164.943220
11
201.090817
21
164.262878
0
LINE
8
Layer 1
10
201.090817
20
164.262878
11
200.715522
21
163.707507
0
LINE
8
Layer 1
10
200.715522
20
163.707507
11
200.159486
21
163.333197
0
LINE
8
Layer 1
10
200.159486
20
163.333197
11
199.478900
21
163.196040
0
LINE
8
Layer 1
10
199.478900
20
163.196040
11
20.515900
21
163.195000
0
LINE
8
Layer 1
10
21.096227
20
166.192760
11
21.109667
21
166.192760
0
LINE
8
Layer 1
10
21.109667
20
166.192760
11
21.492478
21
166.268743
0
LINE
8
Layer 1
10
21.492478
20
166.268743
11
21.817050
21
166.485469
0
LINE
8
Layer 1
10
21.817050
20
166.485469
11
22.033945
21
166.809929
0
LINE
8
Layer 1
10
22.033945
20
166.809929
11
22.110127
21
167.192700
0
LINE
8
Layer 1
10
22.110127
20
167.192700
11
22.033942
21
167.575468
0
LINE
8
Layer 1
10
22.033942
20
167.575468
11
21.817046
21
167.899924
0
LINE
8
Layer 1
10
21.817046
20
167.899924
11
21.492476
21
168.116648
0
LINE
8
Layer 1
10
21.492476
20
168.116648
11
21.109667
21
168.192630
0
LINE
8
Layer 1
10
21.109667
20
168.192630
11
20.720458
21
168.114035
0
LINE
8
Layer 1
10
20.720458
20
168.114035
11
20.402624
21
167.899740
0
LINE
8
Layer 1
10
20.402624
20
167.899740
11
20.188327
21
167.581908
0
LINE
8
Layer 1
10
20.188327
20
167.581908
11
20.109728
21
167.192700
0
LINE
8
Layer 1
10
20.109728
20
167.192700
11
20.186942
21
166.806718
0
LINE
8
Layer 1
10
20.186942
20
166.806718
11
20.397855
21
166.490361
0
LINE
8
Layer 1
10
20.397855
20
166.490361
11
20.711330
21
166.275189
0
LINE
8
Layer 1
10
20.711330
20
166.275189
11
21.096232
21
166.192760
0
LINE
8
Layer 1
10
21.096232
20
166.192760
11
21.096227
21
166.192760
0
LINE
8
Layer 1
10
93.016427
20
166.192760
11
93.029827
21
166.192760
0
LINE
8
Layer 1
10
93.029827
20
166.192760
11
93.419038
21
166.271356
0
LINE
8
Layer 1
10
93.419038
20
166.271356
11
93.736874
21
166.485653
0
LINE
8
Layer 1
10
93.736874
20
166.485653
11
93.951171
21
166.803489
0
LINE
8
Layer 1
10
93.951171
20
166.803489
11
94.029767
21
167.192700
0
LINE
8
Layer 1
10
94.029767
20
167.192700
11
93.951168
21
167.581908
0
LINE
8
Layer 1
10
93.951168
20
167.581908
11
93.736870
21
167.899740
0
LINE
8
Layer 1
10
93.736870
20
167.899740
11
93.419036
21
168.114035
0
LINE
8
Layer 1
10
93.419036
20
168.114035
11
93.029827
21
168.192630
0
LINE
8
Layer 1
10
93.029827
20
168.192630
11
92.640618
21
168.114035
0
LINE
8
Layer 1
10
92.640618
20
168.114035
11
92.322784
21
167.899740
0
LINE
8
Layer 1
10
92.322784
20
167.899740
11
92.108486
21
167.581908
0
LINE
8
Layer 1
10
92.108486
20
167.581908
11
92.029887
21
167.192700
0
LINE
8
Layer 1
10
92.029887
20
167.192700
11
92.107102
21
166.806716
0
LINE
8
Layer 1
10
92.107102
20
166.806716
11
92.318016
21
166.490359
0
LINE
8
Layer 1
10
92.318016
20
166.490359
11
92.631493
21
166.275187
0
LINE
8
Layer 1
10
92.631493
20
166.275187
11
93.016397
21
166.192760
0
LINE
8
Layer 1
10
93.016397
20
166.192760
11
93.016427
21
166.192760
0
LINE
8
Layer 1
10
173.216227
20
166.192760
11
173.230127
21
166.192760
0
LINE
8
Layer 1
10
173.230127
20
166.192760
11
173.619338
21
166.271356
0
LINE
8
Layer 1
10
173.619338
20
166.271356
11
173.937174
21
166.485653
0
LINE
8
Layer 1
10
173.937174
20
166.485653
11
174.151471
21
166.803489
0
LINE
8
Layer 1
10
174.151471
20
166.803489
11
174.230067
21
167.192700
0
LINE
8
Layer 1
10
174.230067
20
167.192700
11
174.151468
21
167.581908
0
LINE
8
Layer 1
10
174.151468
20
167.581908
11
173.937170
21
167.899740
0
LINE
8
Layer 1
10
173.937170
20
167.899740
11
173.619336
21
168.114035
0
LINE
8
Layer 1
10
173.619336
20
168.114035
11
173.230127
21
168.192630
0
LINE
8
Layer 1
10
173.230127
20
168.192630
11
172.847322
21
168.116645
0
LINE
8
Layer 1
10
172.847322
20
168.116645
11
172.522754
21
167.899921
0
LINE
8
Layer 1
10
172.522754
20
167.899921
11
172.305861
21
167.575466
0
LINE
8
Layer 1
10
172.305861
20
167.575466
11
172.229677
21
167.192700
0
LINE
8
Layer 1
10
172.229677
20
167.192700
11
172.306891
21
166.806719
0
LINE
8
Layer 1
10
172.306891
20
166.806719
11
172.517802
21
166.490362
0
LINE
8
Layer 1
10
172.517802
20
166.490362
11
172.831276
21
166.275190
0
LINE
8
Layer 1
10
172.831276
20
166.275190
11
173.216177
21
166.192760
0
LINE
8
Layer 1
10
173.216177
20
166.192760
11
173.216227
21
166.192760
0
LINE
8
Layer 1
10
197.215327
20
166.192760
11
197.229227
21
166.192760
0
LINE
8
Layer 1
10
197.229227
20
166.192760
11
197.618438
21
166.271356
0
LINE
8
Layer 1
10
197.618438
20
166.271356
11
197.936274
21
166.485653
0
LINE
8
Layer 1
10
197.936274
20
166.485653
11
198.150571
21
166.803489
0
LINE
8
Layer 1
10
198.150571
20
166.803489
11
198.229167
21
167.192700
0
LINE
8
Layer 1
10
198.229167
20
167.192700
11
198.150568
21
167.581908
0
LINE
8
Layer 1
10
198.150568
20
167.581908
11
197.936270
21
167.899740
0
LINE
8
Layer 1
10
197.936270
20
167.899740
11
197.618436
21
168.114035
0
LINE
8
Layer 1
10
197.618436
20
168.114035
11
197.229227
21
168.192630
0
LINE
8
Layer 1
10
197.229227
20
168.192630
11
196.846422
21
168.116645
0
LINE
8
Layer 1
10
196.846422
20
168.116645
11
196.521854
21
167.899921
0
LINE
8
Layer 1
10
196.521854
20
167.899921
11
196.304961
21
167.575466
0
LINE
8
Layer 1
10
196.304961
20
167.575466
11
196.228777
21
167.192700
0
LINE
8
Layer 1
10
196.228777
20
167.192700
11
196.305991
21
166.806719
0
LINE
8
Layer 1
10
196.305991
20
166.806719
11
196.516902
21
166.490362
0
LINE
8
Layer 1
10
196.516902
20
166.490362
11
196.830376
21
166.275190
0
LINE
8
Layer 1
10
196.830376
20
166.275190
11
197.215277
21
166.192760
0
LINE
8
Layer 1
10
197.215277
20
166.192760
11
197.215327
21
166.192760
0
LINE
8
Layer 1
10
70.999327
20
166.193280
11
71.012727
21
166.193280
0
LINE
8
Layer 1
10
71.012727
20
166.193280
11
71.395538
21
166.269263
0
LINE
8
Layer 1
10
71.395538
20
166.269263
11
71.720110
21
166.485989
0
LINE
8
Layer 1
10
71.720110
20
166.485989
11
71.937005
21
166.810449
0
LINE
8
Layer 1
10
71.937005
20
166.810449
11
72.013187
21
167.193220
0
LINE
8
Layer 1
10
72.013187
20
167.193220
11
71.937005
21
167.575991
0
LINE
8
Layer 1
10
71.937005
20
167.575991
11
71.720110
21
167.900451
0
LINE
8
Layer 1
10
71.720110
20
167.900451
11
71.395538
21
168.117177
0
LINE
8
Layer 1
10
71.395538
20
168.117177
11
71.012727
21
168.193160
0
LINE
8
Layer 1
10
71.012727
20
168.193160
11
70.623516
21
168.114564
0
LINE
8
Layer 1
10
70.623516
20
168.114564
11
70.305680
21
167.900267
0
LINE
8
Layer 1
10
70.305680
20
167.900267
11
70.091383
21
167.582431
0
LINE
8
Layer 1
10
70.091383
20
167.582431
11
70.012787
21
167.193220
0
LINE
8
Layer 1
10
70.012787
20
167.193220
11
70.090002
21
166.807236
0
LINE
8
Layer 1
10
70.090002
20
166.807236
11
70.300916
21
166.490879
0
LINE
8
Layer 1
10
70.300916
20
166.490879
11
70.614393
21
166.275707
0
LINE
8
Layer 1
10
70.614393
20
166.275707
11
70.999297
21
166.193280
0
LINE
8
Layer 1
10
70.999297
20
166.193280
11
70.999327
21
166.193280
0
LINE
8
Layer 1
10
31.315927
20
171.193480
11
56.815627
21
171.193480
0
LINE
8
Layer 1
10
56.815627
20
171.193480
11
56.815627
21
197.192880
0
LINE
8
Layer 1
10
56.815627
20
197.192880
11
56.815627
21
207.193280
0
LINE
8
Layer 1
10
56.815627
20
207.193280
11
56.815627
21
208.192710
0
LINE
8
Layer 1
10
56.815627
20
208.192710
11
44.815827
21
208.192710
0
LINE
8
Layer 1
10
44.815827
20
208.192710
11
44.815827
21
197.193410
0
LINE
8
Layer 1
10
44.815827
20
197.193410
11
43.315657
21
197.193410
0
LINE
8
Layer 1
10
43.315657
20
197.193410
11
43.315657
21
208.192710
0
LINE
8
Layer 1
10
43.315657
20
208.192710
11
31.315857
21
208.192710
0
LINE
8
Layer 1
10
31.315857
20
208.192710
11
31.315857
21
207.193280
0
LINE
8
Layer 1
10
31.315857
20
207.193280
11
31.315857
21
197.193380
0
LINE
8
Layer 1
10
31.315857
20
197.193380
11
31.315857
21
197.192850
0
LINE
8
Layer 1
10
31.315857
20
197.192850
11
31.315927
21
171.193480
0
LINE
8
Layer 1
10
46.592527
20
211.820480
11
60.592727
21
211.820480
0
LINE
8
Layer 1
10
60.592727
20
211.820480
11
60.592727
21
212.820420
0
LINE
8
Layer 1
10
60.592727
20
212.820420
11
61.392677
21
212.820420
0
LINE
8
Layer 1
10
61.392677
20
212.820420
11
61.392677
21
215.920490
0
LINE
8
Layer 1
10
61.392677
20
215.920490
11
60.592727
21
215.920490
0
LINE
8
Layer 1
10
60.592727
20
215.920490
11
60.592727
21
221.720140
0
LINE
8
Layer 1
10
60.592727
20
221.720140
11
61.392677
21
221.720140
0
LINE
8
Layer 1
10
61.392677
20
221.720140
11
61.392677
21
224.820200
0
LINE
8
Layer 1
10
61.392677
20
224.820200
11
60.592727
21
224.820200
0
LINE
8
Layer 1
10
60.592727
20
224.820200
11
60.592727
21
225.820140
0
LINE
8
Layer 1
10
60.592727
20
225.820140
11
46.592527
21
225.820140
0
LINE
8
Layer 1
10
46.592527
20
225.820140
11
46.592527
21
224.820200
0
LINE
8
Layer 1
10
46.592527
20
224.820200
11
45.793097
21
224.820200
0
LINE
8
Layer 1
10
45.793097
20
224.820200
11
45.793097
21
221.720140
0
LINE
8
Layer 1
10
45.793097
20
221.720140
11
46.592527
21
221.720140
0
LINE
8
Layer 1
10
46.592527
20
221.720140
11
46.592527
21
215.920490
0
LINE
8
Layer 1
10
46.592527
20
215.920490
11
45.793097
21
215.920490
0
LINE
8
Layer 1
10
45.793097
20
215.920490
11
45.793097
21
212.820420
0
LINE
8
Layer 1
10
45.793097
20
212.820420
11
46.592527
21
212.820420
0
LINE
8
Layer 1
10
46.592527
20
212.820420
11
46.592527
21
211.820480
0
LINE
8
Layer 1
10
29.542427
20
214.870430
11
39.542337
21
214.870430
0
LINE
8
Layer 1
10
39.542337
20
214.870430
11
39.542337
21
260.870730
0
LINE
8
Layer 1
10
39.542337
20
260.870730
11
29.542427
21
260.870730
0
LINE
8
Layer 1
10
29.542427
20
260.870730
11
29.542427
21
214.870430
0
LINE
8
Layer 1
10
46.592527
20
230.870530
11
60.592727
21
230.870530
0
LINE
8
Layer 1
10
60.592727
20
230.870530
11
60.592727
21
231.870470
0
LINE
8
Layer 1
10
60.592727
20
231.870470
11
61.392677
21
231.870470
0
LINE
8
Layer 1
10
61.392677
20
231.870470
11
61.392677
21
234.969510
0
LINE
8
Layer 1
10
61.392677
20
234.969510
11
60.592727
21
234.969510
0
LINE
8
Layer 1
10
60.592727
20
234.969510
11
60.592727
21
240.770190
0
LINE
8
Layer 1
10
60.592727
20
240.770190
11
61.392677
21
240.770190
0
LINE
8
Layer 1
10
61.392677
20
240.770190
11
61.392677
21
243.870250
0
LINE
8
Layer 1
10
61.392677
20
243.870250
11
60.592727
21
243.870250
0
LINE
8
Layer 1
10
60.592727
20
243.870250
11
60.592727
21
244.870190
0
LINE
8
Layer 1
10
60.592727
20
244.870190
11
46.592527
21
244.870190
0
LINE
8
Layer 1
10
46.592527
20
244.870190
11
46.592527
21
243.870250
0
LINE
8
Layer 1
10
46.592527
20
243.870250
11
45.793097
21
243.870250
0
LINE
8
Layer 1
10
45.793097
20
243.870250
11
45.793097
21
240.770190
0
LINE
8
Layer 1
10
45.793097
20
240.770190
11
46.592527
21
240.770190
0
LINE
8
Layer 1
10
46.592527
20
240.770190
11
46.592527
21
234.969510
0
LINE
8
Layer 1
10
46.592527
20
234.969510
11
45.793097
21
234.969510
0
LINE
8
Layer 1
10
45.793097
20
234.969510
11
45.793097
21
231.870470
0
LINE
8
Layer 1
10
45.793097
20
231.870470
11
46.592527
21
231.870470
0
LINE
8
Layer 1
10
46.592527
20
231.870470
11
46.592527
21
230.870530
0
LINE
8
Layer 1
10
46.591997
20
249.920530
11
60.592197
21
249.920530
0
LINE
8
Layer 1
10
60.592197
20
249.920530
11
60.592197
21
250.920470
0
LINE
8
Layer 1
10
60.592197
20
250.920470
11
61.392147
21
250.920470
0
LINE
8
Layer 1
10
61.392147
20
250.920470
11
61.392147
21
254.020540
0
LINE
8
Layer 1
10
61.392147
20
254.020540
11
60.592197
21
254.020540
0
LINE
8
Layer 1
10
60.592197
20
254.020540
11
60.592197
21
259.820190
0
LINE
8
Layer 1
10
60.592197
20
259.820190
11
61.392147
21
259.820190
0
LINE
8
Layer 1
10
61.392147
20
259.820190
11
61.392147
21
262.920250
0
LINE
8
Layer 1
10
61.392147
20
262.920250
11
60.592197
21
262.920250
0
LINE
8
Layer 1
10
60.592197
20
262.920250
11
60.592197
21
263.920190
0
LINE
8
Layer 1
10
60.592197
20
263.920190
11
46.591997
21
263.920190
0
LINE
8
Layer 1
10
46.591997
20
263.920190
11
46.591997
21
262.920250
0
LINE
8
Layer 1
10
46.591997
20
262.920250
11
45.793087
21
262.920250
0
LINE
8
Layer 1
10
45.793087
20
262.920250
11
45.793087
21
259.820190
0
LINE
8
Layer 1
10
45.793087
20
259.820190
11
46.591997
21
259.820190
0
LINE
8
Layer 1
10
46.591997
20
259.820190
11
46.591997
21
254.020540
0
LINE
8
Layer 1
10
46.591997
20
254.020540
11
45.793087
21
254.020540
0
LINE
8
Layer 1
10
45.793087
20
254.020540
11
45.793087
21
250.920470
0
LINE
8
Layer 1
10
45.793087
20
250.920470
11
46.591997
21
250.920470
0
LINE
8
Layer 1
10
46.591997
20
250.920470
11
46.591997
21
249.920530
0
LINE
8
Layer 1
10
21.096397
20
274.207430
11
21.096926
21
274.207430
0
LINE
8
Layer 1
10
21.096926
20
274.207430
11
21.109846
21
274.207430
0
LINE
8
Layer 1
10
21.109846
20
274.207430
11
21.492657
21
274.283413
0
LINE
8
Layer 1
10
21.492657
20
274.283413
11
21.817229
21
274.500139
0
LINE
8
Layer 1
10
21.817229
20
274.500139
11
22.034124
21
274.824599
0
LINE
8
Layer 1
10
22.034124
20
274.824599
11
22.110306
21
275.207370
0
LINE
8
Layer 1
10
22.110306
20
275.207370
11
22.034124
21
275.590141
0
LINE
8
Layer 1
10
22.034124
20
275.590141
11
21.817229
21
275.914601
0
LINE
8
Layer 1
10
21.817229
20
275.914601
11
21.492657
21
276.131327
0
LINE
8
Layer 1
10
21.492657
20
276.131327
11
21.109846
21
276.207310
0
LINE
8
Layer 1
10
21.109846
20
276.207310
11
20.720635
21
276.128714
0
LINE
8
Layer 1
10
20.720635
20
276.128714
11
20.402800
21
275.914416
0
LINE
8
Layer 1
10
20.402800
20
275.914416
11
20.188503
21
275.596581
0
LINE
8
Layer 1
10
20.188503
20
275.596581
11
20.109907
21
275.207370
0
LINE
8
Layer 1
10
20.109907
20
275.207370
11
20.187121
21
274.821388
0
LINE
8
Layer 1
10
20.187121
20
274.821388
11
20.398033
21
274.505031
0
LINE
8
Layer 1
10
20.398033
20
274.505031
11
20.711508
21
274.289859
0
LINE
8
Layer 1
10
20.711508
20
274.289859
11
21.096410
21
274.207430
0
LINE
8
Layer 1
10
21.096410
20
274.207430
11
21.096397
21
274.207430
0
LINE
8
Layer 1
10
109.156697
20
274.207430
11
109.157227
21
274.207430
0
LINE
8
Layer 1
10
109.157227
20
274.207430
11
109.170127
21
274.207430
0
LINE
8
Layer 1
10
109.170127
20
274.207430
11
109.559338
21
274.286026
0
LINE
8
Layer 1
10
109.559338
20
274.286026
11
109.877174
21
274.500323
0
LINE
8
Layer 1
10
109.877174
20
274.500323
11
110.091471
21
274.818159
0
LINE
8
Layer 1
10
110.091471
20
274.818159
11
110.170067
21
275.207370
0
LINE
8
Layer 1
10
110.170067
20
275.207370
11
110.091471
21
275.596581
0
LINE
8
Layer 1
10
110.091471
20
275.596581
11
109.877174
21
275.914417
0
LINE
8
Layer 1
10
109.877174
20
275.914417
11
109.559338
21
276.128714
0
LINE
8
Layer 1
10
109.559338
20
276.128714
11
109.170127
21
276.207310
0
LINE
8
Layer 1
10
109.170127
20
276.207310
11
108.780916
21
276.128714
0
LINE
8
Layer 1
10
108.780916
20
276.128714
11
108.463080
21
275.914417
0
LINE
8
Layer 1
10
108.463080
20
275.914417
11
108.248783
21
275.596581
0
LINE
8
Layer 1
10
108.248783
20
275.596581
11
108.170187
21
275.207370
0
LINE
8
Layer 1
10
108.170187
20
275.207370
11
108.247401
21
274.821389
0
LINE
8
Layer 1
10
108.247401
20
274.821389
11
108.458312
21
274.505032
0
LINE
8
Layer 1
10
108.458312
20
274.505032
11
108.771786
21
274.289860
0
LINE
8
Layer 1
10
108.771786
20
274.289860
11
109.156687
21
274.207430
0
LINE
8
Layer 1
10
109.156687
20
274.207430
11
109.156697
21
274.207430
0
LINE
8
Layer 1
10
197.215397
20
274.207430
11
197.215927
21
274.207430
0
LINE
8
Layer 1
10
197.215927
20
274.207430
11
197.229327
21
274.207430
0
LINE
8
Layer 1
10
197.229327
20
274.207430
11
197.618538
21
274.286026
0
LINE
8
Layer 1
10
197.618538
20
274.286026
11
197.936374
21
274.500323
0
LINE
8
Layer 1
10
197.936374
20
274.500323
11
198.150671
21
274.818159
0
LINE
8
Layer 1
10
198.150671
20
274.818159
11
198.229267
21
275.207370
0
LINE
8
Layer 1
10
198.229267
20
275.207370
11
198.150671
21
275.596581
0
LINE
8
Layer 1
10
198.150671
20
275.596581
11
197.936374
21
275.914417
0
LINE
8
Layer 1
10
197.936374
20
275.914417
11
197.618538
21
276.128714
0
LINE
8
Layer 1
10
197.618538
20
276.128714
11
197.229327
21
276.207310
0
LINE
8
Layer 1
10
197.229327
20
276.207310
11
196.846516
21
276.131327
0
LINE
8
Layer 1
10
196.846516
20
276.131327
11
196.521944
21
275.914601
0
LINE
8
Layer 1
10
196.521944
20
275.914601
11
196.305049
21
275.590141
0
LINE
8
Layer 1
10
196.305049
20
275.590141
11
196.228867
21
275.207370
0
LINE
8
Layer 1
10
196.228867
20
275.207370
11
196.306082
21
274.821386
0
LINE
8
Layer 1
10
196.306082
20
274.821386
11
196.516996
21
274.505029
0
LINE
8
Layer 1
10
196.516996
20
274.505029
11
196.830473
21
274.289857
0
LINE
8
Layer 1
10
196.830473
20
274.289857
11
197.215377
21
274.207430
0
LINE
8
Layer 1
10
197.215377
20
274.207430
11
197.215397
21
274.207430
0
LINE
8
Layer 1
10
19.102200
20
23.727100
11
18.827281
21
23.738500
0
LINE
8
Layer 1
10
18.827281
20
23.738500
11
18.554430
21
23.772100
0
LINE
8
Layer 1
10
18.554430
20
23.772100
11
18.284679
21
23.824300
0
LINE
8
Layer 1
10
18.284679
20
23.824300
11
18.020612
21
23.899200
0
LINE
8
Layer 1
10
18.020612
20
23.899200
11
17.762230
21
23.994300
0
LINE
8
Layer 1
10
17.762230
20
23.994300
11
17.513666
21
24.109540
0
LINE
8
Layer 1
10
17.513666
20
24.109540
11
17.273371
21
24.243380
0
LINE
8
Layer 1
10
17.273371
20
24.243380
11
17.044444
21
24.396340
0
LINE
8
Layer 1
10
17.044444
20
24.396340
11
16.828437
21
24.566350
0
LINE
8
Layer 1
10
16.828437
20
24.566350
11
16.627415
21
24.753420
0
LINE
8
Layer 1
10
16.627415
20
24.753420
11
16.440347
21
24.954440
0
LINE
8
Layer 1
10
16.440347
20
24.954440
11
16.270332
21
25.170450
0
LINE
8
Layer 1
10
16.270332
20
25.170450
11
16.117370
21
25.399380
0
LINE
8
Layer 1
10
16.117370
20
25.399380
11
15.983528
21
25.639160
0
LINE
8
Layer 1
10
15.983528
20
25.639160
11
15.868290
21
25.888240
0
LINE
8
Layer 1
10
15.868290
20
25.888240
11
15.773200
21
26.146100
0
LINE
8
Layer 1
10
15.773200
20
26.146100
11
15.698270
21
26.410170
0
LINE
8
Layer 1
10
15.698270
20
26.410170
11
15.645560
21
26.680440
0
LINE
8
Layer 1
10
15.645560
20
26.680440
11
15.612490
21
26.953290
0
LINE
8
Layer 1
10
15.612490
20
26.953290
11
15.602690
21
27.228210
0
LINE
8
Layer 1
10
15.602690
20
27.228210
11
15.602690
21
136.246000
0
LINE
8
Layer 1
10
15.602690
20
136.246000
11
15.613540
21
136.520910
0
LINE
8
Layer 1
10
15.613540
20
136.520910
11
15.646610
21
136.794280
0
LINE
8
Layer 1
10
15.646610
20
136.794280
11
15.699320
21
137.063010
0
LINE
8
Layer 1
10
15.699320
20
137.063010
11
15.774250
21
137.328110
0
LINE
8
Layer 1
10
15.774250
20
137.328110
11
15.869330
21
137.584940
0
LINE
8
Layer 1
10
15.869330
20
137.584940
11
15.984569
21
137.835040
0
LINE
8
Layer 1
10
15.984569
20
137.835040
11
16.118411
21
138.075340
0
LINE
8
Layer 1
10
16.118411
20
138.075340
11
16.271373
21
138.303240
0
LINE
8
Layer 1
10
16.271373
20
138.303240
11
16.441387
21
138.519250
0
LINE
8
Layer 1
10
16.441387
20
138.519250
11
16.628456
21
138.721310
0
LINE
8
Layer 1
10
16.628456
20
138.721310
11
16.829477
21
138.907330
0
LINE
8
Layer 1
10
16.829477
20
138.907330
11
17.045485
21
139.078910
0
LINE
8
Layer 1
10
17.045485
20
139.078910
11
17.274411
21
139.230820
0
LINE
8
Layer 1
10
17.274411
20
139.230820
11
17.514707
21
139.365710
0
LINE
8
Layer 1
10
17.514707
20
139.365710
11
17.763270
21
139.480420
0
LINE
8
Layer 1
10
17.763270
20
139.480420
11
18.021652
21
139.575520
0
LINE
8
Layer 1
10
18.021652
20
139.575520
11
18.285720
21
139.649920
0
LINE
8
Layer 1
10
18.285720
20
139.649920
11
18.555470
21
139.703120
0
LINE
8
Layer 1
10
18.555470
20
139.703120
11
18.828323
21
139.735120
0
LINE
8
Layer 1
10
18.828323
20
139.735120
11
19.103241
21
139.745920
0
LINE
8
Layer 1
10
19.103241
20
139.745920
11
198.068000
21
139.745920
0
LINE
8
Layer 1
10
198.068000
20
139.745920
11
198.748325
21
139.607558
0
LINE
8
Layer 1
10
198.748325
20
139.607558
11
199.303688
21
139.232266
0
LINE
8
Layer 1
10
199.303688
20
139.232266
11
199.678003
21
138.676231
0
LINE
8
Layer 1
10
199.678003
20
138.676231
11
199.815180
21
137.995640
0
LINE
8
Layer 1
10
199.815180
20
137.995640
11
199.815180
21
128.729540
0
LINE
8
Layer 1
10
199.815180
20
128.729540
11
199.676797
21
128.049194
0
LINE
8
Layer 1
10
199.676797
20
128.049194
11
199.301497
21
127.493823
0
LINE
8
Layer 1
10
199.301497
20
127.493823
11
198.745469
21
127.119515
0
LINE
8
Layer 1
10
198.745469
20
127.119515
11
198.064900
21
126.982360
0
LINE
8
Layer 1
10
198.064900
20
126.982360
11
66.463700
21
126.982360
0
LINE
8
Layer 1
10
66.463700
20
126.982360
11
66.463700
21
31.726600
0
LINE
8
Layer 1
10
66.463700
20
31.726600
11
198.068000
21
31.726600
0
LINE
8
Layer 1
10
198.068000
20
31.726600
11
198.748325
21
31.588238
0
LINE
8
Layer 1
10
198.748325
20
31.588238
11
199.303688
21
31.212946
0
LINE
8
Layer 1
10
199.303688
20
31.212946
11
199.678003
21
30.656911
0
LINE
8
Layer 1
10
199.678003
20
30.656911
11
199.815180
21
29.976320
0
LINE
8
Layer 1
10
199.815180
20
29.976320
11
199.815180
21
25.475300
0
LINE
8
Layer 1
10
199.815180
20
25.475300
11
199.676797
21
24.794954
0
LINE
8
Layer 1
10
199.676797
20
24.794954
11
199.301497
21
24.239583
0
LINE
8
Layer 1
10
199.301497
20
24.239583
11
198.745469
21
23.865275
0
LINE
8
Layer 1
10
198.745469
20
23.865275
11
198.064900
21
23.728120
0
LINE
8
Layer 1
10
198.064900
20
23.728120
11
19.102200
21
23.727100
0
LINE
8
Layer 1
10
19.682526
20
26.724850
11
19.695966
21
26.724850
0
LINE
8
Layer 1
10
19.695966
20
26.724850
11
20.078768
21
26.800832
0
LINE
8
Layer 1
10
20.078768
20
26.800832
11
20.403335
21
27.017557
0
LINE
8
Layer 1
10
20.403335
20
27.017557
11
20.620233
21
27.342016
0
LINE
8
Layer 1
10
20.620233
20
27.342016
11
20.696426
21
27.724790
0
LINE
8
Layer 1
10
20.696426
20
27.724790
11
20.620379
21
28.107721
0
LINE
8
Layer 1
10
20.620379
20
28.107721
11
20.403515
21
28.432353
0
LINE
8
Layer 1
10
20.403515
20
28.432353
11
20.078885
21
28.649209
0
LINE
8
Layer 1
10
20.078885
20
28.649209
11
19.695966
21
28.725240
0
LINE
8
Layer 1
10
19.695966
20
28.725240
11
19.313207
21
28.649059
0
LINE
8
Layer 1
10
19.313207
20
28.649059
11
18.988754
21
28.432168
0
LINE
8
Layer 1
10
18.988754
20
28.432168
11
18.772025
21
28.107600
0
LINE
8
Layer 1
10
18.772025
20
28.107600
11
18.696028
21
27.724790
0
LINE
8
Layer 1
10
18.696028
20
27.724790
11
18.773254
21
27.338805
0
LINE
8
Layer 1
10
18.773254
20
27.338805
11
18.984168
21
27.022449
0
LINE
8
Layer 1
10
18.984168
20
27.022449
11
19.297639
21
26.807278
0
LINE
8
Layer 1
10
19.297639
20
26.807278
11
19.682531
21
26.724850
0
LINE
8
Layer 1
10
19.682531
20
26.724850
11
19.682526
21
26.724850
0
LINE
8
Layer 1
10
91.602726
20
26.724850
11
91.616126
21
26.724850
0
LINE
8
Layer 1
10
91.616126
20
26.724850
11
92.005328
21
26.803445
0
LINE
8
Layer 1
10
92.005328
20
26.803445
11
92.323159
21
27.017741
0
LINE
8
Layer 1
10
92.323159
20
27.017741
11
92.537458
21
27.335576
0
LINE
8
Layer 1
10
92.537458
20
27.335576
11
92.616066
21
27.724790
0
LINE
8
Layer 1
10
92.616066
20
27.724790
11
92.540069
21
28.107601
0
LINE
8
Layer 1
10
92.540069
20
28.107601
11
92.323339
21
28.432169
0
LINE
8
Layer 1
10
92.323339
20
28.432169
11
91.998886
21
28.649060
0
LINE
8
Layer 1
10
91.998886
20
28.649060
11
91.616126
21
28.725240
0
LINE
8
Layer 1
10
91.616126
20
28.725240
11
91.233366
21
28.649060
0
LINE
8
Layer 1
10
91.233366
20
28.649060
11
90.908913
21
28.432169
0
LINE
8
Layer 1
10
90.908913
20
28.432169
11
90.692183
21
28.107601
0
LINE
8
Layer 1
10
90.692183
20
28.107601
11
90.616186
21
27.724790
0
LINE
8
Layer 1
10
90.616186
20
27.724790
11
90.693412
21
27.338806
0
LINE
8
Layer 1
10
90.693412
20
27.338806
11
90.904325
21
27.022450
0
LINE
8
Layer 1
10
90.904325
20
27.022450
11
91.217795
21
26.807279
0
LINE
8
Layer 1
10
91.217795
20
26.807279
11
91.602686
21
26.724850
0
LINE
8
Layer 1
10
91.602686
20
26.724850
11
91.602726
21
26.724850
0
LINE
8
Layer 1
10
171.802426
20
26.724850
11
171.816326
21
26.724850
0
LINE
8
Layer 1
10
171.816326
20
26.724850
11
172.205528
21
26.803445
0
LINE
8
Layer 1
10
172.205528
20
26.803445
11
172.523359
21
27.017741
0
LINE
8
Layer 1
10
172.523359
20
27.017741
11
172.737658
21
27.335576
0
LINE
8
Layer 1
10
172.737658
20
27.335576
11
172.816266
21
27.724790
0
LINE
8
Layer 1
10
172.816266
20
27.724790
11
172.740269
21
28.107601
0
LINE
8
Layer 1
10
172.740269
20
28.107601
11
172.523539
21
28.432169
0
LINE
8
Layer 1
10
172.523539
20
28.432169
11
172.199086
21
28.649060
0
LINE
8
Layer 1
10
172.199086
20
28.649060
11
171.816326
21
28.725240
0
LINE
8
Layer 1
10
171.816326
20
28.725240
11
171.433407
21
28.649209
0
LINE
8
Layer 1
10
171.433407
20
28.649209
11
171.108777
21
28.432353
0
LINE
8
Layer 1
10
171.108777
20
28.432353
11
170.891913
21
28.107721
0
LINE
8
Layer 1
10
170.891913
20
28.107721
11
170.815866
21
27.724790
0
LINE
8
Layer 1
10
170.815866
20
27.724790
11
170.893093
21
27.338804
0
LINE
8
Layer 1
10
170.893093
20
27.338804
11
171.104009
21
27.022447
0
LINE
8
Layer 1
10
171.104009
20
27.022447
11
171.417481
21
26.807276
0
LINE
8
Layer 1
10
171.417481
20
26.807276
11
171.802376
21
26.724850
0
LINE
8
Layer 1
10
171.802376
20
26.724850
11
171.802426
21
26.724850
0
LINE
8
Layer 1
10
195.801526
20
26.724850
11
195.815426
21
26.724850
0
LINE
8
Layer 1
10
195.815426
20
26.724850
11
196.204628
21
26.803445
0
LINE
8
Layer 1
10
196.204628
20
26.803445
11
196.522459
21
27.017741
0
LINE
8
Layer 1
10
196.522459
20
27.017741
11
196.736758
21
27.335576
0
LINE
8
Layer 1
10
196.736758
20
27.335576
11
196.815366
21
27.724790
0
LINE
8
Layer 1
10
196.815366
20
27.724790
11
196.739369
21
28.107601
0
LINE
8
Layer 1
10
196.739369
20
28.107601
11
196.522639
21
28.432169
0
LINE
8
Layer 1
10
196.522639
20
28.432169
11
196.198186
21
28.649060
0
LINE
8
Layer 1
10
196.198186
20
28.649060
11
195.815426
21
28.725240
0
LINE
8
Layer 1
10
195.815426
20
28.725240
11
195.432507
21
28.649209
0
LINE
8
Layer 1
10
195.432507
20
28.649209
11
195.107877
21
28.432353
0
LINE
8
Layer 1
10
195.107877
20
28.432353
11
194.891013
21
28.107721
0
LINE
8
Layer 1
10
194.891013
20
28.107721
11
194.814966
21
27.724790
0
LINE
8
Layer 1
10
194.814966
20
27.724790
11
194.892193
21
27.338804
0
LINE
8
Layer 1
10
194.892193
20
27.338804
11
195.103109
21
27.022447
0
LINE
8
Layer 1
10
195.103109
20
27.022447
11
195.416581
21
26.807276
0
LINE
8
Layer 1
10
195.416581
20
26.807276
11
195.801476
21
26.724850
0
LINE
8
Layer 1
10
195.801476
20
26.724850
11
195.801526
21
26.724850
0
LINE
8
Layer 1
10
69.585526
20
26.725850
11
69.598926
21
26.725850
0
LINE
8
Layer 1
10
69.598926
20
26.725850
11
69.981725
21
26.801835
0
LINE
8
Layer 1
10
69.981725
20
26.801835
11
70.306288
21
27.018560
0
LINE
8
Layer 1
10
70.306288
20
27.018560
11
70.523184
21
27.343018
0
LINE
8
Layer 1
10
70.523184
20
27.343018
11
70.599376
21
27.725790
0
LINE
8
Layer 1
10
70.599376
20
27.725790
11
70.523181
21
28.108559
0
LINE
8
Layer 1
10
70.523181
20
28.108559
11
70.306285
21
28.433013
0
LINE
8
Layer 1
10
70.306285
20
28.433013
11
69.981722
21
28.649736
0
LINE
8
Layer 1
10
69.981722
20
28.649736
11
69.598926
21
28.725720
0
LINE
8
Layer 1
10
69.598926
20
28.725720
11
69.209727
21
28.647126
0
LINE
8
Layer 1
10
69.209727
20
28.647126
11
68.891897
21
28.432833
0
LINE
8
Layer 1
10
68.891897
20
28.432833
11
68.677597
21
28.115001
0
LINE
8
Layer 1
10
68.677597
20
28.115001
11
68.598986
21
27.725790
0
LINE
8
Layer 1
10
68.598986
20
27.725790
11
68.676212
21
27.339806
0
LINE
8
Layer 1
10
68.676212
20
27.339806
11
68.887125
21
27.023450
0
LINE
8
Layer 1
10
68.887125
20
27.023450
11
69.200595
21
26.808279
0
LINE
8
Layer 1
10
69.200595
20
26.808279
11
69.585486
21
26.725850
0
LINE
8
Layer 1
10
69.585486
20
26.725850
11
69.585526
21
26.725850
0
LINE
8
Layer 1
10
32.244126
20
36.765050
11
53.002526
21
36.765050
0
LINE
8
Layer 1
10
53.002526
20
36.765050
11
53.732053
21
36.911595
0
LINE
8
Layer 1
10
53.732053
20
36.911595
11
54.326521
21
37.311726
0
LINE
8
Layer 1
10
54.326521
20
37.311726
11
54.726664
21
37.906192
0
LINE
8
Layer 1
10
54.726664
20
37.906192
11
54.873216
21
38.635740
0
LINE
8
Layer 1
10
54.873216
20
38.635740
11
54.873216
21
48.895040
0
LINE
8
Layer 1
10
54.873216
20
48.895040
11
54.726664
21
49.624582
0
LINE
8
Layer 1
10
54.726664
20
49.624582
11
54.326521
21
50.219045
0
LINE
8
Layer 1
10
54.326521
20
50.219045
11
53.732053
21
50.619176
0
LINE
8
Layer 1
10
53.732053
20
50.619176
11
53.002526
21
50.765720
0
LINE
8
Layer 1
10
53.002526
20
50.765720
11
32.244126
21
50.765720
0
LINE
8
Layer 1
10
32.244126
20
50.765720
11
31.514599
21
50.619175
0
LINE
8
Layer 1
10
31.514599
20
50.619175
11
30.920131
21
50.219045
0
LINE
8
Layer 1
10
30.920131
20
50.219045
11
30.519988
21
49.624581
0
LINE
8
Layer 1
10
30.519988
20
49.624581
11
30.373436
21
48.895040
0
LINE
8
Layer 1
10
30.373436
20
48.895040
11
30.373436
21
38.635740
0
LINE
8
Layer 1
10
30.373436
20
38.635740
11
30.519988
21
37.906192
0
LINE
8
Layer 1
10
30.519988
20
37.906192
11
30.920131
21
37.311726
0
LINE
8
Layer 1
10
30.920131
20
37.311726
11
31.514599
21
36.911595
0
LINE
8
Layer 1
10
31.514599
20
36.911595
11
32.244126
21
36.765050
0
LINE
8
Layer 1
10
32.244126
20
36.765050
11
32.244126
21
36.765050
0
LINE
8
Layer 1
10
29.702156
20
57.728150
11
41.701956
21
57.728150
0
LINE
8
Layer 1
10
41.701956
20
57.728150
11
41.701956
21
68.128050
0
LINE
8
Layer 1
10
41.701956
20
68.128050
11
41.701956
21
68.728011
0
LINE
8
Layer 1
10
41.701956
20
68.728011
11
29.702156
21
68.728011
0
LINE
8
Layer 1
10
29.702156
20
68.728011
11
29.702156
21
68.128050
0
LINE
8
Layer 1
10
29.702156
20
68.128050
11
29.702156
21
57.728150
0
LINE
8
Layer 1
10
43.602056
20
57.728150
11
43.602586
21
57.728150
0
LINE
8
Layer 1
10
43.602586
20
57.728150
11
43.802056
21
57.728150
0
LINE
8
Layer 1
10
43.802056
20
57.728150
11
55.602356
21
57.728150
0
LINE
8
Layer 1
10
55.602356
20
57.728150
11
55.602356
21
68.128050
0
LINE
8
Layer 1
10
55.602356
20
68.128050
11
55.602356
21
68.728011
0
LINE
8
Layer 1
10
55.602356
20
68.728011
11
43.602556
21
68.728011
0
LINE
8
Layer 1
10
43.602556
20
68.728011
11
43.602556
21
68.128050
0
LINE
8
Layer 1
10
43.602556
20
68.128050
11
43.602026
21
68.128050
0
LINE
8
Layer 1
10
43.602026
20
68.128050
11
43.602056
21
57.728150
0
LINE
8
Layer 1
10
52.178796
20
75.855750
11
53.541140
21
76.130786
0
LINE
8
Layer 1
10
53.541140
20
76.130786
11
54.653657
21
76.880867
0
LINE
8
Layer 1
10
54.653657
20
76.880867
11
55.403753
21
77.993399
0
LINE
8
Layer 1
10
55.403753
20
77.993399
11
55.678836
21
79.355790
0
LINE
8
Layer 1
10
55.678836
20
79.355790
11
55.403756
21
80.718184
0
LINE
8
Layer 1
10
55.403756
20
80.718184
11
54.653660
21
81.830719
0
LINE
8
Layer 1
10
54.653660
20
81.830719
11
53.541143
21
82.580803
0
LINE
8
Layer 1
10
53.541143
20
82.580803
11
52.178796
21
82.855840
0
LINE
8
Layer 1
10
52.178796
20
82.855840
11
50.816446
21
82.580805
0
LINE
8
Layer 1
10
50.816446
20
82.580805
11
49.703925
21
81.830723
0
LINE
8
Layer 1
10
49.703925
20
81.830723
11
48.953827
21
80.718186
0
LINE
8
Layer 1
10
48.953827
20
80.718186
11
48.678746
21
79.355790
0
LINE
8
Layer 1
10
48.678746
20
79.355790
11
48.953830
21
77.993397
0
LINE
8
Layer 1
10
48.953830
20
77.993397
11
49.703929
21
76.880864
0
LINE
8
Layer 1
10
49.703929
20
76.880864
11
50.816449
21
76.130784
0
LINE
8
Layer 1
10
50.816449
20
76.130784
11
52.178796
21
75.855750
0
LINE
8
Layer 1
10
52.178796
20
75.855750
11
52.178796
21
75.855750
0
LINE
8
Layer 1
10
32.978396
20
79.906140
11
33.277606
21
79.906140
0
LINE
8
Layer 1
10
33.277606
20
79.906140
11
33.879597
21
80.154510
0
LINE
8
Layer 1
10
33.879597
20
80.154510
11
34.128196
21
80.756220
0
LINE
8
Layer 1
10
34.128196
20
80.756220
11
34.128196
21
116.056920
0
LINE
8
Layer 1
10
34.128196
20
116.056920
11
33.879597
21
116.658890
0
LINE
8
Layer 1
10
33.879597
20
116.658890
11
33.277606
21
116.907520
0
LINE
8
Layer 1
10
33.277606
20
116.907520
11
32.978396
21
116.907520
0
LINE
8
Layer 1
10
32.978396
20
116.907520
11
32.376694
21
116.658890
0
LINE
8
Layer 1
10
32.376694
20
116.658890
11
32.128316
21
116.056920
0
LINE
8
Layer 1
10
32.128316
20
116.056920
11
32.128316
21
80.756100
0
LINE
8
Layer 1
10
32.128316
20
80.756100
11
32.376694
21
80.154395
0
LINE
8
Layer 1
10
32.376694
20
80.154395
11
32.978396
21
79.906031
0
LINE
8
Layer 1
10
32.978396
20
79.906031
11
32.978396
21
79.906140
0
LINE
8
Layer 1
10
52.178796
20
94.906740
11
53.541017
21
95.181725
0
LINE
8
Layer 1
10
53.541017
20
95.181725
11
54.653476
21
95.931677
0
LINE
8
Layer 1
10
54.653476
20
95.931677
11
55.403606
21
97.044043
0
LINE
8
Layer 1
10
55.403606
20
97.044043
11
55.678836
21
98.406270
0
LINE
8
Layer 1
10
55.678836
20
98.406270
11
55.403756
21
99.768664
0
LINE
8
Layer 1
10
55.403756
20
99.768664
11
54.653660
21
100.881199
0
LINE
8
Layer 1
10
54.653660
20
100.881199
11
53.541143
21
101.631283
0
LINE
8
Layer 1
10
53.541143
20
101.631283
11
52.178796
21
101.906320
0
LINE
8
Layer 1
10
52.178796
20
101.906320
11
50.816446
21
101.631285
0
LINE
8
Layer 1
10
50.816446
20
101.631285
11
49.703925
21
100.881203
0
LINE
8
Layer 1
10
49.703925
20
100.881203
11
48.953827
21
99.768666
0
LINE
8
Layer 1
10
48.953827
20
99.768666
11
48.678746
21
98.406270
0
LINE
8
Layer 1
10
48.678746
20
98.406270
11
48.953977
21
97.044041
0
LINE
8
Layer 1
10
48.953977
20
97.044041
11
49.704109
21
95.931673
0
LINE
8
Layer 1
10
49.704109
20
95.931673
11
50.816572
21
95.181722
0
LINE
8
Layer 1
10
50.816572
20
95.181722
11
52.178796
21
94.906740
0
LINE
8
Layer 1
10
52.178796
20
94.906740
11
52.178796
21
94.906740
0
LINE
8
Layer 1
10
52.178266
20
113.956740
11
53.517767
21
114.223202
0
LINE
8
Layer 1
10
53.517767
20
114.223202
11
54.653314
21
114.982045
0
LINE
8
Layer 1
10
54.653314
20
114.982045
11
55.412001
21
116.117722
0
LINE
8
Layer 1
10
55.412001
20
116.117722
11
55.678306
21
117.457310
0
LINE
8
Layer 1
10
55.678306
20
117.457310
11
55.403220
21
118.819698
0
LINE
8
Layer 1
10
55.403220
20
118.819698
11
54.653123
21
119.932226
0
LINE
8
Layer 1
10
54.653123
20
119.932226
11
53.540608
21
120.682305
0
LINE
8
Layer 1
10
53.540608
20
120.682305
11
52.178266
21
120.957340
0
LINE
8
Layer 1
10
52.178266
20
120.957340
11
50.815921
21
120.682307
0
LINE
8
Layer 1
10
50.815921
20
120.682307
11
49.703402
21
119.932230
0
LINE
8
Layer 1
10
49.703402
20
119.932230
11
48.953303
21
118.819700
0
LINE
8
Layer 1
10
48.953303
20
118.819700
11
48.678216
21
117.457310
0
LINE
8
Layer 1
10
48.678216
20
117.457310
11
48.944522
21
116.117720
0
LINE
8
Layer 1
10
48.944522
20
116.117720
11
49.703211
21
114.982041
0
LINE
8
Layer 1
10
49.703211
20
114.982041
11
50.838762
21
114.223199
0
LINE
8
Layer 1
10
50.838762
20
114.223199
11
52.178266
21
113.956740
0
LINE
8
Layer 1
10
52.178266
20
113.956740
11
52.178266
21
113.956740
0
LINE
8
Layer 1
10
19.682566
20
134.744140
11
19.696006
21
134.744140
0
LINE
8
Layer 1
10
19.696006
20
134.744140
11
20.078808
21
134.820122
0
LINE
8
Layer 1
10
20.078808
20
134.820122
11
20.403375
21
135.036847
0
LINE
8
Layer 1
10
20.403375
20
135.036847
11
20.620273
21
135.361306
0
LINE
8
Layer 1
10
20.620273
20
135.361306
11
20.696466
21
135.744080
0
LINE
8
Layer 1
10
20.696466
20
135.744080
11
20.620419
21
136.127011
0
LINE
8
Layer 1
10
20.620419
20
136.127011
11
20.403555
21
136.451643
0
LINE
8
Layer 1
10
20.403555
20
136.451643
11
20.078925
21
136.668499
0
LINE
8
Layer 1
10
20.078925
20
136.668499
11
19.696006
21
136.744530
0
LINE
8
Layer 1
10
19.696006
20
136.744530
11
19.313247
21
136.668349
0
LINE
8
Layer 1
10
19.313247
20
136.668349
11
18.988794
21
136.451458
0
LINE
8
Layer 1
10
18.988794
20
136.451458
11
18.772065
21
136.126890
0
LINE
8
Layer 1
10
18.772065
20
136.126890
11
18.696068
21
135.744080
0
LINE
8
Layer 1
10
18.696068
20
135.744080
11
18.773294
21
135.358095
0
LINE
8
Layer 1
10
18.773294
20
135.358095
11
18.984208
21
135.041739
0
LINE
8
Layer 1
10
18.984208
20
135.041739
11
19.297679
21
134.826568
0
LINE
8
Layer 1
10
19.297679
20
134.826568
11
19.682571
21
134.744140
0
LINE
8
Layer 1
10
19.682571
20
134.744140
11
19.682566
21
134.744140
0
LINE
8
Layer 1
10
107.742766
20
134.744140
11
107.756166
21
134.744140
0
LINE
8
Layer 1
10
107.756166
20
134.744140
11
108.145368
21
134.822735
0
LINE
8
Layer 1
10
108.145368
20
134.822735
11
108.463199
21
135.037031
0
LINE
8
Layer 1
10
108.463199
20
135.037031
11
108.677498
21
135.354866
0
LINE
8
Layer 1
10
108.677498
20
135.354866
11
108.756106
21
135.744080
0
LINE
8
Layer 1
10
108.756106
20
135.744080
11
108.680109
21
136.126891
0
LINE
8
Layer 1
10
108.680109
20
136.126891
11
108.463379
21
136.451459
0
LINE
8
Layer 1
10
108.463379
20
136.451459
11
108.138926
21
136.668350
0
LINE
8
Layer 1
10
108.138926
20
136.668350
11
107.756166
21
136.744530
0
LINE
8
Layer 1
10
107.756166
20
136.744530
11
107.373409
21
136.668347
0
LINE
8
Layer 1
10
107.373409
20
136.668347
11
107.048959
21
136.451455
0
LINE
8
Layer 1
10
107.048959
20
136.451455
11
106.832232
21
136.126888
0
LINE
8
Layer 1
10
106.832232
20
136.126888
11
106.756236
21
135.744080
0
LINE
8
Layer 1
10
106.756236
20
135.744080
11
106.833462
21
135.358096
0
LINE
8
Layer 1
10
106.833462
20
135.358096
11
107.044375
21
135.041740
0
LINE
8
Layer 1
10
107.044375
20
135.041740
11
107.357845
21
134.826569
0
LINE
8
Layer 1
10
107.357845
20
134.826569
11
107.742736
21
134.744140
0
LINE
8
Layer 1
10
107.742736
20
134.744140
11
107.742766
21
134.744140
0
LINE
8
Layer 1
10
195.801466
20
134.744140
11
195.815366
21
134.744140
0
LINE
8
Layer 1
10
195.815366
20
134.744140
11
196.204568
21
134.822735
0
LINE
8
Layer 1
10
196.204568
20
134.822735
11
196.522399
21
135.037031
0
LINE
8
Layer 1
10
196.522399
20
135.037031
11
196.736698
21
135.354866
0
LINE
8
Layer 1
10
196.736698
20
135.354866
11
196.815306
21
135.744080
0
LINE
8
Layer 1
10
196.815306
20
135.744080
11
196.739309
21
136.126891
0
LINE
8
Layer 1
10
196.739309
20
136.126891
11
196.522579
21
136.451459
0
LINE
8
Layer 1
10
196.522579
20
136.451459
11
196.198126
21
136.668350
0
LINE
8
Layer 1
10
196.198126
20
136.668350
11
195.815366
21
136.744530
0
LINE
8
Layer 1
10
195.815366
20
136.744530
11
195.432447
21
136.668499
0
LINE
8
Layer 1
10
195.432447
20
136.668499
11
195.107817
21
136.451643
0
LINE
8
Layer 1
10
195.107817
20
136.451643
11
194.890953
21
136.127011
0
LINE
8
Layer 1
10
194.890953
20
136.127011
11
194.814906
21
135.744080
0
LINE
8
Layer 1
10
194.814906
20
135.744080
11
194.892133
21
135.358094
0
LINE
8
Layer 1
10
194.892133
20
135.358094
11
195.103049
21
135.041737
0
LINE
8
Layer 1
10
195.103049
20
135.041737
11
195.416521
21
134.826566
0
LINE
8
Layer 1
10
195.416521
20
134.826566
11
195.801416
21
134.744140
0
LINE
8
Layer 1
10
195.801416
20
134.744140
11
195.801466
21
134.744140
 0 
ENDSEC
 0 
EOF