<?xml version="1.0" encoding="UTF-8" standalone="no"?>
<svg
   xmlns:dc="http://purl.org/dc/elements/1.1/"
   xmlns:cc="http://creativecommons.org/ns#"
   xmlns:rdf="http://www.w3.org/1999/02/22-rdf-syntax-ns#"
   xmlns:svg="http://www.w3.org/2000/svg"
   xmlns="http://www.w3.org/2000/svg"
   xmlns:sodipodi="http://sodipodi.sourceforge.net/DTD/sodipodi-0.dtd"
   xmlns:inkscape="http://www.inkscape.org/namespaces/inkscape"
   sodipodi:docname="top layer left rev2.svg"
   inkscape:version="1.0 (4035a4f, 2020-05-01)"
   id="svg2071"
   version="1.1"
   viewBox="0 0 210 297"
   height="297mm"
   width="210mm">
  <defs
     id="defs2065" />
  <sodipodi:namedview
     inkscape:window-maximized="1"
     inkscape:window-y="23"
     inkscape:window-x="0"
     inkscape:window-height="807"
     inkscape:window-width="1600"
     showgrid="false"
     inkscape:document-rotation="0"
     inkscape:current-layer="layer1"
     inkscape:document-units="mm"
     inkscape:cy="564.063"
     inkscape:cx="168.76991"
     inkscape:zoom="0.49497475"
     inkscape:pageshadow="2"
     inkscape:pageopacity="0.0"
     borderopacity="1.0"
     bordercolor="#666666"
     pagecolor="#ffffff"
     id="base" />
  <metadata
     id="metadata2068">
    <rdf:RDF>
      <cc:Work
         rdf:about="">
        <dc:format>image/svg+xml</dc:format>
        <dc:type
           rdf:resource="http://purl.org/dc/dcmitype/StillImage" />
        <dc:title></dc:title>
      </cc:Work>
    </rdf:RDF>
  </metadata>
  <g
     id="layer1"
     inkscape:groupmode="layer"
     inkscape:label="Layer 1">
    <path
       transform="scale(0.26458333)"
       d="M 51.039062,569.03906 50,569.08203 l -1.03125,0.125 -1.019531,0.19922 -0.998047,0.2832 -0.976563,0.35938 -0.939453,0.43555 -0.908203,0.50585 -0.865234,0.57813 -0.816407,0.64258 -0.759765,0.70703 -0.707031,0.75976 -0.642578,0.81641 -0.578126,0.86524 -0.505859,0.90624 -0.435547,0.94141 -0.359375,0.97461 -0.28125,0.99805 -0.199219,1.02148 -0.126953,1.03125 -0.03711,1.03906 v 412.01758 l 0.04102,1.03906 0.125,1.03321 0.199218,1.01562 0.283204,1.00196 0.359374,0.9707 0.435547,0.94529 0.50586,0.9082 0.578125,0.8614 0.642578,0.8164 0.707031,0.7636 0.759766,0.7032 0.816406,0.6464 0.865234,0.5743 0.908203,0.5097 0.939454,0.4336 0.976562,0.3594 0.998047,0.2812 1.019531,0.2032 1.03125,0.1191 1.039063,0.041 H 727.44531 a 6.6141731,6.6141731 0 0 0 6.60352,-6.6152 v -35.01954 a 6.6141731,6.6141731 0 0 0 -6.61524,-6.60352 H 230.04297 V 599.27148 h 497.40234 a 6.6141731,6.6141731 0 0 0 6.60352,-6.61523 v -17.00977 a 6.6141731,6.6141731 0 0 0 -6.61524,-6.60351 z m 2.19336,11.33008 a 3.7795276,3.7795276 0 0 1 0.05078,0 3.7795276,3.7795276 0 0 1 3.78125,3.7793 3.7795276,3.7795276 0 0 1 -3.78125,3.77929 3.7795276,3.7795276 0 0 1 -3.779297,-3.77929 3.7795276,3.7795276 0 0 1 3.728517,-3.7793 z m 271.824218,0 a 3.7795276,3.7795276 0 0 1 0.0508,0 3.7795276,3.7795276 0 0 1 3.7793,3.7793 3.7795276,3.7795276 0 0 1 -3.7793,3.77929 3.7795276,3.7795276 0 0 1 -3.7793,-3.77929 3.7795276,3.7795276 0 0 1 3.72852,-3.7793 z m 303.11719,0 a 3.7795276,3.7795276 0 0 1 0.0527,0 3.7795276,3.7795276 0 0 1 3.7793,3.7793 3.7795276,3.7795276 0 0 1 -3.7793,3.77929 3.7795276,3.7795276 0 0 1 -3.78125,-3.77929 3.7795276,3.7795276 0 0 1 3.72852,-3.7793 z m 90.70508,0 a 3.7795276,3.7795276 0 0 1 0.0527,0 3.7795276,3.7795276 0 0 1 3.7793,3.7793 3.7795276,3.7795276 0 0 1 -3.7793,3.77929 3.7795276,3.7795276 0 0 1 -3.78125,-3.77929 3.7795276,3.7795276 0 0 1 3.72852,-3.7793 z m -477.03711,0.002 a 3.7795276,3.7795276 0 0 1 0.0508,0 3.7795276,3.7795276 0 0 1 3.78125,3.7793 3.7795276,3.7795276 0 0 1 -3.78125,3.7793 3.7795276,3.7795276 0 0 1 -3.7793,-3.7793 3.7795276,3.7795276 0 0 1 3.72852,-3.7793 z M 91.857422,599.26953 h 96.376958 v 98.26563 37.79687 3.77735 h -45.35352 v -41.57227 h -5.66992 v 41.57227 H 91.857422 v -3.77735 -37.79492 -0.002 z M 149.5957,752.82031 h 52.91407 v 3.7793 h 3.02343 v 11.7168 h -3.02343 v 21.91992 h 3.02343 v 11.71679 h -3.02343 v 3.7793 H 149.5957 v -3.7793 h -3.02148 v -11.71679 h 3.02148 v -21.91992 h -3.02148 v -11.7168 h 3.02148 z M 85.154297,764.34766 H 122.94922 V 938.20703 H 85.154297 Z m 64.441403,60.47265 h 52.91407 v 3.7793 h 3.02343 v 11.71289 h -3.02343 v 21.92383 h 3.02343 v 11.71679 h -3.02343 v 3.7793 H 149.5957 v -3.7793 h -3.02148 v -11.71679 h 3.02148 V 840.3125 h -3.02148 v -11.71289 h 3.02148 z m -0.002,72 h 52.91406 v 3.7793 h 3.02344 v 11.7168 h -3.02344 v 21.91992 h 3.02344 v 11.71679 h -3.02344 v 3.7793 H 149.5937 v -3.7793 h -3.01953 v -11.71679 h 3.01953 v -21.91992 h -3.01953 v -11.7168 h 3.01953 z m -96.361328,91.79297 h 0.002 a 3.7795276,3.7795276 0 0 1 0.04883,0 3.7795276,3.7795276 0 0 1 3.78125,3.7793 3.7795276,3.7795276 0 0 1 -3.78125,3.7793 3.7795276,3.7795276 0 0 1 -3.779297,-3.7793 3.7795276,3.7795276 0 0 1 3.728516,-3.7793 z m 332.826168,0 h 0.002 a 3.7795276,3.7795276 0 0 1 0.0488,0 3.7795276,3.7795276 0 0 1 3.77929,3.7793 3.7795276,3.7795276 0 0 1 -3.77929,3.7793 3.7795276,3.7795276 0 0 1 -3.7793,-3.7793 3.7795276,3.7795276 0 0 1 3.72851,-3.7793 z m 332.82032,0 h 0.002 a 3.7795276,3.7795276 0 0 1 0.0508,0 3.7795276,3.7795276 0 0 1 3.7793,3.7793 3.7795276,3.7795276 0 0 1 -3.7793,3.7793 3.7795276,3.7795276 0 0 1 -3.78125,-3.7793 3.7795276,3.7795276 0 0 1 3.72852,-3.7793 z"
       style="fill:#ff8080;fill-opacity:0.342105;stroke:#000000;stroke-width:0.188976mm"
       id="path9467" />
    <path
       d="m 12.719629,29.787886 -0.274919,0.0114 -0.272852,0.0336 -0.26975,0.0522 -0.264067,0.0749 -0.258382,0.0951 -0.248564,0.11524 -0.240295,0.13384 -0.228927,0.15296 -0.216007,0.17001 -0.201022,0.18707 -0.187068,0.20102 -0.1700157,0.21601 -0.152962,0.22893 -0.133842,0.23978 -0.115238,0.24908 -0.09509,0.25786 -0.07493,0.26407 -0.05271,0.27027 -0.03307,0.27285 -0.0098,0.27492 V 142.30659 l 0.01085,0.27492 0.03307,0.27337 0.05271,0.26872 0.07493,0.2651 0.09508,0.25683 0.115239,0.25011 0.133842,0.2403 0.152962,0.22789 0.1700147,0.21601 0.187069,0.20206 0.201021,0.18603 0.216008,0.17157 0.228926,0.15192 0.240296,0.13488 0.248563,0.11472 0.258382,0.0951 0.264067,0.0744 0.269751,0.0532 0.272852,0.032 0.274918,0.0108 H 191.68544 a 1.7499997,1.7500738 0 0 0 1.74718,-1.75028 v -9.2661 a 1.7499997,1.7500738 0 0 0 -1.75028,-1.74718 H 60.081078 V 37.787396 H 191.68544 a 1.7499997,1.7500738 0 0 0 1.74718,-1.75028 v -4.50102 a 1.7499997,1.7500738 0 0 0 -1.75028,-1.74718 z m 0.580326,2.99775 a 0.99999992,1.0000423 0 0 1 0.01344,0 0.99999992,1.0000423 0 0 1 1.000456,0.99994 0.99999992,1.0000423 0 0 1 -1.000456,1.00045 0.99999992,1.0000423 0 0 1 -0.999938,-1.00045 0.99999992,1.0000423 0 0 1 0.986503,-0.99994 z m 71.920156,0 a 0.99999992,1.0000423 0 0 1 0.01344,0 0.99999992,1.0000423 0 0 1 0.99994,0.99994 0.99999992,1.0000423 0 0 1 -0.99994,1.00045 0.99999992,1.0000423 0 0 1 -0.999937,-1.00045 0.99999992,1.0000423 0 0 1 0.986502,-0.99994 z m 80.199749,0 a 0.99999992,1.0000423 0 0 1 0.0139,0 0.99999992,1.0000423 0 0 1 0.99994,0.99994 0.99999992,1.0000423 0 0 1 -0.99994,1.00045 0.99999992,1.0000423 0 0 1 -1.00046,-1.00045 0.99999992,1.0000423 0 0 1 0.98651,-0.99994 z m 23.99906,0 a 0.99999992,1.0000423 0 0 1 0.0139,0 0.99999992,1.0000423 0 0 1 0.99994,0.99994 0.99999992,1.0000423 0 0 1 -0.99994,1.00045 0.99999992,1.0000423 0 0 1 -1.00046,-1.00045 0.99999992,1.0000423 0 0 1 0.98651,-0.99994 z m -126.216068,0.001 a 0.99999992,1.0000423 0 0 1 0.01344,0 0.99999992,1.0000423 0 0 1 1.000456,0.99994 0.99999992,1.0000423 0 0 1 -1.000456,0.99993 0.99999992,1.0000423 0 0 1 -0.99994,-0.99993 0.99999992,1.0000423 0 0 1 0.986504,-0.99994 z m -37.34139,10.03918 h 20.758423 c 1.0364,0 1.870689,0.83424 1.870687,1.87069 v 10.25932 c 0,1.03644 -0.834287,1.87068 -1.870687,1.87068 H 25.861462 c -1.036399,0 -1.870687,-0.83424 -1.870687,-1.87068 v -10.25929 c 0,-1.03645 0.834288,-1.87069 1.870687,-1.87069 z m -2.541964,20.96306 h 11.999785 v 10.39988 0.59996 H 23.319498 v -0.59996 z m 13.899927,0 h 5.29e-4 0.199472 11.800313 v 10.39988 0.59996 H 37.219954 v -0.59996 h -5.29e-4 z m 8.576738,18.12758 a 3.4999996,3.5001477 0 0 1 3.500044,3.50004 3.4999996,3.5001477 0 0 1 -3.500044,3.50005 3.4999996,3.5001477 0 0 1 -3.500045,-3.50005 3.4999996,3.5001477 0 0 1 3.500045,-3.50004 z m -19.200378,4.05039 h 0.299207 c 0.471199,0 0.850593,0.37896 0.850593,0.85008 v 35.300664 c 0,0.47111 -0.379394,0.85059 -0.850593,0.85059 h -0.299207 c -0.471103,0 -0.850078,-0.37948 -0.850078,-0.85059 V 86.816956 c 0,-0.47112 0.378975,-0.85007 0.850078,-0.85007 z m 19.200378,15.000614 a 3.4999996,3.5001477 0 0 1 3.500044,3.49953 3.4999996,3.5001477 0 0 1 -3.500044,3.50004 3.4999996,3.5001477 0 0 1 -3.500045,-3.50004 3.4999996,3.5001477 0 0 1 3.500045,-3.49953 z m -5.29e-4,19.04999 a 3.4999996,3.5001477 0 0 1 3.500046,3.50057 3.4999996,3.5001477 0 0 1 -3.500046,3.50004 3.4999996,3.5001477 0 0 1 -3.500043,-3.50004 3.4999996,3.5001477 0 0 1 3.500043,-3.50057 z m -32.495679,20.78737 a 0.99999992,1.0000423 0 0 1 0.01344,0 0.99999992,1.0000423 0 0 1 1.000456,0.99994 0.99999992,1.0000423 0 0 1 -1.000456,1.00045 0.99999992,1.0000423 0 0 1 -0.999938,-1.00045 0.99999992,1.0000423 0 0 1 0.986503,-0.99994 z m 88.060255,0 a 0.99999992,1.0000423 0 0 1 0.0134,0 0.99999992,1.0000423 0 0 1 0.99994,0.99994 0.99999992,1.0000423 0 0 1 -0.99994,1.00045 0.99999992,1.0000423 0 0 1 -0.99994,-1.00045 0.99999992,1.0000423 0 0 1 0.9865,-0.99994 z m 88.05871,0 a 0.99999992,1.0000423 0 0 1 0.0139,0 0.99999992,1.0000423 0 0 1 0.99994,0.99994 0.99999992,1.0000423 0 0 1 -0.99994,1.00045 0.99999992,1.0000423 0 0 1 -1.00046,-1.00045 0.99999992,1.0000423 0 0 1 0.98651,-0.99994 z"
       style="fill:#ff8080;fill-opacity:0.342105;stroke:#000000;stroke-width:0.050001mm"
       id="path9405" />
  </g>
</svg>
