999
"DXF R12 Output" (www.mydxf.blogspot.com)
 0 
SECTION
 2 
HEADER
 9 
$ACADVER
 1 
AC1009
 9 
$EXTMIN
 10 
 0 
 20 
 0 
 9 
$EXTMAX
 10 
 8.5 
 20 
 11 
 0 
ENDSEC
 0 
SECTION
 2 
ENTITIES
0
LINE
8
Layer 1
10
8.184190
20
158.598000
11
7.503974
21
158.736310
0
LINE
8
Layer 1
10
7.503974
20
158.736310
11
6.948660
21
159.111474
0
LINE
8
Layer 1
10
6.948660
20
159.111474
11
6.574316
21
159.667341
0
LINE
8
Layer 1
10
6.574316
20
159.667341
11
6.437010
21
160.347760
0
LINE
8
Layer 1
10
6.437010
20
160.347760
11
6.437010
21
164.849300
0
LINE
8
Layer 1
10
6.437010
20
164.849300
11
6.575175
21
165.529682
0
LINE
8
Layer 1
10
6.575175
20
165.529682
11
6.950308
21
166.085163
0
LINE
8
Layer 1
10
6.950308
20
166.085163
11
7.506234
21
166.459635
0
LINE
8
Layer 1
10
7.506234
20
166.459635
11
8.186780
21
166.596990
0
LINE
8
Layer 1
10
8.186780
20
166.596990
11
158.840000
21
166.596990
0
LINE
8
Layer 1
10
158.840000
20
166.596990
11
158.840000
21
223.750090
0
LINE
8
Layer 1
10
158.840000
20
223.750090
11
141.536700
21
223.750090
0
LINE
8
Layer 1
10
141.536700
20
223.750090
11
140.856315
21
223.888252
0
LINE
8
Layer 1
10
140.856315
20
223.888252
11
140.300831
21
224.263384
0
LINE
8
Layer 1
10
140.300831
20
224.263384
11
139.926356
21
224.819312
0
LINE
8
Layer 1
10
139.926356
20
224.819312
11
139.789000
21
225.499860
0
LINE
8
Layer 1
10
139.789000
20
225.499860
11
139.789000
21
242.800060
0
LINE
8
Layer 1
10
139.789000
20
242.800060
11
122.487700
21
242.800060
0
LINE
8
Layer 1
10
122.487700
20
242.800060
11
121.807315
21
242.938222
0
LINE
8
Layer 1
10
121.807315
20
242.938222
11
121.251831
21
243.313354
0
LINE
8
Layer 1
10
121.251831
20
243.313354
11
120.877356
21
243.869282
0
LINE
8
Layer 1
10
120.877356
20
243.869282
11
120.740000
21
244.549830
0
LINE
8
Layer 1
10
120.740000
20
244.549830
11
120.740000
21
261.849030
0
LINE
8
Layer 1
10
120.740000
20
261.849030
11
8.184710
21
261.849030
0
LINE
8
Layer 1
10
8.184710
20
261.849030
11
7.504327
21
261.987191
0
LINE
8
Layer 1
10
7.504327
20
261.987191
11
6.948844
21
262.362321
0
LINE
8
Layer 1
10
6.948844
20
262.362321
11
6.574369
21
262.918245
0
LINE
8
Layer 1
10
6.574369
20
262.918245
11
6.437010
21
263.598790
0
LINE
8
Layer 1
10
6.437010
20
263.598790
11
6.437010
21
272.864380
0
LINE
8
Layer 1
10
6.437010
20
272.864380
11
6.575175
21
273.544762
0
LINE
8
Layer 1
10
6.575175
20
273.544762
11
6.950308
21
274.100243
0
LINE
8
Layer 1
10
6.950308
20
274.100243
11
7.506234
21
274.474715
0
LINE
8
Layer 1
10
7.506234
20
274.474715
11
8.186780
21
274.612070
0
LINE
8
Layer 1
10
8.186780
20
274.612070
11
187.152000
21
274.612070
0
LINE
8
Layer 1
10
187.152000
20
274.612070
11
187.426900
21
274.601270
0
LINE
8
Layer 1
10
187.426900
20
274.601270
11
187.699760
21
274.569270
0
LINE
8
Layer 1
10
187.699760
20
274.569270
11
187.969000
21
274.514970
0
LINE
8
Layer 1
10
187.969000
20
274.514970
11
188.234090
21
274.441070
0
LINE
8
Layer 1
10
188.234090
20
274.441070
11
188.490920
21
274.345970
0
LINE
8
Layer 1
10
188.490920
20
274.345970
11
188.741030
21
274.231240
0
LINE
8
Layer 1
10
188.741030
20
274.231240
11
188.980820
21
274.096370
0
LINE
8
Layer 1
10
188.980820
20
274.096370
11
189.208710
21
273.943920
0
LINE
8
Layer 1
10
189.208710
20
273.943920
11
189.424710
21
273.773390
0
LINE
8
Layer 1
10
189.424710
20
273.773390
11
189.626780
21
273.587350
0
LINE
8
Layer 1
10
189.626780
20
273.587350
11
189.812810
21
273.385300
0
LINE
8
Layer 1
10
189.812810
20
273.385300
11
189.983860
21
273.169290
0
LINE
8
Layer 1
10
189.983860
20
273.169290
11
190.135780
21
272.940880
0
LINE
8
Layer 1
10
190.135780
20
272.940880
11
190.270670
21
272.701100
0
LINE
8
Layer 1
10
190.270670
20
272.701100
11
190.385890
21
272.450990
0
LINE
8
Layer 1
10
190.385890
20
272.450990
11
190.480990
21
272.194160
0
LINE
8
Layer 1
10
190.480990
20
272.194160
11
190.554890
21
271.929060
0
LINE
8
Layer 1
10
190.554890
20
271.929060
11
190.609690
21
271.660340
0
LINE
8
Layer 1
10
190.609690
20
271.660340
11
190.640690
21
271.386970
0
LINE
8
Layer 1
10
190.640690
20
271.386970
11
190.652590
21
271.112050
0
LINE
8
Layer 1
10
190.652590
20
271.112050
11
190.652590
21
162.099050
0
LINE
8
Layer 1
10
190.652590
20
162.099050
11
190.640690
21
161.824130
0
LINE
8
Layer 1
10
190.640690
20
161.824130
11
190.609690
21
161.551270
0
LINE
8
Layer 1
10
190.609690
20
161.551270
11
190.554890
21
161.281010
0
LINE
8
Layer 1
10
190.554890
20
161.281010
11
190.480990
21
161.016940
0
LINE
8
Layer 1
10
190.480990
20
161.016940
11
190.385890
21
160.759070
0
LINE
8
Layer 1
10
190.385890
20
160.759070
11
190.270670
21
160.510000
0
LINE
8
Layer 1
10
190.270670
20
160.510000
11
190.135780
21
160.270220
0
LINE
8
Layer 1
10
190.135780
20
160.270220
11
189.983860
21
160.041290
0
LINE
8
Layer 1
10
189.983860
20
160.041290
11
189.812810
21
159.825280
0
LINE
8
Layer 1
10
189.812810
20
159.825280
11
189.626780
21
159.624260
0
LINE
8
Layer 1
10
189.626780
20
159.624260
11
189.424710
21
159.437190
0
LINE
8
Layer 1
10
189.424710
20
159.437190
11
189.208710
21
159.267180
0
LINE
8
Layer 1
10
189.208710
20
159.267180
11
188.980820
21
159.114220
0
LINE
8
Layer 1
10
188.980820
20
159.114220
11
188.741030
21
158.980370
0
LINE
8
Layer 1
10
188.741030
20
158.980370
11
188.490920
21
158.865130
0
LINE
8
Layer 1
10
188.490920
20
158.865130
11
188.234090
21
158.770030
0
LINE
8
Layer 1
10
188.234090
20
158.770030
11
187.969000
21
158.695130
0
LINE
8
Layer 1
10
187.969000
20
158.695130
11
187.699760
21
158.641930
0
LINE
8
Layer 1
10
187.699760
20
158.641930
11
187.426900
21
158.609330
0
LINE
8
Layer 1
10
187.426900
20
158.609330
11
187.152000
21
158.599030
0
LINE
8
Layer 1
10
187.152000
20
158.599030
11
8.185000
21
158.598030
0
LINE
8
Layer 1
10
8.185000
20
158.598030
11
8.184190
21
158.598000
0
LINE
8
Layer 1
10
10.422290
20
161.597820
11
10.435730
21
161.597820
0
LINE
8
Layer 1
10
10.435730
20
161.597820
11
10.824938
21
161.676416
0
LINE
8
Layer 1
10
10.824938
20
161.676416
11
11.142771
21
161.890711
0
LINE
8
Layer 1
10
11.142771
20
161.890711
11
11.357068
21
162.208543
0
LINE
8
Layer 1
10
11.357068
20
162.208543
11
11.435667
21
162.597750
0
LINE
8
Layer 1
10
11.435667
20
162.597750
11
11.357071
21
162.986961
0
LINE
8
Layer 1
10
11.357071
20
162.986961
11
11.142775
21
163.304796
0
LINE
8
Layer 1
10
11.142775
20
163.304796
11
10.824940
21
163.519093
0
LINE
8
Layer 1
10
10.824940
20
163.519093
11
10.435730
21
163.597690
0
LINE
8
Layer 1
10
10.435730
20
163.597690
11
10.046519
21
163.519094
0
LINE
8
Layer 1
10
10.046519
20
163.519094
11
9.728683
21
163.304797
0
LINE
8
Layer 1
10
9.728683
20
163.304797
11
9.514386
21
162.986961
0
LINE
8
Layer 1
10
9.514386
20
162.986961
11
9.435790
21
162.597750
0
LINE
8
Layer 1
10
9.435790
20
162.597750
11
9.513007
21
162.211771
0
LINE
8
Layer 1
10
9.513007
20
162.211771
11
9.723920
21
161.895418
0
LINE
8
Layer 1
10
9.723920
20
161.895418
11
10.037393
21
161.680248
0
LINE
8
Layer 1
10
10.037393
20
161.680248
11
10.422292
21
161.597820
0
LINE
8
Layer 1
10
10.422292
20
161.597820
11
10.422290
21
161.597820
0
LINE
8
Layer 1
10
34.421390
20
161.597820
11
34.434830
21
161.597820
0
LINE
8
Layer 1
10
34.434830
20
161.597820
11
34.824039
21
161.676415
0
LINE
8
Layer 1
10
34.824039
20
161.676415
11
35.141873
21
161.890710
0
LINE
8
Layer 1
10
35.141873
20
161.890710
11
35.356171
21
162.208542
0
LINE
8
Layer 1
10
35.356171
20
162.208542
11
35.434770
21
162.597750
0
LINE
8
Layer 1
10
35.434770
20
162.597750
11
35.356174
21
162.986961
0
LINE
8
Layer 1
10
35.356174
20
162.986961
11
35.141877
21
163.304797
0
LINE
8
Layer 1
10
35.141877
20
163.304797
11
34.824041
21
163.519094
0
LINE
8
Layer 1
10
34.824041
20
163.519094
11
34.434830
21
163.597690
0
LINE
8
Layer 1
10
34.434830
20
163.597690
11
34.045620
21
163.519093
0
LINE
8
Layer 1
10
34.045620
20
163.519093
11
33.727785
21
163.304796
0
LINE
8
Layer 1
10
33.727785
20
163.304796
11
33.513489
21
162.986961
0
LINE
8
Layer 1
10
33.513489
20
162.986961
11
33.434893
21
162.597750
0
LINE
8
Layer 1
10
33.434893
20
162.597750
11
33.512110
21
162.211772
0
LINE
8
Layer 1
10
33.512110
20
162.211772
11
33.723022
21
161.895418
0
LINE
8
Layer 1
10
33.723022
20
161.895418
11
34.036495
21
161.680248
0
LINE
8
Layer 1
10
34.036495
20
161.680248
11
34.421394
21
161.597820
0
LINE
8
Layer 1
10
34.421394
20
161.597820
11
34.421390
21
161.597820
0
LINE
8
Layer 1
10
114.621190
20
161.597820
11
114.635190
21
161.597820
0
LINE
8
Layer 1
10
114.635190
20
161.597820
11
115.024399
21
161.676415
0
LINE
8
Layer 1
10
115.024399
20
161.676415
11
115.342233
21
161.890710
0
LINE
8
Layer 1
10
115.342233
20
161.890710
11
115.556531
21
162.208542
0
LINE
8
Layer 1
10
115.556531
20
162.208542
11
115.635130
21
162.597750
0
LINE
8
Layer 1
10
115.635130
20
162.597750
11
115.556534
21
162.986961
0
LINE
8
Layer 1
10
115.556534
20
162.986961
11
115.342237
21
163.304797
0
LINE
8
Layer 1
10
115.342237
20
163.304797
11
115.024401
21
163.519094
0
LINE
8
Layer 1
10
115.024401
20
163.519094
11
114.635190
21
163.597690
0
LINE
8
Layer 1
10
114.635190
20
163.597690
11
114.245979
21
163.519094
0
LINE
8
Layer 1
10
114.245979
20
163.519094
11
113.928143
21
163.304797
0
LINE
8
Layer 1
10
113.928143
20
163.304797
11
113.713846
21
162.986961
0
LINE
8
Layer 1
10
113.713846
20
162.986961
11
113.635250
21
162.597750
0
LINE
8
Layer 1
10
113.635250
20
162.597750
11
113.712415
21
162.211891
0
LINE
8
Layer 1
10
113.712415
20
162.211891
11
113.923201
21
161.895592
0
LINE
8
Layer 1
10
113.923201
20
161.895592
11
114.236512
21
161.680390
0
LINE
8
Layer 1
10
114.236512
20
161.680390
11
114.621250
21
161.597820
0
LINE
8
Layer 1
10
114.621250
20
161.597820
11
114.621190
21
161.597820
0
LINE
8
Layer 1
10
186.541390
20
161.597820
11
186.554890
21
161.597820
0
LINE
8
Layer 1
10
186.554890
20
161.597820
11
186.944099
21
161.676415
0
LINE
8
Layer 1
10
186.944099
20
161.676415
11
187.261933
21
161.890710
0
LINE
8
Layer 1
10
187.261933
20
161.890710
11
187.476231
21
162.208542
0
LINE
8
Layer 1
10
187.476231
20
162.208542
11
187.554830
21
162.597750
0
LINE
8
Layer 1
10
187.554830
20
162.597750
11
187.476234
21
162.986961
0
LINE
8
Layer 1
10
187.476234
20
162.986961
11
187.261937
21
163.304797
0
LINE
8
Layer 1
10
187.261937
20
163.304797
11
186.944101
21
163.519094
0
LINE
8
Layer 1
10
186.944101
20
163.519094
11
186.554890
21
163.597690
0
LINE
8
Layer 1
10
186.554890
20
163.597690
11
186.165679
21
163.519094
0
LINE
8
Layer 1
10
186.165679
20
163.519094
11
185.847843
21
163.304797
0
LINE
8
Layer 1
10
185.847843
20
163.304797
11
185.633546
21
162.986961
0
LINE
8
Layer 1
10
185.633546
20
162.986961
11
185.554950
21
162.597750
0
LINE
8
Layer 1
10
185.554950
20
162.597750
11
185.632167
21
162.211772
0
LINE
8
Layer 1
10
185.632167
20
162.211772
11
185.843079
21
161.895419
0
LINE
8
Layer 1
10
185.843079
20
161.895419
11
186.156551
21
161.680249
0
LINE
8
Layer 1
10
186.156551
20
161.680249
11
186.541450
21
161.597820
0
LINE
8
Layer 1
10
186.541450
20
161.597820
11
186.541390
21
161.597820
0
LINE
8
Layer 1
10
136.638490
20
161.598820
11
136.651990
21
161.598820
0
LINE
8
Layer 1
10
136.651990
20
161.598820
11
137.041201
21
161.677416
0
LINE
8
Layer 1
10
137.041201
20
161.677416
11
137.359037
21
161.891713
0
LINE
8
Layer 1
10
137.359037
20
161.891713
11
137.573334
21
162.209549
0
LINE
8
Layer 1
10
137.573334
20
162.209549
11
137.651930
21
162.598760
0
LINE
8
Layer 1
10
137.651930
20
162.598760
11
137.573334
21
162.987971
0
LINE
8
Layer 1
10
137.573334
20
162.987971
11
137.359037
21
163.305807
0
LINE
8
Layer 1
10
137.359037
20
163.305807
11
137.041201
21
163.520104
0
LINE
8
Layer 1
10
137.041201
20
163.520104
11
136.651990
21
163.598700
0
LINE
8
Layer 1
10
136.651990
20
163.598700
11
136.262779
21
163.520104
0
LINE
8
Layer 1
10
136.262779
20
163.520104
11
135.944943
21
163.305807
0
LINE
8
Layer 1
10
135.944943
20
163.305807
11
135.730646
21
162.987971
0
LINE
8
Layer 1
10
135.730646
20
162.987971
11
135.652050
21
162.598760
0
LINE
8
Layer 1
10
135.652050
20
162.598760
11
135.729264
21
162.212779
0
LINE
8
Layer 1
10
135.729264
20
162.212779
11
135.940175
21
161.896422
0
LINE
8
Layer 1
10
135.940175
20
161.896422
11
136.253649
21
161.681250
0
LINE
8
Layer 1
10
136.253649
20
161.681250
11
136.638550
21
161.598820
0
LINE
8
Layer 1
10
136.638550
20
161.598820
11
136.638490
21
161.598820
0
LINE
8
Layer 1
10
163.600090
20
166.596970
11
182.652190
21
166.596970
0
LINE
8
Layer 1
10
182.652190
20
166.596970
11
182.652190
21
223.750070
0
LINE
8
Layer 1
10
182.652190
20
223.750070
11
163.600090
21
223.750070
0
LINE
8
Layer 1
10
163.600090
20
223.750070
11
163.600090
21
166.596970
0
LINE
8
Layer 1
10
144.550090
20
228.509970
11
163.602190
21
228.509970
0
LINE
8
Layer 1
10
163.602190
20
228.509970
11
163.602190
21
245.812270
0
LINE
8
Layer 1
10
163.602190
20
245.812270
11
163.740349
21
246.492648
0
LINE
8
Layer 1
10
163.740349
20
246.492648
11
164.115474
21
247.048128
0
LINE
8
Layer 1
10
164.115474
20
247.048128
11
164.671392
21
247.422605
0
LINE
8
Layer 1
10
164.671392
20
247.422605
11
165.351930
21
247.559970
0
LINE
8
Layer 1
10
165.351930
20
247.559970
11
182.652230
21
247.559970
0
LINE
8
Layer 1
10
182.652230
20
247.559970
11
182.652230
21
266.612070
0
LINE
8
Layer 1
10
182.652230
20
266.612070
11
125.500130
21
266.612070
0
LINE
8
Layer 1
10
125.500130
20
266.612070
11
125.500130
21
247.559970
0
LINE
8
Layer 1
10
125.500130
20
247.559970
11
142.802930
21
247.559970
0
LINE
8
Layer 1
10
142.802930
20
247.559970
11
143.483272
21
247.421607
0
LINE
8
Layer 1
10
143.483272
20
247.421607
11
144.038643
21
247.046312
0
LINE
8
Layer 1
10
144.038643
20
247.046312
11
144.412953
21
246.490276
0
LINE
8
Layer 1
10
144.412953
20
246.490276
11
144.550110
21
245.809690
0
LINE
8
Layer 1
10
144.550110
20
245.809690
11
144.550090
21
228.509970
0
LINE
8
Layer 1
10
10.422300
20
269.613000
11
10.435740
21
269.613000
0
LINE
8
Layer 1
10
10.435740
20
269.613000
11
10.824950
21
269.691597
0
LINE
8
Layer 1
10
10.824950
20
269.691597
11
11.142785
21
269.905894
0
LINE
8
Layer 1
10
11.142785
20
269.905894
11
11.357081
21
270.223729
0
LINE
8
Layer 1
10
11.357081
20
270.223729
11
11.435677
21
270.612940
0
LINE
8
Layer 1
10
11.435677
20
270.612940
11
11.357081
21
271.002151
0
LINE
8
Layer 1
10
11.357081
20
271.002151
11
11.142785
21
271.319986
0
LINE
8
Layer 1
10
11.142785
20
271.319986
11
10.824950
21
271.534283
0
LINE
8
Layer 1
10
10.824950
20
271.534283
11
10.435740
21
271.612880
0
LINE
8
Layer 1
10
10.435740
20
271.612880
11
10.046529
21
271.534284
0
LINE
8
Layer 1
10
10.046529
20
271.534284
11
9.728693
21
271.319987
0
LINE
8
Layer 1
10
9.728693
20
271.319987
11
9.514396
21
271.002151
0
LINE
8
Layer 1
10
9.514396
20
271.002151
11
9.435800
21
270.612940
0
LINE
8
Layer 1
10
9.435800
20
270.612940
11
9.513014
21
270.226958
0
LINE
8
Layer 1
10
9.513014
20
270.226958
11
9.723926
21
269.910602
0
LINE
8
Layer 1
10
9.723926
20
269.910602
11
10.037400
21
269.695429
0
LINE
8
Layer 1
10
10.037400
20
269.695429
11
10.422302
21
269.613000
0
LINE
8
Layer 1
10
10.422302
20
269.613000
11
10.422300
21
269.613000
0
LINE
8
Layer 1
10
98.481000
20
269.613000
11
98.495020
21
269.613000
0
LINE
8
Layer 1
10
98.495020
20
269.613000
11
98.884231
21
269.691596
0
LINE
8
Layer 1
10
98.884231
20
269.691596
11
99.202067
21
269.905893
0
LINE
8
Layer 1
10
99.202067
20
269.905893
11
99.416364
21
270.223729
0
LINE
8
Layer 1
10
99.416364
20
270.223729
11
99.494960
21
270.612940
0
LINE
8
Layer 1
10
99.494960
20
270.612940
11
99.416364
21
271.002151
0
LINE
8
Layer 1
10
99.416364
20
271.002151
11
99.202067
21
271.319987
0
LINE
8
Layer 1
10
99.202067
20
271.319987
11
98.884231
21
271.534284
0
LINE
8
Layer 1
10
98.884231
20
271.534284
11
98.495020
21
271.612880
0
LINE
8
Layer 1
10
98.495020
20
271.612880
11
98.105809
21
271.534284
0
LINE
8
Layer 1
10
98.105809
20
271.534284
11
97.787974
21
271.319986
0
LINE
8
Layer 1
10
97.787974
20
271.319986
11
97.573677
21
271.002151
0
LINE
8
Layer 1
10
97.573677
20
271.002151
11
97.495081
21
270.612940
0
LINE
8
Layer 1
10
97.495081
20
270.612940
11
97.572242
21
270.227079
0
LINE
8
Layer 1
10
97.572242
20
270.227079
11
97.783027
21
269.910777
0
LINE
8
Layer 1
10
97.783027
20
269.910777
11
98.096337
21
269.695572
0
LINE
8
Layer 1
10
98.096337
20
269.695572
11
98.481077
21
269.613000
0
LINE
8
Layer 1
10
98.481077
20
269.613000
11
98.481000
21
269.613000
0
LINE
8
Layer 1
10
186.541300
20
269.613000
11
186.554800
21
269.613000
0
LINE
8
Layer 1
10
186.554800
20
269.613000
11
186.944011
21
269.691596
0
LINE
8
Layer 1
10
186.944011
20
269.691596
11
187.261847
21
269.905893
0
LINE
8
Layer 1
10
187.261847
20
269.905893
11
187.476144
21
270.223729
0
LINE
8
Layer 1
10
187.476144
20
270.223729
11
187.554740
21
270.612940
0
LINE
8
Layer 1
10
187.554740
20
270.612940
11
187.476144
21
271.002151
0
LINE
8
Layer 1
10
187.476144
20
271.002151
11
187.261847
21
271.319987
0
LINE
8
Layer 1
10
187.261847
20
271.319987
11
186.944011
21
271.534284
0
LINE
8
Layer 1
10
186.944011
20
271.534284
11
186.554800
21
271.612880
0
LINE
8
Layer 1
10
186.554800
20
271.612880
11
186.165589
21
271.534284
0
LINE
8
Layer 1
10
186.165589
20
271.534284
11
185.847753
21
271.319987
0
LINE
8
Layer 1
10
185.847753
20
271.319987
11
185.633456
21
271.002151
0
LINE
8
Layer 1
10
185.633456
20
271.002151
11
185.554860
21
270.612940
0
LINE
8
Layer 1
10
185.554860
20
270.612940
11
185.632074
21
270.226959
0
LINE
8
Layer 1
10
185.632074
20
270.226959
11
185.842985
21
269.910602
0
LINE
8
Layer 1
10
185.842985
20
269.910602
11
186.156459
21
269.695430
0
LINE
8
Layer 1
10
186.156459
20
269.695430
11
186.541360
21
269.613000
0
LINE
8
Layer 1
10
186.541360
20
269.613000
11
186.541300
21
269.613000
0
LINE
8
Layer 1
10
7.642120
20
32.304400
11
6.961902
21
32.442717
0
LINE
8
Layer 1
10
6.961902
20
32.442717
11
6.406587
21
32.817898
0
LINE
8
Layer 1
10
6.406587
20
32.817898
11
6.032244
21
33.373791
0
LINE
8
Layer 1
10
6.032244
20
33.373791
11
5.894940
21
34.054240
0
LINE
8
Layer 1
10
5.894940
20
34.054240
11
5.894940
21
38.555970
0
LINE
8
Layer 1
10
5.894940
20
38.555970
11
6.033102
21
39.236382
0
LINE
8
Layer 1
10
6.033102
20
39.236382
11
6.408234
21
39.791889
0
LINE
8
Layer 1
10
6.408234
20
39.791889
11
6.964162
21
40.166378
0
LINE
8
Layer 1
10
6.964162
20
40.166378
11
7.644710
21
40.303740
0
LINE
8
Layer 1
10
7.644710
20
40.303740
11
158.298000
21
40.303740
0
LINE
8
Layer 1
10
158.298000
20
40.303740
11
158.298000
21
97.459240
0
LINE
8
Layer 1
10
158.298000
20
97.459240
11
140.994700
21
97.459240
0
LINE
8
Layer 1
10
140.994700
20
97.459240
11
140.314321
21
97.597413
0
LINE
8
Layer 1
10
140.314321
20
97.597413
11
139.758844
21
97.972562
0
LINE
8
Layer 1
10
139.758844
20
97.972562
11
139.384374
21
98.528510
0
LINE
8
Layer 1
10
139.384374
20
98.528510
11
139.247020
21
99.209080
0
LINE
8
Layer 1
10
139.247020
20
99.209080
11
139.247020
21
116.510080
0
LINE
8
Layer 1
10
139.247020
20
116.510080
11
121.945720
21
116.510080
0
LINE
8
Layer 1
10
121.945720
20
116.510080
11
121.265332
21
116.648245
0
LINE
8
Layer 1
10
121.265332
20
116.648245
11
120.709844
21
117.023391
0
LINE
8
Layer 1
10
120.709844
20
117.023391
11
120.335367
21
117.579342
0
LINE
8
Layer 1
10
120.335367
20
117.579342
11
120.198010
21
118.259920
0
LINE
8
Layer 1
10
120.198010
20
118.259920
11
120.198010
21
135.559820
0
LINE
8
Layer 1
10
120.198010
20
135.559820
11
7.642640
21
135.559820
0
LINE
8
Layer 1
10
7.642640
20
135.559820
11
6.962255
21
135.697987
0
LINE
8
Layer 1
10
6.962255
20
135.697987
11
6.406771
21
136.073135
0
LINE
8
Layer 1
10
6.406771
20
136.073135
11
6.032296
21
136.629085
0
LINE
8
Layer 1
10
6.032296
20
136.629085
11
5.894940
21
137.309660
0
LINE
8
Layer 1
10
5.894940
20
137.309660
11
5.894940
21
146.575660
0
LINE
8
Layer 1
10
5.894940
20
146.575660
11
6.033105
21
147.256069
0
LINE
8
Layer 1
10
6.033105
20
147.256069
11
6.408238
21
147.811572
0
LINE
8
Layer 1
10
6.408238
20
147.811572
11
6.964164
21
148.186059
0
LINE
8
Layer 1
10
6.964164
20
148.186059
11
7.644710
21
148.323420
0
LINE
8
Layer 1
10
7.644710
20
148.323420
11
186.610000
21
148.323420
0
LINE
8
Layer 1
10
186.610000
20
148.323420
11
186.884930
21
148.313020
0
LINE
8
Layer 1
10
186.884930
20
148.313020
11
187.157800
21
148.281020
0
LINE
8
Layer 1
10
187.157800
20
148.281020
11
187.427000
21
148.226720
0
LINE
8
Layer 1
10
187.427000
20
148.226720
11
187.692120
21
148.152820
0
LINE
8
Layer 1
10
187.692120
20
148.152820
11
187.948950
21
148.057720
0
LINE
8
Layer 1
10
187.948950
20
148.057720
11
188.199070
21
147.943000
0
LINE
8
Layer 1
10
188.199070
20
147.943000
11
188.438850
21
147.808110
0
LINE
8
Layer 1
10
188.438850
20
147.808110
11
188.666740
21
147.655670
0
LINE
8
Layer 1
10
188.666740
20
147.655670
11
188.882750
21
147.485130
0
LINE
8
Layer 1
10
188.882750
20
147.485130
11
189.084810
21
147.299080
0
LINE
8
Layer 1
10
189.084810
20
147.299080
11
189.270830
21
147.097010
0
LINE
8
Layer 1
10
189.270830
20
147.097010
11
189.441890
21
146.881010
0
LINE
8
Layer 1
10
189.441890
20
146.881010
11
189.593810
21
146.652590
0
LINE
8
Layer 1
10
189.593810
20
146.652590
11
189.728700
21
146.412790
0
LINE
8
Layer 1
10
189.728700
20
146.412790
11
189.843920
21
146.162660
0
LINE
8
Layer 1
10
189.843920
20
146.162660
11
189.939020
21
145.905830
0
LINE
8
Layer 1
10
189.939020
20
145.905830
11
190.012920
21
145.640720
0
LINE
8
Layer 1
10
190.012920
20
145.640720
11
190.067720
21
145.371980
0
LINE
8
Layer 1
10
190.067720
20
145.371980
11
190.098720
21
145.098610
0
LINE
8
Layer 1
10
190.098720
20
145.098610
11
190.110620
21
144.823670
0
LINE
8
Layer 1
10
190.110620
20
144.823670
11
190.110620
21
35.805600
0
LINE
8
Layer 1
10
190.110620
20
35.805600
11
190.098720
21
35.530670
0
LINE
8
Layer 1
10
190.098720
20
35.530670
11
190.067720
21
35.257806
0
LINE
8
Layer 1
10
190.067720
20
35.257806
11
190.012920
21
34.987527
0
LINE
8
Layer 1
10
190.012920
20
34.987527
11
189.939020
21
34.723450
0
LINE
8
Layer 1
10
189.939020
20
34.723450
11
189.843920
21
34.465574
0
LINE
8
Layer 1
10
189.843920
20
34.465574
11
189.728700
21
34.216483
0
LINE
8
Layer 1
10
189.728700
20
34.216483
11
189.593810
21
33.976694
0
LINE
8
Layer 1
10
189.593810
20
33.976694
11
189.441890
21
33.747757
0
LINE
8
Layer 1
10
189.441890
20
33.747757
11
189.270830
21
33.531741
0
LINE
8
Layer 1
10
189.270830
20
33.531741
11
189.084810
21
33.330711
0
LINE
8
Layer 1
10
189.084810
20
33.330711
11
188.882750
21
33.143634
0
LINE
8
Layer 1
10
188.882750
20
33.143634
11
188.666740
21
32.973613
0
LINE
8
Layer 1
10
188.666740
20
32.973613
11
188.438850
21
32.820644
0
LINE
8
Layer 1
10
188.438850
20
32.820644
11
188.199070
21
32.686797
0
LINE
8
Layer 1
10
188.199070
20
32.686797
11
187.948950
21
32.571553
0
LINE
8
Layer 1
10
187.948950
20
32.571553
11
187.692120
21
32.476463
0
LINE
8
Layer 1
10
187.692120
20
32.476463
11
187.427000
21
32.401533
0
LINE
8
Layer 1
10
187.427000
20
32.401533
11
187.157800
21
32.348303
0
LINE
8
Layer 1
10
187.157800
20
32.348303
11
186.884930
21
32.315743
0
LINE
8
Layer 1
10
186.884930
20
32.315743
11
186.610000
21
32.305403
0
LINE
8
Layer 1
10
186.610000
20
32.305403
11
7.643000
21
32.304403
0
LINE
8
Layer 1
10
7.643000
20
32.304403
11
7.642120
21
32.304400
0
LINE
8
Layer 1
10
9.880230
20
35.304340
11
9.893630
21
35.304340
0
LINE
8
Layer 1
10
9.893630
20
35.304340
11
10.282842
21
35.382939
0
LINE
8
Layer 1
10
10.282842
20
35.382939
11
10.600678
21
35.597245
0
LINE
8
Layer 1
10
10.600678
20
35.597245
11
10.814975
21
35.915094
0
LINE
8
Layer 1
10
10.814975
20
35.915094
11
10.893571
21
36.304322
0
LINE
8
Layer 1
10
10.893571
20
36.304322
11
10.814975
21
36.693549
0
LINE
8
Layer 1
10
10.814975
20
36.693549
11
10.600678
21
37.011398
0
LINE
8
Layer 1
10
10.600678
20
37.011398
11
10.282843
21
37.225704
0
LINE
8
Layer 1
10
10.282843
20
37.225704
11
9.893631
21
37.304303
0
LINE
8
Layer 1
10
9.893631
20
37.304303
11
9.504416
21
37.225706
0
LINE
8
Layer 1
10
9.504416
20
37.225706
11
9.186577
21
37.011401
0
LINE
8
Layer 1
10
9.186577
20
37.011401
11
8.972278
21
36.693552
0
LINE
8
Layer 1
10
8.972278
20
36.693552
11
8.893681
21
36.304322
0
LINE
8
Layer 1
10
8.893681
20
36.304322
11
8.970896
21
35.918322
0
LINE
8
Layer 1
10
8.970896
20
35.918322
11
9.181809
21
35.601952
0
LINE
8
Layer 1
10
9.181809
20
35.601952
11
9.495286
21
35.386770
0
LINE
8
Layer 1
10
9.495286
20
35.386770
11
9.880191
21
35.304340
0
LINE
8
Layer 1
10
9.880191
20
35.304340
11
9.880230
21
35.304340
0
LINE
8
Layer 1
10
33.879230
20
35.304340
11
33.892640
21
35.304340
0
LINE
8
Layer 1
10
33.892640
20
35.304340
11
34.281855
21
35.382937
0
LINE
8
Layer 1
10
34.281855
20
35.382937
11
34.599694
21
35.597242
0
LINE
8
Layer 1
10
34.599694
20
35.597242
11
34.813993
21
35.915092
0
LINE
8
Layer 1
10
34.813993
20
35.915092
11
34.892590
21
36.304322
0
LINE
8
Layer 1
10
34.892590
20
36.304322
11
34.813993
21
36.693552
0
LINE
8
Layer 1
10
34.813993
20
36.693552
11
34.599694
21
37.011401
0
LINE
8
Layer 1
10
34.599694
20
37.011401
11
34.281855
21
37.225706
0
LINE
8
Layer 1
10
34.281855
20
37.225706
11
33.892640
21
37.304303
0
LINE
8
Layer 1
10
33.892640
20
37.304303
11
33.503432
21
37.225700
0
LINE
8
Layer 1
10
33.503432
20
37.225700
11
33.185600
21
37.011394
0
LINE
8
Layer 1
10
33.185600
20
37.011394
11
32.971306
21
36.693547
0
LINE
8
Layer 1
10
32.971306
20
36.693547
11
32.892711
21
36.304322
0
LINE
8
Layer 1
10
32.892711
20
36.304322
11
32.969924
21
35.918325
0
LINE
8
Layer 1
10
32.969924
20
35.918325
11
33.180835
21
35.601955
0
LINE
8
Layer 1
10
33.180835
20
35.601955
11
33.494309
21
35.386774
0
LINE
8
Layer 1
10
33.494309
20
35.386774
11
33.879210
21
35.304340
0
LINE
8
Layer 1
10
33.879210
20
35.304340
11
33.879230
21
35.304340
0
LINE
8
Layer 1
10
114.078930
20
35.304340
11
114.092930
21
35.304340
0
LINE
8
Layer 1
10
114.092930
20
35.304340
11
114.482142
21
35.382939
0
LINE
8
Layer 1
10
114.482142
20
35.382939
11
114.799977
21
35.597246
0
LINE
8
Layer 1
10
114.799977
20
35.597246
11
115.014274
21
35.915094
0
LINE
8
Layer 1
10
115.014274
20
35.915094
11
115.092870
21
36.304322
0
LINE
8
Layer 1
10
115.092870
20
36.304322
11
115.014274
21
36.693549
0
LINE
8
Layer 1
10
115.014274
20
36.693549
11
114.799977
21
37.011398
0
LINE
8
Layer 1
10
114.799977
20
37.011398
11
114.482142
21
37.225704
0
LINE
8
Layer 1
10
114.482142
20
37.225704
11
114.092930
21
37.304303
0
LINE
8
Layer 1
10
114.092930
20
37.304303
11
113.710116
21
37.228320
0
LINE
8
Layer 1
10
113.710116
20
37.228320
11
113.385540
21
37.011585
0
LINE
8
Layer 1
10
113.385540
20
37.011585
11
113.168642
21
36.687111
0
LINE
8
Layer 1
10
113.168642
20
36.687111
11
113.092460
21
36.304322
0
LINE
8
Layer 1
10
113.092460
20
36.304322
11
113.169674
21
35.918325
0
LINE
8
Layer 1
10
113.169674
20
35.918325
11
113.380585
21
35.601955
0
LINE
8
Layer 1
10
113.380585
20
35.601955
11
113.694058
21
35.386773
0
LINE
8
Layer 1
10
113.694058
20
35.386773
11
114.078960
21
35.304340
0
LINE
8
Layer 1
10
114.078960
20
35.304340
11
114.078930
21
35.304340
0
LINE
8
Layer 1
10
185.999130
20
35.304340
11
186.012630
21
35.304340
0
LINE
8
Layer 1
10
186.012630
20
35.304340
11
186.401839
21
35.382942
0
LINE
8
Layer 1
10
186.401839
20
35.382942
11
186.719671
21
35.597249
0
LINE
8
Layer 1
10
186.719671
20
35.597249
11
186.933965
21
35.915097
0
LINE
8
Layer 1
10
186.933965
20
35.915097
11
187.012560
21
36.304322
0
LINE
8
Layer 1
10
187.012560
20
36.304322
11
186.933965
21
36.693547
0
LINE
8
Layer 1
10
186.933965
20
36.693547
11
186.719671
21
37.011394
0
LINE
8
Layer 1
10
186.719671
20
37.011394
11
186.401838
21
37.225701
0
LINE
8
Layer 1
10
186.401838
20
37.225701
11
186.012630
21
37.304303
0
LINE
8
Layer 1
10
186.012630
20
37.304303
11
185.623415
21
37.225706
0
LINE
8
Layer 1
10
185.623415
20
37.225706
11
185.305576
21
37.011401
0
LINE
8
Layer 1
10
185.305576
20
37.011401
11
185.091277
21
36.693552
0
LINE
8
Layer 1
10
185.091277
20
36.693552
11
185.012680
21
36.304322
0
LINE
8
Layer 1
10
185.012680
20
36.304322
11
185.089897
21
35.918318
0
LINE
8
Layer 1
10
185.089897
20
35.918318
11
185.300815
21
35.601945
0
LINE
8
Layer 1
10
185.300815
20
35.601945
11
185.614299
21
35.386765
0
LINE
8
Layer 1
10
185.614299
20
35.386765
11
185.999210
21
35.304340
0
LINE
8
Layer 1
10
185.999210
20
35.304340
11
185.999130
21
35.304340
0
LINE
8
Layer 1
10
136.096230
20
35.305340
11
136.109730
21
35.305340
0
LINE
8
Layer 1
10
136.109730
20
35.305340
11
136.498948
21
35.383934
0
LINE
8
Layer 1
10
136.498948
20
35.383934
11
136.816790
21
35.598239
0
LINE
8
Layer 1
10
136.816790
20
35.598239
11
137.031092
21
35.916090
0
LINE
8
Layer 1
10
137.031092
20
35.916090
11
137.109690
21
36.305322
0
LINE
8
Layer 1
10
137.109690
20
36.305322
11
137.031092
21
36.694554
0
LINE
8
Layer 1
10
137.031092
20
36.694554
11
136.816790
21
37.012405
0
LINE
8
Layer 1
10
136.816790
20
37.012405
11
136.498948
21
37.226709
0
LINE
8
Layer 1
10
136.498948
20
37.226709
11
136.109730
21
37.305303
0
LINE
8
Layer 1
10
136.109730
20
37.305303
11
135.720525
21
37.226698
0
LINE
8
Layer 1
10
135.720525
20
37.226698
11
135.402696
21
37.012391
0
LINE
8
Layer 1
10
135.402696
20
37.012391
11
135.188404
21
36.694544
0
LINE
8
Layer 1
10
135.188404
20
36.694544
11
135.109810
21
36.305322
0
LINE
8
Layer 1
10
135.109810
20
36.305322
11
135.187024
21
35.919325
0
LINE
8
Layer 1
10
135.187024
20
35.919325
11
135.397935
21
35.602955
0
LINE
8
Layer 1
10
135.397935
20
35.602955
11
135.711408
21
35.387773
0
LINE
8
Layer 1
10
135.711408
20
35.387773
11
136.096310
21
35.305340
0
LINE
8
Layer 1
10
136.096310
20
35.305340
11
136.096230
21
35.305340
0
LINE
8
Layer 1
10
172.573630
20
46.415740
11
172.573630
21
46.415740
0
LINE
8
Layer 1
10
172.573630
20
46.415740
11
172.581630
21
46.415740
0
LINE
8
Layer 1
10
172.581630
20
46.415740
11
173.888541
21
46.675582
0
LINE
8
Layer 1
10
173.888541
20
46.675582
11
174.996527
21
47.415813
0
LINE
8
Layer 1
10
174.996527
20
47.415813
11
175.736894
21
48.523734
0
LINE
8
Layer 1
10
175.736894
20
48.523734
11
175.996920
21
49.830660
0
LINE
8
Layer 1
10
175.996920
20
49.830660
11
175.736895
21
51.137584
0
LINE
8
Layer 1
10
175.736895
20
51.137584
11
174.996530
21
52.245503
0
LINE
8
Layer 1
10
174.996530
20
52.245503
11
173.888548
21
52.985735
0
LINE
8
Layer 1
10
173.888548
20
52.985735
11
172.581640
21
53.245580
0
LINE
8
Layer 1
10
172.581640
20
53.245580
11
171.252485
21
52.977173
0
LINE
8
Layer 1
10
171.252485
20
52.977173
11
170.167079
21
52.245323
0
LINE
8
Layer 1
10
170.167079
20
52.245323
11
169.435262
21
51.159871
0
LINE
8
Layer 1
10
169.435262
20
51.159871
11
169.166870
21
49.830660
0
LINE
8
Layer 1
10
169.166870
20
49.830660
11
169.434317
21
48.503697
0
LINE
8
Layer 1
10
169.434317
20
48.503697
11
170.163792
21
47.419276
0
LINE
8
Layer 1
10
170.163792
20
47.419276
11
171.246176
21
46.686816
0
LINE
8
Layer 1
10
171.246176
20
46.686816
11
172.572350
21
46.415740
0
LINE
8
Layer 1
10
172.572350
20
46.415740
11
172.573630
21
46.415740
0
LINE
8
Layer 1
10
163.057920
20
59.354540
11
182.110000
21
59.354540
0
LINE
8
Layer 1
10
182.110000
20
59.354540
11
182.110000
21
97.459240
0
LINE
8
Layer 1
10
182.110000
20
97.459240
11
163.057900
21
97.459240
0
LINE
8
Layer 1
10
163.057900
20
97.459240
11
163.057920
21
59.354540
0
LINE
8
Layer 1
10
144.007920
20
102.219340
11
163.060000
21
102.219340
0
LINE
8
Layer 1
10
163.060000
20
102.219340
11
163.060000
21
119.522340
0
LINE
8
Layer 1
10
163.060000
20
119.522340
11
163.198162
21
120.202752
0
LINE
8
Layer 1
10
163.198162
20
120.202752
11
163.573294
21
120.758259
0
LINE
8
Layer 1
10
163.573294
20
120.758259
11
164.129222
21
121.132748
0
LINE
8
Layer 1
10
164.129222
20
121.132748
11
164.809770
21
121.270110
0
LINE
8
Layer 1
10
164.809770
20
121.270110
11
182.110000
21
121.270110
0
LINE
8
Layer 1
10
182.110000
20
121.270110
11
182.110000
21
140.323010
0
LINE
8
Layer 1
10
182.110000
20
140.323010
11
124.957900
21
140.323010
0
LINE
8
Layer 1
10
124.957900
20
140.323010
11
124.957900
21
121.270110
0
LINE
8
Layer 1
10
124.957900
20
121.270110
11
142.260700
21
121.270110
0
LINE
8
Layer 1
10
142.260700
20
121.270110
11
142.941044
21
121.131740
0
LINE
8
Layer 1
10
142.941044
20
121.131740
11
143.496417
21
120.756428
0
LINE
8
Layer 1
10
143.496417
20
120.756428
11
143.870726
21
120.200366
0
LINE
8
Layer 1
10
143.870726
20
120.200366
11
144.007880
21
119.519750
0
LINE
8
Layer 1
10
144.007880
20
119.519750
11
144.007920
21
102.219340
0
LINE
8
Layer 1
10
9.880230
20
143.323000
11
9.893630
21
143.323000
0
LINE
8
Layer 1
10
9.893630
20
143.323000
11
10.282841
21
143.401599
0
LINE
8
Layer 1
10
10.282841
20
143.401599
11
10.600677
21
143.615905
0
LINE
8
Layer 1
10
10.600677
20
143.615905
11
10.814974
21
143.933753
0
LINE
8
Layer 1
10
10.814974
20
143.933753
11
10.893570
21
144.322980
0
LINE
8
Layer 1
10
10.893570
20
144.322980
11
10.814974
21
144.712207
0
LINE
8
Layer 1
10
10.814974
20
144.712207
11
10.600677
21
145.030055
0
LINE
8
Layer 1
10
10.600677
20
145.030055
11
10.282841
21
145.244361
0
LINE
8
Layer 1
10
10.282841
20
145.244361
11
9.893630
21
145.322960
0
LINE
8
Layer 1
10
9.893630
20
145.322960
11
9.504415
21
145.244364
0
LINE
8
Layer 1
10
9.504415
20
145.244364
11
9.186577
21
145.030059
0
LINE
8
Layer 1
10
9.186577
20
145.030059
11
8.972277
21
144.712209
0
LINE
8
Layer 1
10
8.972277
20
144.712209
11
8.893680
21
144.322980
0
LINE
8
Layer 1
10
8.893680
20
144.322980
11
8.970895
21
143.936981
0
LINE
8
Layer 1
10
8.970895
20
143.936981
11
9.181809
21
143.620611
0
LINE
8
Layer 1
10
9.181809
20
143.620611
11
9.495286
21
143.405430
0
LINE
8
Layer 1
10
9.495286
20
143.405430
11
9.880190
21
143.323000
0
LINE
8
Layer 1
10
9.880190
20
143.323000
11
9.880230
21
143.323000
0
LINE
8
Layer 1
10
97.938930
20
143.323000
11
97.952930
21
143.323000
0
LINE
8
Layer 1
10
97.952930
20
143.323000
11
98.342145
21
143.401596
0
LINE
8
Layer 1
10
98.342145
20
143.401596
11
98.659983
21
143.615901
0
LINE
8
Layer 1
10
98.659983
20
143.615901
11
98.874283
21
143.933751
0
LINE
8
Layer 1
10
98.874283
20
143.933751
11
98.952880
21
144.322980
0
LINE
8
Layer 1
10
98.952880
20
144.322980
11
98.874283
21
144.712209
0
LINE
8
Layer 1
10
98.874283
20
144.712209
11
98.659983
21
145.030059
0
LINE
8
Layer 1
10
98.659983
20
145.030059
11
98.342145
21
145.244364
0
LINE
8
Layer 1
10
98.342145
20
145.244364
11
97.952930
21
145.322960
0
LINE
8
Layer 1
10
97.952930
20
145.322960
11
97.563722
21
145.244358
0
LINE
8
Layer 1
10
97.563722
20
145.244358
11
97.245890
21
145.030051
0
LINE
8
Layer 1
10
97.245890
20
145.030051
11
97.031596
21
144.712204
0
LINE
8
Layer 1
10
97.031596
20
144.712204
11
96.953001
21
144.322980
0
LINE
8
Layer 1
10
96.953001
20
144.322980
11
97.030163
21
143.937103
0
LINE
8
Layer 1
10
97.030163
20
143.937103
11
97.240948
21
143.620788
0
LINE
8
Layer 1
10
97.240948
20
143.620788
11
97.554259
21
143.405575
0
LINE
8
Layer 1
10
97.554259
20
143.405575
11
97.939000
21
143.323000
0
LINE
8
Layer 1
10
97.939000
20
143.323000
11
97.938930
21
143.323000
0
LINE
8
Layer 1
10
185.999230
20
143.323000
11
186.012730
21
143.323000
0
LINE
8
Layer 1
10
186.012730
20
143.323000
11
186.401938
21
143.401602
0
LINE
8
Layer 1
10
186.401938
20
143.401602
11
186.719770
21
143.615908
0
LINE
8
Layer 1
10
186.719770
20
143.615908
11
186.934065
21
143.933756
0
LINE
8
Layer 1
10
186.934065
20
143.933756
11
187.012660
21
144.322980
0
LINE
8
Layer 1
10
187.012660
20
144.322980
11
186.934065
21
144.712204
0
LINE
8
Layer 1
10
186.934065
20
144.712204
11
186.719770
21
145.030052
0
LINE
8
Layer 1
10
186.719770
20
145.030052
11
186.401938
21
145.244358
0
LINE
8
Layer 1
10
186.401938
20
145.244358
11
186.012730
21
145.322960
0
LINE
8
Layer 1
10
186.012730
20
145.322960
11
185.623515
21
145.244364
0
LINE
8
Layer 1
10
185.623515
20
145.244364
11
185.305677
21
145.030059
0
LINE
8
Layer 1
10
185.305677
20
145.030059
11
185.091377
21
144.712209
0
LINE
8
Layer 1
10
185.091377
20
144.712209
11
185.012780
21
144.322980
0
LINE
8
Layer 1
10
185.012780
20
144.322980
11
185.089997
21
143.936976
0
LINE
8
Layer 1
10
185.089997
20
143.936976
11
185.300916
21
143.620604
0
LINE
8
Layer 1
10
185.300916
20
143.620604
11
185.614399
21
143.405425
0
LINE
8
Layer 1
10
185.614399
20
143.405425
11
185.999310
21
143.323000
0
LINE
8
Layer 1
10
185.999310
20
143.323000
11
185.999230
21
143.323000
 0 
ENDSEC
 0 
EOF