999
"DXF R12 Output" (www.mydxf.blogspot.com)
 0 
SECTION
 2 
HEADER
 9 
$ACADVER
 1 
AC1009
 9 
$EXTMIN
 10 
 0 
 20 
 0 
 9 
$EXTMAX
 10 
 8.5 
 20 
 11 
 0 
ENDSEC
 0 
SECTION
 2 
ENTITIES
0
LINE
8
Layer 1
10
51.039100
20
569.039000
11
50.000000
21
569.082000
0
LINE
8
Layer 1
10
50.000000
20
569.082000
11
48.968750
21
569.207000
0
LINE
8
Layer 1
10
48.968750
20
569.207000
11
47.949220
21
569.406220
0
LINE
8
Layer 1
10
47.949220
20
569.406220
11
46.951173
21
569.689420
0
LINE
8
Layer 1
10
46.951173
20
569.689420
11
45.974610
21
570.048800
0
LINE
8
Layer 1
10
45.974610
20
570.048800
11
45.035157
21
570.484350
0
LINE
8
Layer 1
10
45.035157
20
570.484350
11
44.126954
21
570.990200
0
LINE
8
Layer 1
10
44.126954
20
570.990200
11
43.261720
21
571.568330
0
LINE
8
Layer 1
10
43.261720
20
571.568330
11
42.445313
21
572.210910
0
LINE
8
Layer 1
10
42.445313
20
572.210910
11
41.685548
21
572.917940
0
LINE
8
Layer 1
10
41.685548
20
572.917940
11
40.978517
21
573.677700
0
LINE
8
Layer 1
10
40.978517
20
573.677700
11
40.335939
21
574.494110
0
LINE
8
Layer 1
10
40.335939
20
574.494110
11
39.757813
21
575.359350
0
LINE
8
Layer 1
10
39.757813
20
575.359350
11
39.251954
21
576.265590
0
LINE
8
Layer 1
10
39.251954
20
576.265590
11
38.816407
21
577.207000
0
LINE
8
Layer 1
10
38.816407
20
577.207000
11
38.457032
21
578.181610
0
LINE
8
Layer 1
10
38.457032
20
578.181610
11
38.175782
21
579.179660
0
LINE
8
Layer 1
10
38.175782
20
579.179660
11
37.976563
21
580.201140
0
LINE
8
Layer 1
10
37.976563
20
580.201140
11
37.849610
21
581.232390
0
LINE
8
Layer 1
10
37.849610
20
581.232390
11
37.812500
21
582.271450
0
LINE
8
Layer 1
10
37.812500
20
582.271450
11
37.812500
21
994.289450
0
LINE
8
Layer 1
10
37.812500
20
994.289450
11
37.853520
21
995.328510
0
LINE
8
Layer 1
10
37.853520
20
995.328510
11
37.978520
21
996.361720
0
LINE
8
Layer 1
10
37.978520
20
996.361720
11
38.177738
21
997.377340
0
LINE
8
Layer 1
10
38.177738
20
997.377340
11
38.460942
21
998.379300
0
LINE
8
Layer 1
10
38.460942
20
998.379300
11
38.820316
21
999.350000
0
LINE
8
Layer 1
10
38.820316
20
999.350000
11
39.255863
21
1000.295290
0
LINE
8
Layer 1
10
39.255863
20
1000.295290
11
39.761723
21
1001.203490
0
LINE
8
Layer 1
10
39.761723
20
1001.203490
11
40.339848
21
1002.064890
0
LINE
8
Layer 1
10
40.339848
20
1002.064890
11
40.982426
21
1002.881290
0
LINE
8
Layer 1
10
40.982426
20
1002.881290
11
41.689457
21
1003.644890
0
LINE
8
Layer 1
10
41.689457
20
1003.644890
11
42.449223
21
1004.348090
0
LINE
8
Layer 1
10
42.449223
20
1004.348090
11
43.265629
21
1004.994490
0
LINE
8
Layer 1
10
43.265629
20
1004.994490
11
44.130863
21
1005.568790
0
LINE
8
Layer 1
10
44.130863
20
1005.568790
11
45.039066
21
1006.078490
0
LINE
8
Layer 1
10
45.039066
20
1006.078490
11
45.978520
21
1006.512090
0
LINE
8
Layer 1
10
45.978520
20
1006.512090
11
46.955082
21
1006.871490
0
LINE
8
Layer 1
10
46.955082
20
1006.871490
11
47.953129
21
1007.152690
0
LINE
8
Layer 1
10
47.953129
20
1007.152690
11
48.972659
21
1007.355890
0
LINE
8
Layer 1
10
48.972659
20
1007.355890
11
50.003909
21
1007.474990
0
LINE
8
Layer 1
10
50.003909
20
1007.474990
11
51.042969
21
1007.515990
0
LINE
8
Layer 1
10
51.042969
20
1007.515990
11
727.445000
21
1007.515990
0
LINE
8
Layer 1
10
727.445000
20
1007.515990
11
728.776473
21
1007.379728
0
LINE
8
Layer 1
10
728.776473
20
1007.379728
11
730.016365
21
1006.993048
0
LINE
8
Layer 1
10
730.016365
20
1006.993048
11
731.138175
21
1006.382496
0
LINE
8
Layer 1
10
731.138175
20
1006.382496
11
732.115405
21
1005.574619
0
LINE
8
Layer 1
10
732.115405
20
1005.574619
11
732.921554
21
1004.595963
0
LINE
8
Layer 1
10
732.921554
20
1004.595963
11
733.530123
21
1003.473075
0
LINE
8
Layer 1
10
733.530123
20
1003.473075
11
733.914612
21
1002.232502
0
LINE
8
Layer 1
10
733.914612
20
1002.232502
11
734.048520
21
1000.900790
0
LINE
8
Layer 1
10
734.048520
20
1000.900790
11
734.048520
21
965.881290
0
LINE
8
Layer 1
10
734.048520
20
965.881290
11
733.912257
21
964.549812
0
LINE
8
Layer 1
10
733.912257
20
964.549812
11
733.525574
21
963.309916
0
LINE
8
Layer 1
10
733.525574
20
963.309916
11
732.915018
21
962.188102
0
LINE
8
Layer 1
10
732.915018
20
962.188102
11
732.107135
21
961.210871
0
LINE
8
Layer 1
10
732.107135
20
961.210871
11
731.128472
21
960.404722
0
LINE
8
Layer 1
10
731.128472
20
960.404722
11
730.005578
21
959.796155
0
LINE
8
Layer 1
10
730.005578
20
959.796155
11
728.764998
21
959.411671
0
LINE
8
Layer 1
10
728.764998
20
959.411671
11
727.433280
21
959.277770
0
LINE
8
Layer 1
10
727.433280
20
959.277770
11
230.043000
21
959.277770
0
LINE
8
Layer 1
10
230.043000
20
959.277770
11
230.043000
21
599.271000
0
LINE
8
Layer 1
10
230.043000
20
599.271000
11
727.445000
21
599.271000
0
LINE
8
Layer 1
10
727.445000
20
599.271000
11
728.776477
21
599.134738
0
LINE
8
Layer 1
10
728.776477
20
599.134738
11
730.016372
21
598.748055
0
LINE
8
Layer 1
10
730.016372
20
598.748055
11
731.138185
21
598.137500
0
LINE
8
Layer 1
10
731.138185
20
598.137500
11
732.115416
21
597.329618
0
LINE
8
Layer 1
10
732.115416
20
597.329618
11
732.921565
21
596.350957
0
LINE
8
Layer 1
10
732.921565
20
596.350957
11
733.530132
21
595.228064
0
LINE
8
Layer 1
10
733.530132
20
595.228064
11
733.914617
21
593.987486
0
LINE
8
Layer 1
10
733.914617
20
593.987486
11
734.048520
21
592.655770
0
LINE
8
Layer 1
10
734.048520
20
592.655770
11
734.048520
21
575.645970
0
LINE
8
Layer 1
10
734.048520
20
575.645970
11
733.912256
21
574.314493
0
LINE
8
Layer 1
10
733.912256
20
574.314493
11
733.525571
21
573.074599
0
LINE
8
Layer 1
10
733.525571
20
573.074599
11
732.915014
21
571.952787
0
LINE
8
Layer 1
10
732.915014
20
571.952787
11
732.107131
21
570.975557
0
LINE
8
Layer 1
10
732.107131
20
570.975557
11
731.128469
21
570.169410
0
LINE
8
Layer 1
10
731.128469
20
570.169410
11
730.005575
21
569.560844
0
LINE
8
Layer 1
10
730.005575
20
569.560844
11
728.764997
21
569.176361
0
LINE
8
Layer 1
10
728.764997
20
569.176361
11
727.433280
21
569.042460
0
LINE
8
Layer 1
10
727.433280
20
569.042460
11
51.039100
21
569.039000
0
LINE
8
Layer 1
10
53.232460
20
580.369100
11
53.283240
21
580.369100
0
LINE
8
Layer 1
10
53.283240
20
580.369100
11
54.730079
21
580.656284
0
LINE
8
Layer 1
10
54.730079
20
580.656284
11
55.956802
21
581.475409
0
LINE
8
Layer 1
10
55.956802
20
581.475409
11
56.776560
21
582.701710
0
LINE
8
Layer 1
10
56.776560
20
582.701710
11
57.064490
21
584.148400
0
LINE
8
Layer 1
10
57.064490
20
584.148400
11
56.776557
21
585.595087
0
LINE
8
Layer 1
10
56.776557
20
585.595087
11
55.956798
21
586.821384
0
LINE
8
Layer 1
10
55.956798
20
586.821384
11
54.730076
21
587.640507
0
LINE
8
Layer 1
10
54.730076
20
587.640507
11
53.283240
21
587.927690
0
LINE
8
Layer 1
10
53.283240
20
587.927690
11
52.521601
21
587.850870
0
LINE
8
Layer 1
10
52.521601
20
587.850870
11
51.812208
21
587.630634
0
LINE
8
Layer 1
10
51.812208
20
587.630634
11
50.610942
21
586.820695
0
LINE
8
Layer 1
10
50.610942
20
586.820695
11
49.801000
21
585.619431
0
LINE
8
Layer 1
10
49.801000
20
585.619431
11
49.580762
21
584.910039
0
LINE
8
Layer 1
10
49.580762
20
584.910039
11
49.503940
21
584.148400
0
LINE
8
Layer 1
10
49.503940
20
584.148400
11
49.579339
21
583.393546
0
LINE
8
Layer 1
10
49.579339
20
583.393546
11
49.795775
21
582.689570
0
LINE
8
Layer 1
10
49.795775
20
582.689570
11
50.592924
21
581.493891
0
LINE
8
Layer 1
10
50.592924
20
581.493891
11
51.777711
21
580.680642
0
LINE
8
Layer 1
10
51.777711
20
580.680642
11
52.478695
21
580.454702
0
LINE
8
Layer 1
10
52.478695
20
580.454702
11
53.232460
21
580.369100
0
LINE
8
Layer 1
10
53.232460
20
580.369100
11
53.232460
21
580.369100
0
LINE
8
Layer 1
10
325.056460
20
580.369100
11
325.107260
21
580.369100
0
LINE
8
Layer 1
10
325.107260
20
580.369100
11
325.868900
21
580.445921
0
LINE
8
Layer 1
10
325.868900
20
580.445921
11
326.578294
21
580.666157
0
LINE
8
Layer 1
10
326.578294
20
580.666157
11
327.779561
21
581.476099
0
LINE
8
Layer 1
10
327.779561
20
581.476099
11
328.589503
21
582.677366
0
LINE
8
Layer 1
10
328.589503
20
582.677366
11
328.809739
21
583.386760
0
LINE
8
Layer 1
10
328.809739
20
583.386760
11
328.886560
21
584.148400
0
LINE
8
Layer 1
10
328.886560
20
584.148400
11
328.809738
21
584.910039
0
LINE
8
Layer 1
10
328.809738
20
584.910039
11
328.589500
21
585.619431
0
LINE
8
Layer 1
10
328.589500
20
585.619431
11
327.779558
21
586.820695
0
LINE
8
Layer 1
10
327.779558
20
586.820695
11
326.578292
21
587.630634
0
LINE
8
Layer 1
10
326.578292
20
587.630634
11
325.868899
21
587.850870
0
LINE
8
Layer 1
10
325.868899
20
587.850870
11
325.107260
21
587.927690
0
LINE
8
Layer 1
10
325.107260
20
587.927690
11
324.345621
21
587.850870
0
LINE
8
Layer 1
10
324.345621
20
587.850870
11
323.636228
21
587.630634
0
LINE
8
Layer 1
10
323.636228
20
587.630634
11
322.434962
21
586.820695
0
LINE
8
Layer 1
10
322.434962
20
586.820695
11
321.625020
21
585.619431
0
LINE
8
Layer 1
10
321.625020
20
585.619431
11
321.404782
21
584.910039
0
LINE
8
Layer 1
10
321.404782
20
584.910039
11
321.327960
21
584.148400
0
LINE
8
Layer 1
10
321.327960
20
584.148400
11
321.403359
21
583.393546
0
LINE
8
Layer 1
10
321.403359
20
583.393546
11
321.619795
21
582.689570
0
LINE
8
Layer 1
10
321.619795
20
582.689570
11
322.416944
21
581.493891
0
LINE
8
Layer 1
10
322.416944
20
581.493891
11
323.601731
21
580.680642
0
LINE
8
Layer 1
10
323.601731
20
580.680642
11
324.302715
21
580.454702
0
LINE
8
Layer 1
10
324.302715
20
580.454702
11
325.056480
21
580.369100
0
LINE
8
Layer 1
10
325.056480
20
580.369100
11
325.056460
21
580.369100
0
LINE
8
Layer 1
10
628.173460
20
580.369100
11
628.226160
21
580.369100
0
LINE
8
Layer 1
10
628.226160
20
580.369100
11
628.987800
21
580.445921
0
LINE
8
Layer 1
10
628.987800
20
580.445921
11
629.697194
21
580.666157
0
LINE
8
Layer 1
10
629.697194
20
580.666157
11
630.898461
21
581.476099
0
LINE
8
Layer 1
10
630.898461
20
581.476099
11
631.708403
21
582.677366
0
LINE
8
Layer 1
10
631.708403
20
582.677366
11
631.928639
21
583.386760
0
LINE
8
Layer 1
10
631.928639
20
583.386760
11
632.005460
21
584.148400
0
LINE
8
Layer 1
10
632.005460
20
584.148400
11
631.928638
21
584.910039
0
LINE
8
Layer 1
10
631.928638
20
584.910039
11
631.708400
21
585.619431
0
LINE
8
Layer 1
10
631.708400
20
585.619431
11
630.898458
21
586.820695
0
LINE
8
Layer 1
10
630.898458
20
586.820695
11
629.697192
21
587.630634
0
LINE
8
Layer 1
10
629.697192
20
587.630634
11
628.987799
21
587.850870
0
LINE
8
Layer 1
10
628.987799
20
587.850870
11
628.226160
21
587.927690
0
LINE
8
Layer 1
10
628.226160
20
587.927690
11
626.779324
21
587.640507
0
LINE
8
Layer 1
10
626.779324
20
587.640507
11
625.552602
21
586.821384
0
LINE
8
Layer 1
10
625.552602
20
586.821384
11
624.732843
21
585.595087
0
LINE
8
Layer 1
10
624.732843
20
585.595087
11
624.444910
21
584.148400
0
LINE
8
Layer 1
10
624.444910
20
584.148400
11
624.520309
21
583.393546
0
LINE
8
Layer 1
10
624.520309
20
583.393546
11
624.736745
21
582.689570
0
LINE
8
Layer 1
10
624.736745
20
582.689570
11
625.533894
21
581.493891
0
LINE
8
Layer 1
10
625.533894
20
581.493891
11
626.718681
21
580.680642
0
LINE
8
Layer 1
10
626.718681
20
580.680642
11
627.419665
21
580.454702
0
LINE
8
Layer 1
10
627.419665
20
580.454702
11
628.173430
21
580.369100
0
LINE
8
Layer 1
10
628.173430
20
580.369100
11
628.173460
21
580.369100
0
LINE
8
Layer 1
10
718.878560
20
580.369100
11
718.931260
21
580.369100
0
LINE
8
Layer 1
10
718.931260
20
580.369100
11
719.692900
21
580.445921
0
LINE
8
Layer 1
10
719.692900
20
580.445921
11
720.402294
21
580.666157
0
LINE
8
Layer 1
10
720.402294
20
580.666157
11
721.603561
21
581.476099
0
LINE
8
Layer 1
10
721.603561
20
581.476099
11
722.413503
21
582.677366
0
LINE
8
Layer 1
10
722.413503
20
582.677366
11
722.633739
21
583.386760
0
LINE
8
Layer 1
10
722.633739
20
583.386760
11
722.710560
21
584.148400
0
LINE
8
Layer 1
10
722.710560
20
584.148400
11
722.633738
21
584.910039
0
LINE
8
Layer 1
10
722.633738
20
584.910039
11
722.413500
21
585.619431
0
LINE
8
Layer 1
10
722.413500
20
585.619431
11
721.603558
21
586.820695
0
LINE
8
Layer 1
10
721.603558
20
586.820695
11
720.402292
21
587.630634
0
LINE
8
Layer 1
10
720.402292
20
587.630634
11
719.692899
21
587.850870
0
LINE
8
Layer 1
10
719.692899
20
587.850870
11
718.931260
21
587.927690
0
LINE
8
Layer 1
10
718.931260
20
587.927690
11
717.484424
21
587.640507
0
LINE
8
Layer 1
10
717.484424
20
587.640507
11
716.257702
21
586.821384
0
LINE
8
Layer 1
10
716.257702
20
586.821384
11
715.437943
21
585.595087
0
LINE
8
Layer 1
10
715.437943
20
585.595087
11
715.150010
21
584.148400
0
LINE
8
Layer 1
10
715.150010
20
584.148400
11
715.225409
21
583.393546
0
LINE
8
Layer 1
10
715.225409
20
583.393546
11
715.441845
21
582.689570
0
LINE
8
Layer 1
10
715.441845
20
582.689570
11
716.238994
21
581.493891
0
LINE
8
Layer 1
10
716.238994
20
581.493891
11
717.423781
21
580.680642
0
LINE
8
Layer 1
10
717.423781
20
580.680642
11
718.124765
21
580.454702
0
LINE
8
Layer 1
10
718.124765
20
580.454702
11
718.878530
21
580.369100
0
LINE
8
Layer 1
10
718.878530
20
580.369100
11
718.878560
21
580.369100
0
LINE
8
Layer 1
10
241.841560
20
580.371100
11
241.892360
21
580.371100
0
LINE
8
Layer 1
10
241.892360
20
580.371100
11
243.339199
21
580.658284
0
LINE
8
Layer 1
10
243.339199
20
580.658284
11
244.565922
21
581.477409
0
LINE
8
Layer 1
10
244.565922
20
581.477409
11
245.385680
21
582.703710
0
LINE
8
Layer 1
10
245.385680
20
582.703710
11
245.673610
21
584.150400
0
LINE
8
Layer 1
10
245.673610
20
584.150400
11
245.385680
21
585.597090
0
LINE
8
Layer 1
10
245.385680
20
585.597090
11
244.565922
21
586.823391
0
LINE
8
Layer 1
10
244.565922
20
586.823391
11
243.339199
21
587.642516
0
LINE
8
Layer 1
10
243.339199
20
587.642516
11
241.892360
21
587.929700
0
LINE
8
Layer 1
10
241.892360
20
587.929700
11
241.130720
21
587.852879
0
LINE
8
Layer 1
10
241.130720
20
587.852879
11
240.421326
21
587.632643
0
LINE
8
Layer 1
10
240.421326
20
587.632643
11
239.220059
21
586.822701
0
LINE
8
Layer 1
10
239.220059
20
586.822701
11
238.410117
21
585.621434
0
LINE
8
Layer 1
10
238.410117
20
585.621434
11
238.189881
21
584.912040
0
LINE
8
Layer 1
10
238.189881
20
584.912040
11
238.113060
21
584.150400
0
LINE
8
Layer 1
10
238.113060
20
584.150400
11
238.188459
21
583.395546
0
LINE
8
Layer 1
10
238.188459
20
583.395546
11
238.404895
21
582.691570
0
LINE
8
Layer 1
10
238.404895
20
582.691570
11
239.202044
21
581.495891
0
LINE
8
Layer 1
10
239.202044
20
581.495891
11
240.386831
21
580.682642
0
LINE
8
Layer 1
10
240.386831
20
580.682642
11
241.087815
21
580.456702
0
LINE
8
Layer 1
10
241.087815
20
580.456702
11
241.841580
21
580.371100
0
LINE
8
Layer 1
10
241.841580
20
580.371100
11
241.841560
21
580.371100
0
LINE
8
Layer 1
10
91.857400
20
599.270000
11
188.234400
21
599.270000
0
LINE
8
Layer 1
10
188.234400
20
599.270000
11
188.234400
21
697.535600
0
LINE
8
Layer 1
10
188.234400
20
697.535600
11
188.234400
21
735.332500
0
LINE
8
Layer 1
10
188.234400
20
735.332500
11
188.234400
21
739.109850
0
LINE
8
Layer 1
10
188.234400
20
739.109850
11
142.880900
21
739.109850
0
LINE
8
Layer 1
10
142.880900
20
739.109850
11
142.880900
21
697.537550
0
LINE
8
Layer 1
10
142.880900
20
697.537550
11
137.210980
21
697.537550
0
LINE
8
Layer 1
10
137.210980
20
697.537550
11
137.210980
21
739.109850
0
LINE
8
Layer 1
10
137.210980
20
739.109850
11
91.857400
21
739.109850
0
LINE
8
Layer 1
10
91.857400
20
739.109850
11
91.857400
21
735.332500
0
LINE
8
Layer 1
10
91.857400
20
735.332500
11
91.857400
21
697.537600
0
LINE
8
Layer 1
10
91.857400
20
697.537600
11
91.857400
21
697.535600
0
LINE
8
Layer 1
10
91.857400
20
697.535600
11
91.857400
21
599.270000
0
LINE
8
Layer 1
10
149.596000
20
752.820000
11
202.510100
21
752.820000
0
LINE
8
Layer 1
10
202.510100
20
752.820000
11
202.510100
21
756.599300
0
LINE
8
Layer 1
10
202.510100
20
756.599300
11
205.533530
21
756.599300
0
LINE
8
Layer 1
10
205.533530
20
756.599300
11
205.533530
21
768.316100
0
LINE
8
Layer 1
10
205.533530
20
768.316100
11
202.510100
21
768.316100
0
LINE
8
Layer 1
10
202.510100
20
768.316100
11
202.510100
21
790.236000
0
LINE
8
Layer 1
10
202.510100
20
790.236000
11
205.533530
21
790.236000
0
LINE
8
Layer 1
10
205.533530
20
790.236000
11
205.533530
21
801.952800
0
LINE
8
Layer 1
10
205.533530
20
801.952800
11
202.510100
21
801.952800
0
LINE
8
Layer 1
10
202.510100
20
801.952800
11
202.510100
21
805.732100
0
LINE
8
Layer 1
10
202.510100
20
805.732100
11
149.596000
21
805.732100
0
LINE
8
Layer 1
10
149.596000
20
805.732100
11
149.596000
21
801.952800
0
LINE
8
Layer 1
10
149.596000
20
801.952800
11
146.574520
21
801.952800
0
LINE
8
Layer 1
10
146.574520
20
801.952800
11
146.574520
21
790.236000
0
LINE
8
Layer 1
10
146.574520
20
790.236000
11
149.596000
21
790.236000
0
LINE
8
Layer 1
10
149.596000
20
790.236000
11
149.596000
21
768.316100
0
LINE
8
Layer 1
10
149.596000
20
768.316100
11
146.574520
21
768.316100
0
LINE
8
Layer 1
10
146.574520
20
768.316100
11
146.574520
21
756.599300
0
LINE
8
Layer 1
10
146.574520
20
756.599300
11
149.596000
21
756.599300
0
LINE
8
Layer 1
10
149.596000
20
756.599300
11
149.596000
21
752.820000
0
LINE
8
Layer 1
10
85.154300
20
764.348000
11
122.949000
21
764.348000
0
LINE
8
Layer 1
10
122.949000
20
764.348000
11
122.949000
21
938.207000
0
LINE
8
Layer 1
10
122.949000
20
938.207000
11
85.154300
21
938.207000
0
LINE
8
Layer 1
10
85.154300
20
938.207000
11
85.154300
21
764.348000
0
LINE
8
Layer 1
10
149.595700
20
824.820700
11
202.509800
21
824.820700
0
LINE
8
Layer 1
10
202.509800
20
824.820700
11
202.509800
21
828.600000
0
LINE
8
Layer 1
10
202.509800
20
828.600000
11
205.533230
21
828.600000
0
LINE
8
Layer 1
10
205.533230
20
828.600000
11
205.533230
21
840.312900
0
LINE
8
Layer 1
10
205.533230
20
840.312900
11
202.509800
21
840.312900
0
LINE
8
Layer 1
10
202.509800
20
840.312900
11
202.509800
21
862.236700
0
LINE
8
Layer 1
10
202.509800
20
862.236700
11
205.533230
21
862.236700
0
LINE
8
Layer 1
10
205.533230
20
862.236700
11
205.533230
21
873.953500
0
LINE
8
Layer 1
10
205.533230
20
873.953500
11
202.509800
21
873.953500
0
LINE
8
Layer 1
10
202.509800
20
873.953500
11
202.509800
21
877.732800
0
LINE
8
Layer 1
10
202.509800
20
877.732800
11
149.596000
21
877.732800
0
LINE
8
Layer 1
10
149.596000
20
877.732800
11
149.596000
21
873.953500
0
LINE
8
Layer 1
10
149.596000
20
873.953500
11
146.574520
21
873.953500
0
LINE
8
Layer 1
10
146.574520
20
873.953500
11
146.574520
21
862.236700
0
LINE
8
Layer 1
10
146.574520
20
862.236700
11
149.596000
21
862.236700
0
LINE
8
Layer 1
10
149.596000
20
862.236700
11
149.596000
21
840.312000
0
LINE
8
Layer 1
10
149.596000
20
840.312000
11
146.574520
21
840.312000
0
LINE
8
Layer 1
10
146.574520
20
840.312000
11
146.574520
21
828.599100
0
LINE
8
Layer 1
10
146.574520
20
828.599100
11
149.596000
21
828.599100
0
LINE
8
Layer 1
10
149.596000
20
828.599100
11
149.595700
21
824.820700
0
LINE
8
Layer 1
10
149.593700
20
896.820700
11
202.507800
21
896.820700
0
LINE
8
Layer 1
10
202.507800
20
896.820700
11
202.507800
21
900.600000
0
LINE
8
Layer 1
10
202.507800
20
900.600000
11
205.531240
21
900.600000
0
LINE
8
Layer 1
10
205.531240
20
900.600000
11
205.531240
21
912.316800
0
LINE
8
Layer 1
10
205.531240
20
912.316800
11
202.507800
21
912.316800
0
LINE
8
Layer 1
10
202.507800
20
912.316800
11
202.507800
21
934.236700
0
LINE
8
Layer 1
10
202.507800
20
934.236700
11
205.531240
21
934.236700
0
LINE
8
Layer 1
10
205.531240
20
934.236700
11
205.531240
21
945.953500
0
LINE
8
Layer 1
10
205.531240
20
945.953500
11
202.507800
21
945.953500
0
LINE
8
Layer 1
10
202.507800
20
945.953500
11
202.507800
21
949.732800
0
LINE
8
Layer 1
10
202.507800
20
949.732800
11
149.594000
21
949.732800
0
LINE
8
Layer 1
10
149.594000
20
949.732800
11
149.594000
21
945.953500
0
LINE
8
Layer 1
10
149.594000
20
945.953500
11
146.574470
21
945.953500
0
LINE
8
Layer 1
10
146.574470
20
945.953500
11
146.574470
21
934.236700
0
LINE
8
Layer 1
10
146.574470
20
934.236700
11
149.594000
21
934.236700
0
LINE
8
Layer 1
10
149.594000
20
934.236700
11
149.594000
21
912.316800
0
LINE
8
Layer 1
10
149.594000
20
912.316800
11
146.574470
21
912.316800
0
LINE
8
Layer 1
10
146.574470
20
912.316800
11
146.574470
21
900.600000
0
LINE
8
Layer 1
10
146.574470
20
900.600000
11
149.594000
21
900.600000
0
LINE
8
Layer 1
10
149.594000
20
900.600000
11
149.593700
21
896.820700
0
LINE
8
Layer 1
10
53.232400
20
988.613700
11
53.234400
21
988.613700
0
LINE
8
Layer 1
10
53.234400
20
988.613700
11
53.283230
21
988.613700
0
LINE
8
Layer 1
10
53.283230
20
988.613700
11
54.730069
21
988.900884
0
LINE
8
Layer 1
10
54.730069
20
988.900884
11
55.956792
21
989.720009
0
LINE
8
Layer 1
10
55.956792
20
989.720009
11
56.776550
21
990.946310
0
LINE
8
Layer 1
10
56.776550
20
990.946310
11
57.064480
21
992.393000
0
LINE
8
Layer 1
10
57.064480
20
992.393000
11
56.776550
21
993.839690
0
LINE
8
Layer 1
10
56.776550
20
993.839690
11
55.956792
21
995.065991
0
LINE
8
Layer 1
10
55.956792
20
995.065991
11
54.730069
21
995.885116
0
LINE
8
Layer 1
10
54.730069
20
995.885116
11
53.283230
21
996.172300
0
LINE
8
Layer 1
10
53.283230
20
996.172300
11
52.521590
21
996.095479
0
LINE
8
Layer 1
10
52.521590
20
996.095479
11
51.812196
21
995.875243
0
LINE
8
Layer 1
10
51.812196
20
995.875243
11
50.610929
21
995.065301
0
LINE
8
Layer 1
10
50.610929
20
995.065301
11
49.800987
21
993.864034
0
LINE
8
Layer 1
10
49.800987
20
993.864034
11
49.580751
21
993.154640
0
LINE
8
Layer 1
10
49.580751
20
993.154640
11
49.503930
21
992.393000
0
LINE
8
Layer 1
10
49.503930
20
992.393000
11
49.579329
21
991.638146
0
LINE
8
Layer 1
10
49.579329
20
991.638146
11
49.795765
21
990.934170
0
LINE
8
Layer 1
10
49.795765
20
990.934170
11
50.592914
21
989.738491
0
LINE
8
Layer 1
10
50.592914
20
989.738491
11
51.777701
21
988.925242
0
LINE
8
Layer 1
10
51.777701
20
988.925242
11
52.478685
21
988.699302
0
LINE
8
Layer 1
10
52.478685
20
988.699302
11
53.232450
21
988.613700
0
LINE
8
Layer 1
10
53.232450
20
988.613700
11
53.232400
21
988.613700
0
LINE
8
Layer 1
10
386.058400
20
988.613700
11
386.060400
21
988.613700
0
LINE
8
Layer 1
10
386.060400
20
988.613700
11
386.109200
21
988.613700
0
LINE
8
Layer 1
10
386.109200
20
988.613700
11
386.870839
21
988.690522
0
LINE
8
Layer 1
10
386.870839
20
988.690522
11
387.580231
21
988.910760
0
LINE
8
Layer 1
10
387.580231
20
988.910760
11
388.781495
21
989.720702
0
LINE
8
Layer 1
10
388.781495
20
989.720702
11
389.591434
21
990.921968
0
LINE
8
Layer 1
10
389.591434
20
990.921968
11
389.811670
21
991.631361
0
LINE
8
Layer 1
10
389.811670
20
991.631361
11
389.888490
21
992.393000
0
LINE
8
Layer 1
10
389.888490
20
992.393000
11
389.811670
21
993.154639
0
LINE
8
Layer 1
10
389.811670
20
993.154639
11
389.591434
21
993.864032
0
LINE
8
Layer 1
10
389.591434
20
993.864032
11
388.781495
21
995.065298
0
LINE
8
Layer 1
10
388.781495
20
995.065298
11
387.580231
21
995.875240
0
LINE
8
Layer 1
10
387.580231
20
995.875240
11
386.870839
21
996.095478
0
LINE
8
Layer 1
10
386.870839
20
996.095478
11
386.109200
21
996.172300
0
LINE
8
Layer 1
10
386.109200
20
996.172300
11
385.347560
21
996.095479
0
LINE
8
Layer 1
10
385.347560
20
996.095479
11
384.638166
21
995.875243
0
LINE
8
Layer 1
10
384.638166
20
995.875243
11
383.436899
21
995.065301
0
LINE
8
Layer 1
10
383.436899
20
995.065301
11
382.626957
21
993.864034
0
LINE
8
Layer 1
10
382.626957
20
993.864034
11
382.406721
21
993.154640
0
LINE
8
Layer 1
10
382.406721
20
993.154640
11
382.329900
21
992.393000
0
LINE
8
Layer 1
10
382.329900
20
992.393000
11
382.405298
21
991.638147
0
LINE
8
Layer 1
10
382.405298
20
991.638147
11
382.621734
21
990.934173
0
LINE
8
Layer 1
10
382.621734
20
990.934173
11
383.418881
21
989.738495
0
LINE
8
Layer 1
10
383.418881
20
989.738495
11
384.603664
21
988.925244
0
LINE
8
Layer 1
10
384.603664
20
988.925244
11
385.304647
21
988.699304
0
LINE
8
Layer 1
10
385.304647
20
988.699304
11
386.058410
21
988.613700
0
LINE
8
Layer 1
10
386.058410
20
988.613700
11
386.058400
21
988.613700
0
LINE
8
Layer 1
10
718.878400
20
988.613700
11
718.880400
21
988.613700
0
LINE
8
Layer 1
10
718.880400
20
988.613700
11
718.931200
21
988.613700
0
LINE
8
Layer 1
10
718.931200
20
988.613700
11
719.692840
21
988.690521
0
LINE
8
Layer 1
10
719.692840
20
988.690521
11
720.402234
21
988.910757
0
LINE
8
Layer 1
10
720.402234
20
988.910757
11
721.603501
21
989.720699
0
LINE
8
Layer 1
10
721.603501
20
989.720699
11
722.413443
21
990.921966
0
LINE
8
Layer 1
10
722.413443
20
990.921966
11
722.633679
21
991.631360
0
LINE
8
Layer 1
10
722.633679
20
991.631360
11
722.710500
21
992.393000
0
LINE
8
Layer 1
10
722.710500
20
992.393000
11
722.633679
21
993.154640
0
LINE
8
Layer 1
10
722.633679
20
993.154640
11
722.413443
21
993.864034
0
LINE
8
Layer 1
10
722.413443
20
993.864034
11
721.603501
21
995.065301
0
LINE
8
Layer 1
10
721.603501
20
995.065301
11
720.402234
21
995.875243
0
LINE
8
Layer 1
10
720.402234
20
995.875243
11
719.692840
21
996.095479
0
LINE
8
Layer 1
10
719.692840
20
996.095479
11
718.931200
21
996.172300
0
LINE
8
Layer 1
10
718.931200
20
996.172300
11
717.484361
21
995.885116
0
LINE
8
Layer 1
10
717.484361
20
995.885116
11
716.257638
21
995.065991
0
LINE
8
Layer 1
10
716.257638
20
995.065991
11
715.437880
21
993.839690
0
LINE
8
Layer 1
10
715.437880
20
993.839690
11
715.149950
21
992.393000
0
LINE
8
Layer 1
10
715.149950
20
992.393000
11
715.225349
21
991.638146
0
LINE
8
Layer 1
10
715.225349
20
991.638146
11
715.441785
21
990.934170
0
LINE
8
Layer 1
10
715.441785
20
990.934170
11
716.238934
21
989.738491
0
LINE
8
Layer 1
10
716.238934
20
989.738491
11
717.423721
21
988.925242
0
LINE
8
Layer 1
10
717.423721
20
988.925242
11
718.124705
21
988.699302
0
LINE
8
Layer 1
10
718.124705
20
988.699302
11
718.878470
21
988.613700
0
LINE
8
Layer 1
10
718.878470
20
988.613700
11
718.878400
21
988.613700
0
LINE
8
Layer 1
10
12.719600
20
29.787900
11
12.444681
21
29.799300
0
LINE
8
Layer 1
10
12.444681
20
29.799300
11
12.171829
21
29.832900
0
LINE
8
Layer 1
10
12.171829
20
29.832900
11
11.902079
21
29.885100
0
LINE
8
Layer 1
10
11.902079
20
29.885100
11
11.638012
21
29.960000
0
LINE
8
Layer 1
10
11.638012
20
29.960000
11
11.379630
21
30.055100
0
LINE
8
Layer 1
10
11.379630
20
30.055100
11
11.131066
21
30.170340
0
LINE
8
Layer 1
10
11.131066
20
30.170340
11
10.890771
21
30.304180
0
LINE
8
Layer 1
10
10.890771
20
30.304180
11
10.661844
21
30.457140
0
LINE
8
Layer 1
10
10.661844
20
30.457140
11
10.445837
21
30.627150
0
LINE
8
Layer 1
10
10.445837
20
30.627150
11
10.244815
21
30.814220
0
LINE
8
Layer 1
10
10.244815
20
30.814220
11
10.057747
21
31.015240
0
LINE
8
Layer 1
10
10.057747
20
31.015240
11
9.887731
21
31.231250
0
LINE
8
Layer 1
10
9.887731
20
31.231250
11
9.734769
21
31.460180
0
LINE
8
Layer 1
10
9.734769
20
31.460180
11
9.600927
21
31.699960
0
LINE
8
Layer 1
10
9.600927
20
31.699960
11
9.485689
21
31.949040
0
LINE
8
Layer 1
10
9.485689
20
31.949040
11
9.390599
21
32.206900
0
LINE
8
Layer 1
10
9.390599
20
32.206900
11
9.315669
21
32.470970
0
LINE
8
Layer 1
10
9.315669
20
32.470970
11
9.262959
21
32.741240
0
LINE
8
Layer 1
10
9.262959
20
32.741240
11
9.229889
21
33.014090
0
LINE
8
Layer 1
10
9.229889
20
33.014090
11
9.220089
21
33.289010
0
LINE
8
Layer 1
10
9.220089
20
33.289010
11
9.220089
21
142.307000
0
LINE
8
Layer 1
10
9.220089
20
142.307000
11
9.230939
21
142.581920
0
LINE
8
Layer 1
10
9.230939
20
142.581920
11
9.264009
21
142.855290
0
LINE
8
Layer 1
10
9.264009
20
142.855290
11
9.316719
21
143.124010
0
LINE
8
Layer 1
10
9.316719
20
143.124010
11
9.391649
21
143.389110
0
LINE
8
Layer 1
10
9.391649
20
143.389110
11
9.486729
21
143.645940
0
LINE
8
Layer 1
10
9.486729
20
143.645940
11
9.601968
21
143.896050
0
LINE
8
Layer 1
10
9.601968
20
143.896050
11
9.735810
21
144.136350
0
LINE
8
Layer 1
10
9.735810
20
144.136350
11
9.888772
21
144.364240
0
LINE
8
Layer 1
10
9.888772
20
144.364240
11
10.058787
21
144.580250
0
LINE
8
Layer 1
10
10.058787
20
144.580250
11
10.245856
21
144.782310
0
LINE
8
Layer 1
10
10.245856
20
144.782310
11
10.446877
21
144.968340
0
LINE
8
Layer 1
10
10.446877
20
144.968340
11
10.662885
21
145.139910
0
LINE
8
Layer 1
10
10.662885
20
145.139910
11
10.891811
21
145.291830
0
LINE
8
Layer 1
10
10.891811
20
145.291830
11
11.132107
21
145.426710
0
LINE
8
Layer 1
10
11.132107
20
145.426710
11
11.380670
21
145.541430
0
LINE
8
Layer 1
10
11.380670
20
145.541430
11
11.639052
21
145.636530
0
LINE
8
Layer 1
10
11.639052
20
145.636530
11
11.903119
21
145.710930
0
LINE
8
Layer 1
10
11.903119
20
145.710930
11
12.172870
21
145.764130
0
LINE
8
Layer 1
10
12.172870
20
145.764130
11
12.445722
21
145.796130
0
LINE
8
Layer 1
10
12.445722
20
145.796130
11
12.720640
21
145.806930
0
LINE
8
Layer 1
10
12.720640
20
145.806930
11
191.685000
21
145.806930
0
LINE
8
Layer 1
10
191.685000
20
145.806930
11
192.365325
21
145.668568
0
LINE
8
Layer 1
10
192.365325
20
145.668568
11
192.920688
21
145.293276
0
LINE
8
Layer 1
10
192.920688
20
145.293276
11
193.295003
21
144.737241
0
LINE
8
Layer 1
10
193.295003
20
144.737241
11
193.432180
21
144.056650
0
LINE
8
Layer 1
10
193.432180
20
144.056650
11
193.432180
21
134.790550
0
LINE
8
Layer 1
10
193.432180
20
134.790550
11
193.293797
21
134.110204
0
LINE
8
Layer 1
10
193.293797
20
134.110204
11
192.918497
21
133.554833
0
LINE
8
Layer 1
10
192.918497
20
133.554833
11
192.362469
21
133.180525
0
LINE
8
Layer 1
10
192.362469
20
133.180525
11
191.681900
21
133.043370
0
LINE
8
Layer 1
10
191.681900
20
133.043370
11
60.081100
21
133.043370
0
LINE
8
Layer 1
10
60.081100
20
133.043370
11
60.081100
21
37.787400
0
LINE
8
Layer 1
10
60.081100
20
37.787400
11
191.685000
21
37.787400
0
LINE
8
Layer 1
10
191.685000
20
37.787400
11
192.365325
21
37.649038
0
LINE
8
Layer 1
10
192.365325
20
37.649038
11
192.920688
21
37.273746
0
LINE
8
Layer 1
10
192.920688
20
37.273746
11
193.295003
21
36.717711
0
LINE
8
Layer 1
10
193.295003
20
36.717711
11
193.432180
21
36.037120
0
LINE
8
Layer 1
10
193.432180
20
36.037120
11
193.432180
21
31.536100
0
LINE
8
Layer 1
10
193.432180
20
31.536100
11
193.293797
21
30.855754
0
LINE
8
Layer 1
10
193.293797
20
30.855754
11
192.918497
21
30.300383
0
LINE
8
Layer 1
10
192.918497
20
30.300383
11
192.362469
21
29.926075
0
LINE
8
Layer 1
10
192.362469
20
29.926075
11
191.681900
21
29.788920
0
LINE
8
Layer 1
10
191.681900
20
29.788920
11
12.719600
21
29.787900
0
LINE
8
Layer 1
10
13.299926
20
32.785650
11
13.313366
21
32.785650
0
LINE
8
Layer 1
10
13.313366
20
32.785650
11
13.696168
21
32.861632
0
LINE
8
Layer 1
10
13.696168
20
32.861632
11
14.020735
21
33.078357
0
LINE
8
Layer 1
10
14.020735
20
33.078357
11
14.237633
21
33.402816
0
LINE
8
Layer 1
10
14.237633
20
33.402816
11
14.313826
21
33.785590
0
LINE
8
Layer 1
10
14.313826
20
33.785590
11
14.237779
21
34.168521
0
LINE
8
Layer 1
10
14.237779
20
34.168521
11
14.020915
21
34.493153
0
LINE
8
Layer 1
10
14.020915
20
34.493153
11
13.696285
21
34.710009
0
LINE
8
Layer 1
10
13.696285
20
34.710009
11
13.313366
21
34.786040
0
LINE
8
Layer 1
10
13.313366
20
34.786040
11
12.930607
21
34.709859
0
LINE
8
Layer 1
10
12.930607
20
34.709859
11
12.606154
21
34.492968
0
LINE
8
Layer 1
10
12.606154
20
34.492968
11
12.389425
21
34.168400
0
LINE
8
Layer 1
10
12.389425
20
34.168400
11
12.313428
21
33.785590
0
LINE
8
Layer 1
10
12.313428
20
33.785590
11
12.390654
21
33.399605
0
LINE
8
Layer 1
10
12.390654
20
33.399605
11
12.601568
21
33.083249
0
LINE
8
Layer 1
10
12.601568
20
33.083249
11
12.915039
21
32.868078
0
LINE
8
Layer 1
10
12.915039
20
32.868078
11
13.299931
21
32.785650
0
LINE
8
Layer 1
10
13.299931
20
32.785650
11
13.299926
21
32.785650
0
LINE
8
Layer 1
10
85.220126
20
32.785650
11
85.233566
21
32.785650
0
LINE
8
Layer 1
10
85.233566
20
32.785650
11
85.622768
21
32.864245
0
LINE
8
Layer 1
10
85.622768
20
32.864245
11
85.940599
21
33.078541
0
LINE
8
Layer 1
10
85.940599
20
33.078541
11
86.154898
21
33.396376
0
LINE
8
Layer 1
10
86.154898
20
33.396376
11
86.233506
21
33.785590
0
LINE
8
Layer 1
10
86.233506
20
33.785590
11
86.157509
21
34.168401
0
LINE
8
Layer 1
10
86.157509
20
34.168401
11
85.940779
21
34.492969
0
LINE
8
Layer 1
10
85.940779
20
34.492969
11
85.616326
21
34.709860
0
LINE
8
Layer 1
10
85.616326
20
34.709860
11
85.233566
21
34.786040
0
LINE
8
Layer 1
10
85.233566
20
34.786040
11
84.850807
21
34.709859
0
LINE
8
Layer 1
10
84.850807
20
34.709859
11
84.526355
21
34.492968
0
LINE
8
Layer 1
10
84.526355
20
34.492968
11
84.309626
21
34.168400
0
LINE
8
Layer 1
10
84.309626
20
34.168400
11
84.233629
21
33.785590
0
LINE
8
Layer 1
10
84.233629
20
33.785590
11
84.310855
21
33.399606
0
LINE
8
Layer 1
10
84.310855
20
33.399606
11
84.521769
21
33.083249
0
LINE
8
Layer 1
10
84.521769
20
33.083249
11
84.835239
21
32.868078
0
LINE
8
Layer 1
10
84.835239
20
32.868078
11
85.220131
21
32.785650
0
LINE
8
Layer 1
10
85.220131
20
32.785650
11
85.220126
21
32.785650
0
LINE
8
Layer 1
10
165.419826
20
32.785650
11
165.433726
21
32.785650
0
LINE
8
Layer 1
10
165.433726
20
32.785650
11
165.822928
21
32.864245
0
LINE
8
Layer 1
10
165.822928
20
32.864245
11
166.140759
21
33.078541
0
LINE
8
Layer 1
10
166.140759
20
33.078541
11
166.355058
21
33.396376
0
LINE
8
Layer 1
10
166.355058
20
33.396376
11
166.433666
21
33.785590
0
LINE
8
Layer 1
10
166.433666
20
33.785590
11
166.357669
21
34.168401
0
LINE
8
Layer 1
10
166.357669
20
34.168401
11
166.140939
21
34.492969
0
LINE
8
Layer 1
10
166.140939
20
34.492969
11
165.816486
21
34.709860
0
LINE
8
Layer 1
10
165.816486
20
34.709860
11
165.433726
21
34.786040
0
LINE
8
Layer 1
10
165.433726
20
34.786040
11
165.050807
21
34.710009
0
LINE
8
Layer 1
10
165.050807
20
34.710009
11
164.726177
21
34.493153
0
LINE
8
Layer 1
10
164.726177
20
34.493153
11
164.509313
21
34.168521
0
LINE
8
Layer 1
10
164.509313
20
34.168521
11
164.433266
21
33.785590
0
LINE
8
Layer 1
10
164.433266
20
33.785590
11
164.510493
21
33.399604
0
LINE
8
Layer 1
10
164.510493
20
33.399604
11
164.721409
21
33.083247
0
LINE
8
Layer 1
10
164.721409
20
33.083247
11
165.034881
21
32.868076
0
LINE
8
Layer 1
10
165.034881
20
32.868076
11
165.419776
21
32.785650
0
LINE
8
Layer 1
10
165.419776
20
32.785650
11
165.419826
21
32.785650
0
LINE
8
Layer 1
10
189.418926
20
32.785650
11
189.432826
21
32.785650
0
LINE
8
Layer 1
10
189.432826
20
32.785650
11
189.822028
21
32.864245
0
LINE
8
Layer 1
10
189.822028
20
32.864245
11
190.139859
21
33.078541
0
LINE
8
Layer 1
10
190.139859
20
33.078541
11
190.354158
21
33.396376
0
LINE
8
Layer 1
10
190.354158
20
33.396376
11
190.432766
21
33.785590
0
LINE
8
Layer 1
10
190.432766
20
33.785590
11
190.356769
21
34.168401
0
LINE
8
Layer 1
10
190.356769
20
34.168401
11
190.140039
21
34.492969
0
LINE
8
Layer 1
10
190.140039
20
34.492969
11
189.815586
21
34.709860
0
LINE
8
Layer 1
10
189.815586
20
34.709860
11
189.432826
21
34.786040
0
LINE
8
Layer 1
10
189.432826
20
34.786040
11
189.049907
21
34.710009
0
LINE
8
Layer 1
10
189.049907
20
34.710009
11
188.725277
21
34.493153
0
LINE
8
Layer 1
10
188.725277
20
34.493153
11
188.508413
21
34.168521
0
LINE
8
Layer 1
10
188.508413
20
34.168521
11
188.432366
21
33.785590
0
LINE
8
Layer 1
10
188.432366
20
33.785590
11
188.509593
21
33.399604
0
LINE
8
Layer 1
10
188.509593
20
33.399604
11
188.720509
21
33.083247
0
LINE
8
Layer 1
10
188.720509
20
33.083247
11
189.033981
21
32.868076
0
LINE
8
Layer 1
10
189.033981
20
32.868076
11
189.418876
21
32.785650
0
LINE
8
Layer 1
10
189.418876
20
32.785650
11
189.418926
21
32.785650
0
LINE
8
Layer 1
10
63.202926
20
32.786650
11
63.216366
21
32.786650
0
LINE
8
Layer 1
10
63.216366
20
32.786650
11
63.599168
21
32.862632
0
LINE
8
Layer 1
10
63.599168
20
32.862632
11
63.923735
21
33.079357
0
LINE
8
Layer 1
10
63.923735
20
33.079357
11
64.140633
21
33.403816
0
LINE
8
Layer 1
10
64.140633
20
33.403816
11
64.216826
21
33.786590
0
LINE
8
Layer 1
10
64.216826
20
33.786590
11
64.140630
21
34.169361
0
LINE
8
Layer 1
10
64.140630
20
34.169361
11
63.923731
21
34.493817
0
LINE
8
Layer 1
10
63.923731
20
34.493817
11
63.599165
21
34.710539
0
LINE
8
Layer 1
10
63.599165
20
34.710539
11
63.216366
21
34.786520
0
LINE
8
Layer 1
10
63.216366
20
34.786520
11
62.827167
21
34.707926
0
LINE
8
Layer 1
10
62.827167
20
34.707926
11
62.509337
21
34.493633
0
LINE
8
Layer 1
10
62.509337
20
34.493633
11
62.295037
21
34.175801
0
LINE
8
Layer 1
10
62.295037
20
34.175801
11
62.216426
21
33.786590
0
LINE
8
Layer 1
10
62.216426
20
33.786590
11
62.293652
21
33.400605
0
LINE
8
Layer 1
10
62.293652
20
33.400605
11
62.504567
21
33.084249
0
LINE
8
Layer 1
10
62.504567
20
33.084249
11
62.818037
21
32.869078
0
LINE
8
Layer 1
10
62.818037
20
32.869078
11
63.202930
21
32.786650
0
LINE
8
Layer 1
10
63.202930
20
32.786650
11
63.202926
21
32.786650
0
LINE
8
Layer 1
10
25.861526
20
42.825850
11
46.619926
21
42.825850
0
LINE
8
Layer 1
10
46.619926
20
42.825850
11
47.349453
21
42.972395
0
LINE
8
Layer 1
10
47.349453
20
42.972395
11
47.943921
21
43.372526
0
LINE
8
Layer 1
10
47.943921
20
43.372526
11
48.344064
21
43.966992
0
LINE
8
Layer 1
10
48.344064
20
43.966992
11
48.490616
21
44.696540
0
LINE
8
Layer 1
10
48.490616
20
44.696540
11
48.490616
21
54.955840
0
LINE
8
Layer 1
10
48.490616
20
54.955840
11
48.344065
21
55.685382
0
LINE
8
Layer 1
10
48.344065
20
55.685382
11
47.943922
21
56.279845
0
LINE
8
Layer 1
10
47.943922
20
56.279845
11
47.349454
21
56.679976
0
LINE
8
Layer 1
10
47.349454
20
56.679976
11
46.619926
21
56.826520
0
LINE
8
Layer 1
10
46.619926
20
56.826520
11
25.861500
21
56.826520
0
LINE
8
Layer 1
10
25.861500
20
56.826520
11
25.131973
21
56.679976
0
LINE
8
Layer 1
10
25.131973
20
56.679976
11
24.537505
21
56.279845
0
LINE
8
Layer 1
10
24.537505
20
56.279845
11
24.137362
21
55.685382
0
LINE
8
Layer 1
10
24.137362
20
55.685382
11
23.990810
21
54.955840
0
LINE
8
Layer 1
10
23.990810
20
54.955840
11
23.990810
21
44.696540
0
LINE
8
Layer 1
10
23.990810
20
44.696540
11
24.137361
21
43.966992
0
LINE
8
Layer 1
10
24.137361
20
43.966992
11
24.537504
21
43.372526
0
LINE
8
Layer 1
10
24.537504
20
43.372526
11
25.131973
21
42.972395
0
LINE
8
Layer 1
10
25.131973
20
42.972395
11
25.861500
21
42.825850
0
LINE
8
Layer 1
10
25.861500
20
42.825850
11
25.861526
21
42.825850
0
LINE
8
Layer 1
10
23.319566
20
63.788950
11
35.319366
21
63.788950
0
LINE
8
Layer 1
10
35.319366
20
63.788950
11
35.319366
21
74.188850
0
LINE
8
Layer 1
10
35.319366
20
74.188850
11
35.319366
21
74.788810
0
LINE
8
Layer 1
10
35.319366
20
74.788810
11
23.319500
21
74.788810
0
LINE
8
Layer 1
10
23.319500
20
74.788810
11
23.319500
21
74.188850
0
LINE
8
Layer 1
10
23.319500
20
74.188850
11
23.319566
21
63.788950
0
LINE
8
Layer 1
10
37.219466
20
63.788950
11
37.219995
21
63.788950
0
LINE
8
Layer 1
10
37.219995
20
63.788950
11
37.419467
21
63.788950
0
LINE
8
Layer 1
10
37.419467
20
63.788950
11
49.219767
21
63.788950
0
LINE
8
Layer 1
10
49.219767
20
63.788950
11
49.219767
21
74.188850
0
LINE
8
Layer 1
10
49.219767
20
74.188850
11
49.219767
21
74.788810
0
LINE
8
Layer 1
10
49.219767
20
74.788810
11
37.220000
21
74.788810
0
LINE
8
Layer 1
10
37.220000
20
74.788810
11
37.220000
21
74.188850
0
LINE
8
Layer 1
10
37.220000
20
74.188850
11
37.219471
21
74.188850
0
LINE
8
Layer 1
10
37.219471
20
74.188850
11
37.219466
21
63.788950
0
LINE
8
Layer 1
10
45.796206
20
81.916550
11
47.158550
21
82.191586
0
LINE
8
Layer 1
10
47.158550
20
82.191586
11
48.271067
21
82.941667
0
LINE
8
Layer 1
10
48.271067
20
82.941667
11
49.021163
21
84.054199
0
LINE
8
Layer 1
10
49.021163
20
84.054199
11
49.296246
21
85.416590
0
LINE
8
Layer 1
10
49.296246
20
85.416590
11
49.021166
21
86.778984
0
LINE
8
Layer 1
10
49.021166
20
86.778984
11
48.271070
21
87.891519
0
LINE
8
Layer 1
10
48.271070
20
87.891519
11
47.158553
21
88.641603
0
LINE
8
Layer 1
10
47.158553
20
88.641603
11
45.796206
21
88.916640
0
LINE
8
Layer 1
10
45.796206
20
88.916640
11
44.433856
21
88.641605
0
LINE
8
Layer 1
10
44.433856
20
88.641605
11
43.321335
21
87.891523
0
LINE
8
Layer 1
10
43.321335
20
87.891523
11
42.571237
21
86.778986
0
LINE
8
Layer 1
10
42.571237
20
86.778986
11
42.296156
21
85.416590
0
LINE
8
Layer 1
10
42.296156
20
85.416590
11
42.571240
21
84.054197
0
LINE
8
Layer 1
10
42.571240
20
84.054197
11
43.321339
21
82.941664
0
LINE
8
Layer 1
10
43.321339
20
82.941664
11
44.433859
21
82.191584
0
LINE
8
Layer 1
10
44.433859
20
82.191584
11
45.796206
21
81.916550
0
LINE
8
Layer 1
10
45.796206
20
81.916550
11
45.796206
21
81.916550
0
LINE
8
Layer 1
10
26.595806
20
85.966940
11
26.895013
21
85.966940
0
LINE
8
Layer 1
10
26.895013
20
85.966940
11
27.497009
21
86.215310
0
LINE
8
Layer 1
10
27.497009
20
86.215310
11
27.745606
21
86.817020
0
LINE
8
Layer 1
10
27.745606
20
86.817020
11
27.745606
21
122.117720
0
LINE
8
Layer 1
10
27.745606
20
122.117720
11
27.497009
21
122.719681
0
LINE
8
Layer 1
10
27.497009
20
122.719681
11
26.895013
21
122.968310
0
LINE
8
Layer 1
10
26.895013
20
122.968310
11
26.595806
21
122.968310
0
LINE
8
Layer 1
10
26.595806
20
122.968310
11
25.994103
21
122.719681
0
LINE
8
Layer 1
10
25.994103
20
122.719681
11
25.745728
21
122.117720
0
LINE
8
Layer 1
10
25.745728
20
122.117720
11
25.745728
21
86.817000
0
LINE
8
Layer 1
10
25.745728
20
86.817000
11
25.994103
21
86.215295
0
LINE
8
Layer 1
10
25.994103
20
86.215295
11
26.595806
21
85.966930
0
LINE
8
Layer 1
10
26.595806
20
85.966930
11
26.595806
21
85.966940
0
LINE
8
Layer 1
10
45.796206
20
100.967540
11
47.158427
21
101.242525
0
LINE
8
Layer 1
10
47.158427
20
101.242525
11
48.270886
21
101.992477
0
LINE
8
Layer 1
10
48.270886
20
101.992477
11
49.021016
21
103.104843
0
LINE
8
Layer 1
10
49.021016
20
103.104843
11
49.296246
21
104.467070
0
LINE
8
Layer 1
10
49.296246
20
104.467070
11
49.021163
21
105.829461
0
LINE
8
Layer 1
10
49.021163
20
105.829461
11
48.271067
21
106.941993
0
LINE
8
Layer 1
10
48.271067
20
106.941993
11
47.158550
21
107.692074
0
LINE
8
Layer 1
10
47.158550
20
107.692074
11
45.796206
21
107.967110
0
LINE
8
Layer 1
10
45.796206
20
107.967110
11
44.433859
21
107.692076
0
LINE
8
Layer 1
10
44.433859
20
107.692076
11
43.321339
21
106.941996
0
LINE
8
Layer 1
10
43.321339
20
106.941996
11
42.571240
21
105.829463
0
LINE
8
Layer 1
10
42.571240
20
105.829463
11
42.296156
21
104.467070
0
LINE
8
Layer 1
10
42.296156
20
104.467070
11
42.571387
21
103.104841
0
LINE
8
Layer 1
10
42.571387
20
103.104841
11
43.321519
21
101.992473
0
LINE
8
Layer 1
10
43.321519
20
101.992473
11
44.433982
21
101.242522
0
LINE
8
Layer 1
10
44.433982
20
101.242522
11
45.796206
21
100.967540
0
LINE
8
Layer 1
10
45.796206
20
100.967540
11
45.796206
21
100.967540
0
LINE
8
Layer 1
10
45.795677
20
120.017540
11
47.135181
21
120.283999
0
LINE
8
Layer 1
10
47.135181
20
120.283999
11
48.270732
21
121.042841
0
LINE
8
Layer 1
10
48.270732
20
121.042841
11
49.029421
21
122.178520
0
LINE
8
Layer 1
10
49.029421
20
122.178520
11
49.295727
21
123.518110
0
LINE
8
Layer 1
10
49.295727
20
123.518110
11
49.020643
21
124.880503
0
LINE
8
Layer 1
10
49.020643
20
124.880503
11
48.270544
21
125.993036
0
LINE
8
Layer 1
10
48.270544
20
125.993036
11
47.158024
21
126.743116
0
LINE
8
Layer 1
10
47.158024
20
126.743116
11
45.795677
21
127.018150
0
LINE
8
Layer 1
10
45.795677
20
127.018150
11
44.433333
21
126.743114
0
LINE
8
Layer 1
10
44.433333
20
126.743114
11
43.320816
21
125.993033
0
LINE
8
Layer 1
10
43.320816
20
125.993033
11
42.570720
21
124.880501
0
LINE
8
Layer 1
10
42.570720
20
124.880501
11
42.295637
21
123.518110
0
LINE
8
Layer 1
10
42.295637
20
123.518110
11
42.561942
21
122.178522
0
LINE
8
Layer 1
10
42.561942
20
122.178522
11
43.320629
21
121.042845
0
LINE
8
Layer 1
10
43.320629
20
121.042845
11
44.456176
21
120.284002
0
LINE
8
Layer 1
10
44.456176
20
120.284002
11
45.795677
21
120.017540
0
LINE
8
Layer 1
10
45.795677
20
120.017540
11
45.795677
21
120.017540
0
LINE
8
Layer 1
10
13.299977
20
140.804940
11
13.313417
21
140.804940
0
LINE
8
Layer 1
10
13.313417
20
140.804940
11
13.696219
21
140.880922
0
LINE
8
Layer 1
10
13.696219
20
140.880922
11
14.020786
21
141.097647
0
LINE
8
Layer 1
10
14.020786
20
141.097647
11
14.237684
21
141.422106
0
LINE
8
Layer 1
10
14.237684
20
141.422106
11
14.313877
21
141.804880
0
LINE
8
Layer 1
10
14.313877
20
141.804880
11
14.237830
21
142.187811
0
LINE
8
Layer 1
10
14.237830
20
142.187811
11
14.020966
21
142.512443
0
LINE
8
Layer 1
10
14.020966
20
142.512443
11
13.696336
21
142.729299
0
LINE
8
Layer 1
10
13.696336
20
142.729299
11
13.313417
21
142.805330
0
LINE
8
Layer 1
10
13.313417
20
142.805330
11
12.930658
21
142.729149
0
LINE
8
Layer 1
10
12.930658
20
142.729149
11
12.606205
21
142.512258
0
LINE
8
Layer 1
10
12.606205
20
142.512258
11
12.389476
21
142.187690
0
LINE
8
Layer 1
10
12.389476
20
142.187690
11
12.313479
21
141.804880
0
LINE
8
Layer 1
10
12.313479
20
141.804880
11
12.390705
21
141.418895
0
LINE
8
Layer 1
10
12.390705
20
141.418895
11
12.601619
21
141.102539
0
LINE
8
Layer 1
10
12.601619
20
141.102539
11
12.915090
21
140.887368
0
LINE
8
Layer 1
10
12.915090
20
140.887368
11
13.299982
21
140.804940
0
LINE
8
Layer 1
10
13.299982
20
140.804940
11
13.299977
21
140.804940
0
LINE
8
Layer 1
10
101.360277
20
140.804940
11
101.373677
21
140.804940
0
LINE
8
Layer 1
10
101.373677
20
140.804940
11
101.762879
21
140.883535
0
LINE
8
Layer 1
10
101.762879
20
140.883535
11
102.080710
21
141.097831
0
LINE
8
Layer 1
10
102.080710
20
141.097831
11
102.295009
21
141.415666
0
LINE
8
Layer 1
10
102.295009
20
141.415666
11
102.373617
21
141.804880
0
LINE
8
Layer 1
10
102.373617
20
141.804880
11
102.297620
21
142.187691
0
LINE
8
Layer 1
10
102.297620
20
142.187691
11
102.080890
21
142.512259
0
LINE
8
Layer 1
10
102.080890
20
142.512259
11
101.756437
21
142.729150
0
LINE
8
Layer 1
10
101.756437
20
142.729150
11
101.373677
21
142.805330
0
LINE
8
Layer 1
10
101.373677
20
142.805330
11
100.990917
21
142.729150
0
LINE
8
Layer 1
10
100.990917
20
142.729150
11
100.666464
21
142.512259
0
LINE
8
Layer 1
10
100.666464
20
142.512259
11
100.449734
21
142.187691
0
LINE
8
Layer 1
10
100.449734
20
142.187691
11
100.373737
21
141.804880
0
LINE
8
Layer 1
10
100.373737
20
141.804880
11
100.450963
21
141.418896
0
LINE
8
Layer 1
10
100.450963
20
141.418896
11
100.661876
21
141.102540
0
LINE
8
Layer 1
10
100.661876
20
141.102540
11
100.975346
21
140.887369
0
LINE
8
Layer 1
10
100.975346
20
140.887369
11
101.360237
21
140.804940
0
LINE
8
Layer 1
10
101.360237
20
140.804940
11
101.360277
21
140.804940
0
LINE
8
Layer 1
10
189.418977
20
140.804940
11
189.432877
21
140.804940
0
LINE
8
Layer 1
10
189.432877
20
140.804940
11
189.822079
21
140.883535
0
LINE
8
Layer 1
10
189.822079
20
140.883535
11
190.139910
21
141.097831
0
LINE
8
Layer 1
10
190.139910
20
141.097831
11
190.354209
21
141.415666
0
LINE
8
Layer 1
10
190.354209
20
141.415666
11
190.432817
21
141.804880
0
LINE
8
Layer 1
10
190.432817
20
141.804880
11
190.356820
21
142.187691
0
LINE
8
Layer 1
10
190.356820
20
142.187691
11
190.140090
21
142.512259
0
LINE
8
Layer 1
10
190.140090
20
142.512259
11
189.815637
21
142.729150
0
LINE
8
Layer 1
10
189.815637
20
142.729150
11
189.432877
21
142.805330
0
LINE
8
Layer 1
10
189.432877
20
142.805330
11
189.049958
21
142.729299
0
LINE
8
Layer 1
10
189.049958
20
142.729299
11
188.725328
21
142.512443
0
LINE
8
Layer 1
10
188.725328
20
142.512443
11
188.508464
21
142.187811
0
LINE
8
Layer 1
10
188.508464
20
142.187811
11
188.432417
21
141.804880
0
LINE
8
Layer 1
10
188.432417
20
141.804880
11
188.509644
21
141.418894
0
LINE
8
Layer 1
10
188.509644
20
141.418894
11
188.720560
21
141.102537
0
LINE
8
Layer 1
10
188.720560
20
141.102537
11
189.034032
21
140.887366
0
LINE
8
Layer 1
10
189.034032
20
140.887366
11
189.418927
21
140.804940
0
LINE
8
Layer 1
10
189.418927
20
140.804940
11
189.418977
21
140.804940
 0 
ENDSEC
 0 
EOF